{
  "header": {
    "PPQ": 96,
    "timeSignature": [
      4,
      4
    ],
    "bpm": 180.00018000018,
    "name": "TechnicalSymphony"
  },
  "tempo": [
    {
      "absoluteTime": 0,
      "seconds": 0,
      "bpm": 180.00018000018
    },
    {
      "absoluteTime": 0,
      "seconds": 0,
      "bpm": 180.00018000018
    },
    {
      "absoluteTime": 0,
      "seconds": 0,
      "bpm": 180.00018000018
    },
    {
      "absoluteTime": 37747,
      "seconds": 131.06584115625,
      "bpm": 180.00018000018
    }
  ],
  "timeSignature": [
    {
      "absoluteTime": 0,
      "seconds": 0,
      "numerator": 4,
      "denominator": 2,
      "click": 24,
      "notesQ": 8
    }
  ],
  "startTime": 0,
  "duration": 128.83320450000042,
  "tracks": [
    {
      "startTime": 0,
      "duration": 0,
      "length": 0,
      "notes": [],
      "controlChanges": {},
      "id": 0
    },
    {
      "startTime": 0,
      "duration": 0,
      "length": 0,
      "notes": [],
      "controlChanges": {},
      "id": 1
    },
    {
      "startTime": 0,
      "duration": 128.74987124999944,
      "length": 1329,
      "notes": [
        {
          "name": "D4",
          "midi": 62,
          "time": 0,
          "velocity": 0.7874015748031497,
          "duration": 1.333332
        },
        {
          "name": "A#3",
          "midi": 58,
          "time": 0,
          "velocity": 0.7874015748031497,
          "duration": 1.333332
        },
        {
          "name": "G3",
          "midi": 55,
          "time": 0,
          "velocity": 0.7874015748031497,
          "duration": 1.333332
        },
        {
          "name": "G2",
          "midi": 43,
          "time": 0,
          "velocity": 0.7874015748031497,
          "duration": 1.333332
        },
        {
          "name": "F4",
          "midi": 65,
          "time": 1.333332,
          "velocity": 0.7874015748031497,
          "duration": 1.333332
        },
        {
          "name": "A4",
          "midi": 69,
          "time": 1.333332,
          "velocity": 0.7874015748031497,
          "duration": 1.333332
        },
        {
          "name": "D4",
          "midi": 62,
          "time": 1.333332,
          "velocity": 0.7874015748031497,
          "duration": 1.333332
        },
        {
          "name": "D3",
          "midi": 50,
          "time": 1.333332,
          "velocity": 0.7874015748031497,
          "duration": 1.333332
        },
        {
          "name": "A#4",
          "midi": 70,
          "time": 2.666664,
          "velocity": 0.7874015748031497,
          "duration": 1.333332
        },
        {
          "name": "G4",
          "midi": 67,
          "time": 2.666664,
          "velocity": 0.7874015748031497,
          "duration": 1.333332
        },
        {
          "name": "D#4",
          "midi": 63,
          "time": 2.666664,
          "velocity": 0.7874015748031497,
          "duration": 1.333332
        },
        {
          "name": "D#3",
          "midi": 51,
          "time": 2.666664,
          "velocity": 0.7874015748031497,
          "duration": 1.333332
        },
        {
          "name": "F4",
          "midi": 65,
          "time": 3.999996,
          "velocity": 0.7874015748031497,
          "duration": 1.333332
        },
        {
          "name": "D4",
          "midi": 62,
          "time": 3.999996,
          "velocity": 0.7874015748031497,
          "duration": 1.333332
        },
        {
          "name": "A#3",
          "midi": 58,
          "time": 3.999996,
          "velocity": 0.7874015748031497,
          "duration": 1.333332
        },
        {
          "name": "A#2",
          "midi": 46,
          "time": 3.999996,
          "velocity": 0.7874015748031497,
          "duration": 1.333332
        },
        {
          "name": "D#3",
          "midi": 51,
          "time": 5.333328,
          "velocity": 0.7874015748031497,
          "duration": 1.3333320000000004
        },
        {
          "name": "D#4",
          "midi": 63,
          "time": 5.333328,
          "velocity": 0.7874015748031497,
          "duration": 0.6666660000000002
        },
        {
          "name": "G4",
          "midi": 67,
          "time": 5.333328,
          "velocity": 0.7874015748031497,
          "duration": 0.6666660000000002
        },
        {
          "name": "A#4",
          "midi": 70,
          "time": 5.333328,
          "velocity": 0.7874015748031497,
          "duration": 0.6666660000000002
        },
        {
          "name": "G4",
          "midi": 67,
          "time": 5.999994,
          "velocity": 0.7874015748031497,
          "duration": 0.6666660000000002
        },
        {
          "name": "A#4",
          "midi": 70,
          "time": 5.999994,
          "velocity": 0.7874015748031497,
          "duration": 0.6666660000000002
        },
        {
          "name": "D#5",
          "midi": 75,
          "time": 5.999994,
          "velocity": 0.7874015748031497,
          "duration": 0.6666660000000002
        },
        {
          "name": "A#4",
          "midi": 70,
          "time": 6.66666,
          "velocity": 0.7874015748031497,
          "duration": 0.6666660000000002
        },
        {
          "name": "F4",
          "midi": 65,
          "time": 6.66666,
          "velocity": 0.7874015748031497,
          "duration": 0.6666660000000002
        },
        {
          "name": "A#2",
          "midi": 46,
          "time": 6.66666,
          "velocity": 0.7874015748031497,
          "duration": 1.3333319999999995
        },
        {
          "name": "D5",
          "midi": 74,
          "time": 6.66666,
          "velocity": 0.7874015748031497,
          "duration": 0.6666660000000002
        },
        {
          "name": "A#4",
          "midi": 70,
          "time": 7.3333260000000005,
          "velocity": 0.7874015748031497,
          "duration": 0.33333299999999966
        },
        {
          "name": "F4",
          "midi": 65,
          "time": 7.3333260000000005,
          "velocity": 0.7874015748031497,
          "duration": 0.6666659999999993
        },
        {
          "name": "D4",
          "midi": 62,
          "time": 7.3333260000000005,
          "velocity": 0.7874015748031497,
          "duration": 0.6666659999999993
        },
        {
          "name": "D5",
          "midi": 74,
          "time": 7.666659,
          "velocity": 0.7874015748031497,
          "duration": 0.33333299999999966
        },
        {
          "name": "F3",
          "midi": 53,
          "time": 7.999992,
          "velocity": 0.7874015748031497,
          "duration": 1.3333319999999995
        },
        {
          "name": "A#4",
          "midi": 70,
          "time": 7.999992,
          "velocity": 0.7874015748031497,
          "duration": 0.33333300000000055
        },
        {
          "name": "C5",
          "midi": 72,
          "time": 7.999992,
          "velocity": 0.7874015748031497,
          "duration": 0.33333300000000055
        },
        {
          "name": "F4",
          "midi": 65,
          "time": 7.999992,
          "velocity": 0.7874015748031497,
          "duration": 0.33333300000000055
        },
        {
          "name": "A#4",
          "midi": 70,
          "time": 8.333325,
          "velocity": 0.7874015748031497,
          "duration": 0.33333299999999966
        },
        {
          "name": "C5",
          "midi": 72,
          "time": 8.333325,
          "velocity": 0.7874015748031497,
          "duration": 0.33333299999999966
        },
        {
          "name": "F4",
          "midi": 65,
          "time": 8.333325,
          "velocity": 0.7874015748031497,
          "duration": 0.33333299999999966
        },
        {
          "name": "A#4",
          "midi": 70,
          "time": 8.666658,
          "velocity": 0.7874015748031497,
          "duration": 0.33333299999999966
        },
        {
          "name": "C5",
          "midi": 72,
          "time": 8.666658,
          "velocity": 0.7874015748031497,
          "duration": 0.33333299999999966
        },
        {
          "name": "F4",
          "midi": 65,
          "time": 8.666658,
          "velocity": 0.7874015748031497,
          "duration": 0.33333299999999966
        },
        {
          "name": "A#4",
          "midi": 70,
          "time": 8.999991,
          "velocity": 0.7874015748031497,
          "duration": 0.33333299999999966
        },
        {
          "name": "C5",
          "midi": 72,
          "time": 8.999991,
          "velocity": 0.7874015748031497,
          "duration": 0.33333299999999966
        },
        {
          "name": "F4",
          "midi": 65,
          "time": 8.999991,
          "velocity": 0.7874015748031497,
          "duration": 0.33333299999999966
        },
        {
          "name": "F3",
          "midi": 53,
          "time": 9.333324,
          "velocity": 0.7874015748031497,
          "duration": 0.33333299999999966
        },
        {
          "name": "A4",
          "midi": 69,
          "time": 9.333324,
          "velocity": 0.7874015748031497,
          "duration": 0.16666649999999983
        },
        {
          "name": "C5",
          "midi": 72,
          "time": 9.333324,
          "velocity": 0.7874015748031497,
          "duration": 0.16666649999999983
        },
        {
          "name": "F5",
          "midi": 77,
          "time": 9.333324,
          "velocity": 0.7874015748031497,
          "duration": 0.16666649999999983
        },
        {
          "name": "A4",
          "midi": 69,
          "time": 9.4999905,
          "velocity": 0.7874015748031497,
          "duration": 0.16666649999999983
        },
        {
          "name": "C5",
          "midi": 72,
          "time": 9.4999905,
          "velocity": 0.7874015748031497,
          "duration": 0.16666649999999983
        },
        {
          "name": "F5",
          "midi": 77,
          "time": 9.4999905,
          "velocity": 0.7874015748031497,
          "duration": 0.16666649999999983
        },
        {
          "name": "F5",
          "midi": 77,
          "time": 9.666656999999999,
          "velocity": 0.7874015748031497,
          "duration": 0.16666649999999983
        },
        {
          "name": "C5",
          "midi": 72,
          "time": 9.666656999999999,
          "velocity": 0.7874015748031497,
          "duration": 0.16666649999999983
        },
        {
          "name": "A4",
          "midi": 69,
          "time": 9.666656999999999,
          "velocity": 0.7874015748031497,
          "duration": 0.16666649999999983
        },
        {
          "name": "F3",
          "midi": 53,
          "time": 9.666656999999999,
          "velocity": 0.7874015748031497,
          "duration": 0.33333299999999966
        },
        {
          "name": "A4",
          "midi": 69,
          "time": 9.833323499999999,
          "velocity": 0.7874015748031497,
          "duration": 0.16666649999999983
        },
        {
          "name": "C5",
          "midi": 72,
          "time": 9.833323499999999,
          "velocity": 0.7874015748031497,
          "duration": 0.16666649999999983
        },
        {
          "name": "F5",
          "midi": 77,
          "time": 9.833323499999999,
          "velocity": 0.7874015748031497,
          "duration": 0.16666649999999983
        },
        {
          "name": "F5",
          "midi": 77,
          "time": 9.999989999999999,
          "velocity": 0.7874015748031497,
          "duration": 0.0833332500000008
        },
        {
          "name": "C5",
          "midi": 72,
          "time": 9.999989999999999,
          "velocity": 0.7874015748031497,
          "duration": 0.0833332500000008
        },
        {
          "name": "A4",
          "midi": 69,
          "time": 9.999989999999999,
          "velocity": 0.7874015748031497,
          "duration": 0.0833332500000008
        },
        {
          "name": "F3",
          "midi": 53,
          "time": 9.999989999999999,
          "velocity": 0.7874015748031497,
          "duration": 0.1666665000000016
        },
        {
          "name": "F5",
          "midi": 77,
          "time": 10.08332325,
          "velocity": 0.7874015748031497,
          "duration": 0.0833332500000008
        },
        {
          "name": "C5",
          "midi": 72,
          "time": 10.08332325,
          "velocity": 0.7874015748031497,
          "duration": 0.0833332500000008
        },
        {
          "name": "A4",
          "midi": 69,
          "time": 10.08332325,
          "velocity": 0.7874015748031497,
          "duration": 0.0833332500000008
        },
        {
          "name": "F3",
          "midi": 53,
          "time": 10.1666565,
          "velocity": 0.7874015748031497,
          "duration": 0.1666665000000016
        },
        {
          "name": "A4",
          "midi": 69,
          "time": 10.1666565,
          "velocity": 0.7874015748031497,
          "duration": 0.0833332500000008
        },
        {
          "name": "C5",
          "midi": 72,
          "time": 10.1666565,
          "velocity": 0.7874015748031497,
          "duration": 0.0833332500000008
        },
        {
          "name": "F5",
          "midi": 77,
          "time": 10.1666565,
          "velocity": 0.7874015748031497,
          "duration": 0.0833332500000008
        },
        {
          "name": "A4",
          "midi": 69,
          "time": 10.249989750000001,
          "velocity": 0.7874015748031497,
          "duration": 0.0833332500000008
        },
        {
          "name": "C5",
          "midi": 72,
          "time": 10.249989750000001,
          "velocity": 0.7874015748031497,
          "duration": 0.0833332500000008
        },
        {
          "name": "F5",
          "midi": 77,
          "time": 10.249989750000001,
          "velocity": 0.7874015748031497,
          "duration": 0.0833332500000008
        },
        {
          "name": "A4",
          "midi": 69,
          "time": 10.333323000000002,
          "velocity": 0.7874015748031497,
          "duration": 0.1666665000000016
        },
        {
          "name": "C5",
          "midi": 72,
          "time": 10.333323000000002,
          "velocity": 0.7874015748031497,
          "duration": 0.1666665000000016
        },
        {
          "name": "F5",
          "midi": 77,
          "time": 10.333323000000002,
          "velocity": 0.7874015748031497,
          "duration": 0.1666665000000016
        },
        {
          "name": "F3",
          "midi": 53,
          "time": 10.333323000000002,
          "velocity": 0.7874015748031497,
          "duration": 0.0833332500000008
        },
        {
          "name": "F3",
          "midi": 53,
          "time": 10.416656250000003,
          "velocity": 0.7874015748031497,
          "duration": 0.0833332500000008
        },
        {
          "name": "F3",
          "midi": 53,
          "time": 10.499989500000003,
          "velocity": 0.7874015748031497,
          "duration": 0.0833332500000008
        },
        {
          "name": "F3",
          "midi": 53,
          "time": 10.583322750000004,
          "velocity": 0.7874015748031497,
          "duration": 0.0833332500000008
        },
        {
          "name": "D4",
          "midi": 62,
          "time": 10.666656000000005,
          "velocity": 0.7874015748031497,
          "duration": 0.16666649999999983
        },
        {
          "name": "F4",
          "midi": 65,
          "time": 10.666656000000005,
          "velocity": 0.7874015748031497,
          "duration": 0.16666649999999983
        },
        {
          "name": "A#3",
          "midi": 58,
          "time": 10.666656000000005,
          "velocity": 0.7874015748031497,
          "duration": 0.16666649999999983
        },
        {
          "name": "D4",
          "midi": 62,
          "time": 10.833322500000005,
          "velocity": 0.7874015748031497,
          "duration": 0.16666649999999983
        },
        {
          "name": "F4",
          "midi": 65,
          "time": 10.833322500000005,
          "velocity": 0.7874015748031497,
          "duration": 0.16666649999999983
        },
        {
          "name": "A#3",
          "midi": 58,
          "time": 10.833322500000005,
          "velocity": 0.7874015748031497,
          "duration": 0.16666649999999983
        },
        {
          "name": "A#3",
          "midi": 58,
          "time": 10.999989000000005,
          "velocity": 0.7874015748031497,
          "duration": 0.33333299999999966
        },
        {
          "name": "D4",
          "midi": 62,
          "time": 10.999989000000005,
          "velocity": 0.7874015748031497,
          "duration": 0.33333299999999966
        },
        {
          "name": "F4",
          "midi": 65,
          "time": 10.999989000000005,
          "velocity": 0.7874015748031497,
          "duration": 0.33333299999999966
        },
        {
          "name": "A#3",
          "midi": 58,
          "time": 11.333322000000004,
          "velocity": 0.7874015748031497,
          "duration": 0.33333299999999966
        },
        {
          "name": "F4",
          "midi": 65,
          "time": 11.333322000000004,
          "velocity": 0.7874015748031497,
          "duration": 0.33333299999999966
        },
        {
          "name": "D4",
          "midi": 62,
          "time": 11.333322000000004,
          "velocity": 0.7874015748031497,
          "duration": 0.33333299999999966
        },
        {
          "name": "F4",
          "midi": 65,
          "time": 11.666655000000004,
          "velocity": 0.7874015748031497,
          "duration": 0.16666649999999983
        },
        {
          "name": "D4",
          "midi": 62,
          "time": 11.666655000000004,
          "velocity": 0.7874015748031497,
          "duration": 0.16666649999999983
        },
        {
          "name": "A#3",
          "midi": 58,
          "time": 11.666655000000004,
          "velocity": 0.7874015748031497,
          "duration": 0.16666649999999983
        },
        {
          "name": "A#3",
          "midi": 58,
          "time": 11.833321500000004,
          "velocity": 0.7874015748031497,
          "duration": 0.16666649999999983
        },
        {
          "name": "D4",
          "midi": 62,
          "time": 11.833321500000004,
          "velocity": 0.7874015748031497,
          "duration": 0.16666649999999983
        },
        {
          "name": "F4",
          "midi": 65,
          "time": 11.833321500000004,
          "velocity": 0.7874015748031497,
          "duration": 0.16666649999999983
        },
        {
          "name": "D#4",
          "midi": 63,
          "time": 11.999988000000004,
          "velocity": 0.7874015748031497,
          "duration": 0.16666649999999983
        },
        {
          "name": "A#4",
          "midi": 70,
          "time": 11.999988000000004,
          "velocity": 0.7874015748031497,
          "duration": 0.16666649999999983
        },
        {
          "name": "G4",
          "midi": 67,
          "time": 11.999988000000004,
          "velocity": 0.7874015748031497,
          "duration": 0.16666649999999983
        },
        {
          "name": "G4",
          "midi": 67,
          "time": 12.166654500000003,
          "velocity": 0.7874015748031497,
          "duration": 0.16666649999999983
        },
        {
          "name": "A#4",
          "midi": 70,
          "time": 12.166654500000003,
          "velocity": 0.7874015748031497,
          "duration": 0.16666649999999983
        },
        {
          "name": "D#4",
          "midi": 63,
          "time": 12.166654500000003,
          "velocity": 0.7874015748031497,
          "duration": 0.16666649999999983
        },
        {
          "name": "A#4",
          "midi": 70,
          "time": 12.333321000000003,
          "velocity": 0.7874015748031497,
          "duration": 0.33333299999999966
        },
        {
          "name": "G4",
          "midi": 67,
          "time": 12.333321000000003,
          "velocity": 0.7874015748031497,
          "duration": 0.33333299999999966
        },
        {
          "name": "D#4",
          "midi": 63,
          "time": 12.333321000000003,
          "velocity": 0.7874015748031497,
          "duration": 0.33333299999999966
        },
        {
          "name": "G4",
          "midi": 67,
          "time": 12.666654000000003,
          "velocity": 0.7874015748031497,
          "duration": 0.33333299999999966
        },
        {
          "name": "A#4",
          "midi": 70,
          "time": 12.666654000000003,
          "velocity": 0.7874015748031497,
          "duration": 0.33333299999999966
        },
        {
          "name": "D#4",
          "midi": 63,
          "time": 12.666654000000003,
          "velocity": 0.7874015748031497,
          "duration": 0.33333299999999966
        },
        {
          "name": "A#4",
          "midi": 70,
          "time": 12.999987000000003,
          "velocity": 0.7874015748031497,
          "duration": 0.16666649999999983
        },
        {
          "name": "G4",
          "midi": 67,
          "time": 12.999987000000003,
          "velocity": 0.7874015748031497,
          "duration": 0.16666649999999983
        },
        {
          "name": "D#4",
          "midi": 63,
          "time": 12.999987000000003,
          "velocity": 0.7874015748031497,
          "duration": 0.16666649999999983
        },
        {
          "name": "A#4",
          "midi": 70,
          "time": 13.166653500000002,
          "velocity": 0.7874015748031497,
          "duration": 0.16666649999999983
        },
        {
          "name": "G4",
          "midi": 67,
          "time": 13.166653500000002,
          "velocity": 0.7874015748031497,
          "duration": 0.16666649999999983
        },
        {
          "name": "D#4",
          "midi": 63,
          "time": 13.166653500000002,
          "velocity": 0.7874015748031497,
          "duration": 0.16666649999999983
        },
        {
          "name": "F4",
          "midi": 65,
          "time": 13.333320000000002,
          "velocity": 0.7874015748031497,
          "duration": 0.16666649999999983
        },
        {
          "name": "C5",
          "midi": 72,
          "time": 13.333320000000002,
          "velocity": 0.7874015748031497,
          "duration": 0.16666649999999983
        },
        {
          "name": "A4",
          "midi": 69,
          "time": 13.333320000000002,
          "velocity": 0.7874015748031497,
          "duration": 0.16666649999999983
        },
        {
          "name": "F4",
          "midi": 65,
          "time": 13.499986500000002,
          "velocity": 0.7874015748031497,
          "duration": 0.16666649999999983
        },
        {
          "name": "C5",
          "midi": 72,
          "time": 13.499986500000002,
          "velocity": 0.7874015748031497,
          "duration": 0.16666649999999983
        },
        {
          "name": "A4",
          "midi": 69,
          "time": 13.499986500000002,
          "velocity": 0.7874015748031497,
          "duration": 0.16666649999999983
        },
        {
          "name": "F4",
          "midi": 65,
          "time": 13.666653000000002,
          "velocity": 0.7874015748031497,
          "duration": 0.33333299999999966
        },
        {
          "name": "A4",
          "midi": 69,
          "time": 13.666653000000002,
          "velocity": 0.7874015748031497,
          "duration": 0.33333299999999966
        },
        {
          "name": "C5",
          "midi": 72,
          "time": 13.666653000000002,
          "velocity": 0.7874015748031497,
          "duration": 0.33333299999999966
        },
        {
          "name": "A4",
          "midi": 69,
          "time": 13.999986000000002,
          "velocity": 0.7874015748031497,
          "duration": 0.33333299999999966
        },
        {
          "name": "C5",
          "midi": 72,
          "time": 13.999986000000002,
          "velocity": 0.7874015748031497,
          "duration": 0.33333299999999966
        },
        {
          "name": "F4",
          "midi": 65,
          "time": 13.999986000000002,
          "velocity": 0.7874015748031497,
          "duration": 0.33333299999999966
        },
        {
          "name": "C5",
          "midi": 72,
          "time": 14.333319000000001,
          "velocity": 0.7874015748031497,
          "duration": 0.16666649999999983
        },
        {
          "name": "A4",
          "midi": 69,
          "time": 14.333319000000001,
          "velocity": 0.7874015748031497,
          "duration": 0.16666649999999983
        },
        {
          "name": "F4",
          "midi": 65,
          "time": 14.333319000000001,
          "velocity": 0.7874015748031497,
          "duration": 0.16666649999999983
        },
        {
          "name": "C5",
          "midi": 72,
          "time": 14.499985500000001,
          "velocity": 0.7874015748031497,
          "duration": 0.16666649999999983
        },
        {
          "name": "A4",
          "midi": 69,
          "time": 14.499985500000001,
          "velocity": 0.7874015748031497,
          "duration": 0.16666649999999983
        },
        {
          "name": "F4",
          "midi": 65,
          "time": 14.499985500000001,
          "velocity": 0.7874015748031497,
          "duration": 0.16666649999999983
        },
        {
          "name": "G3",
          "midi": 55,
          "time": 14.666652000000001,
          "velocity": 0.7874015748031497,
          "duration": 0.16666649999999983
        },
        {
          "name": "D4",
          "midi": 62,
          "time": 14.666652000000001,
          "velocity": 0.7874015748031497,
          "duration": 0.16666649999999983
        },
        {
          "name": "A#3",
          "midi": 58,
          "time": 14.666652000000001,
          "velocity": 0.7874015748031497,
          "duration": 0.16666649999999983
        },
        {
          "name": "G3",
          "midi": 55,
          "time": 14.8333185,
          "velocity": 0.7874015748031497,
          "duration": 0.16666649999999983
        },
        {
          "name": "D4",
          "midi": 62,
          "time": 14.8333185,
          "velocity": 0.7874015748031497,
          "duration": 0.16666649999999983
        },
        {
          "name": "A#3",
          "midi": 58,
          "time": 14.8333185,
          "velocity": 0.7874015748031497,
          "duration": 0.16666649999999983
        },
        {
          "name": "D4",
          "midi": 62,
          "time": 14.999985,
          "velocity": 0.7874015748031497,
          "duration": 0.33333299999999966
        },
        {
          "name": "A#3",
          "midi": 58,
          "time": 14.999985,
          "velocity": 0.7874015748031497,
          "duration": 0.33333299999999966
        },
        {
          "name": "G3",
          "midi": 55,
          "time": 14.999985,
          "velocity": 0.7874015748031497,
          "duration": 0.33333299999999966
        },
        {
          "name": "G3",
          "midi": 55,
          "time": 15.333318,
          "velocity": 0.7874015748031497,
          "duration": 0.33333299999999966
        },
        {
          "name": "D4",
          "midi": 62,
          "time": 15.333318,
          "velocity": 0.7874015748031497,
          "duration": 0.33333299999999966
        },
        {
          "name": "A#3",
          "midi": 58,
          "time": 15.333318,
          "velocity": 0.7874015748031497,
          "duration": 0.33333299999999966
        },
        {
          "name": "D4",
          "midi": 62,
          "time": 15.666651,
          "velocity": 0.7874015748031497,
          "duration": 0.16666649999999983
        },
        {
          "name": "A#3",
          "midi": 58,
          "time": 15.666651,
          "velocity": 0.7874015748031497,
          "duration": 0.16666649999999983
        },
        {
          "name": "G3",
          "midi": 55,
          "time": 15.666651,
          "velocity": 0.7874015748031497,
          "duration": 0.16666649999999983
        },
        {
          "name": "D4",
          "midi": 62,
          "time": 15.8333175,
          "velocity": 0.7874015748031497,
          "duration": 0.16666649999999983
        },
        {
          "name": "A#3",
          "midi": 58,
          "time": 15.8333175,
          "velocity": 0.7874015748031497,
          "duration": 0.16666649999999983
        },
        {
          "name": "G3",
          "midi": 55,
          "time": 15.8333175,
          "velocity": 0.7874015748031497,
          "duration": 0.16666649999999983
        },
        {
          "name": "D#4",
          "midi": 63,
          "time": 15.999984,
          "velocity": 0.7874015748031497,
          "duration": 0.16666649999999983
        },
        {
          "name": "A#4",
          "midi": 70,
          "time": 15.999984,
          "velocity": 0.7874015748031497,
          "duration": 0.16666649999999983
        },
        {
          "name": "G4",
          "midi": 67,
          "time": 15.999984,
          "velocity": 0.7874015748031497,
          "duration": 0.16666649999999983
        },
        {
          "name": "D#4",
          "midi": 63,
          "time": 16.1666505,
          "velocity": 0.7874015748031497,
          "duration": 0.1666665000000016
        },
        {
          "name": "A#4",
          "midi": 70,
          "time": 16.1666505,
          "velocity": 0.7874015748031497,
          "duration": 0.1666665000000016
        },
        {
          "name": "G4",
          "midi": 67,
          "time": 16.1666505,
          "velocity": 0.7874015748031497,
          "duration": 0.1666665000000016
        },
        {
          "name": "D#4",
          "midi": 63,
          "time": 16.333317,
          "velocity": 0.7874015748031497,
          "duration": 0.33333299999999966
        },
        {
          "name": "G4",
          "midi": 67,
          "time": 16.333317,
          "velocity": 0.7874015748031497,
          "duration": 0.33333299999999966
        },
        {
          "name": "A#4",
          "midi": 70,
          "time": 16.333317,
          "velocity": 0.7874015748031497,
          "duration": 0.33333299999999966
        },
        {
          "name": "A#3",
          "midi": 58,
          "time": 16.66665,
          "velocity": 0.7874015748031497,
          "duration": 0.33333299999999966
        },
        {
          "name": "F4",
          "midi": 65,
          "time": 16.66665,
          "velocity": 0.7874015748031497,
          "duration": 0.33333299999999966
        },
        {
          "name": "D4",
          "midi": 62,
          "time": 16.66665,
          "velocity": 0.7874015748031497,
          "duration": 0.33333299999999966
        },
        {
          "name": "A#3",
          "midi": 58,
          "time": 16.999983,
          "velocity": 0.7874015748031497,
          "duration": 0.1666665000000016
        },
        {
          "name": "D4",
          "midi": 62,
          "time": 16.999983,
          "velocity": 0.7874015748031497,
          "duration": 0.1666665000000016
        },
        {
          "name": "F4",
          "midi": 65,
          "time": 16.999983,
          "velocity": 0.7874015748031497,
          "duration": 0.1666665000000016
        },
        {
          "name": "F4",
          "midi": 65,
          "time": 17.166649500000002,
          "velocity": 0.7874015748031497,
          "duration": 0.1666665000000016
        },
        {
          "name": "D4",
          "midi": 62,
          "time": 17.166649500000002,
          "velocity": 0.7874015748031497,
          "duration": 0.1666665000000016
        },
        {
          "name": "A#3",
          "midi": 58,
          "time": 17.166649500000002,
          "velocity": 0.7874015748031497,
          "duration": 0.1666665000000016
        },
        {
          "name": "A4",
          "midi": 69,
          "time": 17.333316000000003,
          "velocity": 0.7874015748031497,
          "duration": 0.1666665000000016
        },
        {
          "name": "C5",
          "midi": 72,
          "time": 17.333316000000003,
          "velocity": 0.7874015748031497,
          "duration": 0.1666665000000016
        },
        {
          "name": "F4",
          "midi": 65,
          "time": 17.333316000000003,
          "velocity": 0.7874015748031497,
          "duration": 0.1666665000000016
        },
        {
          "name": "A4",
          "midi": 69,
          "time": 17.499982500000005,
          "velocity": 0.7874015748031497,
          "duration": 0.1666665000000016
        },
        {
          "name": "C5",
          "midi": 72,
          "time": 17.499982500000005,
          "velocity": 0.7874015748031497,
          "duration": 0.1666665000000016
        },
        {
          "name": "F4",
          "midi": 65,
          "time": 17.499982500000005,
          "velocity": 0.7874015748031497,
          "duration": 0.1666665000000016
        },
        {
          "name": "F4",
          "midi": 65,
          "time": 17.666649000000007,
          "velocity": 0.7874015748031497,
          "duration": 0.33333299999999966
        },
        {
          "name": "A4",
          "midi": 69,
          "time": 17.666649000000007,
          "velocity": 0.7874015748031497,
          "duration": 0.33333299999999966
        },
        {
          "name": "C5",
          "midi": 72,
          "time": 17.666649000000007,
          "velocity": 0.7874015748031497,
          "duration": 0.33333299999999966
        },
        {
          "name": "G3",
          "midi": 55,
          "time": 17.999982000000006,
          "velocity": 0.7874015748031497,
          "duration": 0.33333299999999966
        },
        {
          "name": "D4",
          "midi": 62,
          "time": 17.999982000000006,
          "velocity": 0.7874015748031497,
          "duration": 0.33333299999999966
        },
        {
          "name": "A#3",
          "midi": 58,
          "time": 17.999982000000006,
          "velocity": 0.7874015748031497,
          "duration": 0.33333299999999966
        },
        {
          "name": "G3",
          "midi": 55,
          "time": 18.333315000000006,
          "velocity": 0.7874015748031497,
          "duration": 0.1666665000000016
        },
        {
          "name": "A#3",
          "midi": 58,
          "time": 18.333315000000006,
          "velocity": 0.7874015748031497,
          "duration": 0.1666665000000016
        },
        {
          "name": "D4",
          "midi": 62,
          "time": 18.333315000000006,
          "velocity": 0.7874015748031497,
          "duration": 0.1666665000000016
        },
        {
          "name": "D4",
          "midi": 62,
          "time": 18.499981500000008,
          "velocity": 0.7874015748031497,
          "duration": 0.1666665000000016
        },
        {
          "name": "A#3",
          "midi": 58,
          "time": 18.499981500000008,
          "velocity": 0.7874015748031497,
          "duration": 0.1666665000000016
        },
        {
          "name": "G3",
          "midi": 55,
          "time": 18.499981500000008,
          "velocity": 0.7874015748031497,
          "duration": 0.1666665000000016
        },
        {
          "name": "G4",
          "midi": 67,
          "time": 18.66664800000001,
          "velocity": 0.7874015748031497,
          "duration": 0.1666665000000016
        },
        {
          "name": "A#4",
          "midi": 70,
          "time": 18.66664800000001,
          "velocity": 0.7874015748031497,
          "duration": 0.1666665000000016
        },
        {
          "name": "D#4",
          "midi": 63,
          "time": 18.66664800000001,
          "velocity": 0.7874015748031497,
          "duration": 0.1666665000000016
        },
        {
          "name": "D#4",
          "midi": 63,
          "time": 18.83331450000001,
          "velocity": 0.7874015748031497,
          "duration": 0.1666665000000016
        },
        {
          "name": "A#4",
          "midi": 70,
          "time": 18.83331450000001,
          "velocity": 0.7874015748031497,
          "duration": 0.1666665000000016
        },
        {
          "name": "G4",
          "midi": 67,
          "time": 18.83331450000001,
          "velocity": 0.7874015748031497,
          "duration": 0.1666665000000016
        },
        {
          "name": "D#4",
          "midi": 63,
          "time": 18.999981000000012,
          "velocity": 0.7874015748031497,
          "duration": 0.33333299999999966
        },
        {
          "name": "G4",
          "midi": 67,
          "time": 18.999981000000012,
          "velocity": 0.7874015748031497,
          "duration": 0.33333299999999966
        },
        {
          "name": "A#4",
          "midi": 70,
          "time": 18.999981000000012,
          "velocity": 0.7874015748031497,
          "duration": 0.33333299999999966
        },
        {
          "name": "A#4",
          "midi": 70,
          "time": 19.333314000000012,
          "velocity": 0.7874015748031497,
          "duration": 0.33333299999999966
        },
        {
          "name": "G4",
          "midi": 67,
          "time": 19.333314000000012,
          "velocity": 0.7874015748031497,
          "duration": 0.33333299999999966
        },
        {
          "name": "D#4",
          "midi": 63,
          "time": 19.333314000000012,
          "velocity": 0.7874015748031497,
          "duration": 0.33333299999999966
        },
        {
          "name": "G4",
          "midi": 67,
          "time": 19.66664700000001,
          "velocity": 0.7874015748031497,
          "duration": 0.1666665000000016
        },
        {
          "name": "A#4",
          "midi": 70,
          "time": 19.66664700000001,
          "velocity": 0.7874015748031497,
          "duration": 0.1666665000000016
        },
        {
          "name": "D#4",
          "midi": 63,
          "time": 19.66664700000001,
          "velocity": 0.7874015748031497,
          "duration": 0.1666665000000016
        },
        {
          "name": "D#4",
          "midi": 63,
          "time": 19.833313500000013,
          "velocity": 0.7874015748031497,
          "duration": 0.1666665000000016
        },
        {
          "name": "G4",
          "midi": 67,
          "time": 19.833313500000013,
          "velocity": 0.7874015748031497,
          "duration": 0.1666665000000016
        },
        {
          "name": "A#4",
          "midi": 70,
          "time": 19.833313500000013,
          "velocity": 0.7874015748031497,
          "duration": 0.1666665000000016
        },
        {
          "name": "F4",
          "midi": 65,
          "time": 19.999980000000015,
          "velocity": 0.7874015748031497,
          "duration": 0.1666665000000016
        },
        {
          "name": "C5",
          "midi": 72,
          "time": 19.999980000000015,
          "velocity": 0.7874015748031497,
          "duration": 0.1666665000000016
        },
        {
          "name": "A4",
          "midi": 69,
          "time": 19.999980000000015,
          "velocity": 0.7874015748031497,
          "duration": 0.1666665000000016
        },
        {
          "name": "F4",
          "midi": 65,
          "time": 20.166646500000017,
          "velocity": 0.7874015748031497,
          "duration": 0.1666665000000016
        },
        {
          "name": "C5",
          "midi": 72,
          "time": 20.166646500000017,
          "velocity": 0.7874015748031497,
          "duration": 0.1666665000000016
        },
        {
          "name": "A4",
          "midi": 69,
          "time": 20.166646500000017,
          "velocity": 0.7874015748031497,
          "duration": 0.1666665000000016
        },
        {
          "name": "C5",
          "midi": 72,
          "time": 20.333313000000018,
          "velocity": 0.7874015748031497,
          "duration": 0.33333299999999966
        },
        {
          "name": "A4",
          "midi": 69,
          "time": 20.333313000000018,
          "velocity": 0.7874015748031497,
          "duration": 0.33333299999999966
        },
        {
          "name": "F4",
          "midi": 65,
          "time": 20.333313000000018,
          "velocity": 0.7874015748031497,
          "duration": 0.33333299999999966
        },
        {
          "name": "F4",
          "midi": 65,
          "time": 20.666646000000018,
          "velocity": 0.7874015748031497,
          "duration": 0.33333299999999966
        },
        {
          "name": "C5",
          "midi": 72,
          "time": 20.666646000000018,
          "velocity": 0.7874015748031497,
          "duration": 0.33333299999999966
        },
        {
          "name": "A4",
          "midi": 69,
          "time": 20.666646000000018,
          "velocity": 0.7874015748031497,
          "duration": 0.33333299999999966
        },
        {
          "name": "F4",
          "midi": 65,
          "time": 20.999979000000017,
          "velocity": 0.7874015748031497,
          "duration": 0.1666665000000016
        },
        {
          "name": "A4",
          "midi": 69,
          "time": 20.999979000000017,
          "velocity": 0.7874015748031497,
          "duration": 0.1666665000000016
        },
        {
          "name": "C5",
          "midi": 72,
          "time": 20.999979000000017,
          "velocity": 0.7874015748031497,
          "duration": 0.1666665000000016
        },
        {
          "name": "C5",
          "midi": 72,
          "time": 21.16664550000002,
          "velocity": 0.7874015748031497,
          "duration": 0.1666665000000016
        },
        {
          "name": "A4",
          "midi": 69,
          "time": 21.16664550000002,
          "velocity": 0.7874015748031497,
          "duration": 0.1666665000000016
        },
        {
          "name": "F4",
          "midi": 65,
          "time": 21.16664550000002,
          "velocity": 0.7874015748031497,
          "duration": 0.1666665000000016
        },
        {
          "name": "A#3",
          "midi": 58,
          "time": 21.33331200000002,
          "velocity": 0.7874015748031497,
          "duration": 0.1666665000000016
        },
        {
          "name": "F4",
          "midi": 65,
          "time": 21.33331200000002,
          "velocity": 0.7874015748031497,
          "duration": 0.1666665000000016
        },
        {
          "name": "D4",
          "midi": 62,
          "time": 21.33331200000002,
          "velocity": 0.7874015748031497,
          "duration": 0.1666665000000016
        },
        {
          "name": "A#3",
          "midi": 58,
          "time": 21.499978500000022,
          "velocity": 0.7874015748031497,
          "duration": 0.1666665000000016
        },
        {
          "name": "F4",
          "midi": 65,
          "time": 21.499978500000022,
          "velocity": 0.7874015748031497,
          "duration": 0.1666665000000016
        },
        {
          "name": "D4",
          "midi": 62,
          "time": 21.499978500000022,
          "velocity": 0.7874015748031497,
          "duration": 0.1666665000000016
        },
        {
          "name": "A#3",
          "midi": 58,
          "time": 21.666645000000024,
          "velocity": 0.7874015748031497,
          "duration": 0.33333299999999966
        },
        {
          "name": "D4",
          "midi": 62,
          "time": 21.666645000000024,
          "velocity": 0.7874015748031497,
          "duration": 0.33333299999999966
        },
        {
          "name": "F4",
          "midi": 65,
          "time": 21.666645000000024,
          "velocity": 0.7874015748031497,
          "duration": 0.33333299999999966
        },
        {
          "name": "A#3",
          "midi": 58,
          "time": 21.999978000000024,
          "velocity": 0.7874015748031497,
          "duration": 0.33333299999999966
        },
        {
          "name": "F4",
          "midi": 65,
          "time": 21.999978000000024,
          "velocity": 0.7874015748031497,
          "duration": 0.33333299999999966
        },
        {
          "name": "D4",
          "midi": 62,
          "time": 21.999978000000024,
          "velocity": 0.7874015748031497,
          "duration": 0.33333299999999966
        },
        {
          "name": "A#3",
          "midi": 58,
          "time": 22.333311000000023,
          "velocity": 0.7874015748031497,
          "duration": 0.1666665000000016
        },
        {
          "name": "D4",
          "midi": 62,
          "time": 22.333311000000023,
          "velocity": 0.7874015748031497,
          "duration": 0.1666665000000016
        },
        {
          "name": "F4",
          "midi": 65,
          "time": 22.333311000000023,
          "velocity": 0.7874015748031497,
          "duration": 0.1666665000000016
        },
        {
          "name": "A#3",
          "midi": 58,
          "time": 22.499977500000025,
          "velocity": 0.7874015748031497,
          "duration": 0.1666665000000016
        },
        {
          "name": "D4",
          "midi": 62,
          "time": 22.499977500000025,
          "velocity": 0.7874015748031497,
          "duration": 0.1666665000000016
        },
        {
          "name": "F4",
          "midi": 65,
          "time": 22.499977500000025,
          "velocity": 0.7874015748031497,
          "duration": 0.1666665000000016
        },
        {
          "name": "G4",
          "midi": 67,
          "time": 22.666644000000026,
          "velocity": 0.7874015748031497,
          "duration": 0.1666665000000016
        },
        {
          "name": "A#4",
          "midi": 70,
          "time": 22.666644000000026,
          "velocity": 0.7874015748031497,
          "duration": 0.1666665000000016
        },
        {
          "name": "D#4",
          "midi": 63,
          "time": 22.666644000000026,
          "velocity": 0.7874015748031497,
          "duration": 0.1666665000000016
        },
        {
          "name": "G4",
          "midi": 67,
          "time": 22.833310500000028,
          "velocity": 0.7874015748031497,
          "duration": 0.1666665000000016
        },
        {
          "name": "A#4",
          "midi": 70,
          "time": 22.833310500000028,
          "velocity": 0.7874015748031497,
          "duration": 0.1666665000000016
        },
        {
          "name": "D#4",
          "midi": 63,
          "time": 22.833310500000028,
          "velocity": 0.7874015748031497,
          "duration": 0.1666665000000016
        },
        {
          "name": "A#4",
          "midi": 70,
          "time": 22.99997700000003,
          "velocity": 0.7874015748031497,
          "duration": 0.33333299999999966
        },
        {
          "name": "G4",
          "midi": 67,
          "time": 22.99997700000003,
          "velocity": 0.7874015748031497,
          "duration": 0.33333299999999966
        },
        {
          "name": "D#4",
          "midi": 63,
          "time": 22.99997700000003,
          "velocity": 0.7874015748031497,
          "duration": 0.33333299999999966
        },
        {
          "name": "D#4",
          "midi": 63,
          "time": 23.33331000000003,
          "velocity": 0.7874015748031497,
          "duration": 0.33333299999999966
        },
        {
          "name": "A#4",
          "midi": 70,
          "time": 23.33331000000003,
          "velocity": 0.7874015748031497,
          "duration": 0.33333299999999966
        },
        {
          "name": "G4",
          "midi": 67,
          "time": 23.33331000000003,
          "velocity": 0.7874015748031497,
          "duration": 0.33333299999999966
        },
        {
          "name": "A#4",
          "midi": 70,
          "time": 23.66664300000003,
          "velocity": 0.7874015748031497,
          "duration": 0.1666665000000016
        },
        {
          "name": "G4",
          "midi": 67,
          "time": 23.66664300000003,
          "velocity": 0.7874015748031497,
          "duration": 0.1666665000000016
        },
        {
          "name": "D#4",
          "midi": 63,
          "time": 23.66664300000003,
          "velocity": 0.7874015748031497,
          "duration": 0.1666665000000016
        },
        {
          "name": "A#4",
          "midi": 70,
          "time": 23.83330950000003,
          "velocity": 0.7874015748031497,
          "duration": 0.1666665000000016
        },
        {
          "name": "G4",
          "midi": 67,
          "time": 23.83330950000003,
          "velocity": 0.7874015748031497,
          "duration": 0.1666665000000016
        },
        {
          "name": "D#4",
          "midi": 63,
          "time": 23.83330950000003,
          "velocity": 0.7874015748031497,
          "duration": 0.1666665000000016
        },
        {
          "name": "F4",
          "midi": 65,
          "time": 23.999976000000032,
          "velocity": 0.7874015748031497,
          "duration": 0.1666665000000016
        },
        {
          "name": "C5",
          "midi": 72,
          "time": 23.999976000000032,
          "velocity": 0.7874015748031497,
          "duration": 0.1666665000000016
        },
        {
          "name": "A4",
          "midi": 69,
          "time": 23.999976000000032,
          "velocity": 0.7874015748031497,
          "duration": 0.1666665000000016
        },
        {
          "name": "A4",
          "midi": 69,
          "time": 24.166642500000034,
          "velocity": 0.7874015748031497,
          "duration": 0.1666665000000016
        },
        {
          "name": "C5",
          "midi": 72,
          "time": 24.166642500000034,
          "velocity": 0.7874015748031497,
          "duration": 0.1666665000000016
        },
        {
          "name": "F4",
          "midi": 65,
          "time": 24.166642500000034,
          "velocity": 0.7874015748031497,
          "duration": 0.1666665000000016
        },
        {
          "name": "F4",
          "midi": 65,
          "time": 24.333309000000035,
          "velocity": 0.7874015748031497,
          "duration": 0.33333299999999966
        },
        {
          "name": "A4",
          "midi": 69,
          "time": 24.333309000000035,
          "velocity": 0.7874015748031497,
          "duration": 0.33333299999999966
        },
        {
          "name": "C5",
          "midi": 72,
          "time": 24.333309000000035,
          "velocity": 0.7874015748031497,
          "duration": 0.33333299999999966
        },
        {
          "name": "A4",
          "midi": 69,
          "time": 24.666642000000035,
          "velocity": 0.7874015748031497,
          "duration": 0.33333299999999966
        },
        {
          "name": "C5",
          "midi": 72,
          "time": 24.666642000000035,
          "velocity": 0.7874015748031497,
          "duration": 0.33333299999999966
        },
        {
          "name": "F4",
          "midi": 65,
          "time": 24.666642000000035,
          "velocity": 0.7874015748031497,
          "duration": 0.33333299999999966
        },
        {
          "name": "C5",
          "midi": 72,
          "time": 24.999975000000035,
          "velocity": 0.7874015748031497,
          "duration": 0.1666665000000016
        },
        {
          "name": "A4",
          "midi": 69,
          "time": 24.999975000000035,
          "velocity": 0.7874015748031497,
          "duration": 0.1666665000000016
        },
        {
          "name": "F4",
          "midi": 65,
          "time": 24.999975000000035,
          "velocity": 0.7874015748031497,
          "duration": 0.1666665000000016
        },
        {
          "name": "C5",
          "midi": 72,
          "time": 25.166641500000036,
          "velocity": 0.7874015748031497,
          "duration": 0.1666665000000016
        },
        {
          "name": "A4",
          "midi": 69,
          "time": 25.166641500000036,
          "velocity": 0.7874015748031497,
          "duration": 0.1666665000000016
        },
        {
          "name": "F4",
          "midi": 65,
          "time": 25.166641500000036,
          "velocity": 0.7874015748031497,
          "duration": 0.1666665000000016
        },
        {
          "name": "A#3",
          "midi": 58,
          "time": 25.333308000000038,
          "velocity": 0.7874015748031497,
          "duration": 0.1666665000000016
        },
        {
          "name": "D4",
          "midi": 62,
          "time": 25.333308000000038,
          "velocity": 0.7874015748031497,
          "duration": 0.1666665000000016
        },
        {
          "name": "G3",
          "midi": 55,
          "time": 25.333308000000038,
          "velocity": 0.7874015748031497,
          "duration": 0.1666665000000016
        },
        {
          "name": "G3",
          "midi": 55,
          "time": 25.49997450000004,
          "velocity": 0.7874015748031497,
          "duration": 0.1666665000000016
        },
        {
          "name": "D4",
          "midi": 62,
          "time": 25.49997450000004,
          "velocity": 0.7874015748031497,
          "duration": 0.1666665000000016
        },
        {
          "name": "A#3",
          "midi": 58,
          "time": 25.49997450000004,
          "velocity": 0.7874015748031497,
          "duration": 0.1666665000000016
        },
        {
          "name": "D4",
          "midi": 62,
          "time": 25.66664100000004,
          "velocity": 0.7874015748031497,
          "duration": 0.33333299999999966
        },
        {
          "name": "A#3",
          "midi": 58,
          "time": 25.66664100000004,
          "velocity": 0.7874015748031497,
          "duration": 0.33333299999999966
        },
        {
          "name": "G3",
          "midi": 55,
          "time": 25.66664100000004,
          "velocity": 0.7874015748031497,
          "duration": 0.33333299999999966
        },
        {
          "name": "G3",
          "midi": 55,
          "time": 25.99997400000004,
          "velocity": 0.7874015748031497,
          "duration": 0.33333299999999966
        },
        {
          "name": "D4",
          "midi": 62,
          "time": 25.99997400000004,
          "velocity": 0.7874015748031497,
          "duration": 0.33333299999999966
        },
        {
          "name": "A#3",
          "midi": 58,
          "time": 25.99997400000004,
          "velocity": 0.7874015748031497,
          "duration": 0.33333299999999966
        },
        {
          "name": "G3",
          "midi": 55,
          "time": 26.33330700000004,
          "velocity": 0.7874015748031497,
          "duration": 0.1666665000000016
        },
        {
          "name": "A#3",
          "midi": 58,
          "time": 26.33330700000004,
          "velocity": 0.7874015748031497,
          "duration": 0.1666665000000016
        },
        {
          "name": "D4",
          "midi": 62,
          "time": 26.33330700000004,
          "velocity": 0.7874015748031497,
          "duration": 0.1666665000000016
        },
        {
          "name": "G3",
          "midi": 55,
          "time": 26.499973500000042,
          "velocity": 0.7874015748031497,
          "duration": 0.1666665000000016
        },
        {
          "name": "A#3",
          "midi": 58,
          "time": 26.499973500000042,
          "velocity": 0.7874015748031497,
          "duration": 0.1666665000000016
        },
        {
          "name": "D4",
          "midi": 62,
          "time": 26.499973500000042,
          "velocity": 0.7874015748031497,
          "duration": 0.1666665000000016
        },
        {
          "name": "D#4",
          "midi": 63,
          "time": 26.666640000000044,
          "velocity": 0.7874015748031497,
          "duration": 0.1666665000000016
        },
        {
          "name": "A#4",
          "midi": 70,
          "time": 26.666640000000044,
          "velocity": 0.7874015748031497,
          "duration": 0.1666665000000016
        },
        {
          "name": "G4",
          "midi": 67,
          "time": 26.666640000000044,
          "velocity": 0.7874015748031497,
          "duration": 0.1666665000000016
        },
        {
          "name": "D#4",
          "midi": 63,
          "time": 26.833306500000045,
          "velocity": 0.7874015748031497,
          "duration": 0.1666665000000016
        },
        {
          "name": "A#4",
          "midi": 70,
          "time": 26.833306500000045,
          "velocity": 0.7874015748031497,
          "duration": 0.1666665000000016
        },
        {
          "name": "G4",
          "midi": 67,
          "time": 26.833306500000045,
          "velocity": 0.7874015748031497,
          "duration": 0.1666665000000016
        },
        {
          "name": "A#4",
          "midi": 70,
          "time": 26.999973000000047,
          "velocity": 0.7874015748031497,
          "duration": 0.33333299999999966
        },
        {
          "name": "G4",
          "midi": 67,
          "time": 26.999973000000047,
          "velocity": 0.7874015748031497,
          "duration": 0.33333299999999966
        },
        {
          "name": "D#4",
          "midi": 63,
          "time": 26.999973000000047,
          "velocity": 0.7874015748031497,
          "duration": 0.33333299999999966
        },
        {
          "name": "A#3",
          "midi": 58,
          "time": 27.333306000000047,
          "velocity": 0.7874015748031497,
          "duration": 0.33333299999999966
        },
        {
          "name": "F4",
          "midi": 65,
          "time": 27.333306000000047,
          "velocity": 0.7874015748031497,
          "duration": 0.33333299999999966
        },
        {
          "name": "D4",
          "midi": 62,
          "time": 27.333306000000047,
          "velocity": 0.7874015748031497,
          "duration": 0.33333299999999966
        },
        {
          "name": "A#3",
          "midi": 58,
          "time": 27.666639000000046,
          "velocity": 0.7874015748031497,
          "duration": 0.1666665000000016
        },
        {
          "name": "D4",
          "midi": 62,
          "time": 27.666639000000046,
          "velocity": 0.7874015748031497,
          "duration": 0.1666665000000016
        },
        {
          "name": "F4",
          "midi": 65,
          "time": 27.666639000000046,
          "velocity": 0.7874015748031497,
          "duration": 0.1666665000000016
        },
        {
          "name": "F4",
          "midi": 65,
          "time": 27.833305500000048,
          "velocity": 0.7874015748031497,
          "duration": 0.1666665000000016
        },
        {
          "name": "D4",
          "midi": 62,
          "time": 27.833305500000048,
          "velocity": 0.7874015748031497,
          "duration": 0.1666665000000016
        },
        {
          "name": "A#3",
          "midi": 58,
          "time": 27.833305500000048,
          "velocity": 0.7874015748031497,
          "duration": 0.1666665000000016
        },
        {
          "name": "A4",
          "midi": 69,
          "time": 27.99997200000005,
          "velocity": 0.7874015748031497,
          "duration": 0.1666665000000016
        },
        {
          "name": "C5",
          "midi": 72,
          "time": 27.99997200000005,
          "velocity": 0.7874015748031497,
          "duration": 0.1666665000000016
        },
        {
          "name": "F4",
          "midi": 65,
          "time": 27.99997200000005,
          "velocity": 0.7874015748031497,
          "duration": 0.1666665000000016
        },
        {
          "name": "F4",
          "midi": 65,
          "time": 28.16663850000005,
          "velocity": 0.7874015748031497,
          "duration": 0.1666665000000016
        },
        {
          "name": "C5",
          "midi": 72,
          "time": 28.16663850000005,
          "velocity": 0.7874015748031497,
          "duration": 0.1666665000000016
        },
        {
          "name": "A4",
          "midi": 69,
          "time": 28.16663850000005,
          "velocity": 0.7874015748031497,
          "duration": 0.1666665000000016
        },
        {
          "name": "F4",
          "midi": 65,
          "time": 28.333305000000053,
          "velocity": 0.7874015748031497,
          "duration": 0.33333299999999966
        },
        {
          "name": "A4",
          "midi": 69,
          "time": 28.333305000000053,
          "velocity": 0.7874015748031497,
          "duration": 0.33333299999999966
        },
        {
          "name": "C5",
          "midi": 72,
          "time": 28.333305000000053,
          "velocity": 0.7874015748031497,
          "duration": 0.33333299999999966
        },
        {
          "name": "G3",
          "midi": 55,
          "time": 28.666638000000052,
          "velocity": 0.7874015748031497,
          "duration": 0.33333299999999966
        },
        {
          "name": "D4",
          "midi": 62,
          "time": 28.666638000000052,
          "velocity": 0.7874015748031497,
          "duration": 0.33333299999999966
        },
        {
          "name": "A#3",
          "midi": 58,
          "time": 28.666638000000052,
          "velocity": 0.7874015748031497,
          "duration": 0.33333299999999966
        },
        {
          "name": "D4",
          "midi": 62,
          "time": 28.999971000000052,
          "velocity": 0.7874015748031497,
          "duration": 0.1666665000000016
        },
        {
          "name": "A#3",
          "midi": 58,
          "time": 28.999971000000052,
          "velocity": 0.7874015748031497,
          "duration": 0.1666665000000016
        },
        {
          "name": "G3",
          "midi": 55,
          "time": 28.999971000000052,
          "velocity": 0.7874015748031497,
          "duration": 0.1666665000000016
        },
        {
          "name": "G3",
          "midi": 55,
          "time": 29.166637500000054,
          "velocity": 0.7874015748031497,
          "duration": 0.1666665000000016
        },
        {
          "name": "A#3",
          "midi": 58,
          "time": 29.166637500000054,
          "velocity": 0.7874015748031497,
          "duration": 0.1666665000000016
        },
        {
          "name": "D4",
          "midi": 62,
          "time": 29.166637500000054,
          "velocity": 0.7874015748031497,
          "duration": 0.1666665000000016
        },
        {
          "name": "D#4",
          "midi": 63,
          "time": 29.333304000000055,
          "velocity": 0.7874015748031497,
          "duration": 0.1666665000000016
        },
        {
          "name": "A#4",
          "midi": 70,
          "time": 29.333304000000055,
          "velocity": 0.7874015748031497,
          "duration": 0.1666665000000016
        },
        {
          "name": "G4",
          "midi": 67,
          "time": 29.333304000000055,
          "velocity": 0.7874015748031497,
          "duration": 0.1666665000000016
        },
        {
          "name": "D#4",
          "midi": 63,
          "time": 29.499970500000057,
          "velocity": 0.7874015748031497,
          "duration": 0.1666665000000016
        },
        {
          "name": "A#4",
          "midi": 70,
          "time": 29.499970500000057,
          "velocity": 0.7874015748031497,
          "duration": 0.1666665000000016
        },
        {
          "name": "G4",
          "midi": 67,
          "time": 29.499970500000057,
          "velocity": 0.7874015748031497,
          "duration": 0.1666665000000016
        },
        {
          "name": "D#4",
          "midi": 63,
          "time": 29.66663700000006,
          "velocity": 0.7874015748031497,
          "duration": 0.33333299999999966
        },
        {
          "name": "G4",
          "midi": 67,
          "time": 29.66663700000006,
          "velocity": 0.7874015748031497,
          "duration": 0.33333299999999966
        },
        {
          "name": "A#4",
          "midi": 70,
          "time": 29.66663700000006,
          "velocity": 0.7874015748031497,
          "duration": 0.33333299999999966
        },
        {
          "name": "F4",
          "midi": 65,
          "time": 29.999970000000058,
          "velocity": 0.7874015748031497,
          "duration": 0.33333299999999966
        },
        {
          "name": "C5",
          "midi": 72,
          "time": 29.999970000000058,
          "velocity": 0.7874015748031497,
          "duration": 0.33333299999999966
        },
        {
          "name": "A4",
          "midi": 69,
          "time": 29.999970000000058,
          "velocity": 0.7874015748031497,
          "duration": 0.33333299999999966
        },
        {
          "name": "F4",
          "midi": 65,
          "time": 30.333303000000058,
          "velocity": 0.7874015748031497,
          "duration": 0.1666665000000016
        },
        {
          "name": "A4",
          "midi": 69,
          "time": 30.333303000000058,
          "velocity": 0.7874015748031497,
          "duration": 0.1666665000000016
        },
        {
          "name": "C5",
          "midi": 72,
          "time": 30.333303000000058,
          "velocity": 0.7874015748031497,
          "duration": 0.1666665000000016
        },
        {
          "name": "C5",
          "midi": 72,
          "time": 30.49996950000006,
          "velocity": 0.7874015748031497,
          "duration": 0.1666665000000016
        },
        {
          "name": "A4",
          "midi": 69,
          "time": 30.49996950000006,
          "velocity": 0.7874015748031497,
          "duration": 0.1666665000000016
        },
        {
          "name": "F4",
          "midi": 65,
          "time": 30.49996950000006,
          "velocity": 0.7874015748031497,
          "duration": 0.1666665000000016
        },
        {
          "name": "A#3",
          "midi": 58,
          "time": 30.66663600000006,
          "velocity": 0.7874015748031497,
          "duration": 0.1666665000000016
        },
        {
          "name": "F4",
          "midi": 65,
          "time": 30.66663600000006,
          "velocity": 0.7874015748031497,
          "duration": 0.1666665000000016
        },
        {
          "name": "D4",
          "midi": 62,
          "time": 30.66663600000006,
          "velocity": 0.7874015748031497,
          "duration": 0.1666665000000016
        },
        {
          "name": "D4",
          "midi": 62,
          "time": 30.833302500000062,
          "velocity": 0.7874015748031497,
          "duration": 0.1666665000000016
        },
        {
          "name": "F4",
          "midi": 65,
          "time": 30.833302500000062,
          "velocity": 0.7874015748031497,
          "duration": 0.1666665000000016
        },
        {
          "name": "A#3",
          "midi": 58,
          "time": 30.833302500000062,
          "velocity": 0.7874015748031497,
          "duration": 0.1666665000000016
        },
        {
          "name": "A#3",
          "midi": 58,
          "time": 30.999969000000064,
          "velocity": 0.7874015748031497,
          "duration": 0.33333299999999966
        },
        {
          "name": "D4",
          "midi": 62,
          "time": 30.999969000000064,
          "velocity": 0.7874015748031497,
          "duration": 0.33333299999999966
        },
        {
          "name": "F4",
          "midi": 65,
          "time": 30.999969000000064,
          "velocity": 0.7874015748031497,
          "duration": 0.33333299999999966
        },
        {
          "name": "D4",
          "midi": 62,
          "time": 31.333302000000064,
          "velocity": 0.7874015748031497,
          "duration": 0.33333299999999966
        },
        {
          "name": "F4",
          "midi": 65,
          "time": 31.333302000000064,
          "velocity": 0.7874015748031497,
          "duration": 0.33333299999999966
        },
        {
          "name": "A#3",
          "midi": 58,
          "time": 31.333302000000064,
          "velocity": 0.7874015748031497,
          "duration": 0.33333299999999966
        },
        {
          "name": "F4",
          "midi": 65,
          "time": 31.666635000000063,
          "velocity": 0.7874015748031497,
          "duration": 0.1666665000000016
        },
        {
          "name": "D4",
          "midi": 62,
          "time": 31.666635000000063,
          "velocity": 0.7874015748031497,
          "duration": 0.1666665000000016
        },
        {
          "name": "A#3",
          "midi": 58,
          "time": 31.666635000000063,
          "velocity": 0.7874015748031497,
          "duration": 0.1666665000000016
        },
        {
          "name": "A#3",
          "midi": 58,
          "time": 31.833301500000065,
          "velocity": 0.7874015748031497,
          "duration": 0.1666665000000016
        },
        {
          "name": "D4",
          "midi": 62,
          "time": 31.833301500000065,
          "velocity": 0.7874015748031497,
          "duration": 0.1666665000000016
        },
        {
          "name": "F4",
          "midi": 65,
          "time": 31.833301500000065,
          "velocity": 0.7874015748031497,
          "duration": 0.1666665000000016
        },
        {
          "name": "D#4",
          "midi": 63,
          "time": 31.999968000000067,
          "velocity": 0.7874015748031497,
          "duration": 0.16666649999999805
        },
        {
          "name": "A#4",
          "midi": 70,
          "time": 31.999968000000067,
          "velocity": 0.7874015748031497,
          "duration": 0.16666649999999805
        },
        {
          "name": "G4",
          "midi": 67,
          "time": 31.999968000000067,
          "velocity": 0.7874015748031497,
          "duration": 0.16666649999999805
        },
        {
          "name": "D#4",
          "midi": 63,
          "time": 32.166634500000065,
          "velocity": 0.7874015748031497,
          "duration": 0.16666649999999805
        },
        {
          "name": "A#4",
          "midi": 70,
          "time": 32.166634500000065,
          "velocity": 0.7874015748031497,
          "duration": 0.16666649999999805
        },
        {
          "name": "G4",
          "midi": 67,
          "time": 32.166634500000065,
          "velocity": 0.7874015748031497,
          "duration": 0.16666649999999805
        },
        {
          "name": "D#4",
          "midi": 63,
          "time": 32.33330100000006,
          "velocity": 0.7874015748031497,
          "duration": 0.3333330000000032
        },
        {
          "name": "G4",
          "midi": 67,
          "time": 32.33330100000006,
          "velocity": 0.7874015748031497,
          "duration": 0.3333330000000032
        },
        {
          "name": "A#4",
          "midi": 70,
          "time": 32.33330100000006,
          "velocity": 0.7874015748031497,
          "duration": 0.3333330000000032
        },
        {
          "name": "D#4",
          "midi": 63,
          "time": 32.666634000000066,
          "velocity": 0.7874015748031497,
          "duration": 0.3333330000000032
        },
        {
          "name": "A#4",
          "midi": 70,
          "time": 32.666634000000066,
          "velocity": 0.7874015748031497,
          "duration": 0.3333330000000032
        },
        {
          "name": "G4",
          "midi": 67,
          "time": 32.666634000000066,
          "velocity": 0.7874015748031497,
          "duration": 0.3333330000000032
        },
        {
          "name": "D#4",
          "midi": 63,
          "time": 32.99996700000007,
          "velocity": 0.7874015748031497,
          "duration": 0.16666649999999805
        },
        {
          "name": "G4",
          "midi": 67,
          "time": 32.99996700000007,
          "velocity": 0.7874015748031497,
          "duration": 0.16666649999999805
        },
        {
          "name": "A#4",
          "midi": 70,
          "time": 32.99996700000007,
          "velocity": 0.7874015748031497,
          "duration": 0.16666649999999805
        },
        {
          "name": "D#4",
          "midi": 63,
          "time": 33.16663350000007,
          "velocity": 0.7874015748031497,
          "duration": 0.16666649999999805
        },
        {
          "name": "G4",
          "midi": 67,
          "time": 33.16663350000007,
          "velocity": 0.7874015748031497,
          "duration": 0.16666649999999805
        },
        {
          "name": "A#4",
          "midi": 70,
          "time": 33.16663350000007,
          "velocity": 0.7874015748031497,
          "duration": 0.16666649999999805
        },
        {
          "name": "D4",
          "midi": 62,
          "time": 33.333300000000065,
          "velocity": 0.7874015748031497,
          "duration": 0.16666649999999805
        },
        {
          "name": "F4",
          "midi": 65,
          "time": 33.333300000000065,
          "velocity": 0.7874015748031497,
          "duration": 0.16666649999999805
        },
        {
          "name": "A#3",
          "midi": 58,
          "time": 33.333300000000065,
          "velocity": 0.7874015748031497,
          "duration": 0.16666649999999805
        },
        {
          "name": "D4",
          "midi": 62,
          "time": 33.49996650000006,
          "velocity": 0.7874015748031497,
          "duration": 0.16666649999999805
        },
        {
          "name": "F4",
          "midi": 65,
          "time": 33.49996650000006,
          "velocity": 0.7874015748031497,
          "duration": 0.16666649999999805
        },
        {
          "name": "A#3",
          "midi": 58,
          "time": 33.49996650000006,
          "velocity": 0.7874015748031497,
          "duration": 0.16666649999999805
        },
        {
          "name": "F4",
          "midi": 65,
          "time": 33.66663300000006,
          "velocity": 0.7874015748031497,
          "duration": 0.3333330000000032
        },
        {
          "name": "D4",
          "midi": 62,
          "time": 33.66663300000006,
          "velocity": 0.7874015748031497,
          "duration": 0.3333330000000032
        },
        {
          "name": "A#3",
          "midi": 58,
          "time": 33.66663300000006,
          "velocity": 0.7874015748031497,
          "duration": 0.3333330000000032
        },
        {
          "name": "C#4",
          "midi": 61,
          "time": 33.999966000000065,
          "velocity": 0.7874015748031497,
          "duration": 0.3333330000000032
        },
        {
          "name": "F4",
          "midi": 65,
          "time": 33.999966000000065,
          "velocity": 0.7874015748031497,
          "duration": 0.3333330000000032
        },
        {
          "name": "A#3",
          "midi": 58,
          "time": 33.999966000000065,
          "velocity": 0.7874015748031497,
          "duration": 0.3333330000000032
        },
        {
          "name": "F4",
          "midi": 65,
          "time": 34.33329900000007,
          "velocity": 0.7874015748031497,
          "duration": 0.16666649999999805
        },
        {
          "name": "C#4",
          "midi": 61,
          "time": 34.33329900000007,
          "velocity": 0.7874015748031497,
          "duration": 0.16666649999999805
        },
        {
          "name": "A#3",
          "midi": 58,
          "time": 34.33329900000007,
          "velocity": 0.7874015748031497,
          "duration": 0.16666649999999805
        },
        {
          "name": "F4",
          "midi": 65,
          "time": 34.499965500000066,
          "velocity": 0.7874015748031497,
          "duration": 0.16666649999999805
        },
        {
          "name": "C#4",
          "midi": 61,
          "time": 34.499965500000066,
          "velocity": 0.7874015748031497,
          "duration": 0.16666649999999805
        },
        {
          "name": "A#3",
          "midi": 58,
          "time": 34.499965500000066,
          "velocity": 0.7874015748031497,
          "duration": 0.16666649999999805
        },
        {
          "name": "F4",
          "midi": 65,
          "time": 34.666632000000064,
          "velocity": 0.7874015748031497,
          "duration": 0.16666649999999805
        },
        {
          "name": "C5",
          "midi": 72,
          "time": 34.666632000000064,
          "velocity": 0.7874015748031497,
          "duration": 0.16666649999999805
        },
        {
          "name": "A#4",
          "midi": 70,
          "time": 34.666632000000064,
          "velocity": 0.7874015748031497,
          "duration": 0.16666649999999805
        },
        {
          "name": "F4",
          "midi": 65,
          "time": 34.83329850000006,
          "velocity": 0.7874015748031497,
          "duration": 0.16666649999999805
        },
        {
          "name": "C5",
          "midi": 72,
          "time": 34.83329850000006,
          "velocity": 0.7874015748031497,
          "duration": 0.16666649999999805
        },
        {
          "name": "A#4",
          "midi": 70,
          "time": 34.83329850000006,
          "velocity": 0.7874015748031497,
          "duration": 0.16666649999999805
        },
        {
          "name": "F4",
          "midi": 65,
          "time": 34.99996500000006,
          "velocity": 0.7874015748031497,
          "duration": 0.3333330000000032
        },
        {
          "name": "A#4",
          "midi": 70,
          "time": 34.99996500000006,
          "velocity": 0.7874015748031497,
          "duration": 0.3333330000000032
        },
        {
          "name": "C5",
          "midi": 72,
          "time": 34.99996500000006,
          "velocity": 0.7874015748031497,
          "duration": 0.3333330000000032
        },
        {
          "name": "A#4",
          "midi": 70,
          "time": 35.33329800000006,
          "velocity": 0.7874015748031497,
          "duration": 0.3333330000000032
        },
        {
          "name": "C5",
          "midi": 72,
          "time": 35.33329800000006,
          "velocity": 0.7874015748031497,
          "duration": 0.3333330000000032
        },
        {
          "name": "F4",
          "midi": 65,
          "time": 35.33329800000006,
          "velocity": 0.7874015748031497,
          "duration": 0.3333330000000032
        },
        {
          "name": "F4",
          "midi": 65,
          "time": 35.666631000000066,
          "velocity": 0.7874015748031497,
          "duration": 0.16666649999999805
        },
        {
          "name": "A#4",
          "midi": 70,
          "time": 35.666631000000066,
          "velocity": 0.7874015748031497,
          "duration": 0.16666649999999805
        },
        {
          "name": "C5",
          "midi": 72,
          "time": 35.666631000000066,
          "velocity": 0.7874015748031497,
          "duration": 0.16666649999999805
        },
        {
          "name": "F4",
          "midi": 65,
          "time": 35.833297500000064,
          "velocity": 0.7874015748031497,
          "duration": 0.16666649999999805
        },
        {
          "name": "A#4",
          "midi": 70,
          "time": 35.833297500000064,
          "velocity": 0.7874015748031497,
          "duration": 0.16666649999999805
        },
        {
          "name": "C5",
          "midi": 72,
          "time": 35.833297500000064,
          "velocity": 0.7874015748031497,
          "duration": 0.16666649999999805
        },
        {
          "name": "A4",
          "midi": 69,
          "time": 35.99996400000006,
          "velocity": 0.7874015748031497,
          "duration": 0.9999990000000025
        },
        {
          "name": "C5",
          "midi": 72,
          "time": 35.99996400000006,
          "velocity": 0.7874015748031497,
          "duration": 0.9999990000000025
        },
        {
          "name": "F4",
          "midi": 65,
          "time": 35.99996400000006,
          "velocity": 0.7874015748031497,
          "duration": 0.9999990000000025
        },
        {
          "name": "A#2",
          "midi": 46,
          "time": 37.33329600000007,
          "velocity": 0.7874015748031497,
          "duration": 0.9999989999999954
        },
        {
          "name": "F3",
          "midi": 53,
          "time": 37.66662900000007,
          "velocity": 0.7874015748031497,
          "duration": 0.16666649999999805
        },
        {
          "name": "D3",
          "midi": 50,
          "time": 37.66662900000007,
          "velocity": 0.7874015748031497,
          "duration": 0.16666649999999805
        },
        {
          "name": "D3",
          "midi": 50,
          "time": 37.99996200000007,
          "velocity": 0.7874015748031497,
          "duration": 0.16666649999999805
        },
        {
          "name": "F3",
          "midi": 53,
          "time": 37.99996200000007,
          "velocity": 0.7874015748031497,
          "duration": 0.16666649999999805
        },
        {
          "name": "A#2",
          "midi": 46,
          "time": 38.333295000000064,
          "velocity": 0.7874015748031497,
          "duration": 0.9999989999999954
        },
        {
          "name": "F3",
          "midi": 53,
          "time": 38.66662800000007,
          "velocity": 0.7874015748031497,
          "duration": 0.16666649999999805
        },
        {
          "name": "D3",
          "midi": 50,
          "time": 38.66662800000007,
          "velocity": 0.7874015748031497,
          "duration": 0.16666649999999805
        },
        {
          "name": "D3",
          "midi": 50,
          "time": 38.99996100000006,
          "velocity": 0.7874015748031497,
          "duration": 0.16666649999999805
        },
        {
          "name": "F3",
          "midi": 53,
          "time": 38.99996100000006,
          "velocity": 0.7874015748031497,
          "duration": 0.16666649999999805
        },
        {
          "name": "F3",
          "midi": 53,
          "time": 39.33329400000006,
          "velocity": 0.7874015748031497,
          "duration": 0.9999989999999954
        },
        {
          "name": "C4",
          "midi": 60,
          "time": 39.66662700000006,
          "velocity": 0.7874015748031497,
          "duration": 0.16666649999999805
        },
        {
          "name": "A3",
          "midi": 57,
          "time": 39.66662700000006,
          "velocity": 0.7874015748031497,
          "duration": 0.16666649999999805
        },
        {
          "name": "A3",
          "midi": 57,
          "time": 39.99996000000006,
          "velocity": 0.7874015748031497,
          "duration": 0.16666649999999805
        },
        {
          "name": "C4",
          "midi": 60,
          "time": 39.99996000000006,
          "velocity": 0.7874015748031497,
          "duration": 0.16666649999999805
        },
        {
          "name": "A#2",
          "midi": 46,
          "time": 40.333293000000054,
          "velocity": 0.7874015748031497,
          "duration": 0.9999989999999954
        },
        {
          "name": "D3",
          "midi": 50,
          "time": 40.66662600000006,
          "velocity": 0.7874015748031497,
          "duration": 0.16666649999999805
        },
        {
          "name": "F3",
          "midi": 53,
          "time": 40.66662600000006,
          "velocity": 0.7874015748031497,
          "duration": 0.16666649999999805
        },
        {
          "name": "F3",
          "midi": 53,
          "time": 40.999959000000054,
          "velocity": 0.7874015748031497,
          "duration": 0.16666649999999805
        },
        {
          "name": "D3",
          "midi": 50,
          "time": 40.999959000000054,
          "velocity": 0.7874015748031497,
          "duration": 0.16666649999999805
        },
        {
          "name": "G2",
          "midi": 43,
          "time": 41.33329200000005,
          "velocity": 0.7874015748031497,
          "duration": 0.9999989999999954
        },
        {
          "name": "D3",
          "midi": 50,
          "time": 41.66662500000005,
          "velocity": 0.7874015748031497,
          "duration": 0.16666649999999805
        },
        {
          "name": "A#2",
          "midi": 46,
          "time": 41.66662500000005,
          "velocity": 0.7874015748031497,
          "duration": 0.16666649999999805
        },
        {
          "name": "A#2",
          "midi": 46,
          "time": 41.99995800000005,
          "velocity": 0.7874015748031497,
          "duration": 0.16666649999999805
        },
        {
          "name": "D3",
          "midi": 50,
          "time": 41.99995800000005,
          "velocity": 0.7874015748031497,
          "duration": 0.16666649999999805
        },
        {
          "name": "A#2",
          "midi": 46,
          "time": 42.333291000000045,
          "velocity": 0.7874015748031497,
          "duration": 0.9999989999999954
        },
        {
          "name": "F3",
          "midi": 53,
          "time": 42.66662400000005,
          "velocity": 0.7874015748031497,
          "duration": 0.16666649999999805
        },
        {
          "name": "D3",
          "midi": 50,
          "time": 42.66662400000005,
          "velocity": 0.7874015748031497,
          "duration": 0.16666649999999805
        },
        {
          "name": "D3",
          "midi": 50,
          "time": 42.999957000000045,
          "velocity": 0.7874015748031497,
          "duration": 0.16666649999999805
        },
        {
          "name": "F3",
          "midi": 53,
          "time": 42.999957000000045,
          "velocity": 0.7874015748031497,
          "duration": 0.16666649999999805
        },
        {
          "name": "D#3",
          "midi": 51,
          "time": 43.33329000000004,
          "velocity": 0.7874015748031497,
          "duration": 0.9999989999999954
        },
        {
          "name": "G3",
          "midi": 55,
          "time": 43.666623000000044,
          "velocity": 0.7874015748031497,
          "duration": 0.16666649999999805
        },
        {
          "name": "A#3",
          "midi": 58,
          "time": 43.666623000000044,
          "velocity": 0.7874015748031497,
          "duration": 0.16666649999999805
        },
        {
          "name": "G3",
          "midi": 55,
          "time": 43.99995600000004,
          "velocity": 0.7874015748031497,
          "duration": 0.16666649999999805
        },
        {
          "name": "A#3",
          "midi": 58,
          "time": 43.99995600000004,
          "velocity": 0.7874015748031497,
          "duration": 0.16666649999999805
        },
        {
          "name": "F3",
          "midi": 53,
          "time": 44.333289000000036,
          "velocity": 0.7874015748031497,
          "duration": 0.9999989999999954
        },
        {
          "name": "A3",
          "midi": 57,
          "time": 44.66662200000004,
          "velocity": 0.7874015748031497,
          "duration": 0.16666649999999805
        },
        {
          "name": "C4",
          "midi": 60,
          "time": 44.66662200000004,
          "velocity": 0.7874015748031497,
          "duration": 0.16666649999999805
        },
        {
          "name": "A3",
          "midi": 57,
          "time": 44.999955000000035,
          "velocity": 0.7874015748031497,
          "duration": 0.16666649999999805
        },
        {
          "name": "C4",
          "midi": 60,
          "time": 44.999955000000035,
          "velocity": 0.7874015748031497,
          "duration": 0.16666649999999805
        },
        {
          "name": "G2",
          "midi": 43,
          "time": 45.33328800000003,
          "velocity": 0.7874015748031497,
          "duration": 0.9999989999999883
        },
        {
          "name": "D3",
          "midi": 50,
          "time": 45.49995450000003,
          "velocity": 0.7874015748031497,
          "duration": 0.8333324999999903
        },
        {
          "name": "A#3",
          "midi": 58,
          "time": 45.66662100000003,
          "velocity": 0.7874015748031497,
          "duration": 0.16666649999999805
        },
        {
          "name": "G3",
          "midi": 55,
          "time": 45.66662100000003,
          "velocity": 0.7874015748031497,
          "duration": 0.16666649999999805
        },
        {
          "name": "G3",
          "midi": 55,
          "time": 45.999954000000024,
          "velocity": 0.7874015748031497,
          "duration": 0.16666649999999805
        },
        {
          "name": "A#3",
          "midi": 58,
          "time": 45.999954000000024,
          "velocity": 0.7874015748031497,
          "duration": 0.16666649999999805
        },
        {
          "name": "D3",
          "midi": 50,
          "time": 46.33328700000002,
          "velocity": 0.7874015748031497,
          "duration": 0.9999989999999883
        },
        {
          "name": "A3",
          "midi": 57,
          "time": 46.49995350000002,
          "velocity": 0.7874015748031497,
          "duration": 0.8333324999999903
        },
        {
          "name": "D4",
          "midi": 62,
          "time": 46.666620000000016,
          "velocity": 0.7874015748031497,
          "duration": 0.16666649999999805
        },
        {
          "name": "F4",
          "midi": 65,
          "time": 46.666620000000016,
          "velocity": 0.7874015748031497,
          "duration": 0.16666649999999805
        },
        {
          "name": "F4",
          "midi": 65,
          "time": 46.99995300000001,
          "velocity": 0.7874015748031497,
          "duration": 0.16666649999999805
        },
        {
          "name": "D4",
          "midi": 62,
          "time": 46.99995300000001,
          "velocity": 0.7874015748031497,
          "duration": 0.16666649999999805
        },
        {
          "name": "D#3",
          "midi": 51,
          "time": 47.33328600000001,
          "velocity": 0.7874015748031497,
          "duration": 0.6666659999999922
        },
        {
          "name": "A#3",
          "midi": 58,
          "time": 47.499952500000006,
          "velocity": 0.7874015748031497,
          "duration": 0.49999949999999416
        },
        {
          "name": "D#4",
          "midi": 63,
          "time": 47.666619000000004,
          "velocity": 0.7874015748031497,
          "duration": 0.16666649999999805
        },
        {
          "name": "G4",
          "midi": 67,
          "time": 47.666619000000004,
          "velocity": 0.7874015748031497,
          "duration": 0.16666649999999805
        },
        {
          "name": "F3",
          "midi": 53,
          "time": 47.999952,
          "velocity": 0.7874015748031497,
          "duration": 0.3333329999999961
        },
        {
          "name": "C4",
          "midi": 60,
          "time": 47.999952,
          "velocity": 0.7874015748031497,
          "duration": 0.3333329999999961
        },
        {
          "name": "F4",
          "midi": 65,
          "time": 47.999952,
          "velocity": 0.7874015748031497,
          "duration": 0.16666649999999805
        },
        {
          "name": "A4",
          "midi": 69,
          "time": 47.999952,
          "velocity": 0.7874015748031497,
          "duration": 0.16666649999999805
        },
        {
          "name": "A#2",
          "midi": 46,
          "time": 48.333285,
          "velocity": 0.7874015748031497,
          "duration": 0.9999989999999883
        },
        {
          "name": "F3",
          "midi": 53,
          "time": 48.499951499999995,
          "velocity": 0.7874015748031497,
          "duration": 0.8333324999999903
        },
        {
          "name": "D4",
          "midi": 62,
          "time": 48.66661799999999,
          "velocity": 0.7874015748031497,
          "duration": 0.16666649999999805
        },
        {
          "name": "A#3",
          "midi": 58,
          "time": 48.66661799999999,
          "velocity": 0.7874015748031497,
          "duration": 0.16666649999999805
        },
        {
          "name": "A#3",
          "midi": 58,
          "time": 48.99995099999999,
          "velocity": 0.7874015748031497,
          "duration": 0.16666649999999805
        },
        {
          "name": "D4",
          "midi": 62,
          "time": 48.99995099999999,
          "velocity": 0.7874015748031497,
          "duration": 0.16666649999999805
        },
        {
          "name": "D#3",
          "midi": 51,
          "time": 49.333283999999985,
          "velocity": 0.7874015748031497,
          "duration": 0.9999989999999883
        },
        {
          "name": "A#3",
          "midi": 58,
          "time": 49.49995049999998,
          "velocity": 0.7874015748031497,
          "duration": 0.8333324999999903
        },
        {
          "name": "G4",
          "midi": 67,
          "time": 49.66661699999998,
          "velocity": 0.7874015748031497,
          "duration": 0.16666649999999805
        },
        {
          "name": "D#4",
          "midi": 63,
          "time": 49.66661699999998,
          "velocity": 0.7874015748031497,
          "duration": 0.16666649999999805
        },
        {
          "name": "D#4",
          "midi": 63,
          "time": 49.99994999999998,
          "velocity": 0.7874015748031497,
          "duration": 0.16666649999999805
        },
        {
          "name": "G4",
          "midi": 67,
          "time": 49.99994999999998,
          "velocity": 0.7874015748031497,
          "duration": 0.16666649999999805
        },
        {
          "name": "A#2",
          "midi": 46,
          "time": 50.33328299999997,
          "velocity": 0.7874015748031497,
          "duration": 0.9999989999999883
        },
        {
          "name": "F3",
          "midi": 53,
          "time": 50.49994949999997,
          "velocity": 0.7874015748031497,
          "duration": 0.8333324999999903
        },
        {
          "name": "A#3",
          "midi": 58,
          "time": 50.66661599999997,
          "velocity": 0.7874015748031497,
          "duration": 0.16666649999999805
        },
        {
          "name": "D4",
          "midi": 62,
          "time": 50.66661599999997,
          "velocity": 0.7874015748031497,
          "duration": 0.16666649999999805
        },
        {
          "name": "D4",
          "midi": 62,
          "time": 50.999948999999965,
          "velocity": 0.7874015748031497,
          "duration": 0.16666649999999805
        },
        {
          "name": "A#3",
          "midi": 58,
          "time": 50.999948999999965,
          "velocity": 0.7874015748031497,
          "duration": 0.16666649999999805
        },
        {
          "name": "D#3",
          "midi": 51,
          "time": 51.33328199999996,
          "velocity": 0.7874015748031497,
          "duration": 0.9999989999999883
        },
        {
          "name": "A#3",
          "midi": 58,
          "time": 51.49994849999996,
          "velocity": 0.7874015748031497,
          "duration": 0.8333324999999903
        },
        {
          "name": "D#4",
          "midi": 63,
          "time": 51.66661499999996,
          "velocity": 0.7874015748031497,
          "duration": 0.16666649999999805
        },
        {
          "name": "G4",
          "midi": 67,
          "time": 51.66661499999996,
          "velocity": 0.7874015748031497,
          "duration": 0.16666649999999805
        },
        {
          "name": "G4",
          "midi": 67,
          "time": 51.999947999999954,
          "velocity": 0.7874015748031497,
          "duration": 0.16666649999999805
        },
        {
          "name": "D#4",
          "midi": 63,
          "time": 51.999947999999954,
          "velocity": 0.7874015748031497,
          "duration": 0.16666649999999805
        },
        {
          "name": "F3",
          "midi": 53,
          "time": 52.33328099999995,
          "velocity": 0.7874015748031497,
          "duration": 0.9999989999999883
        },
        {
          "name": "C4",
          "midi": 60,
          "time": 52.49994749999995,
          "velocity": 0.7874015748031497,
          "duration": 0.8333324999999903
        },
        {
          "name": "A4",
          "midi": 69,
          "time": 52.666613999999946,
          "velocity": 0.7874015748031497,
          "duration": 0.16666649999999805
        },
        {
          "name": "F4",
          "midi": 65,
          "time": 52.666613999999946,
          "velocity": 0.7874015748031497,
          "duration": 0.16666649999999805
        },
        {
          "name": "A4",
          "midi": 69,
          "time": 52.99994699999994,
          "velocity": 0.7874015748031497,
          "duration": 0.16666649999999805
        },
        {
          "name": "F4",
          "midi": 65,
          "time": 52.99994699999994,
          "velocity": 0.7874015748031497,
          "duration": 0.16666649999999805
        },
        {
          "name": "G2",
          "midi": 43,
          "time": 53.33327999999994,
          "velocity": 0.7874015748031497,
          "duration": 0.9999989999999883
        },
        {
          "name": "D3",
          "midi": 50,
          "time": 53.499946499999936,
          "velocity": 0.7874015748031497,
          "duration": 0.8333324999999903
        },
        {
          "name": "A#3",
          "midi": 58,
          "time": 53.666612999999934,
          "velocity": 0.7874015748031497,
          "duration": 0.16666649999999805
        },
        {
          "name": "G3",
          "midi": 55,
          "time": 53.666612999999934,
          "velocity": 0.7874015748031497,
          "duration": 0.16666649999999805
        },
        {
          "name": "A#3",
          "midi": 58,
          "time": 53.99994599999993,
          "velocity": 0.7874015748031497,
          "duration": 0.16666649999999805
        },
        {
          "name": "G3",
          "midi": 55,
          "time": 53.99994599999993,
          "velocity": 0.7874015748031497,
          "duration": 0.16666649999999805
        },
        {
          "name": "D3",
          "midi": 50,
          "time": 54.333278999999926,
          "velocity": 0.7874015748031497,
          "duration": 0.9999989999999883
        },
        {
          "name": "A3",
          "midi": 57,
          "time": 54.499945499999924,
          "velocity": 0.7874015748031497,
          "duration": 0.8333324999999903
        },
        {
          "name": "D4",
          "midi": 62,
          "time": 54.66661199999992,
          "velocity": 0.7874015748031497,
          "duration": 0.16666649999999805
        },
        {
          "name": "F4",
          "midi": 65,
          "time": 54.66661199999992,
          "velocity": 0.7874015748031497,
          "duration": 0.16666649999999805
        },
        {
          "name": "D4",
          "midi": 62,
          "time": 54.99994499999992,
          "velocity": 0.7874015748031497,
          "duration": 0.16666649999999805
        },
        {
          "name": "F4",
          "midi": 65,
          "time": 54.99994499999992,
          "velocity": 0.7874015748031497,
          "duration": 0.16666649999999805
        },
        {
          "name": "D#3",
          "midi": 51,
          "time": 55.333277999999915,
          "velocity": 0.7874015748031497,
          "duration": 0.6666659999999922
        },
        {
          "name": "A#3",
          "midi": 58,
          "time": 55.49994449999991,
          "velocity": 0.7874015748031497,
          "duration": 0.49999949999999416
        },
        {
          "name": "G4",
          "midi": 67,
          "time": 55.66661099999991,
          "velocity": 0.7874015748031497,
          "duration": 0.16666649999999805
        },
        {
          "name": "D#4",
          "midi": 63,
          "time": 55.66661099999991,
          "velocity": 0.7874015748031497,
          "duration": 0.16666649999999805
        },
        {
          "name": "F3",
          "midi": 53,
          "time": 55.99994399999991,
          "velocity": 0.7874015748031497,
          "duration": 0.3333329999999961
        },
        {
          "name": "C4",
          "midi": 60,
          "time": 55.99994399999991,
          "velocity": 0.7874015748031497,
          "duration": 0.3333329999999961
        },
        {
          "name": "F4",
          "midi": 65,
          "time": 55.99994399999991,
          "velocity": 0.7874015748031497,
          "duration": 0.16666649999999805
        },
        {
          "name": "A4",
          "midi": 69,
          "time": 55.99994399999991,
          "velocity": 0.7874015748031497,
          "duration": 0.16666649999999805
        },
        {
          "name": "A#2",
          "midi": 46,
          "time": 56.3332769999999,
          "velocity": 0.7874015748031497,
          "duration": 0.9999989999999883
        },
        {
          "name": "F3",
          "midi": 53,
          "time": 56.4999434999999,
          "velocity": 0.7874015748031497,
          "duration": 0.8333324999999903
        },
        {
          "name": "D4",
          "midi": 62,
          "time": 56.6666099999999,
          "velocity": 0.7874015748031497,
          "duration": 0.16666649999999805
        },
        {
          "name": "A#3",
          "midi": 58,
          "time": 56.6666099999999,
          "velocity": 0.7874015748031497,
          "duration": 0.16666649999999805
        },
        {
          "name": "D4",
          "midi": 62,
          "time": 56.999942999999895,
          "velocity": 0.7874015748031497,
          "duration": 0.16666649999999805
        },
        {
          "name": "A#3",
          "midi": 58,
          "time": 56.999942999999895,
          "velocity": 0.7874015748031497,
          "duration": 0.16666649999999805
        },
        {
          "name": "D#3",
          "midi": 51,
          "time": 57.33327599999989,
          "velocity": 0.7874015748031497,
          "duration": 0.3333330000000032
        },
        {
          "name": "G3",
          "midi": 55,
          "time": 57.33327599999989,
          "velocity": 0.7874015748031497,
          "duration": 0.3333330000000032
        },
        {
          "name": "A#3",
          "midi": 58,
          "time": 57.33327599999989,
          "velocity": 0.7874015748031497,
          "duration": 0.3333330000000032
        },
        {
          "name": "D#3",
          "midi": 51,
          "time": 57.666608999999895,
          "velocity": 0.7874015748031497,
          "duration": 0.3333330000000032
        },
        {
          "name": "A#3",
          "midi": 58,
          "time": 57.666608999999895,
          "velocity": 0.7874015748031497,
          "duration": 0.3333330000000032
        },
        {
          "name": "G3",
          "midi": 55,
          "time": 57.666608999999895,
          "velocity": 0.7874015748031497,
          "duration": 0.3333330000000032
        },
        {
          "name": "D#3",
          "midi": 51,
          "time": 57.9999419999999,
          "velocity": 0.7874015748031497,
          "duration": 0.3333330000000032
        },
        {
          "name": "A#3",
          "midi": 58,
          "time": 57.9999419999999,
          "velocity": 0.7874015748031497,
          "duration": 0.3333330000000032
        },
        {
          "name": "G3",
          "midi": 55,
          "time": 57.9999419999999,
          "velocity": 0.7874015748031497,
          "duration": 0.3333330000000032
        },
        {
          "name": "D#3",
          "midi": 51,
          "time": 58.3332749999999,
          "velocity": 0.7874015748031497,
          "duration": 0.3333330000000032
        },
        {
          "name": "A#3",
          "midi": 58,
          "time": 58.3332749999999,
          "velocity": 0.7874015748031497,
          "duration": 0.3333330000000032
        },
        {
          "name": "G3",
          "midi": 55,
          "time": 58.3332749999999,
          "velocity": 0.7874015748031497,
          "duration": 0.3333330000000032
        },
        {
          "name": "D#3",
          "midi": 51,
          "time": 58.666607999999904,
          "velocity": 0.7874015748031497,
          "duration": 0.3333330000000032
        },
        {
          "name": "A#3",
          "midi": 58,
          "time": 58.666607999999904,
          "velocity": 0.7874015748031497,
          "duration": 0.3333330000000032
        },
        {
          "name": "G3",
          "midi": 55,
          "time": 58.666607999999904,
          "velocity": 0.7874015748031497,
          "duration": 0.3333330000000032
        },
        {
          "name": "D#3",
          "midi": 51,
          "time": 58.99994099999991,
          "velocity": 0.7874015748031497,
          "duration": 0.3333330000000032
        },
        {
          "name": "A#3",
          "midi": 58,
          "time": 58.99994099999991,
          "velocity": 0.7874015748031497,
          "duration": 0.3333330000000032
        },
        {
          "name": "G3",
          "midi": 55,
          "time": 58.99994099999991,
          "velocity": 0.7874015748031497,
          "duration": 0.3333330000000032
        },
        {
          "name": "E3",
          "midi": 52,
          "time": 59.33327399999991,
          "velocity": 0.7874015748031497,
          "duration": 0.3333330000000032
        },
        {
          "name": "G3",
          "midi": 55,
          "time": 59.33327399999991,
          "velocity": 0.7874015748031497,
          "duration": 0.3333330000000032
        },
        {
          "name": "A#3",
          "midi": 58,
          "time": 59.33327399999991,
          "velocity": 0.7874015748031497,
          "duration": 0.3333330000000032
        },
        {
          "name": "A#3",
          "midi": 58,
          "time": 59.666606999999914,
          "velocity": 0.7874015748031497,
          "duration": 0.3333330000000032
        },
        {
          "name": "G3",
          "midi": 55,
          "time": 59.666606999999914,
          "velocity": 0.7874015748031497,
          "duration": 0.3333330000000032
        },
        {
          "name": "E3",
          "midi": 52,
          "time": 59.666606999999914,
          "velocity": 0.7874015748031497,
          "duration": 0.3333330000000032
        },
        {
          "name": "C4",
          "midi": 60,
          "time": 59.99993999999992,
          "velocity": 0.7874015748031497,
          "duration": 0.16666649999999805
        },
        {
          "name": "A#3",
          "midi": 58,
          "time": 59.99993999999992,
          "velocity": 0.7874015748031497,
          "duration": 0.16666649999999805
        },
        {
          "name": "F3",
          "midi": 53,
          "time": 59.99993999999992,
          "velocity": 0.7874015748031497,
          "duration": 0.16666649999999805
        },
        {
          "name": "C4",
          "midi": 60,
          "time": 60.166606499999915,
          "velocity": 0.7874015748031497,
          "duration": 0.16666649999999805
        },
        {
          "name": "A#3",
          "midi": 58,
          "time": 60.166606499999915,
          "velocity": 0.7874015748031497,
          "duration": 0.16666649999999805
        },
        {
          "name": "F3",
          "midi": 53,
          "time": 60.166606499999915,
          "velocity": 0.7874015748031497,
          "duration": 0.16666649999999805
        },
        {
          "name": "C4",
          "midi": 60,
          "time": 60.33327299999991,
          "velocity": 0.7874015748031497,
          "duration": 0.16666649999999805
        },
        {
          "name": "A#3",
          "midi": 58,
          "time": 60.33327299999991,
          "velocity": 0.7874015748031497,
          "duration": 0.16666649999999805
        },
        {
          "name": "F3",
          "midi": 53,
          "time": 60.33327299999991,
          "velocity": 0.7874015748031497,
          "duration": 0.16666649999999805
        },
        {
          "name": "C4",
          "midi": 60,
          "time": 60.49993949999991,
          "velocity": 0.7874015748031497,
          "duration": 0.16666649999999805
        },
        {
          "name": "A#3",
          "midi": 58,
          "time": 60.49993949999991,
          "velocity": 0.7874015748031497,
          "duration": 0.16666649999999805
        },
        {
          "name": "F3",
          "midi": 53,
          "time": 60.49993949999991,
          "velocity": 0.7874015748031497,
          "duration": 0.16666649999999805
        },
        {
          "name": "C4",
          "midi": 60,
          "time": 60.66660599999991,
          "velocity": 0.7874015748031497,
          "duration": 0.16666649999999805
        },
        {
          "name": "A#3",
          "midi": 58,
          "time": 60.66660599999991,
          "velocity": 0.7874015748031497,
          "duration": 0.16666649999999805
        },
        {
          "name": "F3",
          "midi": 53,
          "time": 60.66660599999991,
          "velocity": 0.7874015748031497,
          "duration": 0.16666649999999805
        },
        {
          "name": "C4",
          "midi": 60,
          "time": 60.83327249999991,
          "velocity": 0.7874015748031497,
          "duration": 0.16666649999999805
        },
        {
          "name": "A#3",
          "midi": 58,
          "time": 60.83327249999991,
          "velocity": 0.7874015748031497,
          "duration": 0.16666649999999805
        },
        {
          "name": "F3",
          "midi": 53,
          "time": 60.83327249999991,
          "velocity": 0.7874015748031497,
          "duration": 0.16666649999999805
        },
        {
          "name": "C4",
          "midi": 60,
          "time": 60.999938999999905,
          "velocity": 0.7874015748031497,
          "duration": 0.16666649999999805
        },
        {
          "name": "A#3",
          "midi": 58,
          "time": 60.999938999999905,
          "velocity": 0.7874015748031497,
          "duration": 0.16666649999999805
        },
        {
          "name": "F3",
          "midi": 53,
          "time": 60.999938999999905,
          "velocity": 0.7874015748031497,
          "duration": 0.16666649999999805
        },
        {
          "name": "C4",
          "midi": 60,
          "time": 61.1666054999999,
          "velocity": 0.7874015748031497,
          "duration": 0.16666649999999805
        },
        {
          "name": "A#3",
          "midi": 58,
          "time": 61.1666054999999,
          "velocity": 0.7874015748031497,
          "duration": 0.16666649999999805
        },
        {
          "name": "F3",
          "midi": 53,
          "time": 61.1666054999999,
          "velocity": 0.7874015748031497,
          "duration": 0.16666649999999805
        },
        {
          "name": "C4",
          "midi": 60,
          "time": 61.3332719999999,
          "velocity": 0.7874015748031497,
          "duration": 0.6666659999999993
        },
        {
          "name": "A3",
          "midi": 57,
          "time": 61.3332719999999,
          "velocity": 0.7874015748031497,
          "duration": 0.6666659999999993
        },
        {
          "name": "F3",
          "midi": 53,
          "time": 61.3332719999999,
          "velocity": 0.7874015748031497,
          "duration": 0.6666659999999993
        },
        {
          "name": "D3",
          "midi": 50,
          "time": 62.6666039999999,
          "velocity": 0.7874015748031497,
          "duration": 1.3333319999999986
        },
        {
          "name": "A#2",
          "midi": 46,
          "time": 62.6666039999999,
          "velocity": 0.7874015748031497,
          "duration": 1.3333319999999986
        },
        {
          "name": "G2",
          "midi": 43,
          "time": 62.6666039999999,
          "velocity": 0.7874015748031497,
          "duration": 1.3333319999999986
        },
        {
          "name": "D3",
          "midi": 50,
          "time": 63.9999359999999,
          "velocity": 0.7874015748031497,
          "duration": 1.3333320000000057
        },
        {
          "name": "F3",
          "midi": 53,
          "time": 63.9999359999999,
          "velocity": 0.7874015748031497,
          "duration": 1.3333320000000057
        },
        {
          "name": "A3",
          "midi": 57,
          "time": 63.9999359999999,
          "velocity": 0.7874015748031497,
          "duration": 1.3333320000000057
        },
        {
          "name": "A#3",
          "midi": 58,
          "time": 65.3332679999999,
          "velocity": 0.7874015748031497,
          "duration": 1.3333319999999986
        },
        {
          "name": "G3",
          "midi": 55,
          "time": 65.3332679999999,
          "velocity": 0.7874015748031497,
          "duration": 1.3333319999999986
        },
        {
          "name": "D#3",
          "midi": 51,
          "time": 65.3332679999999,
          "velocity": 0.7874015748031497,
          "duration": 1.3333319999999986
        },
        {
          "name": "F3",
          "midi": 53,
          "time": 66.6665999999999,
          "velocity": 0.7874015748031497,
          "duration": 1.3333319999999986
        },
        {
          "name": "A3",
          "midi": 57,
          "time": 66.6665999999999,
          "velocity": 0.7874015748031497,
          "duration": 1.3333319999999986
        },
        {
          "name": "C4",
          "midi": 60,
          "time": 66.6665999999999,
          "velocity": 0.7874015748031497,
          "duration": 1.3333319999999986
        },
        {
          "name": "D3",
          "midi": 50,
          "time": 67.9999319999999,
          "velocity": 0.7874015748031497,
          "duration": 1.3333319999999986
        },
        {
          "name": "A#2",
          "midi": 46,
          "time": 67.9999319999999,
          "velocity": 0.7874015748031497,
          "duration": 1.3333319999999986
        },
        {
          "name": "G2",
          "midi": 43,
          "time": 67.9999319999999,
          "velocity": 0.7874015748031497,
          "duration": 1.3333319999999986
        },
        {
          "name": "A3",
          "midi": 57,
          "time": 69.3332639999999,
          "velocity": 0.7874015748031497,
          "duration": 1.3333319999999986
        },
        {
          "name": "F3",
          "midi": 53,
          "time": 69.3332639999999,
          "velocity": 0.7874015748031497,
          "duration": 1.3333319999999986
        },
        {
          "name": "D3",
          "midi": 50,
          "time": 69.3332639999999,
          "velocity": 0.7874015748031497,
          "duration": 1.3333319999999986
        },
        {
          "name": "A#3",
          "midi": 58,
          "time": 70.6665959999999,
          "velocity": 0.7874015748031497,
          "duration": 0.6666660000000064
        },
        {
          "name": "G3",
          "midi": 55,
          "time": 70.6665959999999,
          "velocity": 0.7874015748031497,
          "duration": 0.6666660000000064
        },
        {
          "name": "D#3",
          "midi": 51,
          "time": 70.6665959999999,
          "velocity": 0.7874015748031497,
          "duration": 0.6666660000000064
        },
        {
          "name": "A3",
          "midi": 57,
          "time": 71.3332619999999,
          "velocity": 0.7874015748031497,
          "duration": 0.6666660000000064
        },
        {
          "name": "C4",
          "midi": 60,
          "time": 71.3332619999999,
          "velocity": 0.7874015748031497,
          "duration": 0.6666660000000064
        },
        {
          "name": "F3",
          "midi": 53,
          "time": 71.3332619999999,
          "velocity": 0.7874015748031497,
          "duration": 0.6666660000000064
        },
        {
          "name": "F3",
          "midi": 53,
          "time": 71.99992799999991,
          "velocity": 0.7874015748031497,
          "duration": 1.3333319999999986
        },
        {
          "name": "D3",
          "midi": 50,
          "time": 71.99992799999991,
          "velocity": 0.7874015748031497,
          "duration": 1.3333319999999986
        },
        {
          "name": "A#2",
          "midi": 46,
          "time": 71.99992799999991,
          "velocity": 0.7874015748031497,
          "duration": 1.3333319999999986
        },
        {
          "name": "G2",
          "midi": 43,
          "time": 73.33325999999991,
          "velocity": 0.7874015748031497,
          "duration": 0.08333324999999547
        },
        {
          "name": "D3",
          "midi": 50,
          "time": 73.33325999999991,
          "velocity": 0.7874015748031497,
          "duration": 0.08333324999999547
        },
        {
          "name": "A#2",
          "midi": 46,
          "time": 73.33325999999991,
          "velocity": 0.7874015748031497,
          "duration": 0.08333324999999547
        },
        {
          "name": "D3",
          "midi": 50,
          "time": 73.4999264999999,
          "velocity": 0.7874015748031497,
          "duration": 0.08333324999999547
        },
        {
          "name": "A#2",
          "midi": 46,
          "time": 73.4999264999999,
          "velocity": 0.7874015748031497,
          "duration": 0.08333324999999547
        },
        {
          "name": "G2",
          "midi": 43,
          "time": 73.4999264999999,
          "velocity": 0.7874015748031497,
          "duration": 0.08333324999999547
        },
        {
          "name": "G2",
          "midi": 43,
          "time": 73.66659299999989,
          "velocity": 0.7874015748031497,
          "duration": 0.08333324999999547
        },
        {
          "name": "A#2",
          "midi": 46,
          "time": 73.66659299999989,
          "velocity": 0.7874015748031497,
          "duration": 0.08333324999999547
        },
        {
          "name": "D3",
          "midi": 50,
          "time": 73.66659299999989,
          "velocity": 0.7874015748031497,
          "duration": 0.08333324999999547
        },
        {
          "name": "D3",
          "midi": 50,
          "time": 73.83325949999988,
          "velocity": 0.7874015748031497,
          "duration": 0.08333324999999547
        },
        {
          "name": "A#2",
          "midi": 46,
          "time": 73.83325949999988,
          "velocity": 0.7874015748031497,
          "duration": 0.08333324999999547
        },
        {
          "name": "G2",
          "midi": 43,
          "time": 73.83325949999988,
          "velocity": 0.7874015748031497,
          "duration": 0.08333324999999547
        },
        {
          "name": "G2",
          "midi": 43,
          "time": 73.99992599999987,
          "velocity": 0.7874015748031497,
          "duration": 0.08333324999999547
        },
        {
          "name": "A#2",
          "midi": 46,
          "time": 73.99992599999987,
          "velocity": 0.7874015748031497,
          "duration": 0.08333324999999547
        },
        {
          "name": "D3",
          "midi": 50,
          "time": 73.99992599999987,
          "velocity": 0.7874015748031497,
          "duration": 0.08333324999999547
        },
        {
          "name": "A#2",
          "midi": 46,
          "time": 74.16659249999987,
          "velocity": 0.7874015748031497,
          "duration": 0.08333324999999547
        },
        {
          "name": "D3",
          "midi": 50,
          "time": 74.16659249999987,
          "velocity": 0.7874015748031497,
          "duration": 0.08333324999999547
        },
        {
          "name": "G2",
          "midi": 43,
          "time": 74.16659249999987,
          "velocity": 0.7874015748031497,
          "duration": 0.08333324999999547
        },
        {
          "name": "G2",
          "midi": 43,
          "time": 74.33325899999986,
          "velocity": 0.7874015748031497,
          "duration": 0.3333329999999961
        },
        {
          "name": "A#2",
          "midi": 46,
          "time": 74.33325899999986,
          "velocity": 0.7874015748031497,
          "duration": 0.3333329999999961
        },
        {
          "name": "D3",
          "midi": 50,
          "time": 74.33325899999986,
          "velocity": 0.7874015748031497,
          "duration": 0.3333329999999961
        },
        {
          "name": "D3",
          "midi": 50,
          "time": 74.66659199999985,
          "velocity": 0.7874015748031497,
          "duration": 0.08333324999999547
        },
        {
          "name": "A3",
          "midi": 57,
          "time": 74.66659199999985,
          "velocity": 0.7874015748031497,
          "duration": 0.08333324999999547
        },
        {
          "name": "F3",
          "midi": 53,
          "time": 74.66659199999985,
          "velocity": 0.7874015748031497,
          "duration": 0.08333324999999547
        },
        {
          "name": "A3",
          "midi": 57,
          "time": 74.83325849999984,
          "velocity": 0.7874015748031497,
          "duration": 0.08333324999999547
        },
        {
          "name": "F3",
          "midi": 53,
          "time": 74.83325849999984,
          "velocity": 0.7874015748031497,
          "duration": 0.08333324999999547
        },
        {
          "name": "D3",
          "midi": 50,
          "time": 74.83325849999984,
          "velocity": 0.7874015748031497,
          "duration": 0.08333324999999547
        },
        {
          "name": "D3",
          "midi": 50,
          "time": 74.99992499999983,
          "velocity": 0.7874015748031497,
          "duration": 0.08333324999999547
        },
        {
          "name": "F3",
          "midi": 53,
          "time": 74.99992499999983,
          "velocity": 0.7874015748031497,
          "duration": 0.08333324999999547
        },
        {
          "name": "A3",
          "midi": 57,
          "time": 74.99992499999983,
          "velocity": 0.7874015748031497,
          "duration": 0.08333324999999547
        },
        {
          "name": "A3",
          "midi": 57,
          "time": 75.16659149999983,
          "velocity": 0.7874015748031497,
          "duration": 0.08333324999999547
        },
        {
          "name": "F3",
          "midi": 53,
          "time": 75.16659149999983,
          "velocity": 0.7874015748031497,
          "duration": 0.08333324999999547
        },
        {
          "name": "D3",
          "midi": 50,
          "time": 75.16659149999983,
          "velocity": 0.7874015748031497,
          "duration": 0.08333324999999547
        },
        {
          "name": "A3",
          "midi": 57,
          "time": 75.33325799999982,
          "velocity": 0.7874015748031497,
          "duration": 0.08333324999999547
        },
        {
          "name": "F3",
          "midi": 53,
          "time": 75.33325799999982,
          "velocity": 0.7874015748031497,
          "duration": 0.08333324999999547
        },
        {
          "name": "D3",
          "midi": 50,
          "time": 75.33325799999982,
          "velocity": 0.7874015748031497,
          "duration": 0.08333324999999547
        },
        {
          "name": "D3",
          "midi": 50,
          "time": 75.4999244999998,
          "velocity": 0.7874015748031497,
          "duration": 0.08333324999999547
        },
        {
          "name": "A3",
          "midi": 57,
          "time": 75.4999244999998,
          "velocity": 0.7874015748031497,
          "duration": 0.08333324999999547
        },
        {
          "name": "F3",
          "midi": 53,
          "time": 75.4999244999998,
          "velocity": 0.7874015748031497,
          "duration": 0.08333324999999547
        },
        {
          "name": "A3",
          "midi": 57,
          "time": 75.6665909999998,
          "velocity": 0.7874015748031497,
          "duration": 0.3333329999999961
        },
        {
          "name": "F3",
          "midi": 53,
          "time": 75.6665909999998,
          "velocity": 0.7874015748031497,
          "duration": 0.3333329999999961
        },
        {
          "name": "D3",
          "midi": 50,
          "time": 75.6665909999998,
          "velocity": 0.7874015748031497,
          "duration": 0.3333329999999961
        },
        {
          "name": "G3",
          "midi": 55,
          "time": 75.9999239999998,
          "velocity": 0.7874015748031497,
          "duration": 0.08333324999999547
        },
        {
          "name": "A#3",
          "midi": 58,
          "time": 75.9999239999998,
          "velocity": 0.7874015748031497,
          "duration": 0.08333324999999547
        },
        {
          "name": "D#3",
          "midi": 51,
          "time": 75.9999239999998,
          "velocity": 0.7874015748031497,
          "duration": 0.08333324999999547
        },
        {
          "name": "A#3",
          "midi": 58,
          "time": 76.16659049999978,
          "velocity": 0.7874015748031497,
          "duration": 0.08333324999999547
        },
        {
          "name": "G3",
          "midi": 55,
          "time": 76.16659049999978,
          "velocity": 0.7874015748031497,
          "duration": 0.08333324999999547
        },
        {
          "name": "D#3",
          "midi": 51,
          "time": 76.16659049999978,
          "velocity": 0.7874015748031497,
          "duration": 0.08333324999999547
        },
        {
          "name": "A#3",
          "midi": 58,
          "time": 76.33325699999978,
          "velocity": 0.7874015748031497,
          "duration": 0.08333324999999547
        },
        {
          "name": "G3",
          "midi": 55,
          "time": 76.33325699999978,
          "velocity": 0.7874015748031497,
          "duration": 0.08333324999999547
        },
        {
          "name": "D#3",
          "midi": 51,
          "time": 76.33325699999978,
          "velocity": 0.7874015748031497,
          "duration": 0.08333324999999547
        },
        {
          "name": "D#3",
          "midi": 51,
          "time": 76.49992349999977,
          "velocity": 0.7874015748031497,
          "duration": 0.08333324999999547
        },
        {
          "name": "G3",
          "midi": 55,
          "time": 76.49992349999977,
          "velocity": 0.7874015748031497,
          "duration": 0.08333324999999547
        },
        {
          "name": "A#3",
          "midi": 58,
          "time": 76.49992349999977,
          "velocity": 0.7874015748031497,
          "duration": 0.08333324999999547
        },
        {
          "name": "D#3",
          "midi": 51,
          "time": 76.66658999999976,
          "velocity": 0.7874015748031497,
          "duration": 0.08333324999999547
        },
        {
          "name": "G3",
          "midi": 55,
          "time": 76.66658999999976,
          "velocity": 0.7874015748031497,
          "duration": 0.08333324999999547
        },
        {
          "name": "A#3",
          "midi": 58,
          "time": 76.66658999999976,
          "velocity": 0.7874015748031497,
          "duration": 0.08333324999999547
        },
        {
          "name": "D#3",
          "midi": 51,
          "time": 76.83325649999975,
          "velocity": 0.7874015748031497,
          "duration": 0.08333324999999547
        },
        {
          "name": "A#3",
          "midi": 58,
          "time": 76.83325649999975,
          "velocity": 0.7874015748031497,
          "duration": 0.08333324999999547
        },
        {
          "name": "G3",
          "midi": 55,
          "time": 76.83325649999975,
          "velocity": 0.7874015748031497,
          "duration": 0.08333324999999547
        },
        {
          "name": "D#3",
          "midi": 51,
          "time": 76.99992299999974,
          "velocity": 0.7874015748031497,
          "duration": 0.3333329999999961
        },
        {
          "name": "G3",
          "midi": 55,
          "time": 76.99992299999974,
          "velocity": 0.7874015748031497,
          "duration": 0.3333329999999961
        },
        {
          "name": "A#3",
          "midi": 58,
          "time": 76.99992299999974,
          "velocity": 0.7874015748031497,
          "duration": 0.3333329999999961
        },
        {
          "name": "A#2",
          "midi": 46,
          "time": 77.33325599999974,
          "velocity": 0.7874015748031497,
          "duration": 0.08333324999999547
        },
        {
          "name": "F3",
          "midi": 53,
          "time": 77.33325599999974,
          "velocity": 0.7874015748031497,
          "duration": 0.08333324999999547
        },
        {
          "name": "D3",
          "midi": 50,
          "time": 77.33325599999974,
          "velocity": 0.7874015748031497,
          "duration": 0.08333324999999547
        },
        {
          "name": "F3",
          "midi": 53,
          "time": 77.49992249999973,
          "velocity": 0.7874015748031497,
          "duration": 0.08333324999999547
        },
        {
          "name": "D3",
          "midi": 50,
          "time": 77.49992249999973,
          "velocity": 0.7874015748031497,
          "duration": 0.08333324999999547
        },
        {
          "name": "A#2",
          "midi": 46,
          "time": 77.49992249999973,
          "velocity": 0.7874015748031497,
          "duration": 0.08333324999999547
        },
        {
          "name": "F3",
          "midi": 53,
          "time": 77.66658899999972,
          "velocity": 0.7874015748031497,
          "duration": 0.08333324999999547
        },
        {
          "name": "D3",
          "midi": 50,
          "time": 77.66658899999972,
          "velocity": 0.7874015748031497,
          "duration": 0.08333324999999547
        },
        {
          "name": "A#2",
          "midi": 46,
          "time": 77.66658899999972,
          "velocity": 0.7874015748031497,
          "duration": 0.08333324999999547
        },
        {
          "name": "A#2",
          "midi": 46,
          "time": 77.83325549999971,
          "velocity": 0.7874015748031497,
          "duration": 0.08333324999999547
        },
        {
          "name": "D3",
          "midi": 50,
          "time": 77.83325549999971,
          "velocity": 0.7874015748031497,
          "duration": 0.08333324999999547
        },
        {
          "name": "F3",
          "midi": 53,
          "time": 77.83325549999971,
          "velocity": 0.7874015748031497,
          "duration": 0.08333324999999547
        },
        {
          "name": "A#2",
          "midi": 46,
          "time": 77.9999219999997,
          "velocity": 0.7874015748031497,
          "duration": 0.08333324999999547
        },
        {
          "name": "D3",
          "midi": 50,
          "time": 77.9999219999997,
          "velocity": 0.7874015748031497,
          "duration": 0.08333324999999547
        },
        {
          "name": "F3",
          "midi": 53,
          "time": 77.9999219999997,
          "velocity": 0.7874015748031497,
          "duration": 0.08333324999999547
        },
        {
          "name": "D3",
          "midi": 50,
          "time": 78.16658849999969,
          "velocity": 0.7874015748031497,
          "duration": 0.08333324999999547
        },
        {
          "name": "F3",
          "midi": 53,
          "time": 78.16658849999969,
          "velocity": 0.7874015748031497,
          "duration": 0.08333324999999547
        },
        {
          "name": "A#2",
          "midi": 46,
          "time": 78.16658849999969,
          "velocity": 0.7874015748031497,
          "duration": 0.08333324999999547
        },
        {
          "name": "A#2",
          "midi": 46,
          "time": 78.33325499999968,
          "velocity": 0.7874015748031497,
          "duration": 0.3333329999999961
        },
        {
          "name": "D3",
          "midi": 50,
          "time": 78.33325499999968,
          "velocity": 0.7874015748031497,
          "duration": 0.3333329999999961
        },
        {
          "name": "F3",
          "midi": 53,
          "time": 78.33325499999968,
          "velocity": 0.7874015748031497,
          "duration": 0.3333329999999961
        },
        {
          "name": "D#3",
          "midi": 51,
          "time": 78.66658799999968,
          "velocity": 0.7874015748031497,
          "duration": 0.08333324999999547
        },
        {
          "name": "A#3",
          "midi": 58,
          "time": 78.66658799999968,
          "velocity": 0.7874015748031497,
          "duration": 0.08333324999999547
        },
        {
          "name": "G3",
          "midi": 55,
          "time": 78.66658799999968,
          "velocity": 0.7874015748031497,
          "duration": 0.08333324999999547
        },
        {
          "name": "A#3",
          "midi": 58,
          "time": 78.83325449999967,
          "velocity": 0.7874015748031497,
          "duration": 0.08333324999999547
        },
        {
          "name": "G3",
          "midi": 55,
          "time": 78.83325449999967,
          "velocity": 0.7874015748031497,
          "duration": 0.08333324999999547
        },
        {
          "name": "D#3",
          "midi": 51,
          "time": 78.83325449999967,
          "velocity": 0.7874015748031497,
          "duration": 0.08333324999999547
        },
        {
          "name": "A#3",
          "midi": 58,
          "time": 78.99992099999966,
          "velocity": 0.7874015748031497,
          "duration": 0.08333324999999547
        },
        {
          "name": "G3",
          "midi": 55,
          "time": 78.99992099999966,
          "velocity": 0.7874015748031497,
          "duration": 0.08333324999999547
        },
        {
          "name": "D#3",
          "midi": 51,
          "time": 78.99992099999966,
          "velocity": 0.7874015748031497,
          "duration": 0.08333324999999547
        },
        {
          "name": "A#3",
          "midi": 58,
          "time": 79.16658749999965,
          "velocity": 0.7874015748031497,
          "duration": 0.08333324999999547
        },
        {
          "name": "G3",
          "midi": 55,
          "time": 79.16658749999965,
          "velocity": 0.7874015748031497,
          "duration": 0.08333324999999547
        },
        {
          "name": "D#3",
          "midi": 51,
          "time": 79.16658749999965,
          "velocity": 0.7874015748031497,
          "duration": 0.08333324999999547
        },
        {
          "name": "D#3",
          "midi": 51,
          "time": 79.33325399999964,
          "velocity": 0.7874015748031497,
          "duration": 0.08333324999999547
        },
        {
          "name": "G3",
          "midi": 55,
          "time": 79.33325399999964,
          "velocity": 0.7874015748031497,
          "duration": 0.08333324999999547
        },
        {
          "name": "A#3",
          "midi": 58,
          "time": 79.33325399999964,
          "velocity": 0.7874015748031497,
          "duration": 0.08333324999999547
        },
        {
          "name": "D#3",
          "midi": 51,
          "time": 79.49992049999963,
          "velocity": 0.7874015748031497,
          "duration": 0.08333324999999547
        },
        {
          "name": "A#3",
          "midi": 58,
          "time": 79.49992049999963,
          "velocity": 0.7874015748031497,
          "duration": 0.08333324999999547
        },
        {
          "name": "G3",
          "midi": 55,
          "time": 79.49992049999963,
          "velocity": 0.7874015748031497,
          "duration": 0.08333324999999547
        },
        {
          "name": "G3",
          "midi": 55,
          "time": 79.66658699999962,
          "velocity": 0.7874015748031497,
          "duration": 0.08333324999999547
        },
        {
          "name": "A#3",
          "midi": 58,
          "time": 79.66658699999962,
          "velocity": 0.7874015748031497,
          "duration": 0.08333324999999547
        },
        {
          "name": "D#3",
          "midi": 51,
          "time": 79.66658699999962,
          "velocity": 0.7874015748031497,
          "duration": 0.08333324999999547
        },
        {
          "name": "D#3",
          "midi": 51,
          "time": 79.83325349999961,
          "velocity": 0.7874015748031497,
          "duration": 0.08333324999999547
        },
        {
          "name": "G3",
          "midi": 55,
          "time": 79.83325349999961,
          "velocity": 0.7874015748031497,
          "duration": 0.08333324999999547
        },
        {
          "name": "A#3",
          "midi": 58,
          "time": 79.83325349999961,
          "velocity": 0.7874015748031497,
          "duration": 0.08333324999999547
        },
        {
          "name": "E3",
          "midi": 52,
          "time": 79.9999199999996,
          "velocity": 0.7874015748031497,
          "duration": 0.08333324999999547
        },
        {
          "name": "G3",
          "midi": 55,
          "time": 79.9999199999996,
          "velocity": 0.7874015748031497,
          "duration": 0.08333324999999547
        },
        {
          "name": "A#3",
          "midi": 58,
          "time": 79.9999199999996,
          "velocity": 0.7874015748031497,
          "duration": 0.08333324999999547
        },
        {
          "name": "E3",
          "midi": 52,
          "time": 80.1665864999996,
          "velocity": 0.7874015748031497,
          "duration": 0.08333324999999547
        },
        {
          "name": "G3",
          "midi": 55,
          "time": 80.1665864999996,
          "velocity": 0.7874015748031497,
          "duration": 0.08333324999999547
        },
        {
          "name": "A#3",
          "midi": 58,
          "time": 80.1665864999996,
          "velocity": 0.7874015748031497,
          "duration": 0.08333324999999547
        },
        {
          "name": "E3",
          "midi": 52,
          "time": 80.33325299999959,
          "velocity": 0.7874015748031497,
          "duration": 0.08333324999999547
        },
        {
          "name": "G3",
          "midi": 55,
          "time": 80.33325299999959,
          "velocity": 0.7874015748031497,
          "duration": 0.08333324999999547
        },
        {
          "name": "A#3",
          "midi": 58,
          "time": 80.33325299999959,
          "velocity": 0.7874015748031497,
          "duration": 0.08333324999999547
        },
        {
          "name": "E3",
          "midi": 52,
          "time": 80.49991949999958,
          "velocity": 0.7874015748031497,
          "duration": 0.08333324999999547
        },
        {
          "name": "A#3",
          "midi": 58,
          "time": 80.49991949999958,
          "velocity": 0.7874015748031497,
          "duration": 0.08333324999999547
        },
        {
          "name": "G3",
          "midi": 55,
          "time": 80.49991949999958,
          "velocity": 0.7874015748031497,
          "duration": 0.08333324999999547
        },
        {
          "name": "G3",
          "midi": 55,
          "time": 80.66658599999957,
          "velocity": 0.7874015748031497,
          "duration": 0.08333324999999547
        },
        {
          "name": "A#3",
          "midi": 58,
          "time": 80.66658599999957,
          "velocity": 0.7874015748031497,
          "duration": 0.08333324999999547
        },
        {
          "name": "E3",
          "midi": 52,
          "time": 80.66658599999957,
          "velocity": 0.7874015748031497,
          "duration": 0.08333324999999547
        },
        {
          "name": "E3",
          "midi": 52,
          "time": 80.83325249999956,
          "velocity": 0.7874015748031497,
          "duration": 0.08333324999999547
        },
        {
          "name": "G3",
          "midi": 55,
          "time": 80.83325249999956,
          "velocity": 0.7874015748031497,
          "duration": 0.08333324999999547
        },
        {
          "name": "A#3",
          "midi": 58,
          "time": 80.83325249999956,
          "velocity": 0.7874015748031497,
          "duration": 0.08333324999999547
        },
        {
          "name": "E3",
          "midi": 52,
          "time": 80.99991899999955,
          "velocity": 0.7874015748031497,
          "duration": 0.08333324999999547
        },
        {
          "name": "G3",
          "midi": 55,
          "time": 80.99991899999955,
          "velocity": 0.7874015748031497,
          "duration": 0.08333324999999547
        },
        {
          "name": "A#3",
          "midi": 58,
          "time": 80.99991899999955,
          "velocity": 0.7874015748031497,
          "duration": 0.08333324999999547
        },
        {
          "name": "A#3",
          "midi": 58,
          "time": 81.16658549999954,
          "velocity": 0.7874015748031497,
          "duration": 0.08333324999999547
        },
        {
          "name": "G3",
          "midi": 55,
          "time": 81.16658549999954,
          "velocity": 0.7874015748031497,
          "duration": 0.08333324999999547
        },
        {
          "name": "E3",
          "midi": 52,
          "time": 81.16658549999954,
          "velocity": 0.7874015748031497,
          "duration": 0.08333324999999547
        },
        {
          "name": "F3",
          "midi": 53,
          "time": 81.33325199999953,
          "velocity": 0.7874015748031497,
          "duration": 0.08333324999999547
        },
        {
          "name": "A3",
          "midi": 57,
          "time": 81.33325199999953,
          "velocity": 0.7874015748031497,
          "duration": 0.08333324999999547
        },
        {
          "name": "C4",
          "midi": 60,
          "time": 81.33325199999953,
          "velocity": 0.7874015748031497,
          "duration": 0.08333324999999547
        },
        {
          "name": "F3",
          "midi": 53,
          "time": 81.49991849999952,
          "velocity": 0.7874015748031497,
          "duration": 0.08333324999999547
        },
        {
          "name": "A3",
          "midi": 57,
          "time": 81.49991849999952,
          "velocity": 0.7874015748031497,
          "duration": 0.08333324999999547
        },
        {
          "name": "C4",
          "midi": 60,
          "time": 81.49991849999952,
          "velocity": 0.7874015748031497,
          "duration": 0.08333324999999547
        },
        {
          "name": "C4",
          "midi": 60,
          "time": 81.66658499999951,
          "velocity": 0.7874015748031497,
          "duration": 0.08333324999999547
        },
        {
          "name": "A3",
          "midi": 57,
          "time": 81.66658499999951,
          "velocity": 0.7874015748031497,
          "duration": 0.08333324999999547
        },
        {
          "name": "F3",
          "midi": 53,
          "time": 81.66658499999951,
          "velocity": 0.7874015748031497,
          "duration": 0.08333324999999547
        },
        {
          "name": "F3",
          "midi": 53,
          "time": 81.8332514999995,
          "velocity": 0.7874015748031497,
          "duration": 0.08333324999999547
        },
        {
          "name": "A3",
          "midi": 57,
          "time": 81.8332514999995,
          "velocity": 0.7874015748031497,
          "duration": 0.08333324999999547
        },
        {
          "name": "C4",
          "midi": 60,
          "time": 81.8332514999995,
          "velocity": 0.7874015748031497,
          "duration": 0.08333324999999547
        },
        {
          "name": "C4",
          "midi": 60,
          "time": 81.9999179999995,
          "velocity": 0.7874015748031497,
          "duration": 0.08333324999999547
        },
        {
          "name": "A3",
          "midi": 57,
          "time": 81.9999179999995,
          "velocity": 0.7874015748031497,
          "duration": 0.08333324999999547
        },
        {
          "name": "F3",
          "midi": 53,
          "time": 81.9999179999995,
          "velocity": 0.7874015748031497,
          "duration": 0.08333324999999547
        },
        {
          "name": "C4",
          "midi": 60,
          "time": 82.08325124999949,
          "velocity": 0.7874015748031497,
          "duration": 0.08333324999999547
        },
        {
          "name": "A3",
          "midi": 57,
          "time": 82.08325124999949,
          "velocity": 0.7874015748031497,
          "duration": 0.08333324999999547
        },
        {
          "name": "F3",
          "midi": 53,
          "time": 82.08325124999949,
          "velocity": 0.7874015748031497,
          "duration": 0.08333324999999547
        },
        {
          "name": "F3",
          "midi": 53,
          "time": 82.16658449999949,
          "velocity": 0.7874015748031497,
          "duration": 0.08333324999999547
        },
        {
          "name": "A3",
          "midi": 57,
          "time": 82.16658449999949,
          "velocity": 0.7874015748031497,
          "duration": 0.08333324999999547
        },
        {
          "name": "C4",
          "midi": 60,
          "time": 82.16658449999949,
          "velocity": 0.7874015748031497,
          "duration": 0.08333324999999547
        },
        {
          "name": "F3",
          "midi": 53,
          "time": 82.24991774999948,
          "velocity": 0.7874015748031497,
          "duration": 0.08333324999999547
        },
        {
          "name": "A3",
          "midi": 57,
          "time": 82.24991774999948,
          "velocity": 0.7874015748031497,
          "duration": 0.08333324999999547
        },
        {
          "name": "C4",
          "midi": 60,
          "time": 82.24991774999948,
          "velocity": 0.7874015748031497,
          "duration": 0.08333324999999547
        },
        {
          "name": "C4",
          "midi": 60,
          "time": 82.33325099999948,
          "velocity": 0.7874015748031497,
          "duration": 0.08333324999999547
        },
        {
          "name": "A3",
          "midi": 57,
          "time": 82.33325099999948,
          "velocity": 0.7874015748031497,
          "duration": 0.08333324999999547
        },
        {
          "name": "F3",
          "midi": 53,
          "time": 82.33325099999948,
          "velocity": 0.7874015748031497,
          "duration": 0.08333324999999547
        },
        {
          "name": "C4",
          "midi": 60,
          "time": 82.41658424999947,
          "velocity": 0.7874015748031497,
          "duration": 0.08333324999999547
        },
        {
          "name": "A3",
          "midi": 57,
          "time": 82.41658424999947,
          "velocity": 0.7874015748031497,
          "duration": 0.08333324999999547
        },
        {
          "name": "F3",
          "midi": 53,
          "time": 82.41658424999947,
          "velocity": 0.7874015748031497,
          "duration": 0.08333324999999547
        },
        {
          "name": "F3",
          "midi": 53,
          "time": 82.49991749999947,
          "velocity": 0.7874015748031497,
          "duration": 0.08333324999999547
        },
        {
          "name": "A3",
          "midi": 57,
          "time": 82.49991749999947,
          "velocity": 0.7874015748031497,
          "duration": 0.08333324999999547
        },
        {
          "name": "C4",
          "midi": 60,
          "time": 82.49991749999947,
          "velocity": 0.7874015748031497,
          "duration": 0.08333324999999547
        },
        {
          "name": "F3",
          "midi": 53,
          "time": 82.58325074999946,
          "velocity": 0.7874015748031497,
          "duration": 0.08333324999999547
        },
        {
          "name": "A3",
          "midi": 57,
          "time": 82.58325074999946,
          "velocity": 0.7874015748031497,
          "duration": 0.08333324999999547
        },
        {
          "name": "C4",
          "midi": 60,
          "time": 82.58325074999946,
          "velocity": 0.7874015748031497,
          "duration": 0.08333324999999547
        },
        {
          "name": "F3",
          "midi": 53,
          "time": 82.66658399999946,
          "velocity": 0.7874015748031497,
          "duration": 1.3333319999999986
        },
        {
          "name": "A3",
          "midi": 57,
          "time": 82.66658399999946,
          "velocity": 0.7874015748031497,
          "duration": 1.3333319999999986
        },
        {
          "name": "C4",
          "midi": 60,
          "time": 82.66658399999946,
          "velocity": 0.7874015748031497,
          "duration": 1.3333319999999986
        },
        {
          "name": "D#3",
          "midi": 51,
          "time": 83.99991599999946,
          "velocity": 0.7874015748031497,
          "duration": 0.3333329999999961
        },
        {
          "name": "G3",
          "midi": 55,
          "time": 83.99991599999946,
          "velocity": 0.7874015748031497,
          "duration": 0.3333329999999961
        },
        {
          "name": "A#3",
          "midi": 58,
          "time": 83.99991599999946,
          "velocity": 0.7874015748031497,
          "duration": 0.3333329999999961
        },
        {
          "name": "G3",
          "midi": 55,
          "time": 84.33324899999946,
          "velocity": 0.7874015748031497,
          "duration": 0.3333329999999961
        },
        {
          "name": "D#3",
          "midi": 51,
          "time": 84.33324899999946,
          "velocity": 0.7874015748031497,
          "duration": 0.3333329999999961
        },
        {
          "name": "A#3",
          "midi": 58,
          "time": 84.33324899999946,
          "velocity": 0.7874015748031497,
          "duration": 0.3333329999999961
        },
        {
          "name": "A#3",
          "midi": 58,
          "time": 84.66658199999945,
          "velocity": 0.7874015748031497,
          "duration": 0.3333329999999961
        },
        {
          "name": "D#3",
          "midi": 51,
          "time": 84.66658199999945,
          "velocity": 0.7874015748031497,
          "duration": 0.3333329999999961
        },
        {
          "name": "G3",
          "midi": 55,
          "time": 84.66658199999945,
          "velocity": 0.7874015748031497,
          "duration": 0.3333329999999961
        },
        {
          "name": "A#3",
          "midi": 58,
          "time": 84.99991499999945,
          "velocity": 0.7874015748031497,
          "duration": 0.16666650000000516
        },
        {
          "name": "G3",
          "midi": 55,
          "time": 84.99991499999945,
          "velocity": 0.7874015748031497,
          "duration": 0.16666650000000516
        },
        {
          "name": "D#3",
          "midi": 51,
          "time": 84.99991499999945,
          "velocity": 0.7874015748031497,
          "duration": 0.16666650000000516
        },
        {
          "name": "A#3",
          "midi": 58,
          "time": 85.16658149999945,
          "velocity": 0.7874015748031497,
          "duration": 0.16666650000000516
        },
        {
          "name": "G3",
          "midi": 55,
          "time": 85.16658149999945,
          "velocity": 0.7874015748031497,
          "duration": 0.16666650000000516
        },
        {
          "name": "D#3",
          "midi": 51,
          "time": 85.16658149999945,
          "velocity": 0.7874015748031497,
          "duration": 0.16666650000000516
        },
        {
          "name": "C4",
          "midi": 60,
          "time": 85.33324799999946,
          "velocity": 0.7874015748031497,
          "duration": 0.3333329999999961
        },
        {
          "name": "A3",
          "midi": 57,
          "time": 85.33324799999946,
          "velocity": 0.7874015748031497,
          "duration": 0.3333329999999961
        },
        {
          "name": "F3",
          "midi": 53,
          "time": 85.33324799999946,
          "velocity": 0.7874015748031497,
          "duration": 0.3333329999999961
        },
        {
          "name": "A3",
          "midi": 57,
          "time": 85.66658099999945,
          "velocity": 0.7874015748031497,
          "duration": 0.3333329999999961
        },
        {
          "name": "F3",
          "midi": 53,
          "time": 85.66658099999945,
          "velocity": 0.7874015748031497,
          "duration": 0.3333329999999961
        },
        {
          "name": "C4",
          "midi": 60,
          "time": 85.66658099999945,
          "velocity": 0.7874015748031497,
          "duration": 0.3333329999999961
        },
        {
          "name": "C4",
          "midi": 60,
          "time": 85.99991399999945,
          "velocity": 0.7874015748031497,
          "duration": 0.3333329999999961
        },
        {
          "name": "F3",
          "midi": 53,
          "time": 85.99991399999945,
          "velocity": 0.7874015748031497,
          "duration": 0.3333329999999961
        },
        {
          "name": "A3",
          "midi": 57,
          "time": 85.99991399999945,
          "velocity": 0.7874015748031497,
          "duration": 0.3333329999999961
        },
        {
          "name": "C4",
          "midi": 60,
          "time": 86.33324699999945,
          "velocity": 0.7874015748031497,
          "duration": 0.16666650000000516
        },
        {
          "name": "A3",
          "midi": 57,
          "time": 86.33324699999945,
          "velocity": 0.7874015748031497,
          "duration": 0.16666650000000516
        },
        {
          "name": "F3",
          "midi": 53,
          "time": 86.33324699999945,
          "velocity": 0.7874015748031497,
          "duration": 0.16666650000000516
        },
        {
          "name": "F3",
          "midi": 53,
          "time": 86.49991349999945,
          "velocity": 0.7874015748031497,
          "duration": 0.16666650000000516
        },
        {
          "name": "A3",
          "midi": 57,
          "time": 86.49991349999945,
          "velocity": 0.7874015748031497,
          "duration": 0.16666650000000516
        },
        {
          "name": "C4",
          "midi": 60,
          "time": 86.49991349999945,
          "velocity": 0.7874015748031497,
          "duration": 0.16666650000000516
        },
        {
          "name": "D3",
          "midi": 50,
          "time": 86.66657999999946,
          "velocity": 0.7874015748031497,
          "duration": 0.3333329999999961
        },
        {
          "name": "A#2",
          "midi": 46,
          "time": 86.66657999999946,
          "velocity": 0.7874015748031497,
          "duration": 0.3333329999999961
        },
        {
          "name": "G2",
          "midi": 43,
          "time": 86.66657999999946,
          "velocity": 0.7874015748031497,
          "duration": 0.3333329999999961
        },
        {
          "name": "A#2",
          "midi": 46,
          "time": 86.99991299999945,
          "velocity": 0.7874015748031497,
          "duration": 0.3333329999999961
        },
        {
          "name": "G2",
          "midi": 43,
          "time": 86.99991299999945,
          "velocity": 0.7874015748031497,
          "duration": 0.3333329999999961
        },
        {
          "name": "D3",
          "midi": 50,
          "time": 86.99991299999945,
          "velocity": 0.7874015748031497,
          "duration": 0.3333329999999961
        },
        {
          "name": "A#2",
          "midi": 46,
          "time": 87.33324599999945,
          "velocity": 0.7874015748031497,
          "duration": 0.3333329999999961
        },
        {
          "name": "G2",
          "midi": 43,
          "time": 87.33324599999945,
          "velocity": 0.7874015748031497,
          "duration": 0.3333329999999961
        },
        {
          "name": "D3",
          "midi": 50,
          "time": 87.33324599999945,
          "velocity": 0.7874015748031497,
          "duration": 0.3333329999999961
        },
        {
          "name": "G2",
          "midi": 43,
          "time": 87.66657899999944,
          "velocity": 0.7874015748031497,
          "duration": 0.16666650000000516
        },
        {
          "name": "A#2",
          "midi": 46,
          "time": 87.66657899999944,
          "velocity": 0.7874015748031497,
          "duration": 0.16666650000000516
        },
        {
          "name": "D3",
          "midi": 50,
          "time": 87.66657899999944,
          "velocity": 0.7874015748031497,
          "duration": 0.16666650000000516
        },
        {
          "name": "D3",
          "midi": 50,
          "time": 87.83324549999945,
          "velocity": 0.7874015748031497,
          "duration": 0.16666650000000516
        },
        {
          "name": "A#2",
          "midi": 46,
          "time": 87.83324549999945,
          "velocity": 0.7874015748031497,
          "duration": 0.16666650000000516
        },
        {
          "name": "G2",
          "midi": 43,
          "time": 87.83324549999945,
          "velocity": 0.7874015748031497,
          "duration": 0.16666650000000516
        },
        {
          "name": "D3",
          "midi": 50,
          "time": 87.99991199999945,
          "velocity": 0.7874015748031497,
          "duration": 0.3333329999999961
        },
        {
          "name": "F3",
          "midi": 53,
          "time": 87.99991199999945,
          "velocity": 0.7874015748031497,
          "duration": 0.3333329999999961
        },
        {
          "name": "A3",
          "midi": 57,
          "time": 87.99991199999945,
          "velocity": 0.7874015748031497,
          "duration": 0.3333329999999961
        },
        {
          "name": "F3",
          "midi": 53,
          "time": 88.33324499999945,
          "velocity": 0.7874015748031497,
          "duration": 0.3333329999999961
        },
        {
          "name": "D3",
          "midi": 50,
          "time": 88.33324499999945,
          "velocity": 0.7874015748031497,
          "duration": 0.3333329999999961
        },
        {
          "name": "A3",
          "midi": 57,
          "time": 88.33324499999945,
          "velocity": 0.7874015748031497,
          "duration": 0.3333329999999961
        },
        {
          "name": "A3",
          "midi": 57,
          "time": 88.66657799999945,
          "velocity": 0.7874015748031497,
          "duration": 0.3333329999999961
        },
        {
          "name": "D3",
          "midi": 50,
          "time": 88.66657799999945,
          "velocity": 0.7874015748031497,
          "duration": 0.3333329999999961
        },
        {
          "name": "F3",
          "midi": 53,
          "time": 88.66657799999945,
          "velocity": 0.7874015748031497,
          "duration": 0.3333329999999961
        },
        {
          "name": "D3",
          "midi": 50,
          "time": 88.99991099999944,
          "velocity": 0.7874015748031497,
          "duration": 0.16666650000000516
        },
        {
          "name": "F3",
          "midi": 53,
          "time": 88.99991099999944,
          "velocity": 0.7874015748031497,
          "duration": 0.16666650000000516
        },
        {
          "name": "A3",
          "midi": 57,
          "time": 88.99991099999944,
          "velocity": 0.7874015748031497,
          "duration": 0.16666650000000516
        },
        {
          "name": "A3",
          "midi": 57,
          "time": 89.16657749999945,
          "velocity": 0.7874015748031497,
          "duration": 0.16666650000000516
        },
        {
          "name": "F3",
          "midi": 53,
          "time": 89.16657749999945,
          "velocity": 0.7874015748031497,
          "duration": 0.16666650000000516
        },
        {
          "name": "D3",
          "midi": 50,
          "time": 89.16657749999945,
          "velocity": 0.7874015748031497,
          "duration": 0.16666650000000516
        },
        {
          "name": "A#3",
          "midi": 58,
          "time": 89.33324399999945,
          "velocity": 0.7874015748031497,
          "duration": 0.3333329999999961
        },
        {
          "name": "G3",
          "midi": 55,
          "time": 89.33324399999945,
          "velocity": 0.7874015748031497,
          "duration": 0.3333329999999961
        },
        {
          "name": "D#3",
          "midi": 51,
          "time": 89.33324399999945,
          "velocity": 0.7874015748031497,
          "duration": 0.3333329999999961
        },
        {
          "name": "G3",
          "midi": 55,
          "time": 89.66657699999945,
          "velocity": 0.7874015748031497,
          "duration": 0.3333329999999961
        },
        {
          "name": "D#3",
          "midi": 51,
          "time": 89.66657699999945,
          "velocity": 0.7874015748031497,
          "duration": 0.3333329999999961
        },
        {
          "name": "A#3",
          "midi": 58,
          "time": 89.66657699999945,
          "velocity": 0.7874015748031497,
          "duration": 0.3333329999999961
        },
        {
          "name": "A#3",
          "midi": 58,
          "time": 89.99990999999945,
          "velocity": 0.7874015748031497,
          "duration": 0.3333329999999961
        },
        {
          "name": "D#3",
          "midi": 51,
          "time": 89.99990999999945,
          "velocity": 0.7874015748031497,
          "duration": 0.3333329999999961
        },
        {
          "name": "G3",
          "midi": 55,
          "time": 89.99990999999945,
          "velocity": 0.7874015748031497,
          "duration": 0.3333329999999961
        },
        {
          "name": "A#3",
          "midi": 58,
          "time": 90.33324299999944,
          "velocity": 0.7874015748031497,
          "duration": 0.16666650000000516
        },
        {
          "name": "G3",
          "midi": 55,
          "time": 90.33324299999944,
          "velocity": 0.7874015748031497,
          "duration": 0.16666650000000516
        },
        {
          "name": "D#3",
          "midi": 51,
          "time": 90.33324299999944,
          "velocity": 0.7874015748031497,
          "duration": 0.16666650000000516
        },
        {
          "name": "A#3",
          "midi": 58,
          "time": 90.49990949999945,
          "velocity": 0.7874015748031497,
          "duration": 0.16666650000000516
        },
        {
          "name": "G3",
          "midi": 55,
          "time": 90.49990949999945,
          "velocity": 0.7874015748031497,
          "duration": 0.16666650000000516
        },
        {
          "name": "D#3",
          "midi": 51,
          "time": 90.49990949999945,
          "velocity": 0.7874015748031497,
          "duration": 0.16666650000000516
        },
        {
          "name": "F3",
          "midi": 53,
          "time": 90.66657599999945,
          "velocity": 0.7874015748031497,
          "duration": 0.3333329999999961
        },
        {
          "name": "A3",
          "midi": 57,
          "time": 90.66657599999945,
          "velocity": 0.7874015748031497,
          "duration": 0.3333329999999961
        },
        {
          "name": "C4",
          "midi": 60,
          "time": 90.66657599999945,
          "velocity": 0.7874015748031497,
          "duration": 0.3333329999999961
        },
        {
          "name": "C4",
          "midi": 60,
          "time": 90.99990899999945,
          "velocity": 0.7874015748031497,
          "duration": 0.3333329999999961
        },
        {
          "name": "F3",
          "midi": 53,
          "time": 90.99990899999945,
          "velocity": 0.7874015748031497,
          "duration": 0.3333329999999961
        },
        {
          "name": "A3",
          "midi": 57,
          "time": 90.99990899999945,
          "velocity": 0.7874015748031497,
          "duration": 0.3333329999999961
        },
        {
          "name": "C4",
          "midi": 60,
          "time": 91.33324199999944,
          "velocity": 0.7874015748031497,
          "duration": 0.3333329999999961
        },
        {
          "name": "F3",
          "midi": 53,
          "time": 91.33324199999944,
          "velocity": 0.7874015748031497,
          "duration": 0.3333329999999961
        },
        {
          "name": "A3",
          "midi": 57,
          "time": 91.33324199999944,
          "velocity": 0.7874015748031497,
          "duration": 0.3333329999999961
        },
        {
          "name": "C4",
          "midi": 60,
          "time": 91.66657499999944,
          "velocity": 0.7874015748031497,
          "duration": 0.16666650000000516
        },
        {
          "name": "A3",
          "midi": 57,
          "time": 91.66657499999944,
          "velocity": 0.7874015748031497,
          "duration": 0.16666650000000516
        },
        {
          "name": "F3",
          "midi": 53,
          "time": 91.66657499999944,
          "velocity": 0.7874015748031497,
          "duration": 0.16666650000000516
        },
        {
          "name": "C4",
          "midi": 60,
          "time": 91.83324149999945,
          "velocity": 0.7874015748031497,
          "duration": 0.16666650000000516
        },
        {
          "name": "A3",
          "midi": 57,
          "time": 91.83324149999945,
          "velocity": 0.7874015748031497,
          "duration": 0.16666650000000516
        },
        {
          "name": "F3",
          "midi": 53,
          "time": 91.83324149999945,
          "velocity": 0.7874015748031497,
          "duration": 0.16666650000000516
        },
        {
          "name": "F3",
          "midi": 53,
          "time": 91.99990799999945,
          "velocity": 0.7874015748031497,
          "duration": 0.3333329999999961
        },
        {
          "name": "D3",
          "midi": 50,
          "time": 91.99990799999945,
          "velocity": 0.7874015748031497,
          "duration": 0.3333329999999961
        },
        {
          "name": "A#2",
          "midi": 46,
          "time": 91.99990799999945,
          "velocity": 0.7874015748031497,
          "duration": 0.3333329999999961
        },
        {
          "name": "D3",
          "midi": 50,
          "time": 92.33324099999945,
          "velocity": 0.7874015748031497,
          "duration": 0.3333329999999961
        },
        {
          "name": "A#2",
          "midi": 46,
          "time": 92.33324099999945,
          "velocity": 0.7874015748031497,
          "duration": 0.3333329999999961
        },
        {
          "name": "F3",
          "midi": 53,
          "time": 92.33324099999945,
          "velocity": 0.7874015748031497,
          "duration": 0.3333329999999961
        },
        {
          "name": "D3",
          "midi": 50,
          "time": 92.66657399999944,
          "velocity": 0.7874015748031497,
          "duration": 0.3333329999999961
        },
        {
          "name": "A#2",
          "midi": 46,
          "time": 92.66657399999944,
          "velocity": 0.7874015748031497,
          "duration": 0.3333329999999961
        },
        {
          "name": "F3",
          "midi": 53,
          "time": 92.66657399999944,
          "velocity": 0.7874015748031497,
          "duration": 0.3333329999999961
        },
        {
          "name": "A#2",
          "midi": 46,
          "time": 92.99990699999944,
          "velocity": 0.7874015748031497,
          "duration": 0.16666650000000516
        },
        {
          "name": "D3",
          "midi": 50,
          "time": 92.99990699999944,
          "velocity": 0.7874015748031497,
          "duration": 0.16666650000000516
        },
        {
          "name": "F3",
          "midi": 53,
          "time": 92.99990699999944,
          "velocity": 0.7874015748031497,
          "duration": 0.16666650000000516
        },
        {
          "name": "F3",
          "midi": 53,
          "time": 93.16657349999944,
          "velocity": 0.7874015748031497,
          "duration": 0.16666650000000516
        },
        {
          "name": "D3",
          "midi": 50,
          "time": 93.16657349999944,
          "velocity": 0.7874015748031497,
          "duration": 0.16666650000000516
        },
        {
          "name": "A#2",
          "midi": 46,
          "time": 93.16657349999944,
          "velocity": 0.7874015748031497,
          "duration": 0.16666650000000516
        },
        {
          "name": "A#2",
          "midi": 46,
          "time": 93.33323999999945,
          "velocity": 0.7874015748031497,
          "duration": 0.3333329999999961
        },
        {
          "name": "D3",
          "midi": 50,
          "time": 93.33323999999945,
          "velocity": 0.7874015748031497,
          "duration": 0.3333329999999961
        },
        {
          "name": "F3",
          "midi": 53,
          "time": 93.33323999999945,
          "velocity": 0.7874015748031497,
          "duration": 0.3333329999999961
        },
        {
          "name": "F3",
          "midi": 53,
          "time": 93.66657299999945,
          "velocity": 0.7874015748031497,
          "duration": 0.3333329999999961
        },
        {
          "name": "A#2",
          "midi": 46,
          "time": 93.66657299999945,
          "velocity": 0.7874015748031497,
          "duration": 0.3333329999999961
        },
        {
          "name": "D3",
          "midi": 50,
          "time": 93.66657299999945,
          "velocity": 0.7874015748031497,
          "duration": 0.3333329999999961
        },
        {
          "name": "D3",
          "midi": 50,
          "time": 93.99990599999944,
          "velocity": 0.7874015748031497,
          "duration": 0.3333329999999961
        },
        {
          "name": "A#2",
          "midi": 46,
          "time": 93.99990599999944,
          "velocity": 0.7874015748031497,
          "duration": 0.3333329999999961
        },
        {
          "name": "F3",
          "midi": 53,
          "time": 93.99990599999944,
          "velocity": 0.7874015748031497,
          "duration": 0.3333329999999961
        },
        {
          "name": "F3",
          "midi": 53,
          "time": 94.33323899999944,
          "velocity": 0.7874015748031497,
          "duration": 0.16666650000000516
        },
        {
          "name": "D3",
          "midi": 50,
          "time": 94.33323899999944,
          "velocity": 0.7874015748031497,
          "duration": 0.16666650000000516
        },
        {
          "name": "A#2",
          "midi": 46,
          "time": 94.33323899999944,
          "velocity": 0.7874015748031497,
          "duration": 0.16666650000000516
        },
        {
          "name": "F3",
          "midi": 53,
          "time": 94.49990549999944,
          "velocity": 0.7874015748031497,
          "duration": 0.16666650000000516
        },
        {
          "name": "D3",
          "midi": 50,
          "time": 94.49990549999944,
          "velocity": 0.7874015748031497,
          "duration": 0.16666650000000516
        },
        {
          "name": "A#2",
          "midi": 46,
          "time": 94.49990549999944,
          "velocity": 0.7874015748031497,
          "duration": 0.16666650000000516
        },
        {
          "name": "G2",
          "midi": 43,
          "time": 94.66657199999945,
          "velocity": 0.7874015748031497,
          "duration": 0.3333329999999961
        },
        {
          "name": "A#2",
          "midi": 46,
          "time": 94.66657199999945,
          "velocity": 0.7874015748031497,
          "duration": 0.3333329999999961
        },
        {
          "name": "D3",
          "midi": 50,
          "time": 94.66657199999945,
          "velocity": 0.7874015748031497,
          "duration": 0.3333329999999961
        },
        {
          "name": "A#2",
          "midi": 46,
          "time": 94.99990499999944,
          "velocity": 0.7874015748031497,
          "duration": 0.3333329999999961
        },
        {
          "name": "G2",
          "midi": 43,
          "time": 94.99990499999944,
          "velocity": 0.7874015748031497,
          "duration": 0.3333329999999961
        },
        {
          "name": "D3",
          "midi": 50,
          "time": 94.99990499999944,
          "velocity": 0.7874015748031497,
          "duration": 0.3333329999999961
        },
        {
          "name": "D3",
          "midi": 50,
          "time": 95.33323799999944,
          "velocity": 0.7874015748031497,
          "duration": 0.3333329999999961
        },
        {
          "name": "G2",
          "midi": 43,
          "time": 95.33323799999944,
          "velocity": 0.7874015748031497,
          "duration": 0.3333329999999961
        },
        {
          "name": "A#2",
          "midi": 46,
          "time": 95.33323799999944,
          "velocity": 0.7874015748031497,
          "duration": 0.3333329999999961
        },
        {
          "name": "G2",
          "midi": 43,
          "time": 95.66657099999944,
          "velocity": 0.7874015748031497,
          "duration": 0.16666650000000516
        },
        {
          "name": "A#2",
          "midi": 46,
          "time": 95.66657099999944,
          "velocity": 0.7874015748031497,
          "duration": 0.16666650000000516
        },
        {
          "name": "D3",
          "midi": 50,
          "time": 95.66657099999944,
          "velocity": 0.7874015748031497,
          "duration": 0.16666650000000516
        },
        {
          "name": "G2",
          "midi": 43,
          "time": 95.83323749999944,
          "velocity": 0.7874015748031497,
          "duration": 0.16666650000000516
        },
        {
          "name": "A#2",
          "midi": 46,
          "time": 95.83323749999944,
          "velocity": 0.7874015748031497,
          "duration": 0.16666650000000516
        },
        {
          "name": "D3",
          "midi": 50,
          "time": 95.83323749999944,
          "velocity": 0.7874015748031497,
          "duration": 0.16666650000000516
        },
        {
          "name": "A#3",
          "midi": 58,
          "time": 95.99990399999945,
          "velocity": 0.7874015748031497,
          "duration": 0.3333329999999961
        },
        {
          "name": "G3",
          "midi": 55,
          "time": 95.99990399999945,
          "velocity": 0.7874015748031497,
          "duration": 0.3333329999999961
        },
        {
          "name": "D#3",
          "midi": 51,
          "time": 95.99990399999945,
          "velocity": 0.7874015748031497,
          "duration": 0.3333329999999961
        },
        {
          "name": "G3",
          "midi": 55,
          "time": 96.33323699999944,
          "velocity": 0.7874015748031497,
          "duration": 0.3333329999999961
        },
        {
          "name": "D#3",
          "midi": 51,
          "time": 96.33323699999944,
          "velocity": 0.7874015748031497,
          "duration": 0.3333329999999961
        },
        {
          "name": "A#3",
          "midi": 58,
          "time": 96.33323699999944,
          "velocity": 0.7874015748031497,
          "duration": 0.3333329999999961
        },
        {
          "name": "G3",
          "midi": 55,
          "time": 96.66656999999944,
          "velocity": 0.7874015748031497,
          "duration": 0.3333329999999961
        },
        {
          "name": "D#3",
          "midi": 51,
          "time": 96.66656999999944,
          "velocity": 0.7874015748031497,
          "duration": 0.3333329999999961
        },
        {
          "name": "A#3",
          "midi": 58,
          "time": 96.66656999999944,
          "velocity": 0.7874015748031497,
          "duration": 0.3333329999999961
        },
        {
          "name": "A#3",
          "midi": 58,
          "time": 96.99990299999943,
          "velocity": 0.7874015748031497,
          "duration": 0.16666650000000516
        },
        {
          "name": "G3",
          "midi": 55,
          "time": 96.99990299999943,
          "velocity": 0.7874015748031497,
          "duration": 0.16666650000000516
        },
        {
          "name": "D#3",
          "midi": 51,
          "time": 96.99990299999943,
          "velocity": 0.7874015748031497,
          "duration": 0.16666650000000516
        },
        {
          "name": "D#3",
          "midi": 51,
          "time": 97.16656949999944,
          "velocity": 0.7874015748031497,
          "duration": 0.16666650000000516
        },
        {
          "name": "G3",
          "midi": 55,
          "time": 97.16656949999944,
          "velocity": 0.7874015748031497,
          "duration": 0.16666650000000516
        },
        {
          "name": "A#3",
          "midi": 58,
          "time": 97.16656949999944,
          "velocity": 0.7874015748031497,
          "duration": 0.16666650000000516
        },
        {
          "name": "C4",
          "midi": 60,
          "time": 97.33323599999945,
          "velocity": 0.7874015748031497,
          "duration": 0.3333329999999961
        },
        {
          "name": "A3",
          "midi": 57,
          "time": 97.33323599999945,
          "velocity": 0.7874015748031497,
          "duration": 0.3333329999999961
        },
        {
          "name": "F3",
          "midi": 53,
          "time": 97.33323599999945,
          "velocity": 0.7874015748031497,
          "duration": 0.3333329999999961
        },
        {
          "name": "C4",
          "midi": 60,
          "time": 97.66656899999944,
          "velocity": 0.7874015748031497,
          "duration": 0.3333329999999961
        },
        {
          "name": "F3",
          "midi": 53,
          "time": 97.66656899999944,
          "velocity": 0.7874015748031497,
          "duration": 0.3333329999999961
        },
        {
          "name": "A3",
          "midi": 57,
          "time": 97.66656899999944,
          "velocity": 0.7874015748031497,
          "duration": 0.3333329999999961
        },
        {
          "name": "A3",
          "midi": 57,
          "time": 97.99990199999944,
          "velocity": 0.7874015748031497,
          "duration": 0.3333329999999961
        },
        {
          "name": "F#3",
          "midi": 54,
          "time": 97.99990199999944,
          "velocity": 0.7874015748031497,
          "duration": 0.3333329999999961
        },
        {
          "name": "C4",
          "midi": 60,
          "time": 97.99990199999944,
          "velocity": 0.7874015748031497,
          "duration": 0.3333329999999961
        },
        {
          "name": "C4",
          "midi": 60,
          "time": 98.33323499999943,
          "velocity": 0.7874015748031497,
          "duration": 0.16666650000000516
        },
        {
          "name": "A3",
          "midi": 57,
          "time": 98.33323499999943,
          "velocity": 0.7874015748031497,
          "duration": 0.16666650000000516
        },
        {
          "name": "F#3",
          "midi": 54,
          "time": 98.33323499999943,
          "velocity": 0.7874015748031497,
          "duration": 0.16666650000000516
        },
        {
          "name": "F#3",
          "midi": 54,
          "time": 98.49990149999944,
          "velocity": 0.7874015748031497,
          "duration": 0.16666650000000516
        },
        {
          "name": "A3",
          "midi": 57,
          "time": 98.49990149999944,
          "velocity": 0.7874015748031497,
          "duration": 0.16666650000000516
        },
        {
          "name": "C4",
          "midi": 60,
          "time": 98.49990149999944,
          "velocity": 0.7874015748031497,
          "duration": 0.16666650000000516
        },
        {
          "name": "D3",
          "midi": 50,
          "time": 98.66656799999944,
          "velocity": 0.7874015748031497,
          "duration": 0.3333329999999961
        },
        {
          "name": "A#2",
          "midi": 46,
          "time": 98.66656799999944,
          "velocity": 0.7874015748031497,
          "duration": 0.3333329999999961
        },
        {
          "name": "G2",
          "midi": 43,
          "time": 98.66656799999944,
          "velocity": 0.7874015748031497,
          "duration": 0.3333329999999961
        },
        {
          "name": "D3",
          "midi": 50,
          "time": 98.99990099999944,
          "velocity": 0.7874015748031497,
          "duration": 0.3333329999999961
        },
        {
          "name": "G2",
          "midi": 43,
          "time": 98.99990099999944,
          "velocity": 0.7874015748031497,
          "duration": 0.3333329999999961
        },
        {
          "name": "A#2",
          "midi": 46,
          "time": 98.99990099999944,
          "velocity": 0.7874015748031497,
          "duration": 0.3333329999999961
        },
        {
          "name": "D3",
          "midi": 50,
          "time": 99.33323399999944,
          "velocity": 0.7874015748031497,
          "duration": 0.3333329999999961
        },
        {
          "name": "G2",
          "midi": 43,
          "time": 99.33323399999944,
          "velocity": 0.7874015748031497,
          "duration": 0.3333329999999961
        },
        {
          "name": "A#2",
          "midi": 46,
          "time": 99.33323399999944,
          "velocity": 0.7874015748031497,
          "duration": 0.3333329999999961
        },
        {
          "name": "G2",
          "midi": 43,
          "time": 99.66656699999943,
          "velocity": 0.7874015748031497,
          "duration": 0.16666650000000516
        },
        {
          "name": "A#2",
          "midi": 46,
          "time": 99.66656699999943,
          "velocity": 0.7874015748031497,
          "duration": 0.16666650000000516
        },
        {
          "name": "D3",
          "midi": 50,
          "time": 99.66656699999943,
          "velocity": 0.7874015748031497,
          "duration": 0.16666650000000516
        },
        {
          "name": "D3",
          "midi": 50,
          "time": 99.83323349999944,
          "velocity": 0.7874015748031497,
          "duration": 0.16666650000000516
        },
        {
          "name": "A#2",
          "midi": 46,
          "time": 99.83323349999944,
          "velocity": 0.7874015748031497,
          "duration": 0.16666650000000516
        },
        {
          "name": "G2",
          "midi": 43,
          "time": 99.83323349999944,
          "velocity": 0.7874015748031497,
          "duration": 0.16666650000000516
        },
        {
          "name": "A#3",
          "midi": 58,
          "time": 99.99989999999944,
          "velocity": 0.7874015748031497,
          "duration": 0.3333329999999961
        },
        {
          "name": "G3",
          "midi": 55,
          "time": 99.99989999999944,
          "velocity": 0.7874015748031497,
          "duration": 0.3333329999999961
        },
        {
          "name": "D#3",
          "midi": 51,
          "time": 99.99989999999944,
          "velocity": 0.7874015748031497,
          "duration": 0.3333329999999961
        },
        {
          "name": "A#3",
          "midi": 58,
          "time": 100.33323299999944,
          "velocity": 0.7874015748031497,
          "duration": 0.3333329999999961
        },
        {
          "name": "D#3",
          "midi": 51,
          "time": 100.33323299999944,
          "velocity": 0.7874015748031497,
          "duration": 0.3333329999999961
        },
        {
          "name": "G3",
          "midi": 55,
          "time": 100.33323299999944,
          "velocity": 0.7874015748031497,
          "duration": 0.3333329999999961
        },
        {
          "name": "G3",
          "midi": 55,
          "time": 100.66656599999943,
          "velocity": 0.7874015748031497,
          "duration": 0.3333329999999961
        },
        {
          "name": "D#3",
          "midi": 51,
          "time": 100.66656599999943,
          "velocity": 0.7874015748031497,
          "duration": 0.3333329999999961
        },
        {
          "name": "A#3",
          "midi": 58,
          "time": 100.66656599999943,
          "velocity": 0.7874015748031497,
          "duration": 0.3333329999999961
        },
        {
          "name": "D#3",
          "midi": 51,
          "time": 100.99989899999943,
          "velocity": 0.7874015748031497,
          "duration": 0.16666650000000516
        },
        {
          "name": "G3",
          "midi": 55,
          "time": 100.99989899999943,
          "velocity": 0.7874015748031497,
          "duration": 0.16666650000000516
        },
        {
          "name": "A#3",
          "midi": 58,
          "time": 100.99989899999943,
          "velocity": 0.7874015748031497,
          "duration": 0.16666650000000516
        },
        {
          "name": "D#3",
          "midi": 51,
          "time": 101.16656549999944,
          "velocity": 0.7874015748031497,
          "duration": 0.16666650000000516
        },
        {
          "name": "G3",
          "midi": 55,
          "time": 101.16656549999944,
          "velocity": 0.7874015748031497,
          "duration": 0.16666650000000516
        },
        {
          "name": "A#3",
          "midi": 58,
          "time": 101.16656549999944,
          "velocity": 0.7874015748031497,
          "duration": 0.16666650000000516
        },
        {
          "name": "A#3",
          "midi": 58,
          "time": 101.33323199999944,
          "velocity": 0.7874015748031497,
          "duration": 0.3333329999999961
        },
        {
          "name": "G3",
          "midi": 55,
          "time": 101.33323199999944,
          "velocity": 0.7874015748031497,
          "duration": 0.3333329999999961
        },
        {
          "name": "E3",
          "midi": 52,
          "time": 101.33323199999944,
          "velocity": 0.7874015748031497,
          "duration": 0.3333329999999961
        },
        {
          "name": "A#3",
          "midi": 58,
          "time": 101.66656499999944,
          "velocity": 0.7874015748031497,
          "duration": 0.3333329999999961
        },
        {
          "name": "E3",
          "midi": 52,
          "time": 101.66656499999944,
          "velocity": 0.7874015748031497,
          "duration": 0.3333329999999961
        },
        {
          "name": "G3",
          "midi": 55,
          "time": 101.66656499999944,
          "velocity": 0.7874015748031497,
          "duration": 0.3333329999999961
        },
        {
          "name": "A#3",
          "midi": 58,
          "time": 101.99989799999943,
          "velocity": 0.7874015748031497,
          "duration": 0.3333329999999961
        },
        {
          "name": "E3",
          "midi": 52,
          "time": 101.99989799999943,
          "velocity": 0.7874015748031497,
          "duration": 0.3333329999999961
        },
        {
          "name": "G3",
          "midi": 55,
          "time": 101.99989799999943,
          "velocity": 0.7874015748031497,
          "duration": 0.3333329999999961
        },
        {
          "name": "E3",
          "midi": 52,
          "time": 102.33323099999943,
          "velocity": 0.7874015748031497,
          "duration": 0.16666650000000516
        },
        {
          "name": "G3",
          "midi": 55,
          "time": 102.33323099999943,
          "velocity": 0.7874015748031497,
          "duration": 0.16666650000000516
        },
        {
          "name": "A#3",
          "midi": 58,
          "time": 102.33323099999943,
          "velocity": 0.7874015748031497,
          "duration": 0.16666650000000516
        },
        {
          "name": "E3",
          "midi": 52,
          "time": 102.49989749999943,
          "velocity": 0.7874015748031497,
          "duration": 0.16666650000000516
        },
        {
          "name": "G3",
          "midi": 55,
          "time": 102.49989749999943,
          "velocity": 0.7874015748031497,
          "duration": 0.16666650000000516
        },
        {
          "name": "A#3",
          "midi": 58,
          "time": 102.49989749999943,
          "velocity": 0.7874015748031497,
          "duration": 0.16666650000000516
        },
        {
          "name": "C4",
          "midi": 60,
          "time": 102.66656399999944,
          "velocity": 0.7874015748031497,
          "duration": 0.3333329999999961
        },
        {
          "name": "A3",
          "midi": 57,
          "time": 102.66656399999944,
          "velocity": 0.7874015748031497,
          "duration": 0.3333329999999961
        },
        {
          "name": "F3",
          "midi": 53,
          "time": 102.66656399999944,
          "velocity": 0.7874015748031497,
          "duration": 0.3333329999999961
        },
        {
          "name": "A3",
          "midi": 57,
          "time": 102.99989699999944,
          "velocity": 0.7874015748031497,
          "duration": 0.3333329999999961
        },
        {
          "name": "F3",
          "midi": 53,
          "time": 102.99989699999944,
          "velocity": 0.7874015748031497,
          "duration": 0.3333329999999961
        },
        {
          "name": "C4",
          "midi": 60,
          "time": 102.99989699999944,
          "velocity": 0.7874015748031497,
          "duration": 0.3333329999999961
        },
        {
          "name": "C4",
          "midi": 60,
          "time": 103.33322999999943,
          "velocity": 0.7874015748031497,
          "duration": 0.3333329999999961
        },
        {
          "name": "F3",
          "midi": 53,
          "time": 103.33322999999943,
          "velocity": 0.7874015748031497,
          "duration": 0.3333329999999961
        },
        {
          "name": "A3",
          "midi": 57,
          "time": 103.33322999999943,
          "velocity": 0.7874015748031497,
          "duration": 0.3333329999999961
        },
        {
          "name": "C4",
          "midi": 60,
          "time": 103.66656299999943,
          "velocity": 0.7874015748031497,
          "duration": 0.16666650000000516
        },
        {
          "name": "A3",
          "midi": 57,
          "time": 103.66656299999943,
          "velocity": 0.7874015748031497,
          "duration": 0.16666650000000516
        },
        {
          "name": "F3",
          "midi": 53,
          "time": 103.66656299999943,
          "velocity": 0.7874015748031497,
          "duration": 0.16666650000000516
        },
        {
          "name": "C4",
          "midi": 60,
          "time": 103.83322949999943,
          "velocity": 0.7874015748031497,
          "duration": 0.16666650000000516
        },
        {
          "name": "A3",
          "midi": 57,
          "time": 103.83322949999943,
          "velocity": 0.7874015748031497,
          "duration": 0.16666650000000516
        },
        {
          "name": "F3",
          "midi": 53,
          "time": 103.83322949999943,
          "velocity": 0.7874015748031497,
          "duration": 0.16666650000000516
        },
        {
          "name": "F3",
          "midi": 53,
          "time": 103.99989599999944,
          "velocity": 0.7874015748031497,
          "duration": 0.3333329999999961
        },
        {
          "name": "A3",
          "midi": 57,
          "time": 103.99989599999944,
          "velocity": 0.7874015748031497,
          "duration": 0.3333329999999961
        },
        {
          "name": "C4",
          "midi": 60,
          "time": 103.99989599999944,
          "velocity": 0.7874015748031497,
          "duration": 0.3333329999999961
        },
        {
          "name": "C4",
          "midi": 60,
          "time": 104.33322899999943,
          "velocity": 0.7874015748031497,
          "duration": 0.3333329999999961
        },
        {
          "name": "F3",
          "midi": 53,
          "time": 104.33322899999943,
          "velocity": 0.7874015748031497,
          "duration": 0.3333329999999961
        },
        {
          "name": "A3",
          "midi": 57,
          "time": 104.33322899999943,
          "velocity": 0.7874015748031497,
          "duration": 0.3333329999999961
        },
        {
          "name": "A3",
          "midi": 57,
          "time": 104.66656199999943,
          "velocity": 0.7874015748031497,
          "duration": 0.16666650000000516
        },
        {
          "name": "F3",
          "midi": 53,
          "time": 104.66656199999943,
          "velocity": 0.7874015748031497,
          "duration": 0.16666650000000516
        },
        {
          "name": "C4",
          "midi": 60,
          "time": 104.66656199999943,
          "velocity": 0.7874015748031497,
          "duration": 0.16666650000000516
        },
        {
          "name": "A3",
          "midi": 57,
          "time": 104.83322849999944,
          "velocity": 0.7874015748031497,
          "duration": 0.16666650000000516
        },
        {
          "name": "F3",
          "midi": 53,
          "time": 104.83322849999944,
          "velocity": 0.7874015748031497,
          "duration": 0.16666650000000516
        },
        {
          "name": "C4",
          "midi": 60,
          "time": 104.83322849999944,
          "velocity": 0.7874015748031497,
          "duration": 0.16666650000000516
        },
        {
          "name": "F3",
          "midi": 53,
          "time": 104.99989499999944,
          "velocity": 0.7874015748031497,
          "duration": 0.16666650000000516
        },
        {
          "name": "A3",
          "midi": 57,
          "time": 104.99989499999944,
          "velocity": 0.7874015748031497,
          "duration": 0.16666650000000516
        },
        {
          "name": "C4",
          "midi": 60,
          "time": 104.99989499999944,
          "velocity": 0.7874015748031497,
          "duration": 0.16666650000000516
        },
        {
          "name": "C4",
          "midi": 60,
          "time": 105.16656149999945,
          "velocity": 0.7874015748031497,
          "duration": 0.16666650000000516
        },
        {
          "name": "A3",
          "midi": 57,
          "time": 105.16656149999945,
          "velocity": 0.7874015748031497,
          "duration": 0.16666650000000516
        },
        {
          "name": "F3",
          "midi": 53,
          "time": 105.16656149999945,
          "velocity": 0.7874015748031497,
          "duration": 0.16666650000000516
        },
        {
          "name": "A#2",
          "midi": 46,
          "time": 105.33322799999945,
          "velocity": 0.7874015748031497,
          "duration": 0.3333329999999961
        },
        {
          "name": "D3",
          "midi": 50,
          "time": 105.33322799999945,
          "velocity": 0.7874015748031497,
          "duration": 0.3333329999999961
        },
        {
          "name": "F3",
          "midi": 53,
          "time": 105.33322799999945,
          "velocity": 0.7874015748031497,
          "duration": 0.3333329999999961
        },
        {
          "name": "D3",
          "midi": 50,
          "time": 105.66656099999945,
          "velocity": 0.7874015748031497,
          "duration": 0.3333329999999961
        },
        {
          "name": "A#2",
          "midi": 46,
          "time": 105.66656099999945,
          "velocity": 0.7874015748031497,
          "duration": 0.3333329999999961
        },
        {
          "name": "F3",
          "midi": 53,
          "time": 105.66656099999945,
          "velocity": 0.7874015748031497,
          "duration": 0.3333329999999961
        },
        {
          "name": "F3",
          "midi": 53,
          "time": 105.99989399999944,
          "velocity": 0.7874015748031497,
          "duration": 0.3333329999999961
        },
        {
          "name": "A#2",
          "midi": 46,
          "time": 105.99989399999944,
          "velocity": 0.7874015748031497,
          "duration": 0.3333329999999961
        },
        {
          "name": "D3",
          "midi": 50,
          "time": 105.99989399999944,
          "velocity": 0.7874015748031497,
          "duration": 0.3333329999999961
        },
        {
          "name": "A#2",
          "midi": 46,
          "time": 106.33322699999944,
          "velocity": 0.7874015748031497,
          "duration": 0.16666650000000516
        },
        {
          "name": "D3",
          "midi": 50,
          "time": 106.33322699999944,
          "velocity": 0.7874015748031497,
          "duration": 0.16666650000000516
        },
        {
          "name": "F3",
          "midi": 53,
          "time": 106.33322699999944,
          "velocity": 0.7874015748031497,
          "duration": 0.16666650000000516
        },
        {
          "name": "F3",
          "midi": 53,
          "time": 106.49989349999944,
          "velocity": 0.7874015748031497,
          "duration": 0.16666650000000516
        },
        {
          "name": "D3",
          "midi": 50,
          "time": 106.49989349999944,
          "velocity": 0.7874015748031497,
          "duration": 0.16666650000000516
        },
        {
          "name": "A#2",
          "midi": 46,
          "time": 106.49989349999944,
          "velocity": 0.7874015748031497,
          "duration": 0.16666650000000516
        },
        {
          "name": "A#3",
          "midi": 58,
          "time": 106.66655999999945,
          "velocity": 0.7874015748031497,
          "duration": 0.3333329999999961
        },
        {
          "name": "G3",
          "midi": 55,
          "time": 106.66655999999945,
          "velocity": 0.7874015748031497,
          "duration": 0.3333329999999961
        },
        {
          "name": "D#3",
          "midi": 51,
          "time": 106.66655999999945,
          "velocity": 0.7874015748031497,
          "duration": 0.3333329999999961
        },
        {
          "name": "A#3",
          "midi": 58,
          "time": 106.99989299999945,
          "velocity": 0.7874015748031497,
          "duration": 0.3333329999999961
        },
        {
          "name": "D#3",
          "midi": 51,
          "time": 106.99989299999945,
          "velocity": 0.7874015748031497,
          "duration": 0.3333329999999961
        },
        {
          "name": "G3",
          "midi": 55,
          "time": 106.99989299999945,
          "velocity": 0.7874015748031497,
          "duration": 0.3333329999999961
        },
        {
          "name": "A#3",
          "midi": 58,
          "time": 107.33322599999944,
          "velocity": 0.7874015748031497,
          "duration": 0.3333329999999961
        },
        {
          "name": "D#3",
          "midi": 51,
          "time": 107.33322599999944,
          "velocity": 0.7874015748031497,
          "duration": 0.3333329999999961
        },
        {
          "name": "G3",
          "midi": 55,
          "time": 107.33322599999944,
          "velocity": 0.7874015748031497,
          "duration": 0.3333329999999961
        },
        {
          "name": "D#3",
          "midi": 51,
          "time": 107.66655899999944,
          "velocity": 0.7874015748031497,
          "duration": 0.16666650000000516
        },
        {
          "name": "G3",
          "midi": 55,
          "time": 107.66655899999944,
          "velocity": 0.7874015748031497,
          "duration": 0.16666650000000516
        },
        {
          "name": "A#3",
          "midi": 58,
          "time": 107.66655899999944,
          "velocity": 0.7874015748031497,
          "duration": 0.16666650000000516
        },
        {
          "name": "A#3",
          "midi": 58,
          "time": 107.83322549999944,
          "velocity": 0.7874015748031497,
          "duration": 0.16666650000000516
        },
        {
          "name": "G3",
          "midi": 55,
          "time": 107.83322549999944,
          "velocity": 0.7874015748031497,
          "duration": 0.16666650000000516
        },
        {
          "name": "D#3",
          "midi": 51,
          "time": 107.83322549999944,
          "velocity": 0.7874015748031497,
          "duration": 0.16666650000000516
        },
        {
          "name": "F3",
          "midi": 53,
          "time": 107.99989199999945,
          "velocity": 0.7874015748031497,
          "duration": 0.3333329999999961
        },
        {
          "name": "A3",
          "midi": 57,
          "time": 107.99989199999945,
          "velocity": 0.7874015748031497,
          "duration": 0.3333329999999961
        },
        {
          "name": "C4",
          "midi": 60,
          "time": 107.99989199999945,
          "velocity": 0.7874015748031497,
          "duration": 0.3333329999999961
        },
        {
          "name": "C4",
          "midi": 60,
          "time": 108.33322499999944,
          "velocity": 0.7874015748031497,
          "duration": 0.3333329999999961
        },
        {
          "name": "F3",
          "midi": 53,
          "time": 108.33322499999944,
          "velocity": 0.7874015748031497,
          "duration": 0.3333329999999961
        },
        {
          "name": "A3",
          "midi": 57,
          "time": 108.33322499999944,
          "velocity": 0.7874015748031497,
          "duration": 0.3333329999999961
        },
        {
          "name": "A3",
          "midi": 57,
          "time": 108.66655799999944,
          "velocity": 0.7874015748031497,
          "duration": 0.3333329999999961
        },
        {
          "name": "F3",
          "midi": 53,
          "time": 108.66655799999944,
          "velocity": 0.7874015748031497,
          "duration": 0.3333329999999961
        },
        {
          "name": "C4",
          "midi": 60,
          "time": 108.66655799999944,
          "velocity": 0.7874015748031497,
          "duration": 0.3333329999999961
        },
        {
          "name": "F3",
          "midi": 53,
          "time": 108.99989099999944,
          "velocity": 0.7874015748031497,
          "duration": 0.16666650000000516
        },
        {
          "name": "A3",
          "midi": 57,
          "time": 108.99989099999944,
          "velocity": 0.7874015748031497,
          "duration": 0.16666650000000516
        },
        {
          "name": "C4",
          "midi": 60,
          "time": 108.99989099999944,
          "velocity": 0.7874015748031497,
          "duration": 0.16666650000000516
        },
        {
          "name": "F3",
          "midi": 53,
          "time": 109.16655749999944,
          "velocity": 0.7874015748031497,
          "duration": 0.16666650000000516
        },
        {
          "name": "A3",
          "midi": 57,
          "time": 109.16655749999944,
          "velocity": 0.7874015748031497,
          "duration": 0.16666650000000516
        },
        {
          "name": "C4",
          "midi": 60,
          "time": 109.16655749999944,
          "velocity": 0.7874015748031497,
          "duration": 0.16666650000000516
        },
        {
          "name": "D3",
          "midi": 50,
          "time": 109.33322399999945,
          "velocity": 0.7874015748031497,
          "duration": 0.3333329999999961
        },
        {
          "name": "A#2",
          "midi": 46,
          "time": 109.33322399999945,
          "velocity": 0.7874015748031497,
          "duration": 0.3333329999999961
        },
        {
          "name": "G2",
          "midi": 43,
          "time": 109.33322399999945,
          "velocity": 0.7874015748031497,
          "duration": 0.3333329999999961
        },
        {
          "name": "D3",
          "midi": 50,
          "time": 109.66655699999944,
          "velocity": 0.7874015748031497,
          "duration": 0.3333329999999961
        },
        {
          "name": "G2",
          "midi": 43,
          "time": 109.66655699999944,
          "velocity": 0.7874015748031497,
          "duration": 0.3333329999999961
        },
        {
          "name": "A#2",
          "midi": 46,
          "time": 109.66655699999944,
          "velocity": 0.7874015748031497,
          "duration": 0.3333329999999961
        },
        {
          "name": "D3",
          "midi": 50,
          "time": 109.99988999999944,
          "velocity": 0.7874015748031497,
          "duration": 0.3333329999999961
        },
        {
          "name": "G2",
          "midi": 43,
          "time": 109.99988999999944,
          "velocity": 0.7874015748031497,
          "duration": 0.3333329999999961
        },
        {
          "name": "A#2",
          "midi": 46,
          "time": 109.99988999999944,
          "velocity": 0.7874015748031497,
          "duration": 0.3333329999999961
        },
        {
          "name": "G2",
          "midi": 43,
          "time": 110.33322299999944,
          "velocity": 0.7874015748031497,
          "duration": 0.16666650000000516
        },
        {
          "name": "A#2",
          "midi": 46,
          "time": 110.33322299999944,
          "velocity": 0.7874015748031497,
          "duration": 0.16666650000000516
        },
        {
          "name": "D3",
          "midi": 50,
          "time": 110.33322299999944,
          "velocity": 0.7874015748031497,
          "duration": 0.16666650000000516
        },
        {
          "name": "G2",
          "midi": 43,
          "time": 110.49988949999944,
          "velocity": 0.7874015748031497,
          "duration": 0.16666650000000516
        },
        {
          "name": "A#2",
          "midi": 46,
          "time": 110.49988949999944,
          "velocity": 0.7874015748031497,
          "duration": 0.16666650000000516
        },
        {
          "name": "D3",
          "midi": 50,
          "time": 110.49988949999944,
          "velocity": 0.7874015748031497,
          "duration": 0.16666650000000516
        },
        {
          "name": "D#3",
          "midi": 51,
          "time": 110.66655599999945,
          "velocity": 0.7874015748031497,
          "duration": 0.3333329999999961
        },
        {
          "name": "G3",
          "midi": 55,
          "time": 110.66655599999945,
          "velocity": 0.7874015748031497,
          "duration": 0.3333329999999961
        },
        {
          "name": "A#3",
          "midi": 58,
          "time": 110.66655599999945,
          "velocity": 0.7874015748031497,
          "duration": 0.3333329999999961
        },
        {
          "name": "G3",
          "midi": 55,
          "time": 110.99988899999944,
          "velocity": 0.7874015748031497,
          "duration": 0.3333329999999961
        },
        {
          "name": "D#3",
          "midi": 51,
          "time": 110.99988899999944,
          "velocity": 0.7874015748031497,
          "duration": 0.3333329999999961
        },
        {
          "name": "A#3",
          "midi": 58,
          "time": 110.99988899999944,
          "velocity": 0.7874015748031497,
          "duration": 0.3333329999999961
        },
        {
          "name": "G3",
          "midi": 55,
          "time": 111.33322199999944,
          "velocity": 0.7874015748031497,
          "duration": 0.3333329999999961
        },
        {
          "name": "D#3",
          "midi": 51,
          "time": 111.33322199999944,
          "velocity": 0.7874015748031497,
          "duration": 0.3333329999999961
        },
        {
          "name": "A#3",
          "midi": 58,
          "time": 111.33322199999944,
          "velocity": 0.7874015748031497,
          "duration": 0.3333329999999961
        },
        {
          "name": "D#3",
          "midi": 51,
          "time": 111.66655499999943,
          "velocity": 0.7874015748031497,
          "duration": 0.16666650000000516
        },
        {
          "name": "G3",
          "midi": 55,
          "time": 111.66655499999943,
          "velocity": 0.7874015748031497,
          "duration": 0.16666650000000516
        },
        {
          "name": "A#3",
          "midi": 58,
          "time": 111.66655499999943,
          "velocity": 0.7874015748031497,
          "duration": 0.16666650000000516
        },
        {
          "name": "A#3",
          "midi": 58,
          "time": 111.83322149999944,
          "velocity": 0.7874015748031497,
          "duration": 0.16666650000000516
        },
        {
          "name": "G3",
          "midi": 55,
          "time": 111.83322149999944,
          "velocity": 0.7874015748031497,
          "duration": 0.16666650000000516
        },
        {
          "name": "D#3",
          "midi": 51,
          "time": 111.83322149999944,
          "velocity": 0.7874015748031497,
          "duration": 0.16666650000000516
        },
        {
          "name": "A#2",
          "midi": 46,
          "time": 111.99988799999944,
          "velocity": 0.7874015748031497,
          "duration": 0.3333329999999961
        },
        {
          "name": "D3",
          "midi": 50,
          "time": 111.99988799999944,
          "velocity": 0.7874015748031497,
          "duration": 0.3333329999999961
        },
        {
          "name": "F3",
          "midi": 53,
          "time": 111.99988799999944,
          "velocity": 0.7874015748031497,
          "duration": 0.3333329999999961
        },
        {
          "name": "F3",
          "midi": 53,
          "time": 112.33322099999944,
          "velocity": 0.7874015748031497,
          "duration": 0.3333329999999961
        },
        {
          "name": "A#2",
          "midi": 46,
          "time": 112.33322099999944,
          "velocity": 0.7874015748031497,
          "duration": 0.3333329999999961
        },
        {
          "name": "D3",
          "midi": 50,
          "time": 112.33322099999944,
          "velocity": 0.7874015748031497,
          "duration": 0.3333329999999961
        },
        {
          "name": "F3",
          "midi": 53,
          "time": 112.66655399999944,
          "velocity": 0.7874015748031497,
          "duration": 0.3333329999999961
        },
        {
          "name": "A#2",
          "midi": 46,
          "time": 112.66655399999944,
          "velocity": 0.7874015748031497,
          "duration": 0.3333329999999961
        },
        {
          "name": "D3",
          "midi": 50,
          "time": 112.66655399999944,
          "velocity": 0.7874015748031497,
          "duration": 0.3333329999999961
        },
        {
          "name": "A#2",
          "midi": 46,
          "time": 112.99988699999943,
          "velocity": 0.7874015748031497,
          "duration": 0.16666650000000516
        },
        {
          "name": "D3",
          "midi": 50,
          "time": 112.99988699999943,
          "velocity": 0.7874015748031497,
          "duration": 0.16666650000000516
        },
        {
          "name": "F3",
          "midi": 53,
          "time": 112.99988699999943,
          "velocity": 0.7874015748031497,
          "duration": 0.16666650000000516
        },
        {
          "name": "F3",
          "midi": 53,
          "time": 113.16655349999944,
          "velocity": 0.7874015748031497,
          "duration": 0.16666650000000516
        },
        {
          "name": "D3",
          "midi": 50,
          "time": 113.16655349999944,
          "velocity": 0.7874015748031497,
          "duration": 0.16666650000000516
        },
        {
          "name": "A#2",
          "midi": 46,
          "time": 113.16655349999944,
          "velocity": 0.7874015748031497,
          "duration": 0.16666650000000516
        },
        {
          "name": "C3",
          "midi": 48,
          "time": 113.33321999999944,
          "velocity": 0.7874015748031497,
          "duration": 0.3333329999999961
        },
        {
          "name": "E3",
          "midi": 52,
          "time": 113.33321999999944,
          "velocity": 0.7874015748031497,
          "duration": 0.3333329999999961
        },
        {
          "name": "G3",
          "midi": 55,
          "time": 113.33321999999944,
          "velocity": 0.7874015748031497,
          "duration": 0.3333329999999961
        },
        {
          "name": "G3",
          "midi": 55,
          "time": 113.66655299999944,
          "velocity": 0.7874015748031497,
          "duration": 0.3333329999999961
        },
        {
          "name": "C3",
          "midi": 48,
          "time": 113.66655299999944,
          "velocity": 0.7874015748031497,
          "duration": 0.3333329999999961
        },
        {
          "name": "E3",
          "midi": 52,
          "time": 113.66655299999944,
          "velocity": 0.7874015748031497,
          "duration": 0.3333329999999961
        },
        {
          "name": "E3",
          "midi": 52,
          "time": 113.99988599999944,
          "velocity": 0.7874015748031497,
          "duration": 0.3333329999999961
        },
        {
          "name": "C3",
          "midi": 48,
          "time": 113.99988599999944,
          "velocity": 0.7874015748031497,
          "duration": 0.3333329999999961
        },
        {
          "name": "G3",
          "midi": 55,
          "time": 113.99988599999944,
          "velocity": 0.7874015748031497,
          "duration": 0.3333329999999961
        },
        {
          "name": "G3",
          "midi": 55,
          "time": 114.33321899999943,
          "velocity": 0.7874015748031497,
          "duration": 0.16666650000000516
        },
        {
          "name": "E3",
          "midi": 52,
          "time": 114.33321899999943,
          "velocity": 0.7874015748031497,
          "duration": 0.16666650000000516
        },
        {
          "name": "C3",
          "midi": 48,
          "time": 114.33321899999943,
          "velocity": 0.7874015748031497,
          "duration": 0.16666650000000516
        },
        {
          "name": "C3",
          "midi": 48,
          "time": 114.49988549999944,
          "velocity": 0.7874015748031497,
          "duration": 0.16666650000000516
        },
        {
          "name": "E3",
          "midi": 52,
          "time": 114.49988549999944,
          "velocity": 0.7874015748031497,
          "duration": 0.16666650000000516
        },
        {
          "name": "G3",
          "midi": 55,
          "time": 114.49988549999944,
          "velocity": 0.7874015748031497,
          "duration": 0.16666650000000516
        },
        {
          "name": "C4",
          "midi": 60,
          "time": 114.66655199999944,
          "velocity": 0.7874015748031497,
          "duration": 0.3333329999999961
        },
        {
          "name": "A3",
          "midi": 57,
          "time": 114.66655199999944,
          "velocity": 0.7874015748031497,
          "duration": 0.3333329999999961
        },
        {
          "name": "F3",
          "midi": 53,
          "time": 114.66655199999944,
          "velocity": 0.7874015748031497,
          "duration": 0.3333329999999961
        },
        {
          "name": "C4",
          "midi": 60,
          "time": 114.99988499999944,
          "velocity": 0.7874015748031497,
          "duration": 0.3333329999999961
        },
        {
          "name": "F3",
          "midi": 53,
          "time": 114.99988499999944,
          "velocity": 0.7874015748031497,
          "duration": 0.3333329999999961
        },
        {
          "name": "A3",
          "midi": 57,
          "time": 114.99988499999944,
          "velocity": 0.7874015748031497,
          "duration": 0.3333329999999961
        },
        {
          "name": "C4",
          "midi": 60,
          "time": 115.33321799999943,
          "velocity": 0.7874015748031497,
          "duration": 0.3333329999999961
        },
        {
          "name": "F3",
          "midi": 53,
          "time": 115.33321799999943,
          "velocity": 0.7874015748031497,
          "duration": 0.3333329999999961
        },
        {
          "name": "A3",
          "midi": 57,
          "time": 115.33321799999943,
          "velocity": 0.7874015748031497,
          "duration": 0.3333329999999961
        },
        {
          "name": "F3",
          "midi": 53,
          "time": 115.66655099999943,
          "velocity": 0.7874015748031497,
          "duration": 0.16666650000000516
        },
        {
          "name": "A3",
          "midi": 57,
          "time": 115.66655099999943,
          "velocity": 0.7874015748031497,
          "duration": 0.16666650000000516
        },
        {
          "name": "C4",
          "midi": 60,
          "time": 115.66655099999943,
          "velocity": 0.7874015748031497,
          "duration": 0.16666650000000516
        },
        {
          "name": "F3",
          "midi": 53,
          "time": 115.83321749999944,
          "velocity": 0.7874015748031497,
          "duration": 0.16666650000000516
        },
        {
          "name": "A3",
          "midi": 57,
          "time": 115.83321749999944,
          "velocity": 0.7874015748031497,
          "duration": 0.16666650000000516
        },
        {
          "name": "C4",
          "midi": 60,
          "time": 115.83321749999944,
          "velocity": 0.7874015748031497,
          "duration": 0.16666650000000516
        },
        {
          "name": "F3",
          "midi": 53,
          "time": 115.99988399999944,
          "velocity": 0.7874015748031497,
          "duration": 0.3333329999999961
        },
        {
          "name": "D3",
          "midi": 50,
          "time": 115.99988399999944,
          "velocity": 0.7874015748031497,
          "duration": 0.3333329999999961
        },
        {
          "name": "A#2",
          "midi": 46,
          "time": 115.99988399999944,
          "velocity": 0.7874015748031497,
          "duration": 0.3333329999999961
        },
        {
          "name": "F3",
          "midi": 53,
          "time": 116.33321699999944,
          "velocity": 0.7874015748031497,
          "duration": 0.3333329999999961
        },
        {
          "name": "A#2",
          "midi": 46,
          "time": 116.33321699999944,
          "velocity": 0.7874015748031497,
          "duration": 0.3333329999999961
        },
        {
          "name": "D3",
          "midi": 50,
          "time": 116.33321699999944,
          "velocity": 0.7874015748031497,
          "duration": 0.3333329999999961
        },
        {
          "name": "F3",
          "midi": 53,
          "time": 116.66654999999943,
          "velocity": 0.7874015748031497,
          "duration": 0.3333329999999961
        },
        {
          "name": "A#2",
          "midi": 46,
          "time": 116.66654999999943,
          "velocity": 0.7874015748031497,
          "duration": 0.3333329999999961
        },
        {
          "name": "D3",
          "midi": 50,
          "time": 116.66654999999943,
          "velocity": 0.7874015748031497,
          "duration": 0.3333329999999961
        },
        {
          "name": "A#2",
          "midi": 46,
          "time": 116.99988299999943,
          "velocity": 0.7874015748031497,
          "duration": 0.16666650000000516
        },
        {
          "name": "D3",
          "midi": 50,
          "time": 116.99988299999943,
          "velocity": 0.7874015748031497,
          "duration": 0.16666650000000516
        },
        {
          "name": "F3",
          "midi": 53,
          "time": 116.99988299999943,
          "velocity": 0.7874015748031497,
          "duration": 0.16666650000000516
        },
        {
          "name": "A#2",
          "midi": 46,
          "time": 117.16654949999943,
          "velocity": 0.7874015748031497,
          "duration": 0.16666650000000516
        },
        {
          "name": "D3",
          "midi": 50,
          "time": 117.16654949999943,
          "velocity": 0.7874015748031497,
          "duration": 0.16666650000000516
        },
        {
          "name": "F3",
          "midi": 53,
          "time": 117.16654949999943,
          "velocity": 0.7874015748031497,
          "duration": 0.16666650000000516
        },
        {
          "name": "A#3",
          "midi": 58,
          "time": 117.33321599999944,
          "velocity": 0.7874015748031497,
          "duration": 0.3333329999999961
        },
        {
          "name": "G3",
          "midi": 55,
          "time": 117.33321599999944,
          "velocity": 0.7874015748031497,
          "duration": 0.3333329999999961
        },
        {
          "name": "D#3",
          "midi": 51,
          "time": 117.33321599999944,
          "velocity": 0.7874015748031497,
          "duration": 0.3333329999999961
        },
        {
          "name": "A#3",
          "midi": 58,
          "time": 117.66654899999943,
          "velocity": 0.7874015748031497,
          "duration": 0.3333329999999961
        },
        {
          "name": "D#3",
          "midi": 51,
          "time": 117.66654899999943,
          "velocity": 0.7874015748031497,
          "duration": 0.3333329999999961
        },
        {
          "name": "G3",
          "midi": 55,
          "time": 117.66654899999943,
          "velocity": 0.7874015748031497,
          "duration": 0.3333329999999961
        },
        {
          "name": "A#3",
          "midi": 58,
          "time": 117.99988199999943,
          "velocity": 0.7874015748031497,
          "duration": 0.3333329999999961
        },
        {
          "name": "D#3",
          "midi": 51,
          "time": 117.99988199999943,
          "velocity": 0.7874015748031497,
          "duration": 0.3333329999999961
        },
        {
          "name": "G3",
          "midi": 55,
          "time": 117.99988199999943,
          "velocity": 0.7874015748031497,
          "duration": 0.3333329999999961
        },
        {
          "name": "D#3",
          "midi": 51,
          "time": 118.33321499999943,
          "velocity": 0.7874015748031497,
          "duration": 0.16666650000000516
        },
        {
          "name": "G3",
          "midi": 55,
          "time": 118.33321499999943,
          "velocity": 0.7874015748031497,
          "duration": 0.16666650000000516
        },
        {
          "name": "A#3",
          "midi": 58,
          "time": 118.33321499999943,
          "velocity": 0.7874015748031497,
          "duration": 0.16666650000000516
        },
        {
          "name": "A#3",
          "midi": 58,
          "time": 118.49988149999943,
          "velocity": 0.7874015748031497,
          "duration": 0.16666650000000516
        },
        {
          "name": "G3",
          "midi": 55,
          "time": 118.49988149999943,
          "velocity": 0.7874015748031497,
          "duration": 0.16666650000000516
        },
        {
          "name": "D#3",
          "midi": 51,
          "time": 118.49988149999943,
          "velocity": 0.7874015748031497,
          "duration": 0.16666650000000516
        },
        {
          "name": "F3",
          "midi": 53,
          "time": 118.66654799999944,
          "velocity": 0.7874015748031497,
          "duration": 0.3333329999999961
        },
        {
          "name": "A3",
          "midi": 57,
          "time": 118.66654799999944,
          "velocity": 0.7874015748031497,
          "duration": 0.3333329999999961
        },
        {
          "name": "C4",
          "midi": 60,
          "time": 118.66654799999944,
          "velocity": 0.7874015748031497,
          "duration": 0.3333329999999961
        },
        {
          "name": "A3",
          "midi": 57,
          "time": 118.99988099999943,
          "velocity": 0.7874015748031497,
          "duration": 0.3333329999999961
        },
        {
          "name": "F3",
          "midi": 53,
          "time": 118.99988099999943,
          "velocity": 0.7874015748031497,
          "duration": 0.3333329999999961
        },
        {
          "name": "C4",
          "midi": 60,
          "time": 118.99988099999943,
          "velocity": 0.7874015748031497,
          "duration": 0.3333329999999961
        },
        {
          "name": "A3",
          "midi": 57,
          "time": 119.33321399999943,
          "velocity": 0.7874015748031497,
          "duration": 0.3333329999999961
        },
        {
          "name": "F#3",
          "midi": 54,
          "time": 119.33321399999943,
          "velocity": 0.7874015748031497,
          "duration": 0.3333329999999961
        },
        {
          "name": "C4",
          "midi": 60,
          "time": 119.33321399999943,
          "velocity": 0.7874015748031497,
          "duration": 0.3333329999999961
        },
        {
          "name": "F#3",
          "midi": 54,
          "time": 119.66654699999943,
          "velocity": 0.7874015748031497,
          "duration": 0.16666650000000516
        },
        {
          "name": "A3",
          "midi": 57,
          "time": 119.66654699999943,
          "velocity": 0.7874015748031497,
          "duration": 0.16666650000000516
        },
        {
          "name": "C4",
          "midi": 60,
          "time": 119.66654699999943,
          "velocity": 0.7874015748031497,
          "duration": 0.16666650000000516
        },
        {
          "name": "F#3",
          "midi": 54,
          "time": 119.83321349999943,
          "velocity": 0.7874015748031497,
          "duration": 0.16666650000000516
        },
        {
          "name": "A3",
          "midi": 57,
          "time": 119.83321349999943,
          "velocity": 0.7874015748031497,
          "duration": 0.16666650000000516
        },
        {
          "name": "C4",
          "midi": 60,
          "time": 119.83321349999943,
          "velocity": 0.7874015748031497,
          "duration": 0.16666650000000516
        },
        {
          "name": "D3",
          "midi": 50,
          "time": 119.99987999999944,
          "velocity": 0.7874015748031497,
          "duration": 0.3333329999999961
        },
        {
          "name": "A#2",
          "midi": 46,
          "time": 119.99987999999944,
          "velocity": 0.7874015748031497,
          "duration": 0.3333329999999961
        },
        {
          "name": "G2",
          "midi": 43,
          "time": 119.99987999999944,
          "velocity": 0.7874015748031497,
          "duration": 0.3333329999999961
        },
        {
          "name": "D3",
          "midi": 50,
          "time": 120.33321299999943,
          "velocity": 0.7874015748031497,
          "duration": 0.3333329999999961
        },
        {
          "name": "G2",
          "midi": 43,
          "time": 120.33321299999943,
          "velocity": 0.7874015748031497,
          "duration": 0.3333329999999961
        },
        {
          "name": "A#2",
          "midi": 46,
          "time": 120.33321299999943,
          "velocity": 0.7874015748031497,
          "duration": 0.3333329999999961
        },
        {
          "name": "D3",
          "midi": 50,
          "time": 120.66654599999943,
          "velocity": 0.7874015748031497,
          "duration": 0.3333329999999961
        },
        {
          "name": "G2",
          "midi": 43,
          "time": 120.66654599999943,
          "velocity": 0.7874015748031497,
          "duration": 0.3333329999999961
        },
        {
          "name": "A#2",
          "midi": 46,
          "time": 120.66654599999943,
          "velocity": 0.7874015748031497,
          "duration": 0.3333329999999961
        },
        {
          "name": "D3",
          "midi": 50,
          "time": 120.99987899999942,
          "velocity": 0.7874015748031497,
          "duration": 0.16666650000000516
        },
        {
          "name": "A#2",
          "midi": 46,
          "time": 120.99987899999942,
          "velocity": 0.7874015748031497,
          "duration": 0.16666650000000516
        },
        {
          "name": "G2",
          "midi": 43,
          "time": 120.99987899999942,
          "velocity": 0.7874015748031497,
          "duration": 0.16666650000000516
        },
        {
          "name": "D3",
          "midi": 50,
          "time": 121.16654549999943,
          "velocity": 0.7874015748031497,
          "duration": 0.16666650000000516
        },
        {
          "name": "A#2",
          "midi": 46,
          "time": 121.16654549999943,
          "velocity": 0.7874015748031497,
          "duration": 0.16666650000000516
        },
        {
          "name": "G2",
          "midi": 43,
          "time": 121.16654549999943,
          "velocity": 0.7874015748031497,
          "duration": 0.16666650000000516
        },
        {
          "name": "A#3",
          "midi": 58,
          "time": 121.33321199999943,
          "velocity": 0.7874015748031497,
          "duration": 0.3333329999999961
        },
        {
          "name": "G3",
          "midi": 55,
          "time": 121.33321199999943,
          "velocity": 0.7874015748031497,
          "duration": 0.3333329999999961
        },
        {
          "name": "D#3",
          "midi": 51,
          "time": 121.33321199999943,
          "velocity": 0.7874015748031497,
          "duration": 0.3333329999999961
        },
        {
          "name": "A#3",
          "midi": 58,
          "time": 121.66654499999943,
          "velocity": 0.7874015748031497,
          "duration": 0.3333329999999961
        },
        {
          "name": "D#3",
          "midi": 51,
          "time": 121.66654499999943,
          "velocity": 0.7874015748031497,
          "duration": 0.3333329999999961
        },
        {
          "name": "G3",
          "midi": 55,
          "time": 121.66654499999943,
          "velocity": 0.7874015748031497,
          "duration": 0.3333329999999961
        },
        {
          "name": "A#3",
          "midi": 58,
          "time": 121.99987799999943,
          "velocity": 0.7874015748031497,
          "duration": 0.3333329999999961
        },
        {
          "name": "D#3",
          "midi": 51,
          "time": 121.99987799999943,
          "velocity": 0.7874015748031497,
          "duration": 0.3333329999999961
        },
        {
          "name": "G3",
          "midi": 55,
          "time": 121.99987799999943,
          "velocity": 0.7874015748031497,
          "duration": 0.3333329999999961
        },
        {
          "name": "A#3",
          "midi": 58,
          "time": 122.33321099999942,
          "velocity": 0.7874015748031497,
          "duration": 0.16666650000000516
        },
        {
          "name": "G3",
          "midi": 55,
          "time": 122.33321099999942,
          "velocity": 0.7874015748031497,
          "duration": 0.16666650000000516
        },
        {
          "name": "D#3",
          "midi": 51,
          "time": 122.33321099999942,
          "velocity": 0.7874015748031497,
          "duration": 0.16666650000000516
        },
        {
          "name": "D#3",
          "midi": 51,
          "time": 122.49987749999943,
          "velocity": 0.7874015748031497,
          "duration": 0.16666650000000516
        },
        {
          "name": "G3",
          "midi": 55,
          "time": 122.49987749999943,
          "velocity": 0.7874015748031497,
          "duration": 0.16666650000000516
        },
        {
          "name": "A#3",
          "midi": 58,
          "time": 122.49987749999943,
          "velocity": 0.7874015748031497,
          "duration": 0.16666650000000516
        },
        {
          "name": "A#3",
          "midi": 58,
          "time": 122.66654399999943,
          "velocity": 0.7874015748031497,
          "duration": 0.3333329999999961
        },
        {
          "name": "G3",
          "midi": 55,
          "time": 122.66654399999943,
          "velocity": 0.7874015748031497,
          "duration": 0.3333329999999961
        },
        {
          "name": "E3",
          "midi": 52,
          "time": 122.66654399999943,
          "velocity": 0.7874015748031497,
          "duration": 0.3333329999999961
        },
        {
          "name": "G3",
          "midi": 55,
          "time": 122.99987699999943,
          "velocity": 0.7874015748031497,
          "duration": 0.3333329999999961
        },
        {
          "name": "E3",
          "midi": 52,
          "time": 122.99987699999943,
          "velocity": 0.7874015748031497,
          "duration": 0.3333329999999961
        },
        {
          "name": "A#3",
          "midi": 58,
          "time": 122.99987699999943,
          "velocity": 0.7874015748031497,
          "duration": 0.3333329999999961
        },
        {
          "name": "A#3",
          "midi": 58,
          "time": 123.33320999999943,
          "velocity": 0.7874015748031497,
          "duration": 0.3333329999999961
        },
        {
          "name": "E3",
          "midi": 52,
          "time": 123.33320999999943,
          "velocity": 0.7874015748031497,
          "duration": 0.3333329999999961
        },
        {
          "name": "G3",
          "midi": 55,
          "time": 123.33320999999943,
          "velocity": 0.7874015748031497,
          "duration": 0.3333329999999961
        },
        {
          "name": "A#3",
          "midi": 58,
          "time": 123.66654299999942,
          "velocity": 0.7874015748031497,
          "duration": 0.16666650000000516
        },
        {
          "name": "G3",
          "midi": 55,
          "time": 123.66654299999942,
          "velocity": 0.7874015748031497,
          "duration": 0.16666650000000516
        },
        {
          "name": "E3",
          "midi": 52,
          "time": 123.66654299999942,
          "velocity": 0.7874015748031497,
          "duration": 0.16666650000000516
        },
        {
          "name": "A#3",
          "midi": 58,
          "time": 123.83320949999943,
          "velocity": 0.7874015748031497,
          "duration": 0.16666650000000516
        },
        {
          "name": "G3",
          "midi": 55,
          "time": 123.83320949999943,
          "velocity": 0.7874015748031497,
          "duration": 0.16666650000000516
        },
        {
          "name": "E3",
          "midi": 52,
          "time": 123.83320949999943,
          "velocity": 0.7874015748031497,
          "duration": 0.16666650000000516
        },
        {
          "name": "F3",
          "midi": 53,
          "time": 123.99987599999943,
          "velocity": 0.7874015748031497,
          "duration": 0.3333329999999961
        },
        {
          "name": "A3",
          "midi": 57,
          "time": 123.99987599999943,
          "velocity": 0.7874015748031497,
          "duration": 0.3333329999999961
        },
        {
          "name": "C4",
          "midi": 60,
          "time": 123.99987599999943,
          "velocity": 0.7874015748031497,
          "duration": 0.3333329999999961
        },
        {
          "name": "C4",
          "midi": 60,
          "time": 124.33320899999943,
          "velocity": 0.7874015748031497,
          "duration": 0.3333329999999961
        },
        {
          "name": "F3",
          "midi": 53,
          "time": 124.33320899999943,
          "velocity": 0.7874015748031497,
          "duration": 0.3333329999999961
        },
        {
          "name": "A3",
          "midi": 57,
          "time": 124.33320899999943,
          "velocity": 0.7874015748031497,
          "duration": 0.3333329999999961
        },
        {
          "name": "C4",
          "midi": 60,
          "time": 124.66654199999942,
          "velocity": 0.7874015748031497,
          "duration": 0.3333329999999961
        },
        {
          "name": "F3",
          "midi": 53,
          "time": 124.66654199999942,
          "velocity": 0.7874015748031497,
          "duration": 0.3333329999999961
        },
        {
          "name": "A3",
          "midi": 57,
          "time": 124.66654199999942,
          "velocity": 0.7874015748031497,
          "duration": 0.3333329999999961
        },
        {
          "name": "F3",
          "midi": 53,
          "time": 124.99987499999942,
          "velocity": 0.7874015748031497,
          "duration": 0.16666650000000516
        },
        {
          "name": "A3",
          "midi": 57,
          "time": 124.99987499999942,
          "velocity": 0.7874015748031497,
          "duration": 0.16666650000000516
        },
        {
          "name": "C4",
          "midi": 60,
          "time": 124.99987499999942,
          "velocity": 0.7874015748031497,
          "duration": 0.16666650000000516
        },
        {
          "name": "F3",
          "midi": 53,
          "time": 125.16654149999943,
          "velocity": 0.7874015748031497,
          "duration": 0.16666650000000516
        },
        {
          "name": "A3",
          "midi": 57,
          "time": 125.16654149999943,
          "velocity": 0.7874015748031497,
          "duration": 0.16666650000000516
        },
        {
          "name": "C4",
          "midi": 60,
          "time": 125.16654149999943,
          "velocity": 0.7874015748031497,
          "duration": 0.16666650000000516
        },
        {
          "name": "F3",
          "midi": 53,
          "time": 125.33320799999943,
          "velocity": 0.7874015748031497,
          "duration": 0.3333329999999961
        },
        {
          "name": "A3",
          "midi": 57,
          "time": 125.33320799999943,
          "velocity": 0.7874015748031497,
          "duration": 0.3333329999999961
        },
        {
          "name": "C4",
          "midi": 60,
          "time": 125.33320799999943,
          "velocity": 0.7874015748031497,
          "duration": 0.3333329999999961
        },
        {
          "name": "A3",
          "midi": 57,
          "time": 125.66654099999943,
          "velocity": 0.7874015748031497,
          "duration": 0.3333329999999961
        },
        {
          "name": "F3",
          "midi": 53,
          "time": 125.66654099999943,
          "velocity": 0.7874015748031497,
          "duration": 0.3333329999999961
        },
        {
          "name": "C4",
          "midi": 60,
          "time": 125.66654099999943,
          "velocity": 0.7874015748031497,
          "duration": 0.3333329999999961
        },
        {
          "name": "C4",
          "midi": 60,
          "time": 125.99987399999942,
          "velocity": 0.7874015748031497,
          "duration": 0.3333329999999961
        },
        {
          "name": "F3",
          "midi": 53,
          "time": 125.99987399999942,
          "velocity": 0.7874015748031497,
          "duration": 0.3333329999999961
        },
        {
          "name": "A3",
          "midi": 57,
          "time": 125.99987399999942,
          "velocity": 0.7874015748031497,
          "duration": 0.3333329999999961
        },
        {
          "name": "F3",
          "midi": 53,
          "time": 126.33320699999942,
          "velocity": 0.7874015748031497,
          "duration": 0.16666650000000516
        },
        {
          "name": "A3",
          "midi": 57,
          "time": 126.33320699999942,
          "velocity": 0.7874015748031497,
          "duration": 0.16666650000000516
        },
        {
          "name": "C4",
          "midi": 60,
          "time": 126.33320699999942,
          "velocity": 0.7874015748031497,
          "duration": 0.16666650000000516
        },
        {
          "name": "F3",
          "midi": 53,
          "time": 126.49987349999942,
          "velocity": 0.7874015748031497,
          "duration": 0.16666650000000516
        },
        {
          "name": "A3",
          "midi": 57,
          "time": 126.49987349999942,
          "velocity": 0.7874015748031497,
          "duration": 0.16666650000000516
        },
        {
          "name": "C4",
          "midi": 60,
          "time": 126.49987349999942,
          "velocity": 0.7874015748031497,
          "duration": 0.16666650000000516
        },
        {
          "name": "A#3",
          "midi": 58,
          "time": 126.66653999999943,
          "velocity": 0.7874015748031497,
          "duration": 0.08333324999999547
        },
        {
          "name": "F3",
          "midi": 53,
          "time": 126.66653999999943,
          "velocity": 0.7874015748031497,
          "duration": 0.08333324999999547
        },
        {
          "name": "D3",
          "midi": 50,
          "time": 126.66653999999943,
          "velocity": 0.7874015748031497,
          "duration": 0.08333324999999547
        },
        {
          "name": "D3",
          "midi": 50,
          "time": 126.74987324999942,
          "velocity": 0.7874015748031497,
          "duration": 0.08333324999999547
        },
        {
          "name": "F3",
          "midi": 53,
          "time": 126.74987324999942,
          "velocity": 0.7874015748031497,
          "duration": 0.08333324999999547
        },
        {
          "name": "A#3",
          "midi": 58,
          "time": 126.74987324999942,
          "velocity": 0.7874015748031497,
          "duration": 0.08333324999999547
        },
        {
          "name": "A#3",
          "midi": 58,
          "time": 126.83320649999942,
          "velocity": 0.7874015748031497,
          "duration": 0.08333324999999547
        },
        {
          "name": "F3",
          "midi": 53,
          "time": 126.83320649999942,
          "velocity": 0.7874015748031497,
          "duration": 0.08333324999999547
        },
        {
          "name": "D3",
          "midi": 50,
          "time": 126.83320649999942,
          "velocity": 0.7874015748031497,
          "duration": 0.08333324999999547
        },
        {
          "name": "A#3",
          "midi": 58,
          "time": 126.91653974999942,
          "velocity": 0.7874015748031497,
          "duration": 0.08333324999999547
        },
        {
          "name": "F3",
          "midi": 53,
          "time": 126.91653974999942,
          "velocity": 0.7874015748031497,
          "duration": 0.08333324999999547
        },
        {
          "name": "D3",
          "midi": 50,
          "time": 126.91653974999942,
          "velocity": 0.7874015748031497,
          "duration": 0.08333324999999547
        },
        {
          "name": "A#3",
          "midi": 58,
          "time": 126.99987299999941,
          "velocity": 0.7874015748031497,
          "duration": 0.08333324999999547
        },
        {
          "name": "F3",
          "midi": 53,
          "time": 126.99987299999941,
          "velocity": 0.7874015748031497,
          "duration": 0.08333324999999547
        },
        {
          "name": "D3",
          "midi": 50,
          "time": 126.99987299999941,
          "velocity": 0.7874015748031497,
          "duration": 0.08333324999999547
        },
        {
          "name": "D3",
          "midi": 50,
          "time": 127.1665394999994,
          "velocity": 0.7874015748031497,
          "duration": 0.08333324999999547
        },
        {
          "name": "F3",
          "midi": 53,
          "time": 127.1665394999994,
          "velocity": 0.7874015748031497,
          "duration": 0.08333324999999547
        },
        {
          "name": "A#3",
          "midi": 58,
          "time": 127.1665394999994,
          "velocity": 0.7874015748031497,
          "duration": 0.08333324999999547
        },
        {
          "name": "A#3",
          "midi": 58,
          "time": 127.2498727499994,
          "velocity": 0.7874015748031497,
          "duration": 0.08333324999999547
        },
        {
          "name": "F3",
          "midi": 53,
          "time": 127.2498727499994,
          "velocity": 0.7874015748031497,
          "duration": 0.08333324999999547
        },
        {
          "name": "D3",
          "midi": 50,
          "time": 127.2498727499994,
          "velocity": 0.7874015748031497,
          "duration": 0.08333324999999547
        },
        {
          "name": "A#3",
          "midi": 58,
          "time": 127.3332059999994,
          "velocity": 0.7874015748031497,
          "duration": 0.08333324999999547
        },
        {
          "name": "F3",
          "midi": 53,
          "time": 127.3332059999994,
          "velocity": 0.7874015748031497,
          "duration": 0.08333324999999547
        },
        {
          "name": "D3",
          "midi": 50,
          "time": 127.3332059999994,
          "velocity": 0.7874015748031497,
          "duration": 0.08333324999999547
        },
        {
          "name": "D3",
          "midi": 50,
          "time": 127.41653924999939,
          "velocity": 0.7874015748031497,
          "duration": 0.08333324999999547
        },
        {
          "name": "F3",
          "midi": 53,
          "time": 127.41653924999939,
          "velocity": 0.7874015748031497,
          "duration": 0.08333324999999547
        },
        {
          "name": "A#3",
          "midi": 58,
          "time": 127.41653924999939,
          "velocity": 0.7874015748031497,
          "duration": 0.08333324999999547
        },
        {
          "name": "D3",
          "midi": 50,
          "time": 127.49987249999938,
          "velocity": 0.7874015748031497,
          "duration": 0.08333324999999547
        },
        {
          "name": "F3",
          "midi": 53,
          "time": 127.49987249999938,
          "velocity": 0.7874015748031497,
          "duration": 0.08333324999999547
        },
        {
          "name": "A#3",
          "midi": 58,
          "time": 127.49987249999938,
          "velocity": 0.7874015748031497,
          "duration": 0.08333324999999547
        },
        {
          "name": "A#3",
          "midi": 58,
          "time": 127.66653899999937,
          "velocity": 0.7874015748031497,
          "duration": 0.08333324999999547
        },
        {
          "name": "F3",
          "midi": 53,
          "time": 127.66653899999937,
          "velocity": 0.7874015748031497,
          "duration": 0.08333324999999547
        },
        {
          "name": "D3",
          "midi": 50,
          "time": 127.66653899999937,
          "velocity": 0.7874015748031497,
          "duration": 0.08333324999999547
        },
        {
          "name": "D3",
          "midi": 50,
          "time": 127.74987224999937,
          "velocity": 0.7874015748031497,
          "duration": 0.08333324999999547
        },
        {
          "name": "F3",
          "midi": 53,
          "time": 127.74987224999937,
          "velocity": 0.7874015748031497,
          "duration": 0.08333324999999547
        },
        {
          "name": "A#3",
          "midi": 58,
          "time": 127.74987224999937,
          "velocity": 0.7874015748031497,
          "duration": 0.08333324999999547
        },
        {
          "name": "D3",
          "midi": 50,
          "time": 127.83320549999937,
          "velocity": 0.7874015748031497,
          "duration": 0.08333324999999547
        },
        {
          "name": "F3",
          "midi": 53,
          "time": 127.83320549999937,
          "velocity": 0.7874015748031497,
          "duration": 0.08333324999999547
        },
        {
          "name": "A#3",
          "midi": 58,
          "time": 127.83320549999937,
          "velocity": 0.7874015748031497,
          "duration": 0.08333324999999547
        },
        {
          "name": "D3",
          "midi": 50,
          "time": 127.91653874999936,
          "velocity": 0.7874015748031497,
          "duration": 0.08333324999999547
        },
        {
          "name": "F3",
          "midi": 53,
          "time": 127.91653874999936,
          "velocity": 0.7874015748031497,
          "duration": 0.08333324999999547
        },
        {
          "name": "A#3",
          "midi": 58,
          "time": 127.91653874999936,
          "velocity": 0.7874015748031497,
          "duration": 0.08333324999999547
        },
        {
          "name": "A#3",
          "midi": 58,
          "time": 127.99987199999936,
          "velocity": 0.7874015748031497,
          "duration": 0.08333325000000968
        },
        {
          "name": "F3",
          "midi": 53,
          "time": 127.99987199999936,
          "velocity": 0.7874015748031497,
          "duration": 0.08333325000000968
        },
        {
          "name": "D3",
          "midi": 50,
          "time": 127.99987199999936,
          "velocity": 0.7874015748031497,
          "duration": 0.08333325000000968
        },
        {
          "name": "A#3",
          "midi": 58,
          "time": 128.16653849999938,
          "velocity": 0.7874015748031497,
          "duration": 0.08333325000000968
        },
        {
          "name": "F3",
          "midi": 53,
          "time": 128.16653849999938,
          "velocity": 0.7874015748031497,
          "duration": 0.08333325000000968
        },
        {
          "name": "D3",
          "midi": 50,
          "time": 128.16653849999938,
          "velocity": 0.7874015748031497,
          "duration": 0.08333325000000968
        },
        {
          "name": "A#3",
          "midi": 58,
          "time": 128.3332049999994,
          "velocity": 0.7874015748031497,
          "duration": 0.08333325000000968
        },
        {
          "name": "F3",
          "midi": 53,
          "time": 128.3332049999994,
          "velocity": 0.7874015748031497,
          "duration": 0.08333325000000968
        },
        {
          "name": "D3",
          "midi": 50,
          "time": 128.3332049999994,
          "velocity": 0.7874015748031497,
          "duration": 0.08333325000000968
        },
        {
          "name": "D3",
          "midi": 50,
          "time": 128.49987149999941,
          "velocity": 0.7874015748031497,
          "duration": 0.08333325000000968
        },
        {
          "name": "F3",
          "midi": 53,
          "time": 128.49987149999941,
          "velocity": 0.7874015748031497,
          "duration": 0.08333325000000968
        },
        {
          "name": "A#3",
          "midi": 58,
          "time": 128.49987149999941,
          "velocity": 0.7874015748031497,
          "duration": 0.08333325000000968
        },
        {
          "name": "D3",
          "midi": 50,
          "time": 128.66653799999943,
          "velocity": 0.7874015748031497,
          "duration": 0.08333325000000968
        },
        {
          "name": "F3",
          "midi": 53,
          "time": 128.66653799999943,
          "velocity": 0.7874015748031497,
          "duration": 0.08333325000000968
        },
        {
          "name": "A#3",
          "midi": 58,
          "time": 128.66653799999943,
          "velocity": 0.7874015748031497,
          "duration": 0.08333325000000968
        }
      ],
      "controlChanges": {
        "6": [
          {
            "number": 6,
            "time": 0,
            "value": 0.09448818897637795
          },
          {
            "number": 6,
            "time": 0,
            "value": 0.09448818897637795
          },
          {
            "number": 6,
            "time": 0,
            "value": 0.09448818897637795
          },
          {
            "number": 6,
            "time": 129.33320399999945,
            "value": 0.09448818897637795
          },
          {
            "number": 6,
            "time": 131.06931337499947,
            "value": 0.09448818897637795
          }
        ],
        "7": [
          {
            "number": 7,
            "time": 0,
            "value": 0.7874015748031497
          },
          {
            "number": 7,
            "time": 0,
            "value": 0.7874015748031497
          },
          {
            "number": 7,
            "time": 0,
            "value": 0.7874015748031497
          },
          {
            "number": 7,
            "time": 0,
            "value": 0.7874015748031497
          },
          {
            "number": 7,
            "time": 0,
            "value": 0.7874015748031497
          },
          {
            "number": 7,
            "time": 0,
            "value": 0.7874015748031497
          },
          {
            "number": 7,
            "time": 129.33320399999945,
            "value": 0.7874015748031497
          },
          {
            "number": 7,
            "time": 131.06584115624946,
            "value": 0.7874015748031497
          },
          {
            "number": 7,
            "time": 131.06931337499947,
            "value": 0.7874015748031497
          }
        ],
        "10": [
          {
            "number": 10,
            "time": 0,
            "value": 0.5039370078740157
          },
          {
            "number": 10,
            "time": 0,
            "value": 0.5039370078740157
          },
          {
            "number": 10,
            "time": 0,
            "value": 0.5039370078740157
          },
          {
            "number": 10,
            "time": 0,
            "value": 0.5039370078740157
          },
          {
            "number": 10,
            "time": 0,
            "value": 0.5039370078740157
          },
          {
            "number": 10,
            "time": 0,
            "value": 0.5039370078740157
          },
          {
            "number": 10,
            "time": 129.33320399999945,
            "value": 0.5039370078740157
          },
          {
            "number": 10,
            "time": 131.06584115624946,
            "value": 0.5039370078740157
          },
          {
            "number": 10,
            "time": 131.06931337499947,
            "value": 0.5039370078740157
          }
        ],
        "100": [
          {
            "number": 100,
            "time": 0,
            "value": 0
          },
          {
            "number": 100,
            "time": 0,
            "value": 0
          },
          {
            "number": 100,
            "time": 0,
            "value": 0
          },
          {
            "number": 100,
            "time": 129.33320399999945,
            "value": 0
          },
          {
            "number": 100,
            "time": 131.06931337499947,
            "value": 0
          }
        ],
        "101": [
          {
            "number": 101,
            "time": 0,
            "value": 0
          },
          {
            "number": 101,
            "time": 0,
            "value": 0
          },
          {
            "number": 101,
            "time": 0,
            "value": 0
          },
          {
            "number": 101,
            "time": 129.33320399999945,
            "value": 0
          },
          {
            "number": 101,
            "time": 131.06931337499947,
            "value": 0
          }
        ]
      },
      "id": 2,
      "name": "Piano",
      "instrumentNumber": 0,
      "instrument": "acoustic grand piano",
      "instrumentFamily": "piano",
      "channelNumber": 0,
      "isPercussion": false
    },
    {
      "startTime": 10.666656,
      "duration": 128.74987125000024,
      "length": 272,
      "notes": [
        {
          "name": "A#3",
          "midi": 58,
          "time": 10.666656,
          "velocity": 1,
          "duration": 0.33333299999999966
        },
        {
          "name": "C4",
          "midi": 60,
          "time": 10.999989,
          "velocity": 1,
          "duration": 0.33333299999999966
        },
        {
          "name": "D4",
          "midi": 62,
          "time": 11.333321999999999,
          "velocity": 1,
          "duration": 0.33333299999999966
        },
        {
          "name": "C4",
          "midi": 60,
          "time": 11.666654999999999,
          "velocity": 1,
          "duration": 0.16666649999999983
        },
        {
          "name": "D4",
          "midi": 62,
          "time": 11.833321499999998,
          "velocity": 1,
          "duration": 0.16666649999999983
        },
        {
          "name": "D#4",
          "midi": 63,
          "time": 11.999987999999998,
          "velocity": 1,
          "duration": 0.33333299999999966
        },
        {
          "name": "F4",
          "midi": 65,
          "time": 12.333320999999998,
          "velocity": 1,
          "duration": 0.33333299999999966
        },
        {
          "name": "D#4",
          "midi": 63,
          "time": 12.666653999999998,
          "velocity": 1,
          "duration": 0.33333299999999966
        },
        {
          "name": "D4",
          "midi": 62,
          "time": 12.999986999999997,
          "velocity": 1,
          "duration": 0.33333299999999966
        },
        {
          "name": "C4",
          "midi": 60,
          "time": 13.333319999999997,
          "velocity": 1,
          "duration": 0.33333299999999966
        },
        {
          "name": "D4",
          "midi": 62,
          "time": 13.666652999999997,
          "velocity": 1,
          "duration": 0.33333299999999966
        },
        {
          "name": "D#4",
          "midi": 63,
          "time": 13.999985999999996,
          "velocity": 1,
          "duration": 0.16666649999999983
        },
        {
          "name": "G4",
          "midi": 67,
          "time": 14.166652499999996,
          "velocity": 1,
          "duration": 0.16666649999999983
        },
        {
          "name": "F4",
          "midi": 65,
          "time": 14.333318999999996,
          "velocity": 1,
          "duration": 0.16666649999999983
        },
        {
          "name": "D#4",
          "midi": 63,
          "time": 14.499985499999996,
          "velocity": 1,
          "duration": 0.16666649999999983
        },
        {
          "name": "D4",
          "midi": 62,
          "time": 14.666651999999996,
          "velocity": 1,
          "duration": 0.33333299999999966
        },
        {
          "name": "C4",
          "midi": 60,
          "time": 14.999984999999995,
          "velocity": 1,
          "duration": 0.33333299999999966
        },
        {
          "name": "A#3",
          "midi": 58,
          "time": 15.333317999999995,
          "velocity": 1,
          "duration": 0.33333299999999966
        },
        {
          "name": "D#4",
          "midi": 63,
          "time": 15.999983999999994,
          "velocity": 1,
          "duration": 0.33333299999999966
        },
        {
          "name": "C4",
          "midi": 60,
          "time": 16.333316999999994,
          "velocity": 1,
          "duration": 0.33333299999999966
        },
        {
          "name": "A#3",
          "midi": 58,
          "time": 16.666649999999994,
          "velocity": 1,
          "duration": 0.33333299999999966
        },
        {
          "name": "D4",
          "midi": 62,
          "time": 16.999982999999993,
          "velocity": 1,
          "duration": 0.33333299999999966
        },
        {
          "name": "C4",
          "midi": 60,
          "time": 17.333315999999993,
          "velocity": 1,
          "duration": 0.33333299999999966
        },
        {
          "name": "D#4",
          "midi": 63,
          "time": 17.666648999999992,
          "velocity": 1,
          "duration": 0.33333299999999966
        },
        {
          "name": "D4",
          "midi": 62,
          "time": 17.999981999999992,
          "velocity": 1,
          "duration": 0.33333299999999966
        },
        {
          "name": "C4",
          "midi": 60,
          "time": 18.333314999999992,
          "velocity": 1,
          "duration": 0.33333299999999966
        },
        {
          "name": "A#3",
          "midi": 58,
          "time": 18.66664799999999,
          "velocity": 1,
          "duration": 0.33333299999999966
        },
        {
          "name": "A3",
          "midi": 57,
          "time": 18.99998099999999,
          "velocity": 1,
          "duration": 0.33333299999999966
        },
        {
          "name": "A#3",
          "midi": 58,
          "time": 19.33331399999999,
          "velocity": 1,
          "duration": 0.33333299999999966
        },
        {
          "name": "B3",
          "midi": 59,
          "time": 19.66664699999999,
          "velocity": 1,
          "duration": 0.33333299999999966
        },
        {
          "name": "C4",
          "midi": 60,
          "time": 19.99997999999999,
          "velocity": 1,
          "duration": 0.6666659999999993
        },
        {
          "name": "A#3",
          "midi": 58,
          "time": 21.33331199999999,
          "velocity": 1,
          "duration": 0.33333299999999966
        },
        {
          "name": "C4",
          "midi": 60,
          "time": 21.66664499999999,
          "velocity": 1,
          "duration": 0.33333299999999966
        },
        {
          "name": "D4",
          "midi": 62,
          "time": 21.999977999999988,
          "velocity": 1,
          "duration": 0.33333299999999966
        },
        {
          "name": "C4",
          "midi": 60,
          "time": 22.333310999999988,
          "velocity": 1,
          "duration": 0.1666665000000016
        },
        {
          "name": "D4",
          "midi": 62,
          "time": 22.49997749999999,
          "velocity": 1,
          "duration": 0.1666665000000016
        },
        {
          "name": "D#4",
          "midi": 63,
          "time": 22.66664399999999,
          "velocity": 1,
          "duration": 0.33333299999999966
        },
        {
          "name": "F4",
          "midi": 65,
          "time": 22.99997699999999,
          "velocity": 1,
          "duration": 0.33333299999999966
        },
        {
          "name": "D#4",
          "midi": 63,
          "time": 23.33330999999999,
          "velocity": 1,
          "duration": 0.33333299999999966
        },
        {
          "name": "D4",
          "midi": 62,
          "time": 23.66664299999999,
          "velocity": 1,
          "duration": 0.33333299999999966
        },
        {
          "name": "C4",
          "midi": 60,
          "time": 23.99997599999999,
          "velocity": 1,
          "duration": 0.33333299999999966
        },
        {
          "name": "D4",
          "midi": 62,
          "time": 24.33330899999999,
          "velocity": 1,
          "duration": 0.33333299999999966
        },
        {
          "name": "D#4",
          "midi": 63,
          "time": 24.66664199999999,
          "velocity": 1,
          "duration": 0.1666665000000016
        },
        {
          "name": "G4",
          "midi": 67,
          "time": 24.83330849999999,
          "velocity": 1,
          "duration": 0.1666665000000016
        },
        {
          "name": "F4",
          "midi": 65,
          "time": 24.999974999999992,
          "velocity": 1,
          "duration": 0.1666665000000016
        },
        {
          "name": "D#4",
          "midi": 63,
          "time": 25.166641499999994,
          "velocity": 1,
          "duration": 0.1666665000000016
        },
        {
          "name": "D4",
          "midi": 62,
          "time": 25.333307999999995,
          "velocity": 1,
          "duration": 0.33333299999999966
        },
        {
          "name": "C4",
          "midi": 60,
          "time": 25.666640999999995,
          "velocity": 1,
          "duration": 0.1666665000000016
        },
        {
          "name": "A#3",
          "midi": 58,
          "time": 25.999973999999998,
          "velocity": 1,
          "duration": 0.33333299999999966
        },
        {
          "name": "D#4",
          "midi": 63,
          "time": 26.666639999999997,
          "velocity": 1,
          "duration": 0.33333299999999966
        },
        {
          "name": "C4",
          "midi": 60,
          "time": 26.999972999999997,
          "velocity": 1,
          "duration": 0.33333299999999966
        },
        {
          "name": "A#3",
          "midi": 58,
          "time": 27.333305999999997,
          "velocity": 1,
          "duration": 0.33333299999999966
        },
        {
          "name": "D4",
          "midi": 62,
          "time": 27.666638999999996,
          "velocity": 1,
          "duration": 0.33333299999999966
        },
        {
          "name": "C4",
          "midi": 60,
          "time": 27.999971999999996,
          "velocity": 1,
          "duration": 0.33333299999999966
        },
        {
          "name": "D#4",
          "midi": 63,
          "time": 28.333304999999996,
          "velocity": 1,
          "duration": 0.33333299999999966
        },
        {
          "name": "D4",
          "midi": 62,
          "time": 28.666637999999995,
          "velocity": 1,
          "duration": 0.33333299999999966
        },
        {
          "name": "C4",
          "midi": 60,
          "time": 28.999970999999995,
          "velocity": 1,
          "duration": 0.33333299999999966
        },
        {
          "name": "A#3",
          "midi": 58,
          "time": 29.333303999999995,
          "velocity": 1,
          "duration": 0.33333299999999966
        },
        {
          "name": "A3",
          "midi": 57,
          "time": 29.666636999999994,
          "velocity": 1,
          "duration": 0.33333299999999966
        },
        {
          "name": "A#3",
          "midi": 58,
          "time": 29.999969999999994,
          "velocity": 1,
          "duration": 0.33333299999999966
        },
        {
          "name": "C4",
          "midi": 60,
          "time": 30.333302999999994,
          "velocity": 1,
          "duration": 0.33333299999999966
        },
        {
          "name": "A#3",
          "midi": 58,
          "time": 30.666635999999993,
          "velocity": 1,
          "duration": 0.6666659999999993
        },
        {
          "name": "D4",
          "midi": 62,
          "time": 37.33329599999999,
          "velocity": 1,
          "duration": 0.6666659999999993
        },
        {
          "name": "C4",
          "midi": 60,
          "time": 37.99996199999999,
          "velocity": 1,
          "duration": 0.3333330000000032
        },
        {
          "name": "A#3",
          "midi": 58,
          "time": 38.33329499999999,
          "velocity": 1,
          "duration": 0.6666659999999993
        },
        {
          "name": "C4",
          "midi": 60,
          "time": 38.99996099999999,
          "velocity": 1,
          "duration": 0.3333330000000032
        },
        {
          "name": "D4",
          "midi": 62,
          "time": 39.333293999999995,
          "velocity": 1,
          "duration": 0.3333330000000032
        },
        {
          "name": "D#4",
          "midi": 63,
          "time": 39.666627,
          "velocity": 1,
          "duration": 0.3333330000000032
        },
        {
          "name": "F4",
          "midi": 65,
          "time": 39.99996,
          "velocity": 1,
          "duration": 0.3333330000000032
        },
        {
          "name": "D4",
          "midi": 62,
          "time": 40.333293000000005,
          "velocity": 1,
          "duration": 0.6666659999999993
        },
        {
          "name": "A#3",
          "midi": 58,
          "time": 41.33329200000001,
          "velocity": 1,
          "duration": 0.6666659999999993
        },
        {
          "name": "C4",
          "midi": 60,
          "time": 41.99995800000001,
          "velocity": 1,
          "duration": 0.3333330000000032
        },
        {
          "name": "D4",
          "midi": 62,
          "time": 42.33329100000001,
          "velocity": 1,
          "duration": 0.3333330000000032
        },
        {
          "name": "C4",
          "midi": 60,
          "time": 42.66662400000001,
          "velocity": 1,
          "duration": 0.3333330000000032
        },
        {
          "name": "D4",
          "midi": 62,
          "time": 42.999957000000016,
          "velocity": 1,
          "duration": 0.3333330000000032
        },
        {
          "name": "D#4",
          "midi": 63,
          "time": 43.33329000000002,
          "velocity": 1,
          "duration": 0.3333330000000032
        },
        {
          "name": "D4",
          "midi": 62,
          "time": 43.66662300000002,
          "velocity": 1,
          "duration": 0.3333330000000032
        },
        {
          "name": "A#3",
          "midi": 58,
          "time": 43.999956000000026,
          "velocity": 1,
          "duration": 0.3333330000000032
        },
        {
          "name": "C4",
          "midi": 60,
          "time": 44.33328900000003,
          "velocity": 1,
          "duration": 0.6666659999999993
        },
        {
          "name": "D4",
          "midi": 62,
          "time": 45.33328800000003,
          "velocity": 1,
          "duration": 0.3333330000000032
        },
        {
          "name": "C4",
          "midi": 60,
          "time": 45.666621000000035,
          "velocity": 1,
          "duration": 0.3333330000000032
        },
        {
          "name": "A#3",
          "midi": 58,
          "time": 45.99995400000004,
          "velocity": 1,
          "duration": 0.3333330000000032
        },
        {
          "name": "A3",
          "midi": 57,
          "time": 46.33328700000004,
          "velocity": 1,
          "duration": 0.3333330000000032
        },
        {
          "name": "G3",
          "midi": 55,
          "time": 46.666620000000044,
          "velocity": 1,
          "duration": 0.3333330000000032
        },
        {
          "name": "F3",
          "midi": 53,
          "time": 46.99995300000005,
          "velocity": 1,
          "duration": 0.3333330000000032
        },
        {
          "name": "G3",
          "midi": 55,
          "time": 47.33328600000005,
          "velocity": 1,
          "duration": 0.3333330000000032
        },
        {
          "name": "A3",
          "midi": 57,
          "time": 47.666619000000054,
          "velocity": 1,
          "duration": 0.3333330000000032
        },
        {
          "name": "A#3",
          "midi": 58,
          "time": 47.99995200000006,
          "velocity": 1,
          "duration": 0.16666649999999805
        },
        {
          "name": "C4",
          "midi": 60,
          "time": 48.166618500000055,
          "velocity": 1,
          "duration": 0.16666649999999805
        },
        {
          "name": "D4",
          "midi": 62,
          "time": 48.33328500000005,
          "velocity": 1,
          "duration": 0.6666659999999993
        },
        {
          "name": "A#3",
          "midi": 58,
          "time": 49.333284000000056,
          "velocity": 1,
          "duration": 0.6666659999999993
        },
        {
          "name": "C4",
          "midi": 60,
          "time": 49.999950000000055,
          "velocity": 1,
          "duration": 0.3333330000000032
        },
        {
          "name": "D4",
          "midi": 62,
          "time": 50.33328300000006,
          "velocity": 1,
          "duration": 0.3333330000000032
        },
        {
          "name": "C4",
          "midi": 60,
          "time": 50.66661600000006,
          "velocity": 1,
          "duration": 0.3333330000000032
        },
        {
          "name": "D4",
          "midi": 62,
          "time": 50.999949000000065,
          "velocity": 1,
          "duration": 0.3333330000000032
        },
        {
          "name": "D#4",
          "midi": 63,
          "time": 51.33328200000007,
          "velocity": 1,
          "duration": 0.3333330000000032
        },
        {
          "name": "D4",
          "midi": 62,
          "time": 51.66661500000007,
          "velocity": 1,
          "duration": 0.3333330000000032
        },
        {
          "name": "A#3",
          "midi": 58,
          "time": 51.999948000000074,
          "velocity": 1,
          "duration": 0.3333330000000032
        },
        {
          "name": "C4",
          "midi": 60,
          "time": 52.33328100000008,
          "velocity": 1,
          "duration": 0.6666659999999993
        },
        {
          "name": "D4",
          "midi": 62,
          "time": 53.33328000000008,
          "velocity": 1,
          "duration": 0.3333330000000032
        },
        {
          "name": "C4",
          "midi": 60,
          "time": 53.66661300000008,
          "velocity": 1,
          "duration": 0.3333330000000032
        },
        {
          "name": "A#3",
          "midi": 58,
          "time": 53.99994600000009,
          "velocity": 1,
          "duration": 0.3333330000000032
        },
        {
          "name": "A3",
          "midi": 57,
          "time": 54.33327900000009,
          "velocity": 1,
          "duration": 0.3333330000000032
        },
        {
          "name": "G3",
          "midi": 55,
          "time": 54.66661200000009,
          "velocity": 1,
          "duration": 0.3333330000000032
        },
        {
          "name": "A3",
          "midi": 57,
          "time": 54.999945000000096,
          "velocity": 1,
          "duration": 0.3333330000000032
        },
        {
          "name": "A#3",
          "midi": 58,
          "time": 55.3332780000001,
          "velocity": 1,
          "duration": 0.3333330000000032
        },
        {
          "name": "C4",
          "midi": 60,
          "time": 55.6666110000001,
          "velocity": 1,
          "duration": 0.3333330000000032
        },
        {
          "name": "D4",
          "midi": 62,
          "time": 55.999944000000106,
          "velocity": 1,
          "duration": 0.16666649999999805
        },
        {
          "name": "D#4",
          "midi": 63,
          "time": 56.166610500000104,
          "velocity": 1,
          "duration": 0.16666649999999805
        },
        {
          "name": "F4",
          "midi": 65,
          "time": 56.3332770000001,
          "velocity": 1,
          "duration": 0.6666659999999993
        },
        {
          "name": "D#4",
          "midi": 63,
          "time": 57.333276000000104,
          "velocity": 1,
          "duration": 0.3333330000000032
        },
        {
          "name": "D4",
          "midi": 62,
          "time": 57.66660900000011,
          "velocity": 1,
          "duration": 0.3333330000000032
        },
        {
          "name": "C4",
          "midi": 60,
          "time": 57.99994200000011,
          "velocity": 1,
          "duration": 0.3333330000000032
        },
        {
          "name": "A#3",
          "midi": 58,
          "time": 58.333275000000114,
          "velocity": 1,
          "duration": 0.3333330000000032
        },
        {
          "name": "C4",
          "midi": 60,
          "time": 58.66660800000012,
          "velocity": 1,
          "duration": 0.3333330000000032
        },
        {
          "name": "D4",
          "midi": 62,
          "time": 58.99994100000012,
          "velocity": 1,
          "duration": 0.3333330000000032
        },
        {
          "name": "D#4",
          "midi": 63,
          "time": 59.333274000000124,
          "velocity": 1,
          "duration": 0.3333330000000032
        },
        {
          "name": "E4",
          "midi": 64,
          "time": 59.66660700000013,
          "velocity": 1,
          "duration": 0.3333330000000032
        },
        {
          "name": "F4",
          "midi": 65,
          "time": 59.99994000000013,
          "velocity": 1,
          "duration": 1.999997999999998
        },
        {
          "name": "G3",
          "midi": 55,
          "time": 62.66660400000013,
          "velocity": 1,
          "duration": 0.6666659999999993
        },
        {
          "name": "A#3",
          "midi": 58,
          "time": 63.33327000000013,
          "velocity": 1,
          "duration": 0.6666659999999993
        },
        {
          "name": "D4",
          "midi": 62,
          "time": 63.999936000000126,
          "velocity": 1,
          "duration": 0.9999989999999954
        },
        {
          "name": "D#4",
          "midi": 63,
          "time": 65.33326800000012,
          "velocity": 1,
          "duration": 0.6666660000000064
        },
        {
          "name": "D4",
          "midi": 62,
          "time": 65.99993400000012,
          "velocity": 1,
          "duration": 0.6666660000000064
        },
        {
          "name": "C4",
          "midi": 60,
          "time": 66.66660000000013,
          "velocity": 1,
          "duration": 0.9999990000000025
        },
        {
          "name": "D4",
          "midi": 62,
          "time": 67.99993200000013,
          "velocity": 1,
          "duration": 0.6666660000000064
        },
        {
          "name": "A#3",
          "midi": 58,
          "time": 68.66659800000014,
          "velocity": 1,
          "duration": 0.6666660000000064
        },
        {
          "name": "C4",
          "midi": 60,
          "time": 69.33326400000014,
          "velocity": 1,
          "duration": 0.6666660000000064
        },
        {
          "name": "A3",
          "midi": 57,
          "time": 69.99993000000015,
          "velocity": 1,
          "duration": 0.6666660000000064
        },
        {
          "name": "A#3",
          "midi": 58,
          "time": 70.66659600000015,
          "velocity": 1,
          "duration": 0.6666660000000064
        },
        {
          "name": "C4",
          "midi": 60,
          "time": 71.33326200000016,
          "velocity": 1,
          "duration": 0.6666660000000064
        },
        {
          "name": "D4",
          "midi": 62,
          "time": 71.99992800000017,
          "velocity": 1,
          "duration": 0.6666660000000064
        },
        {
          "name": "C4",
          "midi": 60,
          "time": 72.99992700000017,
          "velocity": 1,
          "duration": 0.3333329999999961
        },
        {
          "name": "D4",
          "midi": 62,
          "time": 73.33326000000017,
          "velocity": 1,
          "duration": 0.3333329999999961
        },
        {
          "name": "D#4",
          "midi": 63,
          "time": 73.66659300000016,
          "velocity": 1,
          "duration": 0.3333329999999961
        },
        {
          "name": "F4",
          "midi": 65,
          "time": 73.99992600000016,
          "velocity": 1,
          "duration": 0.3333329999999961
        },
        {
          "name": "G4",
          "midi": 67,
          "time": 74.33325900000015,
          "velocity": 1,
          "duration": 0.3333329999999961
        },
        {
          "name": "F4",
          "midi": 65,
          "time": 74.66659200000015,
          "velocity": 1,
          "duration": 0.16666650000000516
        },
        {
          "name": "D#4",
          "midi": 63,
          "time": 74.99992500000016,
          "velocity": 1,
          "duration": 0.3333329999999961
        },
        {
          "name": "D4",
          "midi": 62,
          "time": 75.33325800000016,
          "velocity": 1,
          "duration": 0.3333329999999961
        },
        {
          "name": "C4",
          "midi": 60,
          "time": 75.66659100000015,
          "velocity": 1,
          "duration": 0.3333329999999961
        },
        {
          "name": "A#3",
          "midi": 58,
          "time": 75.99992400000015,
          "velocity": 1,
          "duration": 0.3333329999999961
        },
        {
          "name": "C4",
          "midi": 60,
          "time": 76.33325700000015,
          "velocity": 1,
          "duration": 0.3333329999999961
        },
        {
          "name": "D4",
          "midi": 62,
          "time": 76.66659000000014,
          "velocity": 1,
          "duration": 0.3333329999999961
        },
        {
          "name": "D#4",
          "midi": 63,
          "time": 76.99992300000014,
          "velocity": 1,
          "duration": 0.3333329999999961
        },
        {
          "name": "F4",
          "midi": 65,
          "time": 77.33325600000013,
          "velocity": 1,
          "duration": 0.6666660000000064
        },
        {
          "name": "E4",
          "midi": 64,
          "time": 78.33325500000014,
          "velocity": 1,
          "duration": 0.3333329999999961
        },
        {
          "name": "D#4",
          "midi": 63,
          "time": 78.66658800000013,
          "velocity": 1,
          "duration": 0.3333329999999961
        },
        {
          "name": "A#3",
          "midi": 58,
          "time": 78.99992100000013,
          "velocity": 1,
          "duration": 0.3333329999999961
        },
        {
          "name": "C4",
          "midi": 60,
          "time": 79.33325400000012,
          "velocity": 1,
          "duration": 0.3333329999999961
        },
        {
          "name": "D4",
          "midi": 62,
          "time": 79.66658700000012,
          "velocity": 1,
          "duration": 0.3333329999999961
        },
        {
          "name": "E4",
          "midi": 64,
          "time": 79.99992000000012,
          "velocity": 1,
          "duration": 0.3333329999999961
        },
        {
          "name": "F4",
          "midi": 65,
          "time": 80.33325300000011,
          "velocity": 1,
          "duration": 0.3333329999999961
        },
        {
          "name": "G4",
          "midi": 67,
          "time": 80.66658600000011,
          "velocity": 1,
          "duration": 0.3333329999999961
        },
        {
          "name": "A4",
          "midi": 69,
          "time": 80.9999190000001,
          "velocity": 1,
          "duration": 0.3333329999999961
        },
        {
          "name": "A#4",
          "midi": 70,
          "time": 81.3332520000001,
          "velocity": 1,
          "duration": 1.3333319999999986
        },
        {
          "name": "A4",
          "midi": 69,
          "time": 82.6665840000001,
          "velocity": 1,
          "duration": 0.6666660000000064
        },
        {
          "name": "A#4",
          "midi": 70,
          "time": 83.99991600000011,
          "velocity": 1,
          "duration": 0.16666650000000516
        },
        {
          "name": "A4",
          "midi": 69,
          "time": 84.16658250000012,
          "velocity": 1,
          "duration": 0.16666650000000516
        },
        {
          "name": "G4",
          "midi": 67,
          "time": 84.33324900000012,
          "velocity": 1,
          "duration": 0.16666650000000516
        },
        {
          "name": "F4",
          "midi": 65,
          "time": 84.49991550000013,
          "velocity": 1,
          "duration": 0.16666650000000516
        },
        {
          "name": "D#4",
          "midi": 63,
          "time": 84.66658200000013,
          "velocity": 1,
          "duration": 0.16666650000000516
        },
        {
          "name": "D4",
          "midi": 62,
          "time": 84.83324850000014,
          "velocity": 1,
          "duration": 0.16666650000000516
        },
        {
          "name": "C4",
          "midi": 60,
          "time": 84.99991500000014,
          "velocity": 1,
          "duration": 0.16666650000000516
        },
        {
          "name": "A#3",
          "midi": 58,
          "time": 85.16658150000015,
          "velocity": 1,
          "duration": 0.16666650000000516
        },
        {
          "name": "A3",
          "midi": 57,
          "time": 85.33324800000015,
          "velocity": 1,
          "duration": 0.3333329999999961
        },
        {
          "name": "A#3",
          "midi": 58,
          "time": 85.66658100000015,
          "velocity": 1,
          "duration": 0.3333329999999961
        },
        {
          "name": "C4",
          "midi": 60,
          "time": 85.99991400000015,
          "velocity": 1,
          "duration": 0.3333329999999961
        },
        {
          "name": "D#4",
          "midi": 63,
          "time": 86.33324700000014,
          "velocity": 1,
          "duration": 0.3333329999999961
        },
        {
          "name": "D4",
          "midi": 62,
          "time": 86.66658000000014,
          "velocity": 1,
          "duration": 0.3333329999999961
        },
        {
          "name": "G3",
          "midi": 55,
          "time": 86.99991300000013,
          "velocity": 1,
          "duration": 0.16666650000000516
        },
        {
          "name": "A3",
          "midi": 57,
          "time": 87.16657950000014,
          "velocity": 1,
          "duration": 0.16666650000000516
        },
        {
          "name": "A#3",
          "midi": 58,
          "time": 87.33324600000014,
          "velocity": 1,
          "duration": 0.16666650000000516
        },
        {
          "name": "C4",
          "midi": 60,
          "time": 87.49991250000015,
          "velocity": 1,
          "duration": 0.16666650000000516
        },
        {
          "name": "D4",
          "midi": 62,
          "time": 87.66657900000016,
          "velocity": 1,
          "duration": 0.16666650000000516
        },
        {
          "name": "D#4",
          "midi": 63,
          "time": 87.83324550000016,
          "velocity": 1,
          "duration": 0.16666650000000516
        },
        {
          "name": "F4",
          "midi": 65,
          "time": 87.99991200000017,
          "velocity": 1,
          "duration": 0.6666660000000064
        },
        {
          "name": "D#4",
          "midi": 63,
          "time": 89.33324400000018,
          "velocity": 1,
          "duration": 0.3333329999999961
        },
        {
          "name": "D4",
          "midi": 62,
          "time": 89.66657700000017,
          "velocity": 1,
          "duration": 0.3333329999999961
        },
        {
          "name": "C4",
          "midi": 60,
          "time": 89.99991000000017,
          "velocity": 1,
          "duration": 0.3333329999999961
        },
        {
          "name": "A#3",
          "midi": 58,
          "time": 90.33324300000017,
          "velocity": 1,
          "duration": 0.3333329999999961
        },
        {
          "name": "C4",
          "midi": 60,
          "time": 90.66657600000016,
          "velocity": 1,
          "duration": 0.3333329999999961
        },
        {
          "name": "D4",
          "midi": 62,
          "time": 90.99990900000016,
          "velocity": 1,
          "duration": 0.3333329999999961
        },
        {
          "name": "D#4",
          "midi": 63,
          "time": 91.33324200000015,
          "velocity": 1,
          "duration": 0.3333329999999961
        },
        {
          "name": "F4",
          "midi": 65,
          "time": 91.66657500000015,
          "velocity": 1,
          "duration": 0.16666650000000516
        },
        {
          "name": "G4",
          "midi": 67,
          "time": 91.83324150000016,
          "velocity": 1,
          "duration": 0.16666650000000516
        },
        {
          "name": "F4",
          "midi": 65,
          "time": 91.99990800000016,
          "velocity": 1,
          "duration": 1.3333319999999986
        },
        {
          "name": "E4",
          "midi": 64,
          "time": 93.99990600000017,
          "velocity": 1,
          "duration": 0.3333329999999961
        },
        {
          "name": "D#4",
          "midi": 63,
          "time": 94.33323900000016,
          "velocity": 1,
          "duration": 0.16666650000000516
        },
        {
          "name": "D4",
          "midi": 62,
          "time": 94.66657200000017,
          "velocity": 1,
          "duration": 0.6666660000000064
        },
        {
          "name": "G4",
          "midi": 67,
          "time": 95.33323800000018,
          "velocity": 1,
          "duration": 0.3333329999999961
        },
        {
          "name": "A#4",
          "midi": 70,
          "time": 95.66657100000018,
          "velocity": 1,
          "duration": 0.3333329999999961
        },
        {
          "name": "C5",
          "midi": 72,
          "time": 95.99990400000017,
          "velocity": 1,
          "duration": 0.3333329999999961
        },
        {
          "name": "A#4",
          "midi": 70,
          "time": 96.33323700000017,
          "velocity": 1,
          "duration": 0.3333329999999961
        },
        {
          "name": "A4",
          "midi": 69,
          "time": 96.66657000000016,
          "velocity": 1,
          "duration": 0.3333329999999961
        },
        {
          "name": "G4",
          "midi": 67,
          "time": 96.99990300000016,
          "velocity": 1,
          "duration": 0.3333329999999961
        },
        {
          "name": "F4",
          "midi": 65,
          "time": 97.33323600000016,
          "velocity": 1,
          "duration": 0.3333329999999961
        },
        {
          "name": "G4",
          "midi": 67,
          "time": 97.66656900000015,
          "velocity": 1,
          "duration": 0.3333329999999961
        },
        {
          "name": "A4",
          "midi": 69,
          "time": 97.99990200000015,
          "velocity": 1,
          "duration": 0.3333329999999961
        },
        {
          "name": "C5",
          "midi": 72,
          "time": 98.33323500000014,
          "velocity": 1,
          "duration": 0.3333329999999961
        },
        {
          "name": "A#4",
          "midi": 70,
          "time": 98.66656800000014,
          "velocity": 1,
          "duration": 0.6666660000000064
        },
        {
          "name": "A#4",
          "midi": 70,
          "time": 99.66656700000014,
          "velocity": 1,
          "duration": 0.16666650000000516
        },
        {
          "name": "A4",
          "midi": 69,
          "time": 99.83323350000015,
          "velocity": 1,
          "duration": 0.16666650000000516
        },
        {
          "name": "G4",
          "midi": 67,
          "time": 99.99990000000015,
          "velocity": 1,
          "duration": 0.6666660000000064
        },
        {
          "name": "F4",
          "midi": 65,
          "time": 100.66656600000016,
          "velocity": 1,
          "duration": 0.6666660000000064
        },
        {
          "name": "G4",
          "midi": 67,
          "time": 101.33323200000017,
          "velocity": 1,
          "duration": 0.6666660000000064
        },
        {
          "name": "A#4",
          "midi": 70,
          "time": 101.99989800000017,
          "velocity": 1,
          "duration": 0.6666660000000064
        },
        {
          "name": "C5",
          "midi": 72,
          "time": 102.66656400000018,
          "velocity": 1,
          "duration": 1.3333319999999986
        },
        {
          "name": "A#4",
          "midi": 70,
          "time": 104.66656200000018,
          "velocity": 1,
          "duration": 0.3333329999999961
        },
        {
          "name": "C5",
          "midi": 72,
          "time": 104.99989500000018,
          "velocity": 1,
          "duration": 0.3333329999999961
        },
        {
          "name": "D5",
          "midi": 74,
          "time": 105.33322800000018,
          "velocity": 1,
          "duration": 0.6666660000000064
        },
        {
          "name": "C5",
          "midi": 72,
          "time": 105.99989400000018,
          "velocity": 1,
          "duration": 0.6666660000000064
        },
        {
          "name": "A#4",
          "midi": 70,
          "time": 106.66656000000019,
          "velocity": 1,
          "duration": 0.6666660000000064
        },
        {
          "name": "A4",
          "midi": 69,
          "time": 107.3332260000002,
          "velocity": 1,
          "duration": 0.3333329999999961
        },
        {
          "name": "A#4",
          "midi": 70,
          "time": 107.66655900000019,
          "velocity": 1,
          "duration": 0.3333329999999961
        },
        {
          "name": "C5",
          "midi": 72,
          "time": 107.99989200000019,
          "velocity": 1,
          "duration": 0.3333329999999961
        },
        {
          "name": "A#4",
          "midi": 70,
          "time": 108.33322500000018,
          "velocity": 1,
          "duration": 0.3333329999999961
        },
        {
          "name": "A4",
          "midi": 69,
          "time": 108.66655800000018,
          "velocity": 1,
          "duration": 0.3333329999999961
        },
        {
          "name": "G4",
          "midi": 67,
          "time": 108.99989100000018,
          "velocity": 1,
          "duration": 0.3333329999999961
        },
        {
          "name": "F4",
          "midi": 65,
          "time": 109.33322400000017,
          "velocity": 1,
          "duration": 0.6666660000000064
        },
        {
          "name": "G4",
          "midi": 67,
          "time": 110.66655600000018,
          "velocity": 1,
          "duration": 0.6666660000000064
        },
        {
          "name": "A4",
          "midi": 69,
          "time": 111.33322200000019,
          "velocity": 1,
          "duration": 0.6666660000000064
        },
        {
          "name": "A#4",
          "midi": 70,
          "time": 111.9998880000002,
          "velocity": 1,
          "duration": 0.3333329999999961
        },
        {
          "name": "C5",
          "midi": 72,
          "time": 112.3332210000002,
          "velocity": 1,
          "duration": 0.3333329999999961
        },
        {
          "name": "D5",
          "midi": 74,
          "time": 112.66655400000019,
          "velocity": 1,
          "duration": 0.3333329999999961
        },
        {
          "name": "A#4",
          "midi": 70,
          "time": 112.99988700000019,
          "velocity": 1,
          "duration": 0.3333329999999961
        },
        {
          "name": "G4",
          "midi": 67,
          "time": 113.33322000000018,
          "velocity": 1,
          "duration": 0.3333329999999961
        },
        {
          "name": "A4",
          "midi": 69,
          "time": 113.66655300000018,
          "velocity": 1,
          "duration": 0.3333329999999961
        },
        {
          "name": "A#4",
          "midi": 70,
          "time": 113.99988600000017,
          "velocity": 1,
          "duration": 0.3333329999999961
        },
        {
          "name": "B4",
          "midi": 71,
          "time": 114.33321900000017,
          "velocity": 1,
          "duration": 0.3333329999999961
        },
        {
          "name": "C5",
          "midi": 72,
          "time": 114.66655200000017,
          "velocity": 1,
          "duration": 0.3333329999999961
        },
        {
          "name": "A#4",
          "midi": 70,
          "time": 115.33321800000016,
          "velocity": 1,
          "duration": 0.3333329999999961
        },
        {
          "name": "C5",
          "midi": 72,
          "time": 115.66655100000015,
          "velocity": 1,
          "duration": 0.3333329999999961
        },
        {
          "name": "D5",
          "midi": 74,
          "time": 115.99988400000015,
          "velocity": 1,
          "duration": 0.6666660000000064
        },
        {
          "name": "C5",
          "midi": 72,
          "time": 116.66655000000016,
          "velocity": 1,
          "duration": 0.3333329999999961
        },
        {
          "name": "A#4",
          "midi": 70,
          "time": 116.99988300000015,
          "velocity": 1,
          "duration": 0.3333329999999961
        },
        {
          "name": "A4",
          "midi": 69,
          "time": 117.33321600000015,
          "velocity": 1,
          "duration": 0.6666660000000064
        },
        {
          "name": "G4",
          "midi": 67,
          "time": 117.99988200000016,
          "velocity": 1,
          "duration": 0.3333329999999961
        },
        {
          "name": "F4",
          "midi": 65,
          "time": 118.33321500000015,
          "velocity": 1,
          "duration": 0.3333329999999961
        },
        {
          "name": "G4",
          "midi": 67,
          "time": 118.66654800000015,
          "velocity": 1,
          "duration": 0.3333329999999961
        },
        {
          "name": "A4",
          "midi": 69,
          "time": 118.99988100000014,
          "velocity": 1,
          "duration": 0.3333329999999961
        },
        {
          "name": "A#4",
          "midi": 70,
          "time": 119.33321400000014,
          "velocity": 1,
          "duration": 0.3333329999999961
        },
        {
          "name": "C5",
          "midi": 72,
          "time": 119.66654700000014,
          "velocity": 1,
          "duration": 0.3333329999999961
        },
        {
          "name": "A#4",
          "midi": 70,
          "time": 119.99988000000013,
          "velocity": 1,
          "duration": 0.6666660000000064
        },
        {
          "name": "G4",
          "midi": 67,
          "time": 121.33321200000015,
          "velocity": 1,
          "duration": 0.6666660000000064
        },
        {
          "name": "A4",
          "midi": 69,
          "time": 121.99987800000015,
          "velocity": 1,
          "duration": 0.6666660000000064
        },
        {
          "name": "A#4",
          "midi": 70,
          "time": 122.66654400000016,
          "velocity": 1,
          "duration": 0.3333329999999961
        },
        {
          "name": "C5",
          "midi": 72,
          "time": 122.99987700000015,
          "velocity": 1,
          "duration": 0.3333329999999961
        },
        {
          "name": "D5",
          "midi": 74,
          "time": 123.33321000000015,
          "velocity": 1,
          "duration": 0.3333329999999961
        },
        {
          "name": "D#5",
          "midi": 75,
          "time": 123.66654300000015,
          "velocity": 1,
          "duration": 0.3333329999999961
        },
        {
          "name": "C5",
          "midi": 72,
          "time": 123.99987600000014,
          "velocity": 1,
          "duration": 1.999998000000005
        },
        {
          "name": "D4",
          "midi": 62,
          "time": 126.66654000000015,
          "velocity": 1,
          "duration": 0.16666650000000516
        },
        {
          "name": "F4",
          "midi": 65,
          "time": 126.66654000000015,
          "velocity": 1,
          "duration": 0.16666650000000516
        },
        {
          "name": "A#4",
          "midi": 70,
          "time": 126.66654000000015,
          "velocity": 1,
          "duration": 0.16666650000000516
        },
        {
          "name": "A#4",
          "midi": 70,
          "time": 127.16653950000016,
          "velocity": 1,
          "duration": 0.16666650000000516
        },
        {
          "name": "D4",
          "midi": 62,
          "time": 127.16653950000016,
          "velocity": 1,
          "duration": 0.16666650000000516
        },
        {
          "name": "F4",
          "midi": 65,
          "time": 127.16653950000016,
          "velocity": 1,
          "duration": 0.16666650000000516
        },
        {
          "name": "F4",
          "midi": 65,
          "time": 127.66653900000016,
          "velocity": 1,
          "duration": 0.16666650000000516
        },
        {
          "name": "A#4",
          "midi": 70,
          "time": 127.66653900000016,
          "velocity": 1,
          "duration": 0.16666650000000516
        },
        {
          "name": "D4",
          "midi": 62,
          "time": 127.66653900000016,
          "velocity": 1,
          "duration": 0.16666650000000516
        },
        {
          "name": "A#4",
          "midi": 70,
          "time": 128.16653850000017,
          "velocity": 1,
          "duration": 0.08333325000000968
        },
        {
          "name": "D4",
          "midi": 62,
          "time": 128.16653850000017,
          "velocity": 1,
          "duration": 0.08333325000000968
        },
        {
          "name": "F4",
          "midi": 65,
          "time": 128.16653850000017,
          "velocity": 1,
          "duration": 0.08333325000000968
        },
        {
          "name": "F4",
          "midi": 65,
          "time": 128.3332050000002,
          "velocity": 1,
          "duration": 0.08333325000000968
        },
        {
          "name": "D4",
          "midi": 62,
          "time": 128.3332050000002,
          "velocity": 1,
          "duration": 0.08333325000000968
        },
        {
          "name": "A#4",
          "midi": 70,
          "time": 128.3332050000002,
          "velocity": 1,
          "duration": 0.08333325000000968
        },
        {
          "name": "A#4",
          "midi": 70,
          "time": 128.4998715000002,
          "velocity": 1,
          "duration": 0.08333325000000968
        },
        {
          "name": "D4",
          "midi": 62,
          "time": 128.4998715000002,
          "velocity": 1,
          "duration": 0.08333325000000968
        },
        {
          "name": "F4",
          "midi": 65,
          "time": 128.4998715000002,
          "velocity": 1,
          "duration": 0.08333325000000968
        },
        {
          "name": "A#4",
          "midi": 70,
          "time": 128.66653800000023,
          "velocity": 1,
          "duration": 0.08333325000000968
        },
        {
          "name": "D4",
          "midi": 62,
          "time": 128.66653800000023,
          "velocity": 1,
          "duration": 0.08333325000000968
        },
        {
          "name": "F4",
          "midi": 65,
          "time": 128.66653800000023,
          "velocity": 1,
          "duration": 0.08333325000000968
        }
      ],
      "controlChanges": {
        "6": [
          {
            "number": 6,
            "time": 0,
            "value": 0.09448818897637795
          },
          {
            "number": 6,
            "time": 0,
            "value": 0.09448818897637795
          },
          {
            "number": 6,
            "time": 0,
            "value": 0.09448818897637795
          },
          {
            "number": 6,
            "time": 129.33320400000025,
            "value": 0.09448818897637795
          },
          {
            "number": 6,
            "time": 131.06931337500026,
            "value": 0.09448818897637795
          }
        ],
        "7": [
          {
            "number": 7,
            "time": 0,
            "value": 0.7874015748031497
          },
          {
            "number": 7,
            "time": 0,
            "value": 0.7874015748031497
          },
          {
            "number": 7,
            "time": 0,
            "value": 0.7874015748031497
          },
          {
            "number": 7,
            "time": 0,
            "value": 0.7874015748031497
          },
          {
            "number": 7,
            "time": 0,
            "value": 0.7874015748031497
          },
          {
            "number": 7,
            "time": 0,
            "value": 0.7874015748031497
          },
          {
            "number": 7,
            "time": 129.33320400000025,
            "value": 0.7874015748031497
          },
          {
            "number": 7,
            "time": 131.06584115625026,
            "value": 0.7874015748031497
          },
          {
            "number": 7,
            "time": 131.06931337500026,
            "value": 0.7874015748031497
          }
        ],
        "10": [
          {
            "number": 10,
            "time": 0,
            "value": 0.5039370078740157
          },
          {
            "number": 10,
            "time": 0,
            "value": 0.5039370078740157
          },
          {
            "number": 10,
            "time": 0,
            "value": 0.5039370078740157
          },
          {
            "number": 10,
            "time": 0,
            "value": 0.5039370078740157
          },
          {
            "number": 10,
            "time": 0,
            "value": 0.5039370078740157
          },
          {
            "number": 10,
            "time": 0,
            "value": 0.5039370078740157
          },
          {
            "number": 10,
            "time": 129.33320400000025,
            "value": 0.5039370078740157
          },
          {
            "number": 10,
            "time": 131.06584115625026,
            "value": 0.5039370078740157
          },
          {
            "number": 10,
            "time": 131.06931337500026,
            "value": 0.5039370078740157
          }
        ],
        "100": [
          {
            "number": 100,
            "time": 0,
            "value": 0
          },
          {
            "number": 100,
            "time": 0,
            "value": 0
          },
          {
            "number": 100,
            "time": 0,
            "value": 0
          },
          {
            "number": 100,
            "time": 129.33320400000025,
            "value": 0
          },
          {
            "number": 100,
            "time": 131.06931337500026,
            "value": 0
          }
        ],
        "101": [
          {
            "number": 101,
            "time": 0,
            "value": 0
          },
          {
            "number": 101,
            "time": 0,
            "value": 0
          },
          {
            "number": 101,
            "time": 0,
            "value": 0
          },
          {
            "number": 101,
            "time": 129.33320400000025,
            "value": 0
          },
          {
            "number": 101,
            "time": 131.06931337500026,
            "value": 0
          }
        ]
      },
      "id": 3,
      "name": "Vocal",
      "instrumentNumber": 52,
      "instrument": "choir aahs",
      "instrumentFamily": "ensemble",
      "channelNumber": 1,
      "isPercussion": false
    },
    {
      "startTime": 0,
      "duration": 128.83320449999766,
      "length": 2060,
      "notes": [
        {
          "name": "G1",
          "midi": 31,
          "time": 0,
          "velocity": 0.7874015748031497,
          "duration": 1.333332
        },
        {
          "name": "D2",
          "midi": 38,
          "time": 1.333332,
          "velocity": 0.7874015748031497,
          "duration": 1.333332
        },
        {
          "name": "D#2",
          "midi": 39,
          "time": 2.666664,
          "velocity": 0.7874015748031497,
          "duration": 1.333332
        },
        {
          "name": "A#1",
          "midi": 34,
          "time": 3.999996,
          "velocity": 0.7874015748031497,
          "duration": 1.333332
        },
        {
          "name": "D#2",
          "midi": 39,
          "time": 5.333328,
          "velocity": 0.7874015748031497,
          "duration": 1.3333320000000004
        },
        {
          "name": "A#5",
          "midi": 82,
          "time": 5.333328,
          "velocity": 0.7874015748031497,
          "duration": 1.3333320000000004
        },
        {
          "name": "D#3",
          "midi": 51,
          "time": 5.333328,
          "velocity": 0.7874015748031497,
          "duration": 1.3333320000000004
        },
        {
          "name": "A#1",
          "midi": 34,
          "time": 6.66666,
          "velocity": 0.7874015748031497,
          "duration": 0.33333299999999966
        },
        {
          "name": "A#2",
          "midi": 46,
          "time": 6.66666,
          "velocity": 0.7874015748031497,
          "duration": 0.6666659999999993
        },
        {
          "name": "D6",
          "midi": 86,
          "time": 6.66666,
          "velocity": 0.7874015748031497,
          "duration": 0.6666659999999993
        },
        {
          "name": "C2",
          "midi": 36,
          "time": 6.999993,
          "velocity": 0.7874015748031497,
          "duration": 0.33333299999999966
        },
        {
          "name": "D2",
          "midi": 38,
          "time": 7.333326,
          "velocity": 0.7874015748031497,
          "duration": 0.33333299999999966
        },
        {
          "name": "D#3",
          "midi": 51,
          "time": 7.333326,
          "velocity": 0.7874015748031497,
          "duration": 0.33333299999999966
        },
        {
          "name": "A#5",
          "midi": 82,
          "time": 7.333326,
          "velocity": 0.7874015748031497,
          "duration": 0.33333299999999966
        },
        {
          "name": "D#2",
          "midi": 39,
          "time": 7.666658999999999,
          "velocity": 0.7874015748031497,
          "duration": 0.33333299999999966
        },
        {
          "name": "B5",
          "midi": 83,
          "time": 7.666658999999999,
          "velocity": 0.7874015748031497,
          "duration": 0.33333299999999966
        },
        {
          "name": "E3",
          "midi": 52,
          "time": 7.666658999999999,
          "velocity": 0.7874015748031497,
          "duration": 0.33333299999999966
        },
        {
          "name": "F2",
          "midi": 41,
          "time": 7.999991999999999,
          "velocity": 0.7874015748031497,
          "duration": 1.3333320000000004
        },
        {
          "name": "C6",
          "midi": 84,
          "time": 7.999991999999999,
          "velocity": 0.7874015748031497,
          "duration": 1.3333320000000004
        },
        {
          "name": "F3",
          "midi": 53,
          "time": 7.999991999999999,
          "velocity": 0.7874015748031497,
          "duration": 1.3333320000000004
        },
        {
          "name": "F2",
          "midi": 41,
          "time": 9.333324,
          "velocity": 0.7874015748031497,
          "duration": 0.16666649999999983
        },
        {
          "name": "C6",
          "midi": 84,
          "time": 9.333324,
          "velocity": 0.7874015748031497,
          "duration": 1.3333320000000022
        },
        {
          "name": "F3",
          "midi": 53,
          "time": 9.4999905,
          "velocity": 0.7874015748031497,
          "duration": 0.16666649999999983
        },
        {
          "name": "F2",
          "midi": 41,
          "time": 9.666656999999999,
          "velocity": 0.7874015748031497,
          "duration": 0.16666649999999983
        },
        {
          "name": "F3",
          "midi": 53,
          "time": 9.833323499999999,
          "velocity": 0.7874015748031497,
          "duration": 0.16666649999999983
        },
        {
          "name": "F2",
          "midi": 41,
          "time": 9.999989999999999,
          "velocity": 0.7874015748031497,
          "duration": 0.0833332500000008
        },
        {
          "name": "F3",
          "midi": 53,
          "time": 10.08332325,
          "velocity": 0.7874015748031497,
          "duration": 0.0833332500000008
        },
        {
          "name": "F2",
          "midi": 41,
          "time": 10.1666565,
          "velocity": 0.7874015748031497,
          "duration": 0.0833332500000008
        },
        {
          "name": "F3",
          "midi": 53,
          "time": 10.249989750000001,
          "velocity": 0.7874015748031497,
          "duration": 0.0833332500000008
        },
        {
          "name": "F2",
          "midi": 41,
          "time": 10.333323000000002,
          "velocity": 0.7874015748031497,
          "duration": 0.16666649999999983
        },
        {
          "name": "A#3",
          "midi": 58,
          "time": 10.666656000000001,
          "velocity": 0.7874015748031497,
          "duration": 0.0833332500000008
        },
        {
          "name": "A#4",
          "midi": 70,
          "time": 10.666656000000001,
          "velocity": 0.7874015748031497,
          "duration": 0.0833332500000008
        },
        {
          "name": "D5",
          "midi": 74,
          "time": 10.666656000000001,
          "velocity": 0.7874015748031497,
          "duration": 0.0833332500000008
        },
        {
          "name": "A#1",
          "midi": 34,
          "time": 10.666656000000001,
          "velocity": 0.7874015748031497,
          "duration": 0.3333330000000032
        },
        {
          "name": "D6",
          "midi": 86,
          "time": 10.666656000000001,
          "velocity": 0.7874015748031497,
          "duration": 1.3333320000000128
        },
        {
          "name": "A#2",
          "midi": 46,
          "time": 10.666656000000001,
          "velocity": 0.7874015748031497,
          "duration": 1.3333320000000128
        },
        {
          "name": "A#3",
          "midi": 58,
          "time": 10.833322500000003,
          "velocity": 0.7874015748031497,
          "duration": 0.0833332500000008
        },
        {
          "name": "A#4",
          "midi": 70,
          "time": 10.833322500000003,
          "velocity": 0.7874015748031497,
          "duration": 0.0833332500000008
        },
        {
          "name": "D5",
          "midi": 74,
          "time": 10.833322500000003,
          "velocity": 0.7874015748031497,
          "duration": 0.0833332500000008
        },
        {
          "name": "A#3",
          "midi": 58,
          "time": 10.999989000000005,
          "velocity": 0.7874015748031497,
          "duration": 0.0833332500000008
        },
        {
          "name": "A#1",
          "midi": 34,
          "time": 10.999989000000005,
          "velocity": 0.7874015748031497,
          "duration": 0.1666665000000016
        },
        {
          "name": "A#3",
          "midi": 58,
          "time": 11.166655500000006,
          "velocity": 0.7874015748031497,
          "duration": 0.0833332500000008
        },
        {
          "name": "A#4",
          "midi": 70,
          "time": 11.166655500000006,
          "velocity": 0.7874015748031497,
          "duration": 0.0833332500000008
        },
        {
          "name": "D5",
          "midi": 74,
          "time": 11.166655500000006,
          "velocity": 0.7874015748031497,
          "duration": 0.0833332500000008
        },
        {
          "name": "A#1",
          "midi": 34,
          "time": 11.166655500000006,
          "velocity": 0.7874015748031497,
          "duration": 0.1666665000000016
        },
        {
          "name": "A#3",
          "midi": 58,
          "time": 11.333322000000008,
          "velocity": 0.7874015748031497,
          "duration": 0.0833332500000008
        },
        {
          "name": "A#4",
          "midi": 70,
          "time": 11.333322000000008,
          "velocity": 0.7874015748031497,
          "duration": 0.0833332500000008
        },
        {
          "name": "D5",
          "midi": 74,
          "time": 11.333322000000008,
          "velocity": 0.7874015748031497,
          "duration": 0.0833332500000008
        },
        {
          "name": "A#1",
          "midi": 34,
          "time": 11.333322000000008,
          "velocity": 0.7874015748031497,
          "duration": 0.1666665000000016
        },
        {
          "name": "A#3",
          "midi": 58,
          "time": 11.49998850000001,
          "velocity": 0.7874015748031497,
          "duration": 0.0833332500000008
        },
        {
          "name": "A#1",
          "midi": 34,
          "time": 11.49998850000001,
          "velocity": 0.7874015748031497,
          "duration": 0.1666665000000016
        },
        {
          "name": "A#3",
          "midi": 58,
          "time": 11.666655000000011,
          "velocity": 0.7874015748031497,
          "duration": 0.0833332500000008
        },
        {
          "name": "A#4",
          "midi": 70,
          "time": 11.666655000000011,
          "velocity": 0.7874015748031497,
          "duration": 0.0833332500000008
        },
        {
          "name": "D5",
          "midi": 74,
          "time": 11.666655000000011,
          "velocity": 0.7874015748031497,
          "duration": 0.0833332500000008
        },
        {
          "name": "A#1",
          "midi": 34,
          "time": 11.666655000000011,
          "velocity": 0.7874015748031497,
          "duration": 0.3333330000000032
        },
        {
          "name": "A#3",
          "midi": 58,
          "time": 11.833321500000013,
          "velocity": 0.7874015748031497,
          "duration": 0.0833332500000008
        },
        {
          "name": "A#4",
          "midi": 70,
          "time": 11.833321500000013,
          "velocity": 0.7874015748031497,
          "duration": 0.0833332500000008
        },
        {
          "name": "D5",
          "midi": 74,
          "time": 11.833321500000013,
          "velocity": 0.7874015748031497,
          "duration": 0.0833332500000008
        },
        {
          "name": "D#4",
          "midi": 63,
          "time": 11.999988000000014,
          "velocity": 0.7874015748031497,
          "duration": 0.0833332500000008
        },
        {
          "name": "G4",
          "midi": 67,
          "time": 11.999988000000014,
          "velocity": 0.7874015748031497,
          "duration": 0.0833332500000008
        },
        {
          "name": "A#4",
          "midi": 70,
          "time": 11.999988000000014,
          "velocity": 0.7874015748031497,
          "duration": 0.0833332500000008
        },
        {
          "name": "D#2",
          "midi": 39,
          "time": 11.999988000000014,
          "velocity": 0.7874015748031497,
          "duration": 0.3333330000000032
        },
        {
          "name": "D#3",
          "midi": 51,
          "time": 11.999988000000014,
          "velocity": 0.7874015748031497,
          "duration": 1.3333320000000128
        },
        {
          "name": "A#5",
          "midi": 82,
          "time": 11.999988000000014,
          "velocity": 0.7874015748031497,
          "duration": 1.3333320000000128
        },
        {
          "name": "D#4",
          "midi": 63,
          "time": 12.166654500000016,
          "velocity": 0.7874015748031497,
          "duration": 0.0833332500000008
        },
        {
          "name": "G4",
          "midi": 67,
          "time": 12.166654500000016,
          "velocity": 0.7874015748031497,
          "duration": 0.0833332500000008
        },
        {
          "name": "A#4",
          "midi": 70,
          "time": 12.166654500000016,
          "velocity": 0.7874015748031497,
          "duration": 0.0833332500000008
        },
        {
          "name": "D#4",
          "midi": 63,
          "time": 12.333321000000018,
          "velocity": 0.7874015748031497,
          "duration": 0.0833332500000008
        },
        {
          "name": "D#2",
          "midi": 39,
          "time": 12.333321000000018,
          "velocity": 0.7874015748031497,
          "duration": 0.1666665000000016
        },
        {
          "name": "D#4",
          "midi": 63,
          "time": 12.49998750000002,
          "velocity": 0.7874015748031497,
          "duration": 0.0833332500000008
        },
        {
          "name": "G4",
          "midi": 67,
          "time": 12.49998750000002,
          "velocity": 0.7874015748031497,
          "duration": 0.0833332500000008
        },
        {
          "name": "A#4",
          "midi": 70,
          "time": 12.49998750000002,
          "velocity": 0.7874015748031497,
          "duration": 0.0833332500000008
        },
        {
          "name": "D#2",
          "midi": 39,
          "time": 12.49998750000002,
          "velocity": 0.7874015748031497,
          "duration": 0.1666665000000016
        },
        {
          "name": "D#4",
          "midi": 63,
          "time": 12.66665400000002,
          "velocity": 0.7874015748031497,
          "duration": 0.0833332500000008
        },
        {
          "name": "G4",
          "midi": 67,
          "time": 12.66665400000002,
          "velocity": 0.7874015748031497,
          "duration": 0.0833332500000008
        },
        {
          "name": "A#4",
          "midi": 70,
          "time": 12.66665400000002,
          "velocity": 0.7874015748031497,
          "duration": 0.0833332500000008
        },
        {
          "name": "D#2",
          "midi": 39,
          "time": 12.66665400000002,
          "velocity": 0.7874015748031497,
          "duration": 0.1666665000000016
        },
        {
          "name": "D#4",
          "midi": 63,
          "time": 12.833320500000022,
          "velocity": 0.7874015748031497,
          "duration": 0.0833332500000008
        },
        {
          "name": "D#2",
          "midi": 39,
          "time": 12.833320500000022,
          "velocity": 0.7874015748031497,
          "duration": 0.1666665000000016
        },
        {
          "name": "D#4",
          "midi": 63,
          "time": 12.999987000000024,
          "velocity": 0.7874015748031497,
          "duration": 0.0833332500000008
        },
        {
          "name": "G4",
          "midi": 67,
          "time": 12.999987000000024,
          "velocity": 0.7874015748031497,
          "duration": 0.0833332500000008
        },
        {
          "name": "A#4",
          "midi": 70,
          "time": 12.999987000000024,
          "velocity": 0.7874015748031497,
          "duration": 0.0833332500000008
        },
        {
          "name": "D#2",
          "midi": 39,
          "time": 12.999987000000024,
          "velocity": 0.7874015748031497,
          "duration": 0.3333330000000032
        },
        {
          "name": "D#4",
          "midi": 63,
          "time": 13.166653500000026,
          "velocity": 0.7874015748031497,
          "duration": 0.0833332500000008
        },
        {
          "name": "G4",
          "midi": 67,
          "time": 13.166653500000026,
          "velocity": 0.7874015748031497,
          "duration": 0.0833332500000008
        },
        {
          "name": "A#4",
          "midi": 70,
          "time": 13.166653500000026,
          "velocity": 0.7874015748031497,
          "duration": 0.0833332500000008
        },
        {
          "name": "F4",
          "midi": 65,
          "time": 13.333320000000027,
          "velocity": 0.7874015748031497,
          "duration": 0.0833332500000008
        },
        {
          "name": "A4",
          "midi": 69,
          "time": 13.333320000000027,
          "velocity": 0.7874015748031497,
          "duration": 0.0833332500000008
        },
        {
          "name": "C5",
          "midi": 72,
          "time": 13.333320000000027,
          "velocity": 0.7874015748031497,
          "duration": 0.0833332500000008
        },
        {
          "name": "F2",
          "midi": 41,
          "time": 13.333320000000027,
          "velocity": 0.7874015748031497,
          "duration": 0.3333330000000032
        },
        {
          "name": "C6",
          "midi": 84,
          "time": 13.333320000000027,
          "velocity": 0.7874015748031497,
          "duration": 1.3333320000000128
        },
        {
          "name": "F3",
          "midi": 53,
          "time": 13.333320000000027,
          "velocity": 0.7874015748031497,
          "duration": 1.3333320000000128
        },
        {
          "name": "F4",
          "midi": 65,
          "time": 13.499986500000029,
          "velocity": 0.7874015748031497,
          "duration": 0.0833332500000008
        },
        {
          "name": "A4",
          "midi": 69,
          "time": 13.499986500000029,
          "velocity": 0.7874015748031497,
          "duration": 0.0833332500000008
        },
        {
          "name": "C5",
          "midi": 72,
          "time": 13.499986500000029,
          "velocity": 0.7874015748031497,
          "duration": 0.0833332500000008
        },
        {
          "name": "F4",
          "midi": 65,
          "time": 13.66665300000003,
          "velocity": 0.7874015748031497,
          "duration": 0.0833332500000008
        },
        {
          "name": "F2",
          "midi": 41,
          "time": 13.66665300000003,
          "velocity": 0.7874015748031497,
          "duration": 0.1666665000000016
        },
        {
          "name": "F4",
          "midi": 65,
          "time": 13.833319500000032,
          "velocity": 0.7874015748031497,
          "duration": 0.0833332500000008
        },
        {
          "name": "A4",
          "midi": 69,
          "time": 13.833319500000032,
          "velocity": 0.7874015748031497,
          "duration": 0.0833332500000008
        },
        {
          "name": "C5",
          "midi": 72,
          "time": 13.833319500000032,
          "velocity": 0.7874015748031497,
          "duration": 0.0833332500000008
        },
        {
          "name": "F2",
          "midi": 41,
          "time": 13.833319500000032,
          "velocity": 0.7874015748031497,
          "duration": 0.1666665000000016
        },
        {
          "name": "F4",
          "midi": 65,
          "time": 13.999986000000034,
          "velocity": 0.7874015748031497,
          "duration": 0.0833332500000008
        },
        {
          "name": "A4",
          "midi": 69,
          "time": 13.999986000000034,
          "velocity": 0.7874015748031497,
          "duration": 0.0833332500000008
        },
        {
          "name": "C5",
          "midi": 72,
          "time": 13.999986000000034,
          "velocity": 0.7874015748031497,
          "duration": 0.0833332500000008
        },
        {
          "name": "F2",
          "midi": 41,
          "time": 13.999986000000034,
          "velocity": 0.7874015748031497,
          "duration": 0.1666665000000016
        },
        {
          "name": "F4",
          "midi": 65,
          "time": 14.166652500000035,
          "velocity": 0.7874015748031497,
          "duration": 0.0833332500000008
        },
        {
          "name": "F2",
          "midi": 41,
          "time": 14.166652500000035,
          "velocity": 0.7874015748031497,
          "duration": 0.1666665000000016
        },
        {
          "name": "F4",
          "midi": 65,
          "time": 14.333319000000037,
          "velocity": 0.7874015748031497,
          "duration": 0.0833332500000008
        },
        {
          "name": "A4",
          "midi": 69,
          "time": 14.333319000000037,
          "velocity": 0.7874015748031497,
          "duration": 0.0833332500000008
        },
        {
          "name": "C5",
          "midi": 72,
          "time": 14.333319000000037,
          "velocity": 0.7874015748031497,
          "duration": 0.0833332500000008
        },
        {
          "name": "F2",
          "midi": 41,
          "time": 14.333319000000037,
          "velocity": 0.7874015748031497,
          "duration": 0.3333330000000032
        },
        {
          "name": "F4",
          "midi": 65,
          "time": 14.499985500000038,
          "velocity": 0.7874015748031497,
          "duration": 0.0833332500000008
        },
        {
          "name": "A4",
          "midi": 69,
          "time": 14.499985500000038,
          "velocity": 0.7874015748031497,
          "duration": 0.0833332500000008
        },
        {
          "name": "C5",
          "midi": 72,
          "time": 14.499985500000038,
          "velocity": 0.7874015748031497,
          "duration": 0.0833332500000008
        },
        {
          "name": "G3",
          "midi": 55,
          "time": 14.66665200000004,
          "velocity": 0.7874015748031497,
          "duration": 0.0833332500000008
        },
        {
          "name": "G4",
          "midi": 67,
          "time": 14.66665200000004,
          "velocity": 0.7874015748031497,
          "duration": 0.0833332500000008
        },
        {
          "name": "A#4",
          "midi": 70,
          "time": 14.66665200000004,
          "velocity": 0.7874015748031497,
          "duration": 0.0833332500000008
        },
        {
          "name": "G1",
          "midi": 31,
          "time": 14.66665200000004,
          "velocity": 0.7874015748031497,
          "duration": 0.3333330000000032
        },
        {
          "name": "G2",
          "midi": 43,
          "time": 14.66665200000004,
          "velocity": 0.7874015748031497,
          "duration": 1.3333320000000128
        },
        {
          "name": "A#5",
          "midi": 82,
          "time": 14.66665200000004,
          "velocity": 0.7874015748031497,
          "duration": 1.3333320000000128
        },
        {
          "name": "G3",
          "midi": 55,
          "time": 14.833318500000042,
          "velocity": 0.7874015748031497,
          "duration": 0.0833332500000008
        },
        {
          "name": "G4",
          "midi": 67,
          "time": 14.833318500000042,
          "velocity": 0.7874015748031497,
          "duration": 0.0833332500000008
        },
        {
          "name": "A#4",
          "midi": 70,
          "time": 14.833318500000042,
          "velocity": 0.7874015748031497,
          "duration": 0.0833332500000008
        },
        {
          "name": "G3",
          "midi": 55,
          "time": 14.999985000000043,
          "velocity": 0.7874015748031497,
          "duration": 0.0833332500000008
        },
        {
          "name": "G1",
          "midi": 31,
          "time": 14.999985000000043,
          "velocity": 0.7874015748031497,
          "duration": 0.1666665000000016
        },
        {
          "name": "G3",
          "midi": 55,
          "time": 15.166651500000045,
          "velocity": 0.7874015748031497,
          "duration": 0.0833332500000008
        },
        {
          "name": "G4",
          "midi": 67,
          "time": 15.166651500000045,
          "velocity": 0.7874015748031497,
          "duration": 0.0833332500000008
        },
        {
          "name": "A#4",
          "midi": 70,
          "time": 15.166651500000045,
          "velocity": 0.7874015748031497,
          "duration": 0.0833332500000008
        },
        {
          "name": "G1",
          "midi": 31,
          "time": 15.166651500000045,
          "velocity": 0.7874015748031497,
          "duration": 0.1666665000000016
        },
        {
          "name": "G3",
          "midi": 55,
          "time": 15.333318000000046,
          "velocity": 0.7874015748031497,
          "duration": 0.0833332500000008
        },
        {
          "name": "G4",
          "midi": 67,
          "time": 15.333318000000046,
          "velocity": 0.7874015748031497,
          "duration": 0.0833332500000008
        },
        {
          "name": "A#4",
          "midi": 70,
          "time": 15.333318000000046,
          "velocity": 0.7874015748031497,
          "duration": 0.0833332500000008
        },
        {
          "name": "G1",
          "midi": 31,
          "time": 15.333318000000046,
          "velocity": 0.7874015748031497,
          "duration": 0.1666665000000016
        },
        {
          "name": "G3",
          "midi": 55,
          "time": 15.499984500000048,
          "velocity": 0.7874015748031497,
          "duration": 0.0833332500000008
        },
        {
          "name": "G1",
          "midi": 31,
          "time": 15.499984500000048,
          "velocity": 0.7874015748031497,
          "duration": 0.1666665000000016
        },
        {
          "name": "G3",
          "midi": 55,
          "time": 15.66665100000005,
          "velocity": 0.7874015748031497,
          "duration": 0.0833332500000008
        },
        {
          "name": "G4",
          "midi": 67,
          "time": 15.66665100000005,
          "velocity": 0.7874015748031497,
          "duration": 0.0833332500000008
        },
        {
          "name": "A#4",
          "midi": 70,
          "time": 15.66665100000005,
          "velocity": 0.7874015748031497,
          "duration": 0.0833332500000008
        },
        {
          "name": "G1",
          "midi": 31,
          "time": 15.66665100000005,
          "velocity": 0.7874015748031497,
          "duration": 0.3333330000000032
        },
        {
          "name": "G3",
          "midi": 55,
          "time": 15.833317500000051,
          "velocity": 0.7874015748031497,
          "duration": 0.0833332500000008
        },
        {
          "name": "G4",
          "midi": 67,
          "time": 15.833317500000051,
          "velocity": 0.7874015748031497,
          "duration": 0.0833332500000008
        },
        {
          "name": "A#4",
          "midi": 70,
          "time": 15.833317500000051,
          "velocity": 0.7874015748031497,
          "duration": 0.0833332500000008
        },
        {
          "name": "D#4",
          "midi": 63,
          "time": 15.999984000000053,
          "velocity": 0.7874015748031497,
          "duration": 0.0833332500000008
        },
        {
          "name": "G4",
          "midi": 67,
          "time": 15.999984000000053,
          "velocity": 0.7874015748031497,
          "duration": 0.0833332500000008
        },
        {
          "name": "A#4",
          "midi": 70,
          "time": 15.999984000000053,
          "velocity": 0.7874015748031497,
          "duration": 0.0833332500000008
        },
        {
          "name": "D#2",
          "midi": 39,
          "time": 15.999984000000053,
          "velocity": 0.7874015748031497,
          "duration": 0.3333329999999979
        },
        {
          "name": "D#3",
          "midi": 51,
          "time": 15.999984000000053,
          "velocity": 0.7874015748031497,
          "duration": 0.666665999999994
        },
        {
          "name": "A#5",
          "midi": 82,
          "time": 15.999984000000053,
          "velocity": 0.7874015748031497,
          "duration": 0.666665999999994
        },
        {
          "name": "D#4",
          "midi": 63,
          "time": 16.166650500000053,
          "velocity": 0.7874015748031497,
          "duration": 0.08333324999999903
        },
        {
          "name": "G4",
          "midi": 67,
          "time": 16.166650500000053,
          "velocity": 0.7874015748031497,
          "duration": 0.08333324999999903
        },
        {
          "name": "A#4",
          "midi": 70,
          "time": 16.166650500000053,
          "velocity": 0.7874015748031497,
          "duration": 0.08333324999999903
        },
        {
          "name": "D#4",
          "midi": 63,
          "time": 16.33331700000005,
          "velocity": 0.7874015748031497,
          "duration": 0.08333324999999903
        },
        {
          "name": "D#2",
          "midi": 39,
          "time": 16.33331700000005,
          "velocity": 0.7874015748031497,
          "duration": 0.16666649999999805
        },
        {
          "name": "D#4",
          "midi": 63,
          "time": 16.49998350000005,
          "velocity": 0.7874015748031497,
          "duration": 0.08333324999999903
        },
        {
          "name": "G4",
          "midi": 67,
          "time": 16.49998350000005,
          "velocity": 0.7874015748031497,
          "duration": 0.08333324999999903
        },
        {
          "name": "A#4",
          "midi": 70,
          "time": 16.49998350000005,
          "velocity": 0.7874015748031497,
          "duration": 0.08333324999999903
        },
        {
          "name": "D#2",
          "midi": 39,
          "time": 16.49998350000005,
          "velocity": 0.7874015748031497,
          "duration": 0.16666649999999805
        },
        {
          "name": "D4",
          "midi": 62,
          "time": 16.666650000000047,
          "velocity": 0.7874015748031497,
          "duration": 0.08333324999999903
        },
        {
          "name": "A#4",
          "midi": 70,
          "time": 16.666650000000047,
          "velocity": 0.7874015748031497,
          "duration": 0.08333324999999903
        },
        {
          "name": "D5",
          "midi": 74,
          "time": 16.666650000000047,
          "velocity": 0.7874015748031497,
          "duration": 0.08333324999999903
        },
        {
          "name": "A#1",
          "midi": 34,
          "time": 16.666650000000047,
          "velocity": 0.7874015748031497,
          "duration": 0.16666649999999805
        },
        {
          "name": "D6",
          "midi": 86,
          "time": 16.666650000000047,
          "velocity": 0.7874015748031497,
          "duration": 0.6666659999999922
        },
        {
          "name": "A#2",
          "midi": 46,
          "time": 16.666650000000047,
          "velocity": 0.7874015748031497,
          "duration": 0.6666659999999922
        },
        {
          "name": "D4",
          "midi": 62,
          "time": 16.833316500000045,
          "velocity": 0.7874015748031497,
          "duration": 0.08333324999999903
        },
        {
          "name": "A#1",
          "midi": 34,
          "time": 16.833316500000045,
          "velocity": 0.7874015748031497,
          "duration": 0.16666649999999805
        },
        {
          "name": "D4",
          "midi": 62,
          "time": 16.999983000000043,
          "velocity": 0.7874015748031497,
          "duration": 0.08333324999999903
        },
        {
          "name": "A#4",
          "midi": 70,
          "time": 16.999983000000043,
          "velocity": 0.7874015748031497,
          "duration": 0.08333324999999903
        },
        {
          "name": "D5",
          "midi": 74,
          "time": 16.999983000000043,
          "velocity": 0.7874015748031497,
          "duration": 0.08333324999999903
        },
        {
          "name": "A#1",
          "midi": 34,
          "time": 16.999983000000043,
          "velocity": 0.7874015748031497,
          "duration": 0.3333329999999961
        },
        {
          "name": "D4",
          "midi": 62,
          "time": 17.16664950000004,
          "velocity": 0.7874015748031497,
          "duration": 0.08333324999999903
        },
        {
          "name": "A#4",
          "midi": 70,
          "time": 17.16664950000004,
          "velocity": 0.7874015748031497,
          "duration": 0.08333324999999903
        },
        {
          "name": "D5",
          "midi": 74,
          "time": 17.16664950000004,
          "velocity": 0.7874015748031497,
          "duration": 0.08333324999999903
        },
        {
          "name": "C4",
          "midi": 60,
          "time": 17.33331600000004,
          "velocity": 0.7874015748031497,
          "duration": 0.08333324999999903
        },
        {
          "name": "A4",
          "midi": 69,
          "time": 17.33331600000004,
          "velocity": 0.7874015748031497,
          "duration": 0.08333324999999903
        },
        {
          "name": "C5",
          "midi": 72,
          "time": 17.33331600000004,
          "velocity": 0.7874015748031497,
          "duration": 0.08333324999999903
        },
        {
          "name": "F2",
          "midi": 41,
          "time": 17.33331600000004,
          "velocity": 0.7874015748031497,
          "duration": 0.3333329999999961
        },
        {
          "name": "F3",
          "midi": 53,
          "time": 17.33331600000004,
          "velocity": 0.7874015748031497,
          "duration": 0.6666659999999922
        },
        {
          "name": "C6",
          "midi": 84,
          "time": 17.33331600000004,
          "velocity": 0.7874015748031497,
          "duration": 0.6666659999999922
        },
        {
          "name": "C4",
          "midi": 60,
          "time": 17.499982500000037,
          "velocity": 0.7874015748031497,
          "duration": 0.08333324999999903
        },
        {
          "name": "A4",
          "midi": 69,
          "time": 17.499982500000037,
          "velocity": 0.7874015748031497,
          "duration": 0.08333324999999903
        },
        {
          "name": "C5",
          "midi": 72,
          "time": 17.499982500000037,
          "velocity": 0.7874015748031497,
          "duration": 0.08333324999999903
        },
        {
          "name": "C4",
          "midi": 60,
          "time": 17.666649000000035,
          "velocity": 0.7874015748031497,
          "duration": 0.08333324999999903
        },
        {
          "name": "F2",
          "midi": 41,
          "time": 17.666649000000035,
          "velocity": 0.7874015748031497,
          "duration": 0.16666649999999805
        },
        {
          "name": "C4",
          "midi": 60,
          "time": 17.833315500000033,
          "velocity": 0.7874015748031497,
          "duration": 0.08333324999999903
        },
        {
          "name": "A4",
          "midi": 69,
          "time": 17.833315500000033,
          "velocity": 0.7874015748031497,
          "duration": 0.08333324999999903
        },
        {
          "name": "C5",
          "midi": 72,
          "time": 17.833315500000033,
          "velocity": 0.7874015748031497,
          "duration": 0.08333324999999903
        },
        {
          "name": "F2",
          "midi": 41,
          "time": 17.833315500000033,
          "velocity": 0.7874015748031497,
          "duration": 0.16666649999999805
        },
        {
          "name": "D4",
          "midi": 62,
          "time": 17.99998200000003,
          "velocity": 0.7874015748031497,
          "duration": 0.08333324999999903
        },
        {
          "name": "G4",
          "midi": 67,
          "time": 17.99998200000003,
          "velocity": 0.7874015748031497,
          "duration": 0.08333324999999903
        },
        {
          "name": "A#4",
          "midi": 70,
          "time": 17.99998200000003,
          "velocity": 0.7874015748031497,
          "duration": 0.08333324999999903
        },
        {
          "name": "G1",
          "midi": 31,
          "time": 17.99998200000003,
          "velocity": 0.7874015748031497,
          "duration": 0.16666649999999805
        },
        {
          "name": "G2",
          "midi": 43,
          "time": 17.99998200000003,
          "velocity": 0.7874015748031497,
          "duration": 0.6666659999999922
        },
        {
          "name": "A#5",
          "midi": 82,
          "time": 17.99998200000003,
          "velocity": 0.7874015748031497,
          "duration": 0.6666659999999922
        },
        {
          "name": "D4",
          "midi": 62,
          "time": 18.16664850000003,
          "velocity": 0.7874015748031497,
          "duration": 0.08333324999999903
        },
        {
          "name": "G1",
          "midi": 31,
          "time": 18.16664850000003,
          "velocity": 0.7874015748031497,
          "duration": 0.16666649999999805
        },
        {
          "name": "D4",
          "midi": 62,
          "time": 18.333315000000027,
          "velocity": 0.7874015748031497,
          "duration": 0.08333324999999903
        },
        {
          "name": "G4",
          "midi": 67,
          "time": 18.333315000000027,
          "velocity": 0.7874015748031497,
          "duration": 0.08333324999999903
        },
        {
          "name": "A#4",
          "midi": 70,
          "time": 18.333315000000027,
          "velocity": 0.7874015748031497,
          "duration": 0.08333324999999903
        },
        {
          "name": "G1",
          "midi": 31,
          "time": 18.333315000000027,
          "velocity": 0.7874015748031497,
          "duration": 0.3333329999999961
        },
        {
          "name": "D4",
          "midi": 62,
          "time": 18.499981500000025,
          "velocity": 0.7874015748031497,
          "duration": 0.08333324999999903
        },
        {
          "name": "G4",
          "midi": 67,
          "time": 18.499981500000025,
          "velocity": 0.7874015748031497,
          "duration": 0.08333324999999903
        },
        {
          "name": "A#4",
          "midi": 70,
          "time": 18.499981500000025,
          "velocity": 0.7874015748031497,
          "duration": 0.08333324999999903
        },
        {
          "name": "D#4",
          "midi": 63,
          "time": 18.666648000000023,
          "velocity": 0.7874015748031497,
          "duration": 0.08333324999999903
        },
        {
          "name": "G4",
          "midi": 67,
          "time": 18.666648000000023,
          "velocity": 0.7874015748031497,
          "duration": 0.08333324999999903
        },
        {
          "name": "A#4",
          "midi": 70,
          "time": 18.666648000000023,
          "velocity": 0.7874015748031497,
          "duration": 0.08333324999999903
        },
        {
          "name": "D#2",
          "midi": 39,
          "time": 18.666648000000023,
          "velocity": 0.7874015748031497,
          "duration": 0.3333329999999961
        },
        {
          "name": "A#5",
          "midi": 82,
          "time": 18.666648000000023,
          "velocity": 0.7874015748031497,
          "duration": 1.3333319999999844
        },
        {
          "name": "D#3",
          "midi": 51,
          "time": 18.666648000000023,
          "velocity": 0.7874015748031497,
          "duration": 0.6666659999999922
        },
        {
          "name": "D#4",
          "midi": 63,
          "time": 18.83331450000002,
          "velocity": 0.7874015748031497,
          "duration": 0.08333324999999903
        },
        {
          "name": "G4",
          "midi": 67,
          "time": 18.83331450000002,
          "velocity": 0.7874015748031497,
          "duration": 0.08333324999999903
        },
        {
          "name": "A#4",
          "midi": 70,
          "time": 18.83331450000002,
          "velocity": 0.7874015748031497,
          "duration": 0.08333324999999903
        },
        {
          "name": "D#4",
          "midi": 63,
          "time": 18.99998100000002,
          "velocity": 0.7874015748031497,
          "duration": 0.08333324999999903
        },
        {
          "name": "D#2",
          "midi": 39,
          "time": 18.99998100000002,
          "velocity": 0.7874015748031497,
          "duration": 0.16666649999999805
        },
        {
          "name": "D#4",
          "midi": 63,
          "time": 19.166647500000018,
          "velocity": 0.7874015748031497,
          "duration": 0.08333324999999903
        },
        {
          "name": "G4",
          "midi": 67,
          "time": 19.166647500000018,
          "velocity": 0.7874015748031497,
          "duration": 0.08333324999999903
        },
        {
          "name": "A#4",
          "midi": 70,
          "time": 19.166647500000018,
          "velocity": 0.7874015748031497,
          "duration": 0.08333324999999903
        },
        {
          "name": "D#2",
          "midi": 39,
          "time": 19.166647500000018,
          "velocity": 0.7874015748031497,
          "duration": 0.16666649999999805
        },
        {
          "name": "D#4",
          "midi": 63,
          "time": 19.333314000000016,
          "velocity": 0.7874015748031497,
          "duration": 0.08333324999999903
        },
        {
          "name": "G4",
          "midi": 67,
          "time": 19.333314000000016,
          "velocity": 0.7874015748031497,
          "duration": 0.08333324999999903
        },
        {
          "name": "A#4",
          "midi": 70,
          "time": 19.333314000000016,
          "velocity": 0.7874015748031497,
          "duration": 0.08333324999999903
        },
        {
          "name": "E2",
          "midi": 40,
          "time": 19.333314000000016,
          "velocity": 0.7874015748031497,
          "duration": 0.16666649999999805
        },
        {
          "name": "E3",
          "midi": 52,
          "time": 19.333314000000016,
          "velocity": 0.7874015748031497,
          "duration": 0.6666659999999922
        },
        {
          "name": "D#4",
          "midi": 63,
          "time": 19.499980500000014,
          "velocity": 0.7874015748031497,
          "duration": 0.08333324999999903
        },
        {
          "name": "E2",
          "midi": 40,
          "time": 19.499980500000014,
          "velocity": 0.7874015748031497,
          "duration": 0.16666649999999805
        },
        {
          "name": "D#4",
          "midi": 63,
          "time": 19.66664700000001,
          "velocity": 0.7874015748031497,
          "duration": 0.08333324999999903
        },
        {
          "name": "G4",
          "midi": 67,
          "time": 19.66664700000001,
          "velocity": 0.7874015748031497,
          "duration": 0.08333324999999903
        },
        {
          "name": "A#4",
          "midi": 70,
          "time": 19.66664700000001,
          "velocity": 0.7874015748031497,
          "duration": 0.08333324999999903
        },
        {
          "name": "E2",
          "midi": 40,
          "time": 19.66664700000001,
          "velocity": 0.7874015748031497,
          "duration": 0.3333329999999961
        },
        {
          "name": "D#4",
          "midi": 63,
          "time": 19.83331350000001,
          "velocity": 0.7874015748031497,
          "duration": 0.08333324999999903
        },
        {
          "name": "G4",
          "midi": 67,
          "time": 19.83331350000001,
          "velocity": 0.7874015748031497,
          "duration": 0.08333324999999903
        },
        {
          "name": "A#4",
          "midi": 70,
          "time": 19.83331350000001,
          "velocity": 0.7874015748031497,
          "duration": 0.08333324999999903
        },
        {
          "name": "F4",
          "midi": 65,
          "time": 19.999980000000008,
          "velocity": 0.7874015748031497,
          "duration": 0.08333324999999903
        },
        {
          "name": "A4",
          "midi": 69,
          "time": 19.999980000000008,
          "velocity": 0.7874015748031497,
          "duration": 0.08333324999999903
        },
        {
          "name": "C5",
          "midi": 72,
          "time": 19.999980000000008,
          "velocity": 0.7874015748031497,
          "duration": 0.08333324999999903
        },
        {
          "name": "F2",
          "midi": 41,
          "time": 19.999980000000008,
          "velocity": 0.7874015748031497,
          "duration": 0.3333329999999961
        },
        {
          "name": "F3",
          "midi": 53,
          "time": 19.999980000000008,
          "velocity": 0.7874015748031497,
          "duration": 1.3333319999999844
        },
        {
          "name": "C6",
          "midi": 84,
          "time": 19.999980000000008,
          "velocity": 0.7874015748031497,
          "duration": 1.3333319999999844
        },
        {
          "name": "F4",
          "midi": 65,
          "time": 20.166646500000006,
          "velocity": 0.7874015748031497,
          "duration": 0.08333324999999903
        },
        {
          "name": "A4",
          "midi": 69,
          "time": 20.166646500000006,
          "velocity": 0.7874015748031497,
          "duration": 0.08333324999999903
        },
        {
          "name": "C5",
          "midi": 72,
          "time": 20.166646500000006,
          "velocity": 0.7874015748031497,
          "duration": 0.08333324999999903
        },
        {
          "name": "F4",
          "midi": 65,
          "time": 20.333313000000004,
          "velocity": 0.7874015748031497,
          "duration": 0.08333324999999903
        },
        {
          "name": "F2",
          "midi": 41,
          "time": 20.333313000000004,
          "velocity": 0.7874015748031497,
          "duration": 0.16666649999999805
        },
        {
          "name": "F4",
          "midi": 65,
          "time": 20.499979500000002,
          "velocity": 0.7874015748031497,
          "duration": 0.08333324999999903
        },
        {
          "name": "A4",
          "midi": 69,
          "time": 20.499979500000002,
          "velocity": 0.7874015748031497,
          "duration": 0.08333324999999903
        },
        {
          "name": "C5",
          "midi": 72,
          "time": 20.499979500000002,
          "velocity": 0.7874015748031497,
          "duration": 0.08333324999999903
        },
        {
          "name": "F2",
          "midi": 41,
          "time": 20.499979500000002,
          "velocity": 0.7874015748031497,
          "duration": 0.16666649999999805
        },
        {
          "name": "F4",
          "midi": 65,
          "time": 20.666646,
          "velocity": 0.7874015748031497,
          "duration": 0.08333324999999903
        },
        {
          "name": "A4",
          "midi": 69,
          "time": 20.666646,
          "velocity": 0.7874015748031497,
          "duration": 0.08333324999999903
        },
        {
          "name": "C5",
          "midi": 72,
          "time": 20.666646,
          "velocity": 0.7874015748031497,
          "duration": 0.08333324999999903
        },
        {
          "name": "F2",
          "midi": 41,
          "time": 20.666646,
          "velocity": 0.7874015748031497,
          "duration": 0.16666649999999805
        },
        {
          "name": "F4",
          "midi": 65,
          "time": 20.833312499999998,
          "velocity": 0.7874015748031497,
          "duration": 0.08333324999999903
        },
        {
          "name": "F2",
          "midi": 41,
          "time": 20.833312499999998,
          "velocity": 0.7874015748031497,
          "duration": 0.16666649999999805
        },
        {
          "name": "F4",
          "midi": 65,
          "time": 20.999978999999996,
          "velocity": 0.7874015748031497,
          "duration": 0.08333324999999903
        },
        {
          "name": "A4",
          "midi": 69,
          "time": 20.999978999999996,
          "velocity": 0.7874015748031497,
          "duration": 0.08333324999999903
        },
        {
          "name": "C5",
          "midi": 72,
          "time": 20.999978999999996,
          "velocity": 0.7874015748031497,
          "duration": 0.08333324999999903
        },
        {
          "name": "F2",
          "midi": 41,
          "time": 20.999978999999996,
          "velocity": 0.7874015748031497,
          "duration": 0.3333329999999961
        },
        {
          "name": "F4",
          "midi": 65,
          "time": 21.166645499999994,
          "velocity": 0.7874015748031497,
          "duration": 0.08333324999999903
        },
        {
          "name": "A4",
          "midi": 69,
          "time": 21.166645499999994,
          "velocity": 0.7874015748031497,
          "duration": 0.08333324999999903
        },
        {
          "name": "C5",
          "midi": 72,
          "time": 21.166645499999994,
          "velocity": 0.7874015748031497,
          "duration": 0.08333324999999903
        },
        {
          "name": "A#3",
          "midi": 58,
          "time": 21.333311999999992,
          "velocity": 0.7874015748031497,
          "duration": 0.08333324999999903
        },
        {
          "name": "A#4",
          "midi": 70,
          "time": 21.333311999999992,
          "velocity": 0.7874015748031497,
          "duration": 0.08333324999999903
        },
        {
          "name": "D5",
          "midi": 74,
          "time": 21.333311999999992,
          "velocity": 0.7874015748031497,
          "duration": 0.08333324999999903
        },
        {
          "name": "A#1",
          "midi": 34,
          "time": 21.333311999999992,
          "velocity": 0.7874015748031497,
          "duration": 0.3333329999999961
        },
        {
          "name": "A#2",
          "midi": 46,
          "time": 21.333311999999992,
          "velocity": 0.7874015748031497,
          "duration": 1.3333319999999844
        },
        {
          "name": "D6",
          "midi": 86,
          "time": 21.333311999999992,
          "velocity": 0.7874015748031497,
          "duration": 1.3333319999999844
        },
        {
          "name": "A#3",
          "midi": 58,
          "time": 21.49997849999999,
          "velocity": 0.7874015748031497,
          "duration": 0.08333324999999903
        },
        {
          "name": "A#4",
          "midi": 70,
          "time": 21.49997849999999,
          "velocity": 0.7874015748031497,
          "duration": 0.08333324999999903
        },
        {
          "name": "D5",
          "midi": 74,
          "time": 21.49997849999999,
          "velocity": 0.7874015748031497,
          "duration": 0.08333324999999903
        },
        {
          "name": "A#3",
          "midi": 58,
          "time": 21.66664499999999,
          "velocity": 0.7874015748031497,
          "duration": 0.08333324999999903
        },
        {
          "name": "A#1",
          "midi": 34,
          "time": 21.66664499999999,
          "velocity": 0.7874015748031497,
          "duration": 0.16666649999999805
        },
        {
          "name": "A#3",
          "midi": 58,
          "time": 21.833311499999986,
          "velocity": 0.7874015748031497,
          "duration": 0.08333324999999903
        },
        {
          "name": "A#4",
          "midi": 70,
          "time": 21.833311499999986,
          "velocity": 0.7874015748031497,
          "duration": 0.08333324999999903
        },
        {
          "name": "D5",
          "midi": 74,
          "time": 21.833311499999986,
          "velocity": 0.7874015748031497,
          "duration": 0.08333324999999903
        },
        {
          "name": "A#1",
          "midi": 34,
          "time": 21.833311499999986,
          "velocity": 0.7874015748031497,
          "duration": 0.16666649999999805
        },
        {
          "name": "A#3",
          "midi": 58,
          "time": 21.999977999999984,
          "velocity": 0.7874015748031497,
          "duration": 0.08333324999999903
        },
        {
          "name": "A#4",
          "midi": 70,
          "time": 21.999977999999984,
          "velocity": 0.7874015748031497,
          "duration": 0.08333324999999903
        },
        {
          "name": "D5",
          "midi": 74,
          "time": 21.999977999999984,
          "velocity": 0.7874015748031497,
          "duration": 0.08333324999999903
        },
        {
          "name": "A#1",
          "midi": 34,
          "time": 21.999977999999984,
          "velocity": 0.7874015748031497,
          "duration": 0.16666649999999805
        },
        {
          "name": "A#3",
          "midi": 58,
          "time": 22.166644499999983,
          "velocity": 0.7874015748031497,
          "duration": 0.08333324999999903
        },
        {
          "name": "A#1",
          "midi": 34,
          "time": 22.166644499999983,
          "velocity": 0.7874015748031497,
          "duration": 0.16666649999999805
        },
        {
          "name": "A#3",
          "midi": 58,
          "time": 22.33331099999998,
          "velocity": 0.7874015748031497,
          "duration": 0.08333324999999903
        },
        {
          "name": "A#4",
          "midi": 70,
          "time": 22.33331099999998,
          "velocity": 0.7874015748031497,
          "duration": 0.08333324999999903
        },
        {
          "name": "D5",
          "midi": 74,
          "time": 22.33331099999998,
          "velocity": 0.7874015748031497,
          "duration": 0.08333324999999903
        },
        {
          "name": "A#1",
          "midi": 34,
          "time": 22.33331099999998,
          "velocity": 0.7874015748031497,
          "duration": 0.3333329999999961
        },
        {
          "name": "A#3",
          "midi": 58,
          "time": 22.49997749999998,
          "velocity": 0.7874015748031497,
          "duration": 0.08333324999999903
        },
        {
          "name": "A#4",
          "midi": 70,
          "time": 22.49997749999998,
          "velocity": 0.7874015748031497,
          "duration": 0.08333324999999903
        },
        {
          "name": "D5",
          "midi": 74,
          "time": 22.49997749999998,
          "velocity": 0.7874015748031497,
          "duration": 0.08333324999999903
        },
        {
          "name": "D#4",
          "midi": 63,
          "time": 22.666643999999977,
          "velocity": 0.7874015748031497,
          "duration": 0.08333324999999903
        },
        {
          "name": "G4",
          "midi": 67,
          "time": 22.666643999999977,
          "velocity": 0.7874015748031497,
          "duration": 0.08333324999999903
        },
        {
          "name": "A#4",
          "midi": 70,
          "time": 22.666643999999977,
          "velocity": 0.7874015748031497,
          "duration": 0.08333324999999903
        },
        {
          "name": "D#2",
          "midi": 39,
          "time": 22.666643999999977,
          "velocity": 0.7874015748031497,
          "duration": 0.3333329999999961
        },
        {
          "name": "A#5",
          "midi": 82,
          "time": 22.666643999999977,
          "velocity": 0.7874015748031497,
          "duration": 1.3333319999999844
        },
        {
          "name": "D#3",
          "midi": 51,
          "time": 22.666643999999977,
          "velocity": 0.7874015748031497,
          "duration": 1.3333319999999844
        },
        {
          "name": "D#4",
          "midi": 63,
          "time": 22.833310499999975,
          "velocity": 0.7874015748031497,
          "duration": 0.08333324999999903
        },
        {
          "name": "G4",
          "midi": 67,
          "time": 22.833310499999975,
          "velocity": 0.7874015748031497,
          "duration": 0.08333324999999903
        },
        {
          "name": "A#4",
          "midi": 70,
          "time": 22.833310499999975,
          "velocity": 0.7874015748031497,
          "duration": 0.08333324999999903
        },
        {
          "name": "D#4",
          "midi": 63,
          "time": 22.999976999999973,
          "velocity": 0.7874015748031497,
          "duration": 0.08333324999999903
        },
        {
          "name": "D#2",
          "midi": 39,
          "time": 22.999976999999973,
          "velocity": 0.7874015748031497,
          "duration": 0.16666649999999805
        },
        {
          "name": "D#4",
          "midi": 63,
          "time": 23.16664349999997,
          "velocity": 0.7874015748031497,
          "duration": 0.08333324999999903
        },
        {
          "name": "G4",
          "midi": 67,
          "time": 23.16664349999997,
          "velocity": 0.7874015748031497,
          "duration": 0.08333324999999903
        },
        {
          "name": "A#4",
          "midi": 70,
          "time": 23.16664349999997,
          "velocity": 0.7874015748031497,
          "duration": 0.08333324999999903
        },
        {
          "name": "D#2",
          "midi": 39,
          "time": 23.16664349999997,
          "velocity": 0.7874015748031497,
          "duration": 0.16666649999999805
        },
        {
          "name": "D#4",
          "midi": 63,
          "time": 23.33330999999997,
          "velocity": 0.7874015748031497,
          "duration": 0.08333324999999903
        },
        {
          "name": "G4",
          "midi": 67,
          "time": 23.33330999999997,
          "velocity": 0.7874015748031497,
          "duration": 0.08333324999999903
        },
        {
          "name": "A#4",
          "midi": 70,
          "time": 23.33330999999997,
          "velocity": 0.7874015748031497,
          "duration": 0.08333324999999903
        },
        {
          "name": "D#2",
          "midi": 39,
          "time": 23.33330999999997,
          "velocity": 0.7874015748031497,
          "duration": 0.16666649999999805
        },
        {
          "name": "D#4",
          "midi": 63,
          "time": 23.499976499999967,
          "velocity": 0.7874015748031497,
          "duration": 0.08333324999999903
        },
        {
          "name": "D#2",
          "midi": 39,
          "time": 23.499976499999967,
          "velocity": 0.7874015748031497,
          "duration": 0.16666649999999805
        },
        {
          "name": "D#4",
          "midi": 63,
          "time": 23.666642999999965,
          "velocity": 0.7874015748031497,
          "duration": 0.08333324999999903
        },
        {
          "name": "G4",
          "midi": 67,
          "time": 23.666642999999965,
          "velocity": 0.7874015748031497,
          "duration": 0.08333324999999903
        },
        {
          "name": "A#4",
          "midi": 70,
          "time": 23.666642999999965,
          "velocity": 0.7874015748031497,
          "duration": 0.08333324999999903
        },
        {
          "name": "D#2",
          "midi": 39,
          "time": 23.666642999999965,
          "velocity": 0.7874015748031497,
          "duration": 0.3333329999999961
        },
        {
          "name": "D#4",
          "midi": 63,
          "time": 23.833309499999963,
          "velocity": 0.7874015748031497,
          "duration": 0.08333324999999903
        },
        {
          "name": "G4",
          "midi": 67,
          "time": 23.833309499999963,
          "velocity": 0.7874015748031497,
          "duration": 0.08333324999999903
        },
        {
          "name": "A#4",
          "midi": 70,
          "time": 23.833309499999963,
          "velocity": 0.7874015748031497,
          "duration": 0.08333324999999903
        },
        {
          "name": "F4",
          "midi": 65,
          "time": 23.99997599999996,
          "velocity": 0.7874015748031497,
          "duration": 0.08333324999999903
        },
        {
          "name": "A4",
          "midi": 69,
          "time": 23.99997599999996,
          "velocity": 0.7874015748031497,
          "duration": 0.08333324999999903
        },
        {
          "name": "C5",
          "midi": 72,
          "time": 23.99997599999996,
          "velocity": 0.7874015748031497,
          "duration": 0.08333324999999903
        },
        {
          "name": "F2",
          "midi": 41,
          "time": 23.99997599999996,
          "velocity": 0.7874015748031497,
          "duration": 0.3333329999999961
        },
        {
          "name": "F3",
          "midi": 53,
          "time": 23.99997599999996,
          "velocity": 0.7874015748031497,
          "duration": 1.3333319999999844
        },
        {
          "name": "C6",
          "midi": 84,
          "time": 23.99997599999996,
          "velocity": 0.7874015748031497,
          "duration": 1.3333319999999844
        },
        {
          "name": "F4",
          "midi": 65,
          "time": 24.16664249999996,
          "velocity": 0.7874015748031497,
          "duration": 0.08333324999999903
        },
        {
          "name": "A4",
          "midi": 69,
          "time": 24.16664249999996,
          "velocity": 0.7874015748031497,
          "duration": 0.08333324999999903
        },
        {
          "name": "C5",
          "midi": 72,
          "time": 24.16664249999996,
          "velocity": 0.7874015748031497,
          "duration": 0.08333324999999903
        },
        {
          "name": "F4",
          "midi": 65,
          "time": 24.333308999999957,
          "velocity": 0.7874015748031497,
          "duration": 0.08333324999999903
        },
        {
          "name": "F2",
          "midi": 41,
          "time": 24.333308999999957,
          "velocity": 0.7874015748031497,
          "duration": 0.16666649999999805
        },
        {
          "name": "F4",
          "midi": 65,
          "time": 24.499975499999955,
          "velocity": 0.7874015748031497,
          "duration": 0.08333324999999903
        },
        {
          "name": "A4",
          "midi": 69,
          "time": 24.499975499999955,
          "velocity": 0.7874015748031497,
          "duration": 0.08333324999999903
        },
        {
          "name": "C5",
          "midi": 72,
          "time": 24.499975499999955,
          "velocity": 0.7874015748031497,
          "duration": 0.08333324999999903
        },
        {
          "name": "F2",
          "midi": 41,
          "time": 24.499975499999955,
          "velocity": 0.7874015748031497,
          "duration": 0.16666649999999805
        },
        {
          "name": "F4",
          "midi": 65,
          "time": 24.666641999999953,
          "velocity": 0.7874015748031497,
          "duration": 0.08333324999999903
        },
        {
          "name": "A4",
          "midi": 69,
          "time": 24.666641999999953,
          "velocity": 0.7874015748031497,
          "duration": 0.08333324999999903
        },
        {
          "name": "C5",
          "midi": 72,
          "time": 24.666641999999953,
          "velocity": 0.7874015748031497,
          "duration": 0.08333324999999903
        },
        {
          "name": "F2",
          "midi": 41,
          "time": 24.666641999999953,
          "velocity": 0.7874015748031497,
          "duration": 0.16666649999999805
        },
        {
          "name": "F4",
          "midi": 65,
          "time": 24.83330849999995,
          "velocity": 0.7874015748031497,
          "duration": 0.08333324999999903
        },
        {
          "name": "F2",
          "midi": 41,
          "time": 24.83330849999995,
          "velocity": 0.7874015748031497,
          "duration": 0.16666649999999805
        },
        {
          "name": "F4",
          "midi": 65,
          "time": 24.99997499999995,
          "velocity": 0.7874015748031497,
          "duration": 0.08333324999999903
        },
        {
          "name": "A4",
          "midi": 69,
          "time": 24.99997499999995,
          "velocity": 0.7874015748031497,
          "duration": 0.08333324999999903
        },
        {
          "name": "C5",
          "midi": 72,
          "time": 24.99997499999995,
          "velocity": 0.7874015748031497,
          "duration": 0.08333324999999903
        },
        {
          "name": "F2",
          "midi": 41,
          "time": 24.99997499999995,
          "velocity": 0.7874015748031497,
          "duration": 0.3333329999999961
        },
        {
          "name": "F4",
          "midi": 65,
          "time": 25.166641499999947,
          "velocity": 0.7874015748031497,
          "duration": 0.08333324999999903
        },
        {
          "name": "A4",
          "midi": 69,
          "time": 25.166641499999947,
          "velocity": 0.7874015748031497,
          "duration": 0.08333324999999903
        },
        {
          "name": "C5",
          "midi": 72,
          "time": 25.166641499999947,
          "velocity": 0.7874015748031497,
          "duration": 0.08333324999999903
        },
        {
          "name": "G3",
          "midi": 55,
          "time": 25.333307999999946,
          "velocity": 0.7874015748031497,
          "duration": 0.08333324999999903
        },
        {
          "name": "G4",
          "midi": 67,
          "time": 25.333307999999946,
          "velocity": 0.7874015748031497,
          "duration": 0.08333324999999903
        },
        {
          "name": "A#4",
          "midi": 70,
          "time": 25.333307999999946,
          "velocity": 0.7874015748031497,
          "duration": 0.08333324999999903
        },
        {
          "name": "G1",
          "midi": 31,
          "time": 25.333307999999946,
          "velocity": 0.7874015748031497,
          "duration": 0.3333329999999961
        },
        {
          "name": "G2",
          "midi": 43,
          "time": 25.333307999999946,
          "velocity": 0.7874015748031497,
          "duration": 1.3333319999999844
        },
        {
          "name": "A#5",
          "midi": 82,
          "time": 25.333307999999946,
          "velocity": 0.7874015748031497,
          "duration": 1.3333319999999844
        },
        {
          "name": "G3",
          "midi": 55,
          "time": 25.499974499999944,
          "velocity": 0.7874015748031497,
          "duration": 0.08333324999999903
        },
        {
          "name": "G4",
          "midi": 67,
          "time": 25.499974499999944,
          "velocity": 0.7874015748031497,
          "duration": 0.08333324999999903
        },
        {
          "name": "A#4",
          "midi": 70,
          "time": 25.499974499999944,
          "velocity": 0.7874015748031497,
          "duration": 0.08333324999999903
        },
        {
          "name": "G3",
          "midi": 55,
          "time": 25.66664099999994,
          "velocity": 0.7874015748031497,
          "duration": 0.08333324999999903
        },
        {
          "name": "G1",
          "midi": 31,
          "time": 25.66664099999994,
          "velocity": 0.7874015748031497,
          "duration": 0.16666649999999805
        },
        {
          "name": "G3",
          "midi": 55,
          "time": 25.83330749999994,
          "velocity": 0.7874015748031497,
          "duration": 0.08333324999999903
        },
        {
          "name": "G4",
          "midi": 67,
          "time": 25.83330749999994,
          "velocity": 0.7874015748031497,
          "duration": 0.08333324999999903
        },
        {
          "name": "A#4",
          "midi": 70,
          "time": 25.83330749999994,
          "velocity": 0.7874015748031497,
          "duration": 0.08333324999999903
        },
        {
          "name": "G1",
          "midi": 31,
          "time": 25.83330749999994,
          "velocity": 0.7874015748031497,
          "duration": 0.16666649999999805
        },
        {
          "name": "G3",
          "midi": 55,
          "time": 25.999973999999938,
          "velocity": 0.7874015748031497,
          "duration": 0.08333324999999903
        },
        {
          "name": "G4",
          "midi": 67,
          "time": 25.999973999999938,
          "velocity": 0.7874015748031497,
          "duration": 0.08333324999999903
        },
        {
          "name": "A#4",
          "midi": 70,
          "time": 25.999973999999938,
          "velocity": 0.7874015748031497,
          "duration": 0.08333324999999903
        },
        {
          "name": "G1",
          "midi": 31,
          "time": 25.999973999999938,
          "velocity": 0.7874015748031497,
          "duration": 0.16666649999999805
        },
        {
          "name": "G3",
          "midi": 55,
          "time": 26.166640499999936,
          "velocity": 0.7874015748031497,
          "duration": 0.08333324999999903
        },
        {
          "name": "G1",
          "midi": 31,
          "time": 26.166640499999936,
          "velocity": 0.7874015748031497,
          "duration": 0.16666649999999805
        },
        {
          "name": "G3",
          "midi": 55,
          "time": 26.333306999999934,
          "velocity": 0.7874015748031497,
          "duration": 0.08333324999999903
        },
        {
          "name": "G4",
          "midi": 67,
          "time": 26.333306999999934,
          "velocity": 0.7874015748031497,
          "duration": 0.08333324999999903
        },
        {
          "name": "A#4",
          "midi": 70,
          "time": 26.333306999999934,
          "velocity": 0.7874015748031497,
          "duration": 0.08333324999999903
        },
        {
          "name": "G1",
          "midi": 31,
          "time": 26.333306999999934,
          "velocity": 0.7874015748031497,
          "duration": 0.3333329999999961
        },
        {
          "name": "G3",
          "midi": 55,
          "time": 26.499973499999932,
          "velocity": 0.7874015748031497,
          "duration": 0.08333324999999903
        },
        {
          "name": "G4",
          "midi": 67,
          "time": 26.499973499999932,
          "velocity": 0.7874015748031497,
          "duration": 0.08333324999999903
        },
        {
          "name": "A#4",
          "midi": 70,
          "time": 26.499973499999932,
          "velocity": 0.7874015748031497,
          "duration": 0.08333324999999903
        },
        {
          "name": "D#4",
          "midi": 63,
          "time": 26.66663999999993,
          "velocity": 0.7874015748031497,
          "duration": 0.08333324999999903
        },
        {
          "name": "G4",
          "midi": 67,
          "time": 26.66663999999993,
          "velocity": 0.7874015748031497,
          "duration": 0.08333324999999903
        },
        {
          "name": "A#4",
          "midi": 70,
          "time": 26.66663999999993,
          "velocity": 0.7874015748031497,
          "duration": 0.08333324999999903
        },
        {
          "name": "D#2",
          "midi": 39,
          "time": 26.66663999999993,
          "velocity": 0.7874015748031497,
          "duration": 0.3333329999999961
        },
        {
          "name": "A#5",
          "midi": 82,
          "time": 26.66663999999993,
          "velocity": 0.7874015748031497,
          "duration": 0.6666659999999922
        },
        {
          "name": "D#3",
          "midi": 51,
          "time": 26.66663999999993,
          "velocity": 0.7874015748031497,
          "duration": 0.6666659999999922
        },
        {
          "name": "D#4",
          "midi": 63,
          "time": 26.833306499999928,
          "velocity": 0.7874015748031497,
          "duration": 0.08333324999999903
        },
        {
          "name": "G4",
          "midi": 67,
          "time": 26.833306499999928,
          "velocity": 0.7874015748031497,
          "duration": 0.08333324999999903
        },
        {
          "name": "A#4",
          "midi": 70,
          "time": 26.833306499999928,
          "velocity": 0.7874015748031497,
          "duration": 0.08333324999999903
        },
        {
          "name": "D#4",
          "midi": 63,
          "time": 26.999972999999926,
          "velocity": 0.7874015748031497,
          "duration": 0.08333324999999903
        },
        {
          "name": "D#2",
          "midi": 39,
          "time": 26.999972999999926,
          "velocity": 0.7874015748031497,
          "duration": 0.16666649999999805
        },
        {
          "name": "D#4",
          "midi": 63,
          "time": 27.166639499999924,
          "velocity": 0.7874015748031497,
          "duration": 0.08333324999999903
        },
        {
          "name": "G4",
          "midi": 67,
          "time": 27.166639499999924,
          "velocity": 0.7874015748031497,
          "duration": 0.08333324999999903
        },
        {
          "name": "A#4",
          "midi": 70,
          "time": 27.166639499999924,
          "velocity": 0.7874015748031497,
          "duration": 0.08333324999999903
        },
        {
          "name": "D#2",
          "midi": 39,
          "time": 27.166639499999924,
          "velocity": 0.7874015748031497,
          "duration": 0.16666649999999805
        },
        {
          "name": "D4",
          "midi": 62,
          "time": 27.333305999999922,
          "velocity": 0.7874015748031497,
          "duration": 0.08333324999999903
        },
        {
          "name": "A#4",
          "midi": 70,
          "time": 27.333305999999922,
          "velocity": 0.7874015748031497,
          "duration": 0.08333324999999903
        },
        {
          "name": "D5",
          "midi": 74,
          "time": 27.333305999999922,
          "velocity": 0.7874015748031497,
          "duration": 0.08333324999999903
        },
        {
          "name": "A#1",
          "midi": 34,
          "time": 27.333305999999922,
          "velocity": 0.7874015748031497,
          "duration": 0.16666649999999805
        },
        {
          "name": "A#2",
          "midi": 46,
          "time": 27.333305999999922,
          "velocity": 0.7874015748031497,
          "duration": 0.6666659999999922
        },
        {
          "name": "D6",
          "midi": 86,
          "time": 27.333305999999922,
          "velocity": 0.7874015748031497,
          "duration": 0.6666659999999922
        },
        {
          "name": "D4",
          "midi": 62,
          "time": 27.49997249999992,
          "velocity": 0.7874015748031497,
          "duration": 0.08333324999999903
        },
        {
          "name": "A#1",
          "midi": 34,
          "time": 27.49997249999992,
          "velocity": 0.7874015748031497,
          "duration": 0.16666649999999805
        },
        {
          "name": "D4",
          "midi": 62,
          "time": 27.66663899999992,
          "velocity": 0.7874015748031497,
          "duration": 0.08333324999999903
        },
        {
          "name": "A#4",
          "midi": 70,
          "time": 27.66663899999992,
          "velocity": 0.7874015748031497,
          "duration": 0.08333324999999903
        },
        {
          "name": "D5",
          "midi": 74,
          "time": 27.66663899999992,
          "velocity": 0.7874015748031497,
          "duration": 0.08333324999999903
        },
        {
          "name": "A#1",
          "midi": 34,
          "time": 27.66663899999992,
          "velocity": 0.7874015748031497,
          "duration": 0.3333329999999961
        },
        {
          "name": "D4",
          "midi": 62,
          "time": 27.833305499999916,
          "velocity": 0.7874015748031497,
          "duration": 0.08333324999999903
        },
        {
          "name": "A#4",
          "midi": 70,
          "time": 27.833305499999916,
          "velocity": 0.7874015748031497,
          "duration": 0.08333324999999903
        },
        {
          "name": "D5",
          "midi": 74,
          "time": 27.833305499999916,
          "velocity": 0.7874015748031497,
          "duration": 0.08333324999999903
        },
        {
          "name": "C4",
          "midi": 60,
          "time": 27.999971999999914,
          "velocity": 0.7874015748031497,
          "duration": 0.08333324999999903
        },
        {
          "name": "A4",
          "midi": 69,
          "time": 27.999971999999914,
          "velocity": 0.7874015748031497,
          "duration": 0.08333324999999903
        },
        {
          "name": "C5",
          "midi": 72,
          "time": 27.999971999999914,
          "velocity": 0.7874015748031497,
          "duration": 0.08333324999999903
        },
        {
          "name": "F2",
          "midi": 41,
          "time": 27.999971999999914,
          "velocity": 0.7874015748031497,
          "duration": 0.3333329999999961
        },
        {
          "name": "F3",
          "midi": 53,
          "time": 27.999971999999914,
          "velocity": 0.7874015748031497,
          "duration": 0.6666659999999922
        },
        {
          "name": "C6",
          "midi": 84,
          "time": 27.999971999999914,
          "velocity": 0.7874015748031497,
          "duration": 0.6666659999999922
        },
        {
          "name": "C4",
          "midi": 60,
          "time": 28.166638499999912,
          "velocity": 0.7874015748031497,
          "duration": 0.08333324999999903
        },
        {
          "name": "A4",
          "midi": 69,
          "time": 28.166638499999912,
          "velocity": 0.7874015748031497,
          "duration": 0.08333324999999903
        },
        {
          "name": "C5",
          "midi": 72,
          "time": 28.166638499999912,
          "velocity": 0.7874015748031497,
          "duration": 0.08333324999999903
        },
        {
          "name": "C4",
          "midi": 60,
          "time": 28.33330499999991,
          "velocity": 0.7874015748031497,
          "duration": 0.08333324999999903
        },
        {
          "name": "F2",
          "midi": 41,
          "time": 28.33330499999991,
          "velocity": 0.7874015748031497,
          "duration": 0.16666649999999805
        },
        {
          "name": "C4",
          "midi": 60,
          "time": 28.49997149999991,
          "velocity": 0.7874015748031497,
          "duration": 0.08333324999999903
        },
        {
          "name": "A4",
          "midi": 69,
          "time": 28.49997149999991,
          "velocity": 0.7874015748031497,
          "duration": 0.08333324999999903
        },
        {
          "name": "C5",
          "midi": 72,
          "time": 28.49997149999991,
          "velocity": 0.7874015748031497,
          "duration": 0.08333324999999903
        },
        {
          "name": "F2",
          "midi": 41,
          "time": 28.49997149999991,
          "velocity": 0.7874015748031497,
          "duration": 0.16666649999999805
        },
        {
          "name": "D4",
          "midi": 62,
          "time": 28.666637999999907,
          "velocity": 0.7874015748031497,
          "duration": 0.08333324999999903
        },
        {
          "name": "G4",
          "midi": 67,
          "time": 28.666637999999907,
          "velocity": 0.7874015748031497,
          "duration": 0.08333324999999903
        },
        {
          "name": "A#4",
          "midi": 70,
          "time": 28.666637999999907,
          "velocity": 0.7874015748031497,
          "duration": 0.08333324999999903
        },
        {
          "name": "G1",
          "midi": 31,
          "time": 28.666637999999907,
          "velocity": 0.7874015748031497,
          "duration": 0.16666649999999805
        },
        {
          "name": "A#5",
          "midi": 82,
          "time": 28.666637999999907,
          "velocity": 0.7874015748031497,
          "duration": 0.6666659999999922
        },
        {
          "name": "G2",
          "midi": 43,
          "time": 28.666637999999907,
          "velocity": 0.7874015748031497,
          "duration": 0.6666659999999922
        },
        {
          "name": "D4",
          "midi": 62,
          "time": 28.833304499999905,
          "velocity": 0.7874015748031497,
          "duration": 0.08333324999999903
        },
        {
          "name": "G1",
          "midi": 31,
          "time": 28.833304499999905,
          "velocity": 0.7874015748031497,
          "duration": 0.16666649999999805
        },
        {
          "name": "D4",
          "midi": 62,
          "time": 28.999970999999903,
          "velocity": 0.7874015748031497,
          "duration": 0.08333324999999903
        },
        {
          "name": "G4",
          "midi": 67,
          "time": 28.999970999999903,
          "velocity": 0.7874015748031497,
          "duration": 0.08333324999999903
        },
        {
          "name": "A#4",
          "midi": 70,
          "time": 28.999970999999903,
          "velocity": 0.7874015748031497,
          "duration": 0.08333324999999903
        },
        {
          "name": "G1",
          "midi": 31,
          "time": 28.999970999999903,
          "velocity": 0.7874015748031497,
          "duration": 0.3333329999999961
        },
        {
          "name": "D4",
          "midi": 62,
          "time": 29.1666374999999,
          "velocity": 0.7874015748031497,
          "duration": 0.08333324999999903
        },
        {
          "name": "G4",
          "midi": 67,
          "time": 29.1666374999999,
          "velocity": 0.7874015748031497,
          "duration": 0.08333324999999903
        },
        {
          "name": "A#4",
          "midi": 70,
          "time": 29.1666374999999,
          "velocity": 0.7874015748031497,
          "duration": 0.08333324999999903
        },
        {
          "name": "D#4",
          "midi": 63,
          "time": 29.3333039999999,
          "velocity": 0.7874015748031497,
          "duration": 0.08333324999999903
        },
        {
          "name": "G4",
          "midi": 67,
          "time": 29.3333039999999,
          "velocity": 0.7874015748031497,
          "duration": 0.08333324999999903
        },
        {
          "name": "A#4",
          "midi": 70,
          "time": 29.3333039999999,
          "velocity": 0.7874015748031497,
          "duration": 0.08333324999999903
        },
        {
          "name": "D#2",
          "midi": 39,
          "time": 29.3333039999999,
          "velocity": 0.7874015748031497,
          "duration": 0.3333329999999961
        },
        {
          "name": "D#3",
          "midi": 51,
          "time": 29.3333039999999,
          "velocity": 0.7874015748031497,
          "duration": 0.6666659999999922
        },
        {
          "name": "A#5",
          "midi": 82,
          "time": 29.3333039999999,
          "velocity": 0.7874015748031497,
          "duration": 0.6666659999999922
        },
        {
          "name": "D#4",
          "midi": 63,
          "time": 29.499970499999897,
          "velocity": 0.7874015748031497,
          "duration": 0.08333324999999903
        },
        {
          "name": "G4",
          "midi": 67,
          "time": 29.499970499999897,
          "velocity": 0.7874015748031497,
          "duration": 0.08333324999999903
        },
        {
          "name": "A#4",
          "midi": 70,
          "time": 29.499970499999897,
          "velocity": 0.7874015748031497,
          "duration": 0.08333324999999903
        },
        {
          "name": "D#4",
          "midi": 63,
          "time": 29.666636999999895,
          "velocity": 0.7874015748031497,
          "duration": 0.08333324999999903
        },
        {
          "name": "D#2",
          "midi": 39,
          "time": 29.666636999999895,
          "velocity": 0.7874015748031497,
          "duration": 0.16666649999999805
        },
        {
          "name": "D#4",
          "midi": 63,
          "time": 29.833303499999893,
          "velocity": 0.7874015748031497,
          "duration": 0.08333324999999903
        },
        {
          "name": "G4",
          "midi": 67,
          "time": 29.833303499999893,
          "velocity": 0.7874015748031497,
          "duration": 0.08333324999999903
        },
        {
          "name": "A#4",
          "midi": 70,
          "time": 29.833303499999893,
          "velocity": 0.7874015748031497,
          "duration": 0.08333324999999903
        },
        {
          "name": "D#2",
          "midi": 39,
          "time": 29.833303499999893,
          "velocity": 0.7874015748031497,
          "duration": 0.16666649999999805
        },
        {
          "name": "F4",
          "midi": 65,
          "time": 29.99996999999989,
          "velocity": 0.7874015748031497,
          "duration": 0.08333324999999903
        },
        {
          "name": "A4",
          "midi": 69,
          "time": 29.99996999999989,
          "velocity": 0.7874015748031497,
          "duration": 0.08333324999999903
        },
        {
          "name": "C5",
          "midi": 72,
          "time": 29.99996999999989,
          "velocity": 0.7874015748031497,
          "duration": 0.08333324999999903
        },
        {
          "name": "F2",
          "midi": 41,
          "time": 29.99996999999989,
          "velocity": 0.7874015748031497,
          "duration": 0.16666649999999805
        },
        {
          "name": "C6",
          "midi": 84,
          "time": 29.99996999999989,
          "velocity": 0.7874015748031497,
          "duration": 0.6666659999999922
        },
        {
          "name": "F3",
          "midi": 53,
          "time": 29.99996999999989,
          "velocity": 0.7874015748031497,
          "duration": 0.6666659999999922
        },
        {
          "name": "F4",
          "midi": 65,
          "time": 30.16663649999989,
          "velocity": 0.7874015748031497,
          "duration": 0.08333324999999903
        },
        {
          "name": "F2",
          "midi": 41,
          "time": 30.16663649999989,
          "velocity": 0.7874015748031497,
          "duration": 0.16666649999999805
        },
        {
          "name": "F4",
          "midi": 65,
          "time": 30.333302999999887,
          "velocity": 0.7874015748031497,
          "duration": 0.08333324999999903
        },
        {
          "name": "A4",
          "midi": 69,
          "time": 30.333302999999887,
          "velocity": 0.7874015748031497,
          "duration": 0.08333324999999903
        },
        {
          "name": "C5",
          "midi": 72,
          "time": 30.333302999999887,
          "velocity": 0.7874015748031497,
          "duration": 0.08333324999999903
        },
        {
          "name": "F2",
          "midi": 41,
          "time": 30.333302999999887,
          "velocity": 0.7874015748031497,
          "duration": 0.3333329999999961
        },
        {
          "name": "F4",
          "midi": 65,
          "time": 30.499969499999885,
          "velocity": 0.7874015748031497,
          "duration": 0.08333324999999903
        },
        {
          "name": "A4",
          "midi": 69,
          "time": 30.499969499999885,
          "velocity": 0.7874015748031497,
          "duration": 0.08333324999999903
        },
        {
          "name": "C5",
          "midi": 72,
          "time": 30.499969499999885,
          "velocity": 0.7874015748031497,
          "duration": 0.08333324999999903
        },
        {
          "name": "A#3",
          "midi": 58,
          "time": 30.666635999999883,
          "velocity": 0.7874015748031497,
          "duration": 0.08333324999999903
        },
        {
          "name": "A#4",
          "midi": 70,
          "time": 30.666635999999883,
          "velocity": 0.7874015748031497,
          "duration": 0.08333324999999903
        },
        {
          "name": "D5",
          "midi": 74,
          "time": 30.666635999999883,
          "velocity": 0.7874015748031497,
          "duration": 0.08333324999999903
        },
        {
          "name": "A#1",
          "midi": 34,
          "time": 30.666635999999883,
          "velocity": 0.7874015748031497,
          "duration": 0.3333329999999961
        },
        {
          "name": "A#2",
          "midi": 46,
          "time": 30.666635999999883,
          "velocity": 0.7874015748031497,
          "duration": 1.3333319999999844
        },
        {
          "name": "A#5",
          "midi": 82,
          "time": 30.666635999999883,
          "velocity": 0.7874015748031497,
          "duration": 1.3333319999999844
        },
        {
          "name": "A#3",
          "midi": 58,
          "time": 30.83330249999988,
          "velocity": 0.7874015748031497,
          "duration": 0.08333324999999903
        },
        {
          "name": "A#4",
          "midi": 70,
          "time": 30.83330249999988,
          "velocity": 0.7874015748031497,
          "duration": 0.08333324999999903
        },
        {
          "name": "D5",
          "midi": 74,
          "time": 30.83330249999988,
          "velocity": 0.7874015748031497,
          "duration": 0.08333324999999903
        },
        {
          "name": "A#3",
          "midi": 58,
          "time": 30.99996899999988,
          "velocity": 0.7874015748031497,
          "duration": 0.08333324999999903
        },
        {
          "name": "A#1",
          "midi": 34,
          "time": 30.99996899999988,
          "velocity": 0.7874015748031497,
          "duration": 0.16666649999999805
        },
        {
          "name": "A#3",
          "midi": 58,
          "time": 31.166635499999877,
          "velocity": 0.7874015748031497,
          "duration": 0.08333324999999903
        },
        {
          "name": "A#4",
          "midi": 70,
          "time": 31.166635499999877,
          "velocity": 0.7874015748031497,
          "duration": 0.08333324999999903
        },
        {
          "name": "D5",
          "midi": 74,
          "time": 31.166635499999877,
          "velocity": 0.7874015748031497,
          "duration": 0.08333324999999903
        },
        {
          "name": "A#1",
          "midi": 34,
          "time": 31.166635499999877,
          "velocity": 0.7874015748031497,
          "duration": 0.16666649999999805
        },
        {
          "name": "A#3",
          "midi": 58,
          "time": 31.333301999999875,
          "velocity": 0.7874015748031497,
          "duration": 0.08333324999999903
        },
        {
          "name": "A#4",
          "midi": 70,
          "time": 31.333301999999875,
          "velocity": 0.7874015748031497,
          "duration": 0.08333324999999903
        },
        {
          "name": "D5",
          "midi": 74,
          "time": 31.333301999999875,
          "velocity": 0.7874015748031497,
          "duration": 0.08333324999999903
        },
        {
          "name": "A#1",
          "midi": 34,
          "time": 31.333301999999875,
          "velocity": 0.7874015748031497,
          "duration": 0.16666649999999805
        },
        {
          "name": "A#3",
          "midi": 58,
          "time": 31.499968499999873,
          "velocity": 0.7874015748031497,
          "duration": 0.08333324999999903
        },
        {
          "name": "A#1",
          "midi": 34,
          "time": 31.499968499999873,
          "velocity": 0.7874015748031497,
          "duration": 0.16666649999999805
        },
        {
          "name": "A#3",
          "midi": 58,
          "time": 31.66663499999987,
          "velocity": 0.7874015748031497,
          "duration": 0.08333324999999903
        },
        {
          "name": "A#4",
          "midi": 70,
          "time": 31.66663499999987,
          "velocity": 0.7874015748031497,
          "duration": 0.08333324999999903
        },
        {
          "name": "D5",
          "midi": 74,
          "time": 31.66663499999987,
          "velocity": 0.7874015748031497,
          "duration": 0.08333324999999903
        },
        {
          "name": "A#1",
          "midi": 34,
          "time": 31.66663499999987,
          "velocity": 0.7874015748031497,
          "duration": 0.3333329999999961
        },
        {
          "name": "A#3",
          "midi": 58,
          "time": 31.83330149999987,
          "velocity": 0.7874015748031497,
          "duration": 0.08333324999999903
        },
        {
          "name": "A#4",
          "midi": 70,
          "time": 31.83330149999987,
          "velocity": 0.7874015748031497,
          "duration": 0.08333324999999903
        },
        {
          "name": "D5",
          "midi": 74,
          "time": 31.83330149999987,
          "velocity": 0.7874015748031497,
          "duration": 0.08333324999999903
        },
        {
          "name": "D#4",
          "midi": 63,
          "time": 31.999967999999868,
          "velocity": 0.7874015748031497,
          "duration": 0.08333325000000258
        },
        {
          "name": "G4",
          "midi": 67,
          "time": 31.999967999999868,
          "velocity": 0.7874015748031497,
          "duration": 0.08333325000000258
        },
        {
          "name": "A#4",
          "midi": 70,
          "time": 31.999967999999868,
          "velocity": 0.7874015748031497,
          "duration": 0.08333325000000258
        },
        {
          "name": "D#2",
          "midi": 39,
          "time": 31.999967999999868,
          "velocity": 0.7874015748031497,
          "duration": 0.3333330000000103
        },
        {
          "name": "A#5",
          "midi": 82,
          "time": 31.999967999999868,
          "velocity": 0.7874015748031497,
          "duration": 0.6666660000000206
        },
        {
          "name": "D#3",
          "midi": 51,
          "time": 31.999967999999868,
          "velocity": 0.7874015748031497,
          "duration": 1.3333320000000413
        },
        {
          "name": "D#4",
          "midi": 63,
          "time": 32.16663449999987,
          "velocity": 0.7874015748031497,
          "duration": 0.08333325000000258
        },
        {
          "name": "G4",
          "midi": 67,
          "time": 32.16663449999987,
          "velocity": 0.7874015748031497,
          "duration": 0.08333325000000258
        },
        {
          "name": "A#4",
          "midi": 70,
          "time": 32.16663449999987,
          "velocity": 0.7874015748031497,
          "duration": 0.08333325000000258
        },
        {
          "name": "D#4",
          "midi": 63,
          "time": 32.33330099999988,
          "velocity": 0.7874015748031497,
          "duration": 0.08333325000000258
        },
        {
          "name": "D#2",
          "midi": 39,
          "time": 32.33330099999988,
          "velocity": 0.7874015748031497,
          "duration": 0.16666650000000516
        },
        {
          "name": "D#4",
          "midi": 63,
          "time": 32.49996749999988,
          "velocity": 0.7874015748031497,
          "duration": 0.08333325000000258
        },
        {
          "name": "G4",
          "midi": 67,
          "time": 32.49996749999988,
          "velocity": 0.7874015748031497,
          "duration": 0.08333325000000258
        },
        {
          "name": "A#4",
          "midi": 70,
          "time": 32.49996749999988,
          "velocity": 0.7874015748031497,
          "duration": 0.08333325000000258
        },
        {
          "name": "D#2",
          "midi": 39,
          "time": 32.49996749999988,
          "velocity": 0.7874015748031497,
          "duration": 0.16666650000000516
        },
        {
          "name": "D#4",
          "midi": 63,
          "time": 32.66663399999989,
          "velocity": 0.7874015748031497,
          "duration": 0.08333325000000258
        },
        {
          "name": "G4",
          "midi": 67,
          "time": 32.66663399999989,
          "velocity": 0.7874015748031497,
          "duration": 0.08333325000000258
        },
        {
          "name": "A#4",
          "midi": 70,
          "time": 32.66663399999989,
          "velocity": 0.7874015748031497,
          "duration": 0.08333325000000258
        },
        {
          "name": "D#2",
          "midi": 39,
          "time": 32.66663399999989,
          "velocity": 0.7874015748031497,
          "duration": 0.16666650000000516
        },
        {
          "name": "D6",
          "midi": 86,
          "time": 32.66663399999989,
          "velocity": 0.7874015748031497,
          "duration": 0.6666660000000206
        },
        {
          "name": "D#4",
          "midi": 63,
          "time": 32.83330049999989,
          "velocity": 0.7874015748031497,
          "duration": 0.08333325000000258
        },
        {
          "name": "D#2",
          "midi": 39,
          "time": 32.83330049999989,
          "velocity": 0.7874015748031497,
          "duration": 0.16666650000000516
        },
        {
          "name": "D#4",
          "midi": 63,
          "time": 32.9999669999999,
          "velocity": 0.7874015748031497,
          "duration": 0.08333325000000258
        },
        {
          "name": "G4",
          "midi": 67,
          "time": 32.9999669999999,
          "velocity": 0.7874015748031497,
          "duration": 0.08333325000000258
        },
        {
          "name": "A#4",
          "midi": 70,
          "time": 32.9999669999999,
          "velocity": 0.7874015748031497,
          "duration": 0.08333325000000258
        },
        {
          "name": "D#2",
          "midi": 39,
          "time": 32.9999669999999,
          "velocity": 0.7874015748031497,
          "duration": 0.3333330000000103
        },
        {
          "name": "D#4",
          "midi": 63,
          "time": 33.166633499999904,
          "velocity": 0.7874015748031497,
          "duration": 0.08333325000000258
        },
        {
          "name": "G4",
          "midi": 67,
          "time": 33.166633499999904,
          "velocity": 0.7874015748031497,
          "duration": 0.08333325000000258
        },
        {
          "name": "A#4",
          "midi": 70,
          "time": 33.166633499999904,
          "velocity": 0.7874015748031497,
          "duration": 0.08333325000000258
        },
        {
          "name": "A#3",
          "midi": 58,
          "time": 33.33329999999991,
          "velocity": 0.7874015748031497,
          "duration": 0.08333325000000258
        },
        {
          "name": "A#4",
          "midi": 70,
          "time": 33.33329999999991,
          "velocity": 0.7874015748031497,
          "duration": 0.08333325000000258
        },
        {
          "name": "D5",
          "midi": 74,
          "time": 33.33329999999991,
          "velocity": 0.7874015748031497,
          "duration": 0.08333325000000258
        },
        {
          "name": "A#1",
          "midi": 34,
          "time": 33.33329999999991,
          "velocity": 0.7874015748031497,
          "duration": 0.3333330000000103
        },
        {
          "name": "A#2",
          "midi": 46,
          "time": 33.33329999999991,
          "velocity": 0.7874015748031497,
          "duration": 1.3333320000000413
        },
        {
          "name": "C6",
          "midi": 84,
          "time": 33.33329999999991,
          "velocity": 0.7874015748031497,
          "duration": 0.6666660000000206
        },
        {
          "name": "A#3",
          "midi": 58,
          "time": 33.499966499999914,
          "velocity": 0.7874015748031497,
          "duration": 0.08333325000000258
        },
        {
          "name": "A#4",
          "midi": 70,
          "time": 33.499966499999914,
          "velocity": 0.7874015748031497,
          "duration": 0.08333325000000258
        },
        {
          "name": "D5",
          "midi": 74,
          "time": 33.499966499999914,
          "velocity": 0.7874015748031497,
          "duration": 0.08333325000000258
        },
        {
          "name": "A#3",
          "midi": 58,
          "time": 33.66663299999992,
          "velocity": 0.7874015748031497,
          "duration": 0.08333325000000258
        },
        {
          "name": "A#1",
          "midi": 34,
          "time": 33.66663299999992,
          "velocity": 0.7874015748031497,
          "duration": 0.16666650000000516
        },
        {
          "name": "A#3",
          "midi": 58,
          "time": 33.833299499999924,
          "velocity": 0.7874015748031497,
          "duration": 0.08333325000000258
        },
        {
          "name": "A#4",
          "midi": 70,
          "time": 33.833299499999924,
          "velocity": 0.7874015748031497,
          "duration": 0.08333325000000258
        },
        {
          "name": "D5",
          "midi": 74,
          "time": 33.833299499999924,
          "velocity": 0.7874015748031497,
          "duration": 0.08333325000000258
        },
        {
          "name": "A#1",
          "midi": 34,
          "time": 33.833299499999924,
          "velocity": 0.7874015748031497,
          "duration": 0.16666650000000516
        },
        {
          "name": "A#3",
          "midi": 58,
          "time": 33.99996599999993,
          "velocity": 0.7874015748031497,
          "duration": 0.08333325000000258
        },
        {
          "name": "A#4",
          "midi": 70,
          "time": 33.99996599999993,
          "velocity": 0.7874015748031497,
          "duration": 0.08333325000000258
        },
        {
          "name": "D5",
          "midi": 74,
          "time": 33.99996599999993,
          "velocity": 0.7874015748031497,
          "duration": 0.08333325000000258
        },
        {
          "name": "A#1",
          "midi": 34,
          "time": 33.99996599999993,
          "velocity": 0.7874015748031497,
          "duration": 0.16666650000000516
        },
        {
          "name": "A#5",
          "midi": 82,
          "time": 33.99996599999993,
          "velocity": 0.7874015748031497,
          "duration": 0.6666660000000206
        },
        {
          "name": "A#3",
          "midi": 58,
          "time": 34.166632499999935,
          "velocity": 0.7874015748031497,
          "duration": 0.08333325000000258
        },
        {
          "name": "A#1",
          "midi": 34,
          "time": 34.166632499999935,
          "velocity": 0.7874015748031497,
          "duration": 0.16666650000000516
        },
        {
          "name": "A#3",
          "midi": 58,
          "time": 34.33329899999994,
          "velocity": 0.7874015748031497,
          "duration": 0.08333325000000258
        },
        {
          "name": "A#4",
          "midi": 70,
          "time": 34.33329899999994,
          "velocity": 0.7874015748031497,
          "duration": 0.08333325000000258
        },
        {
          "name": "D5",
          "midi": 74,
          "time": 34.33329899999994,
          "velocity": 0.7874015748031497,
          "duration": 0.08333325000000258
        },
        {
          "name": "A#1",
          "midi": 34,
          "time": 34.33329899999994,
          "velocity": 0.7874015748031497,
          "duration": 0.3333330000000103
        },
        {
          "name": "A#3",
          "midi": 58,
          "time": 34.499965499999945,
          "velocity": 0.7874015748031497,
          "duration": 0.08333325000000258
        },
        {
          "name": "A#4",
          "midi": 70,
          "time": 34.499965499999945,
          "velocity": 0.7874015748031497,
          "duration": 0.08333325000000258
        },
        {
          "name": "D5",
          "midi": 74,
          "time": 34.499965499999945,
          "velocity": 0.7874015748031497,
          "duration": 0.08333325000000258
        },
        {
          "name": "F4",
          "midi": 65,
          "time": 34.66663199999995,
          "velocity": 0.7874015748031497,
          "duration": 0.08333325000000258
        },
        {
          "name": "A#4",
          "midi": 70,
          "time": 34.66663199999995,
          "velocity": 0.7874015748031497,
          "duration": 0.08333325000000258
        },
        {
          "name": "C5",
          "midi": 72,
          "time": 34.66663199999995,
          "velocity": 0.7874015748031497,
          "duration": 0.08333325000000258
        },
        {
          "name": "F2",
          "midi": 41,
          "time": 34.66663199999995,
          "velocity": 0.7874015748031497,
          "duration": 0.3333330000000103
        },
        {
          "name": "F3",
          "midi": 53,
          "time": 34.66663199999995,
          "velocity": 0.7874015748031497,
          "duration": 1.3333320000000413
        },
        {
          "name": "A#5",
          "midi": 82,
          "time": 34.66663199999995,
          "velocity": 0.7874015748031497,
          "duration": 1.3333320000000413
        },
        {
          "name": "F4",
          "midi": 65,
          "time": 34.833298499999955,
          "velocity": 0.7874015748031497,
          "duration": 0.08333325000000258
        },
        {
          "name": "A#4",
          "midi": 70,
          "time": 34.833298499999955,
          "velocity": 0.7874015748031497,
          "duration": 0.08333325000000258
        },
        {
          "name": "C5",
          "midi": 72,
          "time": 34.833298499999955,
          "velocity": 0.7874015748031497,
          "duration": 0.08333325000000258
        },
        {
          "name": "F4",
          "midi": 65,
          "time": 34.99996499999996,
          "velocity": 0.7874015748031497,
          "duration": 0.08333325000000258
        },
        {
          "name": "F2",
          "midi": 41,
          "time": 34.99996499999996,
          "velocity": 0.7874015748031497,
          "duration": 0.16666650000000516
        },
        {
          "name": "F4",
          "midi": 65,
          "time": 35.166631499999966,
          "velocity": 0.7874015748031497,
          "duration": 0.08333325000000258
        },
        {
          "name": "A#4",
          "midi": 70,
          "time": 35.166631499999966,
          "velocity": 0.7874015748031497,
          "duration": 0.08333325000000258
        },
        {
          "name": "C5",
          "midi": 72,
          "time": 35.166631499999966,
          "velocity": 0.7874015748031497,
          "duration": 0.08333325000000258
        },
        {
          "name": "F2",
          "midi": 41,
          "time": 35.166631499999966,
          "velocity": 0.7874015748031497,
          "duration": 0.16666650000000516
        },
        {
          "name": "F4",
          "midi": 65,
          "time": 35.33329799999997,
          "velocity": 0.7874015748031497,
          "duration": 0.08333325000000258
        },
        {
          "name": "A#4",
          "midi": 70,
          "time": 35.33329799999997,
          "velocity": 0.7874015748031497,
          "duration": 0.08333325000000258
        },
        {
          "name": "C5",
          "midi": 72,
          "time": 35.33329799999997,
          "velocity": 0.7874015748031497,
          "duration": 0.08333325000000258
        },
        {
          "name": "F2",
          "midi": 41,
          "time": 35.33329799999997,
          "velocity": 0.7874015748031497,
          "duration": 0.16666650000000516
        },
        {
          "name": "F4",
          "midi": 65,
          "time": 35.499964499999976,
          "velocity": 0.7874015748031497,
          "duration": 0.08333325000000258
        },
        {
          "name": "F2",
          "midi": 41,
          "time": 35.499964499999976,
          "velocity": 0.7874015748031497,
          "duration": 0.16666650000000516
        },
        {
          "name": "F4",
          "midi": 65,
          "time": 35.66663099999998,
          "velocity": 0.7874015748031497,
          "duration": 0.08333325000000258
        },
        {
          "name": "A#4",
          "midi": 70,
          "time": 35.66663099999998,
          "velocity": 0.7874015748031497,
          "duration": 0.08333325000000258
        },
        {
          "name": "C5",
          "midi": 72,
          "time": 35.66663099999998,
          "velocity": 0.7874015748031497,
          "duration": 0.08333325000000258
        },
        {
          "name": "F2",
          "midi": 41,
          "time": 35.66663099999998,
          "velocity": 0.7874015748031497,
          "duration": 0.3333330000000103
        },
        {
          "name": "F4",
          "midi": 65,
          "time": 35.833297499999986,
          "velocity": 0.7874015748031497,
          "duration": 0.08333325000000258
        },
        {
          "name": "A#4",
          "midi": 70,
          "time": 35.833297499999986,
          "velocity": 0.7874015748031497,
          "duration": 0.08333325000000258
        },
        {
          "name": "C5",
          "midi": 72,
          "time": 35.833297499999986,
          "velocity": 0.7874015748031497,
          "duration": 0.08333325000000258
        },
        {
          "name": "F4",
          "midi": 65,
          "time": 35.99996399999999,
          "velocity": 0.7874015748031497,
          "duration": 0.9999990000000025
        },
        {
          "name": "A4",
          "midi": 69,
          "time": 35.99996399999999,
          "velocity": 0.7874015748031497,
          "duration": 0.9999990000000025
        },
        {
          "name": "C5",
          "midi": 72,
          "time": 35.99996399999999,
          "velocity": 0.7874015748031497,
          "duration": 0.9999990000000025
        },
        {
          "name": "F2",
          "midi": 41,
          "time": 35.99996399999999,
          "velocity": 0.7874015748031497,
          "duration": 0.9999990000000025
        },
        {
          "name": "C6",
          "midi": 84,
          "time": 35.99996399999999,
          "velocity": 0.7874015748031497,
          "duration": 0.9999990000000025
        },
        {
          "name": "F3",
          "midi": 53,
          "time": 35.99996399999999,
          "velocity": 0.7874015748031497,
          "duration": 0.9999990000000025
        },
        {
          "name": "A#3",
          "midi": 58,
          "time": 37.333296,
          "velocity": 0.7874015748031497,
          "duration": 0.9999990000000025
        },
        {
          "name": "A#4",
          "midi": 70,
          "time": 37.333296,
          "velocity": 0.7874015748031497,
          "duration": 0.9999990000000025
        },
        {
          "name": "D5",
          "midi": 74,
          "time": 37.333296,
          "velocity": 0.7874015748031497,
          "duration": 0.9999990000000025
        },
        {
          "name": "A#1",
          "midi": 34,
          "time": 37.333296,
          "velocity": 0.7874015748031497,
          "duration": 0.9999990000000025
        },
        {
          "name": "A#2",
          "midi": 46,
          "time": 37.333296,
          "velocity": 0.7874015748031497,
          "duration": 0.9999990000000025
        },
        {
          "name": "D6",
          "midi": 86,
          "time": 37.333296,
          "velocity": 0.7874015748031497,
          "duration": 0.9999990000000025
        },
        {
          "name": "A#3",
          "midi": 58,
          "time": 38.333295,
          "velocity": 0.7874015748031497,
          "duration": 0.9999990000000025
        },
        {
          "name": "A#4",
          "midi": 70,
          "time": 38.333295,
          "velocity": 0.7874015748031497,
          "duration": 0.9999990000000025
        },
        {
          "name": "D5",
          "midi": 74,
          "time": 38.333295,
          "velocity": 0.7874015748031497,
          "duration": 0.9999990000000025
        },
        {
          "name": "A#1",
          "midi": 34,
          "time": 38.333295,
          "velocity": 0.7874015748031497,
          "duration": 0.9999990000000025
        },
        {
          "name": "D6",
          "midi": 86,
          "time": 38.333295,
          "velocity": 0.7874015748031497,
          "duration": 0.9999990000000025
        },
        {
          "name": "A#2",
          "midi": 46,
          "time": 38.333295,
          "velocity": 0.7874015748031497,
          "duration": 0.9999990000000025
        },
        {
          "name": "F4",
          "midi": 65,
          "time": 39.333294,
          "velocity": 0.7874015748031497,
          "duration": 0.9999990000000025
        },
        {
          "name": "A4",
          "midi": 69,
          "time": 39.333294,
          "velocity": 0.7874015748031497,
          "duration": 0.9999990000000025
        },
        {
          "name": "C5",
          "midi": 72,
          "time": 39.333294,
          "velocity": 0.7874015748031497,
          "duration": 0.9999990000000025
        },
        {
          "name": "F2",
          "midi": 41,
          "time": 39.333294,
          "velocity": 0.7874015748031497,
          "duration": 0.9999990000000025
        },
        {
          "name": "F3",
          "midi": 53,
          "time": 39.333294,
          "velocity": 0.7874015748031497,
          "duration": 0.9999990000000025
        },
        {
          "name": "C6",
          "midi": 84,
          "time": 39.333294,
          "velocity": 0.7874015748031497,
          "duration": 0.9999990000000025
        },
        {
          "name": "A#3",
          "midi": 58,
          "time": 40.333293000000005,
          "velocity": 0.7874015748031497,
          "duration": 0.9999990000000025
        },
        {
          "name": "A#4",
          "midi": 70,
          "time": 40.333293000000005,
          "velocity": 0.7874015748031497,
          "duration": 0.9999990000000025
        },
        {
          "name": "D5",
          "midi": 74,
          "time": 40.333293000000005,
          "velocity": 0.7874015748031497,
          "duration": 0.9999990000000025
        },
        {
          "name": "A#1",
          "midi": 34,
          "time": 40.333293000000005,
          "velocity": 0.7874015748031497,
          "duration": 0.9999990000000025
        },
        {
          "name": "A#2",
          "midi": 46,
          "time": 40.333293000000005,
          "velocity": 0.7874015748031497,
          "duration": 0.9999990000000025
        },
        {
          "name": "D6",
          "midi": 86,
          "time": 40.333293000000005,
          "velocity": 0.7874015748031497,
          "duration": 0.9999990000000025
        },
        {
          "name": "G3",
          "midi": 55,
          "time": 41.33329200000001,
          "velocity": 0.7874015748031497,
          "duration": 0.9999990000000025
        },
        {
          "name": "G4",
          "midi": 67,
          "time": 41.33329200000001,
          "velocity": 0.7874015748031497,
          "duration": 0.9999990000000025
        },
        {
          "name": "A#4",
          "midi": 70,
          "time": 41.33329200000001,
          "velocity": 0.7874015748031497,
          "duration": 0.9999990000000025
        },
        {
          "name": "G1",
          "midi": 31,
          "time": 41.33329200000001,
          "velocity": 0.7874015748031497,
          "duration": 0.9999990000000025
        },
        {
          "name": "A#5",
          "midi": 82,
          "time": 41.33329200000001,
          "velocity": 0.7874015748031497,
          "duration": 0.9999990000000025
        },
        {
          "name": "G2",
          "midi": 43,
          "time": 41.33329200000001,
          "velocity": 0.7874015748031497,
          "duration": 0.9999990000000025
        },
        {
          "name": "A#3",
          "midi": 58,
          "time": 42.33329100000001,
          "velocity": 0.7874015748031497,
          "duration": 0.9999990000000025
        },
        {
          "name": "A#4",
          "midi": 70,
          "time": 42.33329100000001,
          "velocity": 0.7874015748031497,
          "duration": 0.9999990000000025
        },
        {
          "name": "D5",
          "midi": 74,
          "time": 42.33329100000001,
          "velocity": 0.7874015748031497,
          "duration": 0.9999990000000025
        },
        {
          "name": "A#1",
          "midi": 34,
          "time": 42.33329100000001,
          "velocity": 0.7874015748031497,
          "duration": 0.9999990000000025
        },
        {
          "name": "D6",
          "midi": 86,
          "time": 42.33329100000001,
          "velocity": 0.7874015748031497,
          "duration": 0.9999990000000025
        },
        {
          "name": "A#2",
          "midi": 46,
          "time": 42.33329100000001,
          "velocity": 0.7874015748031497,
          "duration": 0.9999990000000025
        },
        {
          "name": "D#4",
          "midi": 63,
          "time": 43.33329000000001,
          "velocity": 0.7874015748031497,
          "duration": 0.9999990000000025
        },
        {
          "name": "G4",
          "midi": 67,
          "time": 43.33329000000001,
          "velocity": 0.7874015748031497,
          "duration": 0.9999990000000025
        },
        {
          "name": "A#4",
          "midi": 70,
          "time": 43.33329000000001,
          "velocity": 0.7874015748031497,
          "duration": 0.9999990000000025
        },
        {
          "name": "D#2",
          "midi": 39,
          "time": 43.33329000000001,
          "velocity": 0.7874015748031497,
          "duration": 0.6666659999999993
        },
        {
          "name": "A#5",
          "midi": 82,
          "time": 43.33329000000001,
          "velocity": 0.7874015748031497,
          "duration": 0.9999990000000025
        },
        {
          "name": "D#3",
          "midi": 51,
          "time": 43.33329000000001,
          "velocity": 0.7874015748031497,
          "duration": 0.6666659999999993
        },
        {
          "name": "E2",
          "midi": 40,
          "time": 43.99995600000001,
          "velocity": 0.7874015748031497,
          "duration": 0.3333330000000032
        },
        {
          "name": "E3",
          "midi": 52,
          "time": 43.99995600000001,
          "velocity": 0.7874015748031497,
          "duration": 0.3333330000000032
        },
        {
          "name": "F4",
          "midi": 65,
          "time": 44.333289000000015,
          "velocity": 0.7874015748031497,
          "duration": 0.9999990000000025
        },
        {
          "name": "A4",
          "midi": 69,
          "time": 44.333289000000015,
          "velocity": 0.7874015748031497,
          "duration": 0.9999990000000025
        },
        {
          "name": "C5",
          "midi": 72,
          "time": 44.333289000000015,
          "velocity": 0.7874015748031497,
          "duration": 0.9999990000000025
        },
        {
          "name": "F2",
          "midi": 41,
          "time": 44.333289000000015,
          "velocity": 0.7874015748031497,
          "duration": 0.9999990000000025
        },
        {
          "name": "C6",
          "midi": 84,
          "time": 44.333289000000015,
          "velocity": 0.7874015748031497,
          "duration": 0.9999990000000025
        },
        {
          "name": "F3",
          "midi": 53,
          "time": 44.333289000000015,
          "velocity": 0.7874015748031497,
          "duration": 0.9999990000000025
        },
        {
          "name": "G3",
          "midi": 55,
          "time": 45.33328800000002,
          "velocity": 0.7874015748031497,
          "duration": 0.08333325000000258
        },
        {
          "name": "G4",
          "midi": 67,
          "time": 45.33328800000002,
          "velocity": 0.7874015748031497,
          "duration": 0.08333325000000258
        },
        {
          "name": "A#4",
          "midi": 70,
          "time": 45.33328800000002,
          "velocity": 0.7874015748031497,
          "duration": 0.08333325000000258
        },
        {
          "name": "G1",
          "midi": 31,
          "time": 45.33328800000002,
          "velocity": 0.7874015748031497,
          "duration": 0.999999000000031
        },
        {
          "name": "G2",
          "midi": 43,
          "time": 45.33328800000002,
          "velocity": 0.7874015748031497,
          "duration": 0.999999000000031
        },
        {
          "name": "A#5",
          "midi": 82,
          "time": 45.33328800000002,
          "velocity": 0.7874015748031497,
          "duration": 0.999999000000031
        },
        {
          "name": "G3",
          "midi": 55,
          "time": 45.49995450000002,
          "velocity": 0.7874015748031497,
          "duration": 0.08333325000000258
        },
        {
          "name": "G4",
          "midi": 67,
          "time": 45.49995450000002,
          "velocity": 0.7874015748031497,
          "duration": 0.08333325000000258
        },
        {
          "name": "A#4",
          "midi": 70,
          "time": 45.49995450000002,
          "velocity": 0.7874015748031497,
          "duration": 0.08333325000000258
        },
        {
          "name": "G3",
          "midi": 55,
          "time": 45.66662100000003,
          "velocity": 0.7874015748031497,
          "duration": 0.08333325000000258
        },
        {
          "name": "G3",
          "midi": 55,
          "time": 45.83328750000003,
          "velocity": 0.7874015748031497,
          "duration": 0.08333325000000258
        },
        {
          "name": "G4",
          "midi": 67,
          "time": 45.83328750000003,
          "velocity": 0.7874015748031497,
          "duration": 0.08333325000000258
        },
        {
          "name": "A#4",
          "midi": 70,
          "time": 45.83328750000003,
          "velocity": 0.7874015748031497,
          "duration": 0.08333325000000258
        },
        {
          "name": "G3",
          "midi": 55,
          "time": 45.99995400000004,
          "velocity": 0.7874015748031497,
          "duration": 0.08333325000000258
        },
        {
          "name": "G4",
          "midi": 67,
          "time": 45.99995400000004,
          "velocity": 0.7874015748031497,
          "duration": 0.08333325000000258
        },
        {
          "name": "A#4",
          "midi": 70,
          "time": 45.99995400000004,
          "velocity": 0.7874015748031497,
          "duration": 0.08333325000000258
        },
        {
          "name": "G3",
          "midi": 55,
          "time": 46.16662050000004,
          "velocity": 0.7874015748031497,
          "duration": 0.08333325000000258
        },
        {
          "name": "D4",
          "midi": 62,
          "time": 46.33328700000005,
          "velocity": 0.7874015748031497,
          "duration": 0.08333325000000258
        },
        {
          "name": "A4",
          "midi": 69,
          "time": 46.33328700000005,
          "velocity": 0.7874015748031497,
          "duration": 0.08333325000000258
        },
        {
          "name": "D5",
          "midi": 74,
          "time": 46.33328700000005,
          "velocity": 0.7874015748031497,
          "duration": 0.08333325000000258
        },
        {
          "name": "D2",
          "midi": 38,
          "time": 46.33328700000005,
          "velocity": 0.7874015748031497,
          "duration": 0.999999000000031
        },
        {
          "name": "D6",
          "midi": 86,
          "time": 46.33328700000005,
          "velocity": 0.7874015748031497,
          "duration": 0.999999000000031
        },
        {
          "name": "D3",
          "midi": 50,
          "time": 46.33328700000005,
          "velocity": 0.7874015748031497,
          "duration": 0.999999000000031
        },
        {
          "name": "D4",
          "midi": 62,
          "time": 46.49995350000005,
          "velocity": 0.7874015748031497,
          "duration": 0.08333325000000258
        },
        {
          "name": "A4",
          "midi": 69,
          "time": 46.49995350000005,
          "velocity": 0.7874015748031497,
          "duration": 0.08333325000000258
        },
        {
          "name": "D4",
          "midi": 62,
          "time": 46.66662000000006,
          "velocity": 0.7874015748031497,
          "duration": 0.08333325000000258
        },
        {
          "name": "D4",
          "midi": 62,
          "time": 46.66662000000006,
          "velocity": 0.7874015748031497,
          "duration": 0.08333325000000258
        },
        {
          "name": "A4",
          "midi": 69,
          "time": 46.66662000000006,
          "velocity": 0.7874015748031497,
          "duration": 0.08333325000000258
        },
        {
          "name": "D5",
          "midi": 74,
          "time": 46.66662000000006,
          "velocity": 0.7874015748031497,
          "duration": 0.08333325000000258
        },
        {
          "name": "D4",
          "midi": 62,
          "time": 46.833286500000064,
          "velocity": 0.7874015748031497,
          "duration": 0.08333325000000258
        },
        {
          "name": "A4",
          "midi": 69,
          "time": 46.833286500000064,
          "velocity": 0.7874015748031497,
          "duration": 0.08333325000000258
        },
        {
          "name": "D4",
          "midi": 62,
          "time": 46.99995300000007,
          "velocity": 0.7874015748031497,
          "duration": 0.08333325000000258
        },
        {
          "name": "A4",
          "midi": 69,
          "time": 46.99995300000007,
          "velocity": 0.7874015748031497,
          "duration": 0.08333325000000258
        },
        {
          "name": "D5",
          "midi": 74,
          "time": 46.99995300000007,
          "velocity": 0.7874015748031497,
          "duration": 0.08333325000000258
        },
        {
          "name": "D4",
          "midi": 62,
          "time": 47.166619500000074,
          "velocity": 0.7874015748031497,
          "duration": 0.08333325000000258
        },
        {
          "name": "D#4",
          "midi": 63,
          "time": 47.33328600000008,
          "velocity": 0.7874015748031497,
          "duration": 0.08333325000000258
        },
        {
          "name": "G4",
          "midi": 67,
          "time": 47.33328600000008,
          "velocity": 0.7874015748031497,
          "duration": 0.08333325000000258
        },
        {
          "name": "A#4",
          "midi": 70,
          "time": 47.33328600000008,
          "velocity": 0.7874015748031497,
          "duration": 0.08333325000000258
        },
        {
          "name": "D#2",
          "midi": 39,
          "time": 47.33328600000008,
          "velocity": 0.7874015748031497,
          "duration": 0.6666660000000206
        },
        {
          "name": "D#3",
          "midi": 51,
          "time": 47.33328600000008,
          "velocity": 0.7874015748031497,
          "duration": 0.6666660000000206
        },
        {
          "name": "A#5",
          "midi": 82,
          "time": 47.33328600000008,
          "velocity": 0.7874015748031497,
          "duration": 0.6666660000000206
        },
        {
          "name": "D#4",
          "midi": 63,
          "time": 47.499952500000084,
          "velocity": 0.7874015748031497,
          "duration": 0.08333325000000258
        },
        {
          "name": "G4",
          "midi": 67,
          "time": 47.499952500000084,
          "velocity": 0.7874015748031497,
          "duration": 0.08333325000000258
        },
        {
          "name": "A#4",
          "midi": 70,
          "time": 47.499952500000084,
          "velocity": 0.7874015748031497,
          "duration": 0.08333325000000258
        },
        {
          "name": "D#4",
          "midi": 63,
          "time": 47.66661900000009,
          "velocity": 0.7874015748031497,
          "duration": 0.08333325000000258
        },
        {
          "name": "D#4",
          "midi": 63,
          "time": 47.833285500000095,
          "velocity": 0.7874015748031497,
          "duration": 0.08333325000000258
        },
        {
          "name": "G4",
          "midi": 67,
          "time": 47.833285500000095,
          "velocity": 0.7874015748031497,
          "duration": 0.08333325000000258
        },
        {
          "name": "A#4",
          "midi": 70,
          "time": 47.833285500000095,
          "velocity": 0.7874015748031497,
          "duration": 0.08333325000000258
        },
        {
          "name": "F4",
          "midi": 65,
          "time": 47.9999520000001,
          "velocity": 0.7874015748031497,
          "duration": 0.08333325000000258
        },
        {
          "name": "A4",
          "midi": 69,
          "time": 47.9999520000001,
          "velocity": 0.7874015748031497,
          "duration": 0.08333325000000258
        },
        {
          "name": "C5",
          "midi": 72,
          "time": 47.9999520000001,
          "velocity": 0.7874015748031497,
          "duration": 0.08333325000000258
        },
        {
          "name": "F2",
          "midi": 41,
          "time": 47.9999520000001,
          "velocity": 0.7874015748031497,
          "duration": 0.3333330000000103
        },
        {
          "name": "C6",
          "midi": 84,
          "time": 47.9999520000001,
          "velocity": 0.7874015748031497,
          "duration": 0.3333330000000103
        },
        {
          "name": "F3",
          "midi": 53,
          "time": 47.9999520000001,
          "velocity": 0.7874015748031497,
          "duration": 0.3333330000000103
        },
        {
          "name": "F4",
          "midi": 65,
          "time": 48.166618500000105,
          "velocity": 0.7874015748031497,
          "duration": 0.08333325000000258
        },
        {
          "name": "A#3",
          "midi": 58,
          "time": 48.33328500000011,
          "velocity": 0.7874015748031497,
          "duration": 0.08333325000000258
        },
        {
          "name": "A#4",
          "midi": 70,
          "time": 48.33328500000011,
          "velocity": 0.7874015748031497,
          "duration": 0.08333325000000258
        },
        {
          "name": "D5",
          "midi": 74,
          "time": 48.33328500000011,
          "velocity": 0.7874015748031497,
          "duration": 0.08333325000000258
        },
        {
          "name": "A#1",
          "midi": 34,
          "time": 48.33328500000011,
          "velocity": 0.7874015748031497,
          "duration": 0.999999000000031
        },
        {
          "name": "A#2",
          "midi": 46,
          "time": 48.33328500000011,
          "velocity": 0.7874015748031497,
          "duration": 0.999999000000031
        },
        {
          "name": "D6",
          "midi": 86,
          "time": 48.33328500000011,
          "velocity": 0.7874015748031497,
          "duration": 0.999999000000031
        },
        {
          "name": "A#3",
          "midi": 58,
          "time": 48.499951500000115,
          "velocity": 0.7874015748031497,
          "duration": 0.08333325000000258
        },
        {
          "name": "A#4",
          "midi": 70,
          "time": 48.499951500000115,
          "velocity": 0.7874015748031497,
          "duration": 0.08333325000000258
        },
        {
          "name": "A#3",
          "midi": 58,
          "time": 48.66661800000012,
          "velocity": 0.7874015748031497,
          "duration": 0.08333325000000258
        },
        {
          "name": "A#3",
          "midi": 58,
          "time": 48.66661800000012,
          "velocity": 0.7874015748031497,
          "duration": 0.08333325000000258
        },
        {
          "name": "A#4",
          "midi": 70,
          "time": 48.66661800000012,
          "velocity": 0.7874015748031497,
          "duration": 0.08333325000000258
        },
        {
          "name": "D5",
          "midi": 74,
          "time": 48.66661800000012,
          "velocity": 0.7874015748031497,
          "duration": 0.08333325000000258
        },
        {
          "name": "A#3",
          "midi": 58,
          "time": 48.833284500000126,
          "velocity": 0.7874015748031497,
          "duration": 0.08333325000000258
        },
        {
          "name": "A#4",
          "midi": 70,
          "time": 48.833284500000126,
          "velocity": 0.7874015748031497,
          "duration": 0.08333325000000258
        },
        {
          "name": "A#3",
          "midi": 58,
          "time": 48.99995100000013,
          "velocity": 0.7874015748031497,
          "duration": 0.08333325000000258
        },
        {
          "name": "A#4",
          "midi": 70,
          "time": 48.99995100000013,
          "velocity": 0.7874015748031497,
          "duration": 0.08333325000000258
        },
        {
          "name": "D5",
          "midi": 74,
          "time": 48.99995100000013,
          "velocity": 0.7874015748031497,
          "duration": 0.08333325000000258
        },
        {
          "name": "A#3",
          "midi": 58,
          "time": 49.166617500000136,
          "velocity": 0.7874015748031497,
          "duration": 0.08333325000000258
        },
        {
          "name": "D#4",
          "midi": 63,
          "time": 49.33328400000014,
          "velocity": 0.7874015748031497,
          "duration": 0.08333325000000258
        },
        {
          "name": "G4",
          "midi": 67,
          "time": 49.33328400000014,
          "velocity": 0.7874015748031497,
          "duration": 0.08333325000000258
        },
        {
          "name": "A#4",
          "midi": 70,
          "time": 49.33328400000014,
          "velocity": 0.7874015748031497,
          "duration": 0.08333325000000258
        },
        {
          "name": "D#2",
          "midi": 39,
          "time": 49.33328400000014,
          "velocity": 0.7874015748031497,
          "duration": 0.999999000000031
        },
        {
          "name": "A#5",
          "midi": 82,
          "time": 49.33328400000014,
          "velocity": 0.7874015748031497,
          "duration": 0.999999000000031
        },
        {
          "name": "D#3",
          "midi": 51,
          "time": 49.33328400000014,
          "velocity": 0.7874015748031497,
          "duration": 0.999999000000031
        },
        {
          "name": "D#4",
          "midi": 63,
          "time": 49.499950500000146,
          "velocity": 0.7874015748031497,
          "duration": 0.08333325000000258
        },
        {
          "name": "G4",
          "midi": 67,
          "time": 49.499950500000146,
          "velocity": 0.7874015748031497,
          "duration": 0.08333325000000258
        },
        {
          "name": "A#4",
          "midi": 70,
          "time": 49.499950500000146,
          "velocity": 0.7874015748031497,
          "duration": 0.08333325000000258
        },
        {
          "name": "D#4",
          "midi": 63,
          "time": 49.66661700000015,
          "velocity": 0.7874015748031497,
          "duration": 0.08333325000000258
        },
        {
          "name": "D#4",
          "midi": 63,
          "time": 49.83328350000016,
          "velocity": 0.7874015748031497,
          "duration": 0.08333325000000258
        },
        {
          "name": "G4",
          "midi": 67,
          "time": 49.83328350000016,
          "velocity": 0.7874015748031497,
          "duration": 0.08333325000000258
        },
        {
          "name": "A#4",
          "midi": 70,
          "time": 49.83328350000016,
          "velocity": 0.7874015748031497,
          "duration": 0.08333325000000258
        },
        {
          "name": "D#4",
          "midi": 63,
          "time": 49.99995000000016,
          "velocity": 0.7874015748031497,
          "duration": 0.08333325000000258
        },
        {
          "name": "G4",
          "midi": 67,
          "time": 49.99995000000016,
          "velocity": 0.7874015748031497,
          "duration": 0.08333325000000258
        },
        {
          "name": "A#4",
          "midi": 70,
          "time": 49.99995000000016,
          "velocity": 0.7874015748031497,
          "duration": 0.08333325000000258
        },
        {
          "name": "D#4",
          "midi": 63,
          "time": 50.16661650000017,
          "velocity": 0.7874015748031497,
          "duration": 0.08333325000000258
        },
        {
          "name": "A#3",
          "midi": 58,
          "time": 50.33328300000017,
          "velocity": 0.7874015748031497,
          "duration": 0.08333325000000258
        },
        {
          "name": "A#4",
          "midi": 70,
          "time": 50.33328300000017,
          "velocity": 0.7874015748031497,
          "duration": 0.08333325000000258
        },
        {
          "name": "D5",
          "midi": 74,
          "time": 50.33328300000017,
          "velocity": 0.7874015748031497,
          "duration": 0.08333325000000258
        },
        {
          "name": "A#1",
          "midi": 34,
          "time": 50.33328300000017,
          "velocity": 0.7874015748031497,
          "duration": 0.999999000000031
        },
        {
          "name": "D6",
          "midi": 86,
          "time": 50.33328300000017,
          "velocity": 0.7874015748031497,
          "duration": 0.999999000000031
        },
        {
          "name": "A#2",
          "midi": 46,
          "time": 50.33328300000017,
          "velocity": 0.7874015748031497,
          "duration": 0.999999000000031
        },
        {
          "name": "A#3",
          "midi": 58,
          "time": 50.49994950000018,
          "velocity": 0.7874015748031497,
          "duration": 0.08333325000000258
        },
        {
          "name": "A#4",
          "midi": 70,
          "time": 50.49994950000018,
          "velocity": 0.7874015748031497,
          "duration": 0.08333325000000258
        },
        {
          "name": "A#3",
          "midi": 58,
          "time": 50.66661600000018,
          "velocity": 0.7874015748031497,
          "duration": 0.08333325000000258
        },
        {
          "name": "A#3",
          "midi": 58,
          "time": 50.66661600000018,
          "velocity": 0.7874015748031497,
          "duration": 0.08333325000000258
        },
        {
          "name": "A#4",
          "midi": 70,
          "time": 50.66661600000018,
          "velocity": 0.7874015748031497,
          "duration": 0.08333325000000258
        },
        {
          "name": "D5",
          "midi": 74,
          "time": 50.66661600000018,
          "velocity": 0.7874015748031497,
          "duration": 0.08333325000000258
        },
        {
          "name": "A#3",
          "midi": 58,
          "time": 50.83328250000019,
          "velocity": 0.7874015748031497,
          "duration": 0.08333325000000258
        },
        {
          "name": "A#4",
          "midi": 70,
          "time": 50.83328250000019,
          "velocity": 0.7874015748031497,
          "duration": 0.08333325000000258
        },
        {
          "name": "A#3",
          "midi": 58,
          "time": 50.99994900000019,
          "velocity": 0.7874015748031497,
          "duration": 0.08333325000000258
        },
        {
          "name": "A#4",
          "midi": 70,
          "time": 50.99994900000019,
          "velocity": 0.7874015748031497,
          "duration": 0.08333325000000258
        },
        {
          "name": "D5",
          "midi": 74,
          "time": 50.99994900000019,
          "velocity": 0.7874015748031497,
          "duration": 0.08333325000000258
        },
        {
          "name": "A#3",
          "midi": 58,
          "time": 51.1666155000002,
          "velocity": 0.7874015748031497,
          "duration": 0.08333325000000258
        },
        {
          "name": "D#4",
          "midi": 63,
          "time": 51.3332820000002,
          "velocity": 0.7874015748031497,
          "duration": 0.08333325000000258
        },
        {
          "name": "G4",
          "midi": 67,
          "time": 51.3332820000002,
          "velocity": 0.7874015748031497,
          "duration": 0.08333325000000258
        },
        {
          "name": "A#4",
          "midi": 70,
          "time": 51.3332820000002,
          "velocity": 0.7874015748031497,
          "duration": 0.08333325000000258
        },
        {
          "name": "D#2",
          "midi": 39,
          "time": 51.3332820000002,
          "velocity": 0.7874015748031497,
          "duration": 0.6666660000000206
        },
        {
          "name": "A#5",
          "midi": 82,
          "time": 51.3332820000002,
          "velocity": 0.7874015748031497,
          "duration": 0.999999000000031
        },
        {
          "name": "D#3",
          "midi": 51,
          "time": 51.3332820000002,
          "velocity": 0.7874015748031497,
          "duration": 0.999999000000031
        },
        {
          "name": "D#4",
          "midi": 63,
          "time": 51.49994850000021,
          "velocity": 0.7874015748031497,
          "duration": 0.08333325000000258
        },
        {
          "name": "G4",
          "midi": 67,
          "time": 51.49994850000021,
          "velocity": 0.7874015748031497,
          "duration": 0.08333325000000258
        },
        {
          "name": "A#4",
          "midi": 70,
          "time": 51.49994850000021,
          "velocity": 0.7874015748031497,
          "duration": 0.08333325000000258
        },
        {
          "name": "D#4",
          "midi": 63,
          "time": 51.66661500000021,
          "velocity": 0.7874015748031497,
          "duration": 0.08333325000000258
        },
        {
          "name": "D#4",
          "midi": 63,
          "time": 51.83328150000022,
          "velocity": 0.7874015748031497,
          "duration": 0.08333325000000258
        },
        {
          "name": "G4",
          "midi": 67,
          "time": 51.83328150000022,
          "velocity": 0.7874015748031497,
          "duration": 0.08333325000000258
        },
        {
          "name": "A#4",
          "midi": 70,
          "time": 51.83328150000022,
          "velocity": 0.7874015748031497,
          "duration": 0.08333325000000258
        },
        {
          "name": "D#4",
          "midi": 63,
          "time": 51.999948000000224,
          "velocity": 0.7874015748031497,
          "duration": 0.08333325000000258
        },
        {
          "name": "G4",
          "midi": 67,
          "time": 51.999948000000224,
          "velocity": 0.7874015748031497,
          "duration": 0.08333325000000258
        },
        {
          "name": "A#4",
          "midi": 70,
          "time": 51.999948000000224,
          "velocity": 0.7874015748031497,
          "duration": 0.08333325000000258
        },
        {
          "name": "E2",
          "midi": 40,
          "time": 51.999948000000224,
          "velocity": 0.7874015748031497,
          "duration": 0.3333330000000103
        },
        {
          "name": "D#4",
          "midi": 63,
          "time": 52.16661450000023,
          "velocity": 0.7874015748031497,
          "duration": 0.08333325000000258
        },
        {
          "name": "F4",
          "midi": 65,
          "time": 52.333281000000234,
          "velocity": 0.7874015748031497,
          "duration": 0.08333325000000258
        },
        {
          "name": "A4",
          "midi": 69,
          "time": 52.333281000000234,
          "velocity": 0.7874015748031497,
          "duration": 0.08333325000000258
        },
        {
          "name": "C5",
          "midi": 72,
          "time": 52.333281000000234,
          "velocity": 0.7874015748031497,
          "duration": 0.08333325000000258
        },
        {
          "name": "F2",
          "midi": 41,
          "time": 52.333281000000234,
          "velocity": 0.7874015748031497,
          "duration": 0.999999000000031
        },
        {
          "name": "F3",
          "midi": 53,
          "time": 52.333281000000234,
          "velocity": 0.7874015748031497,
          "duration": 0.999999000000031
        },
        {
          "name": "C6",
          "midi": 84,
          "time": 52.333281000000234,
          "velocity": 0.7874015748031497,
          "duration": 0.999999000000031
        },
        {
          "name": "F4",
          "midi": 65,
          "time": 52.49994750000024,
          "velocity": 0.7874015748031497,
          "duration": 0.08333325000000258
        },
        {
          "name": "A4",
          "midi": 69,
          "time": 52.49994750000024,
          "velocity": 0.7874015748031497,
          "duration": 0.08333325000000258
        },
        {
          "name": "F4",
          "midi": 65,
          "time": 52.666614000000244,
          "velocity": 0.7874015748031497,
          "duration": 0.08333325000000258
        },
        {
          "name": "F4",
          "midi": 65,
          "time": 52.666614000000244,
          "velocity": 0.7874015748031497,
          "duration": 0.08333325000000258
        },
        {
          "name": "A4",
          "midi": 69,
          "time": 52.666614000000244,
          "velocity": 0.7874015748031497,
          "duration": 0.08333325000000258
        },
        {
          "name": "C5",
          "midi": 72,
          "time": 52.666614000000244,
          "velocity": 0.7874015748031497,
          "duration": 0.08333325000000258
        },
        {
          "name": "F4",
          "midi": 65,
          "time": 52.83328050000025,
          "velocity": 0.7874015748031497,
          "duration": 0.08333325000000258
        },
        {
          "name": "A4",
          "midi": 69,
          "time": 52.83328050000025,
          "velocity": 0.7874015748031497,
          "duration": 0.08333325000000258
        },
        {
          "name": "F4",
          "midi": 65,
          "time": 52.999947000000255,
          "velocity": 0.7874015748031497,
          "duration": 0.08333325000000258
        },
        {
          "name": "A4",
          "midi": 69,
          "time": 52.999947000000255,
          "velocity": 0.7874015748031497,
          "duration": 0.08333325000000258
        },
        {
          "name": "C5",
          "midi": 72,
          "time": 52.999947000000255,
          "velocity": 0.7874015748031497,
          "duration": 0.08333325000000258
        },
        {
          "name": "F4",
          "midi": 65,
          "time": 53.16661350000026,
          "velocity": 0.7874015748031497,
          "duration": 0.08333325000000258
        },
        {
          "name": "G3",
          "midi": 55,
          "time": 53.333280000000265,
          "velocity": 0.7874015748031497,
          "duration": 0.08333325000000258
        },
        {
          "name": "G4",
          "midi": 67,
          "time": 53.333280000000265,
          "velocity": 0.7874015748031497,
          "duration": 0.08333325000000258
        },
        {
          "name": "A#4",
          "midi": 70,
          "time": 53.333280000000265,
          "velocity": 0.7874015748031497,
          "duration": 0.08333325000000258
        },
        {
          "name": "G1",
          "midi": 31,
          "time": 53.333280000000265,
          "velocity": 0.7874015748031497,
          "duration": 0.999999000000031
        },
        {
          "name": "G2",
          "midi": 43,
          "time": 53.333280000000265,
          "velocity": 0.7874015748031497,
          "duration": 0.999999000000031
        },
        {
          "name": "A#5",
          "midi": 82,
          "time": 53.333280000000265,
          "velocity": 0.7874015748031497,
          "duration": 0.999999000000031
        },
        {
          "name": "G3",
          "midi": 55,
          "time": 53.49994650000027,
          "velocity": 0.7874015748031497,
          "duration": 0.08333325000000258
        },
        {
          "name": "G4",
          "midi": 67,
          "time": 53.49994650000027,
          "velocity": 0.7874015748031497,
          "duration": 0.08333325000000258
        },
        {
          "name": "A#4",
          "midi": 70,
          "time": 53.49994650000027,
          "velocity": 0.7874015748031497,
          "duration": 0.08333325000000258
        },
        {
          "name": "G3",
          "midi": 55,
          "time": 53.666613000000275,
          "velocity": 0.7874015748031497,
          "duration": 0.08333325000000258
        },
        {
          "name": "G3",
          "midi": 55,
          "time": 53.83327950000028,
          "velocity": 0.7874015748031497,
          "duration": 0.08333325000000258
        },
        {
          "name": "G4",
          "midi": 67,
          "time": 53.83327950000028,
          "velocity": 0.7874015748031497,
          "duration": 0.08333325000000258
        },
        {
          "name": "A#4",
          "midi": 70,
          "time": 53.83327950000028,
          "velocity": 0.7874015748031497,
          "duration": 0.08333325000000258
        },
        {
          "name": "G3",
          "midi": 55,
          "time": 53.999946000000286,
          "velocity": 0.7874015748031497,
          "duration": 0.08333325000000258
        },
        {
          "name": "G4",
          "midi": 67,
          "time": 53.999946000000286,
          "velocity": 0.7874015748031497,
          "duration": 0.08333325000000258
        },
        {
          "name": "A#4",
          "midi": 70,
          "time": 53.999946000000286,
          "velocity": 0.7874015748031497,
          "duration": 0.08333325000000258
        },
        {
          "name": "G3",
          "midi": 55,
          "time": 54.16661250000029,
          "velocity": 0.7874015748031497,
          "duration": 0.08333325000000258
        },
        {
          "name": "D4",
          "midi": 62,
          "time": 54.333279000000296,
          "velocity": 0.7874015748031497,
          "duration": 0.08333325000000258
        },
        {
          "name": "A4",
          "midi": 69,
          "time": 54.333279000000296,
          "velocity": 0.7874015748031497,
          "duration": 0.08333325000000258
        },
        {
          "name": "D5",
          "midi": 74,
          "time": 54.333279000000296,
          "velocity": 0.7874015748031497,
          "duration": 0.08333325000000258
        },
        {
          "name": "D2",
          "midi": 38,
          "time": 54.333279000000296,
          "velocity": 0.7874015748031497,
          "duration": 0.999999000000031
        },
        {
          "name": "D3",
          "midi": 50,
          "time": 54.333279000000296,
          "velocity": 0.7874015748031497,
          "duration": 0.999999000000031
        },
        {
          "name": "D6",
          "midi": 86,
          "time": 54.333279000000296,
          "velocity": 0.7874015748031497,
          "duration": 0.999999000000031
        },
        {
          "name": "D4",
          "midi": 62,
          "time": 54.4999455000003,
          "velocity": 0.7874015748031497,
          "duration": 0.08333325000000258
        },
        {
          "name": "A4",
          "midi": 69,
          "time": 54.4999455000003,
          "velocity": 0.7874015748031497,
          "duration": 0.08333325000000258
        },
        {
          "name": "D4",
          "midi": 62,
          "time": 54.666612000000306,
          "velocity": 0.7874015748031497,
          "duration": 0.08333325000000258
        },
        {
          "name": "D4",
          "midi": 62,
          "time": 54.666612000000306,
          "velocity": 0.7874015748031497,
          "duration": 0.08333325000000258
        },
        {
          "name": "A4",
          "midi": 69,
          "time": 54.666612000000306,
          "velocity": 0.7874015748031497,
          "duration": 0.08333325000000258
        },
        {
          "name": "D5",
          "midi": 74,
          "time": 54.666612000000306,
          "velocity": 0.7874015748031497,
          "duration": 0.08333325000000258
        },
        {
          "name": "D4",
          "midi": 62,
          "time": 54.83327850000031,
          "velocity": 0.7874015748031497,
          "duration": 0.08333325000000258
        },
        {
          "name": "A4",
          "midi": 69,
          "time": 54.83327850000031,
          "velocity": 0.7874015748031497,
          "duration": 0.08333325000000258
        },
        {
          "name": "D4",
          "midi": 62,
          "time": 54.99994500000032,
          "velocity": 0.7874015748031497,
          "duration": 0.08333325000000258
        },
        {
          "name": "A4",
          "midi": 69,
          "time": 54.99994500000032,
          "velocity": 0.7874015748031497,
          "duration": 0.08333325000000258
        },
        {
          "name": "D5",
          "midi": 74,
          "time": 54.99994500000032,
          "velocity": 0.7874015748031497,
          "duration": 0.08333325000000258
        },
        {
          "name": "D4",
          "midi": 62,
          "time": 55.16661150000032,
          "velocity": 0.7874015748031497,
          "duration": 0.08333325000000258
        },
        {
          "name": "D#4",
          "midi": 63,
          "time": 55.33327800000033,
          "velocity": 0.7874015748031497,
          "duration": 0.08333325000000258
        },
        {
          "name": "G4",
          "midi": 67,
          "time": 55.33327800000033,
          "velocity": 0.7874015748031497,
          "duration": 0.08333325000000258
        },
        {
          "name": "A#4",
          "midi": 70,
          "time": 55.33327800000033,
          "velocity": 0.7874015748031497,
          "duration": 0.08333325000000258
        },
        {
          "name": "D#2",
          "midi": 39,
          "time": 55.33327800000033,
          "velocity": 0.7874015748031497,
          "duration": 0.6666660000000206
        },
        {
          "name": "A#5",
          "midi": 82,
          "time": 55.33327800000033,
          "velocity": 0.7874015748031497,
          "duration": 0.6666660000000206
        },
        {
          "name": "D#3",
          "midi": 51,
          "time": 55.33327800000033,
          "velocity": 0.7874015748031497,
          "duration": 0.6666660000000206
        },
        {
          "name": "D#4",
          "midi": 63,
          "time": 55.49994450000033,
          "velocity": 0.7874015748031497,
          "duration": 0.08333325000000258
        },
        {
          "name": "G4",
          "midi": 67,
          "time": 55.49994450000033,
          "velocity": 0.7874015748031497,
          "duration": 0.08333325000000258
        },
        {
          "name": "A#4",
          "midi": 70,
          "time": 55.49994450000033,
          "velocity": 0.7874015748031497,
          "duration": 0.08333325000000258
        },
        {
          "name": "D#4",
          "midi": 63,
          "time": 55.66661100000034,
          "velocity": 0.7874015748031497,
          "duration": 0.08333325000000258
        },
        {
          "name": "D#4",
          "midi": 63,
          "time": 55.83327750000034,
          "velocity": 0.7874015748031497,
          "duration": 0.08333325000000258
        },
        {
          "name": "G4",
          "midi": 67,
          "time": 55.83327750000034,
          "velocity": 0.7874015748031497,
          "duration": 0.08333325000000258
        },
        {
          "name": "A#4",
          "midi": 70,
          "time": 55.83327750000034,
          "velocity": 0.7874015748031497,
          "duration": 0.08333325000000258
        },
        {
          "name": "F4",
          "midi": 65,
          "time": 55.99994400000035,
          "velocity": 0.7874015748031497,
          "duration": 0.08333325000000258
        },
        {
          "name": "A4",
          "midi": 69,
          "time": 55.99994400000035,
          "velocity": 0.7874015748031497,
          "duration": 0.08333325000000258
        },
        {
          "name": "C5",
          "midi": 72,
          "time": 55.99994400000035,
          "velocity": 0.7874015748031497,
          "duration": 0.08333325000000258
        },
        {
          "name": "F2",
          "midi": 41,
          "time": 55.99994400000035,
          "velocity": 0.7874015748031497,
          "duration": 0.3333330000000103
        },
        {
          "name": "F3",
          "midi": 53,
          "time": 55.99994400000035,
          "velocity": 0.7874015748031497,
          "duration": 0.3333330000000103
        },
        {
          "name": "C6",
          "midi": 84,
          "time": 55.99994400000035,
          "velocity": 0.7874015748031497,
          "duration": 0.3333330000000103
        },
        {
          "name": "F4",
          "midi": 65,
          "time": 56.16661050000035,
          "velocity": 0.7874015748031497,
          "duration": 0.08333325000000258
        },
        {
          "name": "A#3",
          "midi": 58,
          "time": 56.33327700000036,
          "velocity": 0.7874015748031497,
          "duration": 0.08333325000000258
        },
        {
          "name": "A#4",
          "midi": 70,
          "time": 56.33327700000036,
          "velocity": 0.7874015748031497,
          "duration": 0.08333325000000258
        },
        {
          "name": "D5",
          "midi": 74,
          "time": 56.33327700000036,
          "velocity": 0.7874015748031497,
          "duration": 0.08333325000000258
        },
        {
          "name": "A#1",
          "midi": 34,
          "time": 56.33327700000036,
          "velocity": 0.7874015748031497,
          "duration": 0.999999000000031
        },
        {
          "name": "A#2",
          "midi": 46,
          "time": 56.33327700000036,
          "velocity": 0.7874015748031497,
          "duration": 0.999999000000031
        },
        {
          "name": "D6",
          "midi": 86,
          "time": 56.33327700000036,
          "velocity": 0.7874015748031497,
          "duration": 0.999999000000031
        },
        {
          "name": "A#3",
          "midi": 58,
          "time": 56.49994350000036,
          "velocity": 0.7874015748031497,
          "duration": 0.08333325000000258
        },
        {
          "name": "A#4",
          "midi": 70,
          "time": 56.49994350000036,
          "velocity": 0.7874015748031497,
          "duration": 0.08333325000000258
        },
        {
          "name": "A#3",
          "midi": 58,
          "time": 56.66661000000037,
          "velocity": 0.7874015748031497,
          "duration": 0.08333325000000258
        },
        {
          "name": "A#3",
          "midi": 58,
          "time": 56.66661000000037,
          "velocity": 0.7874015748031497,
          "duration": 0.08333325000000258
        },
        {
          "name": "A#4",
          "midi": 70,
          "time": 56.66661000000037,
          "velocity": 0.7874015748031497,
          "duration": 0.08333325000000258
        },
        {
          "name": "D5",
          "midi": 74,
          "time": 56.66661000000037,
          "velocity": 0.7874015748031497,
          "duration": 0.08333325000000258
        },
        {
          "name": "A#3",
          "midi": 58,
          "time": 56.83327650000037,
          "velocity": 0.7874015748031497,
          "duration": 0.08333325000000258
        },
        {
          "name": "A#4",
          "midi": 70,
          "time": 56.83327650000037,
          "velocity": 0.7874015748031497,
          "duration": 0.08333325000000258
        },
        {
          "name": "A#3",
          "midi": 58,
          "time": 56.99994300000038,
          "velocity": 0.7874015748031497,
          "duration": 0.08333325000000258
        },
        {
          "name": "A#4",
          "midi": 70,
          "time": 56.99994300000038,
          "velocity": 0.7874015748031497,
          "duration": 0.08333325000000258
        },
        {
          "name": "D5",
          "midi": 74,
          "time": 56.99994300000038,
          "velocity": 0.7874015748031497,
          "duration": 0.08333325000000258
        },
        {
          "name": "A#3",
          "midi": 58,
          "time": 57.16660950000038,
          "velocity": 0.7874015748031497,
          "duration": 0.08333325000000258
        },
        {
          "name": "D#2",
          "midi": 39,
          "time": 57.33327600000039,
          "velocity": 0.7874015748031497,
          "duration": 0.16666649999999805
        },
        {
          "name": "D#3",
          "midi": 51,
          "time": 57.33327600000039,
          "velocity": 0.7874015748031497,
          "duration": 1.3333319999999844
        },
        {
          "name": "A#5",
          "midi": 82,
          "time": 57.33327600000039,
          "velocity": 0.7874015748031497,
          "duration": 1.3333319999999844
        },
        {
          "name": "D#2",
          "midi": 39,
          "time": 57.49994250000039,
          "velocity": 0.7874015748031497,
          "duration": 0.16666649999999805
        },
        {
          "name": "D#2",
          "midi": 39,
          "time": 57.666609000000385,
          "velocity": 0.7874015748031497,
          "duration": 0.16666649999999805
        },
        {
          "name": "D#2",
          "midi": 39,
          "time": 57.83327550000038,
          "velocity": 0.7874015748031497,
          "duration": 0.16666649999999805
        },
        {
          "name": "D#2",
          "midi": 39,
          "time": 57.99994200000038,
          "velocity": 0.7874015748031497,
          "duration": 0.16666649999999805
        },
        {
          "name": "D#2",
          "midi": 39,
          "time": 58.16660850000038,
          "velocity": 0.7874015748031497,
          "duration": 0.16666649999999805
        },
        {
          "name": "D#2",
          "midi": 39,
          "time": 58.33327500000038,
          "velocity": 0.7874015748031497,
          "duration": 0.16666649999999805
        },
        {
          "name": "D#2",
          "midi": 39,
          "time": 58.499941500000375,
          "velocity": 0.7874015748031497,
          "duration": 0.16666649999999805
        },
        {
          "name": "D#2",
          "midi": 39,
          "time": 58.66660800000037,
          "velocity": 0.7874015748031497,
          "duration": 0.16666649999999805
        },
        {
          "name": "D#3",
          "midi": 51,
          "time": 58.66660800000037,
          "velocity": 0.7874015748031497,
          "duration": 0.6666659999999922
        },
        {
          "name": "A#5",
          "midi": 82,
          "time": 58.66660800000037,
          "velocity": 0.7874015748031497,
          "duration": 1.3333319999999844
        },
        {
          "name": "D#2",
          "midi": 39,
          "time": 58.83327450000037,
          "velocity": 0.7874015748031497,
          "duration": 0.16666649999999805
        },
        {
          "name": "D#2",
          "midi": 39,
          "time": 58.99994100000037,
          "velocity": 0.7874015748031497,
          "duration": 0.16666649999999805
        },
        {
          "name": "D#2",
          "midi": 39,
          "time": 59.16660750000037,
          "velocity": 0.7874015748031497,
          "duration": 0.16666649999999805
        },
        {
          "name": "E2",
          "midi": 40,
          "time": 59.333274000000365,
          "velocity": 0.7874015748031497,
          "duration": 0.16666649999999805
        },
        {
          "name": "E3",
          "midi": 52,
          "time": 59.333274000000365,
          "velocity": 0.7874015748031497,
          "duration": 0.6666659999999922
        },
        {
          "name": "E2",
          "midi": 40,
          "time": 59.49994050000036,
          "velocity": 0.7874015748031497,
          "duration": 0.16666649999999805
        },
        {
          "name": "E2",
          "midi": 40,
          "time": 59.66660700000036,
          "velocity": 0.7874015748031497,
          "duration": 0.16666649999999805
        },
        {
          "name": "E2",
          "midi": 40,
          "time": 59.83327350000036,
          "velocity": 0.7874015748031497,
          "duration": 0.16666649999999805
        },
        {
          "name": "F2",
          "midi": 41,
          "time": 59.99994000000036,
          "velocity": 0.7874015748031497,
          "duration": 0.16666649999999805
        },
        {
          "name": "C6",
          "midi": 84,
          "time": 59.99994000000036,
          "velocity": 0.7874015748031497,
          "duration": 1.3333319999999844
        },
        {
          "name": "F3",
          "midi": 53,
          "time": 59.99994000000036,
          "velocity": 0.7874015748031497,
          "duration": 0.3333329999999961
        },
        {
          "name": "F3",
          "midi": 53,
          "time": 60.166606500000356,
          "velocity": 0.7874015748031497,
          "duration": 0.49999949999999416
        },
        {
          "name": "F2",
          "midi": 41,
          "time": 60.333273000000354,
          "velocity": 0.7874015748031497,
          "duration": 0.16666649999999805
        },
        {
          "name": "F3",
          "midi": 53,
          "time": 60.49993950000035,
          "velocity": 0.7874015748031497,
          "duration": 0.49999949999999416
        },
        {
          "name": "F2",
          "midi": 41,
          "time": 60.66660600000035,
          "velocity": 0.7874015748031497,
          "duration": 0.16666649999999805
        },
        {
          "name": "F3",
          "midi": 53,
          "time": 60.83327250000035,
          "velocity": 0.7874015748031497,
          "duration": 0.49999949999999416
        },
        {
          "name": "F2",
          "midi": 41,
          "time": 60.999939000000346,
          "velocity": 0.7874015748031497,
          "duration": 0.16666649999999805
        },
        {
          "name": "F3",
          "midi": 53,
          "time": 61.166605500000344,
          "velocity": 0.7874015748031497,
          "duration": 0.16666649999999805
        },
        {
          "name": "F2",
          "midi": 41,
          "time": 61.33327200000034,
          "velocity": 0.7874015748031497,
          "duration": 0.6666659999999993
        },
        {
          "name": "C6",
          "midi": 84,
          "time": 61.33327200000034,
          "velocity": 0.7874015748031497,
          "duration": 0.6666659999999993
        },
        {
          "name": "F3",
          "midi": 53,
          "time": 61.33327200000034,
          "velocity": 0.7874015748031497,
          "duration": 0.6666659999999993
        },
        {
          "name": "G1",
          "midi": 31,
          "time": 62.66660400000034,
          "velocity": 0.7874015748031497,
          "duration": 1.3333319999999986
        },
        {
          "name": "G2",
          "midi": 43,
          "time": 62.66660400000034,
          "velocity": 0.7874015748031497,
          "duration": 1.3333319999999986
        },
        {
          "name": "D2",
          "midi": 38,
          "time": 63.99993600000034,
          "velocity": 0.7874015748031497,
          "duration": 1.3333320000000057
        },
        {
          "name": "D3",
          "midi": 50,
          "time": 63.99993600000034,
          "velocity": 0.7874015748031497,
          "duration": 1.3333320000000057
        },
        {
          "name": "D#2",
          "midi": 39,
          "time": 65.33326800000034,
          "velocity": 0.7874015748031497,
          "duration": 1.3333319999999986
        },
        {
          "name": "D#3",
          "midi": 51,
          "time": 65.33326800000034,
          "velocity": 0.7874015748031497,
          "duration": 1.3333319999999986
        },
        {
          "name": "F2",
          "midi": 41,
          "time": 66.66660000000034,
          "velocity": 0.7874015748031497,
          "duration": 1.3333319999999986
        },
        {
          "name": "F3",
          "midi": 53,
          "time": 66.66660000000034,
          "velocity": 0.7874015748031497,
          "duration": 1.3333319999999986
        },
        {
          "name": "G1",
          "midi": 31,
          "time": 67.99993200000034,
          "velocity": 0.7874015748031497,
          "duration": 1.3333319999999986
        },
        {
          "name": "G2",
          "midi": 43,
          "time": 67.99993200000034,
          "velocity": 0.7874015748031497,
          "duration": 1.3333319999999986
        },
        {
          "name": "D2",
          "midi": 38,
          "time": 69.33326400000034,
          "velocity": 0.7874015748031497,
          "duration": 1.3333319999999986
        },
        {
          "name": "D3",
          "midi": 50,
          "time": 69.33326400000034,
          "velocity": 0.7874015748031497,
          "duration": 1.3333319999999986
        },
        {
          "name": "D#2",
          "midi": 39,
          "time": 70.66659600000034,
          "velocity": 0.7874015748031497,
          "duration": 0.6666660000000064
        },
        {
          "name": "D#3",
          "midi": 51,
          "time": 70.66659600000034,
          "velocity": 0.7874015748031497,
          "duration": 0.6666660000000064
        },
        {
          "name": "F2",
          "midi": 41,
          "time": 71.33326200000035,
          "velocity": 0.7874015748031497,
          "duration": 0.6666660000000064
        },
        {
          "name": "F3",
          "midi": 53,
          "time": 71.33326200000035,
          "velocity": 0.7874015748031497,
          "duration": 0.6666660000000064
        },
        {
          "name": "A#1",
          "midi": 34,
          "time": 71.99992800000035,
          "velocity": 0.7874015748031497,
          "duration": 0.9999990000000025
        },
        {
          "name": "A#2",
          "midi": 46,
          "time": 71.99992800000035,
          "velocity": 0.7874015748031497,
          "duration": 0.9999990000000025
        },
        {
          "name": "A1",
          "midi": 33,
          "time": 72.99992700000035,
          "velocity": 0.7874015748031497,
          "duration": 0.3333329999999961
        },
        {
          "name": "A2",
          "midi": 45,
          "time": 72.99992700000035,
          "velocity": 0.7874015748031497,
          "duration": 0.3333329999999961
        },
        {
          "name": "G2",
          "midi": 43,
          "time": 73.33326000000035,
          "velocity": 0.7874015748031497,
          "duration": 1.333331999999956
        },
        {
          "name": "D4",
          "midi": 62,
          "time": 73.33326000000035,
          "velocity": 0.7874015748031497,
          "duration": 0.08333324999999547
        },
        {
          "name": "A#4",
          "midi": 70,
          "time": 73.33326000000035,
          "velocity": 0.7874015748031497,
          "duration": 0.08333324999999547
        },
        {
          "name": "G5",
          "midi": 79,
          "time": 73.33326000000035,
          "velocity": 0.7874015748031497,
          "duration": 0.08333324999999547
        },
        {
          "name": "G1",
          "midi": 31,
          "time": 73.33326000000035,
          "velocity": 0.7874015748031497,
          "duration": 0.16666649999999095
        },
        {
          "name": "A#5",
          "midi": 82,
          "time": 73.33326000000035,
          "velocity": 0.7874015748031497,
          "duration": 1.333331999999956
        },
        {
          "name": "A#3",
          "midi": 58,
          "time": 73.41659325000035,
          "velocity": 0.7874015748031497,
          "duration": 0.08333324999999547
        },
        {
          "name": "G4",
          "midi": 67,
          "time": 73.41659325000035,
          "velocity": 0.7874015748031497,
          "duration": 0.08333324999999547
        },
        {
          "name": "D5",
          "midi": 74,
          "time": 73.41659325000035,
          "velocity": 0.7874015748031497,
          "duration": 0.08333324999999547
        },
        {
          "name": "G3",
          "midi": 55,
          "time": 73.49992650000034,
          "velocity": 0.7874015748031497,
          "duration": 0.08333324999999547
        },
        {
          "name": "D4",
          "midi": 62,
          "time": 73.49992650000034,
          "velocity": 0.7874015748031497,
          "duration": 0.08333324999999547
        },
        {
          "name": "A#4",
          "midi": 70,
          "time": 73.49992650000034,
          "velocity": 0.7874015748031497,
          "duration": 0.08333324999999547
        },
        {
          "name": "G1",
          "midi": 31,
          "time": 73.49992650000034,
          "velocity": 0.7874015748031497,
          "duration": 0.16666649999999095
        },
        {
          "name": "D3",
          "midi": 50,
          "time": 73.58325975000034,
          "velocity": 0.7874015748031497,
          "duration": 0.08333324999999547
        },
        {
          "name": "A#3",
          "midi": 58,
          "time": 73.58325975000034,
          "velocity": 0.7874015748031497,
          "duration": 0.08333324999999547
        },
        {
          "name": "G4",
          "midi": 67,
          "time": 73.58325975000034,
          "velocity": 0.7874015748031497,
          "duration": 0.08333324999999547
        },
        {
          "name": "G1",
          "midi": 31,
          "time": 73.66659300000033,
          "velocity": 0.7874015748031497,
          "duration": 0.16666650000000516
        },
        {
          "name": "D4",
          "midi": 62,
          "time": 73.83325950000034,
          "velocity": 0.7874015748031497,
          "duration": 0.08333324999999547
        },
        {
          "name": "A#4",
          "midi": 70,
          "time": 73.83325950000034,
          "velocity": 0.7874015748031497,
          "duration": 0.08333324999999547
        },
        {
          "name": "G5",
          "midi": 79,
          "time": 73.83325950000034,
          "velocity": 0.7874015748031497,
          "duration": 0.08333324999999547
        },
        {
          "name": "G1",
          "midi": 31,
          "time": 73.83325950000034,
          "velocity": 0.7874015748031497,
          "duration": 0.16666649999999095
        },
        {
          "name": "A#3",
          "midi": 58,
          "time": 73.91659275000033,
          "velocity": 0.7874015748031497,
          "duration": 0.08333324999999547
        },
        {
          "name": "G4",
          "midi": 67,
          "time": 73.91659275000033,
          "velocity": 0.7874015748031497,
          "duration": 0.08333324999999547
        },
        {
          "name": "D5",
          "midi": 74,
          "time": 73.91659275000033,
          "velocity": 0.7874015748031497,
          "duration": 0.08333324999999547
        },
        {
          "name": "G3",
          "midi": 55,
          "time": 73.99992600000033,
          "velocity": 0.7874015748031497,
          "duration": 0.08333324999999547
        },
        {
          "name": "D4",
          "midi": 62,
          "time": 73.99992600000033,
          "velocity": 0.7874015748031497,
          "duration": 0.08333324999999547
        },
        {
          "name": "A#4",
          "midi": 70,
          "time": 73.99992600000033,
          "velocity": 0.7874015748031497,
          "duration": 0.08333324999999547
        },
        {
          "name": "G1",
          "midi": 31,
          "time": 73.99992600000033,
          "velocity": 0.7874015748031497,
          "duration": 0.16666649999999095
        },
        {
          "name": "D3",
          "midi": 50,
          "time": 74.08325925000032,
          "velocity": 0.7874015748031497,
          "duration": 0.08333324999999547
        },
        {
          "name": "A#3",
          "midi": 58,
          "time": 74.08325925000032,
          "velocity": 0.7874015748031497,
          "duration": 0.08333324999999547
        },
        {
          "name": "G4",
          "midi": 67,
          "time": 74.08325925000032,
          "velocity": 0.7874015748031497,
          "duration": 0.08333324999999547
        },
        {
          "name": "G1",
          "midi": 31,
          "time": 74.16659250000032,
          "velocity": 0.7874015748031497,
          "duration": 0.16666650000000516
        },
        {
          "name": "D3",
          "midi": 50,
          "time": 74.33325900000033,
          "velocity": 0.7874015748031497,
          "duration": 0.08333324999999547
        },
        {
          "name": "A#3",
          "midi": 58,
          "time": 74.33325900000033,
          "velocity": 0.7874015748031497,
          "duration": 0.08333324999999547
        },
        {
          "name": "G4",
          "midi": 67,
          "time": 74.33325900000033,
          "velocity": 0.7874015748031497,
          "duration": 0.08333324999999547
        },
        {
          "name": "G1",
          "midi": 31,
          "time": 74.33325900000033,
          "velocity": 0.7874015748031497,
          "duration": 0.16666649999999095
        },
        {
          "name": "G3",
          "midi": 55,
          "time": 74.41659225000032,
          "velocity": 0.7874015748031497,
          "duration": 0.08333324999999547
        },
        {
          "name": "D4",
          "midi": 62,
          "time": 74.41659225000032,
          "velocity": 0.7874015748031497,
          "duration": 0.08333324999999547
        },
        {
          "name": "A#4",
          "midi": 70,
          "time": 74.41659225000032,
          "velocity": 0.7874015748031497,
          "duration": 0.08333324999999547
        },
        {
          "name": "A#3",
          "midi": 58,
          "time": 74.49992550000032,
          "velocity": 0.7874015748031497,
          "duration": 0.08333324999999547
        },
        {
          "name": "G4",
          "midi": 67,
          "time": 74.49992550000032,
          "velocity": 0.7874015748031497,
          "duration": 0.08333324999999547
        },
        {
          "name": "D5",
          "midi": 74,
          "time": 74.49992550000032,
          "velocity": 0.7874015748031497,
          "duration": 0.08333324999999547
        },
        {
          "name": "G1",
          "midi": 31,
          "time": 74.49992550000032,
          "velocity": 0.7874015748031497,
          "duration": 0.16666649999999095
        },
        {
          "name": "D4",
          "midi": 62,
          "time": 74.58325875000031,
          "velocity": 0.7874015748031497,
          "duration": 0.08333324999999547
        },
        {
          "name": "A#4",
          "midi": 70,
          "time": 74.58325875000031,
          "velocity": 0.7874015748031497,
          "duration": 0.08333324999999547
        },
        {
          "name": "G5",
          "midi": 79,
          "time": 74.58325875000031,
          "velocity": 0.7874015748031497,
          "duration": 0.08333324999999547
        },
        {
          "name": "D3",
          "midi": 50,
          "time": 74.6665920000003,
          "velocity": 0.7874015748031497,
          "duration": 1.333331999999956
        },
        {
          "name": "F4",
          "midi": 65,
          "time": 74.6665920000003,
          "velocity": 0.7874015748031497,
          "duration": 0.08333324999999547
        },
        {
          "name": "D5",
          "midi": 74,
          "time": 74.6665920000003,
          "velocity": 0.7874015748031497,
          "duration": 0.08333324999999547
        },
        {
          "name": "A5",
          "midi": 81,
          "time": 74.6665920000003,
          "velocity": 0.7874015748031497,
          "duration": 0.08333324999999547
        },
        {
          "name": "D2",
          "midi": 38,
          "time": 74.6665920000003,
          "velocity": 0.7874015748031497,
          "duration": 0.16666649999999095
        },
        {
          "name": "D6",
          "midi": 86,
          "time": 74.6665920000003,
          "velocity": 0.7874015748031497,
          "duration": 1.333331999999956
        },
        {
          "name": "D4",
          "midi": 62,
          "time": 74.7499252500003,
          "velocity": 0.7874015748031497,
          "duration": 0.08333324999999547
        },
        {
          "name": "A4",
          "midi": 69,
          "time": 74.7499252500003,
          "velocity": 0.7874015748031497,
          "duration": 0.08333324999999547
        },
        {
          "name": "F5",
          "midi": 77,
          "time": 74.7499252500003,
          "velocity": 0.7874015748031497,
          "duration": 0.08333324999999547
        },
        {
          "name": "A3",
          "midi": 57,
          "time": 74.8332585000003,
          "velocity": 0.7874015748031497,
          "duration": 0.08333324999999547
        },
        {
          "name": "F4",
          "midi": 65,
          "time": 74.8332585000003,
          "velocity": 0.7874015748031497,
          "duration": 0.08333324999999547
        },
        {
          "name": "D5",
          "midi": 74,
          "time": 74.8332585000003,
          "velocity": 0.7874015748031497,
          "duration": 0.08333324999999547
        },
        {
          "name": "D2",
          "midi": 38,
          "time": 74.8332585000003,
          "velocity": 0.7874015748031497,
          "duration": 0.16666649999999095
        },
        {
          "name": "F3",
          "midi": 53,
          "time": 74.9165917500003,
          "velocity": 0.7874015748031497,
          "duration": 0.08333324999999547
        },
        {
          "name": "D4",
          "midi": 62,
          "time": 74.9165917500003,
          "velocity": 0.7874015748031497,
          "duration": 0.08333324999999547
        },
        {
          "name": "A4",
          "midi": 69,
          "time": 74.9165917500003,
          "velocity": 0.7874015748031497,
          "duration": 0.08333324999999547
        },
        {
          "name": "D2",
          "midi": 38,
          "time": 74.99992500000029,
          "velocity": 0.7874015748031497,
          "duration": 0.16666650000000516
        },
        {
          "name": "F4",
          "midi": 65,
          "time": 75.1665915000003,
          "velocity": 0.7874015748031497,
          "duration": 0.08333324999999547
        },
        {
          "name": "D5",
          "midi": 74,
          "time": 75.1665915000003,
          "velocity": 0.7874015748031497,
          "duration": 0.08333324999999547
        },
        {
          "name": "A5",
          "midi": 81,
          "time": 75.1665915000003,
          "velocity": 0.7874015748031497,
          "duration": 0.08333324999999547
        },
        {
          "name": "D2",
          "midi": 38,
          "time": 75.1665915000003,
          "velocity": 0.7874015748031497,
          "duration": 0.16666649999999095
        },
        {
          "name": "D4",
          "midi": 62,
          "time": 75.24992475000029,
          "velocity": 0.7874015748031497,
          "duration": 0.08333324999999547
        },
        {
          "name": "A4",
          "midi": 69,
          "time": 75.24992475000029,
          "velocity": 0.7874015748031497,
          "duration": 0.08333324999999547
        },
        {
          "name": "F5",
          "midi": 77,
          "time": 75.24992475000029,
          "velocity": 0.7874015748031497,
          "duration": 0.08333324999999547
        },
        {
          "name": "A3",
          "midi": 57,
          "time": 75.33325800000028,
          "velocity": 0.7874015748031497,
          "duration": 0.08333324999999547
        },
        {
          "name": "F4",
          "midi": 65,
          "time": 75.33325800000028,
          "velocity": 0.7874015748031497,
          "duration": 0.08333324999999547
        },
        {
          "name": "D5",
          "midi": 74,
          "time": 75.33325800000028,
          "velocity": 0.7874015748031497,
          "duration": 0.08333324999999547
        },
        {
          "name": "D2",
          "midi": 38,
          "time": 75.33325800000028,
          "velocity": 0.7874015748031497,
          "duration": 0.16666649999999095
        },
        {
          "name": "F3",
          "midi": 53,
          "time": 75.41659125000028,
          "velocity": 0.7874015748031497,
          "duration": 0.08333324999999547
        },
        {
          "name": "D4",
          "midi": 62,
          "time": 75.41659125000028,
          "velocity": 0.7874015748031497,
          "duration": 0.08333324999999547
        },
        {
          "name": "A4",
          "midi": 69,
          "time": 75.41659125000028,
          "velocity": 0.7874015748031497,
          "duration": 0.08333324999999547
        },
        {
          "name": "D2",
          "midi": 38,
          "time": 75.49992450000028,
          "velocity": 0.7874015748031497,
          "duration": 0.16666650000000516
        },
        {
          "name": "F3",
          "midi": 53,
          "time": 75.66659100000028,
          "velocity": 0.7874015748031497,
          "duration": 0.08333324999999547
        },
        {
          "name": "D4",
          "midi": 62,
          "time": 75.66659100000028,
          "velocity": 0.7874015748031497,
          "duration": 0.08333324999999547
        },
        {
          "name": "A4",
          "midi": 69,
          "time": 75.66659100000028,
          "velocity": 0.7874015748031497,
          "duration": 0.08333324999999547
        },
        {
          "name": "D2",
          "midi": 38,
          "time": 75.66659100000028,
          "velocity": 0.7874015748031497,
          "duration": 0.16666649999999095
        },
        {
          "name": "A3",
          "midi": 57,
          "time": 75.74992425000028,
          "velocity": 0.7874015748031497,
          "duration": 0.08333324999999547
        },
        {
          "name": "F4",
          "midi": 65,
          "time": 75.74992425000028,
          "velocity": 0.7874015748031497,
          "duration": 0.08333324999999547
        },
        {
          "name": "D5",
          "midi": 74,
          "time": 75.74992425000028,
          "velocity": 0.7874015748031497,
          "duration": 0.08333324999999547
        },
        {
          "name": "D4",
          "midi": 62,
          "time": 75.83325750000027,
          "velocity": 0.7874015748031497,
          "duration": 0.08333324999999547
        },
        {
          "name": "A4",
          "midi": 69,
          "time": 75.83325750000027,
          "velocity": 0.7874015748031497,
          "duration": 0.08333324999999547
        },
        {
          "name": "F5",
          "midi": 77,
          "time": 75.83325750000027,
          "velocity": 0.7874015748031497,
          "duration": 0.08333324999999547
        },
        {
          "name": "D2",
          "midi": 38,
          "time": 75.83325750000027,
          "velocity": 0.7874015748031497,
          "duration": 0.16666649999999095
        },
        {
          "name": "F4",
          "midi": 65,
          "time": 75.91659075000027,
          "velocity": 0.7874015748031497,
          "duration": 0.08333324999999547
        },
        {
          "name": "D5",
          "midi": 74,
          "time": 75.91659075000027,
          "velocity": 0.7874015748031497,
          "duration": 0.08333324999999547
        },
        {
          "name": "A5",
          "midi": 81,
          "time": 75.91659075000027,
          "velocity": 0.7874015748031497,
          "duration": 0.08333324999999547
        },
        {
          "name": "A#2",
          "midi": 46,
          "time": 75.99992400000026,
          "velocity": 0.7874015748031497,
          "duration": 1.333331999999956
        },
        {
          "name": "D#4",
          "midi": 63,
          "time": 75.99992400000026,
          "velocity": 0.7874015748031497,
          "duration": 0.08333324999999547
        },
        {
          "name": "A#4",
          "midi": 70,
          "time": 75.99992400000026,
          "velocity": 0.7874015748031497,
          "duration": 0.08333324999999547
        },
        {
          "name": "G5",
          "midi": 79,
          "time": 75.99992400000026,
          "velocity": 0.7874015748031497,
          "duration": 0.08333324999999547
        },
        {
          "name": "D#2",
          "midi": 39,
          "time": 75.99992400000026,
          "velocity": 0.7874015748031497,
          "duration": 0.16666649999999095
        },
        {
          "name": "A#5",
          "midi": 82,
          "time": 75.99992400000026,
          "velocity": 0.7874015748031497,
          "duration": 1.333331999999956
        },
        {
          "name": "A#3",
          "midi": 58,
          "time": 76.08325725000026,
          "velocity": 0.7874015748031497,
          "duration": 0.08333324999999547
        },
        {
          "name": "G4",
          "midi": 67,
          "time": 76.08325725000026,
          "velocity": 0.7874015748031497,
          "duration": 0.08333324999999547
        },
        {
          "name": "D#5",
          "midi": 75,
          "time": 76.08325725000026,
          "velocity": 0.7874015748031497,
          "duration": 0.08333324999999547
        },
        {
          "name": "G3",
          "midi": 55,
          "time": 76.16659050000025,
          "velocity": 0.7874015748031497,
          "duration": 0.08333324999999547
        },
        {
          "name": "D#4",
          "midi": 63,
          "time": 76.16659050000025,
          "velocity": 0.7874015748031497,
          "duration": 0.08333324999999547
        },
        {
          "name": "A#4",
          "midi": 70,
          "time": 76.16659050000025,
          "velocity": 0.7874015748031497,
          "duration": 0.08333324999999547
        },
        {
          "name": "D#2",
          "midi": 39,
          "time": 76.16659050000025,
          "velocity": 0.7874015748031497,
          "duration": 0.16666649999999095
        },
        {
          "name": "D#3",
          "midi": 51,
          "time": 76.24992375000025,
          "velocity": 0.7874015748031497,
          "duration": 0.08333324999999547
        },
        {
          "name": "A#3",
          "midi": 58,
          "time": 76.24992375000025,
          "velocity": 0.7874015748031497,
          "duration": 0.08333324999999547
        },
        {
          "name": "G4",
          "midi": 67,
          "time": 76.24992375000025,
          "velocity": 0.7874015748031497,
          "duration": 0.08333324999999547
        },
        {
          "name": "D#2",
          "midi": 39,
          "time": 76.33325700000024,
          "velocity": 0.7874015748031497,
          "duration": 0.16666650000000516
        },
        {
          "name": "D#4",
          "midi": 63,
          "time": 76.49992350000025,
          "velocity": 0.7874015748031497,
          "duration": 0.08333324999999547
        },
        {
          "name": "A#4",
          "midi": 70,
          "time": 76.49992350000025,
          "velocity": 0.7874015748031497,
          "duration": 0.08333324999999547
        },
        {
          "name": "G5",
          "midi": 79,
          "time": 76.49992350000025,
          "velocity": 0.7874015748031497,
          "duration": 0.08333324999999547
        },
        {
          "name": "D#2",
          "midi": 39,
          "time": 76.49992350000025,
          "velocity": 0.7874015748031497,
          "duration": 0.16666649999999095
        },
        {
          "name": "A#3",
          "midi": 58,
          "time": 76.58325675000025,
          "velocity": 0.7874015748031497,
          "duration": 0.08333324999999547
        },
        {
          "name": "G4",
          "midi": 67,
          "time": 76.58325675000025,
          "velocity": 0.7874015748031497,
          "duration": 0.08333324999999547
        },
        {
          "name": "D#5",
          "midi": 75,
          "time": 76.58325675000025,
          "velocity": 0.7874015748031497,
          "duration": 0.08333324999999547
        },
        {
          "name": "G3",
          "midi": 55,
          "time": 76.66659000000024,
          "velocity": 0.7874015748031497,
          "duration": 0.08333324999999547
        },
        {
          "name": "D#4",
          "midi": 63,
          "time": 76.66659000000024,
          "velocity": 0.7874015748031497,
          "duration": 0.08333324999999547
        },
        {
          "name": "A#4",
          "midi": 70,
          "time": 76.66659000000024,
          "velocity": 0.7874015748031497,
          "duration": 0.08333324999999547
        },
        {
          "name": "D#2",
          "midi": 39,
          "time": 76.66659000000024,
          "velocity": 0.7874015748031497,
          "duration": 0.16666649999999095
        },
        {
          "name": "D#3",
          "midi": 51,
          "time": 76.74992325000024,
          "velocity": 0.7874015748031497,
          "duration": 0.08333324999999547
        },
        {
          "name": "A#3",
          "midi": 58,
          "time": 76.74992325000024,
          "velocity": 0.7874015748031497,
          "duration": 0.08333324999999547
        },
        {
          "name": "G4",
          "midi": 67,
          "time": 76.74992325000024,
          "velocity": 0.7874015748031497,
          "duration": 0.08333324999999547
        },
        {
          "name": "D#2",
          "midi": 39,
          "time": 76.83325650000023,
          "velocity": 0.7874015748031497,
          "duration": 0.16666650000000516
        },
        {
          "name": "D#3",
          "midi": 51,
          "time": 76.99992300000024,
          "velocity": 0.7874015748031497,
          "duration": 0.08333324999999547
        },
        {
          "name": "A#3",
          "midi": 58,
          "time": 76.99992300000024,
          "velocity": 0.7874015748031497,
          "duration": 0.08333324999999547
        },
        {
          "name": "G4",
          "midi": 67,
          "time": 76.99992300000024,
          "velocity": 0.7874015748031497,
          "duration": 0.08333324999999547
        },
        {
          "name": "D#2",
          "midi": 39,
          "time": 76.99992300000024,
          "velocity": 0.7874015748031497,
          "duration": 0.16666649999999095
        },
        {
          "name": "G3",
          "midi": 55,
          "time": 77.08325625000023,
          "velocity": 0.7874015748031497,
          "duration": 0.08333324999999547
        },
        {
          "name": "D#4",
          "midi": 63,
          "time": 77.08325625000023,
          "velocity": 0.7874015748031497,
          "duration": 0.08333324999999547
        },
        {
          "name": "A#4",
          "midi": 70,
          "time": 77.08325625000023,
          "velocity": 0.7874015748031497,
          "duration": 0.08333324999999547
        },
        {
          "name": "A#3",
          "midi": 58,
          "time": 77.16658950000023,
          "velocity": 0.7874015748031497,
          "duration": 0.08333324999999547
        },
        {
          "name": "G4",
          "midi": 67,
          "time": 77.16658950000023,
          "velocity": 0.7874015748031497,
          "duration": 0.08333324999999547
        },
        {
          "name": "D#5",
          "midi": 75,
          "time": 77.16658950000023,
          "velocity": 0.7874015748031497,
          "duration": 0.08333324999999547
        },
        {
          "name": "D#2",
          "midi": 39,
          "time": 77.16658950000023,
          "velocity": 0.7874015748031497,
          "duration": 0.16666649999999095
        },
        {
          "name": "D#4",
          "midi": 63,
          "time": 77.24992275000022,
          "velocity": 0.7874015748031497,
          "duration": 0.08333324999999547
        },
        {
          "name": "A#4",
          "midi": 70,
          "time": 77.24992275000022,
          "velocity": 0.7874015748031497,
          "duration": 0.08333324999999547
        },
        {
          "name": "G5",
          "midi": 79,
          "time": 77.24992275000022,
          "velocity": 0.7874015748031497,
          "duration": 0.08333324999999547
        },
        {
          "name": "D4",
          "midi": 62,
          "time": 77.33325600000022,
          "velocity": 0.7874015748031497,
          "duration": 0.08333324999999547
        },
        {
          "name": "A#4",
          "midi": 70,
          "time": 77.33325600000022,
          "velocity": 0.7874015748031497,
          "duration": 0.08333324999999547
        },
        {
          "name": "F5",
          "midi": 77,
          "time": 77.33325600000022,
          "velocity": 0.7874015748031497,
          "duration": 0.08333324999999547
        },
        {
          "name": "A#1",
          "midi": 34,
          "time": 77.33325600000022,
          "velocity": 0.7874015748031497,
          "duration": 0.16666649999999095
        },
        {
          "name": "A#2",
          "midi": 46,
          "time": 77.33325600000022,
          "velocity": 0.7874015748031497,
          "duration": 1.333331999999956
        },
        {
          "name": "D6",
          "midi": 86,
          "time": 77.33325600000022,
          "velocity": 0.7874015748031497,
          "duration": 1.333331999999956
        },
        {
          "name": "A#3",
          "midi": 58,
          "time": 77.41658925000021,
          "velocity": 0.7874015748031497,
          "duration": 0.08333324999999547
        },
        {
          "name": "F4",
          "midi": 65,
          "time": 77.41658925000021,
          "velocity": 0.7874015748031497,
          "duration": 0.08333324999999547
        },
        {
          "name": "D5",
          "midi": 74,
          "time": 77.41658925000021,
          "velocity": 0.7874015748031497,
          "duration": 0.08333324999999547
        },
        {
          "name": "F3",
          "midi": 53,
          "time": 77.49992250000021,
          "velocity": 0.7874015748031497,
          "duration": 0.08333324999999547
        },
        {
          "name": "D4",
          "midi": 62,
          "time": 77.49992250000021,
          "velocity": 0.7874015748031497,
          "duration": 0.08333324999999547
        },
        {
          "name": "A#4",
          "midi": 70,
          "time": 77.49992250000021,
          "velocity": 0.7874015748031497,
          "duration": 0.08333324999999547
        },
        {
          "name": "A#1",
          "midi": 34,
          "time": 77.49992250000021,
          "velocity": 0.7874015748031497,
          "duration": 0.16666649999999095
        },
        {
          "name": "D3",
          "midi": 50,
          "time": 77.5832557500002,
          "velocity": 0.7874015748031497,
          "duration": 0.08333324999999547
        },
        {
          "name": "A#3",
          "midi": 58,
          "time": 77.5832557500002,
          "velocity": 0.7874015748031497,
          "duration": 0.08333324999999547
        },
        {
          "name": "F4",
          "midi": 65,
          "time": 77.5832557500002,
          "velocity": 0.7874015748031497,
          "duration": 0.08333324999999547
        },
        {
          "name": "A#1",
          "midi": 34,
          "time": 77.6665890000002,
          "velocity": 0.7874015748031497,
          "duration": 0.16666650000000516
        },
        {
          "name": "D4",
          "midi": 62,
          "time": 77.8332555000002,
          "velocity": 0.7874015748031497,
          "duration": 0.08333324999999547
        },
        {
          "name": "A#4",
          "midi": 70,
          "time": 77.8332555000002,
          "velocity": 0.7874015748031497,
          "duration": 0.08333324999999547
        },
        {
          "name": "F5",
          "midi": 77,
          "time": 77.8332555000002,
          "velocity": 0.7874015748031497,
          "duration": 0.08333324999999547
        },
        {
          "name": "A#1",
          "midi": 34,
          "time": 77.8332555000002,
          "velocity": 0.7874015748031497,
          "duration": 0.16666649999999095
        },
        {
          "name": "A#3",
          "midi": 58,
          "time": 77.9165887500002,
          "velocity": 0.7874015748031497,
          "duration": 0.08333324999999547
        },
        {
          "name": "F4",
          "midi": 65,
          "time": 77.9165887500002,
          "velocity": 0.7874015748031497,
          "duration": 0.08333324999999547
        },
        {
          "name": "D5",
          "midi": 74,
          "time": 77.9165887500002,
          "velocity": 0.7874015748031497,
          "duration": 0.08333324999999547
        },
        {
          "name": "F3",
          "midi": 53,
          "time": 77.9999220000002,
          "velocity": 0.7874015748031497,
          "duration": 0.08333324999999547
        },
        {
          "name": "D4",
          "midi": 62,
          "time": 77.9999220000002,
          "velocity": 0.7874015748031497,
          "duration": 0.08333324999999547
        },
        {
          "name": "A#4",
          "midi": 70,
          "time": 77.9999220000002,
          "velocity": 0.7874015748031497,
          "duration": 0.08333324999999547
        },
        {
          "name": "A#1",
          "midi": 34,
          "time": 77.9999220000002,
          "velocity": 0.7874015748031497,
          "duration": 0.16666649999999095
        },
        {
          "name": "D3",
          "midi": 50,
          "time": 78.08325525000019,
          "velocity": 0.7874015748031497,
          "duration": 0.08333324999999547
        },
        {
          "name": "A#3",
          "midi": 58,
          "time": 78.08325525000019,
          "velocity": 0.7874015748031497,
          "duration": 0.08333324999999547
        },
        {
          "name": "F4",
          "midi": 65,
          "time": 78.08325525000019,
          "velocity": 0.7874015748031497,
          "duration": 0.08333324999999547
        },
        {
          "name": "A#1",
          "midi": 34,
          "time": 78.16658850000019,
          "velocity": 0.7874015748031497,
          "duration": 0.16666650000000516
        },
        {
          "name": "D3",
          "midi": 50,
          "time": 78.3332550000002,
          "velocity": 0.7874015748031497,
          "duration": 0.08333324999999547
        },
        {
          "name": "A#3",
          "midi": 58,
          "time": 78.3332550000002,
          "velocity": 0.7874015748031497,
          "duration": 0.08333324999999547
        },
        {
          "name": "F4",
          "midi": 65,
          "time": 78.3332550000002,
          "velocity": 0.7874015748031497,
          "duration": 0.08333324999999547
        },
        {
          "name": "A#1",
          "midi": 34,
          "time": 78.3332550000002,
          "velocity": 0.7874015748031497,
          "duration": 0.16666649999999095
        },
        {
          "name": "F3",
          "midi": 53,
          "time": 78.41658825000019,
          "velocity": 0.7874015748031497,
          "duration": 0.08333324999999547
        },
        {
          "name": "D4",
          "midi": 62,
          "time": 78.41658825000019,
          "velocity": 0.7874015748031497,
          "duration": 0.08333324999999547
        },
        {
          "name": "A#4",
          "midi": 70,
          "time": 78.41658825000019,
          "velocity": 0.7874015748031497,
          "duration": 0.08333324999999547
        },
        {
          "name": "A#3",
          "midi": 58,
          "time": 78.49992150000018,
          "velocity": 0.7874015748031497,
          "duration": 0.08333324999999547
        },
        {
          "name": "F4",
          "midi": 65,
          "time": 78.49992150000018,
          "velocity": 0.7874015748031497,
          "duration": 0.08333324999999547
        },
        {
          "name": "D5",
          "midi": 74,
          "time": 78.49992150000018,
          "velocity": 0.7874015748031497,
          "duration": 0.08333324999999547
        },
        {
          "name": "A#1",
          "midi": 34,
          "time": 78.49992150000018,
          "velocity": 0.7874015748031497,
          "duration": 0.16666649999999095
        },
        {
          "name": "D4",
          "midi": 62,
          "time": 78.58325475000018,
          "velocity": 0.7874015748031497,
          "duration": 0.08333324999999547
        },
        {
          "name": "A#4",
          "midi": 70,
          "time": 78.58325475000018,
          "velocity": 0.7874015748031497,
          "duration": 0.08333324999999547
        },
        {
          "name": "F5",
          "midi": 77,
          "time": 78.58325475000018,
          "velocity": 0.7874015748031497,
          "duration": 0.08333324999999547
        },
        {
          "name": "A#3",
          "midi": 58,
          "time": 78.66658800000017,
          "velocity": 0.7874015748031497,
          "duration": 0.08333324999999547
        },
        {
          "name": "G4",
          "midi": 67,
          "time": 78.66658800000017,
          "velocity": 0.7874015748031497,
          "duration": 0.08333324999999547
        },
        {
          "name": "D#5",
          "midi": 75,
          "time": 78.66658800000017,
          "velocity": 0.7874015748031497,
          "duration": 0.08333324999999547
        },
        {
          "name": "D#2",
          "midi": 39,
          "time": 78.66658800000017,
          "velocity": 0.7874015748031497,
          "duration": 0.16666649999999095
        },
        {
          "name": "A#5",
          "midi": 82,
          "time": 78.66658800000017,
          "velocity": 0.7874015748031497,
          "duration": 1.3333319999999276
        },
        {
          "name": "D#3",
          "midi": 51,
          "time": 78.66658800000017,
          "velocity": 0.7874015748031497,
          "duration": 1.3333319999999276
        },
        {
          "name": "A#3",
          "midi": 58,
          "time": 78.83325450000017,
          "velocity": 0.7874015748031497,
          "duration": 0.08333324999999547
        },
        {
          "name": "G4",
          "midi": 67,
          "time": 78.83325450000017,
          "velocity": 0.7874015748031497,
          "duration": 0.08333324999999547
        },
        {
          "name": "D#5",
          "midi": 75,
          "time": 78.83325450000017,
          "velocity": 0.7874015748031497,
          "duration": 0.08333324999999547
        },
        {
          "name": "D#2",
          "midi": 39,
          "time": 78.83325450000017,
          "velocity": 0.7874015748031497,
          "duration": 0.16666649999999095
        },
        {
          "name": "A#3",
          "midi": 58,
          "time": 78.99992100000016,
          "velocity": 0.7874015748031497,
          "duration": 0.08333324999999547
        },
        {
          "name": "D#2",
          "midi": 39,
          "time": 78.99992100000016,
          "velocity": 0.7874015748031497,
          "duration": 0.16666649999999095
        },
        {
          "name": "A#3",
          "midi": 58,
          "time": 79.16658750000015,
          "velocity": 0.7874015748031497,
          "duration": 0.08333324999999547
        },
        {
          "name": "G4",
          "midi": 67,
          "time": 79.16658750000015,
          "velocity": 0.7874015748031497,
          "duration": 0.08333324999999547
        },
        {
          "name": "D#5",
          "midi": 75,
          "time": 79.16658750000015,
          "velocity": 0.7874015748031497,
          "duration": 0.08333324999999547
        },
        {
          "name": "D#2",
          "midi": 39,
          "time": 79.16658750000015,
          "velocity": 0.7874015748031497,
          "duration": 0.16666649999999095
        },
        {
          "name": "A#3",
          "midi": 58,
          "time": 79.33325400000014,
          "velocity": 0.7874015748031497,
          "duration": 0.08333324999999547
        },
        {
          "name": "G4",
          "midi": 67,
          "time": 79.33325400000014,
          "velocity": 0.7874015748031497,
          "duration": 0.08333324999999547
        },
        {
          "name": "D#5",
          "midi": 75,
          "time": 79.33325400000014,
          "velocity": 0.7874015748031497,
          "duration": 0.08333324999999547
        },
        {
          "name": "D#2",
          "midi": 39,
          "time": 79.33325400000014,
          "velocity": 0.7874015748031497,
          "duration": 0.16666649999999095
        },
        {
          "name": "A#3",
          "midi": 58,
          "time": 79.49992050000013,
          "velocity": 0.7874015748031497,
          "duration": 0.08333324999999547
        },
        {
          "name": "D#2",
          "midi": 39,
          "time": 79.49992050000013,
          "velocity": 0.7874015748031497,
          "duration": 0.16666649999999095
        },
        {
          "name": "A#3",
          "midi": 58,
          "time": 79.66658700000012,
          "velocity": 0.7874015748031497,
          "duration": 0.08333324999999547
        },
        {
          "name": "G4",
          "midi": 67,
          "time": 79.66658700000012,
          "velocity": 0.7874015748031497,
          "duration": 0.08333324999999547
        },
        {
          "name": "D#5",
          "midi": 75,
          "time": 79.66658700000012,
          "velocity": 0.7874015748031497,
          "duration": 0.08333324999999547
        },
        {
          "name": "D#2",
          "midi": 39,
          "time": 79.66658700000012,
          "velocity": 0.7874015748031497,
          "duration": 0.16666649999999095
        },
        {
          "name": "A#3",
          "midi": 58,
          "time": 79.83325350000011,
          "velocity": 0.7874015748031497,
          "duration": 0.08333324999999547
        },
        {
          "name": "G4",
          "midi": 67,
          "time": 79.83325350000011,
          "velocity": 0.7874015748031497,
          "duration": 0.08333324999999547
        },
        {
          "name": "D#5",
          "midi": 75,
          "time": 79.83325350000011,
          "velocity": 0.7874015748031497,
          "duration": 0.08333324999999547
        },
        {
          "name": "D#2",
          "midi": 39,
          "time": 79.83325350000011,
          "velocity": 0.7874015748031497,
          "duration": 0.16666649999999095
        },
        {
          "name": "A#3",
          "midi": 58,
          "time": 79.9999200000001,
          "velocity": 0.7874015748031497,
          "duration": 0.08333324999999547
        },
        {
          "name": "G4",
          "midi": 67,
          "time": 79.9999200000001,
          "velocity": 0.7874015748031497,
          "duration": 0.08333324999999547
        },
        {
          "name": "E5",
          "midi": 76,
          "time": 79.9999200000001,
          "velocity": 0.7874015748031497,
          "duration": 0.08333324999999547
        },
        {
          "name": "E2",
          "midi": 40,
          "time": 79.9999200000001,
          "velocity": 0.7874015748031497,
          "duration": 0.16666649999999095
        },
        {
          "name": "A#5",
          "midi": 82,
          "time": 79.9999200000001,
          "velocity": 0.7874015748031497,
          "duration": 1.3333319999999276
        },
        {
          "name": "E3",
          "midi": 52,
          "time": 79.9999200000001,
          "velocity": 0.7874015748031497,
          "duration": 1.3333319999999276
        },
        {
          "name": "A#3",
          "midi": 58,
          "time": 80.1665865000001,
          "velocity": 0.7874015748031497,
          "duration": 0.08333324999999547
        },
        {
          "name": "G4",
          "midi": 67,
          "time": 80.1665865000001,
          "velocity": 0.7874015748031497,
          "duration": 0.08333324999999547
        },
        {
          "name": "E5",
          "midi": 76,
          "time": 80.1665865000001,
          "velocity": 0.7874015748031497,
          "duration": 0.08333324999999547
        },
        {
          "name": "E2",
          "midi": 40,
          "time": 80.1665865000001,
          "velocity": 0.7874015748031497,
          "duration": 0.16666649999999095
        },
        {
          "name": "A#3",
          "midi": 58,
          "time": 80.33325300000008,
          "velocity": 0.7874015748031497,
          "duration": 0.08333324999999547
        },
        {
          "name": "E2",
          "midi": 40,
          "time": 80.33325300000008,
          "velocity": 0.7874015748031497,
          "duration": 0.16666649999999095
        },
        {
          "name": "A#3",
          "midi": 58,
          "time": 80.49991950000008,
          "velocity": 0.7874015748031497,
          "duration": 0.08333324999999547
        },
        {
          "name": "G4",
          "midi": 67,
          "time": 80.49991950000008,
          "velocity": 0.7874015748031497,
          "duration": 0.08333324999999547
        },
        {
          "name": "E5",
          "midi": 76,
          "time": 80.49991950000008,
          "velocity": 0.7874015748031497,
          "duration": 0.08333324999999547
        },
        {
          "name": "E2",
          "midi": 40,
          "time": 80.49991950000008,
          "velocity": 0.7874015748031497,
          "duration": 0.16666649999999095
        },
        {
          "name": "A#3",
          "midi": 58,
          "time": 80.66658600000007,
          "velocity": 0.7874015748031497,
          "duration": 0.08333324999999547
        },
        {
          "name": "G4",
          "midi": 67,
          "time": 80.66658600000007,
          "velocity": 0.7874015748031497,
          "duration": 0.08333324999999547
        },
        {
          "name": "E5",
          "midi": 76,
          "time": 80.66658600000007,
          "velocity": 0.7874015748031497,
          "duration": 0.08333324999999547
        },
        {
          "name": "E2",
          "midi": 40,
          "time": 80.66658600000007,
          "velocity": 0.7874015748031497,
          "duration": 0.16666649999999095
        },
        {
          "name": "A#3",
          "midi": 58,
          "time": 80.83325250000006,
          "velocity": 0.7874015748031497,
          "duration": 0.08333324999999547
        },
        {
          "name": "E2",
          "midi": 40,
          "time": 80.83325250000006,
          "velocity": 0.7874015748031497,
          "duration": 0.16666649999999095
        },
        {
          "name": "A#3",
          "midi": 58,
          "time": 80.99991900000005,
          "velocity": 0.7874015748031497,
          "duration": 0.08333324999999547
        },
        {
          "name": "G4",
          "midi": 67,
          "time": 80.99991900000005,
          "velocity": 0.7874015748031497,
          "duration": 0.08333324999999547
        },
        {
          "name": "E5",
          "midi": 76,
          "time": 80.99991900000005,
          "velocity": 0.7874015748031497,
          "duration": 0.08333324999999547
        },
        {
          "name": "E2",
          "midi": 40,
          "time": 80.99991900000005,
          "velocity": 0.7874015748031497,
          "duration": 0.16666649999999095
        },
        {
          "name": "A#3",
          "midi": 58,
          "time": 81.16658550000004,
          "velocity": 0.7874015748031497,
          "duration": 0.08333324999999547
        },
        {
          "name": "G4",
          "midi": 67,
          "time": 81.16658550000004,
          "velocity": 0.7874015748031497,
          "duration": 0.08333324999999547
        },
        {
          "name": "E5",
          "midi": 76,
          "time": 81.16658550000004,
          "velocity": 0.7874015748031497,
          "duration": 0.08333324999999547
        },
        {
          "name": "E2",
          "midi": 40,
          "time": 81.16658550000004,
          "velocity": 0.7874015748031497,
          "duration": 0.16666649999999095
        },
        {
          "name": "C4",
          "midi": 60,
          "time": 81.33325200000003,
          "velocity": 0.7874015748031497,
          "duration": 0.08333324999999547
        },
        {
          "name": "A4",
          "midi": 69,
          "time": 81.33325200000003,
          "velocity": 0.7874015748031497,
          "duration": 0.08333324999999547
        },
        {
          "name": "F5",
          "midi": 77,
          "time": 81.33325200000003,
          "velocity": 0.7874015748031497,
          "duration": 0.08333324999999547
        },
        {
          "name": "F2",
          "midi": 41,
          "time": 81.33325200000003,
          "velocity": 0.7874015748031497,
          "duration": 0.16666649999999095
        },
        {
          "name": "C6",
          "midi": 84,
          "time": 81.33325200000003,
          "velocity": 0.7874015748031497,
          "duration": 1.3333319999999276
        },
        {
          "name": "F3",
          "midi": 53,
          "time": 81.33325200000003,
          "velocity": 0.7874015748031497,
          "duration": 1.3333319999999276
        },
        {
          "name": "C4",
          "midi": 60,
          "time": 81.49991850000002,
          "velocity": 0.7874015748031497,
          "duration": 0.08333324999999547
        },
        {
          "name": "A4",
          "midi": 69,
          "time": 81.49991850000002,
          "velocity": 0.7874015748031497,
          "duration": 0.08333324999999547
        },
        {
          "name": "F5",
          "midi": 77,
          "time": 81.49991850000002,
          "velocity": 0.7874015748031497,
          "duration": 0.08333324999999547
        },
        {
          "name": "F2",
          "midi": 41,
          "time": 81.49991850000002,
          "velocity": 0.7874015748031497,
          "duration": 0.16666649999999095
        },
        {
          "name": "C4",
          "midi": 60,
          "time": 81.66658500000001,
          "velocity": 0.7874015748031497,
          "duration": 0.08333324999999547
        },
        {
          "name": "A4",
          "midi": 69,
          "time": 81.66658500000001,
          "velocity": 0.7874015748031497,
          "duration": 0.08333324999999547
        },
        {
          "name": "F5",
          "midi": 77,
          "time": 81.66658500000001,
          "velocity": 0.7874015748031497,
          "duration": 0.08333324999999547
        },
        {
          "name": "F2",
          "midi": 41,
          "time": 81.66658500000001,
          "velocity": 0.7874015748031497,
          "duration": 0.16666649999999095
        },
        {
          "name": "C4",
          "midi": 60,
          "time": 81.8332515,
          "velocity": 0.7874015748031497,
          "duration": 0.08333324999999547
        },
        {
          "name": "A4",
          "midi": 69,
          "time": 81.8332515,
          "velocity": 0.7874015748031497,
          "duration": 0.08333324999999547
        },
        {
          "name": "F5",
          "midi": 77,
          "time": 81.8332515,
          "velocity": 0.7874015748031497,
          "duration": 0.08333324999999547
        },
        {
          "name": "F2",
          "midi": 41,
          "time": 81.8332515,
          "velocity": 0.7874015748031497,
          "duration": 0.16666649999999095
        },
        {
          "name": "C4",
          "midi": 60,
          "time": 81.999918,
          "velocity": 0.7874015748031497,
          "duration": 0.08333324999999547
        },
        {
          "name": "A4",
          "midi": 69,
          "time": 81.999918,
          "velocity": 0.7874015748031497,
          "duration": 0.08333324999999547
        },
        {
          "name": "F5",
          "midi": 77,
          "time": 81.999918,
          "velocity": 0.7874015748031497,
          "duration": 0.08333324999999547
        },
        {
          "name": "F2",
          "midi": 41,
          "time": 81.999918,
          "velocity": 0.7874015748031497,
          "duration": 0.16666649999999095
        },
        {
          "name": "C4",
          "midi": 60,
          "time": 82.16658449999998,
          "velocity": 0.7874015748031497,
          "duration": 0.08333324999999547
        },
        {
          "name": "A4",
          "midi": 69,
          "time": 82.16658449999998,
          "velocity": 0.7874015748031497,
          "duration": 0.08333324999999547
        },
        {
          "name": "F5",
          "midi": 77,
          "time": 82.16658449999998,
          "velocity": 0.7874015748031497,
          "duration": 0.08333324999999547
        },
        {
          "name": "F2",
          "midi": 41,
          "time": 82.16658449999998,
          "velocity": 0.7874015748031497,
          "duration": 0.16666649999999095
        },
        {
          "name": "C4",
          "midi": 60,
          "time": 82.33325099999998,
          "velocity": 0.7874015748031497,
          "duration": 0.08333324999999547
        },
        {
          "name": "A4",
          "midi": 69,
          "time": 82.33325099999998,
          "velocity": 0.7874015748031497,
          "duration": 0.08333324999999547
        },
        {
          "name": "F5",
          "midi": 77,
          "time": 82.33325099999998,
          "velocity": 0.7874015748031497,
          "duration": 0.08333324999999547
        },
        {
          "name": "F2",
          "midi": 41,
          "time": 82.33325099999998,
          "velocity": 0.7874015748031497,
          "duration": 0.16666649999999095
        },
        {
          "name": "C4",
          "midi": 60,
          "time": 82.41658424999997,
          "velocity": 0.7874015748031497,
          "duration": 0.08333324999999547
        },
        {
          "name": "C4",
          "midi": 60,
          "time": 82.49991749999997,
          "velocity": 0.7874015748031497,
          "duration": 0.08333324999999547
        },
        {
          "name": "A4",
          "midi": 69,
          "time": 82.49991749999997,
          "velocity": 0.7874015748031497,
          "duration": 0.08333324999999547
        },
        {
          "name": "F5",
          "midi": 77,
          "time": 82.49991749999997,
          "velocity": 0.7874015748031497,
          "duration": 0.08333324999999547
        },
        {
          "name": "F2",
          "midi": 41,
          "time": 82.49991749999997,
          "velocity": 0.7874015748031497,
          "duration": 0.16666649999999095
        },
        {
          "name": "C4",
          "midi": 60,
          "time": 82.58325074999996,
          "velocity": 0.7874015748031497,
          "duration": 0.08333324999999547
        },
        {
          "name": "F2",
          "midi": 41,
          "time": 82.66658399999996,
          "velocity": 0.7874015748031497,
          "duration": 1.3333319999999986
        },
        {
          "name": "C4",
          "midi": 60,
          "time": 82.66658399999996,
          "velocity": 0.7874015748031497,
          "duration": 0.9999990000000025
        },
        {
          "name": "A4",
          "midi": 69,
          "time": 82.66658399999996,
          "velocity": 0.7874015748031497,
          "duration": 0.9999990000000025
        },
        {
          "name": "F5",
          "midi": 77,
          "time": 82.66658399999996,
          "velocity": 0.7874015748031497,
          "duration": 0.9999990000000025
        },
        {
          "name": "C6",
          "midi": 84,
          "time": 82.66658399999996,
          "velocity": 0.7874015748031497,
          "duration": 1.3333319999999986
        },
        {
          "name": "F3",
          "midi": 53,
          "time": 82.66658399999996,
          "velocity": 0.7874015748031497,
          "duration": 1.3333319999999986
        },
        {
          "name": "A#2",
          "midi": 46,
          "time": 83.99991599999996,
          "velocity": 0.7874015748031497,
          "duration": 1.3333319999999276
        },
        {
          "name": "A#3",
          "midi": 58,
          "time": 83.99991599999996,
          "velocity": 0.7874015748031497,
          "duration": 0.08333324999999547
        },
        {
          "name": "G4",
          "midi": 67,
          "time": 83.99991599999996,
          "velocity": 0.7874015748031497,
          "duration": 0.08333324999999547
        },
        {
          "name": "D#5",
          "midi": 75,
          "time": 83.99991599999996,
          "velocity": 0.7874015748031497,
          "duration": 0.08333324999999547
        },
        {
          "name": "A#5",
          "midi": 82,
          "time": 83.99991599999996,
          "velocity": 0.7874015748031497,
          "duration": 1.3333319999999276
        },
        {
          "name": "A#3",
          "midi": 58,
          "time": 84.16658249999995,
          "velocity": 0.7874015748031497,
          "duration": 0.08333324999999547
        },
        {
          "name": "G4",
          "midi": 67,
          "time": 84.16658249999995,
          "velocity": 0.7874015748031497,
          "duration": 0.08333324999999547
        },
        {
          "name": "D#5",
          "midi": 75,
          "time": 84.16658249999995,
          "velocity": 0.7874015748031497,
          "duration": 0.08333324999999547
        },
        {
          "name": "A#3",
          "midi": 58,
          "time": 84.33324899999994,
          "velocity": 0.7874015748031497,
          "duration": 0.08333324999999547
        },
        {
          "name": "D#5",
          "midi": 75,
          "time": 84.33324899999994,
          "velocity": 0.7874015748031497,
          "duration": 0.08333324999999547
        },
        {
          "name": "A#3",
          "midi": 58,
          "time": 84.49991549999993,
          "velocity": 0.7874015748031497,
          "duration": 0.08333324999999547
        },
        {
          "name": "G4",
          "midi": 67,
          "time": 84.49991549999993,
          "velocity": 0.7874015748031497,
          "duration": 0.08333324999999547
        },
        {
          "name": "D#5",
          "midi": 75,
          "time": 84.49991549999993,
          "velocity": 0.7874015748031497,
          "duration": 0.08333324999999547
        },
        {
          "name": "A#3",
          "midi": 58,
          "time": 84.66658199999992,
          "velocity": 0.7874015748031497,
          "duration": 0.08333324999999547
        },
        {
          "name": "G4",
          "midi": 67,
          "time": 84.66658199999992,
          "velocity": 0.7874015748031497,
          "duration": 0.08333324999999547
        },
        {
          "name": "D#5",
          "midi": 75,
          "time": 84.66658199999992,
          "velocity": 0.7874015748031497,
          "duration": 0.08333324999999547
        },
        {
          "name": "A#3",
          "midi": 58,
          "time": 84.83324849999991,
          "velocity": 0.7874015748031497,
          "duration": 0.08333324999999547
        },
        {
          "name": "G4",
          "midi": 67,
          "time": 84.83324849999991,
          "velocity": 0.7874015748031497,
          "duration": 0.08333324999999547
        },
        {
          "name": "A#3",
          "midi": 58,
          "time": 84.9999149999999,
          "velocity": 0.7874015748031497,
          "duration": 0.08333324999999547
        },
        {
          "name": "G4",
          "midi": 67,
          "time": 84.9999149999999,
          "velocity": 0.7874015748031497,
          "duration": 0.08333324999999547
        },
        {
          "name": "D#5",
          "midi": 75,
          "time": 84.9999149999999,
          "velocity": 0.7874015748031497,
          "duration": 0.08333324999999547
        },
        {
          "name": "A#3",
          "midi": 58,
          "time": 85.1665814999999,
          "velocity": 0.7874015748031497,
          "duration": 0.08333324999999547
        },
        {
          "name": "G4",
          "midi": 67,
          "time": 85.1665814999999,
          "velocity": 0.7874015748031497,
          "duration": 0.08333324999999547
        },
        {
          "name": "D#5",
          "midi": 75,
          "time": 85.1665814999999,
          "velocity": 0.7874015748031497,
          "duration": 0.08333324999999547
        },
        {
          "name": "C3",
          "midi": 48,
          "time": 85.33324799999988,
          "velocity": 0.7874015748031497,
          "duration": 1.3333319999999276
        },
        {
          "name": "C4",
          "midi": 60,
          "time": 85.33324799999988,
          "velocity": 0.7874015748031497,
          "duration": 0.08333324999999547
        },
        {
          "name": "A4",
          "midi": 69,
          "time": 85.33324799999988,
          "velocity": 0.7874015748031497,
          "duration": 0.08333324999999547
        },
        {
          "name": "F5",
          "midi": 77,
          "time": 85.33324799999988,
          "velocity": 0.7874015748031497,
          "duration": 0.08333324999999547
        },
        {
          "name": "C6",
          "midi": 84,
          "time": 85.33324799999988,
          "velocity": 0.7874015748031497,
          "duration": 1.3333319999999276
        },
        {
          "name": "C4",
          "midi": 60,
          "time": 85.49991449999987,
          "velocity": 0.7874015748031497,
          "duration": 0.08333324999999547
        },
        {
          "name": "A4",
          "midi": 69,
          "time": 85.49991449999987,
          "velocity": 0.7874015748031497,
          "duration": 0.08333324999999547
        },
        {
          "name": "F5",
          "midi": 77,
          "time": 85.49991449999987,
          "velocity": 0.7874015748031497,
          "duration": 0.08333324999999547
        },
        {
          "name": "C4",
          "midi": 60,
          "time": 85.66658099999987,
          "velocity": 0.7874015748031497,
          "duration": 0.08333324999999547
        },
        {
          "name": "F5",
          "midi": 77,
          "time": 85.66658099999987,
          "velocity": 0.7874015748031497,
          "duration": 0.08333324999999547
        },
        {
          "name": "C4",
          "midi": 60,
          "time": 85.83324749999986,
          "velocity": 0.7874015748031497,
          "duration": 0.08333324999999547
        },
        {
          "name": "A4",
          "midi": 69,
          "time": 85.83324749999986,
          "velocity": 0.7874015748031497,
          "duration": 0.08333324999999547
        },
        {
          "name": "F5",
          "midi": 77,
          "time": 85.83324749999986,
          "velocity": 0.7874015748031497,
          "duration": 0.08333324999999547
        },
        {
          "name": "C4",
          "midi": 60,
          "time": 85.99991399999985,
          "velocity": 0.7874015748031497,
          "duration": 0.08333324999999547
        },
        {
          "name": "A4",
          "midi": 69,
          "time": 85.99991399999985,
          "velocity": 0.7874015748031497,
          "duration": 0.08333324999999547
        },
        {
          "name": "F5",
          "midi": 77,
          "time": 85.99991399999985,
          "velocity": 0.7874015748031497,
          "duration": 0.08333324999999547
        },
        {
          "name": "C4",
          "midi": 60,
          "time": 86.16658049999984,
          "velocity": 0.7874015748031497,
          "duration": 0.08333324999999547
        },
        {
          "name": "A4",
          "midi": 69,
          "time": 86.16658049999984,
          "velocity": 0.7874015748031497,
          "duration": 0.08333324999999547
        },
        {
          "name": "C4",
          "midi": 60,
          "time": 86.33324699999983,
          "velocity": 0.7874015748031497,
          "duration": 0.08333324999999547
        },
        {
          "name": "A4",
          "midi": 69,
          "time": 86.33324699999983,
          "velocity": 0.7874015748031497,
          "duration": 0.08333324999999547
        },
        {
          "name": "F5",
          "midi": 77,
          "time": 86.33324699999983,
          "velocity": 0.7874015748031497,
          "duration": 0.08333324999999547
        },
        {
          "name": "C4",
          "midi": 60,
          "time": 86.49991349999982,
          "velocity": 0.7874015748031497,
          "duration": 0.08333324999999547
        },
        {
          "name": "A4",
          "midi": 69,
          "time": 86.49991349999982,
          "velocity": 0.7874015748031497,
          "duration": 0.08333324999999547
        },
        {
          "name": "F5",
          "midi": 77,
          "time": 86.49991349999982,
          "velocity": 0.7874015748031497,
          "duration": 0.08333324999999547
        },
        {
          "name": "D3",
          "midi": 50,
          "time": 86.66657999999981,
          "velocity": 0.7874015748031497,
          "duration": 0.08333324999999547
        },
        {
          "name": "A#3",
          "midi": 58,
          "time": 86.66657999999981,
          "velocity": 0.7874015748031497,
          "duration": 0.08333324999999547
        },
        {
          "name": "G4",
          "midi": 67,
          "time": 86.66657999999981,
          "velocity": 0.7874015748031497,
          "duration": 0.08333324999999547
        },
        {
          "name": "A#5",
          "midi": 82,
          "time": 86.66657999999981,
          "velocity": 0.7874015748031497,
          "duration": 1.3333319999999276
        },
        {
          "name": "G2",
          "midi": 43,
          "time": 86.66657999999981,
          "velocity": 0.7874015748031497,
          "duration": 1.3333319999999276
        },
        {
          "name": "D3",
          "midi": 50,
          "time": 86.8332464999998,
          "velocity": 0.7874015748031497,
          "duration": 0.08333324999999547
        },
        {
          "name": "A#3",
          "midi": 58,
          "time": 86.8332464999998,
          "velocity": 0.7874015748031497,
          "duration": 0.08333324999999547
        },
        {
          "name": "G4",
          "midi": 67,
          "time": 86.8332464999998,
          "velocity": 0.7874015748031497,
          "duration": 0.08333324999999547
        },
        {
          "name": "D3",
          "midi": 50,
          "time": 86.9999129999998,
          "velocity": 0.7874015748031497,
          "duration": 0.08333324999999547
        },
        {
          "name": "G4",
          "midi": 67,
          "time": 86.9999129999998,
          "velocity": 0.7874015748031497,
          "duration": 0.08333324999999547
        },
        {
          "name": "D3",
          "midi": 50,
          "time": 87.16657949999978,
          "velocity": 0.7874015748031497,
          "duration": 0.08333324999999547
        },
        {
          "name": "A#3",
          "midi": 58,
          "time": 87.16657949999978,
          "velocity": 0.7874015748031497,
          "duration": 0.08333324999999547
        },
        {
          "name": "G4",
          "midi": 67,
          "time": 87.16657949999978,
          "velocity": 0.7874015748031497,
          "duration": 0.08333324999999547
        },
        {
          "name": "D3",
          "midi": 50,
          "time": 87.33324599999978,
          "velocity": 0.7874015748031497,
          "duration": 0.08333324999999547
        },
        {
          "name": "A#3",
          "midi": 58,
          "time": 87.33324599999978,
          "velocity": 0.7874015748031497,
          "duration": 0.08333324999999547
        },
        {
          "name": "G4",
          "midi": 67,
          "time": 87.33324599999978,
          "velocity": 0.7874015748031497,
          "duration": 0.08333324999999547
        },
        {
          "name": "D3",
          "midi": 50,
          "time": 87.49991249999977,
          "velocity": 0.7874015748031497,
          "duration": 0.08333324999999547
        },
        {
          "name": "A#3",
          "midi": 58,
          "time": 87.49991249999977,
          "velocity": 0.7874015748031497,
          "duration": 0.08333324999999547
        },
        {
          "name": "D3",
          "midi": 50,
          "time": 87.66657899999976,
          "velocity": 0.7874015748031497,
          "duration": 0.08333324999999547
        },
        {
          "name": "A#3",
          "midi": 58,
          "time": 87.66657899999976,
          "velocity": 0.7874015748031497,
          "duration": 0.08333324999999547
        },
        {
          "name": "G4",
          "midi": 67,
          "time": 87.66657899999976,
          "velocity": 0.7874015748031497,
          "duration": 0.08333324999999547
        },
        {
          "name": "D3",
          "midi": 50,
          "time": 87.83324549999975,
          "velocity": 0.7874015748031497,
          "duration": 0.08333324999999547
        },
        {
          "name": "A#3",
          "midi": 58,
          "time": 87.83324549999975,
          "velocity": 0.7874015748031497,
          "duration": 0.08333324999999547
        },
        {
          "name": "G4",
          "midi": 67,
          "time": 87.83324549999975,
          "velocity": 0.7874015748031497,
          "duration": 0.08333324999999547
        },
        {
          "name": "D6",
          "midi": 86,
          "time": 87.99991199999974,
          "velocity": 0.7874015748031497,
          "duration": 1.3333319999999276
        },
        {
          "name": "D5",
          "midi": 74,
          "time": 87.99991199999974,
          "velocity": 0.7874015748031497,
          "duration": 0.08333324999999547
        },
        {
          "name": "F4",
          "midi": 65,
          "time": 87.99991199999974,
          "velocity": 0.7874015748031497,
          "duration": 0.08333324999999547
        },
        {
          "name": "A3",
          "midi": 57,
          "time": 87.99991199999974,
          "velocity": 0.7874015748031497,
          "duration": 0.08333324999999547
        },
        {
          "name": "D3",
          "midi": 50,
          "time": 87.99991199999974,
          "velocity": 0.7874015748031497,
          "duration": 1.3333319999999276
        },
        {
          "name": "D5",
          "midi": 74,
          "time": 88.16657849999973,
          "velocity": 0.7874015748031497,
          "duration": 0.08333324999999547
        },
        {
          "name": "F4",
          "midi": 65,
          "time": 88.16657849999973,
          "velocity": 0.7874015748031497,
          "duration": 0.08333324999999547
        },
        {
          "name": "A3",
          "midi": 57,
          "time": 88.16657849999973,
          "velocity": 0.7874015748031497,
          "duration": 0.08333324999999547
        },
        {
          "name": "D5",
          "midi": 74,
          "time": 88.33324499999972,
          "velocity": 0.7874015748031497,
          "duration": 0.08333324999999547
        },
        {
          "name": "A3",
          "midi": 57,
          "time": 88.33324499999972,
          "velocity": 0.7874015748031497,
          "duration": 0.08333324999999547
        },
        {
          "name": "D5",
          "midi": 74,
          "time": 88.49991149999971,
          "velocity": 0.7874015748031497,
          "duration": 0.08333324999999547
        },
        {
          "name": "F4",
          "midi": 65,
          "time": 88.49991149999971,
          "velocity": 0.7874015748031497,
          "duration": 0.08333324999999547
        },
        {
          "name": "A3",
          "midi": 57,
          "time": 88.49991149999971,
          "velocity": 0.7874015748031497,
          "duration": 0.08333324999999547
        },
        {
          "name": "D5",
          "midi": 74,
          "time": 88.6665779999997,
          "velocity": 0.7874015748031497,
          "duration": 0.08333324999999547
        },
        {
          "name": "F4",
          "midi": 65,
          "time": 88.6665779999997,
          "velocity": 0.7874015748031497,
          "duration": 0.08333324999999547
        },
        {
          "name": "A3",
          "midi": 57,
          "time": 88.6665779999997,
          "velocity": 0.7874015748031497,
          "duration": 0.08333324999999547
        },
        {
          "name": "F4",
          "midi": 65,
          "time": 88.8332444999997,
          "velocity": 0.7874015748031497,
          "duration": 0.08333324999999547
        },
        {
          "name": "A3",
          "midi": 57,
          "time": 88.8332444999997,
          "velocity": 0.7874015748031497,
          "duration": 0.08333324999999547
        },
        {
          "name": "D5",
          "midi": 74,
          "time": 88.99991099999968,
          "velocity": 0.7874015748031497,
          "duration": 0.08333324999999547
        },
        {
          "name": "F4",
          "midi": 65,
          "time": 88.99991099999968,
          "velocity": 0.7874015748031497,
          "duration": 0.08333324999999547
        },
        {
          "name": "A3",
          "midi": 57,
          "time": 88.99991099999968,
          "velocity": 0.7874015748031497,
          "duration": 0.08333324999999547
        },
        {
          "name": "D5",
          "midi": 74,
          "time": 89.16657749999968,
          "velocity": 0.7874015748031497,
          "duration": 0.08333324999999547
        },
        {
          "name": "F4",
          "midi": 65,
          "time": 89.16657749999968,
          "velocity": 0.7874015748031497,
          "duration": 0.08333324999999547
        },
        {
          "name": "A3",
          "midi": 57,
          "time": 89.16657749999968,
          "velocity": 0.7874015748031497,
          "duration": 0.08333324999999547
        },
        {
          "name": "D#3",
          "midi": 51,
          "time": 89.33324399999967,
          "velocity": 0.7874015748031497,
          "duration": 1.3333319999999276
        },
        {
          "name": "A#5",
          "midi": 82,
          "time": 89.33324399999967,
          "velocity": 0.7874015748031497,
          "duration": 1.3333319999999276
        },
        {
          "name": "D#5",
          "midi": 75,
          "time": 89.33324399999967,
          "velocity": 0.7874015748031497,
          "duration": 0.08333324999999547
        },
        {
          "name": "G4",
          "midi": 67,
          "time": 89.33324399999967,
          "velocity": 0.7874015748031497,
          "duration": 0.08333324999999547
        },
        {
          "name": "A#3",
          "midi": 58,
          "time": 89.33324399999967,
          "velocity": 0.7874015748031497,
          "duration": 0.08333324999999547
        },
        {
          "name": "D#5",
          "midi": 75,
          "time": 89.49991049999966,
          "velocity": 0.7874015748031497,
          "duration": 0.08333324999999547
        },
        {
          "name": "G4",
          "midi": 67,
          "time": 89.49991049999966,
          "velocity": 0.7874015748031497,
          "duration": 0.08333324999999547
        },
        {
          "name": "A#3",
          "midi": 58,
          "time": 89.49991049999966,
          "velocity": 0.7874015748031497,
          "duration": 0.08333324999999547
        },
        {
          "name": "D#5",
          "midi": 75,
          "time": 89.66657699999965,
          "velocity": 0.7874015748031497,
          "duration": 0.08333324999999547
        },
        {
          "name": "A#3",
          "midi": 58,
          "time": 89.66657699999965,
          "velocity": 0.7874015748031497,
          "duration": 0.08333324999999547
        },
        {
          "name": "D#5",
          "midi": 75,
          "time": 89.83324349999964,
          "velocity": 0.7874015748031497,
          "duration": 0.08333324999999547
        },
        {
          "name": "G4",
          "midi": 67,
          "time": 89.83324349999964,
          "velocity": 0.7874015748031497,
          "duration": 0.08333324999999547
        },
        {
          "name": "A#3",
          "midi": 58,
          "time": 89.83324349999964,
          "velocity": 0.7874015748031497,
          "duration": 0.08333324999999547
        },
        {
          "name": "A#3",
          "midi": 58,
          "time": 89.99990999999963,
          "velocity": 0.7874015748031497,
          "duration": 0.08333324999999547
        },
        {
          "name": "G4",
          "midi": 67,
          "time": 89.99990999999963,
          "velocity": 0.7874015748031497,
          "duration": 0.08333324999999547
        },
        {
          "name": "D#5",
          "midi": 75,
          "time": 89.99990999999963,
          "velocity": 0.7874015748031497,
          "duration": 0.08333324999999547
        },
        {
          "name": "A#3",
          "midi": 58,
          "time": 90.16657649999962,
          "velocity": 0.7874015748031497,
          "duration": 0.08333324999999547
        },
        {
          "name": "G4",
          "midi": 67,
          "time": 90.16657649999962,
          "velocity": 0.7874015748031497,
          "duration": 0.08333324999999547
        },
        {
          "name": "A#3",
          "midi": 58,
          "time": 90.33324299999961,
          "velocity": 0.7874015748031497,
          "duration": 0.08333324999999547
        },
        {
          "name": "G4",
          "midi": 67,
          "time": 90.33324299999961,
          "velocity": 0.7874015748031497,
          "duration": 0.08333324999999547
        },
        {
          "name": "D#5",
          "midi": 75,
          "time": 90.33324299999961,
          "velocity": 0.7874015748031497,
          "duration": 0.08333324999999547
        },
        {
          "name": "D#5",
          "midi": 75,
          "time": 90.4999094999996,
          "velocity": 0.7874015748031497,
          "duration": 0.08333324999999547
        },
        {
          "name": "G4",
          "midi": 67,
          "time": 90.4999094999996,
          "velocity": 0.7874015748031497,
          "duration": 0.08333324999999547
        },
        {
          "name": "A#3",
          "midi": 58,
          "time": 90.4999094999996,
          "velocity": 0.7874015748031497,
          "duration": 0.08333324999999547
        },
        {
          "name": "F3",
          "midi": 53,
          "time": 90.6665759999996,
          "velocity": 0.7874015748031497,
          "duration": 1.3333319999999276
        },
        {
          "name": "C6",
          "midi": 84,
          "time": 90.6665759999996,
          "velocity": 0.7874015748031497,
          "duration": 1.3333319999999276
        },
        {
          "name": "F5",
          "midi": 77,
          "time": 90.6665759999996,
          "velocity": 0.7874015748031497,
          "duration": 0.08333324999999547
        },
        {
          "name": "A4",
          "midi": 69,
          "time": 90.6665759999996,
          "velocity": 0.7874015748031497,
          "duration": 0.08333324999999547
        },
        {
          "name": "C4",
          "midi": 60,
          "time": 90.6665759999996,
          "velocity": 0.7874015748031497,
          "duration": 0.08333324999999547
        },
        {
          "name": "F5",
          "midi": 77,
          "time": 90.83324249999959,
          "velocity": 0.7874015748031497,
          "duration": 0.08333324999999547
        },
        {
          "name": "A4",
          "midi": 69,
          "time": 90.83324249999959,
          "velocity": 0.7874015748031497,
          "duration": 0.08333324999999547
        },
        {
          "name": "C4",
          "midi": 60,
          "time": 90.83324249999959,
          "velocity": 0.7874015748031497,
          "duration": 0.08333324999999547
        },
        {
          "name": "F5",
          "midi": 77,
          "time": 90.99990899999958,
          "velocity": 0.7874015748031497,
          "duration": 0.08333324999999547
        },
        {
          "name": "C4",
          "midi": 60,
          "time": 90.99990899999958,
          "velocity": 0.7874015748031497,
          "duration": 0.08333324999999547
        },
        {
          "name": "F5",
          "midi": 77,
          "time": 91.16657549999957,
          "velocity": 0.7874015748031497,
          "duration": 0.08333324999999547
        },
        {
          "name": "A4",
          "midi": 69,
          "time": 91.16657549999957,
          "velocity": 0.7874015748031497,
          "duration": 0.08333324999999547
        },
        {
          "name": "C4",
          "midi": 60,
          "time": 91.16657549999957,
          "velocity": 0.7874015748031497,
          "duration": 0.08333324999999547
        },
        {
          "name": "C4",
          "midi": 60,
          "time": 91.33324199999956,
          "velocity": 0.7874015748031497,
          "duration": 0.08333324999999547
        },
        {
          "name": "A4",
          "midi": 69,
          "time": 91.33324199999956,
          "velocity": 0.7874015748031497,
          "duration": 0.08333324999999547
        },
        {
          "name": "F5",
          "midi": 77,
          "time": 91.33324199999956,
          "velocity": 0.7874015748031497,
          "duration": 0.08333324999999547
        },
        {
          "name": "C4",
          "midi": 60,
          "time": 91.49990849999955,
          "velocity": 0.7874015748031497,
          "duration": 0.08333324999999547
        },
        {
          "name": "A4",
          "midi": 69,
          "time": 91.49990849999955,
          "velocity": 0.7874015748031497,
          "duration": 0.08333324999999547
        },
        {
          "name": "F5",
          "midi": 77,
          "time": 91.66657499999954,
          "velocity": 0.7874015748031497,
          "duration": 0.08333324999999547
        },
        {
          "name": "A4",
          "midi": 69,
          "time": 91.66657499999954,
          "velocity": 0.7874015748031497,
          "duration": 0.08333324999999547
        },
        {
          "name": "C4",
          "midi": 60,
          "time": 91.66657499999954,
          "velocity": 0.7874015748031497,
          "duration": 0.08333324999999547
        },
        {
          "name": "C4",
          "midi": 60,
          "time": 91.83324149999953,
          "velocity": 0.7874015748031497,
          "duration": 0.08333324999999547
        },
        {
          "name": "A4",
          "midi": 69,
          "time": 91.83324149999953,
          "velocity": 0.7874015748031497,
          "duration": 0.08333324999999547
        },
        {
          "name": "F5",
          "midi": 77,
          "time": 91.83324149999953,
          "velocity": 0.7874015748031497,
          "duration": 0.08333324999999547
        },
        {
          "name": "A#2",
          "midi": 46,
          "time": 91.99990799999952,
          "velocity": 0.7874015748031497,
          "duration": 1.3333319999999276
        },
        {
          "name": "D6",
          "midi": 86,
          "time": 91.99990799999952,
          "velocity": 0.7874015748031497,
          "duration": 1.3333319999999276
        },
        {
          "name": "A#4",
          "midi": 70,
          "time": 91.99990799999952,
          "velocity": 0.7874015748031497,
          "duration": 0.08333324999999547
        },
        {
          "name": "D4",
          "midi": 62,
          "time": 91.99990799999952,
          "velocity": 0.7874015748031497,
          "duration": 0.08333324999999547
        },
        {
          "name": "F3",
          "midi": 53,
          "time": 91.99990799999952,
          "velocity": 0.7874015748031497,
          "duration": 0.08333324999999547
        },
        {
          "name": "A#4",
          "midi": 70,
          "time": 92.16657449999951,
          "velocity": 0.7874015748031497,
          "duration": 0.08333324999999547
        },
        {
          "name": "D4",
          "midi": 62,
          "time": 92.16657449999951,
          "velocity": 0.7874015748031497,
          "duration": 0.08333324999999547
        },
        {
          "name": "F3",
          "midi": 53,
          "time": 92.16657449999951,
          "velocity": 0.7874015748031497,
          "duration": 0.08333324999999547
        },
        {
          "name": "A#4",
          "midi": 70,
          "time": 92.3332409999995,
          "velocity": 0.7874015748031497,
          "duration": 0.08333324999999547
        },
        {
          "name": "F3",
          "midi": 53,
          "time": 92.3332409999995,
          "velocity": 0.7874015748031497,
          "duration": 0.08333324999999547
        },
        {
          "name": "A#4",
          "midi": 70,
          "time": 92.4999074999995,
          "velocity": 0.7874015748031497,
          "duration": 0.08333324999999547
        },
        {
          "name": "D4",
          "midi": 62,
          "time": 92.4999074999995,
          "velocity": 0.7874015748031497,
          "duration": 0.08333324999999547
        },
        {
          "name": "F3",
          "midi": 53,
          "time": 92.4999074999995,
          "velocity": 0.7874015748031497,
          "duration": 0.08333324999999547
        },
        {
          "name": "A#4",
          "midi": 70,
          "time": 92.66657399999949,
          "velocity": 0.7874015748031497,
          "duration": 0.08333324999999547
        },
        {
          "name": "D4",
          "midi": 62,
          "time": 92.66657399999949,
          "velocity": 0.7874015748031497,
          "duration": 0.08333324999999547
        },
        {
          "name": "F3",
          "midi": 53,
          "time": 92.66657399999949,
          "velocity": 0.7874015748031497,
          "duration": 0.08333324999999547
        },
        {
          "name": "D4",
          "midi": 62,
          "time": 92.83324049999948,
          "velocity": 0.7874015748031497,
          "duration": 0.08333324999999547
        },
        {
          "name": "F3",
          "midi": 53,
          "time": 92.83324049999948,
          "velocity": 0.7874015748031497,
          "duration": 0.08333324999999547
        },
        {
          "name": "F3",
          "midi": 53,
          "time": 92.99990699999947,
          "velocity": 0.7874015748031497,
          "duration": 0.08333324999999547
        },
        {
          "name": "D4",
          "midi": 62,
          "time": 92.99990699999947,
          "velocity": 0.7874015748031497,
          "duration": 0.08333324999999547
        },
        {
          "name": "A#4",
          "midi": 70,
          "time": 92.99990699999947,
          "velocity": 0.7874015748031497,
          "duration": 0.08333324999999547
        },
        {
          "name": "F3",
          "midi": 53,
          "time": 93.16657349999946,
          "velocity": 0.7874015748031497,
          "duration": 0.08333324999999547
        },
        {
          "name": "D4",
          "midi": 62,
          "time": 93.16657349999946,
          "velocity": 0.7874015748031497,
          "duration": 0.08333324999999547
        },
        {
          "name": "A#4",
          "midi": 70,
          "time": 93.16657349999946,
          "velocity": 0.7874015748031497,
          "duration": 0.08333324999999547
        },
        {
          "name": "A#2",
          "midi": 46,
          "time": 93.33323999999945,
          "velocity": 0.7874015748031497,
          "duration": 0.6666659999999638
        },
        {
          "name": "D6",
          "midi": 86,
          "time": 93.33323999999945,
          "velocity": 0.7874015748031497,
          "duration": 1.3333319999999276
        },
        {
          "name": "A#4",
          "midi": 70,
          "time": 93.33323999999945,
          "velocity": 0.7874015748031497,
          "duration": 0.08333324999999547
        },
        {
          "name": "D4",
          "midi": 62,
          "time": 93.33323999999945,
          "velocity": 0.7874015748031497,
          "duration": 0.08333324999999547
        },
        {
          "name": "F3",
          "midi": 53,
          "time": 93.33323999999945,
          "velocity": 0.7874015748031497,
          "duration": 0.08333324999999547
        },
        {
          "name": "A#4",
          "midi": 70,
          "time": 93.49990649999944,
          "velocity": 0.7874015748031497,
          "duration": 0.08333324999999547
        },
        {
          "name": "D4",
          "midi": 62,
          "time": 93.49990649999944,
          "velocity": 0.7874015748031497,
          "duration": 0.08333324999999547
        },
        {
          "name": "F3",
          "midi": 53,
          "time": 93.49990649999944,
          "velocity": 0.7874015748031497,
          "duration": 0.08333324999999547
        },
        {
          "name": "F3",
          "midi": 53,
          "time": 93.66657299999943,
          "velocity": 0.7874015748031497,
          "duration": 0.08333324999999547
        },
        {
          "name": "A#4",
          "midi": 70,
          "time": 93.66657299999943,
          "velocity": 0.7874015748031497,
          "duration": 0.08333324999999547
        },
        {
          "name": "F3",
          "midi": 53,
          "time": 93.83323949999942,
          "velocity": 0.7874015748031497,
          "duration": 0.08333324999999547
        },
        {
          "name": "D4",
          "midi": 62,
          "time": 93.83323949999942,
          "velocity": 0.7874015748031497,
          "duration": 0.08333324999999547
        },
        {
          "name": "A#4",
          "midi": 70,
          "time": 93.83323949999942,
          "velocity": 0.7874015748031497,
          "duration": 0.08333324999999547
        },
        {
          "name": "A2",
          "midi": 45,
          "time": 93.99990599999941,
          "velocity": 0.7874015748031497,
          "duration": 0.16666649999999095
        },
        {
          "name": "A2",
          "midi": 45,
          "time": 93.99990599999941,
          "velocity": 0.7874015748031497,
          "duration": 0.6666659999999638
        },
        {
          "name": "F3",
          "midi": 53,
          "time": 93.99990599999941,
          "velocity": 0.7874015748031497,
          "duration": 0.08333324999999547
        },
        {
          "name": "D4",
          "midi": 62,
          "time": 93.99990599999941,
          "velocity": 0.7874015748031497,
          "duration": 0.08333324999999547
        },
        {
          "name": "A#4",
          "midi": 70,
          "time": 93.99990599999941,
          "velocity": 0.7874015748031497,
          "duration": 0.08333324999999547
        },
        {
          "name": "F3",
          "midi": 53,
          "time": 94.1665724999994,
          "velocity": 0.7874015748031497,
          "duration": 0.08333324999999547
        },
        {
          "name": "D4",
          "midi": 62,
          "time": 94.1665724999994,
          "velocity": 0.7874015748031497,
          "duration": 0.08333324999999547
        },
        {
          "name": "A#4",
          "midi": 70,
          "time": 94.3332389999994,
          "velocity": 0.7874015748031497,
          "duration": 0.08333324999999547
        },
        {
          "name": "D4",
          "midi": 62,
          "time": 94.3332389999994,
          "velocity": 0.7874015748031497,
          "duration": 0.08333324999999547
        },
        {
          "name": "F3",
          "midi": 53,
          "time": 94.3332389999994,
          "velocity": 0.7874015748031497,
          "duration": 0.08333324999999547
        },
        {
          "name": "F3",
          "midi": 53,
          "time": 94.49990549999939,
          "velocity": 0.7874015748031497,
          "duration": 0.08333324999999547
        },
        {
          "name": "D4",
          "midi": 62,
          "time": 94.49990549999939,
          "velocity": 0.7874015748031497,
          "duration": 0.08333324999999547
        },
        {
          "name": "A#4",
          "midi": 70,
          "time": 94.49990549999939,
          "velocity": 0.7874015748031497,
          "duration": 0.08333324999999547
        },
        {
          "name": "G2",
          "midi": 43,
          "time": 94.66657199999938,
          "velocity": 0.7874015748031497,
          "duration": 1.3333319999999276
        },
        {
          "name": "A#5",
          "midi": 82,
          "time": 94.66657199999938,
          "velocity": 0.7874015748031497,
          "duration": 1.3333319999999276
        },
        {
          "name": "G4",
          "midi": 67,
          "time": 94.66657199999938,
          "velocity": 0.7874015748031497,
          "duration": 0.08333324999999547
        },
        {
          "name": "A#3",
          "midi": 58,
          "time": 94.66657199999938,
          "velocity": 0.7874015748031497,
          "duration": 0.08333324999999547
        },
        {
          "name": "D3",
          "midi": 50,
          "time": 94.66657199999938,
          "velocity": 0.7874015748031497,
          "duration": 0.08333324999999547
        },
        {
          "name": "G4",
          "midi": 67,
          "time": 94.83323849999937,
          "velocity": 0.7874015748031497,
          "duration": 0.08333324999999547
        },
        {
          "name": "A#3",
          "midi": 58,
          "time": 94.83323849999937,
          "velocity": 0.7874015748031497,
          "duration": 0.08333324999999547
        },
        {
          "name": "D3",
          "midi": 50,
          "time": 94.83323849999937,
          "velocity": 0.7874015748031497,
          "duration": 0.08333324999999547
        },
        {
          "name": "G4",
          "midi": 67,
          "time": 94.99990499999936,
          "velocity": 0.7874015748031497,
          "duration": 0.08333324999999547
        },
        {
          "name": "D3",
          "midi": 50,
          "time": 94.99990499999936,
          "velocity": 0.7874015748031497,
          "duration": 0.08333324999999547
        },
        {
          "name": "G4",
          "midi": 67,
          "time": 95.16657149999935,
          "velocity": 0.7874015748031497,
          "duration": 0.08333324999999547
        },
        {
          "name": "A#3",
          "midi": 58,
          "time": 95.16657149999935,
          "velocity": 0.7874015748031497,
          "duration": 0.08333324999999547
        },
        {
          "name": "D3",
          "midi": 50,
          "time": 95.16657149999935,
          "velocity": 0.7874015748031497,
          "duration": 0.08333324999999547
        },
        {
          "name": "D3",
          "midi": 50,
          "time": 95.33323799999934,
          "velocity": 0.7874015748031497,
          "duration": 0.08333324999999547
        },
        {
          "name": "A#3",
          "midi": 58,
          "time": 95.33323799999934,
          "velocity": 0.7874015748031497,
          "duration": 0.08333324999999547
        },
        {
          "name": "G4",
          "midi": 67,
          "time": 95.33323799999934,
          "velocity": 0.7874015748031497,
          "duration": 0.08333324999999547
        },
        {
          "name": "D3",
          "midi": 50,
          "time": 95.49990449999933,
          "velocity": 0.7874015748031497,
          "duration": 0.08333324999999547
        },
        {
          "name": "A#3",
          "midi": 58,
          "time": 95.49990449999933,
          "velocity": 0.7874015748031497,
          "duration": 0.08333324999999547
        },
        {
          "name": "G4",
          "midi": 67,
          "time": 95.66657099999932,
          "velocity": 0.7874015748031497,
          "duration": 0.08333324999999547
        },
        {
          "name": "A#3",
          "midi": 58,
          "time": 95.66657099999932,
          "velocity": 0.7874015748031497,
          "duration": 0.08333324999999547
        },
        {
          "name": "D3",
          "midi": 50,
          "time": 95.66657099999932,
          "velocity": 0.7874015748031497,
          "duration": 0.08333324999999547
        },
        {
          "name": "D3",
          "midi": 50,
          "time": 95.83323749999931,
          "velocity": 0.7874015748031497,
          "duration": 0.08333324999999547
        },
        {
          "name": "A#3",
          "midi": 58,
          "time": 95.83323749999931,
          "velocity": 0.7874015748031497,
          "duration": 0.08333324999999547
        },
        {
          "name": "G4",
          "midi": 67,
          "time": 95.83323749999931,
          "velocity": 0.7874015748031497,
          "duration": 0.08333324999999547
        },
        {
          "name": "D#3",
          "midi": 51,
          "time": 95.9999039999993,
          "velocity": 0.7874015748031497,
          "duration": 1.3333319999999276
        },
        {
          "name": "A#5",
          "midi": 82,
          "time": 95.9999039999993,
          "velocity": 0.7874015748031497,
          "duration": 1.3333319999999276
        },
        {
          "name": "D#5",
          "midi": 75,
          "time": 95.9999039999993,
          "velocity": 0.7874015748031497,
          "duration": 0.08333324999999547
        },
        {
          "name": "G4",
          "midi": 67,
          "time": 95.9999039999993,
          "velocity": 0.7874015748031497,
          "duration": 0.08333324999999547
        },
        {
          "name": "A#3",
          "midi": 58,
          "time": 95.9999039999993,
          "velocity": 0.7874015748031497,
          "duration": 0.08333324999999547
        },
        {
          "name": "D#5",
          "midi": 75,
          "time": 96.1665704999993,
          "velocity": 0.7874015748031497,
          "duration": 0.08333324999999547
        },
        {
          "name": "G4",
          "midi": 67,
          "time": 96.1665704999993,
          "velocity": 0.7874015748031497,
          "duration": 0.08333324999999547
        },
        {
          "name": "A#3",
          "midi": 58,
          "time": 96.1665704999993,
          "velocity": 0.7874015748031497,
          "duration": 0.08333324999999547
        },
        {
          "name": "D#5",
          "midi": 75,
          "time": 96.33323699999929,
          "velocity": 0.7874015748031497,
          "duration": 0.08333324999999547
        },
        {
          "name": "A#3",
          "midi": 58,
          "time": 96.33323699999929,
          "velocity": 0.7874015748031497,
          "duration": 0.08333324999999547
        },
        {
          "name": "D#5",
          "midi": 75,
          "time": 96.49990349999928,
          "velocity": 0.7874015748031497,
          "duration": 0.08333324999999547
        },
        {
          "name": "G4",
          "midi": 67,
          "time": 96.49990349999928,
          "velocity": 0.7874015748031497,
          "duration": 0.08333324999999547
        },
        {
          "name": "A#3",
          "midi": 58,
          "time": 96.49990349999928,
          "velocity": 0.7874015748031497,
          "duration": 0.08333324999999547
        },
        {
          "name": "D#5",
          "midi": 75,
          "time": 96.66656999999927,
          "velocity": 0.7874015748031497,
          "duration": 0.08333324999999547
        },
        {
          "name": "G4",
          "midi": 67,
          "time": 96.66656999999927,
          "velocity": 0.7874015748031497,
          "duration": 0.08333324999999547
        },
        {
          "name": "A#3",
          "midi": 58,
          "time": 96.66656999999927,
          "velocity": 0.7874015748031497,
          "duration": 0.08333324999999547
        },
        {
          "name": "G4",
          "midi": 67,
          "time": 96.83323649999926,
          "velocity": 0.7874015748031497,
          "duration": 0.08333324999999547
        },
        {
          "name": "A#3",
          "midi": 58,
          "time": 96.83323649999926,
          "velocity": 0.7874015748031497,
          "duration": 0.08333324999999547
        },
        {
          "name": "A#3",
          "midi": 58,
          "time": 96.99990299999925,
          "velocity": 0.7874015748031497,
          "duration": 0.08333324999999547
        },
        {
          "name": "G4",
          "midi": 67,
          "time": 96.99990299999925,
          "velocity": 0.7874015748031497,
          "duration": 0.08333324999999547
        },
        {
          "name": "D#5",
          "midi": 75,
          "time": 96.99990299999925,
          "velocity": 0.7874015748031497,
          "duration": 0.08333324999999547
        },
        {
          "name": "A#3",
          "midi": 58,
          "time": 97.16656949999924,
          "velocity": 0.7874015748031497,
          "duration": 0.08333324999999547
        },
        {
          "name": "G4",
          "midi": 67,
          "time": 97.16656949999924,
          "velocity": 0.7874015748031497,
          "duration": 0.08333324999999547
        },
        {
          "name": "D#5",
          "midi": 75,
          "time": 97.16656949999924,
          "velocity": 0.7874015748031497,
          "duration": 0.08333324999999547
        },
        {
          "name": "F3",
          "midi": 53,
          "time": 97.33323599999923,
          "velocity": 0.7874015748031497,
          "duration": 0.6666659999999638
        },
        {
          "name": "C6",
          "midi": 84,
          "time": 97.33323599999923,
          "velocity": 0.7874015748031497,
          "duration": 1.3333319999999276
        },
        {
          "name": "F5",
          "midi": 77,
          "time": 97.33323599999923,
          "velocity": 0.7874015748031497,
          "duration": 0.08333324999999547
        },
        {
          "name": "A4",
          "midi": 69,
          "time": 97.33323599999923,
          "velocity": 0.7874015748031497,
          "duration": 0.08333324999999547
        },
        {
          "name": "C4",
          "midi": 60,
          "time": 97.33323599999923,
          "velocity": 0.7874015748031497,
          "duration": 0.08333324999999547
        },
        {
          "name": "F5",
          "midi": 77,
          "time": 97.49990249999922,
          "velocity": 0.7874015748031497,
          "duration": 0.08333324999999547
        },
        {
          "name": "A4",
          "midi": 69,
          "time": 97.49990249999922,
          "velocity": 0.7874015748031497,
          "duration": 0.08333324999999547
        },
        {
          "name": "C4",
          "midi": 60,
          "time": 97.49990249999922,
          "velocity": 0.7874015748031497,
          "duration": 0.08333324999999547
        },
        {
          "name": "C4",
          "midi": 60,
          "time": 97.66656899999921,
          "velocity": 0.7874015748031497,
          "duration": 0.08333324999999547
        },
        {
          "name": "F5",
          "midi": 77,
          "time": 97.66656899999921,
          "velocity": 0.7874015748031497,
          "duration": 0.08333324999999547
        },
        {
          "name": "C4",
          "midi": 60,
          "time": 97.8332354999992,
          "velocity": 0.7874015748031497,
          "duration": 0.08333324999999547
        },
        {
          "name": "A4",
          "midi": 69,
          "time": 97.8332354999992,
          "velocity": 0.7874015748031497,
          "duration": 0.08333324999999547
        },
        {
          "name": "F5",
          "midi": 77,
          "time": 97.8332354999992,
          "velocity": 0.7874015748031497,
          "duration": 0.08333324999999547
        },
        {
          "name": "F#3",
          "midi": 54,
          "time": 97.9999019999992,
          "velocity": 0.7874015748031497,
          "duration": 0.16666649999999095
        },
        {
          "name": "F#3",
          "midi": 54,
          "time": 97.9999019999992,
          "velocity": 0.7874015748031497,
          "duration": 0.6666659999999638
        },
        {
          "name": "F#5",
          "midi": 78,
          "time": 97.9999019999992,
          "velocity": 0.7874015748031497,
          "duration": 0.08333324999999547
        },
        {
          "name": "A4",
          "midi": 69,
          "time": 97.9999019999992,
          "velocity": 0.7874015748031497,
          "duration": 0.08333324999999547
        },
        {
          "name": "C4",
          "midi": 60,
          "time": 97.9999019999992,
          "velocity": 0.7874015748031497,
          "duration": 0.08333324999999547
        },
        {
          "name": "A4",
          "midi": 69,
          "time": 98.16656849999919,
          "velocity": 0.7874015748031497,
          "duration": 0.08333324999999547
        },
        {
          "name": "C4",
          "midi": 60,
          "time": 98.16656849999919,
          "velocity": 0.7874015748031497,
          "duration": 0.08333324999999547
        },
        {
          "name": "C4",
          "midi": 60,
          "time": 98.33323499999918,
          "velocity": 0.7874015748031497,
          "duration": 0.08333324999999547
        },
        {
          "name": "A4",
          "midi": 69,
          "time": 98.33323499999918,
          "velocity": 0.7874015748031497,
          "duration": 0.08333324999999547
        },
        {
          "name": "F#5",
          "midi": 78,
          "time": 98.33323499999918,
          "velocity": 0.7874015748031497,
          "duration": 0.08333324999999547
        },
        {
          "name": "C4",
          "midi": 60,
          "time": 98.49990149999917,
          "velocity": 0.7874015748031497,
          "duration": 0.08333324999999547
        },
        {
          "name": "A4",
          "midi": 69,
          "time": 98.49990149999917,
          "velocity": 0.7874015748031497,
          "duration": 0.08333324999999547
        },
        {
          "name": "F#5",
          "midi": 78,
          "time": 98.49990149999917,
          "velocity": 0.7874015748031497,
          "duration": 0.08333324999999547
        },
        {
          "name": "G2",
          "midi": 43,
          "time": 98.66656799999916,
          "velocity": 0.7874015748031497,
          "duration": 1.3333319999999276
        },
        {
          "name": "A#5",
          "midi": 82,
          "time": 98.66656799999916,
          "velocity": 0.7874015748031497,
          "duration": 1.3333319999999276
        },
        {
          "name": "G4",
          "midi": 67,
          "time": 98.66656799999916,
          "velocity": 0.7874015748031497,
          "duration": 0.08333324999999547
        },
        {
          "name": "A#3",
          "midi": 58,
          "time": 98.66656799999916,
          "velocity": 0.7874015748031497,
          "duration": 0.08333324999999547
        },
        {
          "name": "D3",
          "midi": 50,
          "time": 98.66656799999916,
          "velocity": 0.7874015748031497,
          "duration": 0.08333324999999547
        },
        {
          "name": "G4",
          "midi": 67,
          "time": 98.83323449999915,
          "velocity": 0.7874015748031497,
          "duration": 0.08333324999999547
        },
        {
          "name": "A#3",
          "midi": 58,
          "time": 98.83323449999915,
          "velocity": 0.7874015748031497,
          "duration": 0.08333324999999547
        },
        {
          "name": "D3",
          "midi": 50,
          "time": 98.83323449999915,
          "velocity": 0.7874015748031497,
          "duration": 0.08333324999999547
        },
        {
          "name": "G4",
          "midi": 67,
          "time": 98.99990099999914,
          "velocity": 0.7874015748031497,
          "duration": 0.08333324999999547
        },
        {
          "name": "D3",
          "midi": 50,
          "time": 98.99990099999914,
          "velocity": 0.7874015748031497,
          "duration": 0.08333324999999547
        },
        {
          "name": "G4",
          "midi": 67,
          "time": 99.16656749999913,
          "velocity": 0.7874015748031497,
          "duration": 0.08333324999999547
        },
        {
          "name": "A#3",
          "midi": 58,
          "time": 99.16656749999913,
          "velocity": 0.7874015748031497,
          "duration": 0.08333324999999547
        },
        {
          "name": "D3",
          "midi": 50,
          "time": 99.16656749999913,
          "velocity": 0.7874015748031497,
          "duration": 0.08333324999999547
        },
        {
          "name": "G4",
          "midi": 67,
          "time": 99.33323399999912,
          "velocity": 0.7874015748031497,
          "duration": 0.08333324999999547
        },
        {
          "name": "A#3",
          "midi": 58,
          "time": 99.33323399999912,
          "velocity": 0.7874015748031497,
          "duration": 0.08333324999999547
        },
        {
          "name": "D3",
          "midi": 50,
          "time": 99.33323399999912,
          "velocity": 0.7874015748031497,
          "duration": 0.08333324999999547
        },
        {
          "name": "A#3",
          "midi": 58,
          "time": 99.49990049999911,
          "velocity": 0.7874015748031497,
          "duration": 0.08333324999999547
        },
        {
          "name": "D3",
          "midi": 50,
          "time": 99.49990049999911,
          "velocity": 0.7874015748031497,
          "duration": 0.08333324999999547
        },
        {
          "name": "D3",
          "midi": 50,
          "time": 99.6665669999991,
          "velocity": 0.7874015748031497,
          "duration": 0.08333324999999547
        },
        {
          "name": "A#3",
          "midi": 58,
          "time": 99.6665669999991,
          "velocity": 0.7874015748031497,
          "duration": 0.08333324999999547
        },
        {
          "name": "G4",
          "midi": 67,
          "time": 99.6665669999991,
          "velocity": 0.7874015748031497,
          "duration": 0.08333324999999547
        },
        {
          "name": "D3",
          "midi": 50,
          "time": 99.8332334999991,
          "velocity": 0.7874015748031497,
          "duration": 0.08333324999999547
        },
        {
          "name": "A#3",
          "midi": 58,
          "time": 99.8332334999991,
          "velocity": 0.7874015748031497,
          "duration": 0.08333324999999547
        },
        {
          "name": "G4",
          "midi": 67,
          "time": 99.8332334999991,
          "velocity": 0.7874015748031497,
          "duration": 0.08333324999999547
        },
        {
          "name": "D#3",
          "midi": 51,
          "time": 99.99989999999909,
          "velocity": 0.7874015748031497,
          "duration": 1.3333319999999276
        },
        {
          "name": "A#5",
          "midi": 82,
          "time": 99.99989999999909,
          "velocity": 0.7874015748031497,
          "duration": 1.3333319999999276
        },
        {
          "name": "D#5",
          "midi": 75,
          "time": 99.99989999999909,
          "velocity": 0.7874015748031497,
          "duration": 0.08333324999999547
        },
        {
          "name": "G4",
          "midi": 67,
          "time": 99.99989999999909,
          "velocity": 0.7874015748031497,
          "duration": 0.08333324999999547
        },
        {
          "name": "A#3",
          "midi": 58,
          "time": 99.99989999999909,
          "velocity": 0.7874015748031497,
          "duration": 0.08333324999999547
        },
        {
          "name": "D#5",
          "midi": 75,
          "time": 100.16656649999908,
          "velocity": 0.7874015748031497,
          "duration": 0.08333324999999547
        },
        {
          "name": "G4",
          "midi": 67,
          "time": 100.16656649999908,
          "velocity": 0.7874015748031497,
          "duration": 0.08333324999999547
        },
        {
          "name": "A#3",
          "midi": 58,
          "time": 100.16656649999908,
          "velocity": 0.7874015748031497,
          "duration": 0.08333324999999547
        },
        {
          "name": "D#5",
          "midi": 75,
          "time": 100.33323299999907,
          "velocity": 0.7874015748031497,
          "duration": 0.08333324999999547
        },
        {
          "name": "A#3",
          "midi": 58,
          "time": 100.33323299999907,
          "velocity": 0.7874015748031497,
          "duration": 0.08333324999999547
        },
        {
          "name": "D#5",
          "midi": 75,
          "time": 100.49989949999906,
          "velocity": 0.7874015748031497,
          "duration": 0.08333324999999547
        },
        {
          "name": "G4",
          "midi": 67,
          "time": 100.49989949999906,
          "velocity": 0.7874015748031497,
          "duration": 0.08333324999999547
        },
        {
          "name": "A#3",
          "midi": 58,
          "time": 100.49989949999906,
          "velocity": 0.7874015748031497,
          "duration": 0.08333324999999547
        },
        {
          "name": "D#5",
          "midi": 75,
          "time": 100.66656599999905,
          "velocity": 0.7874015748031497,
          "duration": 0.08333324999999547
        },
        {
          "name": "G4",
          "midi": 67,
          "time": 100.66656599999905,
          "velocity": 0.7874015748031497,
          "duration": 0.08333324999999547
        },
        {
          "name": "A#3",
          "midi": 58,
          "time": 100.66656599999905,
          "velocity": 0.7874015748031497,
          "duration": 0.08333324999999547
        },
        {
          "name": "G4",
          "midi": 67,
          "time": 100.83323249999904,
          "velocity": 0.7874015748031497,
          "duration": 0.08333324999999547
        },
        {
          "name": "A#3",
          "midi": 58,
          "time": 100.83323249999904,
          "velocity": 0.7874015748031497,
          "duration": 0.08333324999999547
        },
        {
          "name": "A#3",
          "midi": 58,
          "time": 100.99989899999903,
          "velocity": 0.7874015748031497,
          "duration": 0.08333324999999547
        },
        {
          "name": "G4",
          "midi": 67,
          "time": 100.99989899999903,
          "velocity": 0.7874015748031497,
          "duration": 0.08333324999999547
        },
        {
          "name": "D#5",
          "midi": 75,
          "time": 100.99989899999903,
          "velocity": 0.7874015748031497,
          "duration": 0.08333324999999547
        },
        {
          "name": "A#3",
          "midi": 58,
          "time": 101.16656549999902,
          "velocity": 0.7874015748031497,
          "duration": 0.08333324999999547
        },
        {
          "name": "G4",
          "midi": 67,
          "time": 101.16656549999902,
          "velocity": 0.7874015748031497,
          "duration": 0.08333324999999547
        },
        {
          "name": "D#5",
          "midi": 75,
          "time": 101.16656549999902,
          "velocity": 0.7874015748031497,
          "duration": 0.08333324999999547
        },
        {
          "name": "E3",
          "midi": 52,
          "time": 101.33323199999901,
          "velocity": 0.7874015748031497,
          "duration": 1.3333319999999276
        },
        {
          "name": "A#5",
          "midi": 82,
          "time": 101.33323199999901,
          "velocity": 0.7874015748031497,
          "duration": 1.3333319999999276
        },
        {
          "name": "E5",
          "midi": 76,
          "time": 101.33323199999901,
          "velocity": 0.7874015748031497,
          "duration": 0.08333324999999547
        },
        {
          "name": "G4",
          "midi": 67,
          "time": 101.33323199999901,
          "velocity": 0.7874015748031497,
          "duration": 0.08333324999999547
        },
        {
          "name": "A#3",
          "midi": 58,
          "time": 101.33323199999901,
          "velocity": 0.7874015748031497,
          "duration": 0.08333324999999547
        },
        {
          "name": "E5",
          "midi": 76,
          "time": 101.499898499999,
          "velocity": 0.7874015748031497,
          "duration": 0.08333324999999547
        },
        {
          "name": "G4",
          "midi": 67,
          "time": 101.499898499999,
          "velocity": 0.7874015748031497,
          "duration": 0.08333324999999547
        },
        {
          "name": "A#3",
          "midi": 58,
          "time": 101.499898499999,
          "velocity": 0.7874015748031497,
          "duration": 0.08333324999999547
        },
        {
          "name": "E5",
          "midi": 76,
          "time": 101.666564999999,
          "velocity": 0.7874015748031497,
          "duration": 0.08333324999999547
        },
        {
          "name": "A#3",
          "midi": 58,
          "time": 101.666564999999,
          "velocity": 0.7874015748031497,
          "duration": 0.08333324999999547
        },
        {
          "name": "E5",
          "midi": 76,
          "time": 101.83323149999899,
          "velocity": 0.7874015748031497,
          "duration": 0.08333324999999547
        },
        {
          "name": "G4",
          "midi": 67,
          "time": 101.83323149999899,
          "velocity": 0.7874015748031497,
          "duration": 0.08333324999999547
        },
        {
          "name": "A#3",
          "midi": 58,
          "time": 101.83323149999899,
          "velocity": 0.7874015748031497,
          "duration": 0.08333324999999547
        },
        {
          "name": "E5",
          "midi": 76,
          "time": 101.99989799999898,
          "velocity": 0.7874015748031497,
          "duration": 0.08333324999999547
        },
        {
          "name": "G4",
          "midi": 67,
          "time": 101.99989799999898,
          "velocity": 0.7874015748031497,
          "duration": 0.08333324999999547
        },
        {
          "name": "A#3",
          "midi": 58,
          "time": 101.99989799999898,
          "velocity": 0.7874015748031497,
          "duration": 0.08333324999999547
        },
        {
          "name": "G4",
          "midi": 67,
          "time": 102.16656449999897,
          "velocity": 0.7874015748031497,
          "duration": 0.08333324999999547
        },
        {
          "name": "A#3",
          "midi": 58,
          "time": 102.16656449999897,
          "velocity": 0.7874015748031497,
          "duration": 0.08333324999999547
        },
        {
          "name": "A#3",
          "midi": 58,
          "time": 102.33323099999896,
          "velocity": 0.7874015748031497,
          "duration": 0.08333324999999547
        },
        {
          "name": "G4",
          "midi": 67,
          "time": 102.33323099999896,
          "velocity": 0.7874015748031497,
          "duration": 0.08333324999999547
        },
        {
          "name": "E5",
          "midi": 76,
          "time": 102.33323099999896,
          "velocity": 0.7874015748031497,
          "duration": 0.08333324999999547
        },
        {
          "name": "A#3",
          "midi": 58,
          "time": 102.49989749999895,
          "velocity": 0.7874015748031497,
          "duration": 0.08333324999999547
        },
        {
          "name": "G4",
          "midi": 67,
          "time": 102.49989749999895,
          "velocity": 0.7874015748031497,
          "duration": 0.08333324999999547
        },
        {
          "name": "E5",
          "midi": 76,
          "time": 102.49989749999895,
          "velocity": 0.7874015748031497,
          "duration": 0.08333324999999547
        },
        {
          "name": "F3",
          "midi": 53,
          "time": 102.66656399999894,
          "velocity": 0.7874015748031497,
          "duration": 1.3333319999999276
        },
        {
          "name": "C6",
          "midi": 84,
          "time": 102.66656399999894,
          "velocity": 0.7874015748031497,
          "duration": 1.3333319999999276
        },
        {
          "name": "F5",
          "midi": 77,
          "time": 102.66656399999894,
          "velocity": 0.7874015748031497,
          "duration": 0.08333324999999547
        },
        {
          "name": "A4",
          "midi": 69,
          "time": 102.66656399999894,
          "velocity": 0.7874015748031497,
          "duration": 0.08333324999999547
        },
        {
          "name": "C4",
          "midi": 60,
          "time": 102.66656399999894,
          "velocity": 0.7874015748031497,
          "duration": 0.08333324999999547
        },
        {
          "name": "F5",
          "midi": 77,
          "time": 102.83323049999893,
          "velocity": 0.7874015748031497,
          "duration": 0.08333324999999547
        },
        {
          "name": "A4",
          "midi": 69,
          "time": 102.83323049999893,
          "velocity": 0.7874015748031497,
          "duration": 0.08333324999999547
        },
        {
          "name": "C4",
          "midi": 60,
          "time": 102.83323049999893,
          "velocity": 0.7874015748031497,
          "duration": 0.08333324999999547
        },
        {
          "name": "F5",
          "midi": 77,
          "time": 102.99989699999892,
          "velocity": 0.7874015748031497,
          "duration": 0.08333324999999547
        },
        {
          "name": "C4",
          "midi": 60,
          "time": 102.99989699999892,
          "velocity": 0.7874015748031497,
          "duration": 0.08333324999999547
        },
        {
          "name": "F5",
          "midi": 77,
          "time": 103.16656349999892,
          "velocity": 0.7874015748031497,
          "duration": 0.08333324999999547
        },
        {
          "name": "A4",
          "midi": 69,
          "time": 103.16656349999892,
          "velocity": 0.7874015748031497,
          "duration": 0.08333324999999547
        },
        {
          "name": "C4",
          "midi": 60,
          "time": 103.16656349999892,
          "velocity": 0.7874015748031497,
          "duration": 0.08333324999999547
        },
        {
          "name": "F5",
          "midi": 77,
          "time": 103.3332299999989,
          "velocity": 0.7874015748031497,
          "duration": 0.08333324999999547
        },
        {
          "name": "A4",
          "midi": 69,
          "time": 103.3332299999989,
          "velocity": 0.7874015748031497,
          "duration": 0.08333324999999547
        },
        {
          "name": "C4",
          "midi": 60,
          "time": 103.3332299999989,
          "velocity": 0.7874015748031497,
          "duration": 0.08333324999999547
        },
        {
          "name": "A4",
          "midi": 69,
          "time": 103.4998964999989,
          "velocity": 0.7874015748031497,
          "duration": 0.08333324999999547
        },
        {
          "name": "C4",
          "midi": 60,
          "time": 103.4998964999989,
          "velocity": 0.7874015748031497,
          "duration": 0.08333324999999547
        },
        {
          "name": "C4",
          "midi": 60,
          "time": 103.66656299999889,
          "velocity": 0.7874015748031497,
          "duration": 0.08333324999999547
        },
        {
          "name": "A4",
          "midi": 69,
          "time": 103.66656299999889,
          "velocity": 0.7874015748031497,
          "duration": 0.08333324999999547
        },
        {
          "name": "F5",
          "midi": 77,
          "time": 103.66656299999889,
          "velocity": 0.7874015748031497,
          "duration": 0.08333324999999547
        },
        {
          "name": "C4",
          "midi": 60,
          "time": 103.83322949999888,
          "velocity": 0.7874015748031497,
          "duration": 0.08333324999999547
        },
        {
          "name": "A4",
          "midi": 69,
          "time": 103.83322949999888,
          "velocity": 0.7874015748031497,
          "duration": 0.08333324999999547
        },
        {
          "name": "F5",
          "midi": 77,
          "time": 103.83322949999888,
          "velocity": 0.7874015748031497,
          "duration": 0.08333324999999547
        },
        {
          "name": "F3",
          "midi": 53,
          "time": 103.99989599999887,
          "velocity": 0.7874015748031497,
          "duration": 1.3333319999999276
        },
        {
          "name": "C6",
          "midi": 84,
          "time": 103.99989599999887,
          "velocity": 0.7874015748031497,
          "duration": 1.3333319999999276
        },
        {
          "name": "F5",
          "midi": 77,
          "time": 103.99989599999887,
          "velocity": 0.7874015748031497,
          "duration": 0.08333324999999547
        },
        {
          "name": "A4",
          "midi": 69,
          "time": 103.99989599999887,
          "velocity": 0.7874015748031497,
          "duration": 0.08333324999999547
        },
        {
          "name": "C4",
          "midi": 60,
          "time": 103.99989599999887,
          "velocity": 0.7874015748031497,
          "duration": 0.08333324999999547
        },
        {
          "name": "F5",
          "midi": 77,
          "time": 104.16656249999886,
          "velocity": 0.7874015748031497,
          "duration": 0.08333324999999547
        },
        {
          "name": "A4",
          "midi": 69,
          "time": 104.16656249999886,
          "velocity": 0.7874015748031497,
          "duration": 0.08333324999999547
        },
        {
          "name": "C4",
          "midi": 60,
          "time": 104.16656249999886,
          "velocity": 0.7874015748031497,
          "duration": 0.08333324999999547
        },
        {
          "name": "F5",
          "midi": 77,
          "time": 104.33322899999885,
          "velocity": 0.7874015748031497,
          "duration": 0.08333324999999547
        },
        {
          "name": "C4",
          "midi": 60,
          "time": 104.33322899999885,
          "velocity": 0.7874015748031497,
          "duration": 0.08333324999999547
        },
        {
          "name": "F5",
          "midi": 77,
          "time": 104.49989549999884,
          "velocity": 0.7874015748031497,
          "duration": 0.08333324999999547
        },
        {
          "name": "A4",
          "midi": 69,
          "time": 104.49989549999884,
          "velocity": 0.7874015748031497,
          "duration": 0.08333324999999547
        },
        {
          "name": "C4",
          "midi": 60,
          "time": 104.49989549999884,
          "velocity": 0.7874015748031497,
          "duration": 0.08333324999999547
        },
        {
          "name": "F5",
          "midi": 77,
          "time": 104.66656199999883,
          "velocity": 0.7874015748031497,
          "duration": 0.08333324999999547
        },
        {
          "name": "A4",
          "midi": 69,
          "time": 104.66656199999883,
          "velocity": 0.7874015748031497,
          "duration": 0.08333324999999547
        },
        {
          "name": "C4",
          "midi": 60,
          "time": 104.66656199999883,
          "velocity": 0.7874015748031497,
          "duration": 0.08333324999999547
        },
        {
          "name": "A4",
          "midi": 69,
          "time": 104.83322849999882,
          "velocity": 0.7874015748031497,
          "duration": 0.08333324999999547
        },
        {
          "name": "C4",
          "midi": 60,
          "time": 104.83322849999882,
          "velocity": 0.7874015748031497,
          "duration": 0.08333324999999547
        },
        {
          "name": "C4",
          "midi": 60,
          "time": 104.99989499999882,
          "velocity": 0.7874015748031497,
          "duration": 0.08333324999999547
        },
        {
          "name": "A4",
          "midi": 69,
          "time": 104.99989499999882,
          "velocity": 0.7874015748031497,
          "duration": 0.08333324999999547
        },
        {
          "name": "F5",
          "midi": 77,
          "time": 104.99989499999882,
          "velocity": 0.7874015748031497,
          "duration": 0.08333324999999547
        },
        {
          "name": "C4",
          "midi": 60,
          "time": 105.1665614999988,
          "velocity": 0.7874015748031497,
          "duration": 0.08333324999999547
        },
        {
          "name": "A4",
          "midi": 69,
          "time": 105.1665614999988,
          "velocity": 0.7874015748031497,
          "duration": 0.08333324999999547
        },
        {
          "name": "F5",
          "midi": 77,
          "time": 105.1665614999988,
          "velocity": 0.7874015748031497,
          "duration": 0.08333324999999547
        },
        {
          "name": "A#2",
          "midi": 46,
          "time": 105.3332279999988,
          "velocity": 0.7874015748031497,
          "duration": 1.3333319999999276
        },
        {
          "name": "D6",
          "midi": 86,
          "time": 105.3332279999988,
          "velocity": 0.7874015748031497,
          "duration": 1.3333319999999276
        },
        {
          "name": "A#4",
          "midi": 70,
          "time": 105.3332279999988,
          "velocity": 0.7874015748031497,
          "duration": 0.08333324999999547
        },
        {
          "name": "D4",
          "midi": 62,
          "time": 105.3332279999988,
          "velocity": 0.7874015748031497,
          "duration": 0.08333324999999547
        },
        {
          "name": "F3",
          "midi": 53,
          "time": 105.3332279999988,
          "velocity": 0.7874015748031497,
          "duration": 0.08333324999999547
        },
        {
          "name": "A#4",
          "midi": 70,
          "time": 105.49989449999879,
          "velocity": 0.7874015748031497,
          "duration": 0.08333324999999547
        },
        {
          "name": "D4",
          "midi": 62,
          "time": 105.49989449999879,
          "velocity": 0.7874015748031497,
          "duration": 0.08333324999999547
        },
        {
          "name": "F3",
          "midi": 53,
          "time": 105.49989449999879,
          "velocity": 0.7874015748031497,
          "duration": 0.08333324999999547
        },
        {
          "name": "A#4",
          "midi": 70,
          "time": 105.66656099999878,
          "velocity": 0.7874015748031497,
          "duration": 0.08333324999999547
        },
        {
          "name": "F3",
          "midi": 53,
          "time": 105.66656099999878,
          "velocity": 0.7874015748031497,
          "duration": 0.08333324999999547
        },
        {
          "name": "A#4",
          "midi": 70,
          "time": 105.83322749999877,
          "velocity": 0.7874015748031497,
          "duration": 0.08333324999999547
        },
        {
          "name": "D4",
          "midi": 62,
          "time": 105.83322749999877,
          "velocity": 0.7874015748031497,
          "duration": 0.08333324999999547
        },
        {
          "name": "F3",
          "midi": 53,
          "time": 105.83322749999877,
          "velocity": 0.7874015748031497,
          "duration": 0.08333324999999547
        },
        {
          "name": "A#4",
          "midi": 70,
          "time": 105.99989399999876,
          "velocity": 0.7874015748031497,
          "duration": 0.08333324999999547
        },
        {
          "name": "D4",
          "midi": 62,
          "time": 105.99989399999876,
          "velocity": 0.7874015748031497,
          "duration": 0.08333324999999547
        },
        {
          "name": "F3",
          "midi": 53,
          "time": 105.99989399999876,
          "velocity": 0.7874015748031497,
          "duration": 0.08333324999999547
        },
        {
          "name": "D4",
          "midi": 62,
          "time": 106.16656049999875,
          "velocity": 0.7874015748031497,
          "duration": 0.08333324999999547
        },
        {
          "name": "F3",
          "midi": 53,
          "time": 106.16656049999875,
          "velocity": 0.7874015748031497,
          "duration": 0.08333324999999547
        },
        {
          "name": "F3",
          "midi": 53,
          "time": 106.33322699999874,
          "velocity": 0.7874015748031497,
          "duration": 0.08333324999999547
        },
        {
          "name": "D4",
          "midi": 62,
          "time": 106.33322699999874,
          "velocity": 0.7874015748031497,
          "duration": 0.08333324999999547
        },
        {
          "name": "A#4",
          "midi": 70,
          "time": 106.33322699999874,
          "velocity": 0.7874015748031497,
          "duration": 0.08333324999999547
        },
        {
          "name": "F3",
          "midi": 53,
          "time": 106.49989349999873,
          "velocity": 0.7874015748031497,
          "duration": 0.08333324999999547
        },
        {
          "name": "D4",
          "midi": 62,
          "time": 106.49989349999873,
          "velocity": 0.7874015748031497,
          "duration": 0.08333324999999547
        },
        {
          "name": "A#4",
          "midi": 70,
          "time": 106.49989349999873,
          "velocity": 0.7874015748031497,
          "duration": 0.08333324999999547
        },
        {
          "name": "D#3",
          "midi": 51,
          "time": 106.66655999999873,
          "velocity": 0.7874015748031497,
          "duration": 1.3333319999999276
        },
        {
          "name": "A#5",
          "midi": 82,
          "time": 106.66655999999873,
          "velocity": 0.7874015748031497,
          "duration": 1.3333319999999276
        },
        {
          "name": "D#5",
          "midi": 75,
          "time": 106.66655999999873,
          "velocity": 0.7874015748031497,
          "duration": 0.08333324999999547
        },
        {
          "name": "G4",
          "midi": 67,
          "time": 106.66655999999873,
          "velocity": 0.7874015748031497,
          "duration": 0.08333324999999547
        },
        {
          "name": "A#3",
          "midi": 58,
          "time": 106.66655999999873,
          "velocity": 0.7874015748031497,
          "duration": 0.08333324999999547
        },
        {
          "name": "D#5",
          "midi": 75,
          "time": 106.83322649999872,
          "velocity": 0.7874015748031497,
          "duration": 0.08333324999999547
        },
        {
          "name": "G4",
          "midi": 67,
          "time": 106.83322649999872,
          "velocity": 0.7874015748031497,
          "duration": 0.08333324999999547
        },
        {
          "name": "A#3",
          "midi": 58,
          "time": 106.83322649999872,
          "velocity": 0.7874015748031497,
          "duration": 0.08333324999999547
        },
        {
          "name": "D#5",
          "midi": 75,
          "time": 106.9998929999987,
          "velocity": 0.7874015748031497,
          "duration": 0.08333324999999547
        },
        {
          "name": "A#3",
          "midi": 58,
          "time": 106.9998929999987,
          "velocity": 0.7874015748031497,
          "duration": 0.08333324999999547
        },
        {
          "name": "D#5",
          "midi": 75,
          "time": 107.1665594999987,
          "velocity": 0.7874015748031497,
          "duration": 0.08333324999999547
        },
        {
          "name": "G4",
          "midi": 67,
          "time": 107.1665594999987,
          "velocity": 0.7874015748031497,
          "duration": 0.08333324999999547
        },
        {
          "name": "A#3",
          "midi": 58,
          "time": 107.1665594999987,
          "velocity": 0.7874015748031497,
          "duration": 0.08333324999999547
        },
        {
          "name": "D#5",
          "midi": 75,
          "time": 107.33322599999869,
          "velocity": 0.7874015748031497,
          "duration": 0.08333324999999547
        },
        {
          "name": "G4",
          "midi": 67,
          "time": 107.33322599999869,
          "velocity": 0.7874015748031497,
          "duration": 0.08333324999999547
        },
        {
          "name": "A#3",
          "midi": 58,
          "time": 107.33322599999869,
          "velocity": 0.7874015748031497,
          "duration": 0.08333324999999547
        },
        {
          "name": "G4",
          "midi": 67,
          "time": 107.49989249999868,
          "velocity": 0.7874015748031497,
          "duration": 0.08333324999999547
        },
        {
          "name": "A#3",
          "midi": 58,
          "time": 107.49989249999868,
          "velocity": 0.7874015748031497,
          "duration": 0.08333324999999547
        },
        {
          "name": "A#3",
          "midi": 58,
          "time": 107.66655899999867,
          "velocity": 0.7874015748031497,
          "duration": 0.08333324999999547
        },
        {
          "name": "G4",
          "midi": 67,
          "time": 107.66655899999867,
          "velocity": 0.7874015748031497,
          "duration": 0.08333324999999547
        },
        {
          "name": "D#5",
          "midi": 75,
          "time": 107.66655899999867,
          "velocity": 0.7874015748031497,
          "duration": 0.08333324999999547
        },
        {
          "name": "A#3",
          "midi": 58,
          "time": 107.83322549999866,
          "velocity": 0.7874015748031497,
          "duration": 0.08333324999999547
        },
        {
          "name": "G4",
          "midi": 67,
          "time": 107.83322549999866,
          "velocity": 0.7874015748031497,
          "duration": 0.08333324999999547
        },
        {
          "name": "D#5",
          "midi": 75,
          "time": 107.83322549999866,
          "velocity": 0.7874015748031497,
          "duration": 0.08333324999999547
        },
        {
          "name": "F3",
          "midi": 53,
          "time": 107.99989199999865,
          "velocity": 0.7874015748031497,
          "duration": 1.3333319999999276
        },
        {
          "name": "C6",
          "midi": 84,
          "time": 107.99989199999865,
          "velocity": 0.7874015748031497,
          "duration": 1.3333319999999276
        },
        {
          "name": "F5",
          "midi": 77,
          "time": 107.99989199999865,
          "velocity": 0.7874015748031497,
          "duration": 0.08333324999999547
        },
        {
          "name": "A4",
          "midi": 69,
          "time": 107.99989199999865,
          "velocity": 0.7874015748031497,
          "duration": 0.08333324999999547
        },
        {
          "name": "C4",
          "midi": 60,
          "time": 107.99989199999865,
          "velocity": 0.7874015748031497,
          "duration": 0.08333324999999547
        },
        {
          "name": "F5",
          "midi": 77,
          "time": 108.16655849999864,
          "velocity": 0.7874015748031497,
          "duration": 0.08333324999999547
        },
        {
          "name": "A4",
          "midi": 69,
          "time": 108.16655849999864,
          "velocity": 0.7874015748031497,
          "duration": 0.08333324999999547
        },
        {
          "name": "C4",
          "midi": 60,
          "time": 108.16655849999864,
          "velocity": 0.7874015748031497,
          "duration": 0.08333324999999547
        },
        {
          "name": "F5",
          "midi": 77,
          "time": 108.33322499999863,
          "velocity": 0.7874015748031497,
          "duration": 0.08333324999999547
        },
        {
          "name": "C4",
          "midi": 60,
          "time": 108.33322499999863,
          "velocity": 0.7874015748031497,
          "duration": 0.08333324999999547
        },
        {
          "name": "F5",
          "midi": 77,
          "time": 108.49989149999863,
          "velocity": 0.7874015748031497,
          "duration": 0.08333324999999547
        },
        {
          "name": "A4",
          "midi": 69,
          "time": 108.49989149999863,
          "velocity": 0.7874015748031497,
          "duration": 0.08333324999999547
        },
        {
          "name": "C4",
          "midi": 60,
          "time": 108.49989149999863,
          "velocity": 0.7874015748031497,
          "duration": 0.08333324999999547
        },
        {
          "name": "F5",
          "midi": 77,
          "time": 108.66655799999862,
          "velocity": 0.7874015748031497,
          "duration": 0.08333324999999547
        },
        {
          "name": "A4",
          "midi": 69,
          "time": 108.66655799999862,
          "velocity": 0.7874015748031497,
          "duration": 0.08333324999999547
        },
        {
          "name": "C4",
          "midi": 60,
          "time": 108.66655799999862,
          "velocity": 0.7874015748031497,
          "duration": 0.08333324999999547
        },
        {
          "name": "A4",
          "midi": 69,
          "time": 108.83322449999861,
          "velocity": 0.7874015748031497,
          "duration": 0.08333324999999547
        },
        {
          "name": "C4",
          "midi": 60,
          "time": 108.83322449999861,
          "velocity": 0.7874015748031497,
          "duration": 0.08333324999999547
        },
        {
          "name": "C4",
          "midi": 60,
          "time": 108.9998909999986,
          "velocity": 0.7874015748031497,
          "duration": 0.08333324999999547
        },
        {
          "name": "A4",
          "midi": 69,
          "time": 108.9998909999986,
          "velocity": 0.7874015748031497,
          "duration": 0.08333324999999547
        },
        {
          "name": "F5",
          "midi": 77,
          "time": 108.9998909999986,
          "velocity": 0.7874015748031497,
          "duration": 0.08333324999999547
        },
        {
          "name": "C4",
          "midi": 60,
          "time": 109.16655749999859,
          "velocity": 0.7874015748031497,
          "duration": 0.08333324999999547
        },
        {
          "name": "A4",
          "midi": 69,
          "time": 109.16655749999859,
          "velocity": 0.7874015748031497,
          "duration": 0.08333324999999547
        },
        {
          "name": "F5",
          "midi": 77,
          "time": 109.16655749999859,
          "velocity": 0.7874015748031497,
          "duration": 0.08333324999999547
        },
        {
          "name": "G2",
          "midi": 43,
          "time": 109.33322399999858,
          "velocity": 0.7874015748031497,
          "duration": 1.3333319999999276
        },
        {
          "name": "A#5",
          "midi": 82,
          "time": 109.33322399999858,
          "velocity": 0.7874015748031497,
          "duration": 1.3333319999999276
        },
        {
          "name": "G4",
          "midi": 67,
          "time": 109.33322399999858,
          "velocity": 0.7874015748031497,
          "duration": 0.08333324999999547
        },
        {
          "name": "A#3",
          "midi": 58,
          "time": 109.33322399999858,
          "velocity": 0.7874015748031497,
          "duration": 0.08333324999999547
        },
        {
          "name": "D3",
          "midi": 50,
          "time": 109.33322399999858,
          "velocity": 0.7874015748031497,
          "duration": 0.08333324999999547
        },
        {
          "name": "G4",
          "midi": 67,
          "time": 109.49989049999857,
          "velocity": 0.7874015748031497,
          "duration": 0.08333324999999547
        },
        {
          "name": "A#3",
          "midi": 58,
          "time": 109.49989049999857,
          "velocity": 0.7874015748031497,
          "duration": 0.08333324999999547
        },
        {
          "name": "D3",
          "midi": 50,
          "time": 109.49989049999857,
          "velocity": 0.7874015748031497,
          "duration": 0.08333324999999547
        },
        {
          "name": "G4",
          "midi": 67,
          "time": 109.66655699999856,
          "velocity": 0.7874015748031497,
          "duration": 0.08333324999999547
        },
        {
          "name": "D3",
          "midi": 50,
          "time": 109.66655699999856,
          "velocity": 0.7874015748031497,
          "duration": 0.08333324999999547
        },
        {
          "name": "G4",
          "midi": 67,
          "time": 109.83322349999855,
          "velocity": 0.7874015748031497,
          "duration": 0.08333324999999547
        },
        {
          "name": "A#3",
          "midi": 58,
          "time": 109.83322349999855,
          "velocity": 0.7874015748031497,
          "duration": 0.08333324999999547
        },
        {
          "name": "D3",
          "midi": 50,
          "time": 109.83322349999855,
          "velocity": 0.7874015748031497,
          "duration": 0.08333324999999547
        },
        {
          "name": "G4",
          "midi": 67,
          "time": 109.99988999999854,
          "velocity": 0.7874015748031497,
          "duration": 0.08333324999999547
        },
        {
          "name": "A#3",
          "midi": 58,
          "time": 109.99988999999854,
          "velocity": 0.7874015748031497,
          "duration": 0.08333324999999547
        },
        {
          "name": "D3",
          "midi": 50,
          "time": 109.99988999999854,
          "velocity": 0.7874015748031497,
          "duration": 0.08333324999999547
        },
        {
          "name": "A#3",
          "midi": 58,
          "time": 110.16655649999853,
          "velocity": 0.7874015748031497,
          "duration": 0.08333324999999547
        },
        {
          "name": "D3",
          "midi": 50,
          "time": 110.16655649999853,
          "velocity": 0.7874015748031497,
          "duration": 0.08333324999999547
        },
        {
          "name": "D3",
          "midi": 50,
          "time": 110.33322299999853,
          "velocity": 0.7874015748031497,
          "duration": 0.08333324999999547
        },
        {
          "name": "A#3",
          "midi": 58,
          "time": 110.33322299999853,
          "velocity": 0.7874015748031497,
          "duration": 0.08333324999999547
        },
        {
          "name": "G4",
          "midi": 67,
          "time": 110.33322299999853,
          "velocity": 0.7874015748031497,
          "duration": 0.08333324999999547
        },
        {
          "name": "D3",
          "midi": 50,
          "time": 110.49988949999852,
          "velocity": 0.7874015748031497,
          "duration": 0.08333324999999547
        },
        {
          "name": "A#3",
          "midi": 58,
          "time": 110.49988949999852,
          "velocity": 0.7874015748031497,
          "duration": 0.08333324999999547
        },
        {
          "name": "G4",
          "midi": 67,
          "time": 110.49988949999852,
          "velocity": 0.7874015748031497,
          "duration": 0.08333324999999547
        },
        {
          "name": "D#3",
          "midi": 51,
          "time": 110.66655599999851,
          "velocity": 0.7874015748031497,
          "duration": 1.3333319999999276
        },
        {
          "name": "A#5",
          "midi": 82,
          "time": 110.66655599999851,
          "velocity": 0.7874015748031497,
          "duration": 1.3333319999999276
        },
        {
          "name": "D#5",
          "midi": 75,
          "time": 110.66655599999851,
          "velocity": 0.7874015748031497,
          "duration": 0.08333324999999547
        },
        {
          "name": "G4",
          "midi": 67,
          "time": 110.66655599999851,
          "velocity": 0.7874015748031497,
          "duration": 0.08333324999999547
        },
        {
          "name": "A#3",
          "midi": 58,
          "time": 110.66655599999851,
          "velocity": 0.7874015748031497,
          "duration": 0.08333324999999547
        },
        {
          "name": "D#5",
          "midi": 75,
          "time": 110.8332224999985,
          "velocity": 0.7874015748031497,
          "duration": 0.08333324999999547
        },
        {
          "name": "G4",
          "midi": 67,
          "time": 110.8332224999985,
          "velocity": 0.7874015748031497,
          "duration": 0.08333324999999547
        },
        {
          "name": "A#3",
          "midi": 58,
          "time": 110.8332224999985,
          "velocity": 0.7874015748031497,
          "duration": 0.08333324999999547
        },
        {
          "name": "D#5",
          "midi": 75,
          "time": 110.99988899999849,
          "velocity": 0.7874015748031497,
          "duration": 0.08333324999999547
        },
        {
          "name": "A#3",
          "midi": 58,
          "time": 110.99988899999849,
          "velocity": 0.7874015748031497,
          "duration": 0.08333324999999547
        },
        {
          "name": "D#5",
          "midi": 75,
          "time": 111.16655549999848,
          "velocity": 0.7874015748031497,
          "duration": 0.08333324999999547
        },
        {
          "name": "G4",
          "midi": 67,
          "time": 111.16655549999848,
          "velocity": 0.7874015748031497,
          "duration": 0.08333324999999547
        },
        {
          "name": "A#3",
          "midi": 58,
          "time": 111.16655549999848,
          "velocity": 0.7874015748031497,
          "duration": 0.08333324999999547
        },
        {
          "name": "D#5",
          "midi": 75,
          "time": 111.33322199999847,
          "velocity": 0.7874015748031497,
          "duration": 0.08333324999999547
        },
        {
          "name": "G4",
          "midi": 67,
          "time": 111.33322199999847,
          "velocity": 0.7874015748031497,
          "duration": 0.08333324999999547
        },
        {
          "name": "A#3",
          "midi": 58,
          "time": 111.33322199999847,
          "velocity": 0.7874015748031497,
          "duration": 0.08333324999999547
        },
        {
          "name": "G4",
          "midi": 67,
          "time": 111.49988849999846,
          "velocity": 0.7874015748031497,
          "duration": 0.08333324999999547
        },
        {
          "name": "A#3",
          "midi": 58,
          "time": 111.49988849999846,
          "velocity": 0.7874015748031497,
          "duration": 0.08333324999999547
        },
        {
          "name": "A#3",
          "midi": 58,
          "time": 111.66655499999845,
          "velocity": 0.7874015748031497,
          "duration": 0.08333324999999547
        },
        {
          "name": "G4",
          "midi": 67,
          "time": 111.66655499999845,
          "velocity": 0.7874015748031497,
          "duration": 0.08333324999999547
        },
        {
          "name": "D#5",
          "midi": 75,
          "time": 111.66655499999845,
          "velocity": 0.7874015748031497,
          "duration": 0.08333324999999547
        },
        {
          "name": "A#3",
          "midi": 58,
          "time": 111.83322149999844,
          "velocity": 0.7874015748031497,
          "duration": 0.08333324999999547
        },
        {
          "name": "G4",
          "midi": 67,
          "time": 111.83322149999844,
          "velocity": 0.7874015748031497,
          "duration": 0.08333324999999547
        },
        {
          "name": "D#5",
          "midi": 75,
          "time": 111.83322149999844,
          "velocity": 0.7874015748031497,
          "duration": 0.08333324999999547
        },
        {
          "name": "A#2",
          "midi": 46,
          "time": 111.99988799999844,
          "velocity": 0.7874015748031497,
          "duration": 1.3333319999999276
        },
        {
          "name": "D6",
          "midi": 86,
          "time": 111.99988799999844,
          "velocity": 0.7874015748031497,
          "duration": 1.3333319999999276
        },
        {
          "name": "A#4",
          "midi": 70,
          "time": 111.99988799999844,
          "velocity": 0.7874015748031497,
          "duration": 0.08333324999999547
        },
        {
          "name": "D4",
          "midi": 62,
          "time": 111.99988799999844,
          "velocity": 0.7874015748031497,
          "duration": 0.08333324999999547
        },
        {
          "name": "F3",
          "midi": 53,
          "time": 111.99988799999844,
          "velocity": 0.7874015748031497,
          "duration": 0.08333324999999547
        },
        {
          "name": "A#4",
          "midi": 70,
          "time": 112.16655449999843,
          "velocity": 0.7874015748031497,
          "duration": 0.08333324999999547
        },
        {
          "name": "D4",
          "midi": 62,
          "time": 112.16655449999843,
          "velocity": 0.7874015748031497,
          "duration": 0.08333324999999547
        },
        {
          "name": "F3",
          "midi": 53,
          "time": 112.16655449999843,
          "velocity": 0.7874015748031497,
          "duration": 0.08333324999999547
        },
        {
          "name": "A#4",
          "midi": 70,
          "time": 112.33322099999842,
          "velocity": 0.7874015748031497,
          "duration": 0.08333324999999547
        },
        {
          "name": "F3",
          "midi": 53,
          "time": 112.33322099999842,
          "velocity": 0.7874015748031497,
          "duration": 0.08333324999999547
        },
        {
          "name": "A#4",
          "midi": 70,
          "time": 112.49988749999841,
          "velocity": 0.7874015748031497,
          "duration": 0.08333324999999547
        },
        {
          "name": "D4",
          "midi": 62,
          "time": 112.49988749999841,
          "velocity": 0.7874015748031497,
          "duration": 0.08333324999999547
        },
        {
          "name": "F3",
          "midi": 53,
          "time": 112.49988749999841,
          "velocity": 0.7874015748031497,
          "duration": 0.08333324999999547
        },
        {
          "name": "A#4",
          "midi": 70,
          "time": 112.6665539999984,
          "velocity": 0.7874015748031497,
          "duration": 0.08333324999999547
        },
        {
          "name": "D4",
          "midi": 62,
          "time": 112.6665539999984,
          "velocity": 0.7874015748031497,
          "duration": 0.08333324999999547
        },
        {
          "name": "F3",
          "midi": 53,
          "time": 112.6665539999984,
          "velocity": 0.7874015748031497,
          "duration": 0.08333324999999547
        },
        {
          "name": "D4",
          "midi": 62,
          "time": 112.83322049999839,
          "velocity": 0.7874015748031497,
          "duration": 0.08333324999999547
        },
        {
          "name": "F3",
          "midi": 53,
          "time": 112.83322049999839,
          "velocity": 0.7874015748031497,
          "duration": 0.08333324999999547
        },
        {
          "name": "F3",
          "midi": 53,
          "time": 112.99988699999838,
          "velocity": 0.7874015748031497,
          "duration": 0.08333324999999547
        },
        {
          "name": "D4",
          "midi": 62,
          "time": 112.99988699999838,
          "velocity": 0.7874015748031497,
          "duration": 0.08333324999999547
        },
        {
          "name": "A#4",
          "midi": 70,
          "time": 112.99988699999838,
          "velocity": 0.7874015748031497,
          "duration": 0.08333324999999547
        },
        {
          "name": "F3",
          "midi": 53,
          "time": 113.16655349999837,
          "velocity": 0.7874015748031497,
          "duration": 0.08333324999999547
        },
        {
          "name": "D4",
          "midi": 62,
          "time": 113.16655349999837,
          "velocity": 0.7874015748031497,
          "duration": 0.08333324999999547
        },
        {
          "name": "A#4",
          "midi": 70,
          "time": 113.16655349999837,
          "velocity": 0.7874015748031497,
          "duration": 0.08333324999999547
        },
        {
          "name": "C3",
          "midi": 48,
          "time": 113.33321999999836,
          "velocity": 0.7874015748031497,
          "duration": 1.3333319999999276
        },
        {
          "name": "C6",
          "midi": 84,
          "time": 113.33321999999836,
          "velocity": 0.7874015748031497,
          "duration": 1.3333319999999276
        },
        {
          "name": "C5",
          "midi": 72,
          "time": 113.33321999999836,
          "velocity": 0.7874015748031497,
          "duration": 0.08333324999999547
        },
        {
          "name": "E4",
          "midi": 64,
          "time": 113.33321999999836,
          "velocity": 0.7874015748031497,
          "duration": 0.08333324999999547
        },
        {
          "name": "G3",
          "midi": 55,
          "time": 113.33321999999836,
          "velocity": 0.7874015748031497,
          "duration": 0.08333324999999547
        },
        {
          "name": "C5",
          "midi": 72,
          "time": 113.49988649999835,
          "velocity": 0.7874015748031497,
          "duration": 0.08333324999999547
        },
        {
          "name": "E4",
          "midi": 64,
          "time": 113.49988649999835,
          "velocity": 0.7874015748031497,
          "duration": 0.08333324999999547
        },
        {
          "name": "G3",
          "midi": 55,
          "time": 113.49988649999835,
          "velocity": 0.7874015748031497,
          "duration": 0.08333324999999547
        },
        {
          "name": "C5",
          "midi": 72,
          "time": 113.66655299999834,
          "velocity": 0.7874015748031497,
          "duration": 0.08333324999999547
        },
        {
          "name": "G3",
          "midi": 55,
          "time": 113.66655299999834,
          "velocity": 0.7874015748031497,
          "duration": 0.08333324999999547
        },
        {
          "name": "C5",
          "midi": 72,
          "time": 113.83321949999834,
          "velocity": 0.7874015748031497,
          "duration": 0.08333324999999547
        },
        {
          "name": "E4",
          "midi": 64,
          "time": 113.83321949999834,
          "velocity": 0.7874015748031497,
          "duration": 0.08333324999999547
        },
        {
          "name": "G3",
          "midi": 55,
          "time": 113.83321949999834,
          "velocity": 0.7874015748031497,
          "duration": 0.08333324999999547
        },
        {
          "name": "C5",
          "midi": 72,
          "time": 113.99988599999833,
          "velocity": 0.7874015748031497,
          "duration": 0.08333324999999547
        },
        {
          "name": "E4",
          "midi": 64,
          "time": 113.99988599999833,
          "velocity": 0.7874015748031497,
          "duration": 0.08333324999999547
        },
        {
          "name": "G3",
          "midi": 55,
          "time": 113.99988599999833,
          "velocity": 0.7874015748031497,
          "duration": 0.08333324999999547
        },
        {
          "name": "E4",
          "midi": 64,
          "time": 114.16655249999832,
          "velocity": 0.7874015748031497,
          "duration": 0.08333324999999547
        },
        {
          "name": "G3",
          "midi": 55,
          "time": 114.16655249999832,
          "velocity": 0.7874015748031497,
          "duration": 0.08333324999999547
        },
        {
          "name": "G3",
          "midi": 55,
          "time": 114.33321899999831,
          "velocity": 0.7874015748031497,
          "duration": 0.08333324999999547
        },
        {
          "name": "E4",
          "midi": 64,
          "time": 114.33321899999831,
          "velocity": 0.7874015748031497,
          "duration": 0.08333324999999547
        },
        {
          "name": "C5",
          "midi": 72,
          "time": 114.33321899999831,
          "velocity": 0.7874015748031497,
          "duration": 0.08333324999999547
        },
        {
          "name": "G3",
          "midi": 55,
          "time": 114.4998854999983,
          "velocity": 0.7874015748031497,
          "duration": 0.08333324999999547
        },
        {
          "name": "E4",
          "midi": 64,
          "time": 114.4998854999983,
          "velocity": 0.7874015748031497,
          "duration": 0.08333324999999547
        },
        {
          "name": "C5",
          "midi": 72,
          "time": 114.4998854999983,
          "velocity": 0.7874015748031497,
          "duration": 0.08333324999999547
        },
        {
          "name": "F3",
          "midi": 53,
          "time": 114.66655199999829,
          "velocity": 0.7874015748031497,
          "duration": 0.16666649999999095
        },
        {
          "name": "C6",
          "midi": 84,
          "time": 114.66655199999829,
          "velocity": 0.7874015748031497,
          "duration": 1.3333319999999276
        },
        {
          "name": "F3",
          "midi": 53,
          "time": 114.66655199999829,
          "velocity": 0.7874015748031497,
          "duration": 0.49999949999997284
        },
        {
          "name": "F5",
          "midi": 77,
          "time": 114.66655199999829,
          "velocity": 0.7874015748031497,
          "duration": 0.08333324999999547
        },
        {
          "name": "A4",
          "midi": 69,
          "time": 114.66655199999829,
          "velocity": 0.7874015748031497,
          "duration": 0.08333324999999547
        },
        {
          "name": "C4",
          "midi": 60,
          "time": 114.66655199999829,
          "velocity": 0.7874015748031497,
          "duration": 0.08333324999999547
        },
        {
          "name": "F5",
          "midi": 77,
          "time": 114.83321849999828,
          "velocity": 0.7874015748031497,
          "duration": 0.08333324999999547
        },
        {
          "name": "A4",
          "midi": 69,
          "time": 114.83321849999828,
          "velocity": 0.7874015748031497,
          "duration": 0.08333324999999547
        },
        {
          "name": "C4",
          "midi": 60,
          "time": 114.83321849999828,
          "velocity": 0.7874015748031497,
          "duration": 0.08333324999999547
        },
        {
          "name": "F3",
          "midi": 53,
          "time": 114.99988499999827,
          "velocity": 0.7874015748031497,
          "duration": 0.8333324999999547
        },
        {
          "name": "F5",
          "midi": 77,
          "time": 114.99988499999827,
          "velocity": 0.7874015748031497,
          "duration": 0.08333324999999547
        },
        {
          "name": "C4",
          "midi": 60,
          "time": 114.99988499999827,
          "velocity": 0.7874015748031497,
          "duration": 0.08333324999999547
        },
        {
          "name": "F5",
          "midi": 77,
          "time": 115.16655149999826,
          "velocity": 0.7874015748031497,
          "duration": 0.08333324999999547
        },
        {
          "name": "A4",
          "midi": 69,
          "time": 115.16655149999826,
          "velocity": 0.7874015748031497,
          "duration": 0.08333324999999547
        },
        {
          "name": "C4",
          "midi": 60,
          "time": 115.16655149999826,
          "velocity": 0.7874015748031497,
          "duration": 0.08333324999999547
        },
        {
          "name": "C4",
          "midi": 60,
          "time": 115.33321799999825,
          "velocity": 0.7874015748031497,
          "duration": 0.08333324999999547
        },
        {
          "name": "A4",
          "midi": 69,
          "time": 115.33321799999825,
          "velocity": 0.7874015748031497,
          "duration": 0.08333324999999547
        },
        {
          "name": "F5",
          "midi": 77,
          "time": 115.33321799999825,
          "velocity": 0.7874015748031497,
          "duration": 0.08333324999999547
        },
        {
          "name": "C4",
          "midi": 60,
          "time": 115.49988449999825,
          "velocity": 0.7874015748031497,
          "duration": 0.08333324999999547
        },
        {
          "name": "A4",
          "midi": 69,
          "time": 115.49988449999825,
          "velocity": 0.7874015748031497,
          "duration": 0.08333324999999547
        },
        {
          "name": "F3",
          "midi": 53,
          "time": 115.66655099999824,
          "velocity": 0.7874015748031497,
          "duration": 0.3333329999999819
        },
        {
          "name": "F5",
          "midi": 77,
          "time": 115.66655099999824,
          "velocity": 0.7874015748031497,
          "duration": 0.08333324999999547
        },
        {
          "name": "A4",
          "midi": 69,
          "time": 115.66655099999824,
          "velocity": 0.7874015748031497,
          "duration": 0.08333324999999547
        },
        {
          "name": "C4",
          "midi": 60,
          "time": 115.66655099999824,
          "velocity": 0.7874015748031497,
          "duration": 0.08333324999999547
        },
        {
          "name": "C4",
          "midi": 60,
          "time": 115.83321749999823,
          "velocity": 0.7874015748031497,
          "duration": 0.08333324999999547
        },
        {
          "name": "A4",
          "midi": 69,
          "time": 115.83321749999823,
          "velocity": 0.7874015748031497,
          "duration": 0.08333324999999547
        },
        {
          "name": "F5",
          "midi": 77,
          "time": 115.83321749999823,
          "velocity": 0.7874015748031497,
          "duration": 0.08333324999999547
        },
        {
          "name": "A#2",
          "midi": 46,
          "time": 115.99988399999822,
          "velocity": 0.7874015748031497,
          "duration": 1.3333319999999276
        },
        {
          "name": "D6",
          "midi": 86,
          "time": 115.99988399999822,
          "velocity": 0.7874015748031497,
          "duration": 1.3333319999999276
        },
        {
          "name": "A#4",
          "midi": 70,
          "time": 115.99988399999822,
          "velocity": 0.7874015748031497,
          "duration": 0.08333324999999547
        },
        {
          "name": "D4",
          "midi": 62,
          "time": 115.99988399999822,
          "velocity": 0.7874015748031497,
          "duration": 0.08333324999999547
        },
        {
          "name": "F3",
          "midi": 53,
          "time": 115.99988399999822,
          "velocity": 0.7874015748031497,
          "duration": 0.08333324999999547
        },
        {
          "name": "A#4",
          "midi": 70,
          "time": 116.16655049999821,
          "velocity": 0.7874015748031497,
          "duration": 0.08333324999999547
        },
        {
          "name": "D4",
          "midi": 62,
          "time": 116.16655049999821,
          "velocity": 0.7874015748031497,
          "duration": 0.08333324999999547
        },
        {
          "name": "F3",
          "midi": 53,
          "time": 116.16655049999821,
          "velocity": 0.7874015748031497,
          "duration": 0.08333324999999547
        },
        {
          "name": "A#4",
          "midi": 70,
          "time": 116.3332169999982,
          "velocity": 0.7874015748031497,
          "duration": 0.08333324999999547
        },
        {
          "name": "F3",
          "midi": 53,
          "time": 116.3332169999982,
          "velocity": 0.7874015748031497,
          "duration": 0.08333324999999547
        },
        {
          "name": "A#4",
          "midi": 70,
          "time": 116.49988349999819,
          "velocity": 0.7874015748031497,
          "duration": 0.08333324999999547
        },
        {
          "name": "D4",
          "midi": 62,
          "time": 116.49988349999819,
          "velocity": 0.7874015748031497,
          "duration": 0.08333324999999547
        },
        {
          "name": "F3",
          "midi": 53,
          "time": 116.49988349999819,
          "velocity": 0.7874015748031497,
          "duration": 0.08333324999999547
        },
        {
          "name": "F3",
          "midi": 53,
          "time": 116.66654999999818,
          "velocity": 0.7874015748031497,
          "duration": 0.08333324999999547
        },
        {
          "name": "D4",
          "midi": 62,
          "time": 116.66654999999818,
          "velocity": 0.7874015748031497,
          "duration": 0.08333324999999547
        },
        {
          "name": "A#4",
          "midi": 70,
          "time": 116.66654999999818,
          "velocity": 0.7874015748031497,
          "duration": 0.08333324999999547
        },
        {
          "name": "F3",
          "midi": 53,
          "time": 116.83321649999817,
          "velocity": 0.7874015748031497,
          "duration": 0.08333324999999547
        },
        {
          "name": "D4",
          "midi": 62,
          "time": 116.83321649999817,
          "velocity": 0.7874015748031497,
          "duration": 0.08333324999999547
        },
        {
          "name": "A#4",
          "midi": 70,
          "time": 116.99988299999816,
          "velocity": 0.7874015748031497,
          "duration": 0.08333324999999547
        },
        {
          "name": "D4",
          "midi": 62,
          "time": 116.99988299999816,
          "velocity": 0.7874015748031497,
          "duration": 0.08333324999999547
        },
        {
          "name": "F3",
          "midi": 53,
          "time": 116.99988299999816,
          "velocity": 0.7874015748031497,
          "duration": 0.08333324999999547
        },
        {
          "name": "F3",
          "midi": 53,
          "time": 117.16654949999815,
          "velocity": 0.7874015748031497,
          "duration": 0.08333324999999547
        },
        {
          "name": "D4",
          "midi": 62,
          "time": 117.16654949999815,
          "velocity": 0.7874015748031497,
          "duration": 0.08333324999999547
        },
        {
          "name": "A#4",
          "midi": 70,
          "time": 117.16654949999815,
          "velocity": 0.7874015748031497,
          "duration": 0.08333324999999547
        },
        {
          "name": "D#3",
          "midi": 51,
          "time": 117.33321599999815,
          "velocity": 0.7874015748031497,
          "duration": 1.3333319999999276
        },
        {
          "name": "A#5",
          "midi": 82,
          "time": 117.33321599999815,
          "velocity": 0.7874015748031497,
          "duration": 1.3333319999999276
        },
        {
          "name": "D#5",
          "midi": 75,
          "time": 117.33321599999815,
          "velocity": 0.7874015748031497,
          "duration": 0.08333324999999547
        },
        {
          "name": "G4",
          "midi": 67,
          "time": 117.33321599999815,
          "velocity": 0.7874015748031497,
          "duration": 0.08333324999999547
        },
        {
          "name": "A#3",
          "midi": 58,
          "time": 117.33321599999815,
          "velocity": 0.7874015748031497,
          "duration": 0.08333324999999547
        },
        {
          "name": "D#5",
          "midi": 75,
          "time": 117.49988249999814,
          "velocity": 0.7874015748031497,
          "duration": 0.08333324999999547
        },
        {
          "name": "G4",
          "midi": 67,
          "time": 117.49988249999814,
          "velocity": 0.7874015748031497,
          "duration": 0.08333324999999547
        },
        {
          "name": "A#3",
          "midi": 58,
          "time": 117.49988249999814,
          "velocity": 0.7874015748031497,
          "duration": 0.08333324999999547
        },
        {
          "name": "D#5",
          "midi": 75,
          "time": 117.66654899999813,
          "velocity": 0.7874015748031497,
          "duration": 0.08333324999999547
        },
        {
          "name": "A#3",
          "midi": 58,
          "time": 117.66654899999813,
          "velocity": 0.7874015748031497,
          "duration": 0.08333324999999547
        },
        {
          "name": "D#5",
          "midi": 75,
          "time": 117.83321549999812,
          "velocity": 0.7874015748031497,
          "duration": 0.08333324999999547
        },
        {
          "name": "G4",
          "midi": 67,
          "time": 117.83321549999812,
          "velocity": 0.7874015748031497,
          "duration": 0.08333324999999547
        },
        {
          "name": "A#3",
          "midi": 58,
          "time": 117.83321549999812,
          "velocity": 0.7874015748031497,
          "duration": 0.08333324999999547
        },
        {
          "name": "D#5",
          "midi": 75,
          "time": 117.99988199999811,
          "velocity": 0.7874015748031497,
          "duration": 0.08333324999999547
        },
        {
          "name": "G4",
          "midi": 67,
          "time": 117.99988199999811,
          "velocity": 0.7874015748031497,
          "duration": 0.08333324999999547
        },
        {
          "name": "A#3",
          "midi": 58,
          "time": 117.99988199999811,
          "velocity": 0.7874015748031497,
          "duration": 0.08333324999999547
        },
        {
          "name": "G4",
          "midi": 67,
          "time": 118.1665484999981,
          "velocity": 0.7874015748031497,
          "duration": 0.08333324999999547
        },
        {
          "name": "A#3",
          "midi": 58,
          "time": 118.1665484999981,
          "velocity": 0.7874015748031497,
          "duration": 0.08333324999999547
        },
        {
          "name": "A#3",
          "midi": 58,
          "time": 118.33321499999809,
          "velocity": 0.7874015748031497,
          "duration": 0.08333324999999547
        },
        {
          "name": "G4",
          "midi": 67,
          "time": 118.33321499999809,
          "velocity": 0.7874015748031497,
          "duration": 0.08333324999999547
        },
        {
          "name": "D#5",
          "midi": 75,
          "time": 118.33321499999809,
          "velocity": 0.7874015748031497,
          "duration": 0.08333324999999547
        },
        {
          "name": "A#3",
          "midi": 58,
          "time": 118.49988149999808,
          "velocity": 0.7874015748031497,
          "duration": 0.08333324999999547
        },
        {
          "name": "G4",
          "midi": 67,
          "time": 118.49988149999808,
          "velocity": 0.7874015748031497,
          "duration": 0.08333324999999547
        },
        {
          "name": "D#5",
          "midi": 75,
          "time": 118.49988149999808,
          "velocity": 0.7874015748031497,
          "duration": 0.08333324999999547
        },
        {
          "name": "F3",
          "midi": 53,
          "time": 118.66654799999807,
          "velocity": 0.7874015748031497,
          "duration": 0.6666659999999638
        },
        {
          "name": "C6",
          "midi": 84,
          "time": 118.66654799999807,
          "velocity": 0.7874015748031497,
          "duration": 1.3333319999999276
        },
        {
          "name": "F5",
          "midi": 77,
          "time": 118.66654799999807,
          "velocity": 0.7874015748031497,
          "duration": 0.08333324999999547
        },
        {
          "name": "A4",
          "midi": 69,
          "time": 118.66654799999807,
          "velocity": 0.7874015748031497,
          "duration": 0.08333324999999547
        },
        {
          "name": "C4",
          "midi": 60,
          "time": 118.66654799999807,
          "velocity": 0.7874015748031497,
          "duration": 0.08333324999999547
        },
        {
          "name": "F5",
          "midi": 77,
          "time": 118.83321449999806,
          "velocity": 0.7874015748031497,
          "duration": 0.08333324999999547
        },
        {
          "name": "A4",
          "midi": 69,
          "time": 118.83321449999806,
          "velocity": 0.7874015748031497,
          "duration": 0.08333324999999547
        },
        {
          "name": "C4",
          "midi": 60,
          "time": 118.83321449999806,
          "velocity": 0.7874015748031497,
          "duration": 0.08333324999999547
        },
        {
          "name": "C4",
          "midi": 60,
          "time": 118.99988099999806,
          "velocity": 0.7874015748031497,
          "duration": 0.08333324999999547
        },
        {
          "name": "F5",
          "midi": 77,
          "time": 118.99988099999806,
          "velocity": 0.7874015748031497,
          "duration": 0.08333324999999547
        },
        {
          "name": "C4",
          "midi": 60,
          "time": 119.16654749999805,
          "velocity": 0.7874015748031497,
          "duration": 0.08333324999999547
        },
        {
          "name": "A4",
          "midi": 69,
          "time": 119.16654749999805,
          "velocity": 0.7874015748031497,
          "duration": 0.08333324999999547
        },
        {
          "name": "F5",
          "midi": 77,
          "time": 119.16654749999805,
          "velocity": 0.7874015748031497,
          "duration": 0.08333324999999547
        },
        {
          "name": "F#3",
          "midi": 54,
          "time": 119.33321399999804,
          "velocity": 0.7874015748031497,
          "duration": 0.6666659999999638
        },
        {
          "name": "F#5",
          "midi": 78,
          "time": 119.33321399999804,
          "velocity": 0.7874015748031497,
          "duration": 0.08333324999999547
        },
        {
          "name": "A4",
          "midi": 69,
          "time": 119.33321399999804,
          "velocity": 0.7874015748031497,
          "duration": 0.08333324999999547
        },
        {
          "name": "C4",
          "midi": 60,
          "time": 119.33321399999804,
          "velocity": 0.7874015748031497,
          "duration": 0.08333324999999547
        },
        {
          "name": "A4",
          "midi": 69,
          "time": 119.49988049999803,
          "velocity": 0.7874015748031497,
          "duration": 0.08333324999999547
        },
        {
          "name": "C4",
          "midi": 60,
          "time": 119.49988049999803,
          "velocity": 0.7874015748031497,
          "duration": 0.08333324999999547
        },
        {
          "name": "C4",
          "midi": 60,
          "time": 119.66654699999802,
          "velocity": 0.7874015748031497,
          "duration": 0.08333324999999547
        },
        {
          "name": "A4",
          "midi": 69,
          "time": 119.66654699999802,
          "velocity": 0.7874015748031497,
          "duration": 0.08333324999999547
        },
        {
          "name": "F#5",
          "midi": 78,
          "time": 119.66654699999802,
          "velocity": 0.7874015748031497,
          "duration": 0.08333324999999547
        },
        {
          "name": "C4",
          "midi": 60,
          "time": 119.83321349999801,
          "velocity": 0.7874015748031497,
          "duration": 0.08333324999999547
        },
        {
          "name": "A4",
          "midi": 69,
          "time": 119.83321349999801,
          "velocity": 0.7874015748031497,
          "duration": 0.08333324999999547
        },
        {
          "name": "F#5",
          "midi": 78,
          "time": 119.83321349999801,
          "velocity": 0.7874015748031497,
          "duration": 0.08333324999999547
        },
        {
          "name": "G2",
          "midi": 43,
          "time": 119.999879999998,
          "velocity": 0.7874015748031497,
          "duration": 1.3333319999999276
        },
        {
          "name": "A#5",
          "midi": 82,
          "time": 119.999879999998,
          "velocity": 0.7874015748031497,
          "duration": 1.3333319999999276
        },
        {
          "name": "G4",
          "midi": 67,
          "time": 119.999879999998,
          "velocity": 0.7874015748031497,
          "duration": 0.08333324999999547
        },
        {
          "name": "A#3",
          "midi": 58,
          "time": 119.999879999998,
          "velocity": 0.7874015748031497,
          "duration": 0.08333324999999547
        },
        {
          "name": "D3",
          "midi": 50,
          "time": 119.999879999998,
          "velocity": 0.7874015748031497,
          "duration": 0.08333324999999547
        },
        {
          "name": "G4",
          "midi": 67,
          "time": 120.16654649999799,
          "velocity": 0.7874015748031497,
          "duration": 0.08333324999999547
        },
        {
          "name": "A#3",
          "midi": 58,
          "time": 120.16654649999799,
          "velocity": 0.7874015748031497,
          "duration": 0.08333324999999547
        },
        {
          "name": "D3",
          "midi": 50,
          "time": 120.16654649999799,
          "velocity": 0.7874015748031497,
          "duration": 0.08333324999999547
        },
        {
          "name": "G4",
          "midi": 67,
          "time": 120.33321299999798,
          "velocity": 0.7874015748031497,
          "duration": 0.08333324999999547
        },
        {
          "name": "D3",
          "midi": 50,
          "time": 120.33321299999798,
          "velocity": 0.7874015748031497,
          "duration": 0.08333324999999547
        },
        {
          "name": "G4",
          "midi": 67,
          "time": 120.49987949999797,
          "velocity": 0.7874015748031497,
          "duration": 0.08333324999999547
        },
        {
          "name": "A#3",
          "midi": 58,
          "time": 120.49987949999797,
          "velocity": 0.7874015748031497,
          "duration": 0.08333324999999547
        },
        {
          "name": "D3",
          "midi": 50,
          "time": 120.49987949999797,
          "velocity": 0.7874015748031497,
          "duration": 0.08333324999999547
        },
        {
          "name": "G4",
          "midi": 67,
          "time": 120.66654599999796,
          "velocity": 0.7874015748031497,
          "duration": 0.08333324999999547
        },
        {
          "name": "A#3",
          "midi": 58,
          "time": 120.66654599999796,
          "velocity": 0.7874015748031497,
          "duration": 0.08333324999999547
        },
        {
          "name": "D3",
          "midi": 50,
          "time": 120.66654599999796,
          "velocity": 0.7874015748031497,
          "duration": 0.08333324999999547
        },
        {
          "name": "A#3",
          "midi": 58,
          "time": 120.83321249999796,
          "velocity": 0.7874015748031497,
          "duration": 0.08333324999999547
        },
        {
          "name": "D3",
          "midi": 50,
          "time": 120.83321249999796,
          "velocity": 0.7874015748031497,
          "duration": 0.08333324999999547
        },
        {
          "name": "D3",
          "midi": 50,
          "time": 120.99987899999795,
          "velocity": 0.7874015748031497,
          "duration": 0.08333324999999547
        },
        {
          "name": "A#3",
          "midi": 58,
          "time": 120.99987899999795,
          "velocity": 0.7874015748031497,
          "duration": 0.08333324999999547
        },
        {
          "name": "G4",
          "midi": 67,
          "time": 120.99987899999795,
          "velocity": 0.7874015748031497,
          "duration": 0.08333324999999547
        },
        {
          "name": "D3",
          "midi": 50,
          "time": 121.16654549999794,
          "velocity": 0.7874015748031497,
          "duration": 0.08333324999999547
        },
        {
          "name": "A#3",
          "midi": 58,
          "time": 121.16654549999794,
          "velocity": 0.7874015748031497,
          "duration": 0.08333324999999547
        },
        {
          "name": "G4",
          "midi": 67,
          "time": 121.16654549999794,
          "velocity": 0.7874015748031497,
          "duration": 0.08333324999999547
        },
        {
          "name": "D#3",
          "midi": 51,
          "time": 121.33321199999793,
          "velocity": 0.7874015748031497,
          "duration": 1.3333319999999276
        },
        {
          "name": "A#5",
          "midi": 82,
          "time": 121.33321199999793,
          "velocity": 0.7874015748031497,
          "duration": 1.3333319999999276
        },
        {
          "name": "D#5",
          "midi": 75,
          "time": 121.33321199999793,
          "velocity": 0.7874015748031497,
          "duration": 0.08333324999999547
        },
        {
          "name": "G4",
          "midi": 67,
          "time": 121.33321199999793,
          "velocity": 0.7874015748031497,
          "duration": 0.08333324999999547
        },
        {
          "name": "A#3",
          "midi": 58,
          "time": 121.33321199999793,
          "velocity": 0.7874015748031497,
          "duration": 0.08333324999999547
        },
        {
          "name": "D#5",
          "midi": 75,
          "time": 121.49987849999792,
          "velocity": 0.7874015748031497,
          "duration": 0.08333324999999547
        },
        {
          "name": "G4",
          "midi": 67,
          "time": 121.49987849999792,
          "velocity": 0.7874015748031497,
          "duration": 0.08333324999999547
        },
        {
          "name": "A#3",
          "midi": 58,
          "time": 121.49987849999792,
          "velocity": 0.7874015748031497,
          "duration": 0.08333324999999547
        },
        {
          "name": "D#5",
          "midi": 75,
          "time": 121.66654499999791,
          "velocity": 0.7874015748031497,
          "duration": 0.08333324999999547
        },
        {
          "name": "A#3",
          "midi": 58,
          "time": 121.66654499999791,
          "velocity": 0.7874015748031497,
          "duration": 0.08333324999999547
        },
        {
          "name": "D#5",
          "midi": 75,
          "time": 121.8332114999979,
          "velocity": 0.7874015748031497,
          "duration": 0.08333324999999547
        },
        {
          "name": "G4",
          "midi": 67,
          "time": 121.8332114999979,
          "velocity": 0.7874015748031497,
          "duration": 0.08333324999999547
        },
        {
          "name": "A#3",
          "midi": 58,
          "time": 121.8332114999979,
          "velocity": 0.7874015748031497,
          "duration": 0.08333324999999547
        },
        {
          "name": "D#5",
          "midi": 75,
          "time": 121.99987799999789,
          "velocity": 0.7874015748031497,
          "duration": 0.08333324999999547
        },
        {
          "name": "G4",
          "midi": 67,
          "time": 121.99987799999789,
          "velocity": 0.7874015748031497,
          "duration": 0.08333324999999547
        },
        {
          "name": "A#3",
          "midi": 58,
          "time": 121.99987799999789,
          "velocity": 0.7874015748031497,
          "duration": 0.08333324999999547
        },
        {
          "name": "G4",
          "midi": 67,
          "time": 122.16654449999788,
          "velocity": 0.7874015748031497,
          "duration": 0.08333324999999547
        },
        {
          "name": "A#3",
          "midi": 58,
          "time": 122.16654449999788,
          "velocity": 0.7874015748031497,
          "duration": 0.08333324999999547
        },
        {
          "name": "A#3",
          "midi": 58,
          "time": 122.33321099999787,
          "velocity": 0.7874015748031497,
          "duration": 0.08333324999999547
        },
        {
          "name": "G4",
          "midi": 67,
          "time": 122.33321099999787,
          "velocity": 0.7874015748031497,
          "duration": 0.08333324999999547
        },
        {
          "name": "D#5",
          "midi": 75,
          "time": 122.33321099999787,
          "velocity": 0.7874015748031497,
          "duration": 0.08333324999999547
        },
        {
          "name": "A#3",
          "midi": 58,
          "time": 122.49987749999787,
          "velocity": 0.7874015748031497,
          "duration": 0.08333324999999547
        },
        {
          "name": "G4",
          "midi": 67,
          "time": 122.49987749999787,
          "velocity": 0.7874015748031497,
          "duration": 0.08333324999999547
        },
        {
          "name": "D#5",
          "midi": 75,
          "time": 122.49987749999787,
          "velocity": 0.7874015748031497,
          "duration": 0.08333324999999547
        },
        {
          "name": "E3",
          "midi": 52,
          "time": 122.66654399999786,
          "velocity": 0.7874015748031497,
          "duration": 1.3333319999999276
        },
        {
          "name": "A#3",
          "midi": 58,
          "time": 122.66654399999786,
          "velocity": 0.7874015748031497,
          "duration": 0.08333324999999547
        },
        {
          "name": "G4",
          "midi": 67,
          "time": 122.66654399999786,
          "velocity": 0.7874015748031497,
          "duration": 0.08333324999999547
        },
        {
          "name": "E5",
          "midi": 76,
          "time": 122.66654399999786,
          "velocity": 0.7874015748031497,
          "duration": 0.08333324999999547
        },
        {
          "name": "A#5",
          "midi": 82,
          "time": 122.66654399999786,
          "velocity": 0.7874015748031497,
          "duration": 1.3333319999999276
        },
        {
          "name": "A#3",
          "midi": 58,
          "time": 122.83321049999785,
          "velocity": 0.7874015748031497,
          "duration": 0.08333324999999547
        },
        {
          "name": "G4",
          "midi": 67,
          "time": 122.83321049999785,
          "velocity": 0.7874015748031497,
          "duration": 0.08333324999999547
        },
        {
          "name": "E5",
          "midi": 76,
          "time": 122.83321049999785,
          "velocity": 0.7874015748031497,
          "duration": 0.08333324999999547
        },
        {
          "name": "A#3",
          "midi": 58,
          "time": 122.99987699999784,
          "velocity": 0.7874015748031497,
          "duration": 0.08333324999999547
        },
        {
          "name": "E5",
          "midi": 76,
          "time": 122.99987699999784,
          "velocity": 0.7874015748031497,
          "duration": 0.08333324999999547
        },
        {
          "name": "A#3",
          "midi": 58,
          "time": 123.16654349999783,
          "velocity": 0.7874015748031497,
          "duration": 0.08333324999999547
        },
        {
          "name": "G4",
          "midi": 67,
          "time": 123.16654349999783,
          "velocity": 0.7874015748031497,
          "duration": 0.08333324999999547
        },
        {
          "name": "E5",
          "midi": 76,
          "time": 123.16654349999783,
          "velocity": 0.7874015748031497,
          "duration": 0.08333324999999547
        },
        {
          "name": "A#3",
          "midi": 58,
          "time": 123.33320999999782,
          "velocity": 0.7874015748031497,
          "duration": 0.08333324999999547
        },
        {
          "name": "G4",
          "midi": 67,
          "time": 123.33320999999782,
          "velocity": 0.7874015748031497,
          "duration": 0.08333324999999547
        },
        {
          "name": "E5",
          "midi": 76,
          "time": 123.33320999999782,
          "velocity": 0.7874015748031497,
          "duration": 0.08333324999999547
        },
        {
          "name": "A#3",
          "midi": 58,
          "time": 123.49987649999781,
          "velocity": 0.7874015748031497,
          "duration": 0.08333324999999547
        },
        {
          "name": "G4",
          "midi": 67,
          "time": 123.49987649999781,
          "velocity": 0.7874015748031497,
          "duration": 0.08333324999999547
        },
        {
          "name": "E5",
          "midi": 76,
          "time": 123.6665429999978,
          "velocity": 0.7874015748031497,
          "duration": 0.08333324999999547
        },
        {
          "name": "G4",
          "midi": 67,
          "time": 123.6665429999978,
          "velocity": 0.7874015748031497,
          "duration": 0.08333324999999547
        },
        {
          "name": "A#3",
          "midi": 58,
          "time": 123.6665429999978,
          "velocity": 0.7874015748031497,
          "duration": 0.08333324999999547
        },
        {
          "name": "E5",
          "midi": 76,
          "time": 123.83320949999779,
          "velocity": 0.7874015748031497,
          "duration": 0.08333324999999547
        },
        {
          "name": "G4",
          "midi": 67,
          "time": 123.83320949999779,
          "velocity": 0.7874015748031497,
          "duration": 0.08333324999999547
        },
        {
          "name": "A#3",
          "midi": 58,
          "time": 123.83320949999779,
          "velocity": 0.7874015748031497,
          "duration": 0.08333324999999547
        },
        {
          "name": "F3",
          "midi": 53,
          "time": 123.99987599999778,
          "velocity": 0.7874015748031497,
          "duration": 1.3333319999999276
        },
        {
          "name": "C4",
          "midi": 60,
          "time": 123.99987599999778,
          "velocity": 0.7874015748031497,
          "duration": 0.08333324999999547
        },
        {
          "name": "A4",
          "midi": 69,
          "time": 123.99987599999778,
          "velocity": 0.7874015748031497,
          "duration": 0.08333324999999547
        },
        {
          "name": "F5",
          "midi": 77,
          "time": 123.99987599999778,
          "velocity": 0.7874015748031497,
          "duration": 0.08333324999999547
        },
        {
          "name": "C6",
          "midi": 84,
          "time": 123.99987599999778,
          "velocity": 0.7874015748031497,
          "duration": 1.3333319999999276
        },
        {
          "name": "C4",
          "midi": 60,
          "time": 124.16654249999777,
          "velocity": 0.7874015748031497,
          "duration": 0.08333324999999547
        },
        {
          "name": "A4",
          "midi": 69,
          "time": 124.16654249999777,
          "velocity": 0.7874015748031497,
          "duration": 0.08333324999999547
        },
        {
          "name": "F5",
          "midi": 77,
          "time": 124.16654249999777,
          "velocity": 0.7874015748031497,
          "duration": 0.08333324999999547
        },
        {
          "name": "C4",
          "midi": 60,
          "time": 124.33320899999777,
          "velocity": 0.7874015748031497,
          "duration": 0.08333324999999547
        },
        {
          "name": "F5",
          "midi": 77,
          "time": 124.33320899999777,
          "velocity": 0.7874015748031497,
          "duration": 0.08333324999999547
        },
        {
          "name": "C4",
          "midi": 60,
          "time": 124.49987549999776,
          "velocity": 0.7874015748031497,
          "duration": 0.08333324999999547
        },
        {
          "name": "A4",
          "midi": 69,
          "time": 124.49987549999776,
          "velocity": 0.7874015748031497,
          "duration": 0.08333324999999547
        },
        {
          "name": "F5",
          "midi": 77,
          "time": 124.49987549999776,
          "velocity": 0.7874015748031497,
          "duration": 0.08333324999999547
        },
        {
          "name": "C4",
          "midi": 60,
          "time": 124.66654199999775,
          "velocity": 0.7874015748031497,
          "duration": 0.08333324999999547
        },
        {
          "name": "A4",
          "midi": 69,
          "time": 124.66654199999775,
          "velocity": 0.7874015748031497,
          "duration": 0.08333324999999547
        },
        {
          "name": "F5",
          "midi": 77,
          "time": 124.66654199999775,
          "velocity": 0.7874015748031497,
          "duration": 0.08333324999999547
        },
        {
          "name": "C4",
          "midi": 60,
          "time": 124.83320849999774,
          "velocity": 0.7874015748031497,
          "duration": 0.08333324999999547
        },
        {
          "name": "A4",
          "midi": 69,
          "time": 124.83320849999774,
          "velocity": 0.7874015748031497,
          "duration": 0.08333324999999547
        },
        {
          "name": "F5",
          "midi": 77,
          "time": 124.99987499999773,
          "velocity": 0.7874015748031497,
          "duration": 0.08333324999999547
        },
        {
          "name": "A4",
          "midi": 69,
          "time": 124.99987499999773,
          "velocity": 0.7874015748031497,
          "duration": 0.08333324999999547
        },
        {
          "name": "C4",
          "midi": 60,
          "time": 124.99987499999773,
          "velocity": 0.7874015748031497,
          "duration": 0.08333324999999547
        },
        {
          "name": "F5",
          "midi": 77,
          "time": 125.16654149999772,
          "velocity": 0.7874015748031497,
          "duration": 0.08333324999999547
        },
        {
          "name": "A4",
          "midi": 69,
          "time": 125.16654149999772,
          "velocity": 0.7874015748031497,
          "duration": 0.08333324999999547
        },
        {
          "name": "C4",
          "midi": 60,
          "time": 125.16654149999772,
          "velocity": 0.7874015748031497,
          "duration": 0.08333324999999547
        },
        {
          "name": "F3",
          "midi": 53,
          "time": 125.33320799999771,
          "velocity": 0.7874015748031497,
          "duration": 1.3333319999999276
        },
        {
          "name": "C4",
          "midi": 60,
          "time": 125.33320799999771,
          "velocity": 0.7874015748031497,
          "duration": 0.08333324999999547
        },
        {
          "name": "A4",
          "midi": 69,
          "time": 125.33320799999771,
          "velocity": 0.7874015748031497,
          "duration": 0.08333324999999547
        },
        {
          "name": "F5",
          "midi": 77,
          "time": 125.33320799999771,
          "velocity": 0.7874015748031497,
          "duration": 0.08333324999999547
        },
        {
          "name": "C6",
          "midi": 84,
          "time": 125.33320799999771,
          "velocity": 0.7874015748031497,
          "duration": 1.3333319999999276
        },
        {
          "name": "C4",
          "midi": 60,
          "time": 125.4998744999977,
          "velocity": 0.7874015748031497,
          "duration": 0.08333324999999547
        },
        {
          "name": "A4",
          "midi": 69,
          "time": 125.4998744999977,
          "velocity": 0.7874015748031497,
          "duration": 0.08333324999999547
        },
        {
          "name": "F5",
          "midi": 77,
          "time": 125.4998744999977,
          "velocity": 0.7874015748031497,
          "duration": 0.08333324999999547
        },
        {
          "name": "C4",
          "midi": 60,
          "time": 125.6665409999977,
          "velocity": 0.7874015748031497,
          "duration": 0.08333324999999547
        },
        {
          "name": "F5",
          "midi": 77,
          "time": 125.6665409999977,
          "velocity": 0.7874015748031497,
          "duration": 0.08333324999999547
        },
        {
          "name": "C4",
          "midi": 60,
          "time": 125.83320749999768,
          "velocity": 0.7874015748031497,
          "duration": 0.08333324999999547
        },
        {
          "name": "A4",
          "midi": 69,
          "time": 125.83320749999768,
          "velocity": 0.7874015748031497,
          "duration": 0.08333324999999547
        },
        {
          "name": "F5",
          "midi": 77,
          "time": 125.83320749999768,
          "velocity": 0.7874015748031497,
          "duration": 0.08333324999999547
        },
        {
          "name": "C4",
          "midi": 60,
          "time": 125.99987399999767,
          "velocity": 0.7874015748031497,
          "duration": 0.08333324999999547
        },
        {
          "name": "A4",
          "midi": 69,
          "time": 125.99987399999767,
          "velocity": 0.7874015748031497,
          "duration": 0.08333324999999547
        },
        {
          "name": "F5",
          "midi": 77,
          "time": 125.99987399999767,
          "velocity": 0.7874015748031497,
          "duration": 0.08333324999999547
        },
        {
          "name": "C4",
          "midi": 60,
          "time": 126.16654049999767,
          "velocity": 0.7874015748031497,
          "duration": 0.08333324999999547
        },
        {
          "name": "A4",
          "midi": 69,
          "time": 126.16654049999767,
          "velocity": 0.7874015748031497,
          "duration": 0.08333324999999547
        },
        {
          "name": "C4",
          "midi": 60,
          "time": 126.33320699999766,
          "velocity": 0.7874015748031497,
          "duration": 0.08333324999999547
        },
        {
          "name": "A4",
          "midi": 69,
          "time": 126.33320699999766,
          "velocity": 0.7874015748031497,
          "duration": 0.08333324999999547
        },
        {
          "name": "F5",
          "midi": 77,
          "time": 126.33320699999766,
          "velocity": 0.7874015748031497,
          "duration": 0.08333324999999547
        },
        {
          "name": "C4",
          "midi": 60,
          "time": 126.49987349999765,
          "velocity": 0.7874015748031497,
          "duration": 0.08333324999999547
        },
        {
          "name": "A4",
          "midi": 69,
          "time": 126.49987349999765,
          "velocity": 0.7874015748031497,
          "duration": 0.08333324999999547
        },
        {
          "name": "F5",
          "midi": 77,
          "time": 126.49987349999765,
          "velocity": 0.7874015748031497,
          "duration": 0.08333324999999547
        },
        {
          "name": "A#3",
          "midi": 58,
          "time": 126.66653999999764,
          "velocity": 0.7874015748031497,
          "duration": 0.08333324999999547
        },
        {
          "name": "F4",
          "midi": 65,
          "time": 126.66653999999764,
          "velocity": 0.7874015748031497,
          "duration": 0.08333324999999547
        },
        {
          "name": "D5",
          "midi": 74,
          "time": 126.66653999999764,
          "velocity": 0.7874015748031497,
          "duration": 0.08333324999999547
        },
        {
          "name": "A#2",
          "midi": 46,
          "time": 126.66653999999764,
          "velocity": 0.7874015748031497,
          "duration": 0.08333324999999547
        },
        {
          "name": "A#2",
          "midi": 46,
          "time": 126.66653999999764,
          "velocity": 0.7874015748031497,
          "duration": 0.16666649999999095
        },
        {
          "name": "A#5",
          "midi": 82,
          "time": 126.66653999999764,
          "velocity": 0.7874015748031497,
          "duration": 0.16666649999999095
        },
        {
          "name": "A#3",
          "midi": 58,
          "time": 126.74987324999763,
          "velocity": 0.7874015748031497,
          "duration": 0.08333324999999547
        },
        {
          "name": "F4",
          "midi": 65,
          "time": 126.74987324999763,
          "velocity": 0.7874015748031497,
          "duration": 0.08333324999999547
        },
        {
          "name": "D5",
          "midi": 74,
          "time": 126.74987324999763,
          "velocity": 0.7874015748031497,
          "duration": 0.08333324999999547
        },
        {
          "name": "A#1",
          "midi": 34,
          "time": 126.74987324999763,
          "velocity": 0.7874015748031497,
          "duration": 0.08333324999999547
        },
        {
          "name": "A#3",
          "midi": 58,
          "time": 126.83320649999763,
          "velocity": 0.7874015748031497,
          "duration": 0.08333324999999547
        },
        {
          "name": "F4",
          "midi": 65,
          "time": 126.83320649999763,
          "velocity": 0.7874015748031497,
          "duration": 0.08333324999999547
        },
        {
          "name": "D5",
          "midi": 74,
          "time": 126.83320649999763,
          "velocity": 0.7874015748031497,
          "duration": 0.08333324999999547
        },
        {
          "name": "A#2",
          "midi": 46,
          "time": 126.83320649999763,
          "velocity": 0.7874015748031497,
          "duration": 0.08333324999999547
        },
        {
          "name": "A#2",
          "midi": 46,
          "time": 126.83320649999763,
          "velocity": 0.7874015748031497,
          "duration": 0.16666649999999095
        },
        {
          "name": "A#5",
          "midi": 82,
          "time": 126.83320649999763,
          "velocity": 0.7874015748031497,
          "duration": 0.16666649999999095
        },
        {
          "name": "A#3",
          "midi": 58,
          "time": 126.91653974999763,
          "velocity": 0.7874015748031497,
          "duration": 0.08333324999999547
        },
        {
          "name": "F4",
          "midi": 65,
          "time": 126.91653974999763,
          "velocity": 0.7874015748031497,
          "duration": 0.08333324999999547
        },
        {
          "name": "D5",
          "midi": 74,
          "time": 126.91653974999763,
          "velocity": 0.7874015748031497,
          "duration": 0.08333324999999547
        },
        {
          "name": "A#1",
          "midi": 34,
          "time": 126.91653974999763,
          "velocity": 0.7874015748031497,
          "duration": 0.08333324999999547
        },
        {
          "name": "A#3",
          "midi": 58,
          "time": 126.99987299999762,
          "velocity": 0.7874015748031497,
          "duration": 0.08333324999999547
        },
        {
          "name": "F4",
          "midi": 65,
          "time": 126.99987299999762,
          "velocity": 0.7874015748031497,
          "duration": 0.08333324999999547
        },
        {
          "name": "D5",
          "midi": 74,
          "time": 126.99987299999762,
          "velocity": 0.7874015748031497,
          "duration": 0.08333324999999547
        },
        {
          "name": "A#2",
          "midi": 46,
          "time": 126.99987299999762,
          "velocity": 0.7874015748031497,
          "duration": 0.08333324999999547
        },
        {
          "name": "A#3",
          "midi": 58,
          "time": 127.16653949999761,
          "velocity": 0.7874015748031497,
          "duration": 0.08333324999999547
        },
        {
          "name": "F4",
          "midi": 65,
          "time": 127.16653949999761,
          "velocity": 0.7874015748031497,
          "duration": 0.08333324999999547
        },
        {
          "name": "D5",
          "midi": 74,
          "time": 127.16653949999761,
          "velocity": 0.7874015748031497,
          "duration": 0.08333324999999547
        },
        {
          "name": "A#2",
          "midi": 46,
          "time": 127.16653949999761,
          "velocity": 0.7874015748031497,
          "duration": 0.08333324999999547
        },
        {
          "name": "A#5",
          "midi": 82,
          "time": 127.16653949999761,
          "velocity": 0.7874015748031497,
          "duration": 0.16666649999999095
        },
        {
          "name": "A#2",
          "midi": 46,
          "time": 127.16653949999761,
          "velocity": 0.7874015748031497,
          "duration": 0.16666649999999095
        },
        {
          "name": "A#3",
          "midi": 58,
          "time": 127.2498727499976,
          "velocity": 0.7874015748031497,
          "duration": 0.08333324999999547
        },
        {
          "name": "F4",
          "midi": 65,
          "time": 127.2498727499976,
          "velocity": 0.7874015748031497,
          "duration": 0.08333324999999547
        },
        {
          "name": "D5",
          "midi": 74,
          "time": 127.2498727499976,
          "velocity": 0.7874015748031497,
          "duration": 0.08333324999999547
        },
        {
          "name": "A#1",
          "midi": 34,
          "time": 127.2498727499976,
          "velocity": 0.7874015748031497,
          "duration": 0.08333324999999547
        },
        {
          "name": "A#3",
          "midi": 58,
          "time": 127.3332059999976,
          "velocity": 0.7874015748031497,
          "duration": 0.08333324999999547
        },
        {
          "name": "F4",
          "midi": 65,
          "time": 127.3332059999976,
          "velocity": 0.7874015748031497,
          "duration": 0.08333324999999547
        },
        {
          "name": "D5",
          "midi": 74,
          "time": 127.3332059999976,
          "velocity": 0.7874015748031497,
          "duration": 0.08333324999999547
        },
        {
          "name": "A#2",
          "midi": 46,
          "time": 127.3332059999976,
          "velocity": 0.7874015748031497,
          "duration": 0.08333324999999547
        },
        {
          "name": "A#2",
          "midi": 46,
          "time": 127.3332059999976,
          "velocity": 0.7874015748031497,
          "duration": 0.16666649999999095
        },
        {
          "name": "A#5",
          "midi": 82,
          "time": 127.3332059999976,
          "velocity": 0.7874015748031497,
          "duration": 0.16666649999999095
        },
        {
          "name": "A#3",
          "midi": 58,
          "time": 127.4165392499976,
          "velocity": 0.7874015748031497,
          "duration": 0.08333324999999547
        },
        {
          "name": "F4",
          "midi": 65,
          "time": 127.4165392499976,
          "velocity": 0.7874015748031497,
          "duration": 0.08333324999999547
        },
        {
          "name": "D5",
          "midi": 74,
          "time": 127.4165392499976,
          "velocity": 0.7874015748031497,
          "duration": 0.08333324999999547
        },
        {
          "name": "A#1",
          "midi": 34,
          "time": 127.4165392499976,
          "velocity": 0.7874015748031497,
          "duration": 0.08333324999999547
        },
        {
          "name": "A#3",
          "midi": 58,
          "time": 127.4998724999976,
          "velocity": 0.7874015748031497,
          "duration": 0.08333324999999547
        },
        {
          "name": "F4",
          "midi": 65,
          "time": 127.4998724999976,
          "velocity": 0.7874015748031497,
          "duration": 0.08333324999999547
        },
        {
          "name": "D5",
          "midi": 74,
          "time": 127.4998724999976,
          "velocity": 0.7874015748031497,
          "duration": 0.08333324999999547
        },
        {
          "name": "A#2",
          "midi": 46,
          "time": 127.4998724999976,
          "velocity": 0.7874015748031497,
          "duration": 0.08333324999999547
        },
        {
          "name": "A#3",
          "midi": 58,
          "time": 127.66653899999758,
          "velocity": 0.7874015748031497,
          "duration": 0.08333324999999547
        },
        {
          "name": "F4",
          "midi": 65,
          "time": 127.66653899999758,
          "velocity": 0.7874015748031497,
          "duration": 0.08333324999999547
        },
        {
          "name": "D5",
          "midi": 74,
          "time": 127.66653899999758,
          "velocity": 0.7874015748031497,
          "duration": 0.08333324999999547
        },
        {
          "name": "A#2",
          "midi": 46,
          "time": 127.66653899999758,
          "velocity": 0.7874015748031497,
          "duration": 0.08333324999999547
        },
        {
          "name": "A#2",
          "midi": 46,
          "time": 127.66653899999758,
          "velocity": 0.7874015748031497,
          "duration": 0.16666649999999095
        },
        {
          "name": "A#5",
          "midi": 82,
          "time": 127.66653899999758,
          "velocity": 0.7874015748031497,
          "duration": 0.16666649999999095
        },
        {
          "name": "A#3",
          "midi": 58,
          "time": 127.74987224999758,
          "velocity": 0.7874015748031497,
          "duration": 0.08333324999999547
        },
        {
          "name": "F4",
          "midi": 65,
          "time": 127.74987224999758,
          "velocity": 0.7874015748031497,
          "duration": 0.08333324999999547
        },
        {
          "name": "D5",
          "midi": 74,
          "time": 127.74987224999758,
          "velocity": 0.7874015748031497,
          "duration": 0.08333324999999547
        },
        {
          "name": "A#1",
          "midi": 34,
          "time": 127.74987224999758,
          "velocity": 0.7874015748031497,
          "duration": 0.08333324999999547
        },
        {
          "name": "A#3",
          "midi": 58,
          "time": 127.83320549999758,
          "velocity": 0.7874015748031497,
          "duration": 0.08333324999999547
        },
        {
          "name": "F4",
          "midi": 65,
          "time": 127.83320549999758,
          "velocity": 0.7874015748031497,
          "duration": 0.08333324999999547
        },
        {
          "name": "D5",
          "midi": 74,
          "time": 127.83320549999758,
          "velocity": 0.7874015748031497,
          "duration": 0.08333324999999547
        },
        {
          "name": "A#2",
          "midi": 46,
          "time": 127.83320549999758,
          "velocity": 0.7874015748031497,
          "duration": 0.08333324999999547
        },
        {
          "name": "A#5",
          "midi": 82,
          "time": 127.83320549999758,
          "velocity": 0.7874015748031497,
          "duration": 0.16666649999999095
        },
        {
          "name": "A#2",
          "midi": 46,
          "time": 127.83320549999758,
          "velocity": 0.7874015748031497,
          "duration": 0.16666649999999095
        },
        {
          "name": "A#3",
          "midi": 58,
          "time": 127.91653874999757,
          "velocity": 0.7874015748031497,
          "duration": 0.08333324999999547
        },
        {
          "name": "F4",
          "midi": 65,
          "time": 127.91653874999757,
          "velocity": 0.7874015748031497,
          "duration": 0.08333324999999547
        },
        {
          "name": "D5",
          "midi": 74,
          "time": 127.91653874999757,
          "velocity": 0.7874015748031497,
          "duration": 0.08333324999999547
        },
        {
          "name": "A#1",
          "midi": 34,
          "time": 127.91653874999757,
          "velocity": 0.7874015748031497,
          "duration": 0.08333324999999547
        },
        {
          "name": "A#2",
          "midi": 46,
          "time": 127.99987199999757,
          "velocity": 0.7874015748031497,
          "duration": 0.08333325000000968
        },
        {
          "name": "A#3",
          "midi": 58,
          "time": 127.99987199999757,
          "velocity": 0.7874015748031497,
          "duration": 0.08333325000000968
        },
        {
          "name": "F4",
          "midi": 65,
          "time": 127.99987199999757,
          "velocity": 0.7874015748031497,
          "duration": 0.08333325000000968
        },
        {
          "name": "D5",
          "midi": 74,
          "time": 127.99987199999757,
          "velocity": 0.7874015748031497,
          "duration": 0.08333325000000968
        },
        {
          "name": "A#3",
          "midi": 58,
          "time": 128.16653849999759,
          "velocity": 0.7874015748031497,
          "duration": 0.08333325000000968
        },
        {
          "name": "F4",
          "midi": 65,
          "time": 128.16653849999759,
          "velocity": 0.7874015748031497,
          "duration": 0.08333325000000968
        },
        {
          "name": "D5",
          "midi": 74,
          "time": 128.16653849999759,
          "velocity": 0.7874015748031497,
          "duration": 0.08333325000000968
        },
        {
          "name": "A#1",
          "midi": 34,
          "time": 128.16653849999759,
          "velocity": 0.7874015748031497,
          "duration": 0.16666650000001937
        },
        {
          "name": "A#2",
          "midi": 46,
          "time": 128.16653849999759,
          "velocity": 0.7874015748031497,
          "duration": 0.16666650000001937
        },
        {
          "name": "A#5",
          "midi": 82,
          "time": 128.16653849999759,
          "velocity": 0.7874015748031497,
          "duration": 0.16666650000001937
        },
        {
          "name": "A#3",
          "midi": 58,
          "time": 128.3332049999976,
          "velocity": 0.7874015748031497,
          "duration": 0.08333325000000968
        },
        {
          "name": "F4",
          "midi": 65,
          "time": 128.3332049999976,
          "velocity": 0.7874015748031497,
          "duration": 0.08333325000000968
        },
        {
          "name": "D5",
          "midi": 74,
          "time": 128.3332049999976,
          "velocity": 0.7874015748031497,
          "duration": 0.08333325000000968
        },
        {
          "name": "A#1",
          "midi": 34,
          "time": 128.3332049999976,
          "velocity": 0.7874015748031497,
          "duration": 0.16666650000001937
        },
        {
          "name": "A#2",
          "midi": 46,
          "time": 128.3332049999976,
          "velocity": 0.7874015748031497,
          "duration": 0.16666650000001937
        },
        {
          "name": "A#5",
          "midi": 82,
          "time": 128.3332049999976,
          "velocity": 0.7874015748031497,
          "duration": 0.16666650000001937
        },
        {
          "name": "A#3",
          "midi": 58,
          "time": 128.49987149999762,
          "velocity": 0.7874015748031497,
          "duration": 0.08333325000000968
        },
        {
          "name": "F4",
          "midi": 65,
          "time": 128.49987149999762,
          "velocity": 0.7874015748031497,
          "duration": 0.08333325000000968
        },
        {
          "name": "D5",
          "midi": 74,
          "time": 128.49987149999762,
          "velocity": 0.7874015748031497,
          "duration": 0.08333325000000968
        },
        {
          "name": "A#1",
          "midi": 34,
          "time": 128.49987149999762,
          "velocity": 0.7874015748031497,
          "duration": 0.16666650000001937
        },
        {
          "name": "A#5",
          "midi": 82,
          "time": 128.49987149999762,
          "velocity": 0.7874015748031497,
          "duration": 0.16666650000001937
        },
        {
          "name": "A#2",
          "midi": 46,
          "time": 128.49987149999762,
          "velocity": 0.7874015748031497,
          "duration": 0.16666650000001937
        },
        {
          "name": "A#3",
          "midi": 58,
          "time": 128.66653799999764,
          "velocity": 0.7874015748031497,
          "duration": 0.08333325000000968
        },
        {
          "name": "F4",
          "midi": 65,
          "time": 128.66653799999764,
          "velocity": 0.7874015748031497,
          "duration": 0.08333325000000968
        },
        {
          "name": "D5",
          "midi": 74,
          "time": 128.66653799999764,
          "velocity": 0.7874015748031497,
          "duration": 0.08333325000000968
        },
        {
          "name": "A#1",
          "midi": 34,
          "time": 128.66653799999764,
          "velocity": 0.7874015748031497,
          "duration": 0.16666650000001937
        },
        {
          "name": "A#5",
          "midi": 82,
          "time": 128.66653799999764,
          "velocity": 0.7874015748031497,
          "duration": 0.16666650000001937
        },
        {
          "name": "A#2",
          "midi": 46,
          "time": 128.66653799999764,
          "velocity": 0.7874015748031497,
          "duration": 0.16666650000001937
        }
      ],
      "controlChanges": {
        "6": [
          {
            "number": 6,
            "time": 0,
            "value": 0.09448818897637795
          },
          {
            "number": 6,
            "time": 0,
            "value": 0.09448818897637795
          },
          {
            "number": 6,
            "time": 0,
            "value": 0.09448818897637795
          },
          {
            "number": 6,
            "time": 129.33320399999766,
            "value": 0.09448818897637795
          },
          {
            "number": 6,
            "time": 131.06931337499768,
            "value": 0.09448818897637795
          }
        ],
        "7": [
          {
            "number": 7,
            "time": 0,
            "value": 0.7874015748031497
          },
          {
            "number": 7,
            "time": 0,
            "value": 0.7874015748031497
          },
          {
            "number": 7,
            "time": 0,
            "value": 0.7874015748031497
          },
          {
            "number": 7,
            "time": 0,
            "value": 0.7874015748031497
          },
          {
            "number": 7,
            "time": 0,
            "value": 0.7874015748031497
          },
          {
            "number": 7,
            "time": 0,
            "value": 0.7874015748031497
          },
          {
            "number": 7,
            "time": 129.33320399999766,
            "value": 0.7874015748031497
          },
          {
            "number": 7,
            "time": 131.06584115624767,
            "value": 0.7874015748031497
          },
          {
            "number": 7,
            "time": 131.06931337499768,
            "value": 0.7874015748031497
          }
        ],
        "10": [
          {
            "number": 10,
            "time": 0,
            "value": 0.5039370078740157
          },
          {
            "number": 10,
            "time": 0,
            "value": 0.5039370078740157
          },
          {
            "number": 10,
            "time": 0,
            "value": 0.5039370078740157
          },
          {
            "number": 10,
            "time": 0,
            "value": 0.5039370078740157
          },
          {
            "number": 10,
            "time": 0,
            "value": 0.5039370078740157
          },
          {
            "number": 10,
            "time": 0,
            "value": 0.5039370078740157
          },
          {
            "number": 10,
            "time": 129.33320399999766,
            "value": 0.5039370078740157
          },
          {
            "number": 10,
            "time": 131.06584115624767,
            "value": 0.5039370078740157
          },
          {
            "number": 10,
            "time": 131.06931337499768,
            "value": 0.5039370078740157
          }
        ],
        "64": [
          {
            "number": 64,
            "time": 0,
            "value": 0
          },
          {
            "number": 64,
            "time": 0,
            "value": 0
          },
          {
            "number": 64,
            "time": 0,
            "value": 0
          },
          {
            "number": 64,
            "time": 129.33320399999766,
            "value": 0
          },
          {
            "number": 64,
            "time": 131.06931337499768,
            "value": 0
          }
        ],
        "100": [
          {
            "number": 100,
            "time": 0,
            "value": 0
          },
          {
            "number": 100,
            "time": 0,
            "value": 0
          },
          {
            "number": 100,
            "time": 0,
            "value": 0
          },
          {
            "number": 100,
            "time": 129.33320399999766,
            "value": 0
          },
          {
            "number": 100,
            "time": 131.06931337499768,
            "value": 0
          }
        ],
        "101": [
          {
            "number": 101,
            "time": 0,
            "value": 0
          },
          {
            "number": 101,
            "time": 0,
            "value": 0
          },
          {
            "number": 101,
            "time": 0,
            "value": 0
          },
          {
            "number": 101,
            "time": 129.33320399999766,
            "value": 0
          },
          {
            "number": 101,
            "time": 131.06931337499768,
            "value": 0
          }
        ]
      },
      "id": 4,
      "name": "Violin",
      "instrumentNumber": 49,
      "instrument": "string ensemble 2",
      "instrumentFamily": "ensemble",
      "channelNumber": 2,
      "isPercussion": false
    },
    {
      "startTime": 0,
      "duration": 128.83320450000042,
      "length": 1130,
      "notes": [
        {
          "name": "D5",
          "midi": 74,
          "time": 0,
          "velocity": 0.7874015748031497,
          "duration": 1.333332
        },
        {
          "name": "G4",
          "midi": 67,
          "time": 0,
          "velocity": 0.7874015748031497,
          "duration": 1.333332
        },
        {
          "name": "A5",
          "midi": 81,
          "time": 1.333332,
          "velocity": 0.7874015748031497,
          "duration": 1.333332
        },
        {
          "name": "D5",
          "midi": 74,
          "time": 1.333332,
          "velocity": 0.7874015748031497,
          "duration": 1.333332
        },
        {
          "name": "A#5",
          "midi": 82,
          "time": 2.666664,
          "velocity": 0.7874015748031497,
          "duration": 1.333332
        },
        {
          "name": "D#5",
          "midi": 75,
          "time": 2.666664,
          "velocity": 0.7874015748031497,
          "duration": 1.333332
        },
        {
          "name": "F5",
          "midi": 77,
          "time": 3.999996,
          "velocity": 0.7874015748031497,
          "duration": 1.333332
        },
        {
          "name": "A#4",
          "midi": 70,
          "time": 3.999996,
          "velocity": 0.7874015748031497,
          "duration": 1.333332
        },
        {
          "name": "A#5",
          "midi": 82,
          "time": 5.333328,
          "velocity": 0.7874015748031497,
          "duration": 1.3333320000000004
        },
        {
          "name": "D#5",
          "midi": 75,
          "time": 5.333328,
          "velocity": 0.7874015748031497,
          "duration": 1.3333320000000004
        },
        {
          "name": "F5",
          "midi": 77,
          "time": 6.66666,
          "velocity": 0.7874015748031497,
          "duration": 0.6666660000000002
        },
        {
          "name": "A#4",
          "midi": 70,
          "time": 6.66666,
          "velocity": 0.7874015748031497,
          "duration": 0.6666660000000002
        },
        {
          "name": "A#4",
          "midi": 70,
          "time": 7.3333260000000005,
          "velocity": 0.7874015748031497,
          "duration": 0.6666660000000002
        },
        {
          "name": "F5",
          "midi": 77,
          "time": 7.3333260000000005,
          "velocity": 0.7874015748031497,
          "duration": 0.6666660000000002
        },
        {
          "name": "F5",
          "midi": 77,
          "time": 7.999992000000001,
          "velocity": 0.7874015748031497,
          "duration": 0.6666659999999993
        },
        {
          "name": "C6",
          "midi": 84,
          "time": 7.999992000000001,
          "velocity": 0.7874015748031497,
          "duration": 0.6666659999999993
        },
        {
          "name": "F5",
          "midi": 77,
          "time": 8.666658,
          "velocity": 0.7874015748031497,
          "duration": 0.6666659999999993
        },
        {
          "name": "C6",
          "midi": 84,
          "time": 8.666658,
          "velocity": 0.7874015748031497,
          "duration": 0.6666659999999993
        },
        {
          "name": "F5",
          "midi": 77,
          "time": 9.333324,
          "velocity": 0.7874015748031497,
          "duration": 0.33333299999999966
        },
        {
          "name": "C6",
          "midi": 84,
          "time": 9.333324,
          "velocity": 0.7874015748031497,
          "duration": 0.33333299999999966
        },
        {
          "name": "C6",
          "midi": 84,
          "time": 9.666656999999999,
          "velocity": 0.7874015748031497,
          "duration": 0.33333299999999966
        },
        {
          "name": "F5",
          "midi": 77,
          "time": 9.666656999999999,
          "velocity": 0.7874015748031497,
          "duration": 0.33333299999999966
        },
        {
          "name": "C6",
          "midi": 84,
          "time": 9.999989999999999,
          "velocity": 0.7874015748031497,
          "duration": 0.33333299999999966
        },
        {
          "name": "F5",
          "midi": 77,
          "time": 9.999989999999999,
          "velocity": 0.7874015748031497,
          "duration": 0.33333299999999966
        },
        {
          "name": "F5",
          "midi": 77,
          "time": 10.333322999999998,
          "velocity": 0.7874015748031497,
          "duration": 0.16666649999999983
        },
        {
          "name": "C6",
          "midi": 84,
          "time": 10.333322999999998,
          "velocity": 0.7874015748031497,
          "duration": 0.16666649999999983
        },
        {
          "name": "F5",
          "midi": 77,
          "time": 10.499989499999998,
          "velocity": 0.7874015748031497,
          "duration": 0.16666649999999983
        },
        {
          "name": "C6",
          "midi": 84,
          "time": 10.499989499999998,
          "velocity": 0.7874015748031497,
          "duration": 0.16666649999999983
        },
        {
          "name": "A#4",
          "midi": 70,
          "time": 10.666655999999998,
          "velocity": 0.7874015748031497,
          "duration": 0.33333299999999966
        },
        {
          "name": "F5",
          "midi": 77,
          "time": 10.666655999999998,
          "velocity": 0.7874015748031497,
          "duration": 0.33333299999999966
        },
        {
          "name": "F5",
          "midi": 77,
          "time": 10.999988999999998,
          "velocity": 0.7874015748031497,
          "duration": 0.33333299999999966
        },
        {
          "name": "A#4",
          "midi": 70,
          "time": 10.999988999999998,
          "velocity": 0.7874015748031497,
          "duration": 0.33333299999999966
        },
        {
          "name": "F5",
          "midi": 77,
          "time": 11.333321999999997,
          "velocity": 0.7874015748031497,
          "duration": 0.16666649999999983
        },
        {
          "name": "A#4",
          "midi": 70,
          "time": 11.333321999999997,
          "velocity": 0.7874015748031497,
          "duration": 0.16666649999999983
        },
        {
          "name": "A#4",
          "midi": 70,
          "time": 11.499988499999997,
          "velocity": 0.7874015748031497,
          "duration": 0.16666649999999983
        },
        {
          "name": "F5",
          "midi": 77,
          "time": 11.499988499999997,
          "velocity": 0.7874015748031497,
          "duration": 0.16666649999999983
        },
        {
          "name": "F5",
          "midi": 77,
          "time": 11.666654999999997,
          "velocity": 0.7874015748031497,
          "duration": 0.16666649999999983
        },
        {
          "name": "A#4",
          "midi": 70,
          "time": 11.666654999999997,
          "velocity": 0.7874015748031497,
          "duration": 0.16666649999999983
        },
        {
          "name": "F5",
          "midi": 77,
          "time": 11.833321499999997,
          "velocity": 0.7874015748031497,
          "duration": 0.16666649999999983
        },
        {
          "name": "A#4",
          "midi": 70,
          "time": 11.833321499999997,
          "velocity": 0.7874015748031497,
          "duration": 0.16666649999999983
        },
        {
          "name": "D#5",
          "midi": 75,
          "time": 11.999987999999997,
          "velocity": 0.7874015748031497,
          "duration": 0.33333299999999966
        },
        {
          "name": "A#5",
          "midi": 82,
          "time": 11.999987999999997,
          "velocity": 0.7874015748031497,
          "duration": 0.33333299999999966
        },
        {
          "name": "D#5",
          "midi": 75,
          "time": 12.333320999999996,
          "velocity": 0.7874015748031497,
          "duration": 0.33333299999999966
        },
        {
          "name": "A#5",
          "midi": 82,
          "time": 12.333320999999996,
          "velocity": 0.7874015748031497,
          "duration": 0.33333299999999966
        },
        {
          "name": "D#5",
          "midi": 75,
          "time": 12.666653999999996,
          "velocity": 0.7874015748031497,
          "duration": 0.16666649999999983
        },
        {
          "name": "A#5",
          "midi": 82,
          "time": 12.666653999999996,
          "velocity": 0.7874015748031497,
          "duration": 0.16666649999999983
        },
        {
          "name": "D#5",
          "midi": 75,
          "time": 12.833320499999996,
          "velocity": 0.7874015748031497,
          "duration": 0.16666649999999983
        },
        {
          "name": "A#5",
          "midi": 82,
          "time": 12.833320499999996,
          "velocity": 0.7874015748031497,
          "duration": 0.16666649999999983
        },
        {
          "name": "A#5",
          "midi": 82,
          "time": 12.999986999999996,
          "velocity": 0.7874015748031497,
          "duration": 0.16666649999999983
        },
        {
          "name": "D#5",
          "midi": 75,
          "time": 12.999986999999996,
          "velocity": 0.7874015748031497,
          "duration": 0.16666649999999983
        },
        {
          "name": "A#5",
          "midi": 82,
          "time": 13.166653499999995,
          "velocity": 0.7874015748031497,
          "duration": 0.16666649999999983
        },
        {
          "name": "D#5",
          "midi": 75,
          "time": 13.166653499999995,
          "velocity": 0.7874015748031497,
          "duration": 0.16666649999999983
        },
        {
          "name": "C6",
          "midi": 84,
          "time": 13.333319999999995,
          "velocity": 0.7874015748031497,
          "duration": 0.33333299999999966
        },
        {
          "name": "F5",
          "midi": 77,
          "time": 13.333319999999995,
          "velocity": 0.7874015748031497,
          "duration": 0.33333299999999966
        },
        {
          "name": "C6",
          "midi": 84,
          "time": 13.666652999999995,
          "velocity": 0.7874015748031497,
          "duration": 0.33333299999999966
        },
        {
          "name": "F5",
          "midi": 77,
          "time": 13.666652999999995,
          "velocity": 0.7874015748031497,
          "duration": 0.33333299999999966
        },
        {
          "name": "F5",
          "midi": 77,
          "time": 13.999985999999994,
          "velocity": 0.7874015748031497,
          "duration": 0.16666649999999983
        },
        {
          "name": "C6",
          "midi": 84,
          "time": 13.999985999999994,
          "velocity": 0.7874015748031497,
          "duration": 0.16666649999999983
        },
        {
          "name": "C6",
          "midi": 84,
          "time": 14.166652499999994,
          "velocity": 0.7874015748031497,
          "duration": 0.16666649999999983
        },
        {
          "name": "F5",
          "midi": 77,
          "time": 14.166652499999994,
          "velocity": 0.7874015748031497,
          "duration": 0.16666649999999983
        },
        {
          "name": "C6",
          "midi": 84,
          "time": 14.333318999999994,
          "velocity": 0.7874015748031497,
          "duration": 0.16666649999999983
        },
        {
          "name": "F5",
          "midi": 77,
          "time": 14.333318999999994,
          "velocity": 0.7874015748031497,
          "duration": 0.16666649999999983
        },
        {
          "name": "F5",
          "midi": 77,
          "time": 14.499985499999994,
          "velocity": 0.7874015748031497,
          "duration": 0.16666649999999983
        },
        {
          "name": "C6",
          "midi": 84,
          "time": 14.499985499999994,
          "velocity": 0.7874015748031497,
          "duration": 0.16666649999999983
        },
        {
          "name": "G4",
          "midi": 67,
          "time": 14.666651999999994,
          "velocity": 0.7874015748031497,
          "duration": 0.33333299999999966
        },
        {
          "name": "D5",
          "midi": 74,
          "time": 14.666651999999994,
          "velocity": 0.7874015748031497,
          "duration": 0.33333299999999966
        },
        {
          "name": "G4",
          "midi": 67,
          "time": 14.999984999999993,
          "velocity": 0.7874015748031497,
          "duration": 0.33333299999999966
        },
        {
          "name": "D5",
          "midi": 74,
          "time": 14.999984999999993,
          "velocity": 0.7874015748031497,
          "duration": 0.33333299999999966
        },
        {
          "name": "D5",
          "midi": 74,
          "time": 15.333317999999993,
          "velocity": 0.7874015748031497,
          "duration": 0.16666649999999983
        },
        {
          "name": "G4",
          "midi": 67,
          "time": 15.333317999999993,
          "velocity": 0.7874015748031497,
          "duration": 0.16666649999999983
        },
        {
          "name": "D5",
          "midi": 74,
          "time": 15.499984499999993,
          "velocity": 0.7874015748031497,
          "duration": 0.16666649999999983
        },
        {
          "name": "G4",
          "midi": 67,
          "time": 15.499984499999993,
          "velocity": 0.7874015748031497,
          "duration": 0.16666649999999983
        },
        {
          "name": "D5",
          "midi": 74,
          "time": 15.666650999999993,
          "velocity": 0.7874015748031497,
          "duration": 0.16666649999999983
        },
        {
          "name": "G4",
          "midi": 67,
          "time": 15.666650999999993,
          "velocity": 0.7874015748031497,
          "duration": 0.16666649999999983
        },
        {
          "name": "G4",
          "midi": 67,
          "time": 15.833317499999993,
          "velocity": 0.7874015748031497,
          "duration": 0.16666649999999983
        },
        {
          "name": "D5",
          "midi": 74,
          "time": 15.833317499999993,
          "velocity": 0.7874015748031497,
          "duration": 0.16666649999999983
        },
        {
          "name": "D#5",
          "midi": 75,
          "time": 15.999983999999992,
          "velocity": 0.7874015748031497,
          "duration": 0.33333300000000143
        },
        {
          "name": "A#5",
          "midi": 82,
          "time": 15.999983999999992,
          "velocity": 0.7874015748031497,
          "duration": 0.33333300000000143
        },
        {
          "name": "A#5",
          "midi": 82,
          "time": 16.333316999999994,
          "velocity": 0.7874015748031497,
          "duration": 0.33333299999999966
        },
        {
          "name": "D#5",
          "midi": 75,
          "time": 16.333316999999994,
          "velocity": 0.7874015748031497,
          "duration": 0.33333299999999966
        },
        {
          "name": "A#4",
          "midi": 70,
          "time": 16.666649999999994,
          "velocity": 0.7874015748031497,
          "duration": 0.1666665000000016
        },
        {
          "name": "F5",
          "midi": 77,
          "time": 16.666649999999994,
          "velocity": 0.7874015748031497,
          "duration": 0.1666665000000016
        },
        {
          "name": "F5",
          "midi": 77,
          "time": 16.833316499999995,
          "velocity": 0.7874015748031497,
          "duration": 0.1666665000000016
        },
        {
          "name": "A#4",
          "midi": 70,
          "time": 16.833316499999995,
          "velocity": 0.7874015748031497,
          "duration": 0.1666665000000016
        },
        {
          "name": "A#4",
          "midi": 70,
          "time": 16.999982999999997,
          "velocity": 0.7874015748031497,
          "duration": 0.1666665000000016
        },
        {
          "name": "F5",
          "midi": 77,
          "time": 16.999982999999997,
          "velocity": 0.7874015748031497,
          "duration": 0.1666665000000016
        },
        {
          "name": "A#4",
          "midi": 70,
          "time": 17.1666495,
          "velocity": 0.7874015748031497,
          "duration": 0.1666665000000016
        },
        {
          "name": "F5",
          "midi": 77,
          "time": 17.1666495,
          "velocity": 0.7874015748031497,
          "duration": 0.1666665000000016
        },
        {
          "name": "F5",
          "midi": 77,
          "time": 17.333316,
          "velocity": 0.7874015748031497,
          "duration": 0.33333299999999966
        },
        {
          "name": "C6",
          "midi": 84,
          "time": 17.333316,
          "velocity": 0.7874015748031497,
          "duration": 0.33333299999999966
        },
        {
          "name": "F5",
          "midi": 77,
          "time": 17.666649,
          "velocity": 0.7874015748031497,
          "duration": 0.33333299999999966
        },
        {
          "name": "C6",
          "midi": 84,
          "time": 17.666649,
          "velocity": 0.7874015748031497,
          "duration": 0.33333299999999966
        },
        {
          "name": "D5",
          "midi": 74,
          "time": 17.999982,
          "velocity": 0.7874015748031497,
          "duration": 0.1666665000000016
        },
        {
          "name": "G4",
          "midi": 67,
          "time": 17.999982,
          "velocity": 0.7874015748031497,
          "duration": 0.1666665000000016
        },
        {
          "name": "D5",
          "midi": 74,
          "time": 18.1666485,
          "velocity": 0.7874015748031497,
          "duration": 0.1666665000000016
        },
        {
          "name": "G4",
          "midi": 67,
          "time": 18.1666485,
          "velocity": 0.7874015748031497,
          "duration": 0.1666665000000016
        },
        {
          "name": "G4",
          "midi": 67,
          "time": 18.333315000000002,
          "velocity": 0.7874015748031497,
          "duration": 0.1666665000000016
        },
        {
          "name": "D5",
          "midi": 74,
          "time": 18.333315000000002,
          "velocity": 0.7874015748031497,
          "duration": 0.1666665000000016
        },
        {
          "name": "G4",
          "midi": 67,
          "time": 18.499981500000004,
          "velocity": 0.7874015748031497,
          "duration": 0.1666665000000016
        },
        {
          "name": "D5",
          "midi": 74,
          "time": 18.499981500000004,
          "velocity": 0.7874015748031497,
          "duration": 0.1666665000000016
        },
        {
          "name": "D#5",
          "midi": 75,
          "time": 18.666648000000006,
          "velocity": 0.7874015748031497,
          "duration": 0.33333299999999966
        },
        {
          "name": "A#5",
          "midi": 82,
          "time": 18.666648000000006,
          "velocity": 0.7874015748031497,
          "duration": 0.33333299999999966
        },
        {
          "name": "A#5",
          "midi": 82,
          "time": 18.999981000000005,
          "velocity": 0.7874015748031497,
          "duration": 0.33333299999999966
        },
        {
          "name": "D#5",
          "midi": 75,
          "time": 18.999981000000005,
          "velocity": 0.7874015748031497,
          "duration": 0.33333299999999966
        },
        {
          "name": "A#5",
          "midi": 82,
          "time": 19.333314000000005,
          "velocity": 0.7874015748031497,
          "duration": 0.1666665000000016
        },
        {
          "name": "E5",
          "midi": 76,
          "time": 19.333314000000005,
          "velocity": 0.7874015748031497,
          "duration": 0.1666665000000016
        },
        {
          "name": "A#5",
          "midi": 82,
          "time": 19.499980500000007,
          "velocity": 0.7874015748031497,
          "duration": 0.1666665000000016
        },
        {
          "name": "E5",
          "midi": 76,
          "time": 19.499980500000007,
          "velocity": 0.7874015748031497,
          "duration": 0.1666665000000016
        },
        {
          "name": "E5",
          "midi": 76,
          "time": 19.666647000000008,
          "velocity": 0.7874015748031497,
          "duration": 0.1666665000000016
        },
        {
          "name": "A#5",
          "midi": 82,
          "time": 19.666647000000008,
          "velocity": 0.7874015748031497,
          "duration": 0.1666665000000016
        },
        {
          "name": "A#5",
          "midi": 82,
          "time": 19.83331350000001,
          "velocity": 0.7874015748031497,
          "duration": 0.1666665000000016
        },
        {
          "name": "E5",
          "midi": 76,
          "time": 19.83331350000001,
          "velocity": 0.7874015748031497,
          "duration": 0.1666665000000016
        },
        {
          "name": "C6",
          "midi": 84,
          "time": 19.99998000000001,
          "velocity": 0.7874015748031497,
          "duration": 0.33333299999999966
        },
        {
          "name": "F5",
          "midi": 77,
          "time": 19.99998000000001,
          "velocity": 0.7874015748031497,
          "duration": 0.33333299999999966
        },
        {
          "name": "C6",
          "midi": 84,
          "time": 20.33331300000001,
          "velocity": 0.7874015748031497,
          "duration": 0.33333299999999966
        },
        {
          "name": "F5",
          "midi": 77,
          "time": 20.33331300000001,
          "velocity": 0.7874015748031497,
          "duration": 0.33333299999999966
        },
        {
          "name": "C6",
          "midi": 84,
          "time": 20.66664600000001,
          "velocity": 0.7874015748031497,
          "duration": 0.1666665000000016
        },
        {
          "name": "F5",
          "midi": 77,
          "time": 20.66664600000001,
          "velocity": 0.7874015748031497,
          "duration": 0.1666665000000016
        },
        {
          "name": "F5",
          "midi": 77,
          "time": 20.833312500000012,
          "velocity": 0.7874015748031497,
          "duration": 0.1666665000000016
        },
        {
          "name": "C6",
          "midi": 84,
          "time": 20.833312500000012,
          "velocity": 0.7874015748031497,
          "duration": 0.1666665000000016
        },
        {
          "name": "F5",
          "midi": 77,
          "time": 20.999979000000014,
          "velocity": 0.7874015748031497,
          "duration": 0.1666665000000016
        },
        {
          "name": "C6",
          "midi": 84,
          "time": 20.999979000000014,
          "velocity": 0.7874015748031497,
          "duration": 0.1666665000000016
        },
        {
          "name": "F5",
          "midi": 77,
          "time": 21.166645500000016,
          "velocity": 0.7874015748031497,
          "duration": 0.1666665000000016
        },
        {
          "name": "C6",
          "midi": 84,
          "time": 21.166645500000016,
          "velocity": 0.7874015748031497,
          "duration": 0.1666665000000016
        },
        {
          "name": "F5",
          "midi": 77,
          "time": 21.333312000000017,
          "velocity": 0.7874015748031497,
          "duration": 0.33333299999999966
        },
        {
          "name": "A#4",
          "midi": 70,
          "time": 21.333312000000017,
          "velocity": 0.7874015748031497,
          "duration": 0.33333299999999966
        },
        {
          "name": "A#4",
          "midi": 70,
          "time": 21.666645000000017,
          "velocity": 0.7874015748031497,
          "duration": 0.33333299999999966
        },
        {
          "name": "F5",
          "midi": 77,
          "time": 21.666645000000017,
          "velocity": 0.7874015748031497,
          "duration": 0.33333299999999966
        },
        {
          "name": "A#4",
          "midi": 70,
          "time": 21.999978000000016,
          "velocity": 0.7874015748031497,
          "duration": 0.1666665000000016
        },
        {
          "name": "F5",
          "midi": 77,
          "time": 21.999978000000016,
          "velocity": 0.7874015748031497,
          "duration": 0.1666665000000016
        },
        {
          "name": "F5",
          "midi": 77,
          "time": 22.166644500000018,
          "velocity": 0.7874015748031497,
          "duration": 0.1666665000000016
        },
        {
          "name": "A#4",
          "midi": 70,
          "time": 22.166644500000018,
          "velocity": 0.7874015748031497,
          "duration": 0.1666665000000016
        },
        {
          "name": "A#4",
          "midi": 70,
          "time": 22.33331100000002,
          "velocity": 0.7874015748031497,
          "duration": 0.1666665000000016
        },
        {
          "name": "F5",
          "midi": 77,
          "time": 22.33331100000002,
          "velocity": 0.7874015748031497,
          "duration": 0.1666665000000016
        },
        {
          "name": "F5",
          "midi": 77,
          "time": 22.49997750000002,
          "velocity": 0.7874015748031497,
          "duration": 0.1666665000000016
        },
        {
          "name": "A#4",
          "midi": 70,
          "time": 22.49997750000002,
          "velocity": 0.7874015748031497,
          "duration": 0.1666665000000016
        },
        {
          "name": "D#5",
          "midi": 75,
          "time": 22.666644000000023,
          "velocity": 0.7874015748031497,
          "duration": 0.33333299999999966
        },
        {
          "name": "A#5",
          "midi": 82,
          "time": 22.666644000000023,
          "velocity": 0.7874015748031497,
          "duration": 0.33333299999999966
        },
        {
          "name": "A#5",
          "midi": 82,
          "time": 22.999977000000023,
          "velocity": 0.7874015748031497,
          "duration": 0.33333299999999966
        },
        {
          "name": "D#5",
          "midi": 75,
          "time": 22.999977000000023,
          "velocity": 0.7874015748031497,
          "duration": 0.33333299999999966
        },
        {
          "name": "D#5",
          "midi": 75,
          "time": 23.333310000000022,
          "velocity": 0.7874015748031497,
          "duration": 0.1666665000000016
        },
        {
          "name": "A#5",
          "midi": 82,
          "time": 23.333310000000022,
          "velocity": 0.7874015748031497,
          "duration": 0.1666665000000016
        },
        {
          "name": "A#5",
          "midi": 82,
          "time": 23.499976500000024,
          "velocity": 0.7874015748031497,
          "duration": 0.1666665000000016
        },
        {
          "name": "D#5",
          "midi": 75,
          "time": 23.499976500000024,
          "velocity": 0.7874015748031497,
          "duration": 0.1666665000000016
        },
        {
          "name": "A#5",
          "midi": 82,
          "time": 23.666643000000025,
          "velocity": 0.7874015748031497,
          "duration": 0.1666665000000016
        },
        {
          "name": "D#5",
          "midi": 75,
          "time": 23.666643000000025,
          "velocity": 0.7874015748031497,
          "duration": 0.1666665000000016
        },
        {
          "name": "D#5",
          "midi": 75,
          "time": 23.833309500000027,
          "velocity": 0.7874015748031497,
          "duration": 0.1666665000000016
        },
        {
          "name": "A#5",
          "midi": 82,
          "time": 23.833309500000027,
          "velocity": 0.7874015748031497,
          "duration": 0.1666665000000016
        },
        {
          "name": "F5",
          "midi": 77,
          "time": 23.99997600000003,
          "velocity": 0.7874015748031497,
          "duration": 0.33333299999999966
        },
        {
          "name": "C6",
          "midi": 84,
          "time": 23.99997600000003,
          "velocity": 0.7874015748031497,
          "duration": 0.33333299999999966
        },
        {
          "name": "F5",
          "midi": 77,
          "time": 24.33330900000003,
          "velocity": 0.7874015748031497,
          "duration": 0.33333299999999966
        },
        {
          "name": "C6",
          "midi": 84,
          "time": 24.33330900000003,
          "velocity": 0.7874015748031497,
          "duration": 0.33333299999999966
        },
        {
          "name": "C6",
          "midi": 84,
          "time": 24.666642000000028,
          "velocity": 0.7874015748031497,
          "duration": 0.1666665000000016
        },
        {
          "name": "F5",
          "midi": 77,
          "time": 24.666642000000028,
          "velocity": 0.7874015748031497,
          "duration": 0.1666665000000016
        },
        {
          "name": "F5",
          "midi": 77,
          "time": 24.83330850000003,
          "velocity": 0.7874015748031497,
          "duration": 0.1666665000000016
        },
        {
          "name": "C6",
          "midi": 84,
          "time": 24.83330850000003,
          "velocity": 0.7874015748031497,
          "duration": 0.1666665000000016
        },
        {
          "name": "C6",
          "midi": 84,
          "time": 24.99997500000003,
          "velocity": 0.7874015748031497,
          "duration": 0.1666665000000016
        },
        {
          "name": "F5",
          "midi": 77,
          "time": 24.99997500000003,
          "velocity": 0.7874015748031497,
          "duration": 0.1666665000000016
        },
        {
          "name": "C6",
          "midi": 84,
          "time": 25.166641500000033,
          "velocity": 0.7874015748031497,
          "duration": 0.1666665000000016
        },
        {
          "name": "F5",
          "midi": 77,
          "time": 25.166641500000033,
          "velocity": 0.7874015748031497,
          "duration": 0.1666665000000016
        },
        {
          "name": "D5",
          "midi": 74,
          "time": 25.333308000000034,
          "velocity": 0.7874015748031497,
          "duration": 0.33333299999999966
        },
        {
          "name": "G4",
          "midi": 67,
          "time": 25.333308000000034,
          "velocity": 0.7874015748031497,
          "duration": 0.33333299999999966
        },
        {
          "name": "D5",
          "midi": 74,
          "time": 25.666641000000034,
          "velocity": 0.7874015748031497,
          "duration": 0.33333299999999966
        },
        {
          "name": "G4",
          "midi": 67,
          "time": 25.666641000000034,
          "velocity": 0.7874015748031497,
          "duration": 0.33333299999999966
        },
        {
          "name": "G4",
          "midi": 67,
          "time": 25.999974000000034,
          "velocity": 0.7874015748031497,
          "duration": 0.1666665000000016
        },
        {
          "name": "D5",
          "midi": 74,
          "time": 25.999974000000034,
          "velocity": 0.7874015748031497,
          "duration": 0.1666665000000016
        },
        {
          "name": "G4",
          "midi": 67,
          "time": 26.166640500000035,
          "velocity": 0.7874015748031497,
          "duration": 0.1666665000000016
        },
        {
          "name": "D5",
          "midi": 74,
          "time": 26.166640500000035,
          "velocity": 0.7874015748031497,
          "duration": 0.1666665000000016
        },
        {
          "name": "G4",
          "midi": 67,
          "time": 26.333307000000037,
          "velocity": 0.7874015748031497,
          "duration": 0.1666665000000016
        },
        {
          "name": "D5",
          "midi": 74,
          "time": 26.333307000000037,
          "velocity": 0.7874015748031497,
          "duration": 0.1666665000000016
        },
        {
          "name": "D5",
          "midi": 74,
          "time": 26.49997350000004,
          "velocity": 0.7874015748031497,
          "duration": 0.1666665000000016
        },
        {
          "name": "G4",
          "midi": 67,
          "time": 26.49997350000004,
          "velocity": 0.7874015748031497,
          "duration": 0.1666665000000016
        },
        {
          "name": "D#5",
          "midi": 75,
          "time": 26.66664000000004,
          "velocity": 0.7874015748031497,
          "duration": 0.33333299999999966
        },
        {
          "name": "A#5",
          "midi": 82,
          "time": 26.66664000000004,
          "velocity": 0.7874015748031497,
          "duration": 0.33333299999999966
        },
        {
          "name": "A#5",
          "midi": 82,
          "time": 26.99997300000004,
          "velocity": 0.7874015748031497,
          "duration": 0.33333299999999966
        },
        {
          "name": "D#5",
          "midi": 75,
          "time": 26.99997300000004,
          "velocity": 0.7874015748031497,
          "duration": 0.33333299999999966
        },
        {
          "name": "F5",
          "midi": 77,
          "time": 27.33330600000004,
          "velocity": 0.7874015748031497,
          "duration": 0.1666665000000016
        },
        {
          "name": "A#4",
          "midi": 70,
          "time": 27.33330600000004,
          "velocity": 0.7874015748031497,
          "duration": 0.1666665000000016
        },
        {
          "name": "A#4",
          "midi": 70,
          "time": 27.49997250000004,
          "velocity": 0.7874015748031497,
          "duration": 0.1666665000000016
        },
        {
          "name": "F5",
          "midi": 77,
          "time": 27.49997250000004,
          "velocity": 0.7874015748031497,
          "duration": 0.1666665000000016
        },
        {
          "name": "F5",
          "midi": 77,
          "time": 27.666639000000043,
          "velocity": 0.7874015748031497,
          "duration": 0.1666665000000016
        },
        {
          "name": "A#4",
          "midi": 70,
          "time": 27.666639000000043,
          "velocity": 0.7874015748031497,
          "duration": 0.1666665000000016
        },
        {
          "name": "F5",
          "midi": 77,
          "time": 27.833305500000044,
          "velocity": 0.7874015748031497,
          "duration": 0.1666665000000016
        },
        {
          "name": "A#4",
          "midi": 70,
          "time": 27.833305500000044,
          "velocity": 0.7874015748031497,
          "duration": 0.1666665000000016
        },
        {
          "name": "C6",
          "midi": 84,
          "time": 27.999972000000046,
          "velocity": 0.7874015748031497,
          "duration": 0.33333299999999966
        },
        {
          "name": "F5",
          "midi": 77,
          "time": 27.999972000000046,
          "velocity": 0.7874015748031497,
          "duration": 0.33333299999999966
        },
        {
          "name": "F5",
          "midi": 77,
          "time": 28.333305000000045,
          "velocity": 0.7874015748031497,
          "duration": 0.33333299999999966
        },
        {
          "name": "C6",
          "midi": 84,
          "time": 28.333305000000045,
          "velocity": 0.7874015748031497,
          "duration": 0.33333299999999966
        },
        {
          "name": "D5",
          "midi": 74,
          "time": 28.666638000000045,
          "velocity": 0.7874015748031497,
          "duration": 0.1666665000000016
        },
        {
          "name": "G4",
          "midi": 67,
          "time": 28.666638000000045,
          "velocity": 0.7874015748031497,
          "duration": 0.1666665000000016
        },
        {
          "name": "G4",
          "midi": 67,
          "time": 28.833304500000047,
          "velocity": 0.7874015748031497,
          "duration": 0.1666665000000016
        },
        {
          "name": "D5",
          "midi": 74,
          "time": 28.833304500000047,
          "velocity": 0.7874015748031497,
          "duration": 0.1666665000000016
        },
        {
          "name": "D5",
          "midi": 74,
          "time": 28.99997100000005,
          "velocity": 0.7874015748031497,
          "duration": 0.1666665000000016
        },
        {
          "name": "G4",
          "midi": 67,
          "time": 28.99997100000005,
          "velocity": 0.7874015748031497,
          "duration": 0.1666665000000016
        },
        {
          "name": "D5",
          "midi": 74,
          "time": 29.16663750000005,
          "velocity": 0.7874015748031497,
          "duration": 0.1666665000000016
        },
        {
          "name": "G4",
          "midi": 67,
          "time": 29.16663750000005,
          "velocity": 0.7874015748031497,
          "duration": 0.1666665000000016
        },
        {
          "name": "A#5",
          "midi": 82,
          "time": 29.33330400000005,
          "velocity": 0.7874015748031497,
          "duration": 0.33333299999999966
        },
        {
          "name": "D#5",
          "midi": 75,
          "time": 29.33330400000005,
          "velocity": 0.7874015748031497,
          "duration": 0.33333299999999966
        },
        {
          "name": "D#5",
          "midi": 75,
          "time": 29.66663700000005,
          "velocity": 0.7874015748031497,
          "duration": 0.33333299999999966
        },
        {
          "name": "A#5",
          "midi": 82,
          "time": 29.66663700000005,
          "velocity": 0.7874015748031497,
          "duration": 0.33333299999999966
        },
        {
          "name": "F5",
          "midi": 77,
          "time": 29.99997000000005,
          "velocity": 0.7874015748031497,
          "duration": 0.1666665000000016
        },
        {
          "name": "C6",
          "midi": 84,
          "time": 29.99997000000005,
          "velocity": 0.7874015748031497,
          "duration": 0.1666665000000016
        },
        {
          "name": "F5",
          "midi": 77,
          "time": 30.166636500000052,
          "velocity": 0.7874015748031497,
          "duration": 0.1666665000000016
        },
        {
          "name": "C6",
          "midi": 84,
          "time": 30.166636500000052,
          "velocity": 0.7874015748031497,
          "duration": 0.1666665000000016
        },
        {
          "name": "C6",
          "midi": 84,
          "time": 30.333303000000054,
          "velocity": 0.7874015748031497,
          "duration": 0.1666665000000016
        },
        {
          "name": "F5",
          "midi": 77,
          "time": 30.333303000000054,
          "velocity": 0.7874015748031497,
          "duration": 0.1666665000000016
        },
        {
          "name": "F5",
          "midi": 77,
          "time": 30.499969500000056,
          "velocity": 0.7874015748031497,
          "duration": 0.1666665000000016
        },
        {
          "name": "C6",
          "midi": 84,
          "time": 30.499969500000056,
          "velocity": 0.7874015748031497,
          "duration": 0.1666665000000016
        },
        {
          "name": "F5",
          "midi": 77,
          "time": 30.666636000000057,
          "velocity": 0.7874015748031497,
          "duration": 0.33333299999999966
        },
        {
          "name": "A#4",
          "midi": 70,
          "time": 30.666636000000057,
          "velocity": 0.7874015748031497,
          "duration": 0.33333299999999966
        },
        {
          "name": "F5",
          "midi": 77,
          "time": 30.999969000000057,
          "velocity": 0.7874015748031497,
          "duration": 0.33333299999999966
        },
        {
          "name": "A#4",
          "midi": 70,
          "time": 30.999969000000057,
          "velocity": 0.7874015748031497,
          "duration": 0.33333299999999966
        },
        {
          "name": "A#4",
          "midi": 70,
          "time": 31.333302000000057,
          "velocity": 0.7874015748031497,
          "duration": 0.1666665000000016
        },
        {
          "name": "F5",
          "midi": 77,
          "time": 31.333302000000057,
          "velocity": 0.7874015748031497,
          "duration": 0.1666665000000016
        },
        {
          "name": "A#4",
          "midi": 70,
          "time": 31.499968500000058,
          "velocity": 0.7874015748031497,
          "duration": 0.1666665000000016
        },
        {
          "name": "F5",
          "midi": 77,
          "time": 31.499968500000058,
          "velocity": 0.7874015748031497,
          "duration": 0.1666665000000016
        },
        {
          "name": "F5",
          "midi": 77,
          "time": 31.66663500000006,
          "velocity": 0.7874015748031497,
          "duration": 0.1666665000000016
        },
        {
          "name": "A#4",
          "midi": 70,
          "time": 31.66663500000006,
          "velocity": 0.7874015748031497,
          "duration": 0.1666665000000016
        },
        {
          "name": "F5",
          "midi": 77,
          "time": 31.83330150000006,
          "velocity": 0.7874015748031497,
          "duration": 0.1666665000000016
        },
        {
          "name": "A#4",
          "midi": 70,
          "time": 31.83330150000006,
          "velocity": 0.7874015748031497,
          "duration": 0.1666665000000016
        },
        {
          "name": "A#4",
          "midi": 70,
          "time": 31.999968000000063,
          "velocity": 0.7874015748031497,
          "duration": 0.33333299999999966
        },
        {
          "name": "A#5",
          "midi": 82,
          "time": 31.999968000000063,
          "velocity": 0.7874015748031497,
          "duration": 0.33333299999999966
        },
        {
          "name": "D#5",
          "midi": 75,
          "time": 31.999968000000063,
          "velocity": 0.7874015748031497,
          "duration": 0.33333299999999966
        },
        {
          "name": "C5",
          "midi": 72,
          "time": 32.33330100000006,
          "velocity": 0.7874015748031497,
          "duration": 0.3333330000000032
        },
        {
          "name": "D#5",
          "midi": 75,
          "time": 32.33330100000006,
          "velocity": 0.7874015748031497,
          "duration": 0.3333330000000032
        },
        {
          "name": "A#5",
          "midi": 82,
          "time": 32.33330100000006,
          "velocity": 0.7874015748031497,
          "duration": 0.3333330000000032
        },
        {
          "name": "D5",
          "midi": 74,
          "time": 32.666634000000066,
          "velocity": 0.7874015748031497,
          "duration": 0.3333329999999961
        },
        {
          "name": "D#5",
          "midi": 75,
          "time": 32.666634000000066,
          "velocity": 0.7874015748031497,
          "duration": 0.16666649999999805
        },
        {
          "name": "A#5",
          "midi": 82,
          "time": 32.666634000000066,
          "velocity": 0.7874015748031497,
          "duration": 0.16666649999999805
        },
        {
          "name": "A#5",
          "midi": 82,
          "time": 32.833300500000064,
          "velocity": 0.7874015748031497,
          "duration": 0.16666649999999805
        },
        {
          "name": "D#5",
          "midi": 75,
          "time": 32.833300500000064,
          "velocity": 0.7874015748031497,
          "duration": 0.16666649999999805
        },
        {
          "name": "A#4",
          "midi": 70,
          "time": 32.99996700000006,
          "velocity": 0.7874015748031497,
          "duration": 0.3333329999999961
        },
        {
          "name": "D#5",
          "midi": 75,
          "time": 32.99996700000006,
          "velocity": 0.7874015748031497,
          "duration": 0.16666649999999805
        },
        {
          "name": "A#5",
          "midi": 82,
          "time": 32.99996700000006,
          "velocity": 0.7874015748031497,
          "duration": 0.16666649999999805
        },
        {
          "name": "A#5",
          "midi": 82,
          "time": 33.16663350000006,
          "velocity": 0.7874015748031497,
          "duration": 0.16666649999999805
        },
        {
          "name": "D#5",
          "midi": 75,
          "time": 33.16663350000006,
          "velocity": 0.7874015748031497,
          "duration": 0.16666649999999805
        },
        {
          "name": "D#5",
          "midi": 75,
          "time": 33.33330000000006,
          "velocity": 0.7874015748031497,
          "duration": 0.3333330000000032
        },
        {
          "name": "F5",
          "midi": 77,
          "time": 33.33330000000006,
          "velocity": 0.7874015748031497,
          "duration": 0.3333330000000032
        },
        {
          "name": "A#4",
          "midi": 70,
          "time": 33.33330000000006,
          "velocity": 0.7874015748031497,
          "duration": 0.3333330000000032
        },
        {
          "name": "D5",
          "midi": 74,
          "time": 33.66663300000006,
          "velocity": 0.7874015748031497,
          "duration": 0.3333330000000032
        },
        {
          "name": "A#4",
          "midi": 70,
          "time": 33.66663300000006,
          "velocity": 0.7874015748031497,
          "duration": 0.3333330000000032
        },
        {
          "name": "F5",
          "midi": 77,
          "time": 33.66663300000006,
          "velocity": 0.7874015748031497,
          "duration": 0.3333330000000032
        },
        {
          "name": "D#5",
          "midi": 75,
          "time": 33.999966000000065,
          "velocity": 0.7874015748031497,
          "duration": 0.3333329999999961
        },
        {
          "name": "F5",
          "midi": 77,
          "time": 33.999966000000065,
          "velocity": 0.7874015748031497,
          "duration": 0.16666649999999805
        },
        {
          "name": "A#4",
          "midi": 70,
          "time": 33.999966000000065,
          "velocity": 0.7874015748031497,
          "duration": 0.16666649999999805
        },
        {
          "name": "F5",
          "midi": 77,
          "time": 34.16663250000006,
          "velocity": 0.7874015748031497,
          "duration": 0.16666649999999805
        },
        {
          "name": "A#4",
          "midi": 70,
          "time": 34.16663250000006,
          "velocity": 0.7874015748031497,
          "duration": 0.16666649999999805
        },
        {
          "name": "E5",
          "midi": 76,
          "time": 34.33329900000006,
          "velocity": 0.7874015748031497,
          "duration": 0.3333329999999961
        },
        {
          "name": "F5",
          "midi": 77,
          "time": 34.33329900000006,
          "velocity": 0.7874015748031497,
          "duration": 0.16666649999999805
        },
        {
          "name": "A#4",
          "midi": 70,
          "time": 34.33329900000006,
          "velocity": 0.7874015748031497,
          "duration": 0.16666649999999805
        },
        {
          "name": "A#4",
          "midi": 70,
          "time": 34.49996550000006,
          "velocity": 0.7874015748031497,
          "duration": 0.16666649999999805
        },
        {
          "name": "F5",
          "midi": 77,
          "time": 34.49996550000006,
          "velocity": 0.7874015748031497,
          "duration": 0.16666649999999805
        },
        {
          "name": "F5",
          "midi": 77,
          "time": 34.66663200000006,
          "velocity": 0.7874015748031497,
          "duration": 2.333331000000001
        },
        {
          "name": "C6",
          "midi": 84,
          "time": 34.66663200000006,
          "velocity": 0.7874015748031497,
          "duration": 0.3333330000000032
        },
        {
          "name": "C6",
          "midi": 84,
          "time": 34.99996500000006,
          "velocity": 0.7874015748031497,
          "duration": 0.3333330000000032
        },
        {
          "name": "C6",
          "midi": 84,
          "time": 35.33329800000006,
          "velocity": 0.7874015748031497,
          "duration": 0.16666649999999805
        },
        {
          "name": "C6",
          "midi": 84,
          "time": 35.49996450000006,
          "velocity": 0.7874015748031497,
          "duration": 0.16666649999999805
        },
        {
          "name": "C6",
          "midi": 84,
          "time": 35.66663100000006,
          "velocity": 0.7874015748031497,
          "duration": 0.16666649999999805
        },
        {
          "name": "C6",
          "midi": 84,
          "time": 35.83329750000006,
          "velocity": 0.7874015748031497,
          "duration": 0.16666649999999805
        },
        {
          "name": "C6",
          "midi": 84,
          "time": 35.999964000000055,
          "velocity": 0.7874015748031497,
          "duration": 0.9999990000000025
        },
        {
          "name": "F5",
          "midi": 77,
          "time": 37.33329600000006,
          "velocity": 0.7874015748031497,
          "duration": 0.9999990000000025
        },
        {
          "name": "A#4",
          "midi": 70,
          "time": 37.33329600000006,
          "velocity": 0.7874015748031497,
          "duration": 0.9999990000000025
        },
        {
          "name": "F5",
          "midi": 77,
          "time": 38.333295000000064,
          "velocity": 0.7874015748031497,
          "duration": 0.9999990000000025
        },
        {
          "name": "A#4",
          "midi": 70,
          "time": 38.333295000000064,
          "velocity": 0.7874015748031497,
          "duration": 0.9999990000000025
        },
        {
          "name": "F5",
          "midi": 77,
          "time": 39.333294000000066,
          "velocity": 0.7874015748031497,
          "duration": 0.9999990000000025
        },
        {
          "name": "C6",
          "midi": 84,
          "time": 39.333294000000066,
          "velocity": 0.7874015748031497,
          "duration": 0.9999990000000025
        },
        {
          "name": "A#4",
          "midi": 70,
          "time": 40.33329300000007,
          "velocity": 0.7874015748031497,
          "duration": 0.9999990000000025
        },
        {
          "name": "F5",
          "midi": 77,
          "time": 40.33329300000007,
          "velocity": 0.7874015748031497,
          "duration": 0.9999990000000025
        },
        {
          "name": "D5",
          "midi": 74,
          "time": 41.33329200000007,
          "velocity": 0.7874015748031497,
          "duration": 0.9999990000000025
        },
        {
          "name": "G4",
          "midi": 67,
          "time": 41.33329200000007,
          "velocity": 0.7874015748031497,
          "duration": 0.9999990000000025
        },
        {
          "name": "A#4",
          "midi": 70,
          "time": 42.333291000000074,
          "velocity": 0.7874015748031497,
          "duration": 0.9999990000000025
        },
        {
          "name": "F5",
          "midi": 77,
          "time": 42.333291000000074,
          "velocity": 0.7874015748031497,
          "duration": 0.9999990000000025
        },
        {
          "name": "D#5",
          "midi": 75,
          "time": 43.333290000000076,
          "velocity": 0.7874015748031497,
          "duration": 0.9999990000000025
        },
        {
          "name": "A#5",
          "midi": 82,
          "time": 43.333290000000076,
          "velocity": 0.7874015748031497,
          "duration": 0.9999990000000025
        },
        {
          "name": "F5",
          "midi": 77,
          "time": 44.33328900000008,
          "velocity": 0.7874015748031497,
          "duration": 0.9999990000000025
        },
        {
          "name": "C6",
          "midi": 84,
          "time": 44.33328900000008,
          "velocity": 0.7874015748031497,
          "duration": 0.9999990000000025
        },
        {
          "name": "G4",
          "midi": 67,
          "time": 45.33328800000008,
          "velocity": 0.7874015748031497,
          "duration": 0.9999990000000025
        },
        {
          "name": "D5",
          "midi": 74,
          "time": 45.33328800000008,
          "velocity": 0.7874015748031497,
          "duration": 0.9999990000000025
        },
        {
          "name": "D5",
          "midi": 74,
          "time": 46.333287000000084,
          "velocity": 0.7874015748031497,
          "duration": 0.9999990000000025
        },
        {
          "name": "A5",
          "midi": 81,
          "time": 46.333287000000084,
          "velocity": 0.7874015748031497,
          "duration": 0.9999990000000025
        },
        {
          "name": "A#5",
          "midi": 82,
          "time": 47.333286000000086,
          "velocity": 0.7874015748031497,
          "duration": 0.6666659999999993
        },
        {
          "name": "D#5",
          "midi": 75,
          "time": 47.333286000000086,
          "velocity": 0.7874015748031497,
          "duration": 0.6666659999999993
        },
        {
          "name": "F5",
          "midi": 77,
          "time": 47.999952000000086,
          "velocity": 0.7874015748031497,
          "duration": 0.3333330000000032
        },
        {
          "name": "C6",
          "midi": 84,
          "time": 47.999952000000086,
          "velocity": 0.7874015748031497,
          "duration": 0.3333330000000032
        },
        {
          "name": "A#4",
          "midi": 70,
          "time": 48.33328500000009,
          "velocity": 0.7874015748031497,
          "duration": 0.9999990000000025
        },
        {
          "name": "F5",
          "midi": 77,
          "time": 48.33328500000009,
          "velocity": 0.7874015748031497,
          "duration": 0.9999990000000025
        },
        {
          "name": "A#5",
          "midi": 82,
          "time": 49.33328400000009,
          "velocity": 0.7874015748031497,
          "duration": 0.9999990000000025
        },
        {
          "name": "D#5",
          "midi": 75,
          "time": 49.33328400000009,
          "velocity": 0.7874015748031497,
          "duration": 0.9999990000000025
        },
        {
          "name": "A#4",
          "midi": 70,
          "time": 50.333283000000094,
          "velocity": 0.7874015748031497,
          "duration": 0.9999990000000025
        },
        {
          "name": "F5",
          "midi": 77,
          "time": 50.333283000000094,
          "velocity": 0.7874015748031497,
          "duration": 0.9999990000000025
        },
        {
          "name": "A#5",
          "midi": 82,
          "time": 51.333282000000096,
          "velocity": 0.7874015748031497,
          "duration": 0.9999990000000025
        },
        {
          "name": "D#5",
          "midi": 75,
          "time": 51.333282000000096,
          "velocity": 0.7874015748031497,
          "duration": 0.9999990000000025
        },
        {
          "name": "C6",
          "midi": 84,
          "time": 52.3332810000001,
          "velocity": 0.7874015748031497,
          "duration": 0.9999990000000025
        },
        {
          "name": "F5",
          "midi": 77,
          "time": 52.3332810000001,
          "velocity": 0.7874015748031497,
          "duration": 0.9999990000000025
        },
        {
          "name": "D5",
          "midi": 74,
          "time": 53.3332800000001,
          "velocity": 0.7874015748031497,
          "duration": 0.9999990000000025
        },
        {
          "name": "G4",
          "midi": 67,
          "time": 53.3332800000001,
          "velocity": 0.7874015748031497,
          "duration": 0.9999990000000025
        },
        {
          "name": "A5",
          "midi": 81,
          "time": 54.333279000000104,
          "velocity": 0.7874015748031497,
          "duration": 0.9999990000000025
        },
        {
          "name": "D5",
          "midi": 74,
          "time": 54.333279000000104,
          "velocity": 0.7874015748031497,
          "duration": 0.9999990000000025
        },
        {
          "name": "D#5",
          "midi": 75,
          "time": 55.33327800000011,
          "velocity": 0.7874015748031497,
          "duration": 0.6666659999999993
        },
        {
          "name": "A#5",
          "midi": 82,
          "time": 55.33327800000011,
          "velocity": 0.7874015748031497,
          "duration": 0.6666659999999993
        },
        {
          "name": "F5",
          "midi": 77,
          "time": 55.999944000000106,
          "velocity": 0.7874015748031497,
          "duration": 0.3333330000000032
        },
        {
          "name": "C6",
          "midi": 84,
          "time": 55.999944000000106,
          "velocity": 0.7874015748031497,
          "duration": 0.3333330000000032
        },
        {
          "name": "F5",
          "midi": 77,
          "time": 56.33327700000011,
          "velocity": 0.7874015748031497,
          "duration": 0.9999990000000025
        },
        {
          "name": "A#4",
          "midi": 70,
          "time": 56.33327700000011,
          "velocity": 0.7874015748031497,
          "duration": 0.9999990000000025
        },
        {
          "name": "D#5",
          "midi": 75,
          "time": 57.33327600000011,
          "velocity": 0.7874015748031497,
          "duration": 0.3333330000000032
        },
        {
          "name": "A#5",
          "midi": 82,
          "time": 57.33327600000011,
          "velocity": 0.7874015748031497,
          "duration": 0.3333330000000032
        },
        {
          "name": "D#5",
          "midi": 75,
          "time": 57.666609000000115,
          "velocity": 0.7874015748031497,
          "duration": 0.16666649999999805
        },
        {
          "name": "A#5",
          "midi": 82,
          "time": 57.666609000000115,
          "velocity": 0.7874015748031497,
          "duration": 0.16666649999999805
        },
        {
          "name": "A#5",
          "midi": 82,
          "time": 57.83327550000011,
          "velocity": 0.7874015748031497,
          "duration": 0.3333330000000032
        },
        {
          "name": "D#5",
          "midi": 75,
          "time": 57.83327550000011,
          "velocity": 0.7874015748031497,
          "duration": 0.3333330000000032
        },
        {
          "name": "A#5",
          "midi": 82,
          "time": 58.166608500000116,
          "velocity": 0.7874015748031497,
          "duration": 0.16666649999999805
        },
        {
          "name": "D#5",
          "midi": 75,
          "time": 58.166608500000116,
          "velocity": 0.7874015748031497,
          "duration": 0.16666649999999805
        },
        {
          "name": "D#5",
          "midi": 75,
          "time": 58.333275000000114,
          "velocity": 0.7874015748031497,
          "duration": 0.16666649999999805
        },
        {
          "name": "A#5",
          "midi": 82,
          "time": 58.333275000000114,
          "velocity": 0.7874015748031497,
          "duration": 0.16666649999999805
        },
        {
          "name": "A#5",
          "midi": 82,
          "time": 58.49994150000011,
          "velocity": 0.7874015748031497,
          "duration": 0.16666649999999805
        },
        {
          "name": "D#5",
          "midi": 75,
          "time": 58.49994150000011,
          "velocity": 0.7874015748031497,
          "duration": 0.16666649999999805
        },
        {
          "name": "D#5",
          "midi": 75,
          "time": 58.66660800000011,
          "velocity": 0.7874015748031497,
          "duration": 0.3333330000000032
        },
        {
          "name": "A#5",
          "midi": 82,
          "time": 58.66660800000011,
          "velocity": 0.7874015748031497,
          "duration": 0.3333330000000032
        },
        {
          "name": "D#5",
          "midi": 75,
          "time": 58.99994100000011,
          "velocity": 0.7874015748031497,
          "duration": 0.16666649999999805
        },
        {
          "name": "A#5",
          "midi": 82,
          "time": 58.99994100000011,
          "velocity": 0.7874015748031497,
          "duration": 0.16666649999999805
        },
        {
          "name": "D#5",
          "midi": 75,
          "time": 59.16660750000011,
          "velocity": 0.7874015748031497,
          "duration": 0.3333330000000032
        },
        {
          "name": "A#5",
          "midi": 82,
          "time": 59.16660750000011,
          "velocity": 0.7874015748031497,
          "duration": 0.3333330000000032
        },
        {
          "name": "A#5",
          "midi": 82,
          "time": 59.499940500000115,
          "velocity": 0.7874015748031497,
          "duration": 0.16666649999999805
        },
        {
          "name": "D#5",
          "midi": 75,
          "time": 59.499940500000115,
          "velocity": 0.7874015748031497,
          "duration": 0.16666649999999805
        },
        {
          "name": "D#5",
          "midi": 75,
          "time": 59.66660700000011,
          "velocity": 0.7874015748031497,
          "duration": 0.16666649999999805
        },
        {
          "name": "A#5",
          "midi": 82,
          "time": 59.66660700000011,
          "velocity": 0.7874015748031497,
          "duration": 0.16666649999999805
        },
        {
          "name": "D#5",
          "midi": 75,
          "time": 59.83327350000011,
          "velocity": 0.7874015748031497,
          "duration": 0.16666649999999805
        },
        {
          "name": "A#5",
          "midi": 82,
          "time": 59.83327350000011,
          "velocity": 0.7874015748031497,
          "duration": 0.16666649999999805
        },
        {
          "name": "C6",
          "midi": 84,
          "time": 59.99994000000011,
          "velocity": 0.7874015748031497,
          "duration": 0.3333330000000032
        },
        {
          "name": "F5",
          "midi": 77,
          "time": 59.99994000000011,
          "velocity": 0.7874015748031497,
          "duration": 0.3333330000000032
        },
        {
          "name": "C6",
          "midi": 84,
          "time": 60.33327300000011,
          "velocity": 0.7874015748031497,
          "duration": 0.16666649999999805
        },
        {
          "name": "F5",
          "midi": 77,
          "time": 60.33327300000011,
          "velocity": 0.7874015748031497,
          "duration": 0.16666649999999805
        },
        {
          "name": "C6",
          "midi": 84,
          "time": 60.49993950000011,
          "velocity": 0.7874015748031497,
          "duration": 0.3333330000000032
        },
        {
          "name": "F5",
          "midi": 77,
          "time": 60.49993950000011,
          "velocity": 0.7874015748031497,
          "duration": 0.3333330000000032
        },
        {
          "name": "C6",
          "midi": 84,
          "time": 60.83327250000011,
          "velocity": 0.7874015748031497,
          "duration": 0.16666649999999805
        },
        {
          "name": "F5",
          "midi": 77,
          "time": 60.83327250000011,
          "velocity": 0.7874015748031497,
          "duration": 0.16666649999999805
        },
        {
          "name": "C6",
          "midi": 84,
          "time": 60.99993900000011,
          "velocity": 0.7874015748031497,
          "duration": 0.16666649999999805
        },
        {
          "name": "F5",
          "midi": 77,
          "time": 60.99993900000011,
          "velocity": 0.7874015748031497,
          "duration": 0.16666649999999805
        },
        {
          "name": "C6",
          "midi": 84,
          "time": 61.16660550000011,
          "velocity": 0.7874015748031497,
          "duration": 0.16666649999999805
        },
        {
          "name": "F5",
          "midi": 77,
          "time": 61.16660550000011,
          "velocity": 0.7874015748031497,
          "duration": 0.16666649999999805
        },
        {
          "name": "C6",
          "midi": 84,
          "time": 61.33327200000011,
          "velocity": 0.7874015748031497,
          "duration": 0.6666659999999993
        },
        {
          "name": "F5",
          "midi": 77,
          "time": 61.33327200000011,
          "velocity": 0.7874015748031497,
          "duration": 0.6666659999999993
        },
        {
          "name": "G4",
          "midi": 67,
          "time": 62.666604000000106,
          "velocity": 0.7874015748031497,
          "duration": 1.3333319999999986
        },
        {
          "name": "D5",
          "midi": 74,
          "time": 62.666604000000106,
          "velocity": 0.7874015748031497,
          "duration": 1.3333319999999986
        },
        {
          "name": "A5",
          "midi": 81,
          "time": 63.999936000000105,
          "velocity": 0.7874015748031497,
          "duration": 1.3333319999999986
        },
        {
          "name": "D5",
          "midi": 74,
          "time": 63.999936000000105,
          "velocity": 0.7874015748031497,
          "duration": 1.3333319999999986
        },
        {
          "name": "D#5",
          "midi": 75,
          "time": 65.3332680000001,
          "velocity": 0.7874015748031497,
          "duration": 1.3333319999999986
        },
        {
          "name": "A#5",
          "midi": 82,
          "time": 65.3332680000001,
          "velocity": 0.7874015748031497,
          "duration": 1.3333319999999986
        },
        {
          "name": "C6",
          "midi": 84,
          "time": 66.6666000000001,
          "velocity": 0.7874015748031497,
          "duration": 1.3333319999999986
        },
        {
          "name": "F5",
          "midi": 77,
          "time": 66.6666000000001,
          "velocity": 0.7874015748031497,
          "duration": 1.3333319999999986
        },
        {
          "name": "G4",
          "midi": 67,
          "time": 67.9999320000001,
          "velocity": 0.7874015748031497,
          "duration": 1.3333319999999986
        },
        {
          "name": "D5",
          "midi": 74,
          "time": 67.9999320000001,
          "velocity": 0.7874015748031497,
          "duration": 1.3333319999999986
        },
        {
          "name": "D5",
          "midi": 74,
          "time": 69.3332640000001,
          "velocity": 0.7874015748031497,
          "duration": 1.3333319999999986
        },
        {
          "name": "A5",
          "midi": 81,
          "time": 69.3332640000001,
          "velocity": 0.7874015748031497,
          "duration": 1.3333319999999986
        },
        {
          "name": "D#5",
          "midi": 75,
          "time": 70.6665960000001,
          "velocity": 0.7874015748031497,
          "duration": 0.6666660000000064
        },
        {
          "name": "A#5",
          "midi": 82,
          "time": 70.6665960000001,
          "velocity": 0.7874015748031497,
          "duration": 0.6666660000000064
        },
        {
          "name": "F5",
          "midi": 77,
          "time": 71.3332620000001,
          "velocity": 0.7874015748031497,
          "duration": 0.6666660000000064
        },
        {
          "name": "C6",
          "midi": 84,
          "time": 71.3332620000001,
          "velocity": 0.7874015748031497,
          "duration": 0.6666660000000064
        },
        {
          "name": "A#4",
          "midi": 70,
          "time": 71.99992800000011,
          "velocity": 0.7874015748031497,
          "duration": 1.3333319999999986
        },
        {
          "name": "F5",
          "midi": 77,
          "time": 71.99992800000011,
          "velocity": 0.7874015748031497,
          "duration": 1.3333319999999986
        },
        {
          "name": "G4",
          "midi": 67,
          "time": 73.33326000000011,
          "velocity": 0.7874015748031497,
          "duration": 0.49999950000000126
        },
        {
          "name": "D5",
          "midi": 74,
          "time": 73.33326000000011,
          "velocity": 0.7874015748031497,
          "duration": 0.49999950000000126
        },
        {
          "name": "D5",
          "midi": 74,
          "time": 73.83325950000011,
          "velocity": 0.7874015748031497,
          "duration": 0.3333329999999961
        },
        {
          "name": "G4",
          "midi": 67,
          "time": 73.83325950000011,
          "velocity": 0.7874015748031497,
          "duration": 0.3333329999999961
        },
        {
          "name": "D5",
          "midi": 74,
          "time": 74.1665925000001,
          "velocity": 0.7874015748031497,
          "duration": 0.16666650000000516
        },
        {
          "name": "G4",
          "midi": 67,
          "time": 74.1665925000001,
          "velocity": 0.7874015748031497,
          "duration": 0.16666650000000516
        },
        {
          "name": "G4",
          "midi": 67,
          "time": 74.33325900000011,
          "velocity": 0.7874015748031497,
          "duration": 0.3333329999999961
        },
        {
          "name": "D5",
          "midi": 74,
          "time": 74.33325900000011,
          "velocity": 0.7874015748031497,
          "duration": 0.3333329999999961
        },
        {
          "name": "D5",
          "midi": 74,
          "time": 74.66659200000011,
          "velocity": 0.7874015748031497,
          "duration": 0.49999950000000126
        },
        {
          "name": "A5",
          "midi": 81,
          "time": 74.66659200000011,
          "velocity": 0.7874015748031497,
          "duration": 0.49999950000000126
        },
        {
          "name": "A5",
          "midi": 81,
          "time": 75.16659150000011,
          "velocity": 0.7874015748031497,
          "duration": 0.3333329999999961
        },
        {
          "name": "D5",
          "midi": 74,
          "time": 75.16659150000011,
          "velocity": 0.7874015748031497,
          "duration": 0.3333329999999961
        },
        {
          "name": "D5",
          "midi": 74,
          "time": 75.4999245000001,
          "velocity": 0.7874015748031497,
          "duration": 0.16666650000000516
        },
        {
          "name": "A5",
          "midi": 81,
          "time": 75.4999245000001,
          "velocity": 0.7874015748031497,
          "duration": 0.16666650000000516
        },
        {
          "name": "A5",
          "midi": 81,
          "time": 75.66659100000011,
          "velocity": 0.7874015748031497,
          "duration": 0.3333329999999961
        },
        {
          "name": "D5",
          "midi": 74,
          "time": 75.66659100000011,
          "velocity": 0.7874015748031497,
          "duration": 0.3333329999999961
        },
        {
          "name": "A#5",
          "midi": 82,
          "time": 75.9999240000001,
          "velocity": 0.7874015748031497,
          "duration": 0.49999950000000126
        },
        {
          "name": "D#5",
          "midi": 75,
          "time": 75.9999240000001,
          "velocity": 0.7874015748031497,
          "duration": 0.49999950000000126
        },
        {
          "name": "D#5",
          "midi": 75,
          "time": 76.49992350000011,
          "velocity": 0.7874015748031497,
          "duration": 0.3333329999999961
        },
        {
          "name": "A#5",
          "midi": 82,
          "time": 76.49992350000011,
          "velocity": 0.7874015748031497,
          "duration": 0.3333329999999961
        },
        {
          "name": "D#5",
          "midi": 75,
          "time": 76.8332565000001,
          "velocity": 0.7874015748031497,
          "duration": 0.16666650000000516
        },
        {
          "name": "A#5",
          "midi": 82,
          "time": 76.8332565000001,
          "velocity": 0.7874015748031497,
          "duration": 0.16666650000000516
        },
        {
          "name": "D#5",
          "midi": 75,
          "time": 76.99992300000011,
          "velocity": 0.7874015748031497,
          "duration": 0.3333329999999961
        },
        {
          "name": "A#5",
          "midi": 82,
          "time": 76.99992300000011,
          "velocity": 0.7874015748031497,
          "duration": 0.3333329999999961
        },
        {
          "name": "A#4",
          "midi": 70,
          "time": 77.3332560000001,
          "velocity": 0.7874015748031497,
          "duration": 0.49999950000000126
        },
        {
          "name": "F5",
          "midi": 77,
          "time": 77.3332560000001,
          "velocity": 0.7874015748031497,
          "duration": 0.49999950000000126
        },
        {
          "name": "A#4",
          "midi": 70,
          "time": 77.8332555000001,
          "velocity": 0.7874015748031497,
          "duration": 0.3333329999999961
        },
        {
          "name": "F5",
          "midi": 77,
          "time": 77.8332555000001,
          "velocity": 0.7874015748031497,
          "duration": 0.3333329999999961
        },
        {
          "name": "F5",
          "midi": 77,
          "time": 78.1665885000001,
          "velocity": 0.7874015748031497,
          "duration": 0.16666650000000516
        },
        {
          "name": "A#4",
          "midi": 70,
          "time": 78.1665885000001,
          "velocity": 0.7874015748031497,
          "duration": 0.16666650000000516
        },
        {
          "name": "A#4",
          "midi": 70,
          "time": 78.33325500000011,
          "velocity": 0.7874015748031497,
          "duration": 0.3333329999999961
        },
        {
          "name": "F5",
          "midi": 77,
          "time": 78.33325500000011,
          "velocity": 0.7874015748031497,
          "duration": 0.3333329999999961
        },
        {
          "name": "A#5",
          "midi": 82,
          "time": 78.6665880000001,
          "velocity": 0.7874015748031497,
          "duration": 0.16666650000000516
        },
        {
          "name": "D#5",
          "midi": 75,
          "time": 78.6665880000001,
          "velocity": 0.7874015748031497,
          "duration": 0.16666650000000516
        },
        {
          "name": "D#5",
          "midi": 75,
          "time": 78.83325450000011,
          "velocity": 0.7874015748031497,
          "duration": 0.16666650000000516
        },
        {
          "name": "A#5",
          "midi": 82,
          "time": 78.83325450000011,
          "velocity": 0.7874015748031497,
          "duration": 0.16666650000000516
        },
        {
          "name": "D#5",
          "midi": 75,
          "time": 78.99992100000011,
          "velocity": 0.7874015748031497,
          "duration": 0.16666650000000516
        },
        {
          "name": "A#5",
          "midi": 82,
          "time": 78.99992100000011,
          "velocity": 0.7874015748031497,
          "duration": 0.16666650000000516
        },
        {
          "name": "D#5",
          "midi": 75,
          "time": 79.16658750000012,
          "velocity": 0.7874015748031497,
          "duration": 0.16666650000000516
        },
        {
          "name": "A#5",
          "midi": 82,
          "time": 79.16658750000012,
          "velocity": 0.7874015748031497,
          "duration": 0.16666650000000516
        },
        {
          "name": "A#5",
          "midi": 82,
          "time": 79.33325400000012,
          "velocity": 0.7874015748031497,
          "duration": 0.16666650000000516
        },
        {
          "name": "D#5",
          "midi": 75,
          "time": 79.33325400000012,
          "velocity": 0.7874015748031497,
          "duration": 0.16666650000000516
        },
        {
          "name": "A#5",
          "midi": 82,
          "time": 79.49992050000013,
          "velocity": 0.7874015748031497,
          "duration": 0.16666650000000516
        },
        {
          "name": "D#5",
          "midi": 75,
          "time": 79.49992050000013,
          "velocity": 0.7874015748031497,
          "duration": 0.16666650000000516
        },
        {
          "name": "A#5",
          "midi": 82,
          "time": 79.66658700000013,
          "velocity": 0.7874015748031497,
          "duration": 0.16666650000000516
        },
        {
          "name": "D#5",
          "midi": 75,
          "time": 79.66658700000013,
          "velocity": 0.7874015748031497,
          "duration": 0.16666650000000516
        },
        {
          "name": "D#5",
          "midi": 75,
          "time": 79.83325350000014,
          "velocity": 0.7874015748031497,
          "duration": 0.16666650000000516
        },
        {
          "name": "A#5",
          "midi": 82,
          "time": 79.83325350000014,
          "velocity": 0.7874015748031497,
          "duration": 0.16666650000000516
        },
        {
          "name": "A#5",
          "midi": 82,
          "time": 79.99992000000015,
          "velocity": 0.7874015748031497,
          "duration": 0.16666650000000516
        },
        {
          "name": "E5",
          "midi": 76,
          "time": 79.99992000000015,
          "velocity": 0.7874015748031497,
          "duration": 0.16666650000000516
        },
        {
          "name": "E5",
          "midi": 76,
          "time": 80.16658650000015,
          "velocity": 0.7874015748031497,
          "duration": 0.16666650000000516
        },
        {
          "name": "A#5",
          "midi": 82,
          "time": 80.16658650000015,
          "velocity": 0.7874015748031497,
          "duration": 0.16666650000000516
        },
        {
          "name": "E5",
          "midi": 76,
          "time": 80.33325300000016,
          "velocity": 0.7874015748031497,
          "duration": 0.16666650000000516
        },
        {
          "name": "A#5",
          "midi": 82,
          "time": 80.33325300000016,
          "velocity": 0.7874015748031497,
          "duration": 0.16666650000000516
        },
        {
          "name": "A#5",
          "midi": 82,
          "time": 80.49991950000016,
          "velocity": 0.7874015748031497,
          "duration": 0.16666650000000516
        },
        {
          "name": "E5",
          "midi": 76,
          "time": 80.49991950000016,
          "velocity": 0.7874015748031497,
          "duration": 0.16666650000000516
        },
        {
          "name": "E5",
          "midi": 76,
          "time": 80.66658600000017,
          "velocity": 0.7874015748031497,
          "duration": 0.16666650000000516
        },
        {
          "name": "A#5",
          "midi": 82,
          "time": 80.66658600000017,
          "velocity": 0.7874015748031497,
          "duration": 0.16666650000000516
        },
        {
          "name": "A#5",
          "midi": 82,
          "time": 80.83325250000017,
          "velocity": 0.7874015748031497,
          "duration": 0.16666650000000516
        },
        {
          "name": "E5",
          "midi": 76,
          "time": 80.83325250000017,
          "velocity": 0.7874015748031497,
          "duration": 0.16666650000000516
        },
        {
          "name": "A#5",
          "midi": 82,
          "time": 80.99991900000018,
          "velocity": 0.7874015748031497,
          "duration": 0.16666650000000516
        },
        {
          "name": "E5",
          "midi": 76,
          "time": 80.99991900000018,
          "velocity": 0.7874015748031497,
          "duration": 0.16666650000000516
        },
        {
          "name": "A#5",
          "midi": 82,
          "time": 81.16658550000018,
          "velocity": 0.7874015748031497,
          "duration": 0.16666650000000516
        },
        {
          "name": "E5",
          "midi": 76,
          "time": 81.16658550000018,
          "velocity": 0.7874015748031497,
          "duration": 0.16666650000000516
        },
        {
          "name": "C6",
          "midi": 84,
          "time": 81.33325200000019,
          "velocity": 0.7874015748031497,
          "duration": 0.3333329999999961
        },
        {
          "name": "F5",
          "midi": 77,
          "time": 81.33325200000019,
          "velocity": 0.7874015748031497,
          "duration": 0.3333329999999961
        },
        {
          "name": "C6",
          "midi": 84,
          "time": 81.66658500000018,
          "velocity": 0.7874015748031497,
          "duration": 0.16666650000000516
        },
        {
          "name": "F5",
          "midi": 77,
          "time": 81.66658500000018,
          "velocity": 0.7874015748031497,
          "duration": 0.16666650000000516
        },
        {
          "name": "C6",
          "midi": 84,
          "time": 81.83325150000019,
          "velocity": 0.7874015748031497,
          "duration": 0.16666650000000516
        },
        {
          "name": "F5",
          "midi": 77,
          "time": 81.83325150000019,
          "velocity": 0.7874015748031497,
          "duration": 0.16666650000000516
        },
        {
          "name": "C6",
          "midi": 84,
          "time": 81.99991800000019,
          "velocity": 0.7874015748031497,
          "duration": 0.16666650000000516
        },
        {
          "name": "F5",
          "midi": 77,
          "time": 81.99991800000019,
          "velocity": 0.7874015748031497,
          "duration": 0.16666650000000516
        },
        {
          "name": "F5",
          "midi": 77,
          "time": 82.1665845000002,
          "velocity": 0.7874015748031497,
          "duration": 0.16666650000000516
        },
        {
          "name": "C6",
          "midi": 84,
          "time": 82.1665845000002,
          "velocity": 0.7874015748031497,
          "duration": 0.16666650000000516
        },
        {
          "name": "F5",
          "midi": 77,
          "time": 82.3332510000002,
          "velocity": 0.7874015748031497,
          "duration": 0.08333324999999547
        },
        {
          "name": "C6",
          "midi": 84,
          "time": 82.3332510000002,
          "velocity": 0.7874015748031497,
          "duration": 0.08333324999999547
        },
        {
          "name": "C6",
          "midi": 84,
          "time": 82.4165842500002,
          "velocity": 0.7874015748031497,
          "duration": 0.08333324999999547
        },
        {
          "name": "F5",
          "midi": 77,
          "time": 82.4165842500002,
          "velocity": 0.7874015748031497,
          "duration": 0.08333324999999547
        },
        {
          "name": "C6",
          "midi": 84,
          "time": 82.4999175000002,
          "velocity": 0.7874015748031497,
          "duration": 0.08333324999999547
        },
        {
          "name": "F5",
          "midi": 77,
          "time": 82.4999175000002,
          "velocity": 0.7874015748031497,
          "duration": 0.08333324999999547
        },
        {
          "name": "C6",
          "midi": 84,
          "time": 82.58325075000019,
          "velocity": 0.7874015748031497,
          "duration": 0.08333324999999547
        },
        {
          "name": "F5",
          "midi": 77,
          "time": 82.58325075000019,
          "velocity": 0.7874015748031497,
          "duration": 0.08333324999999547
        },
        {
          "name": "C6",
          "midi": 84,
          "time": 82.66658400000019,
          "velocity": 0.7874015748031497,
          "duration": 0.49999949999998705
        },
        {
          "name": "F5",
          "midi": 77,
          "time": 82.66658400000019,
          "velocity": 0.7874015748031497,
          "duration": 0.666665999999978
        },
        {
          "name": "F6",
          "midi": 89,
          "time": 82.99991700000018,
          "velocity": 0.7874015748031497,
          "duration": 0.08333324999999547
        },
        {
          "name": "C6",
          "midi": 84,
          "time": 83.08325025000018,
          "velocity": 0.7874015748031497,
          "duration": 0.3333329999999819
        },
        {
          "name": "A5",
          "midi": 81,
          "time": 83.16658350000017,
          "velocity": 0.7874015748031497,
          "duration": 0.08333324999999547
        },
        {
          "name": "F5",
          "midi": 77,
          "time": 83.24991675000017,
          "velocity": 0.7874015748031497,
          "duration": 0.3333329999999819
        },
        {
          "name": "C6",
          "midi": 84,
          "time": 83.33325000000016,
          "velocity": 0.7874015748031497,
          "duration": 0.5833327499999683
        },
        {
          "name": "A5",
          "midi": 81,
          "time": 83.41658325000016,
          "velocity": 0.7874015748031497,
          "duration": 0.08333324999999547
        },
        {
          "name": "F5",
          "midi": 77,
          "time": 83.49991650000015,
          "velocity": 0.7874015748031497,
          "duration": 0.24999974999998642
        },
        {
          "name": "C5",
          "midi": 72,
          "time": 83.58324975000015,
          "velocity": 0.7874015748031497,
          "duration": 0.08333324999999547
        },
        {
          "name": "F5",
          "midi": 77,
          "time": 83.66658300000014,
          "velocity": 0.7874015748031497,
          "duration": 0.3333329999999819
        },
        {
          "name": "A5",
          "midi": 81,
          "time": 83.74991625000014,
          "velocity": 0.7874015748031497,
          "duration": 0.08333324999999547
        },
        {
          "name": "C6",
          "midi": 84,
          "time": 83.83324950000014,
          "velocity": 0.7874015748031497,
          "duration": 0.16666649999999095
        },
        {
          "name": "F6",
          "midi": 89,
          "time": 83.91658275000013,
          "velocity": 0.7874015748031497,
          "duration": 0.08333324999999547
        },
        {
          "name": "D#5",
          "midi": 75,
          "time": 83.99991600000013,
          "velocity": 0.7874015748031497,
          "duration": 0.16666650000000516
        },
        {
          "name": "A#5",
          "midi": 82,
          "time": 83.99991600000013,
          "velocity": 0.7874015748031497,
          "duration": 0.16666650000000516
        },
        {
          "name": "A#5",
          "midi": 82,
          "time": 84.16658250000013,
          "velocity": 0.7874015748031497,
          "duration": 0.08333324999999547
        },
        {
          "name": "D#5",
          "midi": 75,
          "time": 84.16658250000013,
          "velocity": 0.7874015748031497,
          "duration": 0.08333324999999547
        },
        {
          "name": "A#5",
          "midi": 82,
          "time": 84.24991575000013,
          "velocity": 0.7874015748031497,
          "duration": 0.08333324999999547
        },
        {
          "name": "D#5",
          "midi": 75,
          "time": 84.24991575000013,
          "velocity": 0.7874015748031497,
          "duration": 0.08333324999999547
        },
        {
          "name": "D#5",
          "midi": 75,
          "time": 84.33324900000012,
          "velocity": 0.7874015748031497,
          "duration": 0.16666650000000516
        },
        {
          "name": "A#5",
          "midi": 82,
          "time": 84.33324900000012,
          "velocity": 0.7874015748031497,
          "duration": 0.16666650000000516
        },
        {
          "name": "D#5",
          "midi": 75,
          "time": 84.49991550000013,
          "velocity": 0.7874015748031497,
          "duration": 0.16666650000000516
        },
        {
          "name": "A#5",
          "midi": 82,
          "time": 84.49991550000013,
          "velocity": 0.7874015748031497,
          "duration": 0.16666650000000516
        },
        {
          "name": "D#5",
          "midi": 75,
          "time": 84.66658200000013,
          "velocity": 0.7874015748031497,
          "duration": 0.16666650000000516
        },
        {
          "name": "A#5",
          "midi": 82,
          "time": 84.66658200000013,
          "velocity": 0.7874015748031497,
          "duration": 0.16666650000000516
        },
        {
          "name": "D#5",
          "midi": 75,
          "time": 84.83324850000014,
          "velocity": 0.7874015748031497,
          "duration": 0.16666650000000516
        },
        {
          "name": "A#5",
          "midi": 82,
          "time": 84.83324850000014,
          "velocity": 0.7874015748031497,
          "duration": 0.16666650000000516
        },
        {
          "name": "D#5",
          "midi": 75,
          "time": 84.99991500000014,
          "velocity": 0.7874015748031497,
          "duration": 0.16666650000000516
        },
        {
          "name": "A#5",
          "midi": 82,
          "time": 84.99991500000014,
          "velocity": 0.7874015748031497,
          "duration": 0.16666650000000516
        },
        {
          "name": "A#5",
          "midi": 82,
          "time": 85.16658150000015,
          "velocity": 0.7874015748031497,
          "duration": 0.08333324999999547
        },
        {
          "name": "D#5",
          "midi": 75,
          "time": 85.16658150000015,
          "velocity": 0.7874015748031497,
          "duration": 0.08333324999999547
        },
        {
          "name": "A#5",
          "midi": 82,
          "time": 85.24991475000014,
          "velocity": 0.7874015748031497,
          "duration": 0.08333324999999547
        },
        {
          "name": "D#5",
          "midi": 75,
          "time": 85.24991475000014,
          "velocity": 0.7874015748031497,
          "duration": 0.08333324999999547
        },
        {
          "name": "C6",
          "midi": 84,
          "time": 85.33324800000014,
          "velocity": 0.7874015748031497,
          "duration": 0.16666650000000516
        },
        {
          "name": "F5",
          "midi": 77,
          "time": 85.33324800000014,
          "velocity": 0.7874015748031497,
          "duration": 0.16666650000000516
        },
        {
          "name": "C6",
          "midi": 84,
          "time": 85.49991450000014,
          "velocity": 0.7874015748031497,
          "duration": 0.08333324999999547
        },
        {
          "name": "F5",
          "midi": 77,
          "time": 85.49991450000014,
          "velocity": 0.7874015748031497,
          "duration": 0.08333324999999547
        },
        {
          "name": "F5",
          "midi": 77,
          "time": 85.58324775000014,
          "velocity": 0.7874015748031497,
          "duration": 0.08333324999999547
        },
        {
          "name": "C6",
          "midi": 84,
          "time": 85.58324775000014,
          "velocity": 0.7874015748031497,
          "duration": 0.08333324999999547
        },
        {
          "name": "F5",
          "midi": 77,
          "time": 85.66658100000014,
          "velocity": 0.7874015748031497,
          "duration": 0.16666650000000516
        },
        {
          "name": "C6",
          "midi": 84,
          "time": 85.66658100000014,
          "velocity": 0.7874015748031497,
          "duration": 0.16666650000000516
        },
        {
          "name": "F5",
          "midi": 77,
          "time": 85.83324750000014,
          "velocity": 0.7874015748031497,
          "duration": 0.16666650000000516
        },
        {
          "name": "C6",
          "midi": 84,
          "time": 85.83324750000014,
          "velocity": 0.7874015748031497,
          "duration": 0.16666650000000516
        },
        {
          "name": "F5",
          "midi": 77,
          "time": 85.99991400000015,
          "velocity": 0.7874015748031497,
          "duration": 0.16666650000000516
        },
        {
          "name": "C6",
          "midi": 84,
          "time": 85.99991400000015,
          "velocity": 0.7874015748031497,
          "duration": 0.16666650000000516
        },
        {
          "name": "C6",
          "midi": 84,
          "time": 86.16658050000015,
          "velocity": 0.7874015748031497,
          "duration": 0.16666650000000516
        },
        {
          "name": "F5",
          "midi": 77,
          "time": 86.16658050000015,
          "velocity": 0.7874015748031497,
          "duration": 0.16666650000000516
        },
        {
          "name": "F5",
          "midi": 77,
          "time": 86.33324700000016,
          "velocity": 0.7874015748031497,
          "duration": 0.16666650000000516
        },
        {
          "name": "C6",
          "midi": 84,
          "time": 86.33324700000016,
          "velocity": 0.7874015748031497,
          "duration": 0.16666650000000516
        },
        {
          "name": "F5",
          "midi": 77,
          "time": 86.49991350000016,
          "velocity": 0.7874015748031497,
          "duration": 0.08333324999999547
        },
        {
          "name": "C6",
          "midi": 84,
          "time": 86.49991350000016,
          "velocity": 0.7874015748031497,
          "duration": 0.08333324999999547
        },
        {
          "name": "F5",
          "midi": 77,
          "time": 86.58324675000016,
          "velocity": 0.7874015748031497,
          "duration": 0.08333324999999547
        },
        {
          "name": "C6",
          "midi": 84,
          "time": 86.58324675000016,
          "velocity": 0.7874015748031497,
          "duration": 0.08333324999999547
        },
        {
          "name": "D5",
          "midi": 74,
          "time": 86.66658000000015,
          "velocity": 0.7874015748031497,
          "duration": 0.16666650000000516
        },
        {
          "name": "G4",
          "midi": 67,
          "time": 86.66658000000015,
          "velocity": 0.7874015748031497,
          "duration": 0.16666650000000516
        },
        {
          "name": "D5",
          "midi": 74,
          "time": 86.83324650000016,
          "velocity": 0.7874015748031497,
          "duration": 0.08333324999999547
        },
        {
          "name": "G4",
          "midi": 67,
          "time": 86.83324650000016,
          "velocity": 0.7874015748031497,
          "duration": 0.08333324999999547
        },
        {
          "name": "D5",
          "midi": 74,
          "time": 86.91657975000015,
          "velocity": 0.7874015748031497,
          "duration": 0.08333324999999547
        },
        {
          "name": "G4",
          "midi": 67,
          "time": 86.91657975000015,
          "velocity": 0.7874015748031497,
          "duration": 0.08333324999999547
        },
        {
          "name": "G4",
          "midi": 67,
          "time": 86.99991300000015,
          "velocity": 0.7874015748031497,
          "duration": 0.16666650000000516
        },
        {
          "name": "D5",
          "midi": 74,
          "time": 86.99991300000015,
          "velocity": 0.7874015748031497,
          "duration": 0.16666650000000516
        },
        {
          "name": "D5",
          "midi": 74,
          "time": 87.16657950000015,
          "velocity": 0.7874015748031497,
          "duration": 0.16666650000000516
        },
        {
          "name": "G4",
          "midi": 67,
          "time": 87.16657950000015,
          "velocity": 0.7874015748031497,
          "duration": 0.16666650000000516
        },
        {
          "name": "D5",
          "midi": 74,
          "time": 87.33324600000016,
          "velocity": 0.7874015748031497,
          "duration": 0.16666650000000516
        },
        {
          "name": "G4",
          "midi": 67,
          "time": 87.33324600000016,
          "velocity": 0.7874015748031497,
          "duration": 0.16666650000000516
        },
        {
          "name": "D5",
          "midi": 74,
          "time": 87.49991250000016,
          "velocity": 0.7874015748031497,
          "duration": 0.16666650000000516
        },
        {
          "name": "G4",
          "midi": 67,
          "time": 87.49991250000016,
          "velocity": 0.7874015748031497,
          "duration": 0.16666650000000516
        },
        {
          "name": "D5",
          "midi": 74,
          "time": 87.66657900000017,
          "velocity": 0.7874015748031497,
          "duration": 0.16666650000000516
        },
        {
          "name": "G4",
          "midi": 67,
          "time": 87.66657900000017,
          "velocity": 0.7874015748031497,
          "duration": 0.16666650000000516
        },
        {
          "name": "D5",
          "midi": 74,
          "time": 87.83324550000017,
          "velocity": 0.7874015748031497,
          "duration": 0.08333324999999547
        },
        {
          "name": "G4",
          "midi": 67,
          "time": 87.83324550000017,
          "velocity": 0.7874015748031497,
          "duration": 0.08333324999999547
        },
        {
          "name": "G4",
          "midi": 67,
          "time": 87.91657875000017,
          "velocity": 0.7874015748031497,
          "duration": 0.08333324999999547
        },
        {
          "name": "D5",
          "midi": 74,
          "time": 87.91657875000017,
          "velocity": 0.7874015748031497,
          "duration": 0.08333324999999547
        },
        {
          "name": "D5",
          "midi": 74,
          "time": 87.99991200000017,
          "velocity": 0.7874015748031497,
          "duration": 0.16666650000000516
        },
        {
          "name": "A5",
          "midi": 81,
          "time": 87.99991200000017,
          "velocity": 0.7874015748031497,
          "duration": 0.16666650000000516
        },
        {
          "name": "A5",
          "midi": 81,
          "time": 88.16657850000017,
          "velocity": 0.7874015748031497,
          "duration": 0.08333324999999547
        },
        {
          "name": "D5",
          "midi": 74,
          "time": 88.16657850000017,
          "velocity": 0.7874015748031497,
          "duration": 0.08333324999999547
        },
        {
          "name": "D5",
          "midi": 74,
          "time": 88.24991175000017,
          "velocity": 0.7874015748031497,
          "duration": 0.08333324999999547
        },
        {
          "name": "A5",
          "midi": 81,
          "time": 88.24991175000017,
          "velocity": 0.7874015748031497,
          "duration": 0.08333324999999547
        },
        {
          "name": "D5",
          "midi": 74,
          "time": 88.33324500000016,
          "velocity": 0.7874015748031497,
          "duration": 0.16666650000000516
        },
        {
          "name": "A5",
          "midi": 81,
          "time": 88.33324500000016,
          "velocity": 0.7874015748031497,
          "duration": 0.16666650000000516
        },
        {
          "name": "D5",
          "midi": 74,
          "time": 88.49991150000017,
          "velocity": 0.7874015748031497,
          "duration": 0.16666650000000516
        },
        {
          "name": "A5",
          "midi": 81,
          "time": 88.49991150000017,
          "velocity": 0.7874015748031497,
          "duration": 0.16666650000000516
        },
        {
          "name": "D5",
          "midi": 74,
          "time": 88.66657800000017,
          "velocity": 0.7874015748031497,
          "duration": 0.16666650000000516
        },
        {
          "name": "A5",
          "midi": 81,
          "time": 88.66657800000017,
          "velocity": 0.7874015748031497,
          "duration": 0.16666650000000516
        },
        {
          "name": "D5",
          "midi": 74,
          "time": 88.83324450000018,
          "velocity": 0.7874015748031497,
          "duration": 0.16666650000000516
        },
        {
          "name": "A5",
          "midi": 81,
          "time": 88.83324450000018,
          "velocity": 0.7874015748031497,
          "duration": 0.16666650000000516
        },
        {
          "name": "A5",
          "midi": 81,
          "time": 88.99991100000018,
          "velocity": 0.7874015748031497,
          "duration": 0.16666650000000516
        },
        {
          "name": "D5",
          "midi": 74,
          "time": 88.99991100000018,
          "velocity": 0.7874015748031497,
          "duration": 0.16666650000000516
        },
        {
          "name": "A5",
          "midi": 81,
          "time": 89.16657750000019,
          "velocity": 0.7874015748031497,
          "duration": 0.08333324999999547
        },
        {
          "name": "D5",
          "midi": 74,
          "time": 89.16657750000019,
          "velocity": 0.7874015748031497,
          "duration": 0.08333324999999547
        },
        {
          "name": "D5",
          "midi": 74,
          "time": 89.24991075000018,
          "velocity": 0.7874015748031497,
          "duration": 0.08333324999999547
        },
        {
          "name": "A5",
          "midi": 81,
          "time": 89.24991075000018,
          "velocity": 0.7874015748031497,
          "duration": 0.08333324999999547
        },
        {
          "name": "D#5",
          "midi": 75,
          "time": 89.33324400000018,
          "velocity": 0.7874015748031497,
          "duration": 0.16666650000000516
        },
        {
          "name": "A#5",
          "midi": 82,
          "time": 89.33324400000018,
          "velocity": 0.7874015748031497,
          "duration": 0.16666650000000516
        },
        {
          "name": "A#5",
          "midi": 82,
          "time": 89.49991050000018,
          "velocity": 0.7874015748031497,
          "duration": 0.08333324999999547
        },
        {
          "name": "D#5",
          "midi": 75,
          "time": 89.49991050000018,
          "velocity": 0.7874015748031497,
          "duration": 0.08333324999999547
        },
        {
          "name": "A#5",
          "midi": 82,
          "time": 89.58324375000018,
          "velocity": 0.7874015748031497,
          "duration": 0.08333324999999547
        },
        {
          "name": "D#5",
          "midi": 75,
          "time": 89.58324375000018,
          "velocity": 0.7874015748031497,
          "duration": 0.08333324999999547
        },
        {
          "name": "A#5",
          "midi": 82,
          "time": 89.66657700000017,
          "velocity": 0.7874015748031497,
          "duration": 0.16666650000000516
        },
        {
          "name": "D#5",
          "midi": 75,
          "time": 89.66657700000017,
          "velocity": 0.7874015748031497,
          "duration": 0.16666650000000516
        },
        {
          "name": "A#5",
          "midi": 82,
          "time": 89.83324350000018,
          "velocity": 0.7874015748031497,
          "duration": 0.16666650000000516
        },
        {
          "name": "D#5",
          "midi": 75,
          "time": 89.83324350000018,
          "velocity": 0.7874015748031497,
          "duration": 0.16666650000000516
        },
        {
          "name": "A#5",
          "midi": 82,
          "time": 89.99991000000018,
          "velocity": 0.7874015748031497,
          "duration": 0.16666650000000516
        },
        {
          "name": "D#5",
          "midi": 75,
          "time": 89.99991000000018,
          "velocity": 0.7874015748031497,
          "duration": 0.16666650000000516
        },
        {
          "name": "D#5",
          "midi": 75,
          "time": 90.16657650000019,
          "velocity": 0.7874015748031497,
          "duration": 0.16666650000000516
        },
        {
          "name": "A#5",
          "midi": 82,
          "time": 90.16657650000019,
          "velocity": 0.7874015748031497,
          "duration": 0.16666650000000516
        },
        {
          "name": "A#5",
          "midi": 82,
          "time": 90.3332430000002,
          "velocity": 0.7874015748031497,
          "duration": 0.16666650000000516
        },
        {
          "name": "D#5",
          "midi": 75,
          "time": 90.3332430000002,
          "velocity": 0.7874015748031497,
          "duration": 0.16666650000000516
        },
        {
          "name": "D#5",
          "midi": 75,
          "time": 90.4999095000002,
          "velocity": 0.7874015748031497,
          "duration": 0.08333324999999547
        },
        {
          "name": "A#5",
          "midi": 82,
          "time": 90.4999095000002,
          "velocity": 0.7874015748031497,
          "duration": 0.08333324999999547
        },
        {
          "name": "A#5",
          "midi": 82,
          "time": 90.5832427500002,
          "velocity": 0.7874015748031497,
          "duration": 0.08333324999999547
        },
        {
          "name": "D#5",
          "midi": 75,
          "time": 90.5832427500002,
          "velocity": 0.7874015748031497,
          "duration": 0.08333324999999547
        },
        {
          "name": "F5",
          "midi": 77,
          "time": 90.66657600000019,
          "velocity": 0.7874015748031497,
          "duration": 0.16666650000000516
        },
        {
          "name": "C6",
          "midi": 84,
          "time": 90.66657600000019,
          "velocity": 0.7874015748031497,
          "duration": 0.16666650000000516
        },
        {
          "name": "C6",
          "midi": 84,
          "time": 90.8332425000002,
          "velocity": 0.7874015748031497,
          "duration": 0.08333324999999547
        },
        {
          "name": "F5",
          "midi": 77,
          "time": 90.8332425000002,
          "velocity": 0.7874015748031497,
          "duration": 0.08333324999999547
        },
        {
          "name": "F5",
          "midi": 77,
          "time": 90.91657575000019,
          "velocity": 0.7874015748031497,
          "duration": 0.08333324999999547
        },
        {
          "name": "C6",
          "midi": 84,
          "time": 90.91657575000019,
          "velocity": 0.7874015748031497,
          "duration": 0.08333324999999547
        },
        {
          "name": "C6",
          "midi": 84,
          "time": 90.99990900000019,
          "velocity": 0.7874015748031497,
          "duration": 0.16666650000000516
        },
        {
          "name": "F5",
          "midi": 77,
          "time": 90.99990900000019,
          "velocity": 0.7874015748031497,
          "duration": 0.16666650000000516
        },
        {
          "name": "F5",
          "midi": 77,
          "time": 91.16657550000019,
          "velocity": 0.7874015748031497,
          "duration": 0.16666650000000516
        },
        {
          "name": "C6",
          "midi": 84,
          "time": 91.16657550000019,
          "velocity": 0.7874015748031497,
          "duration": 0.16666650000000516
        },
        {
          "name": "F5",
          "midi": 77,
          "time": 91.3332420000002,
          "velocity": 0.7874015748031497,
          "duration": 0.16666650000000516
        },
        {
          "name": "C6",
          "midi": 84,
          "time": 91.3332420000002,
          "velocity": 0.7874015748031497,
          "duration": 0.16666650000000516
        },
        {
          "name": "C6",
          "midi": 84,
          "time": 91.4999085000002,
          "velocity": 0.7874015748031497,
          "duration": 0.16666650000000516
        },
        {
          "name": "F5",
          "midi": 77,
          "time": 91.4999085000002,
          "velocity": 0.7874015748031497,
          "duration": 0.16666650000000516
        },
        {
          "name": "F5",
          "midi": 77,
          "time": 91.66657500000021,
          "velocity": 0.7874015748031497,
          "duration": 0.16666650000000516
        },
        {
          "name": "C6",
          "midi": 84,
          "time": 91.66657500000021,
          "velocity": 0.7874015748031497,
          "duration": 0.16666650000000516
        },
        {
          "name": "C6",
          "midi": 84,
          "time": 91.83324150000021,
          "velocity": 0.7874015748031497,
          "duration": 0.08333324999999547
        },
        {
          "name": "F5",
          "midi": 77,
          "time": 91.83324150000021,
          "velocity": 0.7874015748031497,
          "duration": 0.08333324999999547
        },
        {
          "name": "F5",
          "midi": 77,
          "time": 91.91657475000021,
          "velocity": 0.7874015748031497,
          "duration": 0.08333324999999547
        },
        {
          "name": "C6",
          "midi": 84,
          "time": 91.91657475000021,
          "velocity": 0.7874015748031497,
          "duration": 0.08333324999999547
        },
        {
          "name": "F5",
          "midi": 77,
          "time": 91.9999080000002,
          "velocity": 0.7874015748031497,
          "duration": 0.16666650000000516
        },
        {
          "name": "A#4",
          "midi": 70,
          "time": 91.9999080000002,
          "velocity": 0.7874015748031497,
          "duration": 0.16666650000000516
        },
        {
          "name": "F5",
          "midi": 77,
          "time": 92.16657450000021,
          "velocity": 0.7874015748031497,
          "duration": 0.08333324999999547
        },
        {
          "name": "A#4",
          "midi": 70,
          "time": 92.16657450000021,
          "velocity": 0.7874015748031497,
          "duration": 0.08333324999999547
        },
        {
          "name": "A#4",
          "midi": 70,
          "time": 92.2499077500002,
          "velocity": 0.7874015748031497,
          "duration": 0.08333324999999547
        },
        {
          "name": "F5",
          "midi": 77,
          "time": 92.2499077500002,
          "velocity": 0.7874015748031497,
          "duration": 0.08333324999999547
        },
        {
          "name": "A#4",
          "midi": 70,
          "time": 92.3332410000002,
          "velocity": 0.7874015748031497,
          "duration": 0.16666650000000516
        },
        {
          "name": "F5",
          "midi": 77,
          "time": 92.3332410000002,
          "velocity": 0.7874015748031497,
          "duration": 0.16666650000000516
        },
        {
          "name": "F5",
          "midi": 77,
          "time": 92.4999075000002,
          "velocity": 0.7874015748031497,
          "duration": 0.16666650000000516
        },
        {
          "name": "A#4",
          "midi": 70,
          "time": 92.4999075000002,
          "velocity": 0.7874015748031497,
          "duration": 0.16666650000000516
        },
        {
          "name": "F5",
          "midi": 77,
          "time": 92.66657400000021,
          "velocity": 0.7874015748031497,
          "duration": 0.16666650000000516
        },
        {
          "name": "A#4",
          "midi": 70,
          "time": 92.66657400000021,
          "velocity": 0.7874015748031497,
          "duration": 0.16666650000000516
        },
        {
          "name": "F5",
          "midi": 77,
          "time": 92.83324050000022,
          "velocity": 0.7874015748031497,
          "duration": 0.16666650000000516
        },
        {
          "name": "A#4",
          "midi": 70,
          "time": 92.83324050000022,
          "velocity": 0.7874015748031497,
          "duration": 0.16666650000000516
        },
        {
          "name": "F5",
          "midi": 77,
          "time": 92.99990700000022,
          "velocity": 0.7874015748031497,
          "duration": 0.16666650000000516
        },
        {
          "name": "A#4",
          "midi": 70,
          "time": 92.99990700000022,
          "velocity": 0.7874015748031497,
          "duration": 0.16666650000000516
        },
        {
          "name": "F5",
          "midi": 77,
          "time": 93.16657350000023,
          "velocity": 0.7874015748031497,
          "duration": 0.08333324999999547
        },
        {
          "name": "A#4",
          "midi": 70,
          "time": 93.16657350000023,
          "velocity": 0.7874015748031497,
          "duration": 0.08333324999999547
        },
        {
          "name": "A#4",
          "midi": 70,
          "time": 93.24990675000022,
          "velocity": 0.7874015748031497,
          "duration": 0.08333324999999547
        },
        {
          "name": "F5",
          "midi": 77,
          "time": 93.24990675000022,
          "velocity": 0.7874015748031497,
          "duration": 0.08333324999999547
        },
        {
          "name": "A#4",
          "midi": 70,
          "time": 93.33324000000022,
          "velocity": 0.7874015748031497,
          "duration": 0.16666650000000516
        },
        {
          "name": "F5",
          "midi": 77,
          "time": 93.33324000000022,
          "velocity": 0.7874015748031497,
          "duration": 0.16666650000000516
        },
        {
          "name": "F5",
          "midi": 77,
          "time": 93.49990650000022,
          "velocity": 0.7874015748031497,
          "duration": 0.08333324999999547
        },
        {
          "name": "A#4",
          "midi": 70,
          "time": 93.49990650000022,
          "velocity": 0.7874015748031497,
          "duration": 0.08333324999999547
        },
        {
          "name": "A#4",
          "midi": 70,
          "time": 93.58323975000022,
          "velocity": 0.7874015748031497,
          "duration": 0.08333324999999547
        },
        {
          "name": "F5",
          "midi": 77,
          "time": 93.58323975000022,
          "velocity": 0.7874015748031497,
          "duration": 0.08333324999999547
        },
        {
          "name": "F5",
          "midi": 77,
          "time": 93.66657300000021,
          "velocity": 0.7874015748031497,
          "duration": 0.16666650000000516
        },
        {
          "name": "A#4",
          "midi": 70,
          "time": 93.66657300000021,
          "velocity": 0.7874015748031497,
          "duration": 0.16666650000000516
        },
        {
          "name": "A#4",
          "midi": 70,
          "time": 93.83323950000022,
          "velocity": 0.7874015748031497,
          "duration": 0.16666650000000516
        },
        {
          "name": "F5",
          "midi": 77,
          "time": 93.83323950000022,
          "velocity": 0.7874015748031497,
          "duration": 0.16666650000000516
        },
        {
          "name": "F5",
          "midi": 77,
          "time": 93.99990600000022,
          "velocity": 0.7874015748031497,
          "duration": 0.16666650000000516
        },
        {
          "name": "A#4",
          "midi": 70,
          "time": 93.99990600000022,
          "velocity": 0.7874015748031497,
          "duration": 0.16666650000000516
        },
        {
          "name": "F5",
          "midi": 77,
          "time": 94.16657250000023,
          "velocity": 0.7874015748031497,
          "duration": 0.16666650000000516
        },
        {
          "name": "A#4",
          "midi": 70,
          "time": 94.16657250000023,
          "velocity": 0.7874015748031497,
          "duration": 0.16666650000000516
        },
        {
          "name": "A#4",
          "midi": 70,
          "time": 94.33323900000023,
          "velocity": 0.7874015748031497,
          "duration": 0.16666650000000516
        },
        {
          "name": "F5",
          "midi": 77,
          "time": 94.33323900000023,
          "velocity": 0.7874015748031497,
          "duration": 0.16666650000000516
        },
        {
          "name": "F5",
          "midi": 77,
          "time": 94.49990550000024,
          "velocity": 0.7874015748031497,
          "duration": 0.08333324999999547
        },
        {
          "name": "A#4",
          "midi": 70,
          "time": 94.49990550000024,
          "velocity": 0.7874015748031497,
          "duration": 0.08333324999999547
        },
        {
          "name": "A#4",
          "midi": 70,
          "time": 94.58323875000023,
          "velocity": 0.7874015748031497,
          "duration": 0.08333324999999547
        },
        {
          "name": "F5",
          "midi": 77,
          "time": 94.58323875000023,
          "velocity": 0.7874015748031497,
          "duration": 0.08333324999999547
        },
        {
          "name": "G4",
          "midi": 67,
          "time": 94.66657200000023,
          "velocity": 0.7874015748031497,
          "duration": 0.16666650000000516
        },
        {
          "name": "D5",
          "midi": 74,
          "time": 94.66657200000023,
          "velocity": 0.7874015748031497,
          "duration": 0.16666650000000516
        },
        {
          "name": "D5",
          "midi": 74,
          "time": 94.83323850000023,
          "velocity": 0.7874015748031497,
          "duration": 0.08333324999999547
        },
        {
          "name": "G4",
          "midi": 67,
          "time": 94.83323850000023,
          "velocity": 0.7874015748031497,
          "duration": 0.08333324999999547
        },
        {
          "name": "D5",
          "midi": 74,
          "time": 94.91657175000023,
          "velocity": 0.7874015748031497,
          "duration": 0.08333324999999547
        },
        {
          "name": "G4",
          "midi": 67,
          "time": 94.91657175000023,
          "velocity": 0.7874015748031497,
          "duration": 0.08333324999999547
        },
        {
          "name": "G4",
          "midi": 67,
          "time": 94.99990500000023,
          "velocity": 0.7874015748031497,
          "duration": 0.16666650000000516
        },
        {
          "name": "D5",
          "midi": 74,
          "time": 94.99990500000023,
          "velocity": 0.7874015748031497,
          "duration": 0.16666650000000516
        },
        {
          "name": "G4",
          "midi": 67,
          "time": 95.16657150000023,
          "velocity": 0.7874015748031497,
          "duration": 0.16666650000000516
        },
        {
          "name": "D5",
          "midi": 74,
          "time": 95.16657150000023,
          "velocity": 0.7874015748031497,
          "duration": 0.16666650000000516
        },
        {
          "name": "G4",
          "midi": 67,
          "time": 95.33323800000024,
          "velocity": 0.7874015748031497,
          "duration": 0.16666650000000516
        },
        {
          "name": "D5",
          "midi": 74,
          "time": 95.33323800000024,
          "velocity": 0.7874015748031497,
          "duration": 0.16666650000000516
        },
        {
          "name": "G4",
          "midi": 67,
          "time": 95.49990450000024,
          "velocity": 0.7874015748031497,
          "duration": 0.16666650000000516
        },
        {
          "name": "D5",
          "midi": 74,
          "time": 95.49990450000024,
          "velocity": 0.7874015748031497,
          "duration": 0.16666650000000516
        },
        {
          "name": "D5",
          "midi": 74,
          "time": 95.66657100000025,
          "velocity": 0.7874015748031497,
          "duration": 0.16666650000000516
        },
        {
          "name": "G4",
          "midi": 67,
          "time": 95.66657100000025,
          "velocity": 0.7874015748031497,
          "duration": 0.16666650000000516
        },
        {
          "name": "D5",
          "midi": 74,
          "time": 95.83323750000025,
          "velocity": 0.7874015748031497,
          "duration": 0.08333324999999547
        },
        {
          "name": "G4",
          "midi": 67,
          "time": 95.83323750000025,
          "velocity": 0.7874015748031497,
          "duration": 0.08333324999999547
        },
        {
          "name": "D5",
          "midi": 74,
          "time": 95.91657075000025,
          "velocity": 0.7874015748031497,
          "duration": 0.08333324999999547
        },
        {
          "name": "G4",
          "midi": 67,
          "time": 95.91657075000025,
          "velocity": 0.7874015748031497,
          "duration": 0.08333324999999547
        },
        {
          "name": "D#5",
          "midi": 75,
          "time": 95.99990400000024,
          "velocity": 0.7874015748031497,
          "duration": 0.16666650000000516
        },
        {
          "name": "A#5",
          "midi": 82,
          "time": 95.99990400000024,
          "velocity": 0.7874015748031497,
          "duration": 0.16666650000000516
        },
        {
          "name": "A#5",
          "midi": 82,
          "time": 96.16657050000025,
          "velocity": 0.7874015748031497,
          "duration": 0.08333324999999547
        },
        {
          "name": "D#5",
          "midi": 75,
          "time": 96.16657050000025,
          "velocity": 0.7874015748031497,
          "duration": 0.08333324999999547
        },
        {
          "name": "A#5",
          "midi": 82,
          "time": 96.24990375000024,
          "velocity": 0.7874015748031497,
          "duration": 0.08333324999999547
        },
        {
          "name": "D#5",
          "midi": 75,
          "time": 96.24990375000024,
          "velocity": 0.7874015748031497,
          "duration": 0.08333324999999547
        },
        {
          "name": "A#5",
          "midi": 82,
          "time": 96.33323700000024,
          "velocity": 0.7874015748031497,
          "duration": 0.16666650000000516
        },
        {
          "name": "D#5",
          "midi": 75,
          "time": 96.33323700000024,
          "velocity": 0.7874015748031497,
          "duration": 0.16666650000000516
        },
        {
          "name": "A#5",
          "midi": 82,
          "time": 96.49990350000024,
          "velocity": 0.7874015748031497,
          "duration": 0.16666650000000516
        },
        {
          "name": "D#5",
          "midi": 75,
          "time": 96.49990350000024,
          "velocity": 0.7874015748031497,
          "duration": 0.16666650000000516
        },
        {
          "name": "D#5",
          "midi": 75,
          "time": 96.66657000000025,
          "velocity": 0.7874015748031497,
          "duration": 0.16666650000000516
        },
        {
          "name": "A#5",
          "midi": 82,
          "time": 96.66657000000025,
          "velocity": 0.7874015748031497,
          "duration": 0.16666650000000516
        },
        {
          "name": "A#5",
          "midi": 82,
          "time": 96.83323650000025,
          "velocity": 0.7874015748031497,
          "duration": 0.16666650000000516
        },
        {
          "name": "D#5",
          "midi": 75,
          "time": 96.83323650000025,
          "velocity": 0.7874015748031497,
          "duration": 0.16666650000000516
        },
        {
          "name": "A#5",
          "midi": 82,
          "time": 96.99990300000026,
          "velocity": 0.7874015748031497,
          "duration": 0.16666650000000516
        },
        {
          "name": "D#5",
          "midi": 75,
          "time": 96.99990300000026,
          "velocity": 0.7874015748031497,
          "duration": 0.16666650000000516
        },
        {
          "name": "A#5",
          "midi": 82,
          "time": 97.16656950000026,
          "velocity": 0.7874015748031497,
          "duration": 0.08333324999999547
        },
        {
          "name": "D#5",
          "midi": 75,
          "time": 97.16656950000026,
          "velocity": 0.7874015748031497,
          "duration": 0.08333324999999547
        },
        {
          "name": "A#5",
          "midi": 82,
          "time": 97.24990275000026,
          "velocity": 0.7874015748031497,
          "duration": 0.08333324999999547
        },
        {
          "name": "D#5",
          "midi": 75,
          "time": 97.24990275000026,
          "velocity": 0.7874015748031497,
          "duration": 0.08333324999999547
        },
        {
          "name": "C6",
          "midi": 84,
          "time": 97.33323600000026,
          "velocity": 0.7874015748031497,
          "duration": 0.16666650000000516
        },
        {
          "name": "F5",
          "midi": 77,
          "time": 97.33323600000026,
          "velocity": 0.7874015748031497,
          "duration": 0.16666650000000516
        },
        {
          "name": "C6",
          "midi": 84,
          "time": 97.49990250000026,
          "velocity": 0.7874015748031497,
          "duration": 0.16666650000000516
        },
        {
          "name": "F5",
          "midi": 77,
          "time": 97.49990250000026,
          "velocity": 0.7874015748031497,
          "duration": 0.16666650000000516
        },
        {
          "name": "C6",
          "midi": 84,
          "time": 97.66656900000027,
          "velocity": 0.7874015748031497,
          "duration": 0.3333329999999961
        },
        {
          "name": "F5",
          "midi": 77,
          "time": 97.66656900000027,
          "velocity": 0.7874015748031497,
          "duration": 0.3333329999999961
        },
        {
          "name": "C6",
          "midi": 84,
          "time": 97.99990200000026,
          "velocity": 0.7874015748031497,
          "duration": 0.16666650000000516
        },
        {
          "name": "F#5",
          "midi": 78,
          "time": 97.99990200000026,
          "velocity": 0.7874015748031497,
          "duration": 0.16666650000000516
        },
        {
          "name": "C6",
          "midi": 84,
          "time": 98.16656850000027,
          "velocity": 0.7874015748031497,
          "duration": 0.08333324999999547
        },
        {
          "name": "F#5",
          "midi": 78,
          "time": 98.16656850000027,
          "velocity": 0.7874015748031497,
          "duration": 0.08333324999999547
        },
        {
          "name": "C6",
          "midi": 84,
          "time": 98.24990175000026,
          "velocity": 0.7874015748031497,
          "duration": 0.08333324999999547
        },
        {
          "name": "F#5",
          "midi": 78,
          "time": 98.24990175000026,
          "velocity": 0.7874015748031497,
          "duration": 0.08333324999999547
        },
        {
          "name": "F#5",
          "midi": 78,
          "time": 98.33323500000026,
          "velocity": 0.7874015748031497,
          "duration": 0.16666650000000516
        },
        {
          "name": "C6",
          "midi": 84,
          "time": 98.33323500000026,
          "velocity": 0.7874015748031497,
          "duration": 0.16666650000000516
        },
        {
          "name": "F#5",
          "midi": 78,
          "time": 98.49990150000026,
          "velocity": 0.7874015748031497,
          "duration": 0.16666650000000516
        },
        {
          "name": "C6",
          "midi": 84,
          "time": 98.49990150000026,
          "velocity": 0.7874015748031497,
          "duration": 0.16666650000000516
        },
        {
          "name": "G4",
          "midi": 67,
          "time": 98.66656800000027,
          "velocity": 0.7874015748031497,
          "duration": 0.16666650000000516
        },
        {
          "name": "D5",
          "midi": 74,
          "time": 98.66656800000027,
          "velocity": 0.7874015748031497,
          "duration": 0.16666650000000516
        },
        {
          "name": "G4",
          "midi": 67,
          "time": 98.83323450000027,
          "velocity": 0.7874015748031497,
          "duration": 0.08333324999999547
        },
        {
          "name": "D5",
          "midi": 74,
          "time": 98.83323450000027,
          "velocity": 0.7874015748031497,
          "duration": 0.08333324999999547
        },
        {
          "name": "D5",
          "midi": 74,
          "time": 98.91656775000027,
          "velocity": 0.7874015748031497,
          "duration": 0.08333324999999547
        },
        {
          "name": "G4",
          "midi": 67,
          "time": 98.91656775000027,
          "velocity": 0.7874015748031497,
          "duration": 0.08333324999999547
        },
        {
          "name": "G4",
          "midi": 67,
          "time": 98.99990100000026,
          "velocity": 0.7874015748031497,
          "duration": 0.16666650000000516
        },
        {
          "name": "D5",
          "midi": 74,
          "time": 98.99990100000026,
          "velocity": 0.7874015748031497,
          "duration": 0.16666650000000516
        },
        {
          "name": "G4",
          "midi": 67,
          "time": 99.16656750000027,
          "velocity": 0.7874015748031497,
          "duration": 0.16666650000000516
        },
        {
          "name": "D5",
          "midi": 74,
          "time": 99.16656750000027,
          "velocity": 0.7874015748031497,
          "duration": 0.16666650000000516
        },
        {
          "name": "D5",
          "midi": 74,
          "time": 99.33323400000027,
          "velocity": 0.7874015748031497,
          "duration": 0.16666650000000516
        },
        {
          "name": "G4",
          "midi": 67,
          "time": 99.33323400000027,
          "velocity": 0.7874015748031497,
          "duration": 0.16666650000000516
        },
        {
          "name": "G4",
          "midi": 67,
          "time": 99.49990050000028,
          "velocity": 0.7874015748031497,
          "duration": 0.16666650000000516
        },
        {
          "name": "D5",
          "midi": 74,
          "time": 99.49990050000028,
          "velocity": 0.7874015748031497,
          "duration": 0.16666650000000516
        },
        {
          "name": "G4",
          "midi": 67,
          "time": 99.66656700000028,
          "velocity": 0.7874015748031497,
          "duration": 0.16666650000000516
        },
        {
          "name": "D5",
          "midi": 74,
          "time": 99.66656700000028,
          "velocity": 0.7874015748031497,
          "duration": 0.16666650000000516
        },
        {
          "name": "G4",
          "midi": 67,
          "time": 99.83323350000029,
          "velocity": 0.7874015748031497,
          "duration": 0.08333324999999547
        },
        {
          "name": "D5",
          "midi": 74,
          "time": 99.83323350000029,
          "velocity": 0.7874015748031497,
          "duration": 0.08333324999999547
        },
        {
          "name": "G4",
          "midi": 67,
          "time": 99.91656675000029,
          "velocity": 0.7874015748031497,
          "duration": 0.08333324999999547
        },
        {
          "name": "D5",
          "midi": 74,
          "time": 99.91656675000029,
          "velocity": 0.7874015748031497,
          "duration": 0.08333324999999547
        },
        {
          "name": "A#5",
          "midi": 82,
          "time": 99.99990000000028,
          "velocity": 0.7874015748031497,
          "duration": 0.16666650000000516
        },
        {
          "name": "D#5",
          "midi": 75,
          "time": 99.99990000000028,
          "velocity": 0.7874015748031497,
          "duration": 0.16666650000000516
        },
        {
          "name": "D#5",
          "midi": 75,
          "time": 100.16656650000029,
          "velocity": 0.7874015748031497,
          "duration": 0.08333324999999547
        },
        {
          "name": "A#5",
          "midi": 82,
          "time": 100.16656650000029,
          "velocity": 0.7874015748031497,
          "duration": 0.08333324999999547
        },
        {
          "name": "A#5",
          "midi": 82,
          "time": 100.24989975000028,
          "velocity": 0.7874015748031497,
          "duration": 0.08333324999999547
        },
        {
          "name": "D#5",
          "midi": 75,
          "time": 100.24989975000028,
          "velocity": 0.7874015748031497,
          "duration": 0.08333324999999547
        },
        {
          "name": "A#5",
          "midi": 82,
          "time": 100.33323300000028,
          "velocity": 0.7874015748031497,
          "duration": 0.16666650000000516
        },
        {
          "name": "D#5",
          "midi": 75,
          "time": 100.33323300000028,
          "velocity": 0.7874015748031497,
          "duration": 0.16666650000000516
        },
        {
          "name": "D#5",
          "midi": 75,
          "time": 100.49989950000028,
          "velocity": 0.7874015748031497,
          "duration": 0.16666650000000516
        },
        {
          "name": "A#5",
          "midi": 82,
          "time": 100.49989950000028,
          "velocity": 0.7874015748031497,
          "duration": 0.16666650000000516
        },
        {
          "name": "A#5",
          "midi": 82,
          "time": 100.66656600000029,
          "velocity": 0.7874015748031497,
          "duration": 0.16666650000000516
        },
        {
          "name": "D#5",
          "midi": 75,
          "time": 100.66656600000029,
          "velocity": 0.7874015748031497,
          "duration": 0.16666650000000516
        },
        {
          "name": "A#5",
          "midi": 82,
          "time": 100.83323250000029,
          "velocity": 0.7874015748031497,
          "duration": 0.16666650000000516
        },
        {
          "name": "D#5",
          "midi": 75,
          "time": 100.83323250000029,
          "velocity": 0.7874015748031497,
          "duration": 0.16666650000000516
        },
        {
          "name": "A#5",
          "midi": 82,
          "time": 100.9998990000003,
          "velocity": 0.7874015748031497,
          "duration": 0.16666650000000516
        },
        {
          "name": "D#5",
          "midi": 75,
          "time": 100.9998990000003,
          "velocity": 0.7874015748031497,
          "duration": 0.16666650000000516
        },
        {
          "name": "D#5",
          "midi": 75,
          "time": 101.1665655000003,
          "velocity": 0.7874015748031497,
          "duration": 0.08333324999999547
        },
        {
          "name": "A#5",
          "midi": 82,
          "time": 101.1665655000003,
          "velocity": 0.7874015748031497,
          "duration": 0.08333324999999547
        },
        {
          "name": "A#5",
          "midi": 82,
          "time": 101.2498987500003,
          "velocity": 0.7874015748031497,
          "duration": 0.08333324999999547
        },
        {
          "name": "D#5",
          "midi": 75,
          "time": 101.2498987500003,
          "velocity": 0.7874015748031497,
          "duration": 0.08333324999999547
        },
        {
          "name": "A#5",
          "midi": 82,
          "time": 101.3332320000003,
          "velocity": 0.7874015748031497,
          "duration": 0.16666650000000516
        },
        {
          "name": "E5",
          "midi": 76,
          "time": 101.3332320000003,
          "velocity": 0.7874015748031497,
          "duration": 0.16666650000000516
        },
        {
          "name": "E5",
          "midi": 76,
          "time": 101.4998985000003,
          "velocity": 0.7874015748031497,
          "duration": 0.08333324999999547
        },
        {
          "name": "A#5",
          "midi": 82,
          "time": 101.4998985000003,
          "velocity": 0.7874015748031497,
          "duration": 0.08333324999999547
        },
        {
          "name": "A#5",
          "midi": 82,
          "time": 101.5832317500003,
          "velocity": 0.7874015748031497,
          "duration": 0.08333324999999547
        },
        {
          "name": "E5",
          "midi": 76,
          "time": 101.5832317500003,
          "velocity": 0.7874015748031497,
          "duration": 0.08333324999999547
        },
        {
          "name": "A#5",
          "midi": 82,
          "time": 101.66656500000029,
          "velocity": 0.7874015748031497,
          "duration": 0.16666650000000516
        },
        {
          "name": "E5",
          "midi": 76,
          "time": 101.66656500000029,
          "velocity": 0.7874015748031497,
          "duration": 0.16666650000000516
        },
        {
          "name": "E5",
          "midi": 76,
          "time": 101.8332315000003,
          "velocity": 0.7874015748031497,
          "duration": 0.16666650000000516
        },
        {
          "name": "A#5",
          "midi": 82,
          "time": 101.8332315000003,
          "velocity": 0.7874015748031497,
          "duration": 0.16666650000000516
        },
        {
          "name": "E5",
          "midi": 76,
          "time": 101.9998980000003,
          "velocity": 0.7874015748031497,
          "duration": 0.16666650000000516
        },
        {
          "name": "A#5",
          "midi": 82,
          "time": 101.9998980000003,
          "velocity": 0.7874015748031497,
          "duration": 0.16666650000000516
        },
        {
          "name": "A#5",
          "midi": 82,
          "time": 102.1665645000003,
          "velocity": 0.7874015748031497,
          "duration": 0.16666650000000516
        },
        {
          "name": "E5",
          "midi": 76,
          "time": 102.1665645000003,
          "velocity": 0.7874015748031497,
          "duration": 0.16666650000000516
        },
        {
          "name": "A#5",
          "midi": 82,
          "time": 102.33323100000031,
          "velocity": 0.7874015748031497,
          "duration": 0.16666650000000516
        },
        {
          "name": "E5",
          "midi": 76,
          "time": 102.33323100000031,
          "velocity": 0.7874015748031497,
          "duration": 0.16666650000000516
        },
        {
          "name": "E5",
          "midi": 76,
          "time": 102.49989750000032,
          "velocity": 0.7874015748031497,
          "duration": 0.08333324999999547
        },
        {
          "name": "A#5",
          "midi": 82,
          "time": 102.49989750000032,
          "velocity": 0.7874015748031497,
          "duration": 0.08333324999999547
        },
        {
          "name": "A#5",
          "midi": 82,
          "time": 102.58323075000031,
          "velocity": 0.7874015748031497,
          "duration": 0.08333324999999547
        },
        {
          "name": "E5",
          "midi": 76,
          "time": 102.58323075000031,
          "velocity": 0.7874015748031497,
          "duration": 0.08333324999999547
        },
        {
          "name": "C6",
          "midi": 84,
          "time": 102.6665640000003,
          "velocity": 0.7874015748031497,
          "duration": 0.16666650000000516
        },
        {
          "name": "F5",
          "midi": 77,
          "time": 102.6665640000003,
          "velocity": 0.7874015748031497,
          "duration": 0.16666650000000516
        },
        {
          "name": "C6",
          "midi": 84,
          "time": 102.83323050000031,
          "velocity": 0.7874015748031497,
          "duration": 0.08333324999999547
        },
        {
          "name": "F5",
          "midi": 77,
          "time": 102.83323050000031,
          "velocity": 0.7874015748031497,
          "duration": 0.08333324999999547
        },
        {
          "name": "F5",
          "midi": 77,
          "time": 102.91656375000031,
          "velocity": 0.7874015748031497,
          "duration": 0.08333324999999547
        },
        {
          "name": "C6",
          "midi": 84,
          "time": 102.91656375000031,
          "velocity": 0.7874015748031497,
          "duration": 0.08333324999999547
        },
        {
          "name": "F5",
          "midi": 77,
          "time": 102.9998970000003,
          "velocity": 0.7874015748031497,
          "duration": 0.16666650000000516
        },
        {
          "name": "C6",
          "midi": 84,
          "time": 102.9998970000003,
          "velocity": 0.7874015748031497,
          "duration": 0.16666650000000516
        },
        {
          "name": "C6",
          "midi": 84,
          "time": 103.16656350000031,
          "velocity": 0.7874015748031497,
          "duration": 0.16666650000000516
        },
        {
          "name": "F5",
          "midi": 77,
          "time": 103.16656350000031,
          "velocity": 0.7874015748031497,
          "duration": 0.16666650000000516
        },
        {
          "name": "F5",
          "midi": 77,
          "time": 103.33323000000031,
          "velocity": 0.7874015748031497,
          "duration": 0.16666650000000516
        },
        {
          "name": "C6",
          "midi": 84,
          "time": 103.33323000000031,
          "velocity": 0.7874015748031497,
          "duration": 0.16666650000000516
        },
        {
          "name": "C6",
          "midi": 84,
          "time": 103.49989650000032,
          "velocity": 0.7874015748031497,
          "duration": 0.16666650000000516
        },
        {
          "name": "F5",
          "midi": 77,
          "time": 103.49989650000032,
          "velocity": 0.7874015748031497,
          "duration": 0.16666650000000516
        },
        {
          "name": "F5",
          "midi": 77,
          "time": 103.66656300000032,
          "velocity": 0.7874015748031497,
          "duration": 0.16666650000000516
        },
        {
          "name": "C6",
          "midi": 84,
          "time": 103.66656300000032,
          "velocity": 0.7874015748031497,
          "duration": 0.16666650000000516
        },
        {
          "name": "C6",
          "midi": 84,
          "time": 103.83322950000033,
          "velocity": 0.7874015748031497,
          "duration": 0.08333324999999547
        },
        {
          "name": "F5",
          "midi": 77,
          "time": 103.83322950000033,
          "velocity": 0.7874015748031497,
          "duration": 0.08333324999999547
        },
        {
          "name": "F5",
          "midi": 77,
          "time": 103.91656275000032,
          "velocity": 0.7874015748031497,
          "duration": 0.08333324999999547
        },
        {
          "name": "C6",
          "midi": 84,
          "time": 103.91656275000032,
          "velocity": 0.7874015748031497,
          "duration": 0.08333324999999547
        },
        {
          "name": "F5",
          "midi": 77,
          "time": 103.99989600000032,
          "velocity": 0.7874015748031497,
          "duration": 0.16666650000000516
        },
        {
          "name": "C6",
          "midi": 84,
          "time": 103.99989600000032,
          "velocity": 0.7874015748031497,
          "duration": 0.16666650000000516
        },
        {
          "name": "F5",
          "midi": 77,
          "time": 104.16656250000032,
          "velocity": 0.7874015748031497,
          "duration": 0.08333324999999547
        },
        {
          "name": "C6",
          "midi": 84,
          "time": 104.16656250000032,
          "velocity": 0.7874015748031497,
          "duration": 0.08333324999999547
        },
        {
          "name": "C6",
          "midi": 84,
          "time": 104.24989575000032,
          "velocity": 0.7874015748031497,
          "duration": 0.08333324999999547
        },
        {
          "name": "F5",
          "midi": 77,
          "time": 104.24989575000032,
          "velocity": 0.7874015748031497,
          "duration": 0.08333324999999547
        },
        {
          "name": "C6",
          "midi": 84,
          "time": 104.33322900000032,
          "velocity": 0.7874015748031497,
          "duration": 0.08333324999999547
        },
        {
          "name": "F5",
          "midi": 77,
          "time": 104.33322900000032,
          "velocity": 0.7874015748031497,
          "duration": 0.08333324999999547
        },
        {
          "name": "C6",
          "midi": 84,
          "time": 104.41656225000031,
          "velocity": 0.7874015748031497,
          "duration": 0.08333324999999547
        },
        {
          "name": "F5",
          "midi": 77,
          "time": 104.41656225000031,
          "velocity": 0.7874015748031497,
          "duration": 0.08333324999999547
        },
        {
          "name": "F5",
          "midi": 77,
          "time": 104.4998955000003,
          "velocity": 0.7874015748031497,
          "duration": 0.08333324999999547
        },
        {
          "name": "C6",
          "midi": 84,
          "time": 104.4998955000003,
          "velocity": 0.7874015748031497,
          "duration": 0.08333324999999547
        },
        {
          "name": "C6",
          "midi": 84,
          "time": 104.5832287500003,
          "velocity": 0.7874015748031497,
          "duration": 0.08333324999999547
        },
        {
          "name": "F5",
          "midi": 77,
          "time": 104.5832287500003,
          "velocity": 0.7874015748031497,
          "duration": 0.08333324999999547
        },
        {
          "name": "C6",
          "midi": 84,
          "time": 104.6665620000003,
          "velocity": 0.7874015748031497,
          "duration": 0.3333329999999961
        },
        {
          "name": "F5",
          "midi": 77,
          "time": 104.6665620000003,
          "velocity": 0.7874015748031497,
          "duration": 0.3333329999999961
        },
        {
          "name": "F5",
          "midi": 77,
          "time": 104.9998950000003,
          "velocity": 0.7874015748031497,
          "duration": 0.16666650000000516
        },
        {
          "name": "C6",
          "midi": 84,
          "time": 104.9998950000003,
          "velocity": 0.7874015748031497,
          "duration": 0.16666650000000516
        },
        {
          "name": "C6",
          "midi": 84,
          "time": 105.1665615000003,
          "velocity": 0.7874015748031497,
          "duration": 0.16666650000000516
        },
        {
          "name": "F5",
          "midi": 77,
          "time": 105.1665615000003,
          "velocity": 0.7874015748031497,
          "duration": 0.16666650000000516
        },
        {
          "name": "F5",
          "midi": 77,
          "time": 105.3332280000003,
          "velocity": 0.7874015748031497,
          "duration": 0.16666650000000516
        },
        {
          "name": "A#4",
          "midi": 70,
          "time": 105.3332280000003,
          "velocity": 0.7874015748031497,
          "duration": 0.16666650000000516
        },
        {
          "name": "A#4",
          "midi": 70,
          "time": 105.49989450000031,
          "velocity": 0.7874015748031497,
          "duration": 0.08333324999999547
        },
        {
          "name": "F5",
          "midi": 77,
          "time": 105.49989450000031,
          "velocity": 0.7874015748031497,
          "duration": 0.08333324999999547
        },
        {
          "name": "F5",
          "midi": 77,
          "time": 105.5832277500003,
          "velocity": 0.7874015748031497,
          "duration": 0.08333324999999547
        },
        {
          "name": "A#4",
          "midi": 70,
          "time": 105.5832277500003,
          "velocity": 0.7874015748031497,
          "duration": 0.08333324999999547
        },
        {
          "name": "F5",
          "midi": 77,
          "time": 105.6665610000003,
          "velocity": 0.7874015748031497,
          "duration": 0.16666650000000516
        },
        {
          "name": "A#4",
          "midi": 70,
          "time": 105.6665610000003,
          "velocity": 0.7874015748031497,
          "duration": 0.16666650000000516
        },
        {
          "name": "A#4",
          "midi": 70,
          "time": 105.8332275000003,
          "velocity": 0.7874015748031497,
          "duration": 0.16666650000000516
        },
        {
          "name": "F5",
          "midi": 77,
          "time": 105.8332275000003,
          "velocity": 0.7874015748031497,
          "duration": 0.16666650000000516
        },
        {
          "name": "F5",
          "midi": 77,
          "time": 105.99989400000031,
          "velocity": 0.7874015748031497,
          "duration": 0.16666650000000516
        },
        {
          "name": "A#4",
          "midi": 70,
          "time": 105.99989400000031,
          "velocity": 0.7874015748031497,
          "duration": 0.16666650000000516
        },
        {
          "name": "F5",
          "midi": 77,
          "time": 106.16656050000032,
          "velocity": 0.7874015748031497,
          "duration": 0.16666650000000516
        },
        {
          "name": "A#4",
          "midi": 70,
          "time": 106.16656050000032,
          "velocity": 0.7874015748031497,
          "duration": 0.16666650000000516
        },
        {
          "name": "A#4",
          "midi": 70,
          "time": 106.33322700000032,
          "velocity": 0.7874015748031497,
          "duration": 0.16666650000000516
        },
        {
          "name": "F5",
          "midi": 77,
          "time": 106.33322700000032,
          "velocity": 0.7874015748031497,
          "duration": 0.16666650000000516
        },
        {
          "name": "A#4",
          "midi": 70,
          "time": 106.49989350000033,
          "velocity": 0.7874015748031497,
          "duration": 0.08333324999999547
        },
        {
          "name": "F5",
          "midi": 77,
          "time": 106.49989350000033,
          "velocity": 0.7874015748031497,
          "duration": 0.08333324999999547
        },
        {
          "name": "F5",
          "midi": 77,
          "time": 106.58322675000032,
          "velocity": 0.7874015748031497,
          "duration": 0.08333324999999547
        },
        {
          "name": "A#4",
          "midi": 70,
          "time": 106.58322675000032,
          "velocity": 0.7874015748031497,
          "duration": 0.08333324999999547
        },
        {
          "name": "D#5",
          "midi": 75,
          "time": 106.66656000000032,
          "velocity": 0.7874015748031497,
          "duration": 0.16666650000000516
        },
        {
          "name": "A#5",
          "midi": 82,
          "time": 106.66656000000032,
          "velocity": 0.7874015748031497,
          "duration": 0.16666650000000516
        },
        {
          "name": "A#5",
          "midi": 82,
          "time": 106.83322650000032,
          "velocity": 0.7874015748031497,
          "duration": 0.08333324999999547
        },
        {
          "name": "D#5",
          "midi": 75,
          "time": 106.83322650000032,
          "velocity": 0.7874015748031497,
          "duration": 0.08333324999999547
        },
        {
          "name": "D#5",
          "midi": 75,
          "time": 106.91655975000032,
          "velocity": 0.7874015748031497,
          "duration": 0.08333324999999547
        },
        {
          "name": "A#5",
          "midi": 82,
          "time": 106.91655975000032,
          "velocity": 0.7874015748031497,
          "duration": 0.08333324999999547
        },
        {
          "name": "D#5",
          "midi": 75,
          "time": 106.99989300000031,
          "velocity": 0.7874015748031497,
          "duration": 0.16666650000000516
        },
        {
          "name": "A#5",
          "midi": 82,
          "time": 106.99989300000031,
          "velocity": 0.7874015748031497,
          "duration": 0.16666650000000516
        },
        {
          "name": "D#5",
          "midi": 75,
          "time": 107.16655950000032,
          "velocity": 0.7874015748031497,
          "duration": 0.16666650000000516
        },
        {
          "name": "A#5",
          "midi": 82,
          "time": 107.16655950000032,
          "velocity": 0.7874015748031497,
          "duration": 0.16666650000000516
        },
        {
          "name": "A#5",
          "midi": 82,
          "time": 107.33322600000032,
          "velocity": 0.7874015748031497,
          "duration": 0.16666650000000516
        },
        {
          "name": "D#5",
          "midi": 75,
          "time": 107.33322600000032,
          "velocity": 0.7874015748031497,
          "duration": 0.16666650000000516
        },
        {
          "name": "A#5",
          "midi": 82,
          "time": 107.49989250000033,
          "velocity": 0.7874015748031497,
          "duration": 0.16666650000000516
        },
        {
          "name": "D#5",
          "midi": 75,
          "time": 107.49989250000033,
          "velocity": 0.7874015748031497,
          "duration": 0.16666650000000516
        },
        {
          "name": "D#5",
          "midi": 75,
          "time": 107.66655900000033,
          "velocity": 0.7874015748031497,
          "duration": 0.16666650000000516
        },
        {
          "name": "A#5",
          "midi": 82,
          "time": 107.66655900000033,
          "velocity": 0.7874015748031497,
          "duration": 0.16666650000000516
        },
        {
          "name": "D#5",
          "midi": 75,
          "time": 107.83322550000034,
          "velocity": 0.7874015748031497,
          "duration": 0.08333324999999547
        },
        {
          "name": "A#5",
          "midi": 82,
          "time": 107.83322550000034,
          "velocity": 0.7874015748031497,
          "duration": 0.08333324999999547
        },
        {
          "name": "A#5",
          "midi": 82,
          "time": 107.91655875000033,
          "velocity": 0.7874015748031497,
          "duration": 0.08333324999999547
        },
        {
          "name": "D#5",
          "midi": 75,
          "time": 107.91655875000033,
          "velocity": 0.7874015748031497,
          "duration": 0.08333324999999547
        },
        {
          "name": "C6",
          "midi": 84,
          "time": 107.99989200000033,
          "velocity": 0.7874015748031497,
          "duration": 0.16666650000000516
        },
        {
          "name": "F5",
          "midi": 77,
          "time": 107.99989200000033,
          "velocity": 0.7874015748031497,
          "duration": 0.16666650000000516
        },
        {
          "name": "F5",
          "midi": 77,
          "time": 108.16655850000033,
          "velocity": 0.7874015748031497,
          "duration": 0.08333324999999547
        },
        {
          "name": "C6",
          "midi": 84,
          "time": 108.16655850000033,
          "velocity": 0.7874015748031497,
          "duration": 0.08333324999999547
        },
        {
          "name": "C6",
          "midi": 84,
          "time": 108.24989175000033,
          "velocity": 0.7874015748031497,
          "duration": 0.08333324999999547
        },
        {
          "name": "F5",
          "midi": 77,
          "time": 108.24989175000033,
          "velocity": 0.7874015748031497,
          "duration": 0.08333324999999547
        },
        {
          "name": "F5",
          "midi": 77,
          "time": 108.33322500000033,
          "velocity": 0.7874015748031497,
          "duration": 0.16666650000000516
        },
        {
          "name": "C6",
          "midi": 84,
          "time": 108.33322500000033,
          "velocity": 0.7874015748031497,
          "duration": 0.16666650000000516
        },
        {
          "name": "C6",
          "midi": 84,
          "time": 108.49989150000033,
          "velocity": 0.7874015748031497,
          "duration": 0.16666650000000516
        },
        {
          "name": "F5",
          "midi": 77,
          "time": 108.49989150000033,
          "velocity": 0.7874015748031497,
          "duration": 0.16666650000000516
        },
        {
          "name": "F5",
          "midi": 77,
          "time": 108.66655800000034,
          "velocity": 0.7874015748031497,
          "duration": 0.16666650000000516
        },
        {
          "name": "C6",
          "midi": 84,
          "time": 108.66655800000034,
          "velocity": 0.7874015748031497,
          "duration": 0.16666650000000516
        },
        {
          "name": "C6",
          "midi": 84,
          "time": 108.83322450000034,
          "velocity": 0.7874015748031497,
          "duration": 0.16666650000000516
        },
        {
          "name": "F5",
          "midi": 77,
          "time": 108.83322450000034,
          "velocity": 0.7874015748031497,
          "duration": 0.16666650000000516
        },
        {
          "name": "F5",
          "midi": 77,
          "time": 108.99989100000035,
          "velocity": 0.7874015748031497,
          "duration": 0.16666650000000516
        },
        {
          "name": "C6",
          "midi": 84,
          "time": 108.99989100000035,
          "velocity": 0.7874015748031497,
          "duration": 0.16666650000000516
        },
        {
          "name": "C6",
          "midi": 84,
          "time": 109.16655750000035,
          "velocity": 0.7874015748031497,
          "duration": 0.08333324999999547
        },
        {
          "name": "F5",
          "midi": 77,
          "time": 109.16655750000035,
          "velocity": 0.7874015748031497,
          "duration": 0.08333324999999547
        },
        {
          "name": "F5",
          "midi": 77,
          "time": 109.24989075000035,
          "velocity": 0.7874015748031497,
          "duration": 0.08333324999999547
        },
        {
          "name": "C6",
          "midi": 84,
          "time": 109.24989075000035,
          "velocity": 0.7874015748031497,
          "duration": 0.08333324999999547
        },
        {
          "name": "G4",
          "midi": 67,
          "time": 109.33322400000034,
          "velocity": 0.7874015748031497,
          "duration": 0.16666650000000516
        },
        {
          "name": "D5",
          "midi": 74,
          "time": 109.33322400000034,
          "velocity": 0.7874015748031497,
          "duration": 0.16666650000000516
        },
        {
          "name": "G4",
          "midi": 67,
          "time": 109.49989050000035,
          "velocity": 0.7874015748031497,
          "duration": 0.08333324999999547
        },
        {
          "name": "D5",
          "midi": 74,
          "time": 109.49989050000035,
          "velocity": 0.7874015748031497,
          "duration": 0.08333324999999547
        },
        {
          "name": "D5",
          "midi": 74,
          "time": 109.58322375000034,
          "velocity": 0.7874015748031497,
          "duration": 0.08333324999999547
        },
        {
          "name": "G4",
          "midi": 67,
          "time": 109.58322375000034,
          "velocity": 0.7874015748031497,
          "duration": 0.08333324999999547
        },
        {
          "name": "G4",
          "midi": 67,
          "time": 109.66655700000034,
          "velocity": 0.7874015748031497,
          "duration": 0.16666650000000516
        },
        {
          "name": "D5",
          "midi": 74,
          "time": 109.66655700000034,
          "velocity": 0.7874015748031497,
          "duration": 0.16666650000000516
        },
        {
          "name": "G4",
          "midi": 67,
          "time": 109.83322350000034,
          "velocity": 0.7874015748031497,
          "duration": 0.16666650000000516
        },
        {
          "name": "D5",
          "midi": 74,
          "time": 109.83322350000034,
          "velocity": 0.7874015748031497,
          "duration": 0.16666650000000516
        },
        {
          "name": "D5",
          "midi": 74,
          "time": 109.99989000000035,
          "velocity": 0.7874015748031497,
          "duration": 0.16666650000000516
        },
        {
          "name": "G4",
          "midi": 67,
          "time": 109.99989000000035,
          "velocity": 0.7874015748031497,
          "duration": 0.16666650000000516
        },
        {
          "name": "D5",
          "midi": 74,
          "time": 110.16655650000035,
          "velocity": 0.7874015748031497,
          "duration": 0.16666650000000516
        },
        {
          "name": "G4",
          "midi": 67,
          "time": 110.16655650000035,
          "velocity": 0.7874015748031497,
          "duration": 0.16666650000000516
        },
        {
          "name": "D5",
          "midi": 74,
          "time": 110.33322300000036,
          "velocity": 0.7874015748031497,
          "duration": 0.16666650000000516
        },
        {
          "name": "G4",
          "midi": 67,
          "time": 110.33322300000036,
          "velocity": 0.7874015748031497,
          "duration": 0.16666650000000516
        },
        {
          "name": "G4",
          "midi": 67,
          "time": 110.49988950000036,
          "velocity": 0.7874015748031497,
          "duration": 0.08333324999999547
        },
        {
          "name": "D5",
          "midi": 74,
          "time": 110.49988950000036,
          "velocity": 0.7874015748031497,
          "duration": 0.08333324999999547
        },
        {
          "name": "G4",
          "midi": 67,
          "time": 110.58322275000036,
          "velocity": 0.7874015748031497,
          "duration": 0.08333324999999547
        },
        {
          "name": "D5",
          "midi": 74,
          "time": 110.58322275000036,
          "velocity": 0.7874015748031497,
          "duration": 0.08333324999999547
        },
        {
          "name": "A#5",
          "midi": 82,
          "time": 110.66655600000036,
          "velocity": 0.7874015748031497,
          "duration": 0.16666650000000516
        },
        {
          "name": "D#5",
          "midi": 75,
          "time": 110.66655600000036,
          "velocity": 0.7874015748031497,
          "duration": 0.16666650000000516
        },
        {
          "name": "D#5",
          "midi": 75,
          "time": 110.83322250000036,
          "velocity": 0.7874015748031497,
          "duration": 0.08333324999999547
        },
        {
          "name": "A#5",
          "midi": 82,
          "time": 110.83322250000036,
          "velocity": 0.7874015748031497,
          "duration": 0.08333324999999547
        },
        {
          "name": "A#5",
          "midi": 82,
          "time": 110.91655575000036,
          "velocity": 0.7874015748031497,
          "duration": 0.08333324999999547
        },
        {
          "name": "D#5",
          "midi": 75,
          "time": 110.91655575000036,
          "velocity": 0.7874015748031497,
          "duration": 0.08333324999999547
        },
        {
          "name": "A#5",
          "midi": 82,
          "time": 110.99988900000035,
          "velocity": 0.7874015748031497,
          "duration": 0.16666650000000516
        },
        {
          "name": "D#5",
          "midi": 75,
          "time": 110.99988900000035,
          "velocity": 0.7874015748031497,
          "duration": 0.16666650000000516
        },
        {
          "name": "A#5",
          "midi": 82,
          "time": 111.16655550000036,
          "velocity": 0.7874015748031497,
          "duration": 0.16666650000000516
        },
        {
          "name": "D#5",
          "midi": 75,
          "time": 111.16655550000036,
          "velocity": 0.7874015748031497,
          "duration": 0.16666650000000516
        },
        {
          "name": "D#5",
          "midi": 75,
          "time": 111.33322200000036,
          "velocity": 0.7874015748031497,
          "duration": 0.16666650000000516
        },
        {
          "name": "A#5",
          "midi": 82,
          "time": 111.33322200000036,
          "velocity": 0.7874015748031497,
          "duration": 0.16666650000000516
        },
        {
          "name": "D#5",
          "midi": 75,
          "time": 111.49988850000037,
          "velocity": 0.7874015748031497,
          "duration": 0.16666650000000516
        },
        {
          "name": "A#5",
          "midi": 82,
          "time": 111.49988850000037,
          "velocity": 0.7874015748031497,
          "duration": 0.16666650000000516
        },
        {
          "name": "D#5",
          "midi": 75,
          "time": 111.66655500000037,
          "velocity": 0.7874015748031497,
          "duration": 0.16666650000000516
        },
        {
          "name": "A#5",
          "midi": 82,
          "time": 111.66655500000037,
          "velocity": 0.7874015748031497,
          "duration": 0.16666650000000516
        },
        {
          "name": "D#5",
          "midi": 75,
          "time": 111.83322150000038,
          "velocity": 0.7874015748031497,
          "duration": 0.08333324999999547
        },
        {
          "name": "A#5",
          "midi": 82,
          "time": 111.83322150000038,
          "velocity": 0.7874015748031497,
          "duration": 0.08333324999999547
        },
        {
          "name": "A#5",
          "midi": 82,
          "time": 111.91655475000037,
          "velocity": 0.7874015748031497,
          "duration": 0.08333324999999547
        },
        {
          "name": "D#5",
          "midi": 75,
          "time": 111.91655475000037,
          "velocity": 0.7874015748031497,
          "duration": 0.08333324999999547
        },
        {
          "name": "A#4",
          "midi": 70,
          "time": 111.99988800000037,
          "velocity": 0.7874015748031497,
          "duration": 0.16666650000000516
        },
        {
          "name": "F5",
          "midi": 77,
          "time": 111.99988800000037,
          "velocity": 0.7874015748031497,
          "duration": 0.16666650000000516
        },
        {
          "name": "A#4",
          "midi": 70,
          "time": 112.16655450000037,
          "velocity": 0.7874015748031497,
          "duration": 0.08333324999999547
        },
        {
          "name": "F5",
          "midi": 77,
          "time": 112.16655450000037,
          "velocity": 0.7874015748031497,
          "duration": 0.08333324999999547
        },
        {
          "name": "A#4",
          "midi": 70,
          "time": 112.24988775000037,
          "velocity": 0.7874015748031497,
          "duration": 0.08333324999999547
        },
        {
          "name": "F5",
          "midi": 77,
          "time": 112.24988775000037,
          "velocity": 0.7874015748031497,
          "duration": 0.08333324999999547
        },
        {
          "name": "F5",
          "midi": 77,
          "time": 112.33322100000036,
          "velocity": 0.7874015748031497,
          "duration": 0.16666650000000516
        },
        {
          "name": "A#4",
          "midi": 70,
          "time": 112.33322100000036,
          "velocity": 0.7874015748031497,
          "duration": 0.16666650000000516
        },
        {
          "name": "A#4",
          "midi": 70,
          "time": 112.49988750000037,
          "velocity": 0.7874015748031497,
          "duration": 0.16666650000000516
        },
        {
          "name": "F5",
          "midi": 77,
          "time": 112.49988750000037,
          "velocity": 0.7874015748031497,
          "duration": 0.16666650000000516
        },
        {
          "name": "A#4",
          "midi": 70,
          "time": 112.66655400000037,
          "velocity": 0.7874015748031497,
          "duration": 0.16666650000000516
        },
        {
          "name": "F5",
          "midi": 77,
          "time": 112.66655400000037,
          "velocity": 0.7874015748031497,
          "duration": 0.16666650000000516
        },
        {
          "name": "F5",
          "midi": 77,
          "time": 112.83322050000038,
          "velocity": 0.7874015748031497,
          "duration": 0.16666650000000516
        },
        {
          "name": "A#4",
          "midi": 70,
          "time": 112.83322050000038,
          "velocity": 0.7874015748031497,
          "duration": 0.16666650000000516
        },
        {
          "name": "F5",
          "midi": 77,
          "time": 112.99988700000038,
          "velocity": 0.7874015748031497,
          "duration": 0.16666650000000516
        },
        {
          "name": "A#4",
          "midi": 70,
          "time": 112.99988700000038,
          "velocity": 0.7874015748031497,
          "duration": 0.16666650000000516
        },
        {
          "name": "F5",
          "midi": 77,
          "time": 113.16655350000039,
          "velocity": 0.7874015748031497,
          "duration": 0.08333324999999547
        },
        {
          "name": "A#4",
          "midi": 70,
          "time": 113.16655350000039,
          "velocity": 0.7874015748031497,
          "duration": 0.08333324999999547
        },
        {
          "name": "F5",
          "midi": 77,
          "time": 113.24988675000039,
          "velocity": 0.7874015748031497,
          "duration": 0.08333324999999547
        },
        {
          "name": "A#4",
          "midi": 70,
          "time": 113.24988675000039,
          "velocity": 0.7874015748031497,
          "duration": 0.08333324999999547
        },
        {
          "name": "G5",
          "midi": 79,
          "time": 113.33322000000038,
          "velocity": 0.7874015748031497,
          "duration": 0.16666650000000516
        },
        {
          "name": "C5",
          "midi": 72,
          "time": 113.33322000000038,
          "velocity": 0.7874015748031497,
          "duration": 0.16666650000000516
        },
        {
          "name": "C5",
          "midi": 72,
          "time": 113.49988650000039,
          "velocity": 0.7874015748031497,
          "duration": 0.08333324999999547
        },
        {
          "name": "G5",
          "midi": 79,
          "time": 113.49988650000039,
          "velocity": 0.7874015748031497,
          "duration": 0.08333324999999547
        },
        {
          "name": "G5",
          "midi": 79,
          "time": 113.58321975000038,
          "velocity": 0.7874015748031497,
          "duration": 0.08333324999999547
        },
        {
          "name": "C5",
          "midi": 72,
          "time": 113.58321975000038,
          "velocity": 0.7874015748031497,
          "duration": 0.08333324999999547
        },
        {
          "name": "C5",
          "midi": 72,
          "time": 113.66655300000038,
          "velocity": 0.7874015748031497,
          "duration": 0.16666650000000516
        },
        {
          "name": "G5",
          "midi": 79,
          "time": 113.66655300000038,
          "velocity": 0.7874015748031497,
          "duration": 0.16666650000000516
        },
        {
          "name": "G5",
          "midi": 79,
          "time": 113.83321950000038,
          "velocity": 0.7874015748031497,
          "duration": 0.16666650000000516
        },
        {
          "name": "C5",
          "midi": 72,
          "time": 113.83321950000038,
          "velocity": 0.7874015748031497,
          "duration": 0.16666650000000516
        },
        {
          "name": "C5",
          "midi": 72,
          "time": 113.99988600000039,
          "velocity": 0.7874015748031497,
          "duration": 0.16666650000000516
        },
        {
          "name": "G5",
          "midi": 79,
          "time": 113.99988600000039,
          "velocity": 0.7874015748031497,
          "duration": 0.16666650000000516
        },
        {
          "name": "C5",
          "midi": 72,
          "time": 114.16655250000039,
          "velocity": 0.7874015748031497,
          "duration": 0.16666650000000516
        },
        {
          "name": "G5",
          "midi": 79,
          "time": 114.16655250000039,
          "velocity": 0.7874015748031497,
          "duration": 0.16666650000000516
        },
        {
          "name": "G5",
          "midi": 79,
          "time": 114.3332190000004,
          "velocity": 0.7874015748031497,
          "duration": 0.16666650000000516
        },
        {
          "name": "C5",
          "midi": 72,
          "time": 114.3332190000004,
          "velocity": 0.7874015748031497,
          "duration": 0.16666650000000516
        },
        {
          "name": "G5",
          "midi": 79,
          "time": 114.4998855000004,
          "velocity": 0.7874015748031497,
          "duration": 0.08333324999999547
        },
        {
          "name": "C5",
          "midi": 72,
          "time": 114.4998855000004,
          "velocity": 0.7874015748031497,
          "duration": 0.08333324999999547
        },
        {
          "name": "C5",
          "midi": 72,
          "time": 114.5832187500004,
          "velocity": 0.7874015748031497,
          "duration": 0.08333324999999547
        },
        {
          "name": "G5",
          "midi": 79,
          "time": 114.5832187500004,
          "velocity": 0.7874015748031497,
          "duration": 0.08333324999999547
        },
        {
          "name": "F5",
          "midi": 77,
          "time": 114.6665520000004,
          "velocity": 0.7874015748031497,
          "duration": 0.16666650000000516
        },
        {
          "name": "C6",
          "midi": 84,
          "time": 114.6665520000004,
          "velocity": 0.7874015748031497,
          "duration": 0.16666650000000516
        },
        {
          "name": "C6",
          "midi": 84,
          "time": 114.8332185000004,
          "velocity": 0.7874015748031497,
          "duration": 0.08333324999999547
        },
        {
          "name": "F5",
          "midi": 77,
          "time": 114.8332185000004,
          "velocity": 0.7874015748031497,
          "duration": 0.08333324999999547
        },
        {
          "name": "F5",
          "midi": 77,
          "time": 114.9165517500004,
          "velocity": 0.7874015748031497,
          "duration": 0.08333324999999547
        },
        {
          "name": "C6",
          "midi": 84,
          "time": 114.9165517500004,
          "velocity": 0.7874015748031497,
          "duration": 0.08333324999999547
        },
        {
          "name": "F5",
          "midi": 77,
          "time": 114.99988500000039,
          "velocity": 0.7874015748031497,
          "duration": 0.16666650000000516
        },
        {
          "name": "C6",
          "midi": 84,
          "time": 114.99988500000039,
          "velocity": 0.7874015748031497,
          "duration": 0.16666650000000516
        },
        {
          "name": "C6",
          "midi": 84,
          "time": 115.1665515000004,
          "velocity": 0.7874015748031497,
          "duration": 0.16666650000000516
        },
        {
          "name": "F5",
          "midi": 77,
          "time": 115.1665515000004,
          "velocity": 0.7874015748031497,
          "duration": 0.16666650000000516
        },
        {
          "name": "C6",
          "midi": 84,
          "time": 115.3332180000004,
          "velocity": 0.7874015748031497,
          "duration": 0.16666650000000516
        },
        {
          "name": "F5",
          "midi": 77,
          "time": 115.3332180000004,
          "velocity": 0.7874015748031497,
          "duration": 0.16666650000000516
        },
        {
          "name": "C6",
          "midi": 84,
          "time": 115.4998845000004,
          "velocity": 0.7874015748031497,
          "duration": 0.16666650000000516
        },
        {
          "name": "F5",
          "midi": 77,
          "time": 115.4998845000004,
          "velocity": 0.7874015748031497,
          "duration": 0.16666650000000516
        },
        {
          "name": "F5",
          "midi": 77,
          "time": 115.66655100000041,
          "velocity": 0.7874015748031497,
          "duration": 0.16666650000000516
        },
        {
          "name": "C6",
          "midi": 84,
          "time": 115.66655100000041,
          "velocity": 0.7874015748031497,
          "duration": 0.16666650000000516
        },
        {
          "name": "C6",
          "midi": 84,
          "time": 115.83321750000042,
          "velocity": 0.7874015748031497,
          "duration": 0.08333324999999547
        },
        {
          "name": "F5",
          "midi": 77,
          "time": 115.83321750000042,
          "velocity": 0.7874015748031497,
          "duration": 0.08333324999999547
        },
        {
          "name": "F5",
          "midi": 77,
          "time": 115.91655075000041,
          "velocity": 0.7874015748031497,
          "duration": 0.08333324999999547
        },
        {
          "name": "C6",
          "midi": 84,
          "time": 115.91655075000041,
          "velocity": 0.7874015748031497,
          "duration": 0.08333324999999547
        },
        {
          "name": "A#4",
          "midi": 70,
          "time": 115.9998840000004,
          "velocity": 0.7874015748031497,
          "duration": 0.16666650000000516
        },
        {
          "name": "F5",
          "midi": 77,
          "time": 115.9998840000004,
          "velocity": 0.7874015748031497,
          "duration": 0.16666650000000516
        },
        {
          "name": "F5",
          "midi": 77,
          "time": 116.16655050000041,
          "velocity": 0.7874015748031497,
          "duration": 0.08333324999999547
        },
        {
          "name": "A#4",
          "midi": 70,
          "time": 116.16655050000041,
          "velocity": 0.7874015748031497,
          "duration": 0.08333324999999547
        },
        {
          "name": "A#4",
          "midi": 70,
          "time": 116.24988375000041,
          "velocity": 0.7874015748031497,
          "duration": 0.08333324999999547
        },
        {
          "name": "F5",
          "midi": 77,
          "time": 116.24988375000041,
          "velocity": 0.7874015748031497,
          "duration": 0.08333324999999547
        },
        {
          "name": "A#4",
          "midi": 70,
          "time": 116.3332170000004,
          "velocity": 0.7874015748031497,
          "duration": 0.16666650000000516
        },
        {
          "name": "F5",
          "midi": 77,
          "time": 116.3332170000004,
          "velocity": 0.7874015748031497,
          "duration": 0.16666650000000516
        },
        {
          "name": "F5",
          "midi": 77,
          "time": 116.49988350000041,
          "velocity": 0.7874015748031497,
          "duration": 0.16666650000000516
        },
        {
          "name": "A#4",
          "midi": 70,
          "time": 116.49988350000041,
          "velocity": 0.7874015748031497,
          "duration": 0.16666650000000516
        },
        {
          "name": "F5",
          "midi": 77,
          "time": 116.66655000000041,
          "velocity": 0.7874015748031497,
          "duration": 0.16666650000000516
        },
        {
          "name": "A#4",
          "midi": 70,
          "time": 116.66655000000041,
          "velocity": 0.7874015748031497,
          "duration": 0.16666650000000516
        },
        {
          "name": "F5",
          "midi": 77,
          "time": 116.83321650000042,
          "velocity": 0.7874015748031497,
          "duration": 0.16666650000000516
        },
        {
          "name": "A#4",
          "midi": 70,
          "time": 116.83321650000042,
          "velocity": 0.7874015748031497,
          "duration": 0.16666650000000516
        },
        {
          "name": "A#4",
          "midi": 70,
          "time": 116.99988300000042,
          "velocity": 0.7874015748031497,
          "duration": 0.16666650000000516
        },
        {
          "name": "F5",
          "midi": 77,
          "time": 116.99988300000042,
          "velocity": 0.7874015748031497,
          "duration": 0.16666650000000516
        },
        {
          "name": "F5",
          "midi": 77,
          "time": 117.16654950000043,
          "velocity": 0.7874015748031497,
          "duration": 0.08333324999999547
        },
        {
          "name": "A#4",
          "midi": 70,
          "time": 117.16654950000043,
          "velocity": 0.7874015748031497,
          "duration": 0.08333324999999547
        },
        {
          "name": "A#4",
          "midi": 70,
          "time": 117.24988275000042,
          "velocity": 0.7874015748031497,
          "duration": 0.08333324999999547
        },
        {
          "name": "F5",
          "midi": 77,
          "time": 117.24988275000042,
          "velocity": 0.7874015748031497,
          "duration": 0.08333324999999547
        },
        {
          "name": "D#5",
          "midi": 75,
          "time": 117.33321600000042,
          "velocity": 0.7874015748031497,
          "duration": 0.16666650000000516
        },
        {
          "name": "A#5",
          "midi": 82,
          "time": 117.33321600000042,
          "velocity": 0.7874015748031497,
          "duration": 0.16666650000000516
        },
        {
          "name": "A#5",
          "midi": 82,
          "time": 117.49988250000042,
          "velocity": 0.7874015748031497,
          "duration": 0.08333324999999547
        },
        {
          "name": "D#5",
          "midi": 75,
          "time": 117.49988250000042,
          "velocity": 0.7874015748031497,
          "duration": 0.08333324999999547
        },
        {
          "name": "D#5",
          "midi": 75,
          "time": 117.58321575000042,
          "velocity": 0.7874015748031497,
          "duration": 0.08333324999999547
        },
        {
          "name": "A#5",
          "midi": 82,
          "time": 117.58321575000042,
          "velocity": 0.7874015748031497,
          "duration": 0.08333324999999547
        },
        {
          "name": "D#5",
          "midi": 75,
          "time": 117.66654900000042,
          "velocity": 0.7874015748031497,
          "duration": 0.16666650000000516
        },
        {
          "name": "A#5",
          "midi": 82,
          "time": 117.66654900000042,
          "velocity": 0.7874015748031497,
          "duration": 0.16666650000000516
        },
        {
          "name": "D#5",
          "midi": 75,
          "time": 117.83321550000042,
          "velocity": 0.7874015748031497,
          "duration": 0.16666650000000516
        },
        {
          "name": "A#5",
          "midi": 82,
          "time": 117.83321550000042,
          "velocity": 0.7874015748031497,
          "duration": 0.16666650000000516
        },
        {
          "name": "A#5",
          "midi": 82,
          "time": 117.99988200000043,
          "velocity": 0.7874015748031497,
          "duration": 0.16666650000000516
        },
        {
          "name": "D#5",
          "midi": 75,
          "time": 117.99988200000043,
          "velocity": 0.7874015748031497,
          "duration": 0.16666650000000516
        },
        {
          "name": "A#5",
          "midi": 82,
          "time": 118.16654850000043,
          "velocity": 0.7874015748031497,
          "duration": 0.16666650000000516
        },
        {
          "name": "D#5",
          "midi": 75,
          "time": 118.16654850000043,
          "velocity": 0.7874015748031497,
          "duration": 0.16666650000000516
        },
        {
          "name": "D#5",
          "midi": 75,
          "time": 118.33321500000044,
          "velocity": 0.7874015748031497,
          "duration": 0.16666650000000516
        },
        {
          "name": "A#5",
          "midi": 82,
          "time": 118.33321500000044,
          "velocity": 0.7874015748031497,
          "duration": 0.16666650000000516
        },
        {
          "name": "D#5",
          "midi": 75,
          "time": 118.49988150000044,
          "velocity": 0.7874015748031497,
          "duration": 0.08333324999999547
        },
        {
          "name": "A#5",
          "midi": 82,
          "time": 118.49988150000044,
          "velocity": 0.7874015748031497,
          "duration": 0.08333324999999547
        },
        {
          "name": "A#5",
          "midi": 82,
          "time": 118.58321475000044,
          "velocity": 0.7874015748031497,
          "duration": 0.08333324999999547
        },
        {
          "name": "D#5",
          "midi": 75,
          "time": 118.58321475000044,
          "velocity": 0.7874015748031497,
          "duration": 0.08333324999999547
        },
        {
          "name": "C6",
          "midi": 84,
          "time": 118.66654800000043,
          "velocity": 0.7874015748031497,
          "duration": 0.16666650000000516
        },
        {
          "name": "F5",
          "midi": 77,
          "time": 118.66654800000043,
          "velocity": 0.7874015748031497,
          "duration": 0.16666650000000516
        },
        {
          "name": "F5",
          "midi": 77,
          "time": 118.83321450000044,
          "velocity": 0.7874015748031497,
          "duration": 0.08333324999999547
        },
        {
          "name": "C6",
          "midi": 84,
          "time": 118.83321450000044,
          "velocity": 0.7874015748031497,
          "duration": 0.08333324999999547
        },
        {
          "name": "C6",
          "midi": 84,
          "time": 118.91654775000043,
          "velocity": 0.7874015748031497,
          "duration": 0.08333324999999547
        },
        {
          "name": "F5",
          "midi": 77,
          "time": 118.91654775000043,
          "velocity": 0.7874015748031497,
          "duration": 0.08333324999999547
        },
        {
          "name": "C6",
          "midi": 84,
          "time": 118.99988100000043,
          "velocity": 0.7874015748031497,
          "duration": 0.16666650000000516
        },
        {
          "name": "F5",
          "midi": 77,
          "time": 118.99988100000043,
          "velocity": 0.7874015748031497,
          "duration": 0.16666650000000516
        },
        {
          "name": "F5",
          "midi": 77,
          "time": 119.16654750000043,
          "velocity": 0.7874015748031497,
          "duration": 0.16666650000000516
        },
        {
          "name": "C6",
          "midi": 84,
          "time": 119.16654750000043,
          "velocity": 0.7874015748031497,
          "duration": 0.16666650000000516
        },
        {
          "name": "F#5",
          "midi": 78,
          "time": 119.33321400000044,
          "velocity": 0.7874015748031497,
          "duration": 0.16666650000000516
        },
        {
          "name": "C6",
          "midi": 84,
          "time": 119.33321400000044,
          "velocity": 0.7874015748031497,
          "duration": 0.16666650000000516
        },
        {
          "name": "C6",
          "midi": 84,
          "time": 119.49988050000044,
          "velocity": 0.7874015748031497,
          "duration": 0.16666650000000516
        },
        {
          "name": "F#5",
          "midi": 78,
          "time": 119.49988050000044,
          "velocity": 0.7874015748031497,
          "duration": 0.16666650000000516
        },
        {
          "name": "F#5",
          "midi": 78,
          "time": 119.66654700000045,
          "velocity": 0.7874015748031497,
          "duration": 0.16666650000000516
        },
        {
          "name": "C6",
          "midi": 84,
          "time": 119.66654700000045,
          "velocity": 0.7874015748031497,
          "duration": 0.16666650000000516
        },
        {
          "name": "C6",
          "midi": 84,
          "time": 119.83321350000045,
          "velocity": 0.7874015748031497,
          "duration": 0.08333324999999547
        },
        {
          "name": "F#5",
          "midi": 78,
          "time": 119.83321350000045,
          "velocity": 0.7874015748031497,
          "duration": 0.08333324999999547
        },
        {
          "name": "F#5",
          "midi": 78,
          "time": 119.91654675000045,
          "velocity": 0.7874015748031497,
          "duration": 0.08333324999999547
        },
        {
          "name": "C6",
          "midi": 84,
          "time": 119.91654675000045,
          "velocity": 0.7874015748031497,
          "duration": 0.08333324999999547
        },
        {
          "name": "D5",
          "midi": 74,
          "time": 119.99988000000045,
          "velocity": 0.7874015748031497,
          "duration": 0.16666650000000516
        },
        {
          "name": "G4",
          "midi": 67,
          "time": 119.99988000000045,
          "velocity": 0.7874015748031497,
          "duration": 0.16666650000000516
        },
        {
          "name": "D5",
          "midi": 74,
          "time": 120.16654650000045,
          "velocity": 0.7874015748031497,
          "duration": 0.08333324999999547
        },
        {
          "name": "G4",
          "midi": 67,
          "time": 120.16654650000045,
          "velocity": 0.7874015748031497,
          "duration": 0.08333324999999547
        },
        {
          "name": "G4",
          "midi": 67,
          "time": 120.24987975000045,
          "velocity": 0.7874015748031497,
          "duration": 0.08333324999999547
        },
        {
          "name": "D5",
          "midi": 74,
          "time": 120.24987975000045,
          "velocity": 0.7874015748031497,
          "duration": 0.08333324999999547
        },
        {
          "name": "D5",
          "midi": 74,
          "time": 120.33321300000044,
          "velocity": 0.7874015748031497,
          "duration": 0.16666650000000516
        },
        {
          "name": "G4",
          "midi": 67,
          "time": 120.33321300000044,
          "velocity": 0.7874015748031497,
          "duration": 0.16666650000000516
        },
        {
          "name": "D5",
          "midi": 74,
          "time": 120.49987950000045,
          "velocity": 0.7874015748031497,
          "duration": 0.16666650000000516
        },
        {
          "name": "G4",
          "midi": 67,
          "time": 120.49987950000045,
          "velocity": 0.7874015748031497,
          "duration": 0.16666650000000516
        },
        {
          "name": "G4",
          "midi": 67,
          "time": 120.66654600000045,
          "velocity": 0.7874015748031497,
          "duration": 0.16666650000000516
        },
        {
          "name": "D5",
          "midi": 74,
          "time": 120.66654600000045,
          "velocity": 0.7874015748031497,
          "duration": 0.16666650000000516
        },
        {
          "name": "D5",
          "midi": 74,
          "time": 120.83321250000046,
          "velocity": 0.7874015748031497,
          "duration": 0.16666650000000516
        },
        {
          "name": "G4",
          "midi": 67,
          "time": 120.83321250000046,
          "velocity": 0.7874015748031497,
          "duration": 0.16666650000000516
        },
        {
          "name": "G4",
          "midi": 67,
          "time": 120.99987900000046,
          "velocity": 0.7874015748031497,
          "duration": 0.16666650000000516
        },
        {
          "name": "D5",
          "midi": 74,
          "time": 120.99987900000046,
          "velocity": 0.7874015748031497,
          "duration": 0.16666650000000516
        },
        {
          "name": "D5",
          "midi": 74,
          "time": 121.16654550000047,
          "velocity": 0.7874015748031497,
          "duration": 0.08333324999999547
        },
        {
          "name": "G4",
          "midi": 67,
          "time": 121.16654550000047,
          "velocity": 0.7874015748031497,
          "duration": 0.08333324999999547
        },
        {
          "name": "D5",
          "midi": 74,
          "time": 121.24987875000046,
          "velocity": 0.7874015748031497,
          "duration": 0.08333324999999547
        },
        {
          "name": "G4",
          "midi": 67,
          "time": 121.24987875000046,
          "velocity": 0.7874015748031497,
          "duration": 0.08333324999999547
        },
        {
          "name": "D#5",
          "midi": 75,
          "time": 121.33321200000046,
          "velocity": 0.7874015748031497,
          "duration": 0.16666650000000516
        },
        {
          "name": "A#5",
          "midi": 82,
          "time": 121.33321200000046,
          "velocity": 0.7874015748031497,
          "duration": 0.16666650000000516
        },
        {
          "name": "A#5",
          "midi": 82,
          "time": 121.49987850000046,
          "velocity": 0.7874015748031497,
          "duration": 0.08333324999999547
        },
        {
          "name": "D#5",
          "midi": 75,
          "time": 121.49987850000046,
          "velocity": 0.7874015748031497,
          "duration": 0.08333324999999547
        },
        {
          "name": "D#5",
          "midi": 75,
          "time": 121.58321175000046,
          "velocity": 0.7874015748031497,
          "duration": 0.08333324999999547
        },
        {
          "name": "A#5",
          "midi": 82,
          "time": 121.58321175000046,
          "velocity": 0.7874015748031497,
          "duration": 0.08333324999999547
        },
        {
          "name": "D#5",
          "midi": 75,
          "time": 121.66654500000045,
          "velocity": 0.7874015748031497,
          "duration": 0.16666650000000516
        },
        {
          "name": "A#5",
          "midi": 82,
          "time": 121.66654500000045,
          "velocity": 0.7874015748031497,
          "duration": 0.16666650000000516
        },
        {
          "name": "D#5",
          "midi": 75,
          "time": 121.83321150000046,
          "velocity": 0.7874015748031497,
          "duration": 0.16666650000000516
        },
        {
          "name": "A#5",
          "midi": 82,
          "time": 121.83321150000046,
          "velocity": 0.7874015748031497,
          "duration": 0.16666650000000516
        },
        {
          "name": "A#5",
          "midi": 82,
          "time": 121.99987800000046,
          "velocity": 0.7874015748031497,
          "duration": 0.16666650000000516
        },
        {
          "name": "D#5",
          "midi": 75,
          "time": 121.99987800000046,
          "velocity": 0.7874015748031497,
          "duration": 0.16666650000000516
        },
        {
          "name": "A#5",
          "midi": 82,
          "time": 122.16654450000047,
          "velocity": 0.7874015748031497,
          "duration": 0.16666650000000516
        },
        {
          "name": "D#5",
          "midi": 75,
          "time": 122.16654450000047,
          "velocity": 0.7874015748031497,
          "duration": 0.16666650000000516
        },
        {
          "name": "A#5",
          "midi": 82,
          "time": 122.33321100000047,
          "velocity": 0.7874015748031497,
          "duration": 0.16666650000000516
        },
        {
          "name": "D#5",
          "midi": 75,
          "time": 122.33321100000047,
          "velocity": 0.7874015748031497,
          "duration": 0.16666650000000516
        },
        {
          "name": "A#5",
          "midi": 82,
          "time": 122.49987750000048,
          "velocity": 0.7874015748031497,
          "duration": 0.08333324999999547
        },
        {
          "name": "D#5",
          "midi": 75,
          "time": 122.49987750000048,
          "velocity": 0.7874015748031497,
          "duration": 0.08333324999999547
        },
        {
          "name": "D#5",
          "midi": 75,
          "time": 122.58321075000048,
          "velocity": 0.7874015748031497,
          "duration": 0.08333324999999547
        },
        {
          "name": "A#5",
          "midi": 82,
          "time": 122.58321075000048,
          "velocity": 0.7874015748031497,
          "duration": 0.08333324999999547
        },
        {
          "name": "E5",
          "midi": 76,
          "time": 122.66654400000047,
          "velocity": 0.7874015748031497,
          "duration": 0.16666650000000516
        },
        {
          "name": "A#5",
          "midi": 82,
          "time": 122.66654400000047,
          "velocity": 0.7874015748031497,
          "duration": 0.16666650000000516
        },
        {
          "name": "A#5",
          "midi": 82,
          "time": 122.83321050000048,
          "velocity": 0.7874015748031497,
          "duration": 0.08333324999999547
        },
        {
          "name": "E5",
          "midi": 76,
          "time": 122.83321050000048,
          "velocity": 0.7874015748031497,
          "duration": 0.08333324999999547
        },
        {
          "name": "E5",
          "midi": 76,
          "time": 122.91654375000047,
          "velocity": 0.7874015748031497,
          "duration": 0.08333324999999547
        },
        {
          "name": "A#5",
          "midi": 82,
          "time": 122.91654375000047,
          "velocity": 0.7874015748031497,
          "duration": 0.08333324999999547
        },
        {
          "name": "A#5",
          "midi": 82,
          "time": 122.99987700000047,
          "velocity": 0.7874015748031497,
          "duration": 0.16666650000000516
        },
        {
          "name": "E5",
          "midi": 76,
          "time": 122.99987700000047,
          "velocity": 0.7874015748031497,
          "duration": 0.16666650000000516
        },
        {
          "name": "E5",
          "midi": 76,
          "time": 123.16654350000047,
          "velocity": 0.7874015748031497,
          "duration": 0.16666650000000516
        },
        {
          "name": "A#5",
          "midi": 82,
          "time": 123.16654350000047,
          "velocity": 0.7874015748031497,
          "duration": 0.16666650000000516
        },
        {
          "name": "A#5",
          "midi": 82,
          "time": 123.33321000000048,
          "velocity": 0.7874015748031497,
          "duration": 0.16666650000000516
        },
        {
          "name": "E5",
          "midi": 76,
          "time": 123.33321000000048,
          "velocity": 0.7874015748031497,
          "duration": 0.16666650000000516
        },
        {
          "name": "E5",
          "midi": 76,
          "time": 123.49987650000048,
          "velocity": 0.7874015748031497,
          "duration": 0.16666650000000516
        },
        {
          "name": "A#5",
          "midi": 82,
          "time": 123.49987650000048,
          "velocity": 0.7874015748031497,
          "duration": 0.16666650000000516
        },
        {
          "name": "A#5",
          "midi": 82,
          "time": 123.66654300000049,
          "velocity": 0.7874015748031497,
          "duration": 0.16666650000000516
        },
        {
          "name": "E5",
          "midi": 76,
          "time": 123.66654300000049,
          "velocity": 0.7874015748031497,
          "duration": 0.16666650000000516
        },
        {
          "name": "E5",
          "midi": 76,
          "time": 123.83320950000049,
          "velocity": 0.7874015748031497,
          "duration": 0.08333324999999547
        },
        {
          "name": "A#5",
          "midi": 82,
          "time": 123.83320950000049,
          "velocity": 0.7874015748031497,
          "duration": 0.08333324999999547
        },
        {
          "name": "A#5",
          "midi": 82,
          "time": 123.91654275000049,
          "velocity": 0.7874015748031497,
          "duration": 0.08333324999999547
        },
        {
          "name": "E5",
          "midi": 76,
          "time": 123.91654275000049,
          "velocity": 0.7874015748031497,
          "duration": 0.08333324999999547
        },
        {
          "name": "C6",
          "midi": 84,
          "time": 123.99987600000048,
          "velocity": 0.7874015748031497,
          "duration": 0.16666650000000516
        },
        {
          "name": "F5",
          "midi": 77,
          "time": 123.99987600000048,
          "velocity": 0.7874015748031497,
          "duration": 0.16666650000000516
        },
        {
          "name": "C6",
          "midi": 84,
          "time": 124.16654250000049,
          "velocity": 0.7874015748031497,
          "duration": 0.08333324999999547
        },
        {
          "name": "F5",
          "midi": 77,
          "time": 124.16654250000049,
          "velocity": 0.7874015748031497,
          "duration": 0.08333324999999547
        },
        {
          "name": "F5",
          "midi": 77,
          "time": 124.24987575000048,
          "velocity": 0.7874015748031497,
          "duration": 0.08333324999999547
        },
        {
          "name": "C6",
          "midi": 84,
          "time": 124.24987575000048,
          "velocity": 0.7874015748031497,
          "duration": 0.08333324999999547
        },
        {
          "name": "F5",
          "midi": 77,
          "time": 124.33320900000048,
          "velocity": 0.7874015748031497,
          "duration": 0.16666650000000516
        },
        {
          "name": "C6",
          "midi": 84,
          "time": 124.33320900000048,
          "velocity": 0.7874015748031497,
          "duration": 0.16666650000000516
        },
        {
          "name": "C6",
          "midi": 84,
          "time": 124.49987550000048,
          "velocity": 0.7874015748031497,
          "duration": 0.16666650000000516
        },
        {
          "name": "F5",
          "midi": 77,
          "time": 124.49987550000048,
          "velocity": 0.7874015748031497,
          "duration": 0.16666650000000516
        },
        {
          "name": "C6",
          "midi": 84,
          "time": 124.66654200000049,
          "velocity": 0.7874015748031497,
          "duration": 0.16666650000000516
        },
        {
          "name": "F5",
          "midi": 77,
          "time": 124.66654200000049,
          "velocity": 0.7874015748031497,
          "duration": 0.16666650000000516
        },
        {
          "name": "F5",
          "midi": 77,
          "time": 124.8332085000005,
          "velocity": 0.7874015748031497,
          "duration": 0.16666650000000516
        },
        {
          "name": "C6",
          "midi": 84,
          "time": 124.8332085000005,
          "velocity": 0.7874015748031497,
          "duration": 0.16666650000000516
        },
        {
          "name": "F5",
          "midi": 77,
          "time": 124.9998750000005,
          "velocity": 0.7874015748031497,
          "duration": 0.16666650000000516
        },
        {
          "name": "C6",
          "midi": 84,
          "time": 124.9998750000005,
          "velocity": 0.7874015748031497,
          "duration": 0.16666650000000516
        },
        {
          "name": "C6",
          "midi": 84,
          "time": 125.1665415000005,
          "velocity": 0.7874015748031497,
          "duration": 0.08333324999999547
        },
        {
          "name": "F5",
          "midi": 77,
          "time": 125.1665415000005,
          "velocity": 0.7874015748031497,
          "duration": 0.08333324999999547
        },
        {
          "name": "F5",
          "midi": 77,
          "time": 125.2498747500005,
          "velocity": 0.7874015748031497,
          "duration": 0.08333324999999547
        },
        {
          "name": "C6",
          "midi": 84,
          "time": 125.2498747500005,
          "velocity": 0.7874015748031497,
          "duration": 0.08333324999999547
        },
        {
          "name": "C6",
          "midi": 84,
          "time": 125.3332080000005,
          "velocity": 0.7874015748031497,
          "duration": 0.16666650000000516
        },
        {
          "name": "F5",
          "midi": 77,
          "time": 125.3332080000005,
          "velocity": 0.7874015748031497,
          "duration": 0.16666650000000516
        },
        {
          "name": "F5",
          "midi": 77,
          "time": 125.4998745000005,
          "velocity": 0.7874015748031497,
          "duration": 0.08333324999999547
        },
        {
          "name": "C6",
          "midi": 84,
          "time": 125.4998745000005,
          "velocity": 0.7874015748031497,
          "duration": 0.08333324999999547
        },
        {
          "name": "C6",
          "midi": 84,
          "time": 125.5832077500005,
          "velocity": 0.7874015748031497,
          "duration": 0.08333324999999547
        },
        {
          "name": "F5",
          "midi": 77,
          "time": 125.5832077500005,
          "velocity": 0.7874015748031497,
          "duration": 0.08333324999999547
        },
        {
          "name": "C6",
          "midi": 84,
          "time": 125.66654100000049,
          "velocity": 0.7874015748031497,
          "duration": 0.16666650000000516
        },
        {
          "name": "F5",
          "midi": 77,
          "time": 125.66654100000049,
          "velocity": 0.7874015748031497,
          "duration": 0.16666650000000516
        },
        {
          "name": "F5",
          "midi": 77,
          "time": 125.8332075000005,
          "velocity": 0.7874015748031497,
          "duration": 0.16666650000000516
        },
        {
          "name": "C6",
          "midi": 84,
          "time": 125.8332075000005,
          "velocity": 0.7874015748031497,
          "duration": 0.16666650000000516
        },
        {
          "name": "C6",
          "midi": 84,
          "time": 125.9998740000005,
          "velocity": 0.7874015748031497,
          "duration": 0.16666650000000516
        },
        {
          "name": "F5",
          "midi": 77,
          "time": 125.9998740000005,
          "velocity": 0.7874015748031497,
          "duration": 0.16666650000000516
        },
        {
          "name": "C6",
          "midi": 84,
          "time": 126.16654050000051,
          "velocity": 0.7874015748031497,
          "duration": 0.16666650000000516
        },
        {
          "name": "F5",
          "midi": 77,
          "time": 126.16654050000051,
          "velocity": 0.7874015748031497,
          "duration": 0.16666650000000516
        },
        {
          "name": "F5",
          "midi": 77,
          "time": 126.33320700000051,
          "velocity": 0.7874015748031497,
          "duration": 0.16666650000000516
        },
        {
          "name": "C6",
          "midi": 84,
          "time": 126.33320700000051,
          "velocity": 0.7874015748031497,
          "duration": 0.16666650000000516
        },
        {
          "name": "C6",
          "midi": 84,
          "time": 126.49987350000052,
          "velocity": 0.7874015748031497,
          "duration": 0.08333324999999547
        },
        {
          "name": "F5",
          "midi": 77,
          "time": 126.49987350000052,
          "velocity": 0.7874015748031497,
          "duration": 0.08333324999999547
        },
        {
          "name": "C6",
          "midi": 84,
          "time": 126.58320675000051,
          "velocity": 0.7874015748031497,
          "duration": 0.08333324999999547
        },
        {
          "name": "F5",
          "midi": 77,
          "time": 126.58320675000051,
          "velocity": 0.7874015748031497,
          "duration": 0.08333324999999547
        },
        {
          "name": "A#4",
          "midi": 70,
          "time": 126.66654000000051,
          "velocity": 0.7874015748031497,
          "duration": 0.08333324999999547
        },
        {
          "name": "F5",
          "midi": 77,
          "time": 126.66654000000051,
          "velocity": 0.7874015748031497,
          "duration": 0.08333324999999547
        },
        {
          "name": "A#4",
          "midi": 70,
          "time": 126.7498732500005,
          "velocity": 0.7874015748031497,
          "duration": 0.08333324999999547
        },
        {
          "name": "F5",
          "midi": 77,
          "time": 126.7498732500005,
          "velocity": 0.7874015748031497,
          "duration": 0.08333324999999547
        },
        {
          "name": "F5",
          "midi": 77,
          "time": 126.8332065000005,
          "velocity": 0.7874015748031497,
          "duration": 0.08333324999999547
        },
        {
          "name": "A#4",
          "midi": 70,
          "time": 126.8332065000005,
          "velocity": 0.7874015748031497,
          "duration": 0.08333324999999547
        },
        {
          "name": "F5",
          "midi": 77,
          "time": 126.9165397500005,
          "velocity": 0.7874015748031497,
          "duration": 0.08333324999999547
        },
        {
          "name": "A#4",
          "midi": 70,
          "time": 126.9165397500005,
          "velocity": 0.7874015748031497,
          "duration": 0.08333324999999547
        },
        {
          "name": "F5",
          "midi": 77,
          "time": 126.99987300000049,
          "velocity": 0.7874015748031497,
          "duration": 0.08333324999999547
        },
        {
          "name": "A#4",
          "midi": 70,
          "time": 126.99987300000049,
          "velocity": 0.7874015748031497,
          "duration": 0.08333324999999547
        },
        {
          "name": "A#4",
          "midi": 70,
          "time": 127.16653950000048,
          "velocity": 0.7874015748031497,
          "duration": 0.08333324999999547
        },
        {
          "name": "F5",
          "midi": 77,
          "time": 127.16653950000048,
          "velocity": 0.7874015748031497,
          "duration": 0.08333324999999547
        },
        {
          "name": "F5",
          "midi": 77,
          "time": 127.24987275000048,
          "velocity": 0.7874015748031497,
          "duration": 0.08333324999999547
        },
        {
          "name": "A#4",
          "midi": 70,
          "time": 127.24987275000048,
          "velocity": 0.7874015748031497,
          "duration": 0.08333324999999547
        },
        {
          "name": "F5",
          "midi": 77,
          "time": 127.33320600000047,
          "velocity": 0.7874015748031497,
          "duration": 0.08333324999999547
        },
        {
          "name": "A#4",
          "midi": 70,
          "time": 127.33320600000047,
          "velocity": 0.7874015748031497,
          "duration": 0.08333324999999547
        },
        {
          "name": "A#4",
          "midi": 70,
          "time": 127.41653925000047,
          "velocity": 0.7874015748031497,
          "duration": 0.08333324999999547
        },
        {
          "name": "F5",
          "midi": 77,
          "time": 127.41653925000047,
          "velocity": 0.7874015748031497,
          "duration": 0.08333324999999547
        },
        {
          "name": "A#4",
          "midi": 70,
          "time": 127.49987250000046,
          "velocity": 0.7874015748031497,
          "duration": 0.08333324999999547
        },
        {
          "name": "F5",
          "midi": 77,
          "time": 127.49987250000046,
          "velocity": 0.7874015748031497,
          "duration": 0.08333324999999547
        },
        {
          "name": "F5",
          "midi": 77,
          "time": 127.66653900000045,
          "velocity": 0.7874015748031497,
          "duration": 0.08333324999999547
        },
        {
          "name": "A#4",
          "midi": 70,
          "time": 127.66653900000045,
          "velocity": 0.7874015748031497,
          "duration": 0.08333324999999547
        },
        {
          "name": "A#4",
          "midi": 70,
          "time": 127.74987225000045,
          "velocity": 0.7874015748031497,
          "duration": 0.08333324999999547
        },
        {
          "name": "F5",
          "midi": 77,
          "time": 127.74987225000045,
          "velocity": 0.7874015748031497,
          "duration": 0.08333324999999547
        },
        {
          "name": "A#4",
          "midi": 70,
          "time": 127.83320550000045,
          "velocity": 0.7874015748031497,
          "duration": 0.08333324999999547
        },
        {
          "name": "F5",
          "midi": 77,
          "time": 127.83320550000045,
          "velocity": 0.7874015748031497,
          "duration": 0.08333324999999547
        },
        {
          "name": "A#4",
          "midi": 70,
          "time": 127.91653875000044,
          "velocity": 0.7874015748031497,
          "duration": 0.08333324999999547
        },
        {
          "name": "F5",
          "midi": 77,
          "time": 127.91653875000044,
          "velocity": 0.7874015748031497,
          "duration": 0.08333324999999547
        },
        {
          "name": "F5",
          "midi": 77,
          "time": 127.99987200000044,
          "velocity": 0.7874015748031497,
          "duration": 0.08333325000000968
        },
        {
          "name": "A#4",
          "midi": 70,
          "time": 127.99987200000044,
          "velocity": 0.7874015748031497,
          "duration": 0.08333325000000968
        },
        {
          "name": "A#4",
          "midi": 70,
          "time": 128.16653850000046,
          "velocity": 0.7874015748031497,
          "duration": 0.16666649999999095
        },
        {
          "name": "F5",
          "midi": 77,
          "time": 128.16653850000046,
          "velocity": 0.7874015748031497,
          "duration": 0.16666649999999095
        },
        {
          "name": "A#4",
          "midi": 70,
          "time": 128.33320500000045,
          "velocity": 0.7874015748031497,
          "duration": 0.16666649999999095
        },
        {
          "name": "F5",
          "midi": 77,
          "time": 128.33320500000045,
          "velocity": 0.7874015748031497,
          "duration": 0.16666649999999095
        },
        {
          "name": "F5",
          "midi": 77,
          "time": 128.49987150000044,
          "velocity": 0.7874015748031497,
          "duration": 0.16666649999999095
        },
        {
          "name": "A#4",
          "midi": 70,
          "time": 128.49987150000044,
          "velocity": 0.7874015748031497,
          "duration": 0.16666649999999095
        },
        {
          "name": "F5",
          "midi": 77,
          "time": 128.66653800000043,
          "velocity": 0.7874015748031497,
          "duration": 0.16666649999999095
        },
        {
          "name": "A#4",
          "midi": 70,
          "time": 128.66653800000043,
          "velocity": 0.7874015748031497,
          "duration": 0.16666649999999095
        }
      ],
      "controlChanges": {
        "6": [
          {
            "number": 6,
            "time": 0,
            "value": 0.09448818897637795
          },
          {
            "number": 6,
            "time": 0,
            "value": 0.09448818897637795
          },
          {
            "number": 6,
            "time": 0,
            "value": 0.09448818897637795
          },
          {
            "number": 6,
            "time": 129.33320400000042,
            "value": 0.09448818897637795
          },
          {
            "number": 6,
            "time": 131.06931337500043,
            "value": 0.09448818897637795
          }
        ],
        "7": [
          {
            "number": 7,
            "time": 0,
            "value": 0.7874015748031497
          },
          {
            "number": 7,
            "time": 0,
            "value": 0.7874015748031497
          },
          {
            "number": 7,
            "time": 0,
            "value": 0.7874015748031497
          },
          {
            "number": 7,
            "time": 0,
            "value": 0.7874015748031497
          },
          {
            "number": 7,
            "time": 0,
            "value": 0.7874015748031497
          },
          {
            "number": 7,
            "time": 0,
            "value": 0.7874015748031497
          },
          {
            "number": 7,
            "time": 129.33320400000042,
            "value": 0.7874015748031497
          },
          {
            "number": 7,
            "time": 131.06584115625043,
            "value": 0.7874015748031497
          },
          {
            "number": 7,
            "time": 131.06931337500043,
            "value": 0.7874015748031497
          }
        ],
        "10": [
          {
            "number": 10,
            "time": 0,
            "value": 0.5039370078740157
          },
          {
            "number": 10,
            "time": 0,
            "value": 0.5039370078740157
          },
          {
            "number": 10,
            "time": 0,
            "value": 0.5039370078740157
          },
          {
            "number": 10,
            "time": 0,
            "value": 0.5039370078740157
          },
          {
            "number": 10,
            "time": 0,
            "value": 0.5039370078740157
          },
          {
            "number": 10,
            "time": 0,
            "value": 0.5039370078740157
          },
          {
            "number": 10,
            "time": 129.33320400000042,
            "value": 0.5039370078740157
          },
          {
            "number": 10,
            "time": 131.06584115625043,
            "value": 0.5039370078740157
          },
          {
            "number": 10,
            "time": 131.06931337500043,
            "value": 0.5039370078740157
          }
        ],
        "100": [
          {
            "number": 100,
            "time": 0,
            "value": 0
          },
          {
            "number": 100,
            "time": 0,
            "value": 0
          },
          {
            "number": 100,
            "time": 0,
            "value": 0
          },
          {
            "number": 100,
            "time": 129.33320400000042,
            "value": 0
          },
          {
            "number": 100,
            "time": 131.06931337500043,
            "value": 0
          }
        ],
        "101": [
          {
            "number": 101,
            "time": 0,
            "value": 0
          },
          {
            "number": 101,
            "time": 0,
            "value": 0
          },
          {
            "number": 101,
            "time": 0,
            "value": 0
          },
          {
            "number": 101,
            "time": 129.33320400000042,
            "value": 0
          },
          {
            "number": 101,
            "time": 131.06931337500043,
            "value": 0
          }
        ]
      },
      "id": 5,
      "name": "Flute",
      "instrumentNumber": 73,
      "instrument": "flute",
      "instrumentFamily": "pipe",
      "channelNumber": 3,
      "isPercussion": false
    },
    {
      "startTime": 9.333324,
      "duration": 128.74987124999777,
      "length": 1240,
      "notes": [
        {
          "name": "F4",
          "midi": 65,
          "time": 9.333324,
          "velocity": 0.7874015748031497,
          "duration": 0.0833332500000008
        },
        {
          "name": "A4",
          "midi": 69,
          "time": 9.41665725,
          "velocity": 0.7874015748031497,
          "duration": 0.0833332500000008
        },
        {
          "name": "C5",
          "midi": 72,
          "time": 9.499990500000001,
          "velocity": 0.7874015748031497,
          "duration": 0.0833332500000008
        },
        {
          "name": "F5",
          "midi": 77,
          "time": 9.583323750000002,
          "velocity": 0.7874015748031497,
          "duration": 0.0833332500000008
        },
        {
          "name": "A4",
          "midi": 69,
          "time": 9.666657000000002,
          "velocity": 0.7874015748031497,
          "duration": 0.0833332500000008
        },
        {
          "name": "C5",
          "midi": 72,
          "time": 9.749990250000003,
          "velocity": 0.7874015748031497,
          "duration": 0.0833332500000008
        },
        {
          "name": "F5",
          "midi": 77,
          "time": 9.833323500000004,
          "velocity": 0.7874015748031497,
          "duration": 0.0833332500000008
        },
        {
          "name": "A5",
          "midi": 81,
          "time": 9.916656750000005,
          "velocity": 0.7874015748031497,
          "duration": 0.0833332500000008
        },
        {
          "name": "C5",
          "midi": 72,
          "time": 9.999990000000006,
          "velocity": 0.7874015748031497,
          "duration": 0.0833332500000008
        },
        {
          "name": "F5",
          "midi": 77,
          "time": 10.083323250000007,
          "velocity": 0.7874015748031497,
          "duration": 0.0833332500000008
        },
        {
          "name": "A5",
          "midi": 81,
          "time": 10.166656500000007,
          "velocity": 0.7874015748031497,
          "duration": 0.0833332500000008
        },
        {
          "name": "C6",
          "midi": 84,
          "time": 10.249989750000008,
          "velocity": 0.7874015748031497,
          "duration": 0.0833332500000008
        },
        {
          "name": "F5",
          "midi": 77,
          "time": 10.333323000000009,
          "velocity": 0.7874015748031497,
          "duration": 0.0833332500000008
        },
        {
          "name": "A5",
          "midi": 81,
          "time": 10.41665625000001,
          "velocity": 0.7874015748031497,
          "duration": 0.0833332500000008
        },
        {
          "name": "C6",
          "midi": 84,
          "time": 10.49998950000001,
          "velocity": 0.7874015748031497,
          "duration": 0.0833332500000008
        },
        {
          "name": "F6",
          "midi": 89,
          "time": 10.583322750000011,
          "velocity": 0.7874015748031497,
          "duration": 0.0833332500000008
        },
        {
          "name": "A#3",
          "midi": 58,
          "time": 10.666656000000012,
          "velocity": 0.7874015748031497,
          "duration": 0.0833332500000008
        },
        {
          "name": "D4",
          "midi": 62,
          "time": 10.749989250000013,
          "velocity": 0.7874015748031497,
          "duration": 0.0833332500000008
        },
        {
          "name": "F4",
          "midi": 65,
          "time": 10.833322500000014,
          "velocity": 0.7874015748031497,
          "duration": 0.0833332500000008
        },
        {
          "name": "A#4",
          "midi": 70,
          "time": 10.916655750000015,
          "velocity": 0.7874015748031497,
          "duration": 0.0833332500000008
        },
        {
          "name": "D4",
          "midi": 62,
          "time": 10.999989000000015,
          "velocity": 0.7874015748031497,
          "duration": 0.0833332500000008
        },
        {
          "name": "F4",
          "midi": 65,
          "time": 11.083322250000016,
          "velocity": 0.7874015748031497,
          "duration": 0.0833332500000008
        },
        {
          "name": "A#4",
          "midi": 70,
          "time": 11.166655500000017,
          "velocity": 0.7874015748031497,
          "duration": 0.0833332500000008
        },
        {
          "name": "D5",
          "midi": 74,
          "time": 11.249988750000018,
          "velocity": 0.7874015748031497,
          "duration": 0.0833332500000008
        },
        {
          "name": "F5",
          "midi": 77,
          "time": 11.333322000000019,
          "velocity": 0.7874015748031497,
          "duration": 0.0833332500000008
        },
        {
          "name": "D5",
          "midi": 74,
          "time": 11.41665525000002,
          "velocity": 0.7874015748031497,
          "duration": 0.0833332500000008
        },
        {
          "name": "A#4",
          "midi": 70,
          "time": 11.49998850000002,
          "velocity": 0.7874015748031497,
          "duration": 0.0833332500000008
        },
        {
          "name": "F4",
          "midi": 65,
          "time": 11.583321750000021,
          "velocity": 0.7874015748031497,
          "duration": 0.0833332500000008
        },
        {
          "name": "A#4",
          "midi": 70,
          "time": 11.666655000000022,
          "velocity": 0.7874015748031497,
          "duration": 0.0833332500000008
        },
        {
          "name": "F4",
          "midi": 65,
          "time": 11.749988250000023,
          "velocity": 0.7874015748031497,
          "duration": 0.0833332500000008
        },
        {
          "name": "D4",
          "midi": 62,
          "time": 11.833321500000023,
          "velocity": 0.7874015748031497,
          "duration": 0.0833332500000008
        },
        {
          "name": "A#3",
          "midi": 58,
          "time": 11.916654750000024,
          "velocity": 0.7874015748031497,
          "duration": 0.0833332500000008
        },
        {
          "name": "D#4",
          "midi": 63,
          "time": 11.999988000000025,
          "velocity": 0.7874015748031497,
          "duration": 0.0833332500000008
        },
        {
          "name": "G4",
          "midi": 67,
          "time": 12.083321250000026,
          "velocity": 0.7874015748031497,
          "duration": 0.0833332500000008
        },
        {
          "name": "A#4",
          "midi": 70,
          "time": 12.166654500000027,
          "velocity": 0.7874015748031497,
          "duration": 0.0833332500000008
        },
        {
          "name": "D#5",
          "midi": 75,
          "time": 12.249987750000027,
          "velocity": 0.7874015748031497,
          "duration": 0.0833332500000008
        },
        {
          "name": "G4",
          "midi": 67,
          "time": 12.333321000000028,
          "velocity": 0.7874015748031497,
          "duration": 0.0833332500000008
        },
        {
          "name": "A#4",
          "midi": 70,
          "time": 12.416654250000029,
          "velocity": 0.7874015748031497,
          "duration": 0.0833332500000008
        },
        {
          "name": "D#5",
          "midi": 75,
          "time": 12.49998750000003,
          "velocity": 0.7874015748031497,
          "duration": 0.0833332500000008
        },
        {
          "name": "G5",
          "midi": 79,
          "time": 12.58332075000003,
          "velocity": 0.7874015748031497,
          "duration": 0.0833332500000008
        },
        {
          "name": "A#5",
          "midi": 82,
          "time": 12.666654000000031,
          "velocity": 0.7874015748031497,
          "duration": 0.0833332500000008
        },
        {
          "name": "G5",
          "midi": 79,
          "time": 12.749987250000032,
          "velocity": 0.7874015748031497,
          "duration": 0.0833332500000008
        },
        {
          "name": "D#5",
          "midi": 75,
          "time": 12.833320500000033,
          "velocity": 0.7874015748031497,
          "duration": 0.0833332500000008
        },
        {
          "name": "A#4",
          "midi": 70,
          "time": 12.916653750000034,
          "velocity": 0.7874015748031497,
          "duration": 0.0833332500000008
        },
        {
          "name": "D#5",
          "midi": 75,
          "time": 12.999987000000035,
          "velocity": 0.7874015748031497,
          "duration": 0.0833332500000008
        },
        {
          "name": "A#4",
          "midi": 70,
          "time": 13.083320250000035,
          "velocity": 0.7874015748031497,
          "duration": 0.0833332500000008
        },
        {
          "name": "G4",
          "midi": 67,
          "time": 13.166653500000036,
          "velocity": 0.7874015748031497,
          "duration": 0.0833332500000008
        },
        {
          "name": "D#4",
          "midi": 63,
          "time": 13.249986750000037,
          "velocity": 0.7874015748031497,
          "duration": 0.0833332500000008
        },
        {
          "name": "F4",
          "midi": 65,
          "time": 13.333320000000038,
          "velocity": 0.7874015748031497,
          "duration": 0.0833332500000008
        },
        {
          "name": "A4",
          "midi": 69,
          "time": 13.416653250000039,
          "velocity": 0.7874015748031497,
          "duration": 0.0833332500000008
        },
        {
          "name": "C5",
          "midi": 72,
          "time": 13.49998650000004,
          "velocity": 0.7874015748031497,
          "duration": 0.0833332500000008
        },
        {
          "name": "F5",
          "midi": 77,
          "time": 13.58331975000004,
          "velocity": 0.7874015748031497,
          "duration": 0.0833332500000008
        },
        {
          "name": "A4",
          "midi": 69,
          "time": 13.666653000000041,
          "velocity": 0.7874015748031497,
          "duration": 0.0833332500000008
        },
        {
          "name": "C5",
          "midi": 72,
          "time": 13.749986250000042,
          "velocity": 0.7874015748031497,
          "duration": 0.0833332500000008
        },
        {
          "name": "F5",
          "midi": 77,
          "time": 13.833319500000043,
          "velocity": 0.7874015748031497,
          "duration": 0.0833332500000008
        },
        {
          "name": "A5",
          "midi": 81,
          "time": 13.916652750000043,
          "velocity": 0.7874015748031497,
          "duration": 0.0833332500000008
        },
        {
          "name": "C6",
          "midi": 84,
          "time": 13.999986000000044,
          "velocity": 0.7874015748031497,
          "duration": 0.0833332500000008
        },
        {
          "name": "A5",
          "midi": 81,
          "time": 14.083319250000045,
          "velocity": 0.7874015748031497,
          "duration": 0.0833332500000008
        },
        {
          "name": "F5",
          "midi": 77,
          "time": 14.166652500000046,
          "velocity": 0.7874015748031497,
          "duration": 0.0833332500000008
        },
        {
          "name": "C5",
          "midi": 72,
          "time": 14.249985750000047,
          "velocity": 0.7874015748031497,
          "duration": 0.0833332500000008
        },
        {
          "name": "F5",
          "midi": 77,
          "time": 14.333319000000047,
          "velocity": 0.7874015748031497,
          "duration": 0.0833332500000008
        },
        {
          "name": "C5",
          "midi": 72,
          "time": 14.416652250000048,
          "velocity": 0.7874015748031497,
          "duration": 0.0833332500000008
        },
        {
          "name": "A4",
          "midi": 69,
          "time": 14.499985500000049,
          "velocity": 0.7874015748031497,
          "duration": 0.0833332500000008
        },
        {
          "name": "F4",
          "midi": 65,
          "time": 14.58331875000005,
          "velocity": 0.7874015748031497,
          "duration": 0.0833332500000008
        },
        {
          "name": "G3",
          "midi": 55,
          "time": 14.66665200000005,
          "velocity": 0.7874015748031497,
          "duration": 0.0833332500000008
        },
        {
          "name": "A#3",
          "midi": 58,
          "time": 14.749985250000051,
          "velocity": 0.7874015748031497,
          "duration": 0.0833332500000008
        },
        {
          "name": "D4",
          "midi": 62,
          "time": 14.833318500000052,
          "velocity": 0.7874015748031497,
          "duration": 0.0833332500000008
        },
        {
          "name": "G4",
          "midi": 67,
          "time": 14.916651750000053,
          "velocity": 0.7874015748031497,
          "duration": 0.0833332500000008
        },
        {
          "name": "A#3",
          "midi": 58,
          "time": 14.999985000000054,
          "velocity": 0.7874015748031497,
          "duration": 0.0833332500000008
        },
        {
          "name": "D4",
          "midi": 62,
          "time": 15.083318250000055,
          "velocity": 0.7874015748031497,
          "duration": 0.0833332500000008
        },
        {
          "name": "G4",
          "midi": 67,
          "time": 15.166651500000055,
          "velocity": 0.7874015748031497,
          "duration": 0.0833332500000008
        },
        {
          "name": "A#4",
          "midi": 70,
          "time": 15.249984750000056,
          "velocity": 0.7874015748031497,
          "duration": 0.0833332500000008
        },
        {
          "name": "D5",
          "midi": 74,
          "time": 15.333318000000057,
          "velocity": 0.7874015748031497,
          "duration": 0.0833332500000008
        },
        {
          "name": "A#4",
          "midi": 70,
          "time": 15.416651250000058,
          "velocity": 0.7874015748031497,
          "duration": 0.0833332500000008
        },
        {
          "name": "G4",
          "midi": 67,
          "time": 15.499984500000059,
          "velocity": 0.7874015748031497,
          "duration": 0.0833332500000008
        },
        {
          "name": "D4",
          "midi": 62,
          "time": 15.58331775000006,
          "velocity": 0.7874015748031497,
          "duration": 0.0833332500000008
        },
        {
          "name": "G4",
          "midi": 67,
          "time": 15.66665100000006,
          "velocity": 0.7874015748031497,
          "duration": 0.0833332500000008
        },
        {
          "name": "D4",
          "midi": 62,
          "time": 15.749984250000061,
          "velocity": 0.7874015748031497,
          "duration": 0.0833332500000008
        },
        {
          "name": "A#3",
          "midi": 58,
          "time": 15.833317500000062,
          "velocity": 0.7874015748031497,
          "duration": 0.0833332500000008
        },
        {
          "name": "G3",
          "midi": 55,
          "time": 15.916650750000063,
          "velocity": 0.7874015748031497,
          "duration": 0.0833332500000008
        },
        {
          "name": "D#4",
          "midi": 63,
          "time": 15.999984000000063,
          "velocity": 0.7874015748031497,
          "duration": 0.0833332500000008
        },
        {
          "name": "G4",
          "midi": 67,
          "time": 16.083317250000064,
          "velocity": 0.7874015748031497,
          "duration": 0.08333324999999903
        },
        {
          "name": "A#4",
          "midi": 70,
          "time": 16.166650500000063,
          "velocity": 0.7874015748031497,
          "duration": 0.08333324999999903
        },
        {
          "name": "D#5",
          "midi": 75,
          "time": 16.249983750000062,
          "velocity": 0.7874015748031497,
          "duration": 0.08333324999999903
        },
        {
          "name": "G4",
          "midi": 67,
          "time": 16.33331700000006,
          "velocity": 0.7874015748031497,
          "duration": 0.08333324999999903
        },
        {
          "name": "A#4",
          "midi": 70,
          "time": 16.41665025000006,
          "velocity": 0.7874015748031497,
          "duration": 0.08333324999999903
        },
        {
          "name": "D#5",
          "midi": 75,
          "time": 16.49998350000006,
          "velocity": 0.7874015748031497,
          "duration": 0.08333324999999903
        },
        {
          "name": "G5",
          "midi": 79,
          "time": 16.58331675000006,
          "velocity": 0.7874015748031497,
          "duration": 0.08333324999999903
        },
        {
          "name": "F5",
          "midi": 77,
          "time": 16.666650000000057,
          "velocity": 0.7874015748031497,
          "duration": 0.08333324999999903
        },
        {
          "name": "D5",
          "midi": 74,
          "time": 16.749983250000057,
          "velocity": 0.7874015748031497,
          "duration": 0.08333324999999903
        },
        {
          "name": "A#4",
          "midi": 70,
          "time": 16.833316500000056,
          "velocity": 0.7874015748031497,
          "duration": 0.08333324999999903
        },
        {
          "name": "F4",
          "midi": 65,
          "time": 16.916649750000055,
          "velocity": 0.7874015748031497,
          "duration": 0.08333324999999903
        },
        {
          "name": "A#4",
          "midi": 70,
          "time": 16.999983000000054,
          "velocity": 0.7874015748031497,
          "duration": 0.08333324999999903
        },
        {
          "name": "F4",
          "midi": 65,
          "time": 17.083316250000053,
          "velocity": 0.7874015748031497,
          "duration": 0.08333324999999903
        },
        {
          "name": "D4",
          "midi": 62,
          "time": 17.16664950000005,
          "velocity": 0.7874015748031497,
          "duration": 0.08333324999999903
        },
        {
          "name": "A#3",
          "midi": 58,
          "time": 17.24998275000005,
          "velocity": 0.7874015748031497,
          "duration": 0.08333324999999903
        },
        {
          "name": "F4",
          "midi": 65,
          "time": 17.33331600000005,
          "velocity": 0.7874015748031497,
          "duration": 0.08333324999999903
        },
        {
          "name": "A4",
          "midi": 69,
          "time": 17.41664925000005,
          "velocity": 0.7874015748031497,
          "duration": 0.08333324999999903
        },
        {
          "name": "C5",
          "midi": 72,
          "time": 17.499982500000048,
          "velocity": 0.7874015748031497,
          "duration": 0.08333324999999903
        },
        {
          "name": "F5",
          "midi": 77,
          "time": 17.583315750000047,
          "velocity": 0.7874015748031497,
          "duration": 0.08333324999999903
        },
        {
          "name": "A4",
          "midi": 69,
          "time": 17.666649000000046,
          "velocity": 0.7874015748031497,
          "duration": 0.08333324999999903
        },
        {
          "name": "C5",
          "midi": 72,
          "time": 17.749982250000045,
          "velocity": 0.7874015748031497,
          "duration": 0.08333324999999903
        },
        {
          "name": "F5",
          "midi": 77,
          "time": 17.833315500000044,
          "velocity": 0.7874015748031497,
          "duration": 0.08333324999999903
        },
        {
          "name": "A5",
          "midi": 81,
          "time": 17.916648750000043,
          "velocity": 0.7874015748031497,
          "duration": 0.08333324999999903
        },
        {
          "name": "D5",
          "midi": 74,
          "time": 17.999982000000042,
          "velocity": 0.7874015748031497,
          "duration": 0.08333324999999903
        },
        {
          "name": "A#4",
          "midi": 70,
          "time": 18.08331525000004,
          "velocity": 0.7874015748031497,
          "duration": 0.08333324999999903
        },
        {
          "name": "G4",
          "midi": 67,
          "time": 18.16664850000004,
          "velocity": 0.7874015748031497,
          "duration": 0.08333324999999903
        },
        {
          "name": "D4",
          "midi": 62,
          "time": 18.24998175000004,
          "velocity": 0.7874015748031497,
          "duration": 0.08333324999999903
        },
        {
          "name": "G4",
          "midi": 67,
          "time": 18.333315000000038,
          "velocity": 0.7874015748031497,
          "duration": 0.08333324999999903
        },
        {
          "name": "D4",
          "midi": 62,
          "time": 18.416648250000037,
          "velocity": 0.7874015748031497,
          "duration": 0.08333324999999903
        },
        {
          "name": "A#3",
          "midi": 58,
          "time": 18.499981500000036,
          "velocity": 0.7874015748031497,
          "duration": 0.08333324999999903
        },
        {
          "name": "G3",
          "midi": 55,
          "time": 18.583314750000035,
          "velocity": 0.7874015748031497,
          "duration": 0.08333324999999903
        },
        {
          "name": "D#4",
          "midi": 63,
          "time": 18.666648000000034,
          "velocity": 0.7874015748031497,
          "duration": 0.08333324999999903
        },
        {
          "name": "G4",
          "midi": 67,
          "time": 18.749981250000033,
          "velocity": 0.7874015748031497,
          "duration": 0.08333324999999903
        },
        {
          "name": "A#4",
          "midi": 70,
          "time": 18.833314500000032,
          "velocity": 0.7874015748031497,
          "duration": 0.08333324999999903
        },
        {
          "name": "D#5",
          "midi": 75,
          "time": 18.91664775000003,
          "velocity": 0.7874015748031497,
          "duration": 0.08333324999999903
        },
        {
          "name": "G4",
          "midi": 67,
          "time": 18.99998100000003,
          "velocity": 0.7874015748031497,
          "duration": 0.08333324999999903
        },
        {
          "name": "A#4",
          "midi": 70,
          "time": 19.08331425000003,
          "velocity": 0.7874015748031497,
          "duration": 0.08333324999999903
        },
        {
          "name": "D#5",
          "midi": 75,
          "time": 19.16664750000003,
          "velocity": 0.7874015748031497,
          "duration": 0.08333324999999903
        },
        {
          "name": "G5",
          "midi": 79,
          "time": 19.249980750000027,
          "velocity": 0.7874015748031497,
          "duration": 0.08333324999999903
        },
        {
          "name": "A#5",
          "midi": 82,
          "time": 19.333314000000026,
          "velocity": 0.7874015748031497,
          "duration": 0.08333324999999903
        },
        {
          "name": "G5",
          "midi": 79,
          "time": 19.416647250000025,
          "velocity": 0.7874015748031497,
          "duration": 0.08333324999999903
        },
        {
          "name": "E5",
          "midi": 76,
          "time": 19.499980500000024,
          "velocity": 0.7874015748031497,
          "duration": 0.08333324999999903
        },
        {
          "name": "A#4",
          "midi": 70,
          "time": 19.583313750000023,
          "velocity": 0.7874015748031497,
          "duration": 0.08333324999999903
        },
        {
          "name": "E5",
          "midi": 76,
          "time": 19.666647000000022,
          "velocity": 0.7874015748031497,
          "duration": 0.08333324999999903
        },
        {
          "name": "A#4",
          "midi": 70,
          "time": 19.74998025000002,
          "velocity": 0.7874015748031497,
          "duration": 0.08333324999999903
        },
        {
          "name": "G4",
          "midi": 67,
          "time": 19.83331350000002,
          "velocity": 0.7874015748031497,
          "duration": 0.08333324999999903
        },
        {
          "name": "E4",
          "midi": 64,
          "time": 19.91664675000002,
          "velocity": 0.7874015748031497,
          "duration": 0.08333324999999903
        },
        {
          "name": "F4",
          "midi": 65,
          "time": 19.99998000000002,
          "velocity": 0.7874015748031497,
          "duration": 0.08333324999999903
        },
        {
          "name": "A4",
          "midi": 69,
          "time": 20.083313250000018,
          "velocity": 0.7874015748031497,
          "duration": 0.08333324999999903
        },
        {
          "name": "C5",
          "midi": 72,
          "time": 20.166646500000017,
          "velocity": 0.7874015748031497,
          "duration": 0.08333324999999903
        },
        {
          "name": "F5",
          "midi": 77,
          "time": 20.249979750000016,
          "velocity": 0.7874015748031497,
          "duration": 0.08333324999999903
        },
        {
          "name": "A4",
          "midi": 69,
          "time": 20.333313000000015,
          "velocity": 0.7874015748031497,
          "duration": 0.08333324999999903
        },
        {
          "name": "C5",
          "midi": 72,
          "time": 20.416646250000014,
          "velocity": 0.7874015748031497,
          "duration": 0.08333324999999903
        },
        {
          "name": "F5",
          "midi": 77,
          "time": 20.499979500000013,
          "velocity": 0.7874015748031497,
          "duration": 0.08333324999999903
        },
        {
          "name": "A5",
          "midi": 81,
          "time": 20.58331275000001,
          "velocity": 0.7874015748031497,
          "duration": 0.08333324999999903
        },
        {
          "name": "C6",
          "midi": 84,
          "time": 20.66664600000001,
          "velocity": 0.7874015748031497,
          "duration": 0.08333324999999903
        },
        {
          "name": "A5",
          "midi": 81,
          "time": 20.74997925000001,
          "velocity": 0.7874015748031497,
          "duration": 0.08333324999999903
        },
        {
          "name": "F5",
          "midi": 77,
          "time": 20.83331250000001,
          "velocity": 0.7874015748031497,
          "duration": 0.08333324999999903
        },
        {
          "name": "C5",
          "midi": 72,
          "time": 20.916645750000008,
          "velocity": 0.7874015748031497,
          "duration": 0.08333324999999903
        },
        {
          "name": "F5",
          "midi": 77,
          "time": 20.999979000000007,
          "velocity": 0.7874015748031497,
          "duration": 0.08333324999999903
        },
        {
          "name": "C5",
          "midi": 72,
          "time": 21.083312250000006,
          "velocity": 0.7874015748031497,
          "duration": 0.08333324999999903
        },
        {
          "name": "A4",
          "midi": 69,
          "time": 21.166645500000005,
          "velocity": 0.7874015748031497,
          "duration": 0.08333324999999903
        },
        {
          "name": "F4",
          "midi": 65,
          "time": 21.249978750000004,
          "velocity": 0.7874015748031497,
          "duration": 0.08333324999999903
        },
        {
          "name": "A#3",
          "midi": 58,
          "time": 21.333312000000003,
          "velocity": 0.7874015748031497,
          "duration": 0.08333324999999903
        },
        {
          "name": "D4",
          "midi": 62,
          "time": 21.416645250000002,
          "velocity": 0.7874015748031497,
          "duration": 0.08333324999999903
        },
        {
          "name": "F4",
          "midi": 65,
          "time": 21.4999785,
          "velocity": 0.7874015748031497,
          "duration": 0.08333324999999903
        },
        {
          "name": "A#4",
          "midi": 70,
          "time": 21.58331175,
          "velocity": 0.7874015748031497,
          "duration": 0.08333324999999903
        },
        {
          "name": "D4",
          "midi": 62,
          "time": 21.666645,
          "velocity": 0.7874015748031497,
          "duration": 0.08333324999999903
        },
        {
          "name": "F4",
          "midi": 65,
          "time": 21.749978249999998,
          "velocity": 0.7874015748031497,
          "duration": 0.08333324999999903
        },
        {
          "name": "A#4",
          "midi": 70,
          "time": 21.833311499999997,
          "velocity": 0.7874015748031497,
          "duration": 0.08333324999999903
        },
        {
          "name": "D5",
          "midi": 74,
          "time": 21.916644749999996,
          "velocity": 0.7874015748031497,
          "duration": 0.08333324999999903
        },
        {
          "name": "F5",
          "midi": 77,
          "time": 21.999977999999995,
          "velocity": 0.7874015748031497,
          "duration": 0.08333324999999903
        },
        {
          "name": "D5",
          "midi": 74,
          "time": 22.083311249999994,
          "velocity": 0.7874015748031497,
          "duration": 0.08333324999999903
        },
        {
          "name": "A#4",
          "midi": 70,
          "time": 22.166644499999993,
          "velocity": 0.7874015748031497,
          "duration": 0.08333324999999903
        },
        {
          "name": "F4",
          "midi": 65,
          "time": 22.249977749999992,
          "velocity": 0.7874015748031497,
          "duration": 0.08333324999999903
        },
        {
          "name": "A#4",
          "midi": 70,
          "time": 22.33331099999999,
          "velocity": 0.7874015748031497,
          "duration": 0.08333324999999903
        },
        {
          "name": "F4",
          "midi": 65,
          "time": 22.41664424999999,
          "velocity": 0.7874015748031497,
          "duration": 0.08333324999999903
        },
        {
          "name": "D4",
          "midi": 62,
          "time": 22.49997749999999,
          "velocity": 0.7874015748031497,
          "duration": 0.08333324999999903
        },
        {
          "name": "A#3",
          "midi": 58,
          "time": 22.58331074999999,
          "velocity": 0.7874015748031497,
          "duration": 0.08333324999999903
        },
        {
          "name": "D#4",
          "midi": 63,
          "time": 22.666643999999987,
          "velocity": 0.7874015748031497,
          "duration": 0.08333324999999903
        },
        {
          "name": "G4",
          "midi": 67,
          "time": 22.749977249999986,
          "velocity": 0.7874015748031497,
          "duration": 0.08333324999999903
        },
        {
          "name": "A#4",
          "midi": 70,
          "time": 22.833310499999985,
          "velocity": 0.7874015748031497,
          "duration": 0.08333324999999903
        },
        {
          "name": "D#5",
          "midi": 75,
          "time": 22.916643749999984,
          "velocity": 0.7874015748031497,
          "duration": 0.08333324999999903
        },
        {
          "name": "G4",
          "midi": 67,
          "time": 22.999976999999983,
          "velocity": 0.7874015748031497,
          "duration": 0.08333324999999903
        },
        {
          "name": "A#4",
          "midi": 70,
          "time": 23.083310249999982,
          "velocity": 0.7874015748031497,
          "duration": 0.08333324999999903
        },
        {
          "name": "D#5",
          "midi": 75,
          "time": 23.16664349999998,
          "velocity": 0.7874015748031497,
          "duration": 0.08333324999999903
        },
        {
          "name": "G5",
          "midi": 79,
          "time": 23.24997674999998,
          "velocity": 0.7874015748031497,
          "duration": 0.08333324999999903
        },
        {
          "name": "A#5",
          "midi": 82,
          "time": 23.33330999999998,
          "velocity": 0.7874015748031497,
          "duration": 0.08333324999999903
        },
        {
          "name": "G5",
          "midi": 79,
          "time": 23.41664324999998,
          "velocity": 0.7874015748031497,
          "duration": 0.08333324999999903
        },
        {
          "name": "D#5",
          "midi": 75,
          "time": 23.499976499999978,
          "velocity": 0.7874015748031497,
          "duration": 0.08333324999999903
        },
        {
          "name": "A#4",
          "midi": 70,
          "time": 23.583309749999977,
          "velocity": 0.7874015748031497,
          "duration": 0.08333324999999903
        },
        {
          "name": "D#5",
          "midi": 75,
          "time": 23.666642999999976,
          "velocity": 0.7874015748031497,
          "duration": 0.08333324999999903
        },
        {
          "name": "A#4",
          "midi": 70,
          "time": 23.749976249999975,
          "velocity": 0.7874015748031497,
          "duration": 0.08333324999999903
        },
        {
          "name": "G4",
          "midi": 67,
          "time": 23.833309499999974,
          "velocity": 0.7874015748031497,
          "duration": 0.08333324999999903
        },
        {
          "name": "D#4",
          "midi": 63,
          "time": 23.916642749999973,
          "velocity": 0.7874015748031497,
          "duration": 0.08333324999999903
        },
        {
          "name": "F4",
          "midi": 65,
          "time": 23.99997599999997,
          "velocity": 0.7874015748031497,
          "duration": 0.08333324999999903
        },
        {
          "name": "A4",
          "midi": 69,
          "time": 24.08330924999997,
          "velocity": 0.7874015748031497,
          "duration": 0.08333324999999903
        },
        {
          "name": "C5",
          "midi": 72,
          "time": 24.16664249999997,
          "velocity": 0.7874015748031497,
          "duration": 0.08333324999999903
        },
        {
          "name": "F5",
          "midi": 77,
          "time": 24.24997574999997,
          "velocity": 0.7874015748031497,
          "duration": 0.08333324999999903
        },
        {
          "name": "A4",
          "midi": 69,
          "time": 24.333308999999968,
          "velocity": 0.7874015748031497,
          "duration": 0.08333324999999903
        },
        {
          "name": "C5",
          "midi": 72,
          "time": 24.416642249999967,
          "velocity": 0.7874015748031497,
          "duration": 0.08333324999999903
        },
        {
          "name": "F5",
          "midi": 77,
          "time": 24.499975499999966,
          "velocity": 0.7874015748031497,
          "duration": 0.08333324999999903
        },
        {
          "name": "A5",
          "midi": 81,
          "time": 24.583308749999965,
          "velocity": 0.7874015748031497,
          "duration": 0.08333324999999903
        },
        {
          "name": "C6",
          "midi": 84,
          "time": 24.666641999999964,
          "velocity": 0.7874015748031497,
          "duration": 0.08333324999999903
        },
        {
          "name": "A5",
          "midi": 81,
          "time": 24.749975249999963,
          "velocity": 0.7874015748031497,
          "duration": 0.08333324999999903
        },
        {
          "name": "F5",
          "midi": 77,
          "time": 24.833308499999962,
          "velocity": 0.7874015748031497,
          "duration": 0.08333324999999903
        },
        {
          "name": "C5",
          "midi": 72,
          "time": 24.91664174999996,
          "velocity": 0.7874015748031497,
          "duration": 0.08333324999999903
        },
        {
          "name": "F5",
          "midi": 77,
          "time": 24.99997499999996,
          "velocity": 0.7874015748031497,
          "duration": 0.08333324999999903
        },
        {
          "name": "C5",
          "midi": 72,
          "time": 25.08330824999996,
          "velocity": 0.7874015748031497,
          "duration": 0.08333324999999903
        },
        {
          "name": "A4",
          "midi": 69,
          "time": 25.166641499999958,
          "velocity": 0.7874015748031497,
          "duration": 0.08333324999999903
        },
        {
          "name": "F4",
          "midi": 65,
          "time": 25.249974749999957,
          "velocity": 0.7874015748031497,
          "duration": 0.08333324999999903
        },
        {
          "name": "G3",
          "midi": 55,
          "time": 25.333307999999956,
          "velocity": 0.7874015748031497,
          "duration": 0.08333324999999903
        },
        {
          "name": "A#3",
          "midi": 58,
          "time": 25.416641249999955,
          "velocity": 0.7874015748031497,
          "duration": 0.08333324999999903
        },
        {
          "name": "D4",
          "midi": 62,
          "time": 25.499974499999954,
          "velocity": 0.7874015748031497,
          "duration": 0.08333324999999903
        },
        {
          "name": "G4",
          "midi": 67,
          "time": 25.583307749999953,
          "velocity": 0.7874015748031497,
          "duration": 0.08333324999999903
        },
        {
          "name": "A#3",
          "midi": 58,
          "time": 25.666640999999952,
          "velocity": 0.7874015748031497,
          "duration": 0.08333324999999903
        },
        {
          "name": "D4",
          "midi": 62,
          "time": 25.74997424999995,
          "velocity": 0.7874015748031497,
          "duration": 0.08333324999999903
        },
        {
          "name": "G4",
          "midi": 67,
          "time": 25.83330749999995,
          "velocity": 0.7874015748031497,
          "duration": 0.08333324999999903
        },
        {
          "name": "A#4",
          "midi": 70,
          "time": 25.91664074999995,
          "velocity": 0.7874015748031497,
          "duration": 0.08333324999999903
        },
        {
          "name": "D5",
          "midi": 74,
          "time": 25.99997399999995,
          "velocity": 0.7874015748031497,
          "duration": 0.08333324999999903
        },
        {
          "name": "A#4",
          "midi": 70,
          "time": 26.083307249999947,
          "velocity": 0.7874015748031497,
          "duration": 0.08333324999999903
        },
        {
          "name": "G4",
          "midi": 67,
          "time": 26.166640499999946,
          "velocity": 0.7874015748031497,
          "duration": 0.08333324999999903
        },
        {
          "name": "D4",
          "midi": 62,
          "time": 26.249973749999945,
          "velocity": 0.7874015748031497,
          "duration": 0.08333324999999903
        },
        {
          "name": "G4",
          "midi": 67,
          "time": 26.333306999999945,
          "velocity": 0.7874015748031497,
          "duration": 0.08333324999999903
        },
        {
          "name": "D4",
          "midi": 62,
          "time": 26.416640249999944,
          "velocity": 0.7874015748031497,
          "duration": 0.08333324999999903
        },
        {
          "name": "A#3",
          "midi": 58,
          "time": 26.499973499999943,
          "velocity": 0.7874015748031497,
          "duration": 0.08333324999999903
        },
        {
          "name": "G3",
          "midi": 55,
          "time": 26.58330674999994,
          "velocity": 0.7874015748031497,
          "duration": 0.08333324999999903
        },
        {
          "name": "D#4",
          "midi": 63,
          "time": 26.66663999999994,
          "velocity": 0.7874015748031497,
          "duration": 0.08333324999999903
        },
        {
          "name": "G4",
          "midi": 67,
          "time": 26.74997324999994,
          "velocity": 0.7874015748031497,
          "duration": 0.08333324999999903
        },
        {
          "name": "A#4",
          "midi": 70,
          "time": 26.83330649999994,
          "velocity": 0.7874015748031497,
          "duration": 0.08333324999999903
        },
        {
          "name": "D#5",
          "midi": 75,
          "time": 26.916639749999938,
          "velocity": 0.7874015748031497,
          "duration": 0.08333324999999903
        },
        {
          "name": "G4",
          "midi": 67,
          "time": 26.999972999999937,
          "velocity": 0.7874015748031497,
          "duration": 0.08333324999999903
        },
        {
          "name": "A#4",
          "midi": 70,
          "time": 27.083306249999936,
          "velocity": 0.7874015748031497,
          "duration": 0.08333324999999903
        },
        {
          "name": "D#5",
          "midi": 75,
          "time": 27.166639499999935,
          "velocity": 0.7874015748031497,
          "duration": 0.08333324999999903
        },
        {
          "name": "G5",
          "midi": 79,
          "time": 27.249972749999934,
          "velocity": 0.7874015748031497,
          "duration": 0.08333324999999903
        },
        {
          "name": "F5",
          "midi": 77,
          "time": 27.333305999999933,
          "velocity": 0.7874015748031497,
          "duration": 0.08333324999999903
        },
        {
          "name": "D5",
          "midi": 74,
          "time": 27.416639249999932,
          "velocity": 0.7874015748031497,
          "duration": 0.08333324999999903
        },
        {
          "name": "A#4",
          "midi": 70,
          "time": 27.49997249999993,
          "velocity": 0.7874015748031497,
          "duration": 0.08333324999999903
        },
        {
          "name": "F4",
          "midi": 65,
          "time": 27.58330574999993,
          "velocity": 0.7874015748031497,
          "duration": 0.08333324999999903
        },
        {
          "name": "A#4",
          "midi": 70,
          "time": 27.66663899999993,
          "velocity": 0.7874015748031497,
          "duration": 0.08333324999999903
        },
        {
          "name": "F4",
          "midi": 65,
          "time": 27.749972249999928,
          "velocity": 0.7874015748031497,
          "duration": 0.08333324999999903
        },
        {
          "name": "D4",
          "midi": 62,
          "time": 27.833305499999927,
          "velocity": 0.7874015748031497,
          "duration": 0.08333324999999903
        },
        {
          "name": "A#3",
          "midi": 58,
          "time": 27.916638749999926,
          "velocity": 0.7874015748031497,
          "duration": 0.08333324999999903
        },
        {
          "name": "F4",
          "midi": 65,
          "time": 27.999971999999925,
          "velocity": 0.7874015748031497,
          "duration": 0.08333324999999903
        },
        {
          "name": "A4",
          "midi": 69,
          "time": 28.083305249999924,
          "velocity": 0.7874015748031497,
          "duration": 0.08333324999999903
        },
        {
          "name": "C5",
          "midi": 72,
          "time": 28.166638499999923,
          "velocity": 0.7874015748031497,
          "duration": 0.08333324999999903
        },
        {
          "name": "F5",
          "midi": 77,
          "time": 28.249971749999922,
          "velocity": 0.7874015748031497,
          "duration": 0.08333324999999903
        },
        {
          "name": "A4",
          "midi": 69,
          "time": 28.33330499999992,
          "velocity": 0.7874015748031497,
          "duration": 0.08333324999999903
        },
        {
          "name": "C5",
          "midi": 72,
          "time": 28.41663824999992,
          "velocity": 0.7874015748031497,
          "duration": 0.08333324999999903
        },
        {
          "name": "F5",
          "midi": 77,
          "time": 28.49997149999992,
          "velocity": 0.7874015748031497,
          "duration": 0.08333324999999903
        },
        {
          "name": "A5",
          "midi": 81,
          "time": 28.583304749999918,
          "velocity": 0.7874015748031497,
          "duration": 0.08333324999999903
        },
        {
          "name": "D5",
          "midi": 74,
          "time": 28.666637999999917,
          "velocity": 0.7874015748031497,
          "duration": 0.08333324999999903
        },
        {
          "name": "A#4",
          "midi": 70,
          "time": 28.749971249999916,
          "velocity": 0.7874015748031497,
          "duration": 0.08333324999999903
        },
        {
          "name": "G4",
          "midi": 67,
          "time": 28.833304499999915,
          "velocity": 0.7874015748031497,
          "duration": 0.08333324999999903
        },
        {
          "name": "D4",
          "midi": 62,
          "time": 28.916637749999914,
          "velocity": 0.7874015748031497,
          "duration": 0.08333324999999903
        },
        {
          "name": "G4",
          "midi": 67,
          "time": 28.999970999999913,
          "velocity": 0.7874015748031497,
          "duration": 0.08333324999999903
        },
        {
          "name": "D4",
          "midi": 62,
          "time": 29.083304249999912,
          "velocity": 0.7874015748031497,
          "duration": 0.08333324999999903
        },
        {
          "name": "A#3",
          "midi": 58,
          "time": 29.16663749999991,
          "velocity": 0.7874015748031497,
          "duration": 0.08333324999999903
        },
        {
          "name": "G3",
          "midi": 55,
          "time": 29.24997074999991,
          "velocity": 0.7874015748031497,
          "duration": 0.08333324999999903
        },
        {
          "name": "D#4",
          "midi": 63,
          "time": 29.33330399999991,
          "velocity": 0.7874015748031497,
          "duration": 0.08333324999999903
        },
        {
          "name": "G4",
          "midi": 67,
          "time": 29.41663724999991,
          "velocity": 0.7874015748031497,
          "duration": 0.08333324999999903
        },
        {
          "name": "A#4",
          "midi": 70,
          "time": 29.499970499999908,
          "velocity": 0.7874015748031497,
          "duration": 0.08333324999999903
        },
        {
          "name": "D#5",
          "midi": 75,
          "time": 29.583303749999907,
          "velocity": 0.7874015748031497,
          "duration": 0.08333324999999903
        },
        {
          "name": "G4",
          "midi": 67,
          "time": 29.666636999999906,
          "velocity": 0.7874015748031497,
          "duration": 0.08333324999999903
        },
        {
          "name": "A#4",
          "midi": 70,
          "time": 29.749970249999905,
          "velocity": 0.7874015748031497,
          "duration": 0.08333324999999903
        },
        {
          "name": "D#5",
          "midi": 75,
          "time": 29.833303499999904,
          "velocity": 0.7874015748031497,
          "duration": 0.08333324999999903
        },
        {
          "name": "G5",
          "midi": 79,
          "time": 29.916636749999903,
          "velocity": 0.7874015748031497,
          "duration": 0.08333324999999903
        },
        {
          "name": "C6",
          "midi": 84,
          "time": 29.9999699999999,
          "velocity": 0.7874015748031497,
          "duration": 0.08333324999999903
        },
        {
          "name": "A5",
          "midi": 81,
          "time": 30.0833032499999,
          "velocity": 0.7874015748031497,
          "duration": 0.08333324999999903
        },
        {
          "name": "F5",
          "midi": 77,
          "time": 30.1666364999999,
          "velocity": 0.7874015748031497,
          "duration": 0.08333324999999903
        },
        {
          "name": "C5",
          "midi": 72,
          "time": 30.2499697499999,
          "velocity": 0.7874015748031497,
          "duration": 0.08333324999999903
        },
        {
          "name": "F5",
          "midi": 77,
          "time": 30.333302999999898,
          "velocity": 0.7874015748031497,
          "duration": 0.08333324999999903
        },
        {
          "name": "C5",
          "midi": 72,
          "time": 30.416636249999897,
          "velocity": 0.7874015748031497,
          "duration": 0.08333324999999903
        },
        {
          "name": "A4",
          "midi": 69,
          "time": 30.499969499999896,
          "velocity": 0.7874015748031497,
          "duration": 0.08333324999999903
        },
        {
          "name": "F4",
          "midi": 65,
          "time": 30.583302749999895,
          "velocity": 0.7874015748031497,
          "duration": 0.08333324999999903
        },
        {
          "name": "A#3",
          "midi": 58,
          "time": 30.666635999999894,
          "velocity": 0.7874015748031497,
          "duration": 0.08333324999999903
        },
        {
          "name": "D4",
          "midi": 62,
          "time": 30.749969249999893,
          "velocity": 0.7874015748031497,
          "duration": 0.08333324999999903
        },
        {
          "name": "F4",
          "midi": 65,
          "time": 30.833302499999892,
          "velocity": 0.7874015748031497,
          "duration": 0.08333324999999903
        },
        {
          "name": "A#4",
          "midi": 70,
          "time": 30.91663574999989,
          "velocity": 0.7874015748031497,
          "duration": 0.08333324999999903
        },
        {
          "name": "D4",
          "midi": 62,
          "time": 30.99996899999989,
          "velocity": 0.7874015748031497,
          "duration": 0.08333324999999903
        },
        {
          "name": "F4",
          "midi": 65,
          "time": 31.08330224999989,
          "velocity": 0.7874015748031497,
          "duration": 0.08333324999999903
        },
        {
          "name": "A#4",
          "midi": 70,
          "time": 31.166635499999888,
          "velocity": 0.7874015748031497,
          "duration": 0.08333324999999903
        },
        {
          "name": "D5",
          "midi": 74,
          "time": 31.249968749999887,
          "velocity": 0.7874015748031497,
          "duration": 0.08333324999999903
        },
        {
          "name": "F5",
          "midi": 77,
          "time": 31.333301999999886,
          "velocity": 0.7874015748031497,
          "duration": 0.08333324999999903
        },
        {
          "name": "D5",
          "midi": 74,
          "time": 31.416635249999885,
          "velocity": 0.7874015748031497,
          "duration": 0.08333324999999903
        },
        {
          "name": "A#4",
          "midi": 70,
          "time": 31.499968499999884,
          "velocity": 0.7874015748031497,
          "duration": 0.08333324999999903
        },
        {
          "name": "F4",
          "midi": 65,
          "time": 31.583301749999883,
          "velocity": 0.7874015748031497,
          "duration": 0.08333324999999903
        },
        {
          "name": "A#4",
          "midi": 70,
          "time": 31.666634999999882,
          "velocity": 0.7874015748031497,
          "duration": 0.08333324999999903
        },
        {
          "name": "F4",
          "midi": 65,
          "time": 31.74996824999988,
          "velocity": 0.7874015748031497,
          "duration": 0.08333324999999903
        },
        {
          "name": "D4",
          "midi": 62,
          "time": 31.83330149999988,
          "velocity": 0.7874015748031497,
          "duration": 0.08333324999999903
        },
        {
          "name": "A#3",
          "midi": 58,
          "time": 31.91663474999988,
          "velocity": 0.7874015748031497,
          "duration": 0.08333324999999903
        },
        {
          "name": "D#4",
          "midi": 63,
          "time": 31.99996799999988,
          "velocity": 0.7874015748031497,
          "duration": 0.08333324999999903
        },
        {
          "name": "G4",
          "midi": 67,
          "time": 32.08330124999988,
          "velocity": 0.7874015748031497,
          "duration": 0.08333325000000258
        },
        {
          "name": "A#4",
          "midi": 70,
          "time": 32.16663449999988,
          "velocity": 0.7874015748031497,
          "duration": 0.08333325000000258
        },
        {
          "name": "D#5",
          "midi": 75,
          "time": 32.24996774999988,
          "velocity": 0.7874015748031497,
          "duration": 0.08333325000000258
        },
        {
          "name": "G4",
          "midi": 67,
          "time": 32.333300999999885,
          "velocity": 0.7874015748031497,
          "duration": 0.08333325000000258
        },
        {
          "name": "A#4",
          "midi": 70,
          "time": 32.41663424999989,
          "velocity": 0.7874015748031497,
          "duration": 0.08333325000000258
        },
        {
          "name": "D#5",
          "midi": 75,
          "time": 32.49996749999989,
          "velocity": 0.7874015748031497,
          "duration": 0.08333325000000258
        },
        {
          "name": "G5",
          "midi": 79,
          "time": 32.58330074999989,
          "velocity": 0.7874015748031497,
          "duration": 0.08333325000000258
        },
        {
          "name": "A#4",
          "midi": 70,
          "time": 32.666633999999895,
          "velocity": 0.7874015748031497,
          "duration": 0.08333325000000258
        },
        {
          "name": "D#5",
          "midi": 75,
          "time": 32.7499672499999,
          "velocity": 0.7874015748031497,
          "duration": 0.08333325000000258
        },
        {
          "name": "G5",
          "midi": 79,
          "time": 32.8333004999999,
          "velocity": 0.7874015748031497,
          "duration": 0.08333325000000258
        },
        {
          "name": "A#5",
          "midi": 82,
          "time": 32.9166337499999,
          "velocity": 0.7874015748031497,
          "duration": 0.08333325000000258
        },
        {
          "name": "D#5",
          "midi": 75,
          "time": 32.999966999999906,
          "velocity": 0.7874015748031497,
          "duration": 0.08333325000000258
        },
        {
          "name": "G5",
          "midi": 79,
          "time": 33.08330024999991,
          "velocity": 0.7874015748031497,
          "duration": 0.08333325000000258
        },
        {
          "name": "A#5",
          "midi": 82,
          "time": 33.16663349999991,
          "velocity": 0.7874015748031497,
          "duration": 0.08333325000000258
        },
        {
          "name": "D#6",
          "midi": 87,
          "time": 33.24996674999991,
          "velocity": 0.7874015748031497,
          "duration": 0.08333325000000258
        },
        {
          "name": "D6",
          "midi": 86,
          "time": 33.333299999999916,
          "velocity": 0.7874015748031497,
          "duration": 0.08333325000000258
        },
        {
          "name": "A#5",
          "midi": 82,
          "time": 33.41663324999992,
          "velocity": 0.7874015748031497,
          "duration": 0.08333325000000258
        },
        {
          "name": "F5",
          "midi": 77,
          "time": 33.49996649999992,
          "velocity": 0.7874015748031497,
          "duration": 0.08333325000000258
        },
        {
          "name": "D5",
          "midi": 74,
          "time": 33.583299749999924,
          "velocity": 0.7874015748031497,
          "duration": 0.08333325000000258
        },
        {
          "name": "A#5",
          "midi": 82,
          "time": 33.666632999999926,
          "velocity": 0.7874015748031497,
          "duration": 0.08333325000000258
        },
        {
          "name": "F5",
          "midi": 77,
          "time": 33.74996624999993,
          "velocity": 0.7874015748031497,
          "duration": 0.08333325000000258
        },
        {
          "name": "D5",
          "midi": 74,
          "time": 33.83329949999993,
          "velocity": 0.7874015748031497,
          "duration": 0.08333325000000258
        },
        {
          "name": "A#4",
          "midi": 70,
          "time": 33.916632749999934,
          "velocity": 0.7874015748031497,
          "duration": 0.08333325000000258
        },
        {
          "name": "F5",
          "midi": 77,
          "time": 33.99996599999994,
          "velocity": 0.7874015748031497,
          "duration": 0.08333325000000258
        },
        {
          "name": "C#5",
          "midi": 73,
          "time": 34.08329924999994,
          "velocity": 0.7874015748031497,
          "duration": 0.08333325000000258
        },
        {
          "name": "A#4",
          "midi": 70,
          "time": 34.16663249999994,
          "velocity": 0.7874015748031497,
          "duration": 0.08333325000000258
        },
        {
          "name": "F4",
          "midi": 65,
          "time": 34.249965749999944,
          "velocity": 0.7874015748031497,
          "duration": 0.08333325000000258
        },
        {
          "name": "C#5",
          "midi": 73,
          "time": 34.33329899999995,
          "velocity": 0.7874015748031497,
          "duration": 0.08333325000000258
        },
        {
          "name": "A#4",
          "midi": 70,
          "time": 34.41663224999995,
          "velocity": 0.7874015748031497,
          "duration": 0.08333325000000258
        },
        {
          "name": "F4",
          "midi": 65,
          "time": 34.49996549999995,
          "velocity": 0.7874015748031497,
          "duration": 0.08333325000000258
        },
        {
          "name": "C#4",
          "midi": 61,
          "time": 34.583298749999955,
          "velocity": 0.7874015748031497,
          "duration": 0.08333325000000258
        },
        {
          "name": "C4",
          "midi": 60,
          "time": 34.66663199999996,
          "velocity": 0.7874015748031497,
          "duration": 0.08333325000000258
        },
        {
          "name": "F4",
          "midi": 65,
          "time": 34.74996524999996,
          "velocity": 0.7874015748031497,
          "duration": 0.08333325000000258
        },
        {
          "name": "A4",
          "midi": 69,
          "time": 34.83329849999996,
          "velocity": 0.7874015748031497,
          "duration": 0.08333325000000258
        },
        {
          "name": "C5",
          "midi": 72,
          "time": 34.916631749999965,
          "velocity": 0.7874015748031497,
          "duration": 0.08333325000000258
        },
        {
          "name": "F4",
          "midi": 65,
          "time": 34.99996499999997,
          "velocity": 0.7874015748031497,
          "duration": 0.08333325000000258
        },
        {
          "name": "A4",
          "midi": 69,
          "time": 35.08329824999997,
          "velocity": 0.7874015748031497,
          "duration": 0.08333325000000258
        },
        {
          "name": "C5",
          "midi": 72,
          "time": 35.16663149999997,
          "velocity": 0.7874015748031497,
          "duration": 0.08333325000000258
        },
        {
          "name": "F5",
          "midi": 77,
          "time": 35.249964749999975,
          "velocity": 0.7874015748031497,
          "duration": 0.08333325000000258
        },
        {
          "name": "A4",
          "midi": 69,
          "time": 35.33329799999998,
          "velocity": 0.7874015748031497,
          "duration": 0.08333325000000258
        },
        {
          "name": "C5",
          "midi": 72,
          "time": 35.41663124999998,
          "velocity": 0.7874015748031497,
          "duration": 0.08333325000000258
        },
        {
          "name": "F5",
          "midi": 77,
          "time": 35.49996449999998,
          "velocity": 0.7874015748031497,
          "duration": 0.08333325000000258
        },
        {
          "name": "A5",
          "midi": 81,
          "time": 35.583297749999986,
          "velocity": 0.7874015748031497,
          "duration": 0.08333325000000258
        },
        {
          "name": "C5",
          "midi": 72,
          "time": 35.66663099999999,
          "velocity": 0.7874015748031497,
          "duration": 0.08333325000000258
        },
        {
          "name": "F5",
          "midi": 77,
          "time": 35.74996424999999,
          "velocity": 0.7874015748031497,
          "duration": 0.08333325000000258
        },
        {
          "name": "A5",
          "midi": 81,
          "time": 35.83329749999999,
          "velocity": 0.7874015748031497,
          "duration": 0.08333325000000258
        },
        {
          "name": "C6",
          "midi": 84,
          "time": 35.916630749999996,
          "velocity": 0.7874015748031497,
          "duration": 0.08333325000000258
        },
        {
          "name": "A5",
          "midi": 81,
          "time": 35.999964,
          "velocity": 0.7874015748031497,
          "duration": 0.9999989999999954
        },
        {
          "name": "C6",
          "midi": 84,
          "time": 36.041630624999996,
          "velocity": 0.7874015748031497,
          "duration": 0.9583323749999977
        },
        {
          "name": "F6",
          "midi": 89,
          "time": 36.083297249999994,
          "velocity": 0.7874015748031497,
          "duration": 0.91666575
        },
        {
          "name": "D4",
          "midi": 62,
          "time": 37.333296,
          "velocity": 0.7874015748031497,
          "duration": 0.16666649999999805
        },
        {
          "name": "F4",
          "midi": 65,
          "time": 37.499962499999995,
          "velocity": 0.7874015748031497,
          "duration": 0.16666649999999805
        },
        {
          "name": "A#4",
          "midi": 70,
          "time": 37.66662899999999,
          "velocity": 0.7874015748031497,
          "duration": 0.16666649999999805
        },
        {
          "name": "D5",
          "midi": 74,
          "time": 37.83329549999999,
          "velocity": 0.7874015748031497,
          "duration": 0.16666649999999805
        },
        {
          "name": "A#4",
          "midi": 70,
          "time": 37.99996199999999,
          "velocity": 0.7874015748031497,
          "duration": 0.16666649999999805
        },
        {
          "name": "F4",
          "midi": 65,
          "time": 38.16662849999999,
          "velocity": 0.7874015748031497,
          "duration": 0.16666649999999805
        },
        {
          "name": "A#4",
          "midi": 70,
          "time": 38.333294999999985,
          "velocity": 0.7874015748031497,
          "duration": 0.16666649999999805
        },
        {
          "name": "D5",
          "midi": 74,
          "time": 38.49996149999998,
          "velocity": 0.7874015748031497,
          "duration": 0.16666649999999805
        },
        {
          "name": "F5",
          "midi": 77,
          "time": 38.66662799999998,
          "velocity": 0.7874015748031497,
          "duration": 0.16666649999999805
        },
        {
          "name": "A#5",
          "midi": 82,
          "time": 38.83329449999998,
          "velocity": 0.7874015748031497,
          "duration": 0.16666649999999805
        },
        {
          "name": "F5",
          "midi": 77,
          "time": 38.99996099999998,
          "velocity": 0.7874015748031497,
          "duration": 0.16666649999999805
        },
        {
          "name": "D5",
          "midi": 74,
          "time": 39.166627499999976,
          "velocity": 0.7874015748031497,
          "duration": 0.16666649999999805
        },
        {
          "name": "C5",
          "midi": 72,
          "time": 39.333293999999974,
          "velocity": 0.7874015748031497,
          "duration": 0.16666649999999805
        },
        {
          "name": "A4",
          "midi": 69,
          "time": 39.49996049999997,
          "velocity": 0.7874015748031497,
          "duration": 0.16666649999999805
        },
        {
          "name": "F4",
          "midi": 65,
          "time": 39.66662699999997,
          "velocity": 0.7874015748031497,
          "duration": 0.16666649999999805
        },
        {
          "name": "A4",
          "midi": 69,
          "time": 39.83329349999997,
          "velocity": 0.7874015748031497,
          "duration": 0.16666649999999805
        },
        {
          "name": "C5",
          "midi": 72,
          "time": 39.999959999999966,
          "velocity": 0.7874015748031497,
          "duration": 0.16666649999999805
        },
        {
          "name": "F5",
          "midi": 77,
          "time": 40.166626499999964,
          "velocity": 0.7874015748031497,
          "duration": 0.16666649999999805
        },
        {
          "name": "D5",
          "midi": 74,
          "time": 40.33329299999996,
          "velocity": 0.7874015748031497,
          "duration": 0.16666649999999805
        },
        {
          "name": "A#4",
          "midi": 70,
          "time": 40.49995949999996,
          "velocity": 0.7874015748031497,
          "duration": 0.16666649999999805
        },
        {
          "name": "F4",
          "midi": 65,
          "time": 40.66662599999996,
          "velocity": 0.7874015748031497,
          "duration": 0.16666649999999805
        },
        {
          "name": "D4",
          "midi": 62,
          "time": 40.833292499999956,
          "velocity": 0.7874015748031497,
          "duration": 0.16666649999999805
        },
        {
          "name": "F4",
          "midi": 65,
          "time": 40.999958999999954,
          "velocity": 0.7874015748031497,
          "duration": 0.16666649999999805
        },
        {
          "name": "D4",
          "midi": 62,
          "time": 41.16662549999995,
          "velocity": 0.7874015748031497,
          "duration": 0.16666649999999805
        },
        {
          "name": "D4",
          "midi": 62,
          "time": 41.33329199999995,
          "velocity": 0.7874015748031497,
          "duration": 0.16666649999999805
        },
        {
          "name": "G4",
          "midi": 67,
          "time": 41.49995849999995,
          "velocity": 0.7874015748031497,
          "duration": 0.16666649999999805
        },
        {
          "name": "A#4",
          "midi": 70,
          "time": 41.66662499999995,
          "velocity": 0.7874015748031497,
          "duration": 0.16666649999999805
        },
        {
          "name": "D5",
          "midi": 74,
          "time": 41.833291499999945,
          "velocity": 0.7874015748031497,
          "duration": 0.16666649999999805
        },
        {
          "name": "A#4",
          "midi": 70,
          "time": 41.99995799999994,
          "velocity": 0.7874015748031497,
          "duration": 0.16666649999999805
        },
        {
          "name": "G4",
          "midi": 67,
          "time": 42.16662449999994,
          "velocity": 0.7874015748031497,
          "duration": 0.16666649999999805
        },
        {
          "name": "A#4",
          "midi": 70,
          "time": 42.33329099999994,
          "velocity": 0.7874015748031497,
          "duration": 0.16666649999999805
        },
        {
          "name": "D5",
          "midi": 74,
          "time": 42.49995749999994,
          "velocity": 0.7874015748031497,
          "duration": 0.16666649999999805
        },
        {
          "name": "F5",
          "midi": 77,
          "time": 42.666623999999935,
          "velocity": 0.7874015748031497,
          "duration": 0.16666649999999805
        },
        {
          "name": "A#5",
          "midi": 82,
          "time": 42.83329049999993,
          "velocity": 0.7874015748031497,
          "duration": 0.16666649999999805
        },
        {
          "name": "F5",
          "midi": 77,
          "time": 42.99995699999993,
          "velocity": 0.7874015748031497,
          "duration": 0.16666649999999805
        },
        {
          "name": "D5",
          "midi": 74,
          "time": 43.16662349999993,
          "velocity": 0.7874015748031497,
          "duration": 0.16666649999999805
        },
        {
          "name": "A#4",
          "midi": 70,
          "time": 43.33328999999993,
          "velocity": 0.7874015748031497,
          "duration": 0.16666649999999805
        },
        {
          "name": "G4",
          "midi": 67,
          "time": 43.499956499999925,
          "velocity": 0.7874015748031497,
          "duration": 0.16666649999999805
        },
        {
          "name": "D#4",
          "midi": 63,
          "time": 43.66662299999992,
          "velocity": 0.7874015748031497,
          "duration": 0.16666649999999805
        },
        {
          "name": "G4",
          "midi": 67,
          "time": 43.83328949999992,
          "velocity": 0.7874015748031497,
          "duration": 0.16666649999999805
        },
        {
          "name": "A#4",
          "midi": 70,
          "time": 43.99995599999992,
          "velocity": 0.7874015748031497,
          "duration": 0.16666649999999805
        },
        {
          "name": "E5",
          "midi": 76,
          "time": 44.16662249999992,
          "velocity": 0.7874015748031497,
          "duration": 0.16666649999999805
        },
        {
          "name": "C5",
          "midi": 72,
          "time": 44.333288999999915,
          "velocity": 0.7874015748031497,
          "duration": 0.16666649999999805
        },
        {
          "name": "A4",
          "midi": 69,
          "time": 44.49995549999991,
          "velocity": 0.7874015748031497,
          "duration": 0.16666649999999805
        },
        {
          "name": "F4",
          "midi": 65,
          "time": 44.66662199999991,
          "velocity": 0.7874015748031497,
          "duration": 0.16666649999999805
        },
        {
          "name": "C4",
          "midi": 60,
          "time": 44.83328849999991,
          "velocity": 0.7874015748031497,
          "duration": 0.16666649999999805
        },
        {
          "name": "F4",
          "midi": 65,
          "time": 44.99995499999991,
          "velocity": 0.7874015748031497,
          "duration": 0.16666649999999805
        },
        {
          "name": "C4",
          "midi": 60,
          "time": 45.166621499999906,
          "velocity": 0.7874015748031497,
          "duration": 0.16666649999999805
        },
        {
          "name": "A#3",
          "midi": 58,
          "time": 45.333287999999904,
          "velocity": 0.7874015748031497,
          "duration": 0.08333325000000258
        },
        {
          "name": "D4",
          "midi": 62,
          "time": 45.416621249999906,
          "velocity": 0.7874015748031497,
          "duration": 0.08333325000000258
        },
        {
          "name": "G4",
          "midi": 67,
          "time": 45.49995449999991,
          "velocity": 0.7874015748031497,
          "duration": 0.08333325000000258
        },
        {
          "name": "A#4",
          "midi": 70,
          "time": 45.58328774999991,
          "velocity": 0.7874015748031497,
          "duration": 0.08333325000000258
        },
        {
          "name": "D4",
          "midi": 62,
          "time": 45.666620999999914,
          "velocity": 0.7874015748031497,
          "duration": 0.08333325000000258
        },
        {
          "name": "G4",
          "midi": 67,
          "time": 45.74995424999992,
          "velocity": 0.7874015748031497,
          "duration": 0.08333325000000258
        },
        {
          "name": "A#4",
          "midi": 70,
          "time": 45.83328749999992,
          "velocity": 0.7874015748031497,
          "duration": 0.08333325000000258
        },
        {
          "name": "D5",
          "midi": 74,
          "time": 45.91662074999992,
          "velocity": 0.7874015748031497,
          "duration": 0.08333325000000258
        },
        {
          "name": "A#4",
          "midi": 70,
          "time": 45.999953999999924,
          "velocity": 0.7874015748031497,
          "duration": 0.08333325000000258
        },
        {
          "name": "G4",
          "midi": 67,
          "time": 46.08328724999993,
          "velocity": 0.7874015748031497,
          "duration": 0.08333325000000258
        },
        {
          "name": "D4",
          "midi": 62,
          "time": 46.16662049999993,
          "velocity": 0.7874015748031497,
          "duration": 0.08333325000000258
        },
        {
          "name": "A#3",
          "midi": 58,
          "time": 46.24995374999993,
          "velocity": 0.7874015748031497,
          "duration": 0.08333325000000258
        },
        {
          "name": "F4",
          "midi": 65,
          "time": 46.333286999999935,
          "velocity": 0.7874015748031497,
          "duration": 0.08333325000000258
        },
        {
          "name": "A4",
          "midi": 69,
          "time": 46.41662024999994,
          "velocity": 0.7874015748031497,
          "duration": 0.08333325000000258
        },
        {
          "name": "D5",
          "midi": 74,
          "time": 46.49995349999994,
          "velocity": 0.7874015748031497,
          "duration": 0.08333325000000258
        },
        {
          "name": "F5",
          "midi": 77,
          "time": 46.58328674999994,
          "velocity": 0.7874015748031497,
          "duration": 0.08333325000000258
        },
        {
          "name": "A4",
          "midi": 69,
          "time": 46.666619999999945,
          "velocity": 0.7874015748031497,
          "duration": 0.08333325000000258
        },
        {
          "name": "D5",
          "midi": 74,
          "time": 46.74995324999995,
          "velocity": 0.7874015748031497,
          "duration": 0.08333325000000258
        },
        {
          "name": "F5",
          "midi": 77,
          "time": 46.83328649999995,
          "velocity": 0.7874015748031497,
          "duration": 0.08333325000000258
        },
        {
          "name": "A5",
          "midi": 81,
          "time": 46.91661974999995,
          "velocity": 0.7874015748031497,
          "duration": 0.08333325000000258
        },
        {
          "name": "F5",
          "midi": 77,
          "time": 46.999952999999955,
          "velocity": 0.7874015748031497,
          "duration": 0.08333325000000258
        },
        {
          "name": "D5",
          "midi": 74,
          "time": 47.08328624999996,
          "velocity": 0.7874015748031497,
          "duration": 0.08333325000000258
        },
        {
          "name": "A4",
          "midi": 69,
          "time": 47.16661949999996,
          "velocity": 0.7874015748031497,
          "duration": 0.08333325000000258
        },
        {
          "name": "F4",
          "midi": 65,
          "time": 47.24995274999996,
          "velocity": 0.7874015748031497,
          "duration": 0.08333325000000258
        },
        {
          "name": "G4",
          "midi": 67,
          "time": 47.333285999999966,
          "velocity": 0.7874015748031497,
          "duration": 0.08333325000000258
        },
        {
          "name": "A#4",
          "midi": 70,
          "time": 47.41661924999997,
          "velocity": 0.7874015748031497,
          "duration": 0.08333325000000258
        },
        {
          "name": "D#5",
          "midi": 75,
          "time": 47.49995249999997,
          "velocity": 0.7874015748031497,
          "duration": 0.08333325000000258
        },
        {
          "name": "G5",
          "midi": 79,
          "time": 47.58328574999997,
          "velocity": 0.7874015748031497,
          "duration": 0.08333325000000258
        },
        {
          "name": "A#4",
          "midi": 70,
          "time": 47.666618999999976,
          "velocity": 0.7874015748031497,
          "duration": 0.08333325000000258
        },
        {
          "name": "D#5",
          "midi": 75,
          "time": 47.74995224999998,
          "velocity": 0.7874015748031497,
          "duration": 0.08333325000000258
        },
        {
          "name": "G5",
          "midi": 79,
          "time": 47.83328549999998,
          "velocity": 0.7874015748031497,
          "duration": 0.08333325000000258
        },
        {
          "name": "A#5",
          "midi": 82,
          "time": 47.916618749999984,
          "velocity": 0.7874015748031497,
          "duration": 0.08333325000000258
        },
        {
          "name": "A5",
          "midi": 81,
          "time": 47.999951999999986,
          "velocity": 0.7874015748031497,
          "duration": 0.08333325000000258
        },
        {
          "name": "F5",
          "midi": 77,
          "time": 48.08328524999999,
          "velocity": 0.7874015748031497,
          "duration": 0.08333325000000258
        },
        {
          "name": "C5",
          "midi": 72,
          "time": 48.16661849999999,
          "velocity": 0.7874015748031497,
          "duration": 0.08333325000000258
        },
        {
          "name": "A4",
          "midi": 69,
          "time": 48.249951749999994,
          "velocity": 0.7874015748031497,
          "duration": 0.08333325000000258
        },
        {
          "name": "D4",
          "midi": 62,
          "time": 48.333285,
          "velocity": 0.7874015748031497,
          "duration": 0.08333325000000258
        },
        {
          "name": "F4",
          "midi": 65,
          "time": 48.41661825,
          "velocity": 0.7874015748031497,
          "duration": 0.08333325000000258
        },
        {
          "name": "A#4",
          "midi": 70,
          "time": 48.4999515,
          "velocity": 0.7874015748031497,
          "duration": 0.08333325000000258
        },
        {
          "name": "D5",
          "midi": 74,
          "time": 48.583284750000004,
          "velocity": 0.7874015748031497,
          "duration": 0.08333325000000258
        },
        {
          "name": "F4",
          "midi": 65,
          "time": 48.66661800000001,
          "velocity": 0.7874015748031497,
          "duration": 0.08333325000000258
        },
        {
          "name": "A#4",
          "midi": 70,
          "time": 48.74995125000001,
          "velocity": 0.7874015748031497,
          "duration": 0.08333325000000258
        },
        {
          "name": "D5",
          "midi": 74,
          "time": 48.83328450000001,
          "velocity": 0.7874015748031497,
          "duration": 0.08333325000000258
        },
        {
          "name": "F5",
          "midi": 77,
          "time": 48.916617750000015,
          "velocity": 0.7874015748031497,
          "duration": 0.08333325000000258
        },
        {
          "name": "D5",
          "midi": 74,
          "time": 48.99995100000002,
          "velocity": 0.7874015748031497,
          "duration": 0.08333325000000258
        },
        {
          "name": "A#4",
          "midi": 70,
          "time": 49.08328425000002,
          "velocity": 0.7874015748031497,
          "duration": 0.08333325000000258
        },
        {
          "name": "F4",
          "midi": 65,
          "time": 49.16661750000002,
          "velocity": 0.7874015748031497,
          "duration": 0.08333325000000258
        },
        {
          "name": "D4",
          "midi": 62,
          "time": 49.249950750000025,
          "velocity": 0.7874015748031497,
          "duration": 0.08333325000000258
        },
        {
          "name": "G4",
          "midi": 67,
          "time": 49.33328400000003,
          "velocity": 0.7874015748031497,
          "duration": 0.08333325000000258
        },
        {
          "name": "A#4",
          "midi": 70,
          "time": 49.41661725000003,
          "velocity": 0.7874015748031497,
          "duration": 0.08333325000000258
        },
        {
          "name": "D#5",
          "midi": 75,
          "time": 49.49995050000003,
          "velocity": 0.7874015748031497,
          "duration": 0.08333325000000258
        },
        {
          "name": "G5",
          "midi": 79,
          "time": 49.583283750000035,
          "velocity": 0.7874015748031497,
          "duration": 0.08333325000000258
        },
        {
          "name": "A#4",
          "midi": 70,
          "time": 49.66661700000004,
          "velocity": 0.7874015748031497,
          "duration": 0.08333325000000258
        },
        {
          "name": "D#5",
          "midi": 75,
          "time": 49.74995025000004,
          "velocity": 0.7874015748031497,
          "duration": 0.08333325000000258
        },
        {
          "name": "G5",
          "midi": 79,
          "time": 49.83328350000004,
          "velocity": 0.7874015748031497,
          "duration": 0.08333325000000258
        },
        {
          "name": "A#5",
          "midi": 82,
          "time": 49.916616750000045,
          "velocity": 0.7874015748031497,
          "duration": 0.08333325000000258
        },
        {
          "name": "G5",
          "midi": 79,
          "time": 49.99995000000005,
          "velocity": 0.7874015748031497,
          "duration": 0.08333325000000258
        },
        {
          "name": "D#5",
          "midi": 75,
          "time": 50.08328325000005,
          "velocity": 0.7874015748031497,
          "duration": 0.08333325000000258
        },
        {
          "name": "A#4",
          "midi": 70,
          "time": 50.16661650000005,
          "velocity": 0.7874015748031497,
          "duration": 0.08333325000000258
        },
        {
          "name": "G4",
          "midi": 67,
          "time": 50.249949750000056,
          "velocity": 0.7874015748031497,
          "duration": 0.08333325000000258
        },
        {
          "name": "D4",
          "midi": 62,
          "time": 50.33328300000006,
          "velocity": 0.7874015748031497,
          "duration": 0.08333325000000258
        },
        {
          "name": "F4",
          "midi": 65,
          "time": 50.41661625000006,
          "velocity": 0.7874015748031497,
          "duration": 0.08333325000000258
        },
        {
          "name": "A#4",
          "midi": 70,
          "time": 50.49994950000006,
          "velocity": 0.7874015748031497,
          "duration": 0.08333325000000258
        },
        {
          "name": "D5",
          "midi": 74,
          "time": 50.583282750000066,
          "velocity": 0.7874015748031497,
          "duration": 0.08333325000000258
        },
        {
          "name": "F4",
          "midi": 65,
          "time": 50.66661600000007,
          "velocity": 0.7874015748031497,
          "duration": 0.08333325000000258
        },
        {
          "name": "A#4",
          "midi": 70,
          "time": 50.74994925000007,
          "velocity": 0.7874015748031497,
          "duration": 0.08333325000000258
        },
        {
          "name": "D5",
          "midi": 74,
          "time": 50.833282500000074,
          "velocity": 0.7874015748031497,
          "duration": 0.08333325000000258
        },
        {
          "name": "F5",
          "midi": 77,
          "time": 50.916615750000076,
          "velocity": 0.7874015748031497,
          "duration": 0.08333325000000258
        },
        {
          "name": "D5",
          "midi": 74,
          "time": 50.99994900000008,
          "velocity": 0.7874015748031497,
          "duration": 0.08333325000000258
        },
        {
          "name": "A#4",
          "midi": 70,
          "time": 51.08328225000008,
          "velocity": 0.7874015748031497,
          "duration": 0.08333325000000258
        },
        {
          "name": "F4",
          "midi": 65,
          "time": 51.166615500000084,
          "velocity": 0.7874015748031497,
          "duration": 0.08333325000000258
        },
        {
          "name": "D4",
          "midi": 62,
          "time": 51.24994875000009,
          "velocity": 0.7874015748031497,
          "duration": 0.08333325000000258
        },
        {
          "name": "G4",
          "midi": 67,
          "time": 51.33328200000009,
          "velocity": 0.7874015748031497,
          "duration": 0.08333325000000258
        },
        {
          "name": "A#4",
          "midi": 70,
          "time": 51.41661525000009,
          "velocity": 0.7874015748031497,
          "duration": 0.08333325000000258
        },
        {
          "name": "D#5",
          "midi": 75,
          "time": 51.499948500000094,
          "velocity": 0.7874015748031497,
          "duration": 0.08333325000000258
        },
        {
          "name": "G5",
          "midi": 79,
          "time": 51.5832817500001,
          "velocity": 0.7874015748031497,
          "duration": 0.08333325000000258
        },
        {
          "name": "A#4",
          "midi": 70,
          "time": 51.6666150000001,
          "velocity": 0.7874015748031497,
          "duration": 0.08333325000000258
        },
        {
          "name": "D#5",
          "midi": 75,
          "time": 51.7499482500001,
          "velocity": 0.7874015748031497,
          "duration": 0.08333325000000258
        },
        {
          "name": "G5",
          "midi": 79,
          "time": 51.833281500000105,
          "velocity": 0.7874015748031497,
          "duration": 0.08333325000000258
        },
        {
          "name": "A#5",
          "midi": 82,
          "time": 51.91661475000011,
          "velocity": 0.7874015748031497,
          "duration": 0.08333325000000258
        },
        {
          "name": "G5",
          "midi": 79,
          "time": 51.99994800000011,
          "velocity": 0.7874015748031497,
          "duration": 0.08333325000000258
        },
        {
          "name": "E5",
          "midi": 76,
          "time": 52.08328125000011,
          "velocity": 0.7874015748031497,
          "duration": 0.08333325000000258
        },
        {
          "name": "A#4",
          "midi": 70,
          "time": 52.166614500000115,
          "velocity": 0.7874015748031497,
          "duration": 0.08333325000000258
        },
        {
          "name": "G4",
          "midi": 67,
          "time": 52.24994775000012,
          "velocity": 0.7874015748031497,
          "duration": 0.08333325000000258
        },
        {
          "name": "A4",
          "midi": 69,
          "time": 52.33328100000012,
          "velocity": 0.7874015748031497,
          "duration": 0.08333325000000258
        },
        {
          "name": "C5",
          "midi": 72,
          "time": 52.41661425000012,
          "velocity": 0.7874015748031497,
          "duration": 0.08333325000000258
        },
        {
          "name": "F5",
          "midi": 77,
          "time": 52.499947500000125,
          "velocity": 0.7874015748031497,
          "duration": 0.08333325000000258
        },
        {
          "name": "A5",
          "midi": 81,
          "time": 52.58328075000013,
          "velocity": 0.7874015748031497,
          "duration": 0.08333325000000258
        },
        {
          "name": "C5",
          "midi": 72,
          "time": 52.66661400000013,
          "velocity": 0.7874015748031497,
          "duration": 0.08333325000000258
        },
        {
          "name": "F5",
          "midi": 77,
          "time": 52.74994725000013,
          "velocity": 0.7874015748031497,
          "duration": 0.08333325000000258
        },
        {
          "name": "A5",
          "midi": 81,
          "time": 52.833280500000136,
          "velocity": 0.7874015748031497,
          "duration": 0.08333325000000258
        },
        {
          "name": "C6",
          "midi": 84,
          "time": 52.91661375000014,
          "velocity": 0.7874015748031497,
          "duration": 0.08333325000000258
        },
        {
          "name": "A5",
          "midi": 81,
          "time": 52.99994700000014,
          "velocity": 0.7874015748031497,
          "duration": 0.08333325000000258
        },
        {
          "name": "F5",
          "midi": 77,
          "time": 53.08328025000014,
          "velocity": 0.7874015748031497,
          "duration": 0.08333325000000258
        },
        {
          "name": "C5",
          "midi": 72,
          "time": 53.166613500000146,
          "velocity": 0.7874015748031497,
          "duration": 0.08333325000000258
        },
        {
          "name": "A4",
          "midi": 69,
          "time": 53.24994675000015,
          "velocity": 0.7874015748031497,
          "duration": 0.08333325000000258
        },
        {
          "name": "A#3",
          "midi": 58,
          "time": 53.33328000000015,
          "velocity": 0.7874015748031497,
          "duration": 0.08333325000000258
        },
        {
          "name": "D4",
          "midi": 62,
          "time": 53.416613250000154,
          "velocity": 0.7874015748031497,
          "duration": 0.08333325000000258
        },
        {
          "name": "G4",
          "midi": 67,
          "time": 53.499946500000156,
          "velocity": 0.7874015748031497,
          "duration": 0.08333325000000258
        },
        {
          "name": "A#4",
          "midi": 70,
          "time": 53.58327975000016,
          "velocity": 0.7874015748031497,
          "duration": 0.08333325000000258
        },
        {
          "name": "D4",
          "midi": 62,
          "time": 53.66661300000016,
          "velocity": 0.7874015748031497,
          "duration": 0.08333325000000258
        },
        {
          "name": "G4",
          "midi": 67,
          "time": 53.749946250000164,
          "velocity": 0.7874015748031497,
          "duration": 0.08333325000000258
        },
        {
          "name": "A#4",
          "midi": 70,
          "time": 53.83327950000017,
          "velocity": 0.7874015748031497,
          "duration": 0.08333325000000258
        },
        {
          "name": "D5",
          "midi": 74,
          "time": 53.91661275000017,
          "velocity": 0.7874015748031497,
          "duration": 0.08333325000000258
        },
        {
          "name": "A#4",
          "midi": 70,
          "time": 53.99994600000017,
          "velocity": 0.7874015748031497,
          "duration": 0.08333325000000258
        },
        {
          "name": "G4",
          "midi": 67,
          "time": 54.083279250000174,
          "velocity": 0.7874015748031497,
          "duration": 0.08333325000000258
        },
        {
          "name": "D4",
          "midi": 62,
          "time": 54.16661250000018,
          "velocity": 0.7874015748031497,
          "duration": 0.08333325000000258
        },
        {
          "name": "A#3",
          "midi": 58,
          "time": 54.24994575000018,
          "velocity": 0.7874015748031497,
          "duration": 0.08333325000000258
        },
        {
          "name": "F4",
          "midi": 65,
          "time": 54.33327900000018,
          "velocity": 0.7874015748031497,
          "duration": 0.08333325000000258
        },
        {
          "name": "A4",
          "midi": 69,
          "time": 54.416612250000185,
          "velocity": 0.7874015748031497,
          "duration": 0.08333325000000258
        },
        {
          "name": "D5",
          "midi": 74,
          "time": 54.49994550000019,
          "velocity": 0.7874015748031497,
          "duration": 0.08333325000000258
        },
        {
          "name": "F5",
          "midi": 77,
          "time": 54.58327875000019,
          "velocity": 0.7874015748031497,
          "duration": 0.08333325000000258
        },
        {
          "name": "A4",
          "midi": 69,
          "time": 54.66661200000019,
          "velocity": 0.7874015748031497,
          "duration": 0.08333325000000258
        },
        {
          "name": "D5",
          "midi": 74,
          "time": 54.749945250000195,
          "velocity": 0.7874015748031497,
          "duration": 0.08333325000000258
        },
        {
          "name": "F5",
          "midi": 77,
          "time": 54.8332785000002,
          "velocity": 0.7874015748031497,
          "duration": 0.08333325000000258
        },
        {
          "name": "A5",
          "midi": 81,
          "time": 54.9166117500002,
          "velocity": 0.7874015748031497,
          "duration": 0.08333325000000258
        },
        {
          "name": "F5",
          "midi": 77,
          "time": 54.9999450000002,
          "velocity": 0.7874015748031497,
          "duration": 0.08333325000000258
        },
        {
          "name": "D5",
          "midi": 74,
          "time": 55.083278250000205,
          "velocity": 0.7874015748031497,
          "duration": 0.08333325000000258
        },
        {
          "name": "A4",
          "midi": 69,
          "time": 55.16661150000021,
          "velocity": 0.7874015748031497,
          "duration": 0.08333325000000258
        },
        {
          "name": "F4",
          "midi": 65,
          "time": 55.24994475000021,
          "velocity": 0.7874015748031497,
          "duration": 0.08333325000000258
        },
        {
          "name": "G4",
          "midi": 67,
          "time": 55.33327800000021,
          "velocity": 0.7874015748031497,
          "duration": 0.08333325000000258
        },
        {
          "name": "A#4",
          "midi": 70,
          "time": 55.416611250000216,
          "velocity": 0.7874015748031497,
          "duration": 0.08333325000000258
        },
        {
          "name": "D#5",
          "midi": 75,
          "time": 55.49994450000022,
          "velocity": 0.7874015748031497,
          "duration": 0.08333325000000258
        },
        {
          "name": "G5",
          "midi": 79,
          "time": 55.58327775000022,
          "velocity": 0.7874015748031497,
          "duration": 0.08333325000000258
        },
        {
          "name": "A#4",
          "midi": 70,
          "time": 55.66661100000022,
          "velocity": 0.7874015748031497,
          "duration": 0.08333325000000258
        },
        {
          "name": "D#5",
          "midi": 75,
          "time": 55.749944250000226,
          "velocity": 0.7874015748031497,
          "duration": 0.08333325000000258
        },
        {
          "name": "G5",
          "midi": 79,
          "time": 55.83327750000023,
          "velocity": 0.7874015748031497,
          "duration": 0.08333325000000258
        },
        {
          "name": "A#5",
          "midi": 82,
          "time": 55.91661075000023,
          "velocity": 0.7874015748031497,
          "duration": 0.08333325000000258
        },
        {
          "name": "A5",
          "midi": 81,
          "time": 55.999944000000234,
          "velocity": 0.7874015748031497,
          "duration": 0.08333325000000258
        },
        {
          "name": "F5",
          "midi": 77,
          "time": 56.083277250000236,
          "velocity": 0.7874015748031497,
          "duration": 0.08333325000000258
        },
        {
          "name": "C5",
          "midi": 72,
          "time": 56.16661050000024,
          "velocity": 0.7874015748031497,
          "duration": 0.08333325000000258
        },
        {
          "name": "A4",
          "midi": 69,
          "time": 56.24994375000024,
          "velocity": 0.7874015748031497,
          "duration": 0.08333325000000258
        },
        {
          "name": "D4",
          "midi": 62,
          "time": 56.333277000000244,
          "velocity": 0.7874015748031497,
          "duration": 0.08333325000000258
        },
        {
          "name": "F4",
          "midi": 65,
          "time": 56.41661025000025,
          "velocity": 0.7874015748031497,
          "duration": 0.08333325000000258
        },
        {
          "name": "A#4",
          "midi": 70,
          "time": 56.49994350000025,
          "velocity": 0.7874015748031497,
          "duration": 0.08333325000000258
        },
        {
          "name": "D5",
          "midi": 74,
          "time": 56.58327675000025,
          "velocity": 0.7874015748031497,
          "duration": 0.08333325000000258
        },
        {
          "name": "F4",
          "midi": 65,
          "time": 56.666610000000254,
          "velocity": 0.7874015748031497,
          "duration": 0.08333325000000258
        },
        {
          "name": "A#4",
          "midi": 70,
          "time": 56.74994325000026,
          "velocity": 0.7874015748031497,
          "duration": 0.08333325000000258
        },
        {
          "name": "D5",
          "midi": 74,
          "time": 56.83327650000026,
          "velocity": 0.7874015748031497,
          "duration": 0.08333325000000258
        },
        {
          "name": "F5",
          "midi": 77,
          "time": 56.91660975000026,
          "velocity": 0.7874015748031497,
          "duration": 0.08333325000000258
        },
        {
          "name": "D5",
          "midi": 74,
          "time": 56.999943000000265,
          "velocity": 0.7874015748031497,
          "duration": 0.08333325000000258
        },
        {
          "name": "A#4",
          "midi": 70,
          "time": 57.08327625000027,
          "velocity": 0.7874015748031497,
          "duration": 0.08333325000000258
        },
        {
          "name": "F4",
          "midi": 65,
          "time": 57.16660950000027,
          "velocity": 0.7874015748031497,
          "duration": 0.08333325000000258
        },
        {
          "name": "D4",
          "midi": 62,
          "time": 57.24994275000027,
          "velocity": 0.7874015748031497,
          "duration": 0.08333325000000258
        },
        {
          "name": "A#3",
          "midi": 58,
          "time": 57.333276000000275,
          "velocity": 0.7874015748031497,
          "duration": 0.08333325000000258
        },
        {
          "name": "D#4",
          "midi": 63,
          "time": 57.41660925000028,
          "velocity": 0.7874015748031497,
          "duration": 0.08333325000000258
        },
        {
          "name": "G4",
          "midi": 67,
          "time": 57.49994250000028,
          "velocity": 0.7874015748031497,
          "duration": 0.08333325000000258
        },
        {
          "name": "A#4",
          "midi": 70,
          "time": 57.58327575000028,
          "velocity": 0.7874015748031497,
          "duration": 0.08333325000000258
        },
        {
          "name": "D#4",
          "midi": 63,
          "time": 57.666609000000285,
          "velocity": 0.7874015748031497,
          "duration": 0.08333325000000258
        },
        {
          "name": "G4",
          "midi": 67,
          "time": 57.74994225000029,
          "velocity": 0.7874015748031497,
          "duration": 0.08333325000000258
        },
        {
          "name": "A#4",
          "midi": 70,
          "time": 57.83327550000029,
          "velocity": 0.7874015748031497,
          "duration": 0.08333325000000258
        },
        {
          "name": "D#5",
          "midi": 75,
          "time": 57.91660875000029,
          "velocity": 0.7874015748031497,
          "duration": 0.08333325000000258
        },
        {
          "name": "G4",
          "midi": 67,
          "time": 57.999942000000296,
          "velocity": 0.7874015748031497,
          "duration": 0.08333325000000258
        },
        {
          "name": "A#4",
          "midi": 70,
          "time": 58.0832752500003,
          "velocity": 0.7874015748031497,
          "duration": 0.08333325000000258
        },
        {
          "name": "D#5",
          "midi": 75,
          "time": 58.1666085000003,
          "velocity": 0.7874015748031497,
          "duration": 0.08333325000000258
        },
        {
          "name": "G5",
          "midi": 79,
          "time": 58.2499417500003,
          "velocity": 0.7874015748031497,
          "duration": 0.08333325000000258
        },
        {
          "name": "A#4",
          "midi": 70,
          "time": 58.333275000000306,
          "velocity": 0.7874015748031497,
          "duration": 0.08333325000000258
        },
        {
          "name": "D#5",
          "midi": 75,
          "time": 58.41660825000031,
          "velocity": 0.7874015748031497,
          "duration": 0.08333325000000258
        },
        {
          "name": "G5",
          "midi": 79,
          "time": 58.49994150000031,
          "velocity": 0.7874015748031497,
          "duration": 0.08333325000000258
        },
        {
          "name": "A#5",
          "midi": 82,
          "time": 58.583274750000314,
          "velocity": 0.7874015748031497,
          "duration": 0.08333325000000258
        },
        {
          "name": "D#6",
          "midi": 87,
          "time": 58.666608000000316,
          "velocity": 0.7874015748031497,
          "duration": 0.08333325000000258
        },
        {
          "name": "A#5",
          "midi": 82,
          "time": 58.74994125000032,
          "velocity": 0.7874015748031497,
          "duration": 0.08333325000000258
        },
        {
          "name": "G5",
          "midi": 79,
          "time": 58.83327450000032,
          "velocity": 0.7874015748031497,
          "duration": 0.08333325000000258
        },
        {
          "name": "D#5",
          "midi": 75,
          "time": 58.916607750000324,
          "velocity": 0.7874015748031497,
          "duration": 0.08333325000000258
        },
        {
          "name": "A#5",
          "midi": 82,
          "time": 58.99994100000033,
          "velocity": 0.7874015748031497,
          "duration": 0.08333325000000258
        },
        {
          "name": "G5",
          "midi": 79,
          "time": 59.08327425000033,
          "velocity": 0.7874015748031497,
          "duration": 0.08333325000000258
        },
        {
          "name": "D#5",
          "midi": 75,
          "time": 59.16660750000033,
          "velocity": 0.7874015748031497,
          "duration": 0.08333325000000258
        },
        {
          "name": "A#4",
          "midi": 70,
          "time": 59.249940750000334,
          "velocity": 0.7874015748031497,
          "duration": 0.08333325000000258
        },
        {
          "name": "G4",
          "midi": 67,
          "time": 59.33327400000034,
          "velocity": 0.7874015748031497,
          "duration": 0.08333325000000258
        },
        {
          "name": "A#4",
          "midi": 70,
          "time": 59.41660725000034,
          "velocity": 0.7874015748031497,
          "duration": 0.08333325000000258
        },
        {
          "name": "E5",
          "midi": 76,
          "time": 59.49994050000034,
          "velocity": 0.7874015748031497,
          "duration": 0.08333325000000258
        },
        {
          "name": "G5",
          "midi": 79,
          "time": 59.583273750000345,
          "velocity": 0.7874015748031497,
          "duration": 0.08333325000000258
        },
        {
          "name": "A#4",
          "midi": 70,
          "time": 59.66660700000035,
          "velocity": 0.7874015748031497,
          "duration": 0.08333325000000258
        },
        {
          "name": "E5",
          "midi": 76,
          "time": 59.74994025000035,
          "velocity": 0.7874015748031497,
          "duration": 0.08333325000000258
        },
        {
          "name": "G5",
          "midi": 79,
          "time": 59.83327350000035,
          "velocity": 0.7874015748031497,
          "duration": 0.08333325000000258
        },
        {
          "name": "A#5",
          "midi": 82,
          "time": 59.916606750000355,
          "velocity": 0.7874015748031497,
          "duration": 0.08333325000000258
        },
        {
          "name": "C6",
          "midi": 84,
          "time": 59.99994000000036,
          "velocity": 0.7874015748031497,
          "duration": 0.08333325000000258
        },
        {
          "name": "A#5",
          "midi": 82,
          "time": 60.08327325000036,
          "velocity": 0.7874015748031497,
          "duration": 0.08333325000000258
        },
        {
          "name": "F5",
          "midi": 77,
          "time": 60.16660650000036,
          "velocity": 0.7874015748031497,
          "duration": 0.08333325000000258
        },
        {
          "name": "C5",
          "midi": 72,
          "time": 60.249939750000365,
          "velocity": 0.7874015748031497,
          "duration": 0.08333325000000258
        },
        {
          "name": "A#5",
          "midi": 82,
          "time": 60.33327300000037,
          "velocity": 0.7874015748031497,
          "duration": 0.08333325000000258
        },
        {
          "name": "F5",
          "midi": 77,
          "time": 60.41660625000037,
          "velocity": 0.7874015748031497,
          "duration": 0.08333325000000258
        },
        {
          "name": "C5",
          "midi": 72,
          "time": 60.49993950000037,
          "velocity": 0.7874015748031497,
          "duration": 0.08333325000000258
        },
        {
          "name": "A#4",
          "midi": 70,
          "time": 60.583272750000376,
          "velocity": 0.7874015748031497,
          "duration": 0.08333325000000258
        },
        {
          "name": "F5",
          "midi": 77,
          "time": 60.66660600000038,
          "velocity": 0.7874015748031497,
          "duration": 0.08333325000000258
        },
        {
          "name": "C5",
          "midi": 72,
          "time": 60.74993925000038,
          "velocity": 0.7874015748031497,
          "duration": 0.08333325000000258
        },
        {
          "name": "A#4",
          "midi": 70,
          "time": 60.83327250000038,
          "velocity": 0.7874015748031497,
          "duration": 0.08333325000000258
        },
        {
          "name": "F4",
          "midi": 65,
          "time": 60.916605750000386,
          "velocity": 0.7874015748031497,
          "duration": 0.08333325000000258
        },
        {
          "name": "C5",
          "midi": 72,
          "time": 60.99993900000039,
          "velocity": 0.7874015748031497,
          "duration": 0.08333325000000258
        },
        {
          "name": "A#4",
          "midi": 70,
          "time": 61.08327225000039,
          "velocity": 0.7874015748031497,
          "duration": 0.08333325000000258
        },
        {
          "name": "F4",
          "midi": 65,
          "time": 61.166605500000394,
          "velocity": 0.7874015748031497,
          "duration": 0.08333325000000258
        },
        {
          "name": "C4",
          "midi": 60,
          "time": 61.249938750000396,
          "velocity": 0.7874015748031497,
          "duration": 0.08333325000000258
        },
        {
          "name": "F4",
          "midi": 65,
          "time": 61.3332720000004,
          "velocity": 0.7874015748031497,
          "duration": 0.6666660000000135
        },
        {
          "name": "A4",
          "midi": 69,
          "time": 61.4166052500004,
          "velocity": 0.7874015748031497,
          "duration": 0.583332750000011
        },
        {
          "name": "C5",
          "midi": 72,
          "time": 61.499938500000404,
          "velocity": 0.7874015748031497,
          "duration": 0.49999950000000837
        },
        {
          "name": "F5",
          "midi": 77,
          "time": 61.58327175000041,
          "velocity": 0.7874015748031497,
          "duration": 0.4166662500000058
        },
        {
          "name": "A5",
          "midi": 81,
          "time": 61.66660500000041,
          "velocity": 0.7874015748031497,
          "duration": 0.3333330000000032
        },
        {
          "name": "G4",
          "midi": 67,
          "time": 62.66660400000041,
          "velocity": 0.7874015748031497,
          "duration": 0.3333330000000032
        },
        {
          "name": "A#4",
          "midi": 70,
          "time": 62.999937000000415,
          "velocity": 0.7874015748031497,
          "duration": 0.3333330000000032
        },
        {
          "name": "D5",
          "midi": 74,
          "time": 63.33327000000042,
          "velocity": 0.7874015748031497,
          "duration": 0.3333330000000032
        },
        {
          "name": "A#4",
          "midi": 70,
          "time": 63.66660300000042,
          "velocity": 0.7874015748031497,
          "duration": 0.3333330000000032
        },
        {
          "name": "D5",
          "midi": 74,
          "time": 63.999936000000424,
          "velocity": 0.7874015748031497,
          "duration": 0.3333330000000032
        },
        {
          "name": "F5",
          "midi": 77,
          "time": 64.33326900000043,
          "velocity": 0.7874015748031497,
          "duration": 0.3333329999999961
        },
        {
          "name": "A5",
          "midi": 81,
          "time": 64.66660200000042,
          "velocity": 0.7874015748031497,
          "duration": 0.3333329999999961
        },
        {
          "name": "F5",
          "midi": 77,
          "time": 64.99993500000042,
          "velocity": 0.7874015748031497,
          "duration": 0.3333329999999961
        },
        {
          "name": "D#5",
          "midi": 75,
          "time": 65.33326800000042,
          "velocity": 0.7874015748031497,
          "duration": 0.3333329999999961
        },
        {
          "name": "G5",
          "midi": 79,
          "time": 65.66660100000041,
          "velocity": 0.7874015748031497,
          "duration": 0.3333329999999961
        },
        {
          "name": "A#5",
          "midi": 82,
          "time": 65.99993400000041,
          "velocity": 0.7874015748031497,
          "duration": 0.3333329999999961
        },
        {
          "name": "G5",
          "midi": 79,
          "time": 66.3332670000004,
          "velocity": 0.7874015748031497,
          "duration": 0.3333329999999961
        },
        {
          "name": "F5",
          "midi": 77,
          "time": 66.6666000000004,
          "velocity": 0.7874015748031497,
          "duration": 0.3333329999999961
        },
        {
          "name": "A5",
          "midi": 81,
          "time": 66.9999330000004,
          "velocity": 0.7874015748031497,
          "duration": 0.3333329999999961
        },
        {
          "name": "C6",
          "midi": 84,
          "time": 67.33326600000039,
          "velocity": 0.7874015748031497,
          "duration": 0.3333329999999961
        },
        {
          "name": "A5",
          "midi": 81,
          "time": 67.66659900000039,
          "velocity": 0.7874015748031497,
          "duration": 0.3333329999999961
        },
        {
          "name": "G4",
          "midi": 67,
          "time": 67.99993200000038,
          "velocity": 0.7874015748031497,
          "duration": 0.3333329999999961
        },
        {
          "name": "A#4",
          "midi": 70,
          "time": 68.33326500000038,
          "velocity": 0.7874015748031497,
          "duration": 0.3333329999999961
        },
        {
          "name": "D5",
          "midi": 74,
          "time": 68.66659800000038,
          "velocity": 0.7874015748031497,
          "duration": 0.3333329999999961
        },
        {
          "name": "A#4",
          "midi": 70,
          "time": 68.99993100000037,
          "velocity": 0.7874015748031497,
          "duration": 0.3333329999999961
        },
        {
          "name": "D5",
          "midi": 74,
          "time": 69.33326400000037,
          "velocity": 0.7874015748031497,
          "duration": 0.3333329999999961
        },
        {
          "name": "F5",
          "midi": 77,
          "time": 69.66659700000037,
          "velocity": 0.7874015748031497,
          "duration": 0.3333329999999961
        },
        {
          "name": "A5",
          "midi": 81,
          "time": 69.99993000000036,
          "velocity": 0.7874015748031497,
          "duration": 0.3333329999999961
        },
        {
          "name": "F5",
          "midi": 77,
          "time": 70.33326300000036,
          "velocity": 0.7874015748031497,
          "duration": 0.3333329999999961
        },
        {
          "name": "D#5",
          "midi": 75,
          "time": 70.66659600000035,
          "velocity": 0.7874015748031497,
          "duration": 0.16666650000000516
        },
        {
          "name": "G5",
          "midi": 79,
          "time": 70.83326250000036,
          "velocity": 0.7874015748031497,
          "duration": 0.16666650000000516
        },
        {
          "name": "A#5",
          "midi": 82,
          "time": 70.99992900000036,
          "velocity": 0.7874015748031497,
          "duration": 0.16666650000000516
        },
        {
          "name": "G5",
          "midi": 79,
          "time": 71.16659550000037,
          "velocity": 0.7874015748031497,
          "duration": 0.16666650000000516
        },
        {
          "name": "F5",
          "midi": 77,
          "time": 71.33326200000037,
          "velocity": 0.7874015748031497,
          "duration": 0.16666650000000516
        },
        {
          "name": "C5",
          "midi": 72,
          "time": 71.49992850000038,
          "velocity": 0.7874015748031497,
          "duration": 0.16666650000000516
        },
        {
          "name": "A4",
          "midi": 69,
          "time": 71.66659500000038,
          "velocity": 0.7874015748031497,
          "duration": 0.16666650000000516
        },
        {
          "name": "C5",
          "midi": 72,
          "time": 71.83326150000039,
          "velocity": 0.7874015748031497,
          "duration": 0.16666650000000516
        },
        {
          "name": "D5",
          "midi": 74,
          "time": 71.9999280000004,
          "velocity": 0.7874015748031497,
          "duration": 0.16666650000000516
        },
        {
          "name": "A#4",
          "midi": 70,
          "time": 72.1665945000004,
          "velocity": 0.7874015748031497,
          "duration": 0.16666650000000516
        },
        {
          "name": "D5",
          "midi": 74,
          "time": 72.3332610000004,
          "velocity": 0.7874015748031497,
          "duration": 0.16666650000000516
        },
        {
          "name": "F5",
          "midi": 77,
          "time": 72.49992750000041,
          "velocity": 0.7874015748031497,
          "duration": 0.16666650000000516
        },
        {
          "name": "A#5",
          "midi": 82,
          "time": 72.66659400000042,
          "velocity": 0.7874015748031497,
          "duration": 0.16666650000000516
        },
        {
          "name": "F5",
          "midi": 77,
          "time": 72.83326050000042,
          "velocity": 0.7874015748031497,
          "duration": 0.16666650000000516
        },
        {
          "name": "D5",
          "midi": 74,
          "time": 72.99992700000043,
          "velocity": 0.7874015748031497,
          "duration": 0.16666650000000516
        },
        {
          "name": "A#4",
          "midi": 70,
          "time": 73.16659350000043,
          "velocity": 0.7874015748031497,
          "duration": 0.16666650000000516
        },
        {
          "name": "A#3",
          "midi": 58,
          "time": 73.33326000000044,
          "velocity": 0.7874015748031497,
          "duration": 0.08333324999999547
        },
        {
          "name": "D4",
          "midi": 62,
          "time": 73.41659325000043,
          "velocity": 0.7874015748031497,
          "duration": 0.08333324999999547
        },
        {
          "name": "G4",
          "midi": 67,
          "time": 73.49992650000043,
          "velocity": 0.7874015748031497,
          "duration": 0.08333324999999547
        },
        {
          "name": "A#4",
          "midi": 70,
          "time": 73.58325975000042,
          "velocity": 0.7874015748031497,
          "duration": 0.08333324999999547
        },
        {
          "name": "A#4",
          "midi": 70,
          "time": 73.83325950000042,
          "velocity": 0.7874015748031497,
          "duration": 0.08333324999999547
        },
        {
          "name": "G4",
          "midi": 67,
          "time": 73.91659275000042,
          "velocity": 0.7874015748031497,
          "duration": 0.08333324999999547
        },
        {
          "name": "D4",
          "midi": 62,
          "time": 73.99992600000041,
          "velocity": 0.7874015748031497,
          "duration": 0.08333324999999547
        },
        {
          "name": "A#3",
          "midi": 58,
          "time": 74.08325925000041,
          "velocity": 0.7874015748031497,
          "duration": 0.08333324999999547
        },
        {
          "name": "A#3",
          "midi": 58,
          "time": 74.33325900000041,
          "velocity": 0.7874015748031497,
          "duration": 0.08333324999999547
        },
        {
          "name": "D4",
          "midi": 62,
          "time": 74.4165922500004,
          "velocity": 0.7874015748031497,
          "duration": 0.08333324999999547
        },
        {
          "name": "G4",
          "midi": 67,
          "time": 74.4999255000004,
          "velocity": 0.7874015748031497,
          "duration": 0.08333324999999547
        },
        {
          "name": "A#4",
          "midi": 70,
          "time": 74.5832587500004,
          "velocity": 0.7874015748031497,
          "duration": 0.08333324999999547
        },
        {
          "name": "F4",
          "midi": 65,
          "time": 74.66659200000039,
          "velocity": 0.7874015748031497,
          "duration": 0.08333324999999547
        },
        {
          "name": "A4",
          "midi": 69,
          "time": 74.74992525000039,
          "velocity": 0.7874015748031497,
          "duration": 0.08333324999999547
        },
        {
          "name": "D5",
          "midi": 74,
          "time": 74.83325850000038,
          "velocity": 0.7874015748031497,
          "duration": 0.08333324999999547
        },
        {
          "name": "F5",
          "midi": 77,
          "time": 74.91659175000038,
          "velocity": 0.7874015748031497,
          "duration": 0.08333324999999547
        },
        {
          "name": "F5",
          "midi": 77,
          "time": 75.16659150000038,
          "velocity": 0.7874015748031497,
          "duration": 0.08333324999999547
        },
        {
          "name": "D5",
          "midi": 74,
          "time": 75.24992475000037,
          "velocity": 0.7874015748031497,
          "duration": 0.08333324999999547
        },
        {
          "name": "A4",
          "midi": 69,
          "time": 75.33325800000037,
          "velocity": 0.7874015748031497,
          "duration": 0.08333324999999547
        },
        {
          "name": "F4",
          "midi": 65,
          "time": 75.41659125000037,
          "velocity": 0.7874015748031497,
          "duration": 0.08333324999999547
        },
        {
          "name": "F4",
          "midi": 65,
          "time": 75.66659100000037,
          "velocity": 0.7874015748031497,
          "duration": 0.08333324999999547
        },
        {
          "name": "A4",
          "midi": 69,
          "time": 75.74992425000036,
          "velocity": 0.7874015748031497,
          "duration": 0.08333324999999547
        },
        {
          "name": "D5",
          "midi": 74,
          "time": 75.83325750000036,
          "velocity": 0.7874015748031497,
          "duration": 0.08333324999999547
        },
        {
          "name": "F5",
          "midi": 77,
          "time": 75.91659075000035,
          "velocity": 0.7874015748031497,
          "duration": 0.08333324999999547
        },
        {
          "name": "G4",
          "midi": 67,
          "time": 75.99992400000035,
          "velocity": 0.7874015748031497,
          "duration": 0.08333324999999547
        },
        {
          "name": "A#4",
          "midi": 70,
          "time": 76.08325725000034,
          "velocity": 0.7874015748031497,
          "duration": 0.08333324999999547
        },
        {
          "name": "D#5",
          "midi": 75,
          "time": 76.16659050000034,
          "velocity": 0.7874015748031497,
          "duration": 0.08333324999999547
        },
        {
          "name": "G5",
          "midi": 79,
          "time": 76.24992375000033,
          "velocity": 0.7874015748031497,
          "duration": 0.08333324999999547
        },
        {
          "name": "G5",
          "midi": 79,
          "time": 76.49992350000034,
          "velocity": 0.7874015748031497,
          "duration": 0.08333324999999547
        },
        {
          "name": "D#5",
          "midi": 75,
          "time": 76.58325675000033,
          "velocity": 0.7874015748031497,
          "duration": 0.08333324999999547
        },
        {
          "name": "A#4",
          "midi": 70,
          "time": 76.66659000000033,
          "velocity": 0.7874015748031497,
          "duration": 0.08333324999999547
        },
        {
          "name": "G4",
          "midi": 67,
          "time": 76.74992325000032,
          "velocity": 0.7874015748031497,
          "duration": 0.08333324999999547
        },
        {
          "name": "G4",
          "midi": 67,
          "time": 76.99992300000032,
          "velocity": 0.7874015748031497,
          "duration": 0.08333324999999547
        },
        {
          "name": "A#4",
          "midi": 70,
          "time": 77.08325625000032,
          "velocity": 0.7874015748031497,
          "duration": 0.08333324999999547
        },
        {
          "name": "D#5",
          "midi": 75,
          "time": 77.16658950000031,
          "velocity": 0.7874015748031497,
          "duration": 0.08333324999999547
        },
        {
          "name": "G5",
          "midi": 79,
          "time": 77.24992275000031,
          "velocity": 0.7874015748031497,
          "duration": 0.08333324999999547
        },
        {
          "name": "D4",
          "midi": 62,
          "time": 77.3332560000003,
          "velocity": 0.7874015748031497,
          "duration": 0.08333324999999547
        },
        {
          "name": "F4",
          "midi": 65,
          "time": 77.4165892500003,
          "velocity": 0.7874015748031497,
          "duration": 0.08333324999999547
        },
        {
          "name": "A#4",
          "midi": 70,
          "time": 77.4999225000003,
          "velocity": 0.7874015748031497,
          "duration": 0.08333324999999547
        },
        {
          "name": "D5",
          "midi": 74,
          "time": 77.58325575000029,
          "velocity": 0.7874015748031497,
          "duration": 0.08333324999999547
        },
        {
          "name": "D5",
          "midi": 74,
          "time": 77.83325550000029,
          "velocity": 0.7874015748031497,
          "duration": 0.08333324999999547
        },
        {
          "name": "A#4",
          "midi": 70,
          "time": 77.91658875000029,
          "velocity": 0.7874015748031497,
          "duration": 0.08333324999999547
        },
        {
          "name": "F4",
          "midi": 65,
          "time": 77.99992200000028,
          "velocity": 0.7874015748031497,
          "duration": 0.08333324999999547
        },
        {
          "name": "D4",
          "midi": 62,
          "time": 78.08325525000028,
          "velocity": 0.7874015748031497,
          "duration": 0.08333324999999547
        },
        {
          "name": "D4",
          "midi": 62,
          "time": 78.33325500000028,
          "velocity": 0.7874015748031497,
          "duration": 0.08333324999999547
        },
        {
          "name": "F4",
          "midi": 65,
          "time": 78.41658825000027,
          "velocity": 0.7874015748031497,
          "duration": 0.08333324999999547
        },
        {
          "name": "A#4",
          "midi": 70,
          "time": 78.49992150000027,
          "velocity": 0.7874015748031497,
          "duration": 0.08333324999999547
        },
        {
          "name": "D5",
          "midi": 74,
          "time": 78.58325475000026,
          "velocity": 0.7874015748031497,
          "duration": 0.08333324999999547
        },
        {
          "name": "D#4",
          "midi": 63,
          "time": 78.66658800000026,
          "velocity": 0.7874015748031497,
          "duration": 0.08333324999999547
        },
        {
          "name": "F4",
          "midi": 65,
          "time": 78.74992125000026,
          "velocity": 0.7874015748031497,
          "duration": 0.08333324999999547
        },
        {
          "name": "G4",
          "midi": 67,
          "time": 78.83325450000025,
          "velocity": 0.7874015748031497,
          "duration": 0.08333324999999547
        },
        {
          "name": "G#4",
          "midi": 68,
          "time": 78.91658775000025,
          "velocity": 0.7874015748031497,
          "duration": 0.08333324999999547
        },
        {
          "name": "A#4",
          "midi": 70,
          "time": 78.99992100000024,
          "velocity": 0.7874015748031497,
          "duration": 0.08333324999999547
        },
        {
          "name": "C5",
          "midi": 72,
          "time": 79.08325425000024,
          "velocity": 0.7874015748031497,
          "duration": 0.08333324999999547
        },
        {
          "name": "D5",
          "midi": 74,
          "time": 79.16658750000023,
          "velocity": 0.7874015748031497,
          "duration": 0.08333324999999547
        },
        {
          "name": "D#5",
          "midi": 75,
          "time": 79.24992075000023,
          "velocity": 0.7874015748031497,
          "duration": 0.08333324999999547
        },
        {
          "name": "D#5",
          "midi": 75,
          "time": 79.33325400000022,
          "velocity": 0.7874015748031497,
          "duration": 0.08333324999999547
        },
        {
          "name": "D5",
          "midi": 74,
          "time": 79.41658725000022,
          "velocity": 0.7874015748031497,
          "duration": 0.08333324999999547
        },
        {
          "name": "C5",
          "midi": 72,
          "time": 79.49992050000021,
          "velocity": 0.7874015748031497,
          "duration": 0.08333324999999547
        },
        {
          "name": "A#4",
          "midi": 70,
          "time": 79.58325375000021,
          "velocity": 0.7874015748031497,
          "duration": 0.08333324999999547
        },
        {
          "name": "G#4",
          "midi": 68,
          "time": 79.6665870000002,
          "velocity": 0.7874015748031497,
          "duration": 0.08333324999999547
        },
        {
          "name": "G4",
          "midi": 67,
          "time": 79.7499202500002,
          "velocity": 0.7874015748031497,
          "duration": 0.08333324999999547
        },
        {
          "name": "F4",
          "midi": 65,
          "time": 79.8332535000002,
          "velocity": 0.7874015748031497,
          "duration": 0.08333324999999547
        },
        {
          "name": "D#4",
          "midi": 63,
          "time": 79.91658675000019,
          "velocity": 0.7874015748031497,
          "duration": 0.08333324999999547
        },
        {
          "name": "E4",
          "midi": 64,
          "time": 79.99992000000019,
          "velocity": 0.7874015748031497,
          "duration": 0.08333324999999547
        },
        {
          "name": "F4",
          "midi": 65,
          "time": 80.08325325000018,
          "velocity": 0.7874015748031497,
          "duration": 0.08333324999999547
        },
        {
          "name": "G4",
          "midi": 67,
          "time": 80.16658650000018,
          "velocity": 0.7874015748031497,
          "duration": 0.08333324999999547
        },
        {
          "name": "G#4",
          "midi": 68,
          "time": 80.24991975000017,
          "velocity": 0.7874015748031497,
          "duration": 0.08333324999999547
        },
        {
          "name": "A#4",
          "midi": 70,
          "time": 80.33325300000017,
          "velocity": 0.7874015748031497,
          "duration": 0.08333324999999547
        },
        {
          "name": "C5",
          "midi": 72,
          "time": 80.41658625000017,
          "velocity": 0.7874015748031497,
          "duration": 0.08333324999999547
        },
        {
          "name": "D5",
          "midi": 74,
          "time": 80.49991950000016,
          "velocity": 0.7874015748031497,
          "duration": 0.08333324999999547
        },
        {
          "name": "E5",
          "midi": 76,
          "time": 80.58325275000016,
          "velocity": 0.7874015748031497,
          "duration": 0.08333324999999547
        },
        {
          "name": "E5",
          "midi": 76,
          "time": 80.66658600000015,
          "velocity": 0.7874015748031497,
          "duration": 0.08333324999999547
        },
        {
          "name": "D5",
          "midi": 74,
          "time": 80.74991925000015,
          "velocity": 0.7874015748031497,
          "duration": 0.08333324999999547
        },
        {
          "name": "C5",
          "midi": 72,
          "time": 80.83325250000014,
          "velocity": 0.7874015748031497,
          "duration": 0.08333324999999547
        },
        {
          "name": "A#4",
          "midi": 70,
          "time": 80.91658575000014,
          "velocity": 0.7874015748031497,
          "duration": 0.08333324999999547
        },
        {
          "name": "G#4",
          "midi": 68,
          "time": 80.99991900000013,
          "velocity": 0.7874015748031497,
          "duration": 0.08333324999999547
        },
        {
          "name": "G4",
          "midi": 67,
          "time": 81.08325225000013,
          "velocity": 0.7874015748031497,
          "duration": 0.08333324999999547
        },
        {
          "name": "F4",
          "midi": 65,
          "time": 81.16658550000012,
          "velocity": 0.7874015748031497,
          "duration": 0.08333324999999547
        },
        {
          "name": "E4",
          "midi": 64,
          "time": 81.24991875000012,
          "velocity": 0.7874015748031497,
          "duration": 0.08333324999999547
        },
        {
          "name": "C4",
          "midi": 60,
          "time": 81.33325200000012,
          "velocity": 0.7874015748031497,
          "duration": 0.08333324999999547
        },
        {
          "name": "D4",
          "midi": 62,
          "time": 81.41658525000011,
          "velocity": 0.7874015748031497,
          "duration": 0.08333324999999547
        },
        {
          "name": "E4",
          "midi": 64,
          "time": 81.4999185000001,
          "velocity": 0.7874015748031497,
          "duration": 0.08333324999999547
        },
        {
          "name": "D4",
          "midi": 62,
          "time": 81.5832517500001,
          "velocity": 0.7874015748031497,
          "duration": 0.08333324999999547
        },
        {
          "name": "C4",
          "midi": 60,
          "time": 81.6665850000001,
          "velocity": 0.7874015748031497,
          "duration": 0.08333324999999547
        },
        {
          "name": "D4",
          "midi": 62,
          "time": 81.74991825000009,
          "velocity": 0.7874015748031497,
          "duration": 0.08333324999999547
        },
        {
          "name": "E4",
          "midi": 64,
          "time": 81.83325150000009,
          "velocity": 0.7874015748031497,
          "duration": 0.08333324999999547
        },
        {
          "name": "F4",
          "midi": 65,
          "time": 81.91658475000008,
          "velocity": 0.7874015748031497,
          "duration": 0.08333324999999547
        },
        {
          "name": "E4",
          "midi": 64,
          "time": 81.99991800000008,
          "velocity": 0.7874015748031497,
          "duration": 0.08333324999999547
        },
        {
          "name": "F4",
          "midi": 65,
          "time": 82.08325125000007,
          "velocity": 0.7874015748031497,
          "duration": 0.08333324999999547
        },
        {
          "name": "G4",
          "midi": 67,
          "time": 82.16658450000007,
          "velocity": 0.7874015748031497,
          "duration": 0.08333324999999547
        },
        {
          "name": "A4",
          "midi": 69,
          "time": 82.24991775000007,
          "velocity": 0.7874015748031497,
          "duration": 0.08333324999999547
        },
        {
          "name": "A#4",
          "midi": 70,
          "time": 82.33325100000006,
          "velocity": 0.7874015748031497,
          "duration": 0.08333324999999547
        },
        {
          "name": "C5",
          "midi": 72,
          "time": 82.41658425000006,
          "velocity": 0.7874015748031497,
          "duration": 0.08333324999999547
        },
        {
          "name": "D5",
          "midi": 74,
          "time": 82.49991750000005,
          "velocity": 0.7874015748031497,
          "duration": 0.08333324999999547
        },
        {
          "name": "E5",
          "midi": 76,
          "time": 82.58325075000005,
          "velocity": 0.7874015748031497,
          "duration": 0.08333324999999547
        },
        {
          "name": "F5",
          "midi": 77,
          "time": 82.66658400000004,
          "velocity": 0.7874015748031497,
          "duration": 0.9999990000000167
        },
        {
          "name": "C5",
          "midi": 72,
          "time": 82.83325050000005,
          "velocity": 0.7874015748031497,
          "duration": 0.8333325000000116
        },
        {
          "name": "A4",
          "midi": 69,
          "time": 82.99991700000005,
          "velocity": 0.7874015748031497,
          "duration": 0.6666660000000064
        },
        {
          "name": "F4",
          "midi": 65,
          "time": 83.16658350000006,
          "velocity": 0.7874015748031497,
          "duration": 0.49999950000000126
        },
        {
          "name": "C4",
          "midi": 60,
          "time": 83.33325000000006,
          "velocity": 0.7874015748031497,
          "duration": 0.3333329999999961
        },
        {
          "name": "A#5",
          "midi": 82,
          "time": 83.99991600000006,
          "velocity": 0.7874015748031497,
          "duration": 0.08333324999999547
        },
        {
          "name": "G5",
          "midi": 79,
          "time": 84.08324925000005,
          "velocity": 0.7874015748031497,
          "duration": 0.08333324999999547
        },
        {
          "name": "D#5",
          "midi": 75,
          "time": 84.16658250000005,
          "velocity": 0.7874015748031497,
          "duration": 0.08333324999999547
        },
        {
          "name": "A#4",
          "midi": 70,
          "time": 84.24991575000004,
          "velocity": 0.7874015748031497,
          "duration": 0.08333324999999547
        },
        {
          "name": "G5",
          "midi": 79,
          "time": 84.33324900000004,
          "velocity": 0.7874015748031497,
          "duration": 0.08333324999999547
        },
        {
          "name": "D#5",
          "midi": 75,
          "time": 84.41658225000003,
          "velocity": 0.7874015748031497,
          "duration": 0.08333324999999547
        },
        {
          "name": "A#4",
          "midi": 70,
          "time": 84.49991550000003,
          "velocity": 0.7874015748031497,
          "duration": 0.08333324999999547
        },
        {
          "name": "G4",
          "midi": 67,
          "time": 84.58324875000002,
          "velocity": 0.7874015748031497,
          "duration": 0.08333324999999547
        },
        {
          "name": "D#4",
          "midi": 63,
          "time": 84.66658200000002,
          "velocity": 0.7874015748031497,
          "duration": 0.08333324999999547
        },
        {
          "name": "G4",
          "midi": 67,
          "time": 84.74991525000002,
          "velocity": 0.7874015748031497,
          "duration": 0.08333324999999547
        },
        {
          "name": "A#4",
          "midi": 70,
          "time": 84.83324850000001,
          "velocity": 0.7874015748031497,
          "duration": 0.08333324999999547
        },
        {
          "name": "D#5",
          "midi": 75,
          "time": 84.91658175,
          "velocity": 0.7874015748031497,
          "duration": 0.08333324999999547
        },
        {
          "name": "A#4",
          "midi": 70,
          "time": 84.999915,
          "velocity": 0.7874015748031497,
          "duration": 0.08333324999999547
        },
        {
          "name": "D#5",
          "midi": 75,
          "time": 85.08324825,
          "velocity": 0.7874015748031497,
          "duration": 0.08333324999999547
        },
        {
          "name": "G5",
          "midi": 79,
          "time": 85.16658149999999,
          "velocity": 0.7874015748031497,
          "duration": 0.08333324999999547
        },
        {
          "name": "A#5",
          "midi": 82,
          "time": 85.24991474999999,
          "velocity": 0.7874015748031497,
          "duration": 0.08333324999999547
        },
        {
          "name": "C6",
          "midi": 84,
          "time": 85.33324799999998,
          "velocity": 0.7874015748031497,
          "duration": 0.08333324999999547
        },
        {
          "name": "A5",
          "midi": 81,
          "time": 85.41658124999998,
          "velocity": 0.7874015748031497,
          "duration": 0.08333324999999547
        },
        {
          "name": "F5",
          "midi": 77,
          "time": 85.49991449999997,
          "velocity": 0.7874015748031497,
          "duration": 0.08333324999999547
        },
        {
          "name": "C5",
          "midi": 72,
          "time": 85.58324774999997,
          "velocity": 0.7874015748031497,
          "duration": 0.08333324999999547
        },
        {
          "name": "A5",
          "midi": 81,
          "time": 85.66658099999997,
          "velocity": 0.7874015748031497,
          "duration": 0.08333324999999547
        },
        {
          "name": "F5",
          "midi": 77,
          "time": 85.74991424999996,
          "velocity": 0.7874015748031497,
          "duration": 0.08333324999999547
        },
        {
          "name": "C5",
          "midi": 72,
          "time": 85.83324749999996,
          "velocity": 0.7874015748031497,
          "duration": 0.08333324999999547
        },
        {
          "name": "A4",
          "midi": 69,
          "time": 85.91658074999995,
          "velocity": 0.7874015748031497,
          "duration": 0.08333324999999547
        },
        {
          "name": "F4",
          "midi": 65,
          "time": 85.99991399999995,
          "velocity": 0.7874015748031497,
          "duration": 0.08333324999999547
        },
        {
          "name": "A4",
          "midi": 69,
          "time": 86.08324724999994,
          "velocity": 0.7874015748031497,
          "duration": 0.08333324999999547
        },
        {
          "name": "C5",
          "midi": 72,
          "time": 86.16658049999994,
          "velocity": 0.7874015748031497,
          "duration": 0.08333324999999547
        },
        {
          "name": "F5",
          "midi": 77,
          "time": 86.24991374999993,
          "velocity": 0.7874015748031497,
          "duration": 0.08333324999999547
        },
        {
          "name": "C5",
          "midi": 72,
          "time": 86.33324699999993,
          "velocity": 0.7874015748031497,
          "duration": 0.08333324999999547
        },
        {
          "name": "F5",
          "midi": 77,
          "time": 86.41658024999992,
          "velocity": 0.7874015748031497,
          "duration": 0.08333324999999547
        },
        {
          "name": "A5",
          "midi": 81,
          "time": 86.49991349999992,
          "velocity": 0.7874015748031497,
          "duration": 0.08333324999999547
        },
        {
          "name": "C6",
          "midi": 84,
          "time": 86.58324674999992,
          "velocity": 0.7874015748031497,
          "duration": 0.08333324999999547
        },
        {
          "name": "D5",
          "midi": 74,
          "time": 86.66657999999991,
          "velocity": 0.7874015748031497,
          "duration": 0.08333324999999547
        },
        {
          "name": "A#4",
          "midi": 70,
          "time": 86.7499132499999,
          "velocity": 0.7874015748031497,
          "duration": 0.08333324999999547
        },
        {
          "name": "G4",
          "midi": 67,
          "time": 86.8332464999999,
          "velocity": 0.7874015748031497,
          "duration": 0.08333324999999547
        },
        {
          "name": "D4",
          "midi": 62,
          "time": 86.9165797499999,
          "velocity": 0.7874015748031497,
          "duration": 0.08333324999999547
        },
        {
          "name": "A#4",
          "midi": 70,
          "time": 86.99991299999989,
          "velocity": 0.7874015748031497,
          "duration": 0.08333324999999547
        },
        {
          "name": "G4",
          "midi": 67,
          "time": 87.08324624999989,
          "velocity": 0.7874015748031497,
          "duration": 0.08333324999999547
        },
        {
          "name": "D4",
          "midi": 62,
          "time": 87.16657949999988,
          "velocity": 0.7874015748031497,
          "duration": 0.08333324999999547
        },
        {
          "name": "A#3",
          "midi": 58,
          "time": 87.24991274999988,
          "velocity": 0.7874015748031497,
          "duration": 0.08333324999999547
        },
        {
          "name": "G3",
          "midi": 55,
          "time": 87.33324599999987,
          "velocity": 0.7874015748031497,
          "duration": 0.08333324999999547
        },
        {
          "name": "A#3",
          "midi": 58,
          "time": 87.41657924999987,
          "velocity": 0.7874015748031497,
          "duration": 0.08333324999999547
        },
        {
          "name": "D4",
          "midi": 62,
          "time": 87.49991249999987,
          "velocity": 0.7874015748031497,
          "duration": 0.08333324999999547
        },
        {
          "name": "G4",
          "midi": 67,
          "time": 87.58324574999986,
          "velocity": 0.7874015748031497,
          "duration": 0.08333324999999547
        },
        {
          "name": "D4",
          "midi": 62,
          "time": 87.66657899999986,
          "velocity": 0.7874015748031497,
          "duration": 0.08333324999999547
        },
        {
          "name": "G4",
          "midi": 67,
          "time": 87.74991224999985,
          "velocity": 0.7874015748031497,
          "duration": 0.08333324999999547
        },
        {
          "name": "A#4",
          "midi": 70,
          "time": 87.83324549999985,
          "velocity": 0.7874015748031497,
          "duration": 0.08333324999999547
        },
        {
          "name": "D5",
          "midi": 74,
          "time": 87.91657874999984,
          "velocity": 0.7874015748031497,
          "duration": 0.08333324999999547
        },
        {
          "name": "A5",
          "midi": 81,
          "time": 87.99991199999984,
          "velocity": 0.7874015748031497,
          "duration": 0.08333324999999547
        },
        {
          "name": "F5",
          "midi": 77,
          "time": 88.08324524999983,
          "velocity": 0.7874015748031497,
          "duration": 0.08333324999999547
        },
        {
          "name": "D5",
          "midi": 74,
          "time": 88.16657849999983,
          "velocity": 0.7874015748031497,
          "duration": 0.08333324999999547
        },
        {
          "name": "A4",
          "midi": 69,
          "time": 88.24991174999982,
          "velocity": 0.7874015748031497,
          "duration": 0.08333324999999547
        },
        {
          "name": "F5",
          "midi": 77,
          "time": 88.33324499999982,
          "velocity": 0.7874015748031497,
          "duration": 0.08333324999999547
        },
        {
          "name": "D5",
          "midi": 74,
          "time": 88.41657824999982,
          "velocity": 0.7874015748031497,
          "duration": 0.08333324999999547
        },
        {
          "name": "A4",
          "midi": 69,
          "time": 88.49991149999981,
          "velocity": 0.7874015748031497,
          "duration": 0.08333324999999547
        },
        {
          "name": "F4",
          "midi": 65,
          "time": 88.5832447499998,
          "velocity": 0.7874015748031497,
          "duration": 0.08333324999999547
        },
        {
          "name": "D4",
          "midi": 62,
          "time": 88.6665779999998,
          "velocity": 0.7874015748031497,
          "duration": 0.08333324999999547
        },
        {
          "name": "F4",
          "midi": 65,
          "time": 88.7499112499998,
          "velocity": 0.7874015748031497,
          "duration": 0.08333324999999547
        },
        {
          "name": "A4",
          "midi": 69,
          "time": 88.8332444999998,
          "velocity": 0.7874015748031497,
          "duration": 0.08333324999999547
        },
        {
          "name": "D5",
          "midi": 74,
          "time": 88.91657774999979,
          "velocity": 0.7874015748031497,
          "duration": 0.08333324999999547
        },
        {
          "name": "A4",
          "midi": 69,
          "time": 88.99991099999978,
          "velocity": 0.7874015748031497,
          "duration": 0.08333324999999547
        },
        {
          "name": "D5",
          "midi": 74,
          "time": 89.08324424999978,
          "velocity": 0.7874015748031497,
          "duration": 0.08333324999999547
        },
        {
          "name": "F5",
          "midi": 77,
          "time": 89.16657749999978,
          "velocity": 0.7874015748031497,
          "duration": 0.08333324999999547
        },
        {
          "name": "A5",
          "midi": 81,
          "time": 89.24991074999977,
          "velocity": 0.7874015748031497,
          "duration": 0.08333324999999547
        },
        {
          "name": "A#5",
          "midi": 82,
          "time": 89.33324399999977,
          "velocity": 0.7874015748031497,
          "duration": 0.08333324999999547
        },
        {
          "name": "G5",
          "midi": 79,
          "time": 89.41657724999976,
          "velocity": 0.7874015748031497,
          "duration": 0.08333324999999547
        },
        {
          "name": "D#5",
          "midi": 75,
          "time": 89.49991049999976,
          "velocity": 0.7874015748031497,
          "duration": 0.08333324999999547
        },
        {
          "name": "A#4",
          "midi": 70,
          "time": 89.58324374999975,
          "velocity": 0.7874015748031497,
          "duration": 0.08333324999999547
        },
        {
          "name": "G5",
          "midi": 79,
          "time": 89.66657699999975,
          "velocity": 0.7874015748031497,
          "duration": 0.08333324999999547
        },
        {
          "name": "D#5",
          "midi": 75,
          "time": 89.74991024999974,
          "velocity": 0.7874015748031497,
          "duration": 0.08333324999999547
        },
        {
          "name": "A#4",
          "midi": 70,
          "time": 89.83324349999974,
          "velocity": 0.7874015748031497,
          "duration": 0.08333324999999547
        },
        {
          "name": "G4",
          "midi": 67,
          "time": 89.91657674999973,
          "velocity": 0.7874015748031497,
          "duration": 0.08333324999999547
        },
        {
          "name": "D#4",
          "midi": 63,
          "time": 89.99990999999973,
          "velocity": 0.7874015748031497,
          "duration": 0.08333324999999547
        },
        {
          "name": "G4",
          "midi": 67,
          "time": 90.08324324999973,
          "velocity": 0.7874015748031497,
          "duration": 0.08333324999999547
        },
        {
          "name": "A#4",
          "midi": 70,
          "time": 90.16657649999972,
          "velocity": 0.7874015748031497,
          "duration": 0.08333324999999547
        },
        {
          "name": "D#5",
          "midi": 75,
          "time": 90.24990974999972,
          "velocity": 0.7874015748031497,
          "duration": 0.08333324999999547
        },
        {
          "name": "A#4",
          "midi": 70,
          "time": 90.33324299999971,
          "velocity": 0.7874015748031497,
          "duration": 0.08333324999999547
        },
        {
          "name": "D#5",
          "midi": 75,
          "time": 90.41657624999971,
          "velocity": 0.7874015748031497,
          "duration": 0.08333324999999547
        },
        {
          "name": "G5",
          "midi": 79,
          "time": 90.4999094999997,
          "velocity": 0.7874015748031497,
          "duration": 0.08333324999999547
        },
        {
          "name": "A#5",
          "midi": 82,
          "time": 90.5832427499997,
          "velocity": 0.7874015748031497,
          "duration": 0.08333324999999547
        },
        {
          "name": "C6",
          "midi": 84,
          "time": 90.6665759999997,
          "velocity": 0.7874015748031497,
          "duration": 0.08333324999999547
        },
        {
          "name": "A5",
          "midi": 81,
          "time": 90.74990924999969,
          "velocity": 0.7874015748031497,
          "duration": 0.08333324999999547
        },
        {
          "name": "F5",
          "midi": 77,
          "time": 90.83324249999968,
          "velocity": 0.7874015748031497,
          "duration": 0.08333324999999547
        },
        {
          "name": "C5",
          "midi": 72,
          "time": 90.91657574999968,
          "velocity": 0.7874015748031497,
          "duration": 0.08333324999999547
        },
        {
          "name": "A5",
          "midi": 81,
          "time": 90.99990899999968,
          "velocity": 0.7874015748031497,
          "duration": 0.08333324999999547
        },
        {
          "name": "F5",
          "midi": 77,
          "time": 91.08324224999967,
          "velocity": 0.7874015748031497,
          "duration": 0.08333324999999547
        },
        {
          "name": "C5",
          "midi": 72,
          "time": 91.16657549999967,
          "velocity": 0.7874015748031497,
          "duration": 0.08333324999999547
        },
        {
          "name": "A4",
          "midi": 69,
          "time": 91.24990874999966,
          "velocity": 0.7874015748031497,
          "duration": 0.08333324999999547
        },
        {
          "name": "F4",
          "midi": 65,
          "time": 91.33324199999966,
          "velocity": 0.7874015748031497,
          "duration": 0.08333324999999547
        },
        {
          "name": "A4",
          "midi": 69,
          "time": 91.41657524999965,
          "velocity": 0.7874015748031497,
          "duration": 0.08333324999999547
        },
        {
          "name": "C5",
          "midi": 72,
          "time": 91.49990849999965,
          "velocity": 0.7874015748031497,
          "duration": 0.08333324999999547
        },
        {
          "name": "F5",
          "midi": 77,
          "time": 91.58324174999964,
          "velocity": 0.7874015748031497,
          "duration": 0.08333324999999547
        },
        {
          "name": "C5",
          "midi": 72,
          "time": 91.66657499999964,
          "velocity": 0.7874015748031497,
          "duration": 0.08333324999999547
        },
        {
          "name": "F5",
          "midi": 77,
          "time": 91.74990824999963,
          "velocity": 0.7874015748031497,
          "duration": 0.08333324999999547
        },
        {
          "name": "A5",
          "midi": 81,
          "time": 91.83324149999963,
          "velocity": 0.7874015748031497,
          "duration": 0.08333324999999547
        },
        {
          "name": "C6",
          "midi": 84,
          "time": 91.91657474999963,
          "velocity": 0.7874015748031497,
          "duration": 0.08333324999999547
        },
        {
          "name": "F5",
          "midi": 77,
          "time": 91.99990799999962,
          "velocity": 0.7874015748031497,
          "duration": 0.08333324999999547
        },
        {
          "name": "D5",
          "midi": 74,
          "time": 92.08324124999962,
          "velocity": 0.7874015748031497,
          "duration": 0.08333324999999547
        },
        {
          "name": "A#4",
          "midi": 70,
          "time": 92.16657449999961,
          "velocity": 0.7874015748031497,
          "duration": 0.08333324999999547
        },
        {
          "name": "F4",
          "midi": 65,
          "time": 92.24990774999961,
          "velocity": 0.7874015748031497,
          "duration": 0.08333324999999547
        },
        {
          "name": "D5",
          "midi": 74,
          "time": 92.3332409999996,
          "velocity": 0.7874015748031497,
          "duration": 0.08333324999999547
        },
        {
          "name": "A#4",
          "midi": 70,
          "time": 92.4165742499996,
          "velocity": 0.7874015748031497,
          "duration": 0.08333324999999547
        },
        {
          "name": "F4",
          "midi": 65,
          "time": 92.4999074999996,
          "velocity": 0.7874015748031497,
          "duration": 0.08333324999999547
        },
        {
          "name": "D4",
          "midi": 62,
          "time": 92.58324074999959,
          "velocity": 0.7874015748031497,
          "duration": 0.08333324999999547
        },
        {
          "name": "A#3",
          "midi": 58,
          "time": 92.66657399999958,
          "velocity": 0.7874015748031497,
          "duration": 0.08333324999999547
        },
        {
          "name": "D4",
          "midi": 62,
          "time": 92.74990724999958,
          "velocity": 0.7874015748031497,
          "duration": 0.08333324999999547
        },
        {
          "name": "F4",
          "midi": 65,
          "time": 92.83324049999958,
          "velocity": 0.7874015748031497,
          "duration": 0.08333324999999547
        },
        {
          "name": "A#4",
          "midi": 70,
          "time": 92.91657374999957,
          "velocity": 0.7874015748031497,
          "duration": 0.08333324999999547
        },
        {
          "name": "F4",
          "midi": 65,
          "time": 92.99990699999957,
          "velocity": 0.7874015748031497,
          "duration": 0.08333324999999547
        },
        {
          "name": "A#4",
          "midi": 70,
          "time": 93.08324024999956,
          "velocity": 0.7874015748031497,
          "duration": 0.08333324999999547
        },
        {
          "name": "D5",
          "midi": 74,
          "time": 93.16657349999956,
          "velocity": 0.7874015748031497,
          "duration": 0.08333324999999547
        },
        {
          "name": "F5",
          "midi": 77,
          "time": 93.24990674999955,
          "velocity": 0.7874015748031497,
          "duration": 0.08333324999999547
        },
        {
          "name": "F5",
          "midi": 77,
          "time": 93.33323999999955,
          "velocity": 0.7874015748031497,
          "duration": 0.08333324999999547
        },
        {
          "name": "D5",
          "midi": 74,
          "time": 93.41657324999954,
          "velocity": 0.7874015748031497,
          "duration": 0.08333324999999547
        },
        {
          "name": "A#4",
          "midi": 70,
          "time": 93.49990649999954,
          "velocity": 0.7874015748031497,
          "duration": 0.08333324999999547
        },
        {
          "name": "F4",
          "midi": 65,
          "time": 93.58323974999954,
          "velocity": 0.7874015748031497,
          "duration": 0.08333324999999547
        },
        {
          "name": "D5",
          "midi": 74,
          "time": 93.66657299999953,
          "velocity": 0.7874015748031497,
          "duration": 0.08333324999999547
        },
        {
          "name": "A#4",
          "midi": 70,
          "time": 93.74990624999953,
          "velocity": 0.7874015748031497,
          "duration": 0.08333324999999547
        },
        {
          "name": "F4",
          "midi": 65,
          "time": 93.83323949999952,
          "velocity": 0.7874015748031497,
          "duration": 0.08333324999999547
        },
        {
          "name": "D4",
          "midi": 62,
          "time": 93.91657274999952,
          "velocity": 0.7874015748031497,
          "duration": 0.08333324999999547
        },
        {
          "name": "A3",
          "midi": 57,
          "time": 93.99990599999951,
          "velocity": 0.7874015748031497,
          "duration": 0.08333324999999547
        },
        {
          "name": "D4",
          "midi": 62,
          "time": 94.08323924999951,
          "velocity": 0.7874015748031497,
          "duration": 0.08333324999999547
        },
        {
          "name": "F4",
          "midi": 65,
          "time": 94.1665724999995,
          "velocity": 0.7874015748031497,
          "duration": 0.08333324999999547
        },
        {
          "name": "A4",
          "midi": 69,
          "time": 94.2499057499995,
          "velocity": 0.7874015748031497,
          "duration": 0.08333324999999547
        },
        {
          "name": "F4",
          "midi": 65,
          "time": 94.3332389999995,
          "velocity": 0.7874015748031497,
          "duration": 0.08333324999999547
        },
        {
          "name": "A4",
          "midi": 69,
          "time": 94.41657224999949,
          "velocity": 0.7874015748031497,
          "duration": 0.08333324999999547
        },
        {
          "name": "D5",
          "midi": 74,
          "time": 94.49990549999949,
          "velocity": 0.7874015748031497,
          "duration": 0.08333324999999547
        },
        {
          "name": "F5",
          "midi": 77,
          "time": 94.58323874999948,
          "velocity": 0.7874015748031497,
          "duration": 0.08333324999999547
        },
        {
          "name": "D5",
          "midi": 74,
          "time": 94.66657199999948,
          "velocity": 0.7874015748031497,
          "duration": 0.08333324999999547
        },
        {
          "name": "A#4",
          "midi": 70,
          "time": 94.74990524999947,
          "velocity": 0.7874015748031497,
          "duration": 0.08333324999999547
        },
        {
          "name": "G4",
          "midi": 67,
          "time": 94.83323849999947,
          "velocity": 0.7874015748031497,
          "duration": 0.08333324999999547
        },
        {
          "name": "D4",
          "midi": 62,
          "time": 94.91657174999946,
          "velocity": 0.7874015748031497,
          "duration": 0.08333324999999547
        },
        {
          "name": "A#4",
          "midi": 70,
          "time": 94.99990499999946,
          "velocity": 0.7874015748031497,
          "duration": 0.08333324999999547
        },
        {
          "name": "G4",
          "midi": 67,
          "time": 95.08323824999945,
          "velocity": 0.7874015748031497,
          "duration": 0.08333324999999547
        },
        {
          "name": "D4",
          "midi": 62,
          "time": 95.16657149999945,
          "velocity": 0.7874015748031497,
          "duration": 0.08333324999999547
        },
        {
          "name": "A#3",
          "midi": 58,
          "time": 95.24990474999944,
          "velocity": 0.7874015748031497,
          "duration": 0.08333324999999547
        },
        {
          "name": "G3",
          "midi": 55,
          "time": 95.33323799999944,
          "velocity": 0.7874015748031497,
          "duration": 0.08333324999999547
        },
        {
          "name": "A#3",
          "midi": 58,
          "time": 95.41657124999944,
          "velocity": 0.7874015748031497,
          "duration": 0.08333324999999547
        },
        {
          "name": "D4",
          "midi": 62,
          "time": 95.49990449999943,
          "velocity": 0.7874015748031497,
          "duration": 0.08333324999999547
        },
        {
          "name": "G4",
          "midi": 67,
          "time": 95.58323774999943,
          "velocity": 0.7874015748031497,
          "duration": 0.08333324999999547
        },
        {
          "name": "D4",
          "midi": 62,
          "time": 95.66657099999942,
          "velocity": 0.7874015748031497,
          "duration": 0.08333324999999547
        },
        {
          "name": "G4",
          "midi": 67,
          "time": 95.74990424999942,
          "velocity": 0.7874015748031497,
          "duration": 0.08333324999999547
        },
        {
          "name": "A#4",
          "midi": 70,
          "time": 95.83323749999941,
          "velocity": 0.7874015748031497,
          "duration": 0.08333324999999547
        },
        {
          "name": "D5",
          "midi": 74,
          "time": 95.91657074999941,
          "velocity": 0.7874015748031497,
          "duration": 0.08333324999999547
        },
        {
          "name": "A#5",
          "midi": 82,
          "time": 95.9999039999994,
          "velocity": 0.7874015748031497,
          "duration": 0.08333324999999547
        },
        {
          "name": "G5",
          "midi": 79,
          "time": 96.0832372499994,
          "velocity": 0.7874015748031497,
          "duration": 0.08333324999999547
        },
        {
          "name": "D#5",
          "midi": 75,
          "time": 96.1665704999994,
          "velocity": 0.7874015748031497,
          "duration": 0.08333324999999547
        },
        {
          "name": "A#4",
          "midi": 70,
          "time": 96.24990374999939,
          "velocity": 0.7874015748031497,
          "duration": 0.08333324999999547
        },
        {
          "name": "G5",
          "midi": 79,
          "time": 96.33323699999939,
          "velocity": 0.7874015748031497,
          "duration": 0.08333324999999547
        },
        {
          "name": "D#5",
          "midi": 75,
          "time": 96.41657024999938,
          "velocity": 0.7874015748031497,
          "duration": 0.08333324999999547
        },
        {
          "name": "A#4",
          "midi": 70,
          "time": 96.49990349999938,
          "velocity": 0.7874015748031497,
          "duration": 0.08333324999999547
        },
        {
          "name": "G4",
          "midi": 67,
          "time": 96.58323674999937,
          "velocity": 0.7874015748031497,
          "duration": 0.08333324999999547
        },
        {
          "name": "D#4",
          "midi": 63,
          "time": 96.66656999999937,
          "velocity": 0.7874015748031497,
          "duration": 0.08333324999999547
        },
        {
          "name": "G4",
          "midi": 67,
          "time": 96.74990324999936,
          "velocity": 0.7874015748031497,
          "duration": 0.08333324999999547
        },
        {
          "name": "A#4",
          "midi": 70,
          "time": 96.83323649999936,
          "velocity": 0.7874015748031497,
          "duration": 0.08333324999999547
        },
        {
          "name": "D#5",
          "midi": 75,
          "time": 96.91656974999935,
          "velocity": 0.7874015748031497,
          "duration": 0.08333324999999547
        },
        {
          "name": "A#4",
          "midi": 70,
          "time": 96.99990299999935,
          "velocity": 0.7874015748031497,
          "duration": 0.08333324999999547
        },
        {
          "name": "D#5",
          "midi": 75,
          "time": 97.08323624999935,
          "velocity": 0.7874015748031497,
          "duration": 0.08333324999999547
        },
        {
          "name": "G5",
          "midi": 79,
          "time": 97.16656949999934,
          "velocity": 0.7874015748031497,
          "duration": 0.08333324999999547
        },
        {
          "name": "A#5",
          "midi": 82,
          "time": 97.24990274999934,
          "velocity": 0.7874015748031497,
          "duration": 0.08333324999999547
        },
        {
          "name": "C6",
          "midi": 84,
          "time": 97.33323599999933,
          "velocity": 0.7874015748031497,
          "duration": 0.08333324999999547
        },
        {
          "name": "A5",
          "midi": 81,
          "time": 97.41656924999933,
          "velocity": 0.7874015748031497,
          "duration": 0.08333324999999547
        },
        {
          "name": "F5",
          "midi": 77,
          "time": 97.49990249999932,
          "velocity": 0.7874015748031497,
          "duration": 0.08333324999999547
        },
        {
          "name": "C5",
          "midi": 72,
          "time": 97.58323574999932,
          "velocity": 0.7874015748031497,
          "duration": 0.08333324999999547
        },
        {
          "name": "A5",
          "midi": 81,
          "time": 97.66656899999931,
          "velocity": 0.7874015748031497,
          "duration": 0.08333324999999547
        },
        {
          "name": "F5",
          "midi": 77,
          "time": 97.74990224999931,
          "velocity": 0.7874015748031497,
          "duration": 0.08333324999999547
        },
        {
          "name": "C5",
          "midi": 72,
          "time": 97.8332354999993,
          "velocity": 0.7874015748031497,
          "duration": 0.08333324999999547
        },
        {
          "name": "A4",
          "midi": 69,
          "time": 97.9165687499993,
          "velocity": 0.7874015748031497,
          "duration": 0.08333324999999547
        },
        {
          "name": "F#4",
          "midi": 66,
          "time": 97.9999019999993,
          "velocity": 0.7874015748031497,
          "duration": 0.08333324999999547
        },
        {
          "name": "A4",
          "midi": 69,
          "time": 98.08323524999929,
          "velocity": 0.7874015748031497,
          "duration": 0.08333324999999547
        },
        {
          "name": "C5",
          "midi": 72,
          "time": 98.16656849999929,
          "velocity": 0.7874015748031497,
          "duration": 0.08333324999999547
        },
        {
          "name": "F#5",
          "midi": 78,
          "time": 98.24990174999928,
          "velocity": 0.7874015748031497,
          "duration": 0.08333324999999547
        },
        {
          "name": "C5",
          "midi": 72,
          "time": 98.33323499999928,
          "velocity": 0.7874015748031497,
          "duration": 0.08333324999999547
        },
        {
          "name": "F#5",
          "midi": 78,
          "time": 98.41656824999927,
          "velocity": 0.7874015748031497,
          "duration": 0.08333324999999547
        },
        {
          "name": "A5",
          "midi": 81,
          "time": 98.49990149999927,
          "velocity": 0.7874015748031497,
          "duration": 0.08333324999999547
        },
        {
          "name": "C6",
          "midi": 84,
          "time": 98.58323474999926,
          "velocity": 0.7874015748031497,
          "duration": 0.08333324999999547
        },
        {
          "name": "D5",
          "midi": 74,
          "time": 98.66656799999926,
          "velocity": 0.7874015748031497,
          "duration": 0.08333324999999547
        },
        {
          "name": "A#4",
          "midi": 70,
          "time": 98.74990124999925,
          "velocity": 0.7874015748031497,
          "duration": 0.08333324999999547
        },
        {
          "name": "G4",
          "midi": 67,
          "time": 98.83323449999925,
          "velocity": 0.7874015748031497,
          "duration": 0.08333324999999547
        },
        {
          "name": "D4",
          "midi": 62,
          "time": 98.91656774999925,
          "velocity": 0.7874015748031497,
          "duration": 0.08333324999999547
        },
        {
          "name": "A#4",
          "midi": 70,
          "time": 98.99990099999924,
          "velocity": 0.7874015748031497,
          "duration": 0.08333324999999547
        },
        {
          "name": "G4",
          "midi": 67,
          "time": 99.08323424999924,
          "velocity": 0.7874015748031497,
          "duration": 0.08333324999999547
        },
        {
          "name": "D4",
          "midi": 62,
          "time": 99.16656749999923,
          "velocity": 0.7874015748031497,
          "duration": 0.08333324999999547
        },
        {
          "name": "A#3",
          "midi": 58,
          "time": 99.24990074999923,
          "velocity": 0.7874015748031497,
          "duration": 0.08333324999999547
        },
        {
          "name": "G3",
          "midi": 55,
          "time": 99.33323399999922,
          "velocity": 0.7874015748031497,
          "duration": 0.08333324999999547
        },
        {
          "name": "A#3",
          "midi": 58,
          "time": 99.41656724999922,
          "velocity": 0.7874015748031497,
          "duration": 0.08333324999999547
        },
        {
          "name": "D4",
          "midi": 62,
          "time": 99.49990049999921,
          "velocity": 0.7874015748031497,
          "duration": 0.08333324999999547
        },
        {
          "name": "G4",
          "midi": 67,
          "time": 99.58323374999921,
          "velocity": 0.7874015748031497,
          "duration": 0.08333324999999547
        },
        {
          "name": "D4",
          "midi": 62,
          "time": 99.6665669999992,
          "velocity": 0.7874015748031497,
          "duration": 0.08333324999999547
        },
        {
          "name": "G4",
          "midi": 67,
          "time": 99.7499002499992,
          "velocity": 0.7874015748031497,
          "duration": 0.08333324999999547
        },
        {
          "name": "A#4",
          "midi": 70,
          "time": 99.8332334999992,
          "velocity": 0.7874015748031497,
          "duration": 0.08333324999999547
        },
        {
          "name": "D5",
          "midi": 74,
          "time": 99.91656674999919,
          "velocity": 0.7874015748031497,
          "duration": 0.08333324999999547
        },
        {
          "name": "A#5",
          "midi": 82,
          "time": 99.99989999999919,
          "velocity": 0.7874015748031497,
          "duration": 0.08333324999999547
        },
        {
          "name": "G5",
          "midi": 79,
          "time": 100.08323324999918,
          "velocity": 0.7874015748031497,
          "duration": 0.08333324999999547
        },
        {
          "name": "D#5",
          "midi": 75,
          "time": 100.16656649999918,
          "velocity": 0.7874015748031497,
          "duration": 0.08333324999999547
        },
        {
          "name": "A#4",
          "midi": 70,
          "time": 100.24989974999917,
          "velocity": 0.7874015748031497,
          "duration": 0.08333324999999547
        },
        {
          "name": "G5",
          "midi": 79,
          "time": 100.33323299999917,
          "velocity": 0.7874015748031497,
          "duration": 0.08333324999999547
        },
        {
          "name": "D#5",
          "midi": 75,
          "time": 100.41656624999916,
          "velocity": 0.7874015748031497,
          "duration": 0.08333324999999547
        },
        {
          "name": "A#4",
          "midi": 70,
          "time": 100.49989949999916,
          "velocity": 0.7874015748031497,
          "duration": 0.08333324999999547
        },
        {
          "name": "G4",
          "midi": 67,
          "time": 100.58323274999915,
          "velocity": 0.7874015748031497,
          "duration": 0.08333324999999547
        },
        {
          "name": "D#4",
          "midi": 63,
          "time": 100.66656599999915,
          "velocity": 0.7874015748031497,
          "duration": 0.08333324999999547
        },
        {
          "name": "G4",
          "midi": 67,
          "time": 100.74989924999915,
          "velocity": 0.7874015748031497,
          "duration": 0.08333324999999547
        },
        {
          "name": "A#4",
          "midi": 70,
          "time": 100.83323249999914,
          "velocity": 0.7874015748031497,
          "duration": 0.08333324999999547
        },
        {
          "name": "D#5",
          "midi": 75,
          "time": 100.91656574999914,
          "velocity": 0.7874015748031497,
          "duration": 0.08333324999999547
        },
        {
          "name": "A#4",
          "midi": 70,
          "time": 100.99989899999913,
          "velocity": 0.7874015748031497,
          "duration": 0.08333324999999547
        },
        {
          "name": "D#5",
          "midi": 75,
          "time": 101.08323224999913,
          "velocity": 0.7874015748031497,
          "duration": 0.08333324999999547
        },
        {
          "name": "G5",
          "midi": 79,
          "time": 101.16656549999912,
          "velocity": 0.7874015748031497,
          "duration": 0.08333324999999547
        },
        {
          "name": "A#5",
          "midi": 82,
          "time": 101.24989874999912,
          "velocity": 0.7874015748031497,
          "duration": 0.08333324999999547
        },
        {
          "name": "A#5",
          "midi": 82,
          "time": 101.33323199999911,
          "velocity": 0.7874015748031497,
          "duration": 0.08333324999999547
        },
        {
          "name": "G5",
          "midi": 79,
          "time": 101.41656524999911,
          "velocity": 0.7874015748031497,
          "duration": 0.08333324999999547
        },
        {
          "name": "E5",
          "midi": 76,
          "time": 101.4998984999991,
          "velocity": 0.7874015748031497,
          "duration": 0.08333324999999547
        },
        {
          "name": "A#4",
          "midi": 70,
          "time": 101.5832317499991,
          "velocity": 0.7874015748031497,
          "duration": 0.08333324999999547
        },
        {
          "name": "G5",
          "midi": 79,
          "time": 101.6665649999991,
          "velocity": 0.7874015748031497,
          "duration": 0.08333324999999547
        },
        {
          "name": "E5",
          "midi": 76,
          "time": 101.74989824999909,
          "velocity": 0.7874015748031497,
          "duration": 0.08333324999999547
        },
        {
          "name": "A#4",
          "midi": 70,
          "time": 101.83323149999909,
          "velocity": 0.7874015748031497,
          "duration": 0.08333324999999547
        },
        {
          "name": "G4",
          "midi": 67,
          "time": 101.91656474999908,
          "velocity": 0.7874015748031497,
          "duration": 0.08333324999999547
        },
        {
          "name": "E4",
          "midi": 64,
          "time": 101.99989799999908,
          "velocity": 0.7874015748031497,
          "duration": 0.08333324999999547
        },
        {
          "name": "G4",
          "midi": 67,
          "time": 102.08323124999907,
          "velocity": 0.7874015748031497,
          "duration": 0.08333324999999547
        },
        {
          "name": "A#4",
          "midi": 70,
          "time": 102.16656449999907,
          "velocity": 0.7874015748031497,
          "duration": 0.08333324999999547
        },
        {
          "name": "E5",
          "midi": 76,
          "time": 102.24989774999906,
          "velocity": 0.7874015748031497,
          "duration": 0.08333324999999547
        },
        {
          "name": "A#4",
          "midi": 70,
          "time": 102.33323099999906,
          "velocity": 0.7874015748031497,
          "duration": 0.08333324999999547
        },
        {
          "name": "E5",
          "midi": 76,
          "time": 102.41656424999906,
          "velocity": 0.7874015748031497,
          "duration": 0.08333324999999547
        },
        {
          "name": "G5",
          "midi": 79,
          "time": 102.49989749999905,
          "velocity": 0.7874015748031497,
          "duration": 0.08333324999999547
        },
        {
          "name": "A#5",
          "midi": 82,
          "time": 102.58323074999905,
          "velocity": 0.7874015748031497,
          "duration": 0.08333324999999547
        },
        {
          "name": "C6",
          "midi": 84,
          "time": 102.66656399999904,
          "velocity": 0.7874015748031497,
          "duration": 0.08333324999999547
        },
        {
          "name": "A5",
          "midi": 81,
          "time": 102.74989724999904,
          "velocity": 0.7874015748031497,
          "duration": 0.08333324999999547
        },
        {
          "name": "F5",
          "midi": 77,
          "time": 102.83323049999903,
          "velocity": 0.7874015748031497,
          "duration": 0.08333324999999547
        },
        {
          "name": "C5",
          "midi": 72,
          "time": 102.91656374999903,
          "velocity": 0.7874015748031497,
          "duration": 0.08333324999999547
        },
        {
          "name": "A5",
          "midi": 81,
          "time": 102.99989699999902,
          "velocity": 0.7874015748031497,
          "duration": 0.08333324999999547
        },
        {
          "name": "F5",
          "midi": 77,
          "time": 103.08323024999902,
          "velocity": 0.7874015748031497,
          "duration": 0.08333324999999547
        },
        {
          "name": "C5",
          "midi": 72,
          "time": 103.16656349999901,
          "velocity": 0.7874015748031497,
          "duration": 0.08333324999999547
        },
        {
          "name": "A4",
          "midi": 69,
          "time": 103.24989674999901,
          "velocity": 0.7874015748031497,
          "duration": 0.08333324999999547
        },
        {
          "name": "F4",
          "midi": 65,
          "time": 103.333229999999,
          "velocity": 0.7874015748031497,
          "duration": 0.08333324999999547
        },
        {
          "name": "A4",
          "midi": 69,
          "time": 103.416563249999,
          "velocity": 0.7874015748031497,
          "duration": 0.08333324999999547
        },
        {
          "name": "C5",
          "midi": 72,
          "time": 103.499896499999,
          "velocity": 0.7874015748031497,
          "duration": 0.08333324999999547
        },
        {
          "name": "F5",
          "midi": 77,
          "time": 103.58322974999899,
          "velocity": 0.7874015748031497,
          "duration": 0.08333324999999547
        },
        {
          "name": "C5",
          "midi": 72,
          "time": 103.66656299999899,
          "velocity": 0.7874015748031497,
          "duration": 0.08333324999999547
        },
        {
          "name": "F5",
          "midi": 77,
          "time": 103.74989624999898,
          "velocity": 0.7874015748031497,
          "duration": 0.08333324999999547
        },
        {
          "name": "A5",
          "midi": 81,
          "time": 103.83322949999898,
          "velocity": 0.7874015748031497,
          "duration": 0.08333324999999547
        },
        {
          "name": "C6",
          "midi": 84,
          "time": 103.91656274999897,
          "velocity": 0.7874015748031497,
          "duration": 0.08333324999999547
        },
        {
          "name": "C6",
          "midi": 84,
          "time": 103.99989599999897,
          "velocity": 0.7874015748031497,
          "duration": 0.08333324999999547
        },
        {
          "name": "A5",
          "midi": 81,
          "time": 104.08322924999896,
          "velocity": 0.7874015748031497,
          "duration": 0.08333324999999547
        },
        {
          "name": "F5",
          "midi": 77,
          "time": 104.16656249999896,
          "velocity": 0.7874015748031497,
          "duration": 0.08333324999999547
        },
        {
          "name": "C5",
          "midi": 72,
          "time": 104.24989574999896,
          "velocity": 0.7874015748031497,
          "duration": 0.08333324999999547
        },
        {
          "name": "A5",
          "midi": 81,
          "time": 104.33322899999895,
          "velocity": 0.7874015748031497,
          "duration": 0.08333324999999547
        },
        {
          "name": "F5",
          "midi": 77,
          "time": 104.41656224999895,
          "velocity": 0.7874015748031497,
          "duration": 0.08333324999999547
        },
        {
          "name": "C5",
          "midi": 72,
          "time": 104.49989549999894,
          "velocity": 0.7874015748031497,
          "duration": 0.08333324999999547
        },
        {
          "name": "A4",
          "midi": 69,
          "time": 104.58322874999894,
          "velocity": 0.7874015748031497,
          "duration": 0.08333324999999547
        },
        {
          "name": "F4",
          "midi": 65,
          "time": 104.66656199999893,
          "velocity": 0.7874015748031497,
          "duration": 0.08333324999999547
        },
        {
          "name": "A4",
          "midi": 69,
          "time": 104.74989524999893,
          "velocity": 0.7874015748031497,
          "duration": 0.08333324999999547
        },
        {
          "name": "C5",
          "midi": 72,
          "time": 104.83322849999892,
          "velocity": 0.7874015748031497,
          "duration": 0.08333324999999547
        },
        {
          "name": "F5",
          "midi": 77,
          "time": 104.91656174999892,
          "velocity": 0.7874015748031497,
          "duration": 0.08333324999999547
        },
        {
          "name": "C5",
          "midi": 72,
          "time": 104.99989499999892,
          "velocity": 0.7874015748031497,
          "duration": 0.08333324999999547
        },
        {
          "name": "F5",
          "midi": 77,
          "time": 105.08322824999891,
          "velocity": 0.7874015748031497,
          "duration": 0.08333324999999547
        },
        {
          "name": "A5",
          "midi": 81,
          "time": 105.1665614999989,
          "velocity": 0.7874015748031497,
          "duration": 0.08333324999999547
        },
        {
          "name": "C6",
          "midi": 84,
          "time": 105.2498947499989,
          "velocity": 0.7874015748031497,
          "duration": 0.08333324999999547
        },
        {
          "name": "A#3",
          "midi": 58,
          "time": 105.3332279999989,
          "velocity": 0.7874015748031497,
          "duration": 0.08333324999999547
        },
        {
          "name": "D4",
          "midi": 62,
          "time": 105.41656124999889,
          "velocity": 0.7874015748031497,
          "duration": 0.08333324999999547
        },
        {
          "name": "F4",
          "midi": 65,
          "time": 105.49989449999889,
          "velocity": 0.7874015748031497,
          "duration": 0.08333324999999547
        },
        {
          "name": "A#4",
          "midi": 70,
          "time": 105.58322774999888,
          "velocity": 0.7874015748031497,
          "duration": 0.08333324999999547
        },
        {
          "name": "D4",
          "midi": 62,
          "time": 105.66656099999888,
          "velocity": 0.7874015748031497,
          "duration": 0.08333324999999547
        },
        {
          "name": "F4",
          "midi": 65,
          "time": 105.74989424999887,
          "velocity": 0.7874015748031497,
          "duration": 0.08333324999999547
        },
        {
          "name": "A#4",
          "midi": 70,
          "time": 105.83322749999887,
          "velocity": 0.7874015748031497,
          "duration": 0.08333324999999547
        },
        {
          "name": "D5",
          "midi": 74,
          "time": 105.91656074999887,
          "velocity": 0.7874015748031497,
          "duration": 0.08333324999999547
        },
        {
          "name": "F5",
          "midi": 77,
          "time": 105.99989399999886,
          "velocity": 0.7874015748031497,
          "duration": 0.08333324999999547
        },
        {
          "name": "D5",
          "midi": 74,
          "time": 106.08322724999886,
          "velocity": 0.7874015748031497,
          "duration": 0.08333324999999547
        },
        {
          "name": "A#4",
          "midi": 70,
          "time": 106.16656049999885,
          "velocity": 0.7874015748031497,
          "duration": 0.08333324999999547
        },
        {
          "name": "F4",
          "midi": 65,
          "time": 106.24989374999885,
          "velocity": 0.7874015748031497,
          "duration": 0.08333324999999547
        },
        {
          "name": "A#4",
          "midi": 70,
          "time": 106.33322699999884,
          "velocity": 0.7874015748031497,
          "duration": 0.08333324999999547
        },
        {
          "name": "F4",
          "midi": 65,
          "time": 106.41656024999884,
          "velocity": 0.7874015748031497,
          "duration": 0.08333324999999547
        },
        {
          "name": "D4",
          "midi": 62,
          "time": 106.49989349999883,
          "velocity": 0.7874015748031497,
          "duration": 0.08333324999999547
        },
        {
          "name": "A#3",
          "midi": 58,
          "time": 106.58322674999883,
          "velocity": 0.7874015748031497,
          "duration": 0.08333324999999547
        },
        {
          "name": "D#4",
          "midi": 63,
          "time": 106.66655999999882,
          "velocity": 0.7874015748031497,
          "duration": 0.08333324999999547
        },
        {
          "name": "G4",
          "midi": 67,
          "time": 106.74989324999882,
          "velocity": 0.7874015748031497,
          "duration": 0.08333324999999547
        },
        {
          "name": "A#4",
          "midi": 70,
          "time": 106.83322649999882,
          "velocity": 0.7874015748031497,
          "duration": 0.08333324999999547
        },
        {
          "name": "D#5",
          "midi": 75,
          "time": 106.91655974999881,
          "velocity": 0.7874015748031497,
          "duration": 0.08333324999999547
        },
        {
          "name": "G4",
          "midi": 67,
          "time": 106.9998929999988,
          "velocity": 0.7874015748031497,
          "duration": 0.08333324999999547
        },
        {
          "name": "A#4",
          "midi": 70,
          "time": 107.0832262499988,
          "velocity": 0.7874015748031497,
          "duration": 0.08333324999999547
        },
        {
          "name": "D#5",
          "midi": 75,
          "time": 107.1665594999988,
          "velocity": 0.7874015748031497,
          "duration": 0.08333324999999547
        },
        {
          "name": "G5",
          "midi": 79,
          "time": 107.24989274999879,
          "velocity": 0.7874015748031497,
          "duration": 0.08333324999999547
        },
        {
          "name": "A#5",
          "midi": 82,
          "time": 107.33322599999879,
          "velocity": 0.7874015748031497,
          "duration": 0.08333324999999547
        },
        {
          "name": "G5",
          "midi": 79,
          "time": 107.41655924999878,
          "velocity": 0.7874015748031497,
          "duration": 0.08333324999999547
        },
        {
          "name": "D#5",
          "midi": 75,
          "time": 107.49989249999878,
          "velocity": 0.7874015748031497,
          "duration": 0.08333324999999547
        },
        {
          "name": "A#4",
          "midi": 70,
          "time": 107.58322574999877,
          "velocity": 0.7874015748031497,
          "duration": 0.08333324999999547
        },
        {
          "name": "D#5",
          "midi": 75,
          "time": 107.66655899999877,
          "velocity": 0.7874015748031497,
          "duration": 0.08333324999999547
        },
        {
          "name": "A#4",
          "midi": 70,
          "time": 107.74989224999877,
          "velocity": 0.7874015748031497,
          "duration": 0.08333324999999547
        },
        {
          "name": "G4",
          "midi": 67,
          "time": 107.83322549999876,
          "velocity": 0.7874015748031497,
          "duration": 0.08333324999999547
        },
        {
          "name": "D#4",
          "midi": 63,
          "time": 107.91655874999876,
          "velocity": 0.7874015748031497,
          "duration": 0.08333324999999547
        },
        {
          "name": "F4",
          "midi": 65,
          "time": 107.99989199999875,
          "velocity": 0.7874015748031497,
          "duration": 0.08333324999999547
        },
        {
          "name": "A4",
          "midi": 69,
          "time": 108.08322524999875,
          "velocity": 0.7874015748031497,
          "duration": 0.08333324999999547
        },
        {
          "name": "C5",
          "midi": 72,
          "time": 108.16655849999874,
          "velocity": 0.7874015748031497,
          "duration": 0.08333324999999547
        },
        {
          "name": "F5",
          "midi": 77,
          "time": 108.24989174999874,
          "velocity": 0.7874015748031497,
          "duration": 0.08333324999999547
        },
        {
          "name": "A4",
          "midi": 69,
          "time": 108.33322499999873,
          "velocity": 0.7874015748031497,
          "duration": 0.08333324999999547
        },
        {
          "name": "C5",
          "midi": 72,
          "time": 108.41655824999873,
          "velocity": 0.7874015748031497,
          "duration": 0.08333324999999547
        },
        {
          "name": "F5",
          "midi": 77,
          "time": 108.49989149999872,
          "velocity": 0.7874015748031497,
          "duration": 0.08333324999999547
        },
        {
          "name": "A5",
          "midi": 81,
          "time": 108.58322474999872,
          "velocity": 0.7874015748031497,
          "duration": 0.08333324999999547
        },
        {
          "name": "C6",
          "midi": 84,
          "time": 108.66655799999872,
          "velocity": 0.7874015748031497,
          "duration": 0.08333324999999547
        },
        {
          "name": "A5",
          "midi": 81,
          "time": 108.74989124999871,
          "velocity": 0.7874015748031497,
          "duration": 0.08333324999999547
        },
        {
          "name": "F5",
          "midi": 77,
          "time": 108.8332244999987,
          "velocity": 0.7874015748031497,
          "duration": 0.08333324999999547
        },
        {
          "name": "C5",
          "midi": 72,
          "time": 108.9165577499987,
          "velocity": 0.7874015748031497,
          "duration": 0.08333324999999547
        },
        {
          "name": "F5",
          "midi": 77,
          "time": 108.9998909999987,
          "velocity": 0.7874015748031497,
          "duration": 0.08333324999999547
        },
        {
          "name": "C5",
          "midi": 72,
          "time": 109.0832242499987,
          "velocity": 0.7874015748031497,
          "duration": 0.08333324999999547
        },
        {
          "name": "A4",
          "midi": 69,
          "time": 109.16655749999869,
          "velocity": 0.7874015748031497,
          "duration": 0.08333324999999547
        },
        {
          "name": "F4",
          "midi": 65,
          "time": 109.24989074999868,
          "velocity": 0.7874015748031497,
          "duration": 0.08333324999999547
        },
        {
          "name": "G3",
          "midi": 55,
          "time": 109.33322399999868,
          "velocity": 0.7874015748031497,
          "duration": 0.08333324999999547
        },
        {
          "name": "A#3",
          "midi": 58,
          "time": 109.41655724999868,
          "velocity": 0.7874015748031497,
          "duration": 0.08333324999999547
        },
        {
          "name": "D4",
          "midi": 62,
          "time": 109.49989049999867,
          "velocity": 0.7874015748031497,
          "duration": 0.08333324999999547
        },
        {
          "name": "G4",
          "midi": 67,
          "time": 109.58322374999867,
          "velocity": 0.7874015748031497,
          "duration": 0.08333324999999547
        },
        {
          "name": "A#3",
          "midi": 58,
          "time": 109.66655699999866,
          "velocity": 0.7874015748031497,
          "duration": 0.08333324999999547
        },
        {
          "name": "D4",
          "midi": 62,
          "time": 109.74989024999866,
          "velocity": 0.7874015748031497,
          "duration": 0.08333324999999547
        },
        {
          "name": "G4",
          "midi": 67,
          "time": 109.83322349999865,
          "velocity": 0.7874015748031497,
          "duration": 0.08333324999999547
        },
        {
          "name": "A#4",
          "midi": 70,
          "time": 109.91655674999865,
          "velocity": 0.7874015748031497,
          "duration": 0.08333324999999547
        },
        {
          "name": "D5",
          "midi": 74,
          "time": 109.99988999999864,
          "velocity": 0.7874015748031497,
          "duration": 0.08333324999999547
        },
        {
          "name": "A#4",
          "midi": 70,
          "time": 110.08322324999864,
          "velocity": 0.7874015748031497,
          "duration": 0.08333324999999547
        },
        {
          "name": "G4",
          "midi": 67,
          "time": 110.16655649999863,
          "velocity": 0.7874015748031497,
          "duration": 0.08333324999999547
        },
        {
          "name": "D4",
          "midi": 62,
          "time": 110.24988974999863,
          "velocity": 0.7874015748031497,
          "duration": 0.08333324999999547
        },
        {
          "name": "G4",
          "midi": 67,
          "time": 110.33322299999863,
          "velocity": 0.7874015748031497,
          "duration": 0.08333324999999547
        },
        {
          "name": "D4",
          "midi": 62,
          "time": 110.41655624999862,
          "velocity": 0.7874015748031497,
          "duration": 0.08333324999999547
        },
        {
          "name": "A#3",
          "midi": 58,
          "time": 110.49988949999862,
          "velocity": 0.7874015748031497,
          "duration": 0.08333324999999547
        },
        {
          "name": "G3",
          "midi": 55,
          "time": 110.58322274999861,
          "velocity": 0.7874015748031497,
          "duration": 0.08333324999999547
        },
        {
          "name": "D#4",
          "midi": 63,
          "time": 110.66655599999861,
          "velocity": 0.7874015748031497,
          "duration": 0.08333324999999547
        },
        {
          "name": "G4",
          "midi": 67,
          "time": 110.7498892499986,
          "velocity": 0.7874015748031497,
          "duration": 0.08333324999999547
        },
        {
          "name": "A#4",
          "midi": 70,
          "time": 110.8332224999986,
          "velocity": 0.7874015748031497,
          "duration": 0.08333324999999547
        },
        {
          "name": "D#5",
          "midi": 75,
          "time": 110.9165557499986,
          "velocity": 0.7874015748031497,
          "duration": 0.08333324999999547
        },
        {
          "name": "G4",
          "midi": 67,
          "time": 110.99988899999859,
          "velocity": 0.7874015748031497,
          "duration": 0.08333324999999547
        },
        {
          "name": "A#4",
          "midi": 70,
          "time": 111.08322224999858,
          "velocity": 0.7874015748031497,
          "duration": 0.08333324999999547
        },
        {
          "name": "D#5",
          "midi": 75,
          "time": 111.16655549999858,
          "velocity": 0.7874015748031497,
          "duration": 0.08333324999999547
        },
        {
          "name": "G5",
          "midi": 79,
          "time": 111.24988874999858,
          "velocity": 0.7874015748031497,
          "duration": 0.08333324999999547
        },
        {
          "name": "A#5",
          "midi": 82,
          "time": 111.33322199999857,
          "velocity": 0.7874015748031497,
          "duration": 0.08333324999999547
        },
        {
          "name": "G5",
          "midi": 79,
          "time": 111.41655524999857,
          "velocity": 0.7874015748031497,
          "duration": 0.08333324999999547
        },
        {
          "name": "D#5",
          "midi": 75,
          "time": 111.49988849999856,
          "velocity": 0.7874015748031497,
          "duration": 0.08333324999999547
        },
        {
          "name": "A#4",
          "midi": 70,
          "time": 111.58322174999856,
          "velocity": 0.7874015748031497,
          "duration": 0.08333324999999547
        },
        {
          "name": "D#5",
          "midi": 75,
          "time": 111.66655499999855,
          "velocity": 0.7874015748031497,
          "duration": 0.08333324999999547
        },
        {
          "name": "A#4",
          "midi": 70,
          "time": 111.74988824999855,
          "velocity": 0.7874015748031497,
          "duration": 0.08333324999999547
        },
        {
          "name": "G4",
          "midi": 67,
          "time": 111.83322149999854,
          "velocity": 0.7874015748031497,
          "duration": 0.08333324999999547
        },
        {
          "name": "D#4",
          "midi": 63,
          "time": 111.91655474999854,
          "velocity": 0.7874015748031497,
          "duration": 0.08333324999999547
        },
        {
          "name": "A#3",
          "midi": 58,
          "time": 111.99988799999853,
          "velocity": 0.7874015748031497,
          "duration": 0.08333324999999547
        },
        {
          "name": "D4",
          "midi": 62,
          "time": 112.08322124999853,
          "velocity": 0.7874015748031497,
          "duration": 0.08333324999999547
        },
        {
          "name": "F4",
          "midi": 65,
          "time": 112.16655449999853,
          "velocity": 0.7874015748031497,
          "duration": 0.08333324999999547
        },
        {
          "name": "A#4",
          "midi": 70,
          "time": 112.24988774999852,
          "velocity": 0.7874015748031497,
          "duration": 0.08333324999999547
        },
        {
          "name": "D4",
          "midi": 62,
          "time": 112.33322099999852,
          "velocity": 0.7874015748031497,
          "duration": 0.08333324999999547
        },
        {
          "name": "F4",
          "midi": 65,
          "time": 112.41655424999851,
          "velocity": 0.7874015748031497,
          "duration": 0.08333324999999547
        },
        {
          "name": "A#4",
          "midi": 70,
          "time": 112.49988749999851,
          "velocity": 0.7874015748031497,
          "duration": 0.08333324999999547
        },
        {
          "name": "D5",
          "midi": 74,
          "time": 112.5832207499985,
          "velocity": 0.7874015748031497,
          "duration": 0.08333324999999547
        },
        {
          "name": "F5",
          "midi": 77,
          "time": 112.6665539999985,
          "velocity": 0.7874015748031497,
          "duration": 0.08333324999999547
        },
        {
          "name": "D5",
          "midi": 74,
          "time": 112.7498872499985,
          "velocity": 0.7874015748031497,
          "duration": 0.08333324999999547
        },
        {
          "name": "A#4",
          "midi": 70,
          "time": 112.83322049999849,
          "velocity": 0.7874015748031497,
          "duration": 0.08333324999999547
        },
        {
          "name": "F4",
          "midi": 65,
          "time": 112.91655374999849,
          "velocity": 0.7874015748031497,
          "duration": 0.08333324999999547
        },
        {
          "name": "A#4",
          "midi": 70,
          "time": 112.99988699999848,
          "velocity": 0.7874015748031497,
          "duration": 0.08333324999999547
        },
        {
          "name": "F4",
          "midi": 65,
          "time": 113.08322024999848,
          "velocity": 0.7874015748031497,
          "duration": 0.08333324999999547
        },
        {
          "name": "D4",
          "midi": 62,
          "time": 113.16655349999847,
          "velocity": 0.7874015748031497,
          "duration": 0.08333324999999547
        },
        {
          "name": "A#3",
          "midi": 58,
          "time": 113.24988674999847,
          "velocity": 0.7874015748031497,
          "duration": 0.08333324999999547
        },
        {
          "name": "C4",
          "midi": 60,
          "time": 113.33321999999846,
          "velocity": 0.7874015748031497,
          "duration": 0.08333324999999547
        },
        {
          "name": "E4",
          "midi": 64,
          "time": 113.41655324999846,
          "velocity": 0.7874015748031497,
          "duration": 0.08333324999999547
        },
        {
          "name": "G4",
          "midi": 67,
          "time": 113.49988649999845,
          "velocity": 0.7874015748031497,
          "duration": 0.08333324999999547
        },
        {
          "name": "C5",
          "midi": 72,
          "time": 113.58321974999845,
          "velocity": 0.7874015748031497,
          "duration": 0.08333324999999547
        },
        {
          "name": "E4",
          "midi": 64,
          "time": 113.66655299999844,
          "velocity": 0.7874015748031497,
          "duration": 0.08333324999999547
        },
        {
          "name": "G4",
          "midi": 67,
          "time": 113.74988624999844,
          "velocity": 0.7874015748031497,
          "duration": 0.08333324999999547
        },
        {
          "name": "C5",
          "midi": 72,
          "time": 113.83321949999844,
          "velocity": 0.7874015748031497,
          "duration": 0.08333324999999547
        },
        {
          "name": "E5",
          "midi": 76,
          "time": 113.91655274999843,
          "velocity": 0.7874015748031497,
          "duration": 0.08333324999999547
        },
        {
          "name": "G5",
          "midi": 79,
          "time": 113.99988599999843,
          "velocity": 0.7874015748031497,
          "duration": 0.08333324999999547
        },
        {
          "name": "E5",
          "midi": 76,
          "time": 114.08321924999842,
          "velocity": 0.7874015748031497,
          "duration": 0.08333324999999547
        },
        {
          "name": "C5",
          "midi": 72,
          "time": 114.16655249999842,
          "velocity": 0.7874015748031497,
          "duration": 0.08333324999999547
        },
        {
          "name": "G4",
          "midi": 67,
          "time": 114.24988574999841,
          "velocity": 0.7874015748031497,
          "duration": 0.08333324999999547
        },
        {
          "name": "C5",
          "midi": 72,
          "time": 114.33321899999841,
          "velocity": 0.7874015748031497,
          "duration": 0.08333324999999547
        },
        {
          "name": "G4",
          "midi": 67,
          "time": 114.4165522499984,
          "velocity": 0.7874015748031497,
          "duration": 0.08333324999999547
        },
        {
          "name": "E4",
          "midi": 64,
          "time": 114.4998854999984,
          "velocity": 0.7874015748031497,
          "duration": 0.08333324999999547
        },
        {
          "name": "C4",
          "midi": 60,
          "time": 114.5832187499984,
          "velocity": 0.7874015748031497,
          "duration": 0.08333324999999547
        },
        {
          "name": "F4",
          "midi": 65,
          "time": 114.66655199999839,
          "velocity": 0.7874015748031497,
          "duration": 0.08333324999999547
        },
        {
          "name": "A4",
          "midi": 69,
          "time": 114.74988524999839,
          "velocity": 0.7874015748031497,
          "duration": 0.08333324999999547
        },
        {
          "name": "C5",
          "midi": 72,
          "time": 114.83321849999838,
          "velocity": 0.7874015748031497,
          "duration": 0.08333324999999547
        },
        {
          "name": "F5",
          "midi": 77,
          "time": 114.91655174999838,
          "velocity": 0.7874015748031497,
          "duration": 0.08333324999999547
        },
        {
          "name": "A4",
          "midi": 69,
          "time": 114.99988499999837,
          "velocity": 0.7874015748031497,
          "duration": 0.08333324999999547
        },
        {
          "name": "C5",
          "midi": 72,
          "time": 115.08321824999837,
          "velocity": 0.7874015748031497,
          "duration": 0.08333324999999547
        },
        {
          "name": "F5",
          "midi": 77,
          "time": 115.16655149999836,
          "velocity": 0.7874015748031497,
          "duration": 0.08333324999999547
        },
        {
          "name": "A5",
          "midi": 81,
          "time": 115.24988474999836,
          "velocity": 0.7874015748031497,
          "duration": 0.08333324999999547
        },
        {
          "name": "C6",
          "midi": 84,
          "time": 115.33321799999835,
          "velocity": 0.7874015748031497,
          "duration": 0.08333324999999547
        },
        {
          "name": "A5",
          "midi": 81,
          "time": 115.41655124999835,
          "velocity": 0.7874015748031497,
          "duration": 0.08333324999999547
        },
        {
          "name": "F5",
          "midi": 77,
          "time": 115.49988449999834,
          "velocity": 0.7874015748031497,
          "duration": 0.08333324999999547
        },
        {
          "name": "C5",
          "midi": 72,
          "time": 115.58321774999834,
          "velocity": 0.7874015748031497,
          "duration": 0.08333324999999547
        },
        {
          "name": "F5",
          "midi": 77,
          "time": 115.66655099999834,
          "velocity": 0.7874015748031497,
          "duration": 0.08333324999999547
        },
        {
          "name": "C5",
          "midi": 72,
          "time": 115.74988424999833,
          "velocity": 0.7874015748031497,
          "duration": 0.08333324999999547
        },
        {
          "name": "A4",
          "midi": 69,
          "time": 115.83321749999833,
          "velocity": 0.7874015748031497,
          "duration": 0.08333324999999547
        },
        {
          "name": "F4",
          "midi": 65,
          "time": 115.91655074999832,
          "velocity": 0.7874015748031497,
          "duration": 0.08333324999999547
        },
        {
          "name": "A#3",
          "midi": 58,
          "time": 115.99988399999832,
          "velocity": 0.7874015748031497,
          "duration": 0.08333324999999547
        },
        {
          "name": "D4",
          "midi": 62,
          "time": 116.08321724999831,
          "velocity": 0.7874015748031497,
          "duration": 0.08333324999999547
        },
        {
          "name": "F4",
          "midi": 65,
          "time": 116.16655049999831,
          "velocity": 0.7874015748031497,
          "duration": 0.08333324999999547
        },
        {
          "name": "A#4",
          "midi": 70,
          "time": 116.2498837499983,
          "velocity": 0.7874015748031497,
          "duration": 0.08333324999999547
        },
        {
          "name": "D4",
          "midi": 62,
          "time": 116.3332169999983,
          "velocity": 0.7874015748031497,
          "duration": 0.08333324999999547
        },
        {
          "name": "F4",
          "midi": 65,
          "time": 116.4165502499983,
          "velocity": 0.7874015748031497,
          "duration": 0.08333324999999547
        },
        {
          "name": "A#4",
          "midi": 70,
          "time": 116.49988349999829,
          "velocity": 0.7874015748031497,
          "duration": 0.08333324999999547
        },
        {
          "name": "D5",
          "midi": 74,
          "time": 116.58321674999829,
          "velocity": 0.7874015748031497,
          "duration": 0.08333324999999547
        },
        {
          "name": "F5",
          "midi": 77,
          "time": 116.66654999999828,
          "velocity": 0.7874015748031497,
          "duration": 0.08333324999999547
        },
        {
          "name": "D5",
          "midi": 74,
          "time": 116.74988324999828,
          "velocity": 0.7874015748031497,
          "duration": 0.08333324999999547
        },
        {
          "name": "A#4",
          "midi": 70,
          "time": 116.83321649999827,
          "velocity": 0.7874015748031497,
          "duration": 0.08333324999999547
        },
        {
          "name": "F4",
          "midi": 65,
          "time": 116.91654974999827,
          "velocity": 0.7874015748031497,
          "duration": 0.08333324999999547
        },
        {
          "name": "A#4",
          "midi": 70,
          "time": 116.99988299999826,
          "velocity": 0.7874015748031497,
          "duration": 0.08333324999999547
        },
        {
          "name": "F4",
          "midi": 65,
          "time": 117.08321624999826,
          "velocity": 0.7874015748031497,
          "duration": 0.08333324999999547
        },
        {
          "name": "D4",
          "midi": 62,
          "time": 117.16654949999825,
          "velocity": 0.7874015748031497,
          "duration": 0.08333324999999547
        },
        {
          "name": "A#3",
          "midi": 58,
          "time": 117.24988274999825,
          "velocity": 0.7874015748031497,
          "duration": 0.08333324999999547
        },
        {
          "name": "D#4",
          "midi": 63,
          "time": 117.33321599999825,
          "velocity": 0.7874015748031497,
          "duration": 0.08333324999999547
        },
        {
          "name": "G4",
          "midi": 67,
          "time": 117.41654924999824,
          "velocity": 0.7874015748031497,
          "duration": 0.08333324999999547
        },
        {
          "name": "A#4",
          "midi": 70,
          "time": 117.49988249999824,
          "velocity": 0.7874015748031497,
          "duration": 0.08333324999999547
        },
        {
          "name": "D#5",
          "midi": 75,
          "time": 117.58321574999823,
          "velocity": 0.7874015748031497,
          "duration": 0.08333324999999547
        },
        {
          "name": "G4",
          "midi": 67,
          "time": 117.66654899999823,
          "velocity": 0.7874015748031497,
          "duration": 0.08333324999999547
        },
        {
          "name": "A#4",
          "midi": 70,
          "time": 117.74988224999822,
          "velocity": 0.7874015748031497,
          "duration": 0.08333324999999547
        },
        {
          "name": "D#5",
          "midi": 75,
          "time": 117.83321549999822,
          "velocity": 0.7874015748031497,
          "duration": 0.08333324999999547
        },
        {
          "name": "G5",
          "midi": 79,
          "time": 117.91654874999821,
          "velocity": 0.7874015748031497,
          "duration": 0.08333324999999547
        },
        {
          "name": "A#5",
          "midi": 82,
          "time": 117.99988199999821,
          "velocity": 0.7874015748031497,
          "duration": 0.08333324999999547
        },
        {
          "name": "G5",
          "midi": 79,
          "time": 118.0832152499982,
          "velocity": 0.7874015748031497,
          "duration": 0.08333324999999547
        },
        {
          "name": "D#5",
          "midi": 75,
          "time": 118.1665484999982,
          "velocity": 0.7874015748031497,
          "duration": 0.08333324999999547
        },
        {
          "name": "A#4",
          "midi": 70,
          "time": 118.2498817499982,
          "velocity": 0.7874015748031497,
          "duration": 0.08333324999999547
        },
        {
          "name": "D#5",
          "midi": 75,
          "time": 118.33321499999819,
          "velocity": 0.7874015748031497,
          "duration": 0.08333324999999547
        },
        {
          "name": "A#4",
          "midi": 70,
          "time": 118.41654824999819,
          "velocity": 0.7874015748031497,
          "duration": 0.08333324999999547
        },
        {
          "name": "G4",
          "midi": 67,
          "time": 118.49988149999818,
          "velocity": 0.7874015748031497,
          "duration": 0.08333324999999547
        },
        {
          "name": "D#4",
          "midi": 63,
          "time": 118.58321474999818,
          "velocity": 0.7874015748031497,
          "duration": 0.08333324999999547
        },
        {
          "name": "F4",
          "midi": 65,
          "time": 118.66654799999817,
          "velocity": 0.7874015748031497,
          "duration": 0.08333324999999547
        },
        {
          "name": "A4",
          "midi": 69,
          "time": 118.74988124999817,
          "velocity": 0.7874015748031497,
          "duration": 0.08333324999999547
        },
        {
          "name": "C5",
          "midi": 72,
          "time": 118.83321449999816,
          "velocity": 0.7874015748031497,
          "duration": 0.08333324999999547
        },
        {
          "name": "F5",
          "midi": 77,
          "time": 118.91654774999816,
          "velocity": 0.7874015748031497,
          "duration": 0.08333324999999547
        },
        {
          "name": "A4",
          "midi": 69,
          "time": 118.99988099999815,
          "velocity": 0.7874015748031497,
          "duration": 0.08333324999999547
        },
        {
          "name": "C5",
          "midi": 72,
          "time": 119.08321424999815,
          "velocity": 0.7874015748031497,
          "duration": 0.08333324999999547
        },
        {
          "name": "F5",
          "midi": 77,
          "time": 119.16654749999815,
          "velocity": 0.7874015748031497,
          "duration": 0.08333324999999547
        },
        {
          "name": "A5",
          "midi": 81,
          "time": 119.24988074999814,
          "velocity": 0.7874015748031497,
          "duration": 0.08333324999999547
        },
        {
          "name": "C6",
          "midi": 84,
          "time": 119.33321399999814,
          "velocity": 0.7874015748031497,
          "duration": 0.08333324999999547
        },
        {
          "name": "A5",
          "midi": 81,
          "time": 119.41654724999813,
          "velocity": 0.7874015748031497,
          "duration": 0.08333324999999547
        },
        {
          "name": "F#5",
          "midi": 78,
          "time": 119.49988049999813,
          "velocity": 0.7874015748031497,
          "duration": 0.08333324999999547
        },
        {
          "name": "C5",
          "midi": 72,
          "time": 119.58321374999812,
          "velocity": 0.7874015748031497,
          "duration": 0.08333324999999547
        },
        {
          "name": "F#5",
          "midi": 78,
          "time": 119.66654699999812,
          "velocity": 0.7874015748031497,
          "duration": 0.08333324999999547
        },
        {
          "name": "C5",
          "midi": 72,
          "time": 119.74988024999811,
          "velocity": 0.7874015748031497,
          "duration": 0.08333324999999547
        },
        {
          "name": "A4",
          "midi": 69,
          "time": 119.83321349999811,
          "velocity": 0.7874015748031497,
          "duration": 0.08333324999999547
        },
        {
          "name": "F#4",
          "midi": 66,
          "time": 119.9165467499981,
          "velocity": 0.7874015748031497,
          "duration": 0.08333324999999547
        },
        {
          "name": "G3",
          "midi": 55,
          "time": 119.9998799999981,
          "velocity": 0.7874015748031497,
          "duration": 0.08333324999999547
        },
        {
          "name": "A#3",
          "midi": 58,
          "time": 120.0832132499981,
          "velocity": 0.7874015748031497,
          "duration": 0.08333324999999547
        },
        {
          "name": "D4",
          "midi": 62,
          "time": 120.16654649999809,
          "velocity": 0.7874015748031497,
          "duration": 0.08333324999999547
        },
        {
          "name": "G4",
          "midi": 67,
          "time": 120.24987974999809,
          "velocity": 0.7874015748031497,
          "duration": 0.08333324999999547
        },
        {
          "name": "A#3",
          "midi": 58,
          "time": 120.33321299999808,
          "velocity": 0.7874015748031497,
          "duration": 0.08333324999999547
        },
        {
          "name": "D4",
          "midi": 62,
          "time": 120.41654624999808,
          "velocity": 0.7874015748031497,
          "duration": 0.08333324999999547
        },
        {
          "name": "G4",
          "midi": 67,
          "time": 120.49987949999807,
          "velocity": 0.7874015748031497,
          "duration": 0.08333324999999547
        },
        {
          "name": "A#4",
          "midi": 70,
          "time": 120.58321274999807,
          "velocity": 0.7874015748031497,
          "duration": 0.08333324999999547
        },
        {
          "name": "D5",
          "midi": 74,
          "time": 120.66654599999806,
          "velocity": 0.7874015748031497,
          "duration": 0.08333324999999547
        },
        {
          "name": "A#4",
          "midi": 70,
          "time": 120.74987924999806,
          "velocity": 0.7874015748031497,
          "duration": 0.08333324999999547
        },
        {
          "name": "G4",
          "midi": 67,
          "time": 120.83321249999806,
          "velocity": 0.7874015748031497,
          "duration": 0.08333324999999547
        },
        {
          "name": "D4",
          "midi": 62,
          "time": 120.91654574999805,
          "velocity": 0.7874015748031497,
          "duration": 0.08333324999999547
        },
        {
          "name": "G4",
          "midi": 67,
          "time": 120.99987899999805,
          "velocity": 0.7874015748031497,
          "duration": 0.08333324999999547
        },
        {
          "name": "D4",
          "midi": 62,
          "time": 121.08321224999804,
          "velocity": 0.7874015748031497,
          "duration": 0.08333324999999547
        },
        {
          "name": "A#3",
          "midi": 58,
          "time": 121.16654549999804,
          "velocity": 0.7874015748031497,
          "duration": 0.08333324999999547
        },
        {
          "name": "G3",
          "midi": 55,
          "time": 121.24987874999803,
          "velocity": 0.7874015748031497,
          "duration": 0.08333324999999547
        },
        {
          "name": "D#4",
          "midi": 63,
          "time": 121.33321199999803,
          "velocity": 0.7874015748031497,
          "duration": 0.08333324999999547
        },
        {
          "name": "G4",
          "midi": 67,
          "time": 121.41654524999802,
          "velocity": 0.7874015748031497,
          "duration": 0.08333324999999547
        },
        {
          "name": "A#4",
          "midi": 70,
          "time": 121.49987849999802,
          "velocity": 0.7874015748031497,
          "duration": 0.08333324999999547
        },
        {
          "name": "D#5",
          "midi": 75,
          "time": 121.58321174999801,
          "velocity": 0.7874015748031497,
          "duration": 0.08333324999999547
        },
        {
          "name": "G4",
          "midi": 67,
          "time": 121.66654499999801,
          "velocity": 0.7874015748031497,
          "duration": 0.08333324999999547
        },
        {
          "name": "A#4",
          "midi": 70,
          "time": 121.749878249998,
          "velocity": 0.7874015748031497,
          "duration": 0.08333324999999547
        },
        {
          "name": "D#5",
          "midi": 75,
          "time": 121.833211499998,
          "velocity": 0.7874015748031497,
          "duration": 0.08333324999999547
        },
        {
          "name": "G5",
          "midi": 79,
          "time": 121.916544749998,
          "velocity": 0.7874015748031497,
          "duration": 0.08333324999999547
        },
        {
          "name": "A#5",
          "midi": 82,
          "time": 121.99987799999799,
          "velocity": 0.7874015748031497,
          "duration": 0.08333324999999547
        },
        {
          "name": "G5",
          "midi": 79,
          "time": 122.08321124999799,
          "velocity": 0.7874015748031497,
          "duration": 0.08333324999999547
        },
        {
          "name": "D#5",
          "midi": 75,
          "time": 122.16654449999798,
          "velocity": 0.7874015748031497,
          "duration": 0.08333324999999547
        },
        {
          "name": "A#4",
          "midi": 70,
          "time": 122.24987774999798,
          "velocity": 0.7874015748031497,
          "duration": 0.08333324999999547
        },
        {
          "name": "D#5",
          "midi": 75,
          "time": 122.33321099999797,
          "velocity": 0.7874015748031497,
          "duration": 0.08333324999999547
        },
        {
          "name": "A#4",
          "midi": 70,
          "time": 122.41654424999797,
          "velocity": 0.7874015748031497,
          "duration": 0.08333324999999547
        },
        {
          "name": "G4",
          "midi": 67,
          "time": 122.49987749999796,
          "velocity": 0.7874015748031497,
          "duration": 0.08333324999999547
        },
        {
          "name": "D#4",
          "midi": 63,
          "time": 122.58321074999796,
          "velocity": 0.7874015748031497,
          "duration": 0.08333324999999547
        },
        {
          "name": "E4",
          "midi": 64,
          "time": 122.66654399999796,
          "velocity": 0.7874015748031497,
          "duration": 0.08333324999999547
        },
        {
          "name": "G4",
          "midi": 67,
          "time": 122.74987724999795,
          "velocity": 0.7874015748031497,
          "duration": 0.08333324999999547
        },
        {
          "name": "A#4",
          "midi": 70,
          "time": 122.83321049999795,
          "velocity": 0.7874015748031497,
          "duration": 0.08333324999999547
        },
        {
          "name": "E5",
          "midi": 76,
          "time": 122.91654374999794,
          "velocity": 0.7874015748031497,
          "duration": 0.08333324999999547
        },
        {
          "name": "G4",
          "midi": 67,
          "time": 122.99987699999794,
          "velocity": 0.7874015748031497,
          "duration": 0.08333324999999547
        },
        {
          "name": "A#4",
          "midi": 70,
          "time": 123.08321024999793,
          "velocity": 0.7874015748031497,
          "duration": 0.08333324999999547
        },
        {
          "name": "E5",
          "midi": 76,
          "time": 123.16654349999793,
          "velocity": 0.7874015748031497,
          "duration": 0.08333324999999547
        },
        {
          "name": "G5",
          "midi": 79,
          "time": 123.24987674999792,
          "velocity": 0.7874015748031497,
          "duration": 0.08333324999999547
        },
        {
          "name": "A#5",
          "midi": 82,
          "time": 123.33320999999792,
          "velocity": 0.7874015748031497,
          "duration": 0.08333324999999547
        },
        {
          "name": "G5",
          "midi": 79,
          "time": 123.41654324999791,
          "velocity": 0.7874015748031497,
          "duration": 0.08333324999999547
        },
        {
          "name": "E5",
          "midi": 76,
          "time": 123.49987649999791,
          "velocity": 0.7874015748031497,
          "duration": 0.08333324999999547
        },
        {
          "name": "A#4",
          "midi": 70,
          "time": 123.5832097499979,
          "velocity": 0.7874015748031497,
          "duration": 0.08333324999999547
        },
        {
          "name": "E5",
          "midi": 76,
          "time": 123.6665429999979,
          "velocity": 0.7874015748031497,
          "duration": 0.08333324999999547
        },
        {
          "name": "A#4",
          "midi": 70,
          "time": 123.7498762499979,
          "velocity": 0.7874015748031497,
          "duration": 0.08333324999999547
        },
        {
          "name": "G4",
          "midi": 67,
          "time": 123.83320949999789,
          "velocity": 0.7874015748031497,
          "duration": 0.08333324999999547
        },
        {
          "name": "E4",
          "midi": 64,
          "time": 123.91654274999789,
          "velocity": 0.7874015748031497,
          "duration": 0.08333324999999547
        },
        {
          "name": "F4",
          "midi": 65,
          "time": 123.99987599999788,
          "velocity": 0.7874015748031497,
          "duration": 0.08333324999999547
        },
        {
          "name": "A4",
          "midi": 69,
          "time": 124.08320924999788,
          "velocity": 0.7874015748031497,
          "duration": 0.08333324999999547
        },
        {
          "name": "C5",
          "midi": 72,
          "time": 124.16654249999787,
          "velocity": 0.7874015748031497,
          "duration": 0.08333324999999547
        },
        {
          "name": "F5",
          "midi": 77,
          "time": 124.24987574999787,
          "velocity": 0.7874015748031497,
          "duration": 0.08333324999999547
        },
        {
          "name": "A4",
          "midi": 69,
          "time": 124.33320899999786,
          "velocity": 0.7874015748031497,
          "duration": 0.08333324999999547
        },
        {
          "name": "C5",
          "midi": 72,
          "time": 124.41654224999786,
          "velocity": 0.7874015748031497,
          "duration": 0.08333324999999547
        },
        {
          "name": "F5",
          "midi": 77,
          "time": 124.49987549999786,
          "velocity": 0.7874015748031497,
          "duration": 0.08333324999999547
        },
        {
          "name": "A5",
          "midi": 81,
          "time": 124.58320874999785,
          "velocity": 0.7874015748031497,
          "duration": 0.08333324999999547
        },
        {
          "name": "C6",
          "midi": 84,
          "time": 124.66654199999785,
          "velocity": 0.7874015748031497,
          "duration": 0.08333324999999547
        },
        {
          "name": "A5",
          "midi": 81,
          "time": 124.74987524999784,
          "velocity": 0.7874015748031497,
          "duration": 0.08333324999999547
        },
        {
          "name": "F5",
          "midi": 77,
          "time": 124.83320849999784,
          "velocity": 0.7874015748031497,
          "duration": 0.08333324999999547
        },
        {
          "name": "C5",
          "midi": 72,
          "time": 124.91654174999783,
          "velocity": 0.7874015748031497,
          "duration": 0.08333324999999547
        },
        {
          "name": "F5",
          "midi": 77,
          "time": 124.99987499999783,
          "velocity": 0.7874015748031497,
          "duration": 0.08333324999999547
        },
        {
          "name": "C5",
          "midi": 72,
          "time": 125.08320824999782,
          "velocity": 0.7874015748031497,
          "duration": 0.08333324999999547
        },
        {
          "name": "A4",
          "midi": 69,
          "time": 125.16654149999782,
          "velocity": 0.7874015748031497,
          "duration": 0.08333324999999547
        },
        {
          "name": "F4",
          "midi": 65,
          "time": 125.24987474999782,
          "velocity": 0.7874015748031497,
          "duration": 0.08333324999999547
        },
        {
          "name": "F4",
          "midi": 65,
          "time": 125.33320799999781,
          "velocity": 0.7874015748031497,
          "duration": 0.08333324999999547
        },
        {
          "name": "A4",
          "midi": 69,
          "time": 125.4165412499978,
          "velocity": 0.7874015748031497,
          "duration": 0.08333324999999547
        },
        {
          "name": "C5",
          "midi": 72,
          "time": 125.4998744999978,
          "velocity": 0.7874015748031497,
          "duration": 0.08333324999999547
        },
        {
          "name": "F5",
          "midi": 77,
          "time": 125.5832077499978,
          "velocity": 0.7874015748031497,
          "duration": 0.08333324999999547
        },
        {
          "name": "A4",
          "midi": 69,
          "time": 125.66654099999779,
          "velocity": 0.7874015748031497,
          "duration": 0.08333324999999547
        },
        {
          "name": "C5",
          "midi": 72,
          "time": 125.74987424999779,
          "velocity": 0.7874015748031497,
          "duration": 0.08333324999999547
        },
        {
          "name": "F5",
          "midi": 77,
          "time": 125.83320749999778,
          "velocity": 0.7874015748031497,
          "duration": 0.08333324999999547
        },
        {
          "name": "A5",
          "midi": 81,
          "time": 125.91654074999778,
          "velocity": 0.7874015748031497,
          "duration": 0.08333324999999547
        },
        {
          "name": "C6",
          "midi": 84,
          "time": 125.99987399999777,
          "velocity": 0.7874015748031497,
          "duration": 0.08333324999999547
        },
        {
          "name": "A5",
          "midi": 81,
          "time": 126.08320724999777,
          "velocity": 0.7874015748031497,
          "duration": 0.08333324999999547
        },
        {
          "name": "F5",
          "midi": 77,
          "time": 126.16654049999777,
          "velocity": 0.7874015748031497,
          "duration": 0.08333324999999547
        },
        {
          "name": "C5",
          "midi": 72,
          "time": 126.24987374999776,
          "velocity": 0.7874015748031497,
          "duration": 0.08333324999999547
        },
        {
          "name": "F5",
          "midi": 77,
          "time": 126.33320699999776,
          "velocity": 0.7874015748031497,
          "duration": 0.08333324999999547
        },
        {
          "name": "C5",
          "midi": 72,
          "time": 126.41654024999775,
          "velocity": 0.7874015748031497,
          "duration": 0.08333324999999547
        },
        {
          "name": "A4",
          "midi": 69,
          "time": 126.49987349999775,
          "velocity": 0.7874015748031497,
          "duration": 0.08333324999999547
        },
        {
          "name": "F4",
          "midi": 65,
          "time": 126.58320674999774,
          "velocity": 0.7874015748031497,
          "duration": 0.08333324999999547
        },
        {
          "name": "A#5",
          "midi": 82,
          "time": 126.66653999999774,
          "velocity": 0.7874015748031497,
          "duration": 0.08333324999999547
        },
        {
          "name": "F5",
          "midi": 77,
          "time": 126.74987324999773,
          "velocity": 0.7874015748031497,
          "duration": 0.08333324999999547
        },
        {
          "name": "D5",
          "midi": 74,
          "time": 126.83320649999773,
          "velocity": 0.7874015748031497,
          "duration": 0.08333324999999547
        },
        {
          "name": "A#4",
          "midi": 70,
          "time": 126.91653974999772,
          "velocity": 0.7874015748031497,
          "duration": 0.08333324999999547
        },
        {
          "name": "F5",
          "midi": 77,
          "time": 127.16653949999773,
          "velocity": 0.7874015748031497,
          "duration": 0.08333324999999547
        },
        {
          "name": "D5",
          "midi": 74,
          "time": 127.24987274999772,
          "velocity": 0.7874015748031497,
          "duration": 0.08333324999999547
        },
        {
          "name": "A#4",
          "midi": 70,
          "time": 127.33320599999772,
          "velocity": 0.7874015748031497,
          "duration": 0.08333324999999547
        },
        {
          "name": "F4",
          "midi": 65,
          "time": 127.41653924999771,
          "velocity": 0.7874015748031497,
          "duration": 0.08333324999999547
        },
        {
          "name": "D5",
          "midi": 74,
          "time": 127.66653899999771,
          "velocity": 0.7874015748031497,
          "duration": 0.08333324999999547
        },
        {
          "name": "A#4",
          "midi": 70,
          "time": 127.74987224999771,
          "velocity": 0.7874015748031497,
          "duration": 0.08333324999999547
        },
        {
          "name": "F4",
          "midi": 65,
          "time": 127.8332054999977,
          "velocity": 0.7874015748031497,
          "duration": 0.08333324999999547
        },
        {
          "name": "D4",
          "midi": 62,
          "time": 127.9165387499977,
          "velocity": 0.7874015748031497,
          "duration": 0.08333324999999547
        },
        {
          "name": "A#3",
          "midi": 58,
          "time": 128.1665384999977,
          "velocity": 0.7874015748031497,
          "duration": 0.08333325000000968
        },
        {
          "name": "D4",
          "midi": 62,
          "time": 128.2498717499977,
          "velocity": 0.7874015748031497,
          "duration": 0.08333325000000968
        },
        {
          "name": "F4",
          "midi": 65,
          "time": 128.33320499999772,
          "velocity": 0.7874015748031497,
          "duration": 0.08333325000000968
        },
        {
          "name": "A#4",
          "midi": 70,
          "time": 128.41653824999773,
          "velocity": 0.7874015748031497,
          "duration": 0.08333325000000968
        },
        {
          "name": "D5",
          "midi": 74,
          "time": 128.49987149999774,
          "velocity": 0.7874015748031497,
          "duration": 0.08333325000000968
        },
        {
          "name": "F5",
          "midi": 77,
          "time": 128.58320474999775,
          "velocity": 0.7874015748031497,
          "duration": 0.08333325000000968
        },
        {
          "name": "A#5",
          "midi": 82,
          "time": 128.66653799999776,
          "velocity": 0.7874015748031497,
          "duration": 0.08333325000000968
        }
      ],
      "controlChanges": {
        "6": [
          {
            "number": 6,
            "time": 0,
            "value": 0.09448818897637795
          },
          {
            "number": 6,
            "time": 0,
            "value": 0.09448818897637795
          },
          {
            "number": 6,
            "time": 0,
            "value": 0.09448818897637795
          },
          {
            "number": 6,
            "time": 129.33320399999778,
            "value": 0.09448818897637795
          },
          {
            "number": 6,
            "time": 131.0693133749978,
            "value": 0.09448818897637795
          }
        ],
        "7": [
          {
            "number": 7,
            "time": 0,
            "value": 0.7874015748031497
          },
          {
            "number": 7,
            "time": 0,
            "value": 0.7874015748031497
          },
          {
            "number": 7,
            "time": 0,
            "value": 0.7874015748031497
          },
          {
            "number": 7,
            "time": 0,
            "value": 0.7874015748031497
          },
          {
            "number": 7,
            "time": 0,
            "value": 0.7874015748031497
          },
          {
            "number": 7,
            "time": 0,
            "value": 0.7874015748031497
          },
          {
            "number": 7,
            "time": 129.33320399999778,
            "value": 0.7874015748031497
          },
          {
            "number": 7,
            "time": 131.06584115624779,
            "value": 0.7874015748031497
          },
          {
            "number": 7,
            "time": 131.0693133749978,
            "value": 0.7874015748031497
          }
        ],
        "10": [
          {
            "number": 10,
            "time": 0,
            "value": 0.5039370078740157
          },
          {
            "number": 10,
            "time": 0,
            "value": 0.5039370078740157
          },
          {
            "number": 10,
            "time": 0,
            "value": 0.5039370078740157
          },
          {
            "number": 10,
            "time": 0,
            "value": 0.5039370078740157
          },
          {
            "number": 10,
            "time": 0,
            "value": 0.5039370078740157
          },
          {
            "number": 10,
            "time": 0,
            "value": 0.5039370078740157
          },
          {
            "number": 10,
            "time": 129.33320399999778,
            "value": 0.5039370078740157
          },
          {
            "number": 10,
            "time": 131.06584115624779,
            "value": 0.5039370078740157
          },
          {
            "number": 10,
            "time": 131.0693133749978,
            "value": 0.5039370078740157
          }
        ],
        "100": [
          {
            "number": 100,
            "time": 0,
            "value": 0
          },
          {
            "number": 100,
            "time": 0,
            "value": 0
          },
          {
            "number": 100,
            "time": 0,
            "value": 0
          },
          {
            "number": 100,
            "time": 129.33320399999778,
            "value": 0
          },
          {
            "number": 100,
            "time": 131.0693133749978,
            "value": 0
          }
        ],
        "101": [
          {
            "number": 101,
            "time": 0,
            "value": 0
          },
          {
            "number": 101,
            "time": 0,
            "value": 0
          },
          {
            "number": 101,
            "time": 0,
            "value": 0
          },
          {
            "number": 101,
            "time": 129.33320399999778,
            "value": 0
          },
          {
            "number": 101,
            "time": 131.0693133749978,
            "value": 0
          }
        ]
      },
      "id": 6,
      "name": "Harp",
      "instrumentNumber": 46,
      "instrument": "orchestral harp",
      "instrumentFamily": "strings",
      "channelNumber": 4,
      "isPercussion": false
    },
    {
      "startTime": 0,
      "duration": 0,
      "length": 0,
      "notes": [],
      "controlChanges": {},
      "id": 7,
      "name": "SGP2"
    }
  ]
}